<svg xmlns="http://www.w3.org/2000/svg" width="1400" height="900" viewBox="0 0 1400 900">
<rect x="0" y="0" width="100%" height="100%" fill="white"/>
<g stroke="#111" stroke-width="1.2" fill="none" stroke-linecap="round">
<line x1="1234" y1="809" x2="1238" y2="809"/>
<line x1="1234" y1="809" x2="1191" y2="809"/>
<line x1="1238" y1="756" x2="1238" y2="809"/>
<line x1="1238" y1="756" x2="1238" y2="40"/>
<line x1="230" y1="525" x2="230" y2="40"/>
<line x1="230" y1="525" x2="230" y2="763"/>
<line x1="1190" y1="809" x2="1191" y2="809"/>
<line x1="1190" y1="809" x2="1190" y2="809"/>
<line x1="230" y1="792" x2="230" y2="763"/>
<line x1="230" y1="792" x2="230" y2="793"/>
<line x1="1190" y1="809" x2="977" y2="809"/>
<line x1="977" y1="809" x2="975" y2="809"/>
<line x1="975" y1="809" x2="765" y2="809"/>
<line x1="765" y1="809" x2="764" y2="809"/>
<line x1="764" y1="809" x2="617" y2="809"/>
<line x1="617" y1="809" x2="615" y2="809"/>
<line x1="615" y1="809" x2="506" y2="809"/>
<line x1="506" y1="809" x2="505" y2="809"/>
<line x1="505" y1="809" x2="462" y2="809"/>
<line x1="685" y1="860" x2="452" y2="860"/>
<line x1="685" y1="860" x2="721" y2="860"/>
<line x1="721" y1="860" x2="722" y2="860"/>
<line x1="722" y1="860" x2="771" y2="860"/>
<line x1="771" y1="860" x2="773" y2="860"/>
<line x1="773" y1="860" x2="843" y2="860"/>
<line x1="843" y1="860" x2="845" y2="860"/>
<line x1="845" y1="860" x2="956" y2="860"/>
<line x1="956" y1="860" x2="960" y2="860"/>
<line x1="960" y1="860" x2="1163" y2="860"/>
<line x1="1163" y1="860" x2="1169" y2="860"/>
<line x1="1169" y1="860" x2="1295" y2="860"/>
<line x1="333" y1="860" x2="452" y2="860"/>
<line x1="326" y1="860" x2="333" y2="860"/>
<line x1="318" y1="860" x2="326" y2="860"/>
<line x1="309" y1="860" x2="318" y2="860"/>
<line x1="299" y1="860" x2="309" y2="860"/>
<line x1="287" y1="860" x2="299" y2="860"/>
<line x1="273" y1="860" x2="287" y2="860"/>
<line x1="257" y1="860" x2="273" y2="860"/>
<line x1="238" y1="860" x2="257" y2="860"/>
<line x1="116" y1="860" x2="238" y2="860"/>
<line x1="181" y1="40" x2="230" y2="40"/>
<line x1="181" y1="40" x2="105" y2="40"/>
<line x1="1295" y1="40" x2="1244" y2="40"/>
<line x1="1243" y1="40" x2="1243" y2="40"/>
<line x1="1243" y1="40" x2="1244" y2="40"/>
<line x1="1238" y1="40" x2="1243" y2="40"/>
<line x1="1295" y1="344" x2="1295" y2="40"/>
<line x1="1295" y1="344" x2="1295" y2="860"/>
<line x1="105" y1="464" x2="105" y2="40"/>
<line x1="105" y1="756" x2="105" y2="840"/>
<line x1="105" y1="564" x2="105" y2="756"/>
<line x1="105" y1="503" x2="105" y2="564"/>
<line x1="105" y1="464" x2="105" y2="503"/>
<line x1="323" y1="854" x2="323" y2="854"/>
<line x1="323" y1="854" x2="334" y2="854"/>
<line x1="342" y1="854" x2="334" y2="854"/>
<line x1="342" y1="854" x2="342" y2="854"/>
<line x1="312" y1="853" x2="305" y2="852"/>
<line x1="312" y1="853" x2="312" y2="853"/>
<line x1="404" y1="848" x2="396" y2="849"/>
<line x1="404" y1="848" x2="412" y2="846"/>
<line x1="222" y1="809" x2="222" y2="809"/>
<line x1="223" y1="811" x2="223" y2="813"/>
<line x1="223" y1="811" x2="222" y2="809"/>
<line x1="223" y1="813" x2="223" y2="813"/>
<line x1="368" y1="853" x2="361" y2="854"/>
<line x1="368" y1="853" x2="369" y2="853"/>
<line x1="229" y1="794" x2="230" y2="793"/>
<line x1="229" y1="794" x2="229" y2="794"/>
<line x1="229" y1="794" x2="228" y2="795"/>
<line x1="223" y1="806" x2="223" y2="804"/>
<line x1="223" y1="806" x2="222" y2="809"/>
<line x1="312" y1="853" x2="312" y2="853"/>
<line x1="312" y1="853" x2="323" y2="854"/>
<line x1="361" y1="854" x2="353" y2="854"/>
<line x1="361" y1="854" x2="361" y2="854"/>
<line x1="242" y1="833" x2="235" y2="829"/>
<line x1="242" y1="833" x2="245" y2="836"/>
<line x1="419" y1="843" x2="412" y2="846"/>
<line x1="419" y1="843" x2="427" y2="841"/>
<line x1="396" y1="849" x2="389" y2="851"/>
<line x1="396" y1="849" x2="396" y2="849"/>
<line x1="278" y1="847" x2="272" y2="846"/>
<line x1="278" y1="847" x2="288" y2="849"/>
<line x1="271" y1="846" x2="266" y2="844"/>
<line x1="271" y1="846" x2="272" y2="846"/>
<line x1="257" y1="841" x2="257" y2="841"/>
<line x1="257" y1="841" x2="266" y2="844"/>
<line x1="228" y1="823" x2="228" y2="823"/>
<line x1="228" y1="823" x2="231" y2="825"/>
<line x1="224" y1="802" x2="224" y2="802"/>
<line x1="224" y1="802" x2="223" y2="804"/>
<line x1="253" y1="839" x2="245" y2="836"/>
<line x1="253" y1="839" x2="257" y2="841"/>
<line x1="461" y1="812" x2="462" y2="809"/>
<line x1="433" y1="838" x2="439" y2="836"/>
<line x1="433" y1="838" x2="427" y2="841"/>
<line x1="381" y1="852" x2="380" y2="852"/>
<line x1="381" y1="852" x2="389" y2="851"/>
<line x1="380" y1="852" x2="379" y2="852"/>
<line x1="294" y1="850" x2="288" y2="849"/>
<line x1="294" y1="850" x2="305" y2="852"/>
<line x1="453" y1="826" x2="456" y2="823"/>
<line x1="453" y1="826" x2="449" y2="829"/>
<line x1="444" y1="832" x2="449" y2="829"/>
<line x1="444" y1="832" x2="439" y2="836"/>
<line x1="227" y1="795" x2="228" y2="795"/>
<line x1="227" y1="795" x2="224" y2="802"/>
<line x1="226" y1="820" x2="224" y2="816"/>
<line x1="226" y1="820" x2="228" y2="823"/>
<line x1="223" y1="814" x2="223" y2="813"/>
<line x1="223" y1="814" x2="224" y2="816"/>
<line x1="235" y1="829" x2="231" y2="825"/>
<line x1="235" y1="829" x2="235" y2="829"/>
<line x1="369" y1="853" x2="369" y2="853"/>
<line x1="369" y1="853" x2="379" y2="852"/>
<line x1="342" y1="854" x2="342" y2="854"/>
<line x1="342" y1="854" x2="353" y2="854"/>
<line x1="456" y1="823" x2="458" y2="819"/>
<line x1="456" y1="823" x2="456" y2="823"/>
<line x1="460" y1="816" x2="460" y2="816"/>
<line x1="460" y1="816" x2="458" y2="819"/>
<line x1="461" y1="812" x2="461" y2="812"/>
<line x1="461" y1="812" x2="460" y2="816"/>
<line x1="113" y1="851" x2="115" y2="853"/>
<line x1="113" y1="851" x2="113" y2="851"/>
<line x1="116" y1="858" x2="116" y2="860"/>
<line x1="116" y1="858" x2="115" y2="855"/>
<line x1="107" y1="842" x2="111" y2="846"/>
<line x1="107" y1="842" x2="106" y2="841"/>
<line x1="105" y1="840" x2="106" y2="841"/>
<line x1="112" y1="848" x2="113" y2="851"/>
<line x1="112" y1="848" x2="111" y2="846"/>
<line x1="115" y1="853" x2="115" y2="853"/>
<line x1="115" y1="853" x2="115" y2="855"/>
</g></svg>