<svg xmlns="http://www.w3.org/2000/svg" width="1400" height="900" viewBox="0 0 1400 900">
<rect x="0" y="0" width="100%" height="100%" fill="white"/>
<g stroke="#111" stroke-width="1.2" fill="none" stroke-linecap="round">
<line x1="1296" y1="757" x2="1313" y2="757"/>
<line x1="1296" y1="757" x2="1274" y2="757"/>
<line x1="94" y1="757" x2="87" y2="757"/>
<line x1="99" y1="757" x2="94" y2="757"/>
<line x1="102" y1="757" x2="99" y2="757"/>
<line x1="104" y1="757" x2="102" y2="757"/>
<line x1="105" y1="757" x2="104" y2="757"/>
<line x1="105" y1="757" x2="105" y2="757"/>
<line x1="105" y1="757" x2="105" y2="757"/>
<line x1="105" y1="757" x2="105" y2="757"/>
<line x1="1313" y1="165" x2="1313" y2="127"/>
<line x1="1313" y1="308" x2="1313" y2="165"/>
<line x1="1313" y1="326" x2="1313" y2="308"/>
<line x1="1313" y1="348" x2="1313" y2="326"/>
<line x1="1313" y1="397" x2="1313" y2="757"/>
<line x1="1313" y1="397" x2="1313" y2="348"/>
<line x1="1313" y1="111" x2="1313" y2="112"/>
<line x1="1313" y1="99" x2="1313" y2="111"/>
<line x1="87" y1="754" x2="87" y2="739"/>
<line x1="87" y1="754" x2="87" y2="757"/>
<line x1="87" y1="238" x2="87" y2="99"/>
<line x1="87" y1="238" x2="87" y2="718"/>
<line x1="106" y1="758" x2="105" y2="757"/>
<line x1="106" y1="758" x2="106" y2="758"/>
<line x1="106" y1="758" x2="106" y2="758"/>
<line x1="67" y1="718" x2="67" y2="718"/>
<line x1="67" y1="718" x2="67" y2="718"/>
<line x1="67" y1="719" x2="67" y2="719"/>
<line x1="86" y1="737" x2="87" y2="739"/>
<line x1="67" y1="719" x2="86" y2="737"/>
<line x1="67" y1="719" x2="67" y2="718"/>
<line x1="1274" y1="758" x2="1274" y2="758"/>
<line x1="1274" y1="758" x2="1274" y2="757"/>
<line x1="86" y1="718" x2="87" y2="718"/>
<line x1="85" y1="718" x2="86" y2="718"/>
<line x1="84" y1="718" x2="85" y2="718"/>
<line x1="83" y1="718" x2="84" y2="718"/>
<line x1="82" y1="718" x2="83" y2="718"/>
<line x1="81" y1="718" x2="82" y2="718"/>
<line x1="80" y1="718" x2="81" y2="718"/>
<line x1="79" y1="718" x2="80" y2="718"/>
<line x1="78" y1="718" x2="79" y2="718"/>
<line x1="77" y1="718" x2="78" y2="718"/>
<line x1="76" y1="718" x2="77" y2="718"/>
<line x1="75" y1="718" x2="76" y2="718"/>
<line x1="74" y1="718" x2="75" y2="718"/>
<line x1="67" y1="718" x2="67" y2="718"/>
<line x1="73" y1="718" x2="74" y2="718"/>
<line x1="72" y1="718" x2="73" y2="718"/>
<line x1="71" y1="718" x2="72" y2="718"/>
<line x1="70" y1="718" x2="71" y2="718"/>
<line x1="68" y1="718" x2="70" y2="718"/>
<line x1="67" y1="718" x2="68" y2="718"/>
<line x1="67" y1="718" x2="67" y2="718"/>
<line x1="67" y1="718" x2="67" y2="718"/>
<line x1="1274" y1="758" x2="978" y2="758"/>
<line x1="978" y1="758" x2="974" y2="758"/>
<line x1="974" y1="758" x2="699" y2="758"/>
<line x1="699" y1="758" x2="697" y2="758"/>
<line x1="697" y1="758" x2="557" y2="758"/>
<line x1="557" y1="758" x2="556" y2="758"/>
<line x1="556" y1="758" x2="470" y2="758"/>
<line x1="470" y1="758" x2="470" y2="758"/>
<line x1="470" y1="758" x2="412" y2="758"/>
<line x1="412" y1="758" x2="411" y2="758"/>
<line x1="411" y1="758" x2="370" y2="758"/>
<line x1="370" y1="758" x2="370" y2="758"/>
<line x1="370" y1="758" x2="338" y2="758"/>
<line x1="338" y1="758" x2="338" y2="758"/>
<line x1="338" y1="758" x2="313" y2="758"/>
<line x1="313" y1="758" x2="313" y2="758"/>
<line x1="313" y1="758" x2="293" y2="758"/>
<line x1="293" y1="758" x2="293" y2="758"/>
<line x1="293" y1="758" x2="277" y2="758"/>
<line x1="277" y1="758" x2="276" y2="758"/>
<line x1="107" y1="758" x2="276" y2="758"/>
<line x1="107" y1="758" x2="106" y2="758"/>
<line x1="106" y1="758" x2="106" y2="758"/>
<line x1="1341" y1="801" x2="1360" y2="801"/>
<line x1="1214" y1="801" x2="1341" y2="801"/>
<line x1="1214" y1="801" x2="1211" y2="801"/>
<line x1="1211" y1="801" x2="1109" y2="801"/>
<line x1="1109" y1="801" x2="1108" y2="801"/>
<line x1="1108" y1="801" x2="1039" y2="801"/>
<line x1="1039" y1="801" x2="1038" y2="801"/>
<line x1="1038" y1="801" x2="989" y2="801"/>
<line x1="989" y1="801" x2="988" y2="801"/>
<line x1="988" y1="801" x2="951" y2="801"/>
<line x1="951" y1="801" x2="950" y2="801"/>
<line x1="950" y1="801" x2="920" y2="801"/>
<line x1="920" y1="801" x2="920" y2="801"/>
<line x1="920" y1="801" x2="896" y2="801"/>
<line x1="896" y1="801" x2="895" y2="801"/>
<line x1="895" y1="801" x2="876" y2="801"/>
<line x1="876" y1="801" x2="875" y2="801"/>
<line x1="875" y1="801" x2="859" y2="801"/>
<line x1="859" y1="801" x2="858" y2="801"/>
<line x1="858" y1="801" x2="665" y2="801"/>
<line x1="40" y1="801" x2="51" y2="801"/>
<line x1="51" y1="801" x2="157" y2="801"/>
<line x1="232" y1="801" x2="157" y2="801"/>
<line x1="288" y1="801" x2="232" y2="801"/>
<line x1="331" y1="801" x2="288" y2="801"/>
<line x1="365" y1="801" x2="331" y2="801"/>
<line x1="392" y1="801" x2="365" y2="801"/>
<line x1="415" y1="801" x2="392" y2="801"/>
<line x1="415" y1="801" x2="665" y2="801"/>
<line x1="53" y1="99" x2="87" y2="99"/>
<line x1="53" y1="99" x2="40" y2="99"/>
<line x1="1352" y1="99" x2="1360" y2="99"/>
<line x1="1352" y1="99" x2="1313" y2="99"/>
<line x1="1360" y1="172" x2="1360" y2="99"/>
<line x1="1360" y1="172" x2="1360" y2="801"/>
<line x1="40" y1="535" x2="40" y2="136"/>
<line x1="40" y1="720" x2="40" y2="535"/>
<line x1="40" y1="734" x2="40" y2="720"/>
<line x1="40" y1="745" x2="40" y2="801"/>
<line x1="40" y1="745" x2="40" y2="734"/>
<line x1="40" y1="101" x2="40" y2="105"/>
<line x1="40" y1="99" x2="40" y2="101"/>
<line x1="40" y1="99" x2="40" y2="99"/>
<line x1="46" y1="120" x2="46" y2="120"/>
<line x1="46" y1="120" x2="46" y2="120"/>
<line x1="45" y1="114" x2="45" y2="114"/>
<line x1="45" y1="114" x2="46" y2="116"/>
<line x1="45" y1="114" x2="45" y2="113"/>
<line x1="46" y1="117" x2="46" y2="120"/>
<line x1="46" y1="117" x2="46" y2="116"/>
<line x1="45" y1="127" x2="45" y2="128"/>
<line x1="45" y1="127" x2="45" y2="127"/>
<line x1="45" y1="127" x2="46" y2="125"/>
<line x1="40" y1="136" x2="40" y2="136"/>
<line x1="45" y1="112" x2="45" y2="113"/>
<line x1="45" y1="112" x2="45" y2="112"/>
<line x1="46" y1="124" x2="46" y2="125"/>
<line x1="46" y1="124" x2="46" y2="121"/>
<line x1="43" y1="109" x2="44" y2="111"/>
<line x1="43" y1="109" x2="43" y2="109"/>
<line x1="40" y1="105" x2="40" y2="105"/>
<line x1="45" y1="129" x2="45" y2="129"/>
<line x1="45" y1="129" x2="45" y2="128"/>
<line x1="44" y1="111" x2="45" y2="112"/>
<line x1="44" y1="111" x2="44" y2="111"/>
<line x1="46" y1="121" x2="46" y2="121"/>
<line x1="46" y1="121" x2="46" y2="120"/>
<line x1="44" y1="129" x2="44" y2="130"/>
<line x1="44" y1="129" x2="45" y2="129"/>
<line x1="40" y1="136" x2="40" y2="136"/>
<line x1="40" y1="136" x2="40" y2="135"/>
<line x1="40" y1="135" x2="41" y2="135"/>
<line x1="41" y1="106" x2="43" y2="109"/>
<line x1="41" y1="106" x2="41" y2="106"/>
<line x1="41" y1="135" x2="41" y2="135"/>
<line x1="41" y1="135" x2="43" y2="132"/>
<line x1="43" y1="132" x2="43" y2="132"/>
<line x1="43" y1="132" x2="44" y2="130"/>
<line x1="40" y1="105" x2="40" y2="106"/>
<line x1="40" y1="106" x2="41" y2="106"/>
<line x1="40" y1="105" x2="40" y2="105"/>
<line x1="1314" y1="119" x2="1314" y2="119"/>
<line x1="1314" y1="119" x2="1314" y2="119"/>
<line x1="1314" y1="115" x2="1314" y2="119"/>
<line x1="1314" y1="115" x2="1314" y2="115"/>
<line x1="1314" y1="120" x2="1314" y2="119"/>
<line x1="1314" y1="120" x2="1314" y2="120"/>
<line x1="1314" y1="124" x2="1314" y2="120"/>
<line x1="1314" y1="124" x2="1314" y2="124"/>
<line x1="1314" y1="124" x2="1313" y2="127"/>
<line x1="1314" y1="124" x2="1314" y2="124"/>
<line x1="1314" y1="124" x2="1314" y2="124"/>
<line x1="1314" y1="115" x2="1314" y2="115"/>
<line x1="1314" y1="115" x2="1314" y2="115"/>
<line x1="1313" y1="112" x2="1314" y2="115"/>
</g></svg>