<svg xmlns="http://www.w3.org/2000/svg" width="1400" height="900" viewBox="0 0 1400 900">
<rect x="0" y="0" width="100%" height="100%" fill="white"/>
<g stroke="#111" stroke-width="1.2" fill="none" stroke-linecap="round">
<line x1="1314" y1="749" x2="1280" y2="749"/>
<line x1="1275" y1="749" x2="1280" y2="749"/>
<line x1="97" y1="749" x2="97" y2="749"/>
<line x1="96" y1="749" x2="97" y2="749"/>
<line x1="95" y1="749" x2="96" y2="749"/>
<line x1="93" y1="749" x2="95" y2="749"/>
<line x1="90" y1="749" x2="93" y2="749"/>
<line x1="88" y1="749" x2="90" y2="749"/>
<line x1="1314" y1="735" x2="1314" y2="749"/>
<line x1="1314" y1="735" x2="1314" y2="108"/>
<line x1="88" y1="745" x2="88" y2="740"/>
<line x1="88" y1="745" x2="88" y2="749"/>
<line x1="88" y1="416" x2="88" y2="108"/>
<line x1="88" y1="416" x2="88" y2="711"/>
<line x1="87" y1="739" x2="88" y2="740"/>
<line x1="85" y1="737" x2="87" y2="739"/>
<line x1="83" y1="735" x2="85" y2="737"/>
<line x1="81" y1="734" x2="83" y2="735"/>
<line x1="80" y1="732" x2="81" y2="734"/>
<line x1="80" y1="732" x2="80" y2="732"/>
<line x1="76" y1="729" x2="80" y2="732"/>
<line x1="76" y1="728" x2="76" y2="729"/>
<line x1="75" y1="727" x2="76" y2="728"/>
<line x1="73" y1="725" x2="75" y2="727"/>
<line x1="71" y1="723" x2="73" y2="725"/>
<line x1="70" y1="722" x2="71" y2="723"/>
<line x1="70" y1="722" x2="69" y2="721"/>
<line x1="97" y1="749" x2="97" y2="749"/>
<line x1="97" y1="749" x2="97" y2="749"/>
<line x1="97" y1="750" x2="97" y2="749"/>
<line x1="59" y1="711" x2="59" y2="711"/>
<line x1="59" y1="711" x2="59" y2="711"/>
<line x1="68" y1="721" x2="69" y2="721"/>
<line x1="59" y1="712" x2="59" y2="711"/>
<line x1="68" y1="720" x2="68" y2="721"/>
<line x1="66" y1="718" x2="68" y2="720"/>
<line x1="65" y1="717" x2="66" y2="718"/>
<line x1="59" y1="712" x2="65" y2="717"/>
<line x1="59" y1="711" x2="59" y2="711"/>
<line x1="59" y1="711" x2="59" y2="711"/>
<line x1="85" y1="711" x2="88" y2="711"/>
<line x1="80" y1="711" x2="85" y2="711"/>
<line x1="75" y1="711" x2="80" y2="711"/>
<line x1="70" y1="711" x2="75" y2="711"/>
<line x1="65" y1="711" x2="70" y2="711"/>
<line x1="60" y1="711" x2="65" y2="711"/>
<line x1="59" y1="711" x2="60" y2="711"/>
<line x1="59" y1="711" x2="59" y2="711"/>
<line x1="1275" y1="749" x2="1275" y2="749"/>
<line x1="1275" y1="749" x2="1275" y2="750"/>
<line x1="1275" y1="750" x2="1188" y2="750"/>
<line x1="1188" y1="750" x2="1187" y2="750"/>
<line x1="98" y1="750" x2="1187" y2="750"/>
<line x1="98" y1="750" x2="98" y2="750"/>
<line x1="98" y1="750" x2="97" y2="750"/>
<line x1="1358" y1="792" x2="1360" y2="792"/>
<line x1="1358" y1="792" x2="1356" y2="792"/>
<line x1="1356" y1="792" x2="1299" y2="792"/>
<line x1="1299" y1="792" x2="1298" y2="792"/>
<line x1="1298" y1="792" x2="642" y2="792"/>
<line x1="222" y1="792" x2="642" y2="792"/>
<line x1="198" y1="792" x2="222" y2="792"/>
<line x1="171" y1="792" x2="198" y2="792"/>
<line x1="139" y1="792" x2="171" y2="792"/>
<line x1="103" y1="792" x2="139" y2="792"/>
<line x1="61" y1="792" x2="103" y2="792"/>
<line x1="61" y1="792" x2="40" y2="792"/>
<line x1="88" y1="108" x2="64" y2="108"/>
<line x1="40" y1="108" x2="64" y2="108"/>
<line x1="1360" y1="108" x2="1358" y2="108"/>
<line x1="1334" y1="108" x2="1329" y2="108"/>
<line x1="1325" y1="108" x2="1314" y2="108"/>
<line x1="1334" y1="108" x2="1358" y2="108"/>
<line x1="1325" y1="108" x2="1329" y2="108"/>
<line x1="1314" y1="108" x2="1314" y2="108"/>
<line x1="1360" y1="767" x2="1360" y2="108"/>
<line x1="1360" y1="767" x2="1360" y2="792"/>
<line x1="40" y1="494" x2="40" y2="792"/>
<line x1="40" y1="494" x2="40" y2="447"/>
<line x1="40" y1="447" x2="40" y2="409"/>
<line x1="40" y1="123" x2="40" y2="409"/>
<line x1="40" y1="123" x2="40" y2="123"/>
<line x1="40" y1="118" x2="40" y2="119"/>
<line x1="40" y1="119" x2="40" y2="122"/>
<line x1="40" y1="118" x2="40" y2="108"/>
<line x1="40" y1="123" x2="40" y2="122"/>
</g></svg>