<svg xmlns="http://www.w3.org/2000/svg" width="1400" height="900" viewBox="0 0 1400 900">
<rect x="0" y="0" width="100%" height="100%" fill="white"/>
<g stroke="#111" stroke-width="1.2" fill="none" stroke-linecap="round">
<line x1="1313" y1="755" x2="1308" y2="755"/>
<line x1="1275" y1="755" x2="1308" y2="755"/>
<line x1="88" y1="755" x2="87" y2="755"/>
<line x1="89" y1="755" x2="88" y2="755"/>
<line x1="89" y1="755" x2="89" y2="755"/>
<line x1="1313" y1="199" x2="1313" y2="755"/>
<line x1="1313" y1="199" x2="1313" y2="101"/>
<line x1="87" y1="755" x2="87" y2="753"/>
<line x1="87" y1="755" x2="87" y2="755"/>
<line x1="87" y1="394" x2="87" y2="101"/>
<line x1="87" y1="394" x2="87" y2="716"/>
<line x1="85" y1="751" x2="87" y2="753"/>
<line x1="81" y1="747" x2="85" y2="751"/>
<line x1="77" y1="743" x2="81" y2="747"/>
<line x1="77" y1="743" x2="74" y2="740"/>
<line x1="89" y1="755" x2="89" y2="755"/>
<line x1="89" y1="755" x2="89" y2="755"/>
<line x1="89" y1="755" x2="89" y2="756"/>
<line x1="50" y1="716" x2="50" y2="716"/>
<line x1="50" y1="716" x2="50" y2="716"/>
<line x1="74" y1="740" x2="74" y2="740"/>
<line x1="51" y1="717" x2="51" y2="717"/>
<line x1="72" y1="739" x2="74" y2="740"/>
<line x1="68" y1="734" x2="72" y2="739"/>
<line x1="64" y1="730" x2="68" y2="734"/>
<line x1="51" y1="717" x2="64" y2="730"/>
<line x1="51" y1="717" x2="50" y2="716"/>
<line x1="86" y1="716" x2="87" y2="716"/>
<line x1="83" y1="716" x2="86" y2="716"/>
<line x1="81" y1="716" x2="83" y2="716"/>
<line x1="78" y1="716" x2="81" y2="716"/>
<line x1="75" y1="716" x2="78" y2="716"/>
<line x1="73" y1="716" x2="75" y2="716"/>
<line x1="70" y1="716" x2="73" y2="716"/>
<line x1="67" y1="716" x2="70" y2="716"/>
<line x1="51" y1="716" x2="51" y2="716"/>
<line x1="65" y1="716" x2="67" y2="716"/>
<line x1="62" y1="716" x2="65" y2="716"/>
<line x1="59" y1="716" x2="62" y2="716"/>
<line x1="57" y1="716" x2="59" y2="716"/>
<line x1="54" y1="716" x2="57" y2="716"/>
<line x1="51" y1="716" x2="54" y2="716"/>
<line x1="51" y1="716" x2="51" y2="716"/>
<line x1="51" y1="716" x2="50" y2="716"/>
<line x1="1274" y1="756" x2="1275" y2="755"/>
<line x1="1274" y1="756" x2="1274" y2="756"/>
<line x1="1274" y1="756" x2="1258" y2="756"/>
<line x1="1258" y1="756" x2="1256" y2="756"/>
<line x1="1256" y1="756" x2="1071" y2="756"/>
<line x1="1071" y1="756" x2="1069" y2="756"/>
<line x1="1069" y1="756" x2="936" y2="756"/>
<line x1="936" y1="756" x2="935" y2="756"/>
<line x1="935" y1="756" x2="834" y2="756"/>
<line x1="834" y1="756" x2="833" y2="756"/>
<line x1="833" y1="756" x2="754" y2="756"/>
<line x1="754" y1="756" x2="753" y2="756"/>
<line x1="753" y1="756" x2="689" y2="756"/>
<line x1="689" y1="756" x2="689" y2="756"/>
<line x1="689" y1="756" x2="636" y2="756"/>
<line x1="636" y1="756" x2="636" y2="756"/>
<line x1="90" y1="756" x2="636" y2="756"/>
<line x1="90" y1="756" x2="90" y2="756"/>
<line x1="90" y1="756" x2="89" y2="756"/>
<line x1="1287" y1="799" x2="1360" y2="799"/>
<line x1="1287" y1="799" x2="1285" y2="799"/>
<line x1="1285" y1="799" x2="1211" y2="799"/>
<line x1="1211" y1="799" x2="1210" y2="799"/>
<line x1="1210" y1="799" x2="1151" y2="799"/>
<line x1="1151" y1="799" x2="1150" y2="799"/>
<line x1="1150" y1="799" x2="1103" y2="799"/>
<line x1="1103" y1="799" x2="1102" y2="799"/>
<line x1="1102" y1="799" x2="1063" y2="799"/>
<line x1="1063" y1="799" x2="1062" y2="799"/>
<line x1="1062" y1="799" x2="1028" y2="799"/>
<line x1="1028" y1="799" x2="1028" y2="799"/>
<line x1="1028" y1="799" x2="645" y2="799"/>
<line x1="48" y1="799" x2="40" y2="799"/>
<line x1="103" y1="799" x2="48" y2="799"/>
<line x1="148" y1="799" x2="103" y2="799"/>
<line x1="148" y1="799" x2="645" y2="799"/>
<line x1="51" y1="101" x2="87" y2="101"/>
<line x1="51" y1="101" x2="40" y2="101"/>
<line x1="1332" y1="101" x2="1360" y2="101"/>
<line x1="1331" y1="101" x2="1313" y2="101"/>
<line x1="1332" y1="101" x2="1331" y2="101"/>
<line x1="1360" y1="260" x2="1360" y2="101"/>
<line x1="1360" y1="260" x2="1360" y2="799"/>
<line x1="40" y1="193" x2="40" y2="799"/>
<line x1="40" y1="193" x2="40" y2="101"/>
</g></svg>