<?xml version="1.0" standalone="no"?>
<!DOCTYPE svg PUBLIC "-//W3C//DTD SVG 1.1//EN" "http://www.w3.org/Graphics/SVG/1.1/DTD/svg11.dtd">
<svg width="107mm" height="205mm" viewBox="207 -59 107 205" xmlns="http://www.w3.org/2000/svg" version="1.1">
<title>OpenSCAD Model</title>
<path d="
M 207.815,-14.1433 L 207.815,-14.1433 L 207.818,-13.8151 L 207.824,-12.9064 L 207.824,-12.9064 L 207.958,-11.6768
 L 207.958,-11.6768 L 208.381,-10.2082 L 208.381,-10.2082 L 208.526,-9.84862 L 208.953,-8.7914 L 208.953,-8.79139
 L 209.589,-7.59241 L 209.669,-7.4415 L 209.669,-7.4415 L 209.813,-7.22651 L 210.521,-6.17319 L 210.521,-6.17318
 L 211.224,-5.33123 L 211.5,-5 L 211.5,-5 L 211.924,-4.58725 L 212.596,-3.9348 L 212.596,-3.9348
 L 213.796,-2.98889 L 213.796,-2.98888 L 215.087,-2.17249 L 215.087,-2.17249 L 215.678,-1.87979 L 216.456,-1.4946
 L 216.456,-1.4946 L 217.888,-0.962298 L 217.888,-0.962296 L 218.925,-0.69566 L 219.369,-0.581389 L 219.369,-0.581388
 L 221.856,-0 L 242.892,-0 L 242.892,-4 L 234.892,-4 L 234.892,-45.3977 L 234.412,-46.8939
 L 234.412,-46.8939 L 233.652,-48.6198 L 233.652,-48.6198 L 233.199,-49.4122 L 232.715,-50.2567 L 232.715,-50.2567
 L 231.612,-51.7863 L 231.612,-51.7863 L 231.558,-51.8473 L 230.355,-53.1921 L 230.355,-53.1921 L 228.957,-54.4586
 L 228.957,-54.4586 L 227.435,-55.5717 L 227.435,-55.5717 L 227.333,-55.6309 L 225.804,-56.5193 L 225.804,-56.5193
 L 224.084,-57.291 L 224.084,-57.291 L 222.292,-57.8783 L 222.292,-57.8783 L 221.542,-58.0985 L 221.376,-58.1473
 L 221.376,-58.1473 L 221.324,-58.1705 L 221.324,-58.1705 L 221.147,-58.2373 L 221.147,-58.2373 L 221.055,-58.2653
 L 220.966,-58.2924 L 220.966,-58.2924 L 220.869,-58.3148 L 220.781,-58.3355 L 220.781,-58.3355 L 220.717,-58.346
 L 220.593,-58.3664 L 220.593,-58.3664 L 220.501,-58.3755 L 220.501,-58.3755 L 220.215,-58.4338 L 220.215,-58.3912
 L 220.215,-58.3912 L 220.044,-58.3856 L 220.025,-58.385 L 220.025,-58.385 L 219.836,-58.3664 L 219.836,-58.3664
 L 219.649,-58.3355 L 219.649,-58.3355 L 219.464,-58.2924 L 219.464,-58.2924 L 219.354,-58.259 L 219.283,-58.2373
 L 219.283,-58.2373 L 219.137,-58.1823 L 219.105,-58.1705 L 219.105,-58.1705 L 218.932,-58.0922 L 218.932,-58.0922
 L 218.765,-58.0027 L 218.765,-58.0027 L 218.644,-57.9277 L 218.604,-57.9025 L 218.604,-57.9025 L 218.45,-57.7919
 L 218.45,-57.7919 L 218.4,-57.7514 L 218.302,-57.6716 L 218.302,-57.6716 L 218.208,-57.5831 L 218.164,-57.5418
 L 218.164,-57.5418 L 218.035,-57.4033 L 218.035,-57.4033 L 217.978,-57.3343 L 217.914,-57.2566 L 217.914,-57.2566
 L 217.805,-57.105 L 217.804,-57.1024 L 217.804,-57.1024 L 217.801,-57.0985 L 217.703,-56.9412 L 217.703,-56.9412
 L 217.678,-56.8943 L 217.614,-56.7739 L 217.614,-56.7739 L 217.536,-56.601 L 217.536,-56.601 L 217.53,-56.5868
 L 217.468,-56.4234 L 217.468,-56.4234 L 217.441,-56.332 L 217.414,-56.2418 L 217.414,-56.2418 L 217.393,-56.1521
 L 217.37,-56.057 L 217.37,-56.057 L 217.339,-55.8698 L 217.339,-55.8698 L 217.321,-55.6809 L 217.321,-55.6809
 L 217.315,-55.4912 L 217.315,-55.4912 L 217.321,-55.3016 L 217.321,-55.3016 L 217.339,-55.1127 L 217.339,-55.1127
 L 217.37,-54.9255 L 217.37,-54.9255 L 217.393,-54.8304 L 217.414,-54.7406 L 217.414,-54.7406 L 217.441,-54.6505
 L 217.468,-54.5591 L 217.468,-54.5591 L 217.53,-54.3956 L 217.536,-54.3814 L 217.536,-54.3814 L 217.614,-54.2086
 L 217.614,-54.2086 L 217.678,-54.0881 L 217.703,-54.0412 L 217.703,-54.0412 L 217.801,-53.884 L 217.804,-53.8801
 L 217.804,-53.8801 L 217.805,-53.8775 L 217.914,-53.7258 L 217.914,-53.7258 L 217.978,-53.6481 L 218.035,-53.5791
 L 218.035,-53.5791 L 218.164,-53.4406 L 218.164,-53.4406 L 218.208,-53.3994 L 218.302,-53.3109 L 218.302,-53.3109
 L 218.4,-53.231 L 218.45,-53.1905 L 218.45,-53.1905 L 218.604,-53.08 L 218.604,-53.08 L 218.644,-53.0548
 L 218.765,-52.9798 L 218.765,-52.9798 L 218.932,-52.8903 L 218.932,-52.8903 L 219.105,-52.812 L 219.105,-52.812
 L 219.137,-52.8001 L 219.283,-52.7451 L 219.283,-52.7451 L 219.354,-52.7235 L 219.464,-52.6901 L 219.464,-52.6901
 L 219.649,-52.6469 L 219.649,-52.6469 L 219.836,-52.616 L 219.836,-52.616 L 220.025,-52.5974 L 220.025,-52.5974
 L 220.044,-52.5968 L 220.215,-52.5912 L 220.215,-52.5486 L 220.215,-52.5486 L 221.106,-52.212 L 221.584,-52.0311
 L 221.584,-52.0311 L 222.227,-51.7083 L 223.193,-51.2231 L 223.193,-51.2231 L 224.709,-50.2523 L 224.709,-50.2523
 L 226.116,-49.1292 L 226.116,-49.1292 L 226.934,-48.3231 L 227.398,-47.866 L 227.398,-47.866 L 228.542,-46.4764
 L 228.542,-46.4764 L 229.536,-44.9754 L 229.536,-44.9754 L 230.368,-43.3792 L 230.368,-43.3792 L 230.752,-42.4093
 L 231.031,-41.7051 L 231.031,-41.7051 L 231.515,-39.9714 L 231.515,-39.9714 L 231.672,-39.0444 L 231.816,-38.1967
 L 231.816,-38.1967 L 231.816,-15.0012 L 231.771,-14.1622 L 231.761,-13.9713 L 231.761,-13.9713 L 231.594,-12.9536
 L 231.594,-12.9536 L 231.318,-11.9598 L 231.318,-11.9598 L 231.15,-11.5402 L 230.936,-11.0017 L 230.936,-11.0017
 L 230.629,-10.4223 L 230.453,-10.0905 L 230.453,-10.0905 L 229.874,-9.23689 L 229.874,-9.23689 L 229.207,-8.4509
 L 229.207,-8.4509 L 228.8,-8.06578 L 228.457,-7.74159 L 228.457,-7.74159 L 227.636,-7.11739 L 227.636,-7.11739
 L 227.106,-6.79786 L 226.753,-6.58569 L 226.753,-6.58569 L 225.817,-6.15269 L 225.817,-6.15269 L 224.839,-5.82339
 L 224.839,-5.82339 L 223.832,-5.6017 L 223.832,-5.6017 L 223.324,-5.54636 L 222.807,-5.4901 L 222.807,-5.4901
 L 221.775,-5.4901 L 220.75,-5.6017 L 220.75,-5.6017 L 219.899,-5.78907 L 219.743,-5.82339 L 219.743,-5.82339
 L 218.766,-6.15269 L 218.766,-6.15269 L 218.614,-6.2229 L 217.829,-6.58569 L 217.829,-6.58569 L 216.946,-7.11739
 L 216.946,-7.11739 L 216.125,-7.74159 L 216.125,-7.74159 L 216.006,-7.85424 L 215.376,-8.4509 L 215.376,-8.45091
 L 215.09,-8.78822 L 214.708,-9.23688 L 214.708,-9.23689 L 214.129,-10.0905 L 214.129,-10.0905 L 213.773,-10.7623
 L 213.647,-11.0017 L 213.647,-11.0017 L 213.466,-11.4553 L 213.264,-11.9598 L 213.264,-11.9598 L 213.15,-12.3729
 L 212.989,-12.9536 L 212.989,-12.9536 L 212.914,-13.4101 L 212.822,-13.9713 L 212.822,-13.9713 L 212.782,-14.7135
 L 212.766,-15.0012 L 212.766,-20.0021 L 212.766,-20.0021 L 212.764,-20.0498 L 212.758,-20.1431 L 212.758,-20.1431
 L 212.748,-20.2107 L 212.737,-20.2826 L 212.737,-20.2826 L 212.72,-20.3457 L 212.7,-20.419 L 212.7,-20.419
 L 212.678,-20.4774 L 212.65,-20.5508 L 212.65,-20.5508 L 212.586,-20.6766 L 212.585,-20.6766 L 212.509,-20.7951
 L 212.509,-20.7951 L 212.42,-20.9048 L 212.42,-20.9048 L 212.36,-20.9642 L 212.32,-21.0047 L 212.32,-21.0047
 L 212.218,-21.0875 L 212.21,-21.0935 L 212.21,-21.0935 L 212.092,-21.1704 L 212.092,-21.1704 L 211.966,-21.2345
 L 211.966,-21.2345 L 211.952,-21.2399 L 211.834,-21.2851 L 211.834,-21.2851 L 211.697,-21.3217 L 211.697,-21.3217
 L 211.558,-21.3438 L 211.558,-21.3438 L 211.417,-21.3512 L 211.417,-21.3512 L 210.941,-21.3512 L 210.941,-21.3512
 L 210.799,-21.3438 L 210.799,-21.3438 L 210.711,-21.3299 L 210.659,-21.3217 L 210.659,-21.3217 L 210.523,-21.2852
 L 210.523,-21.2852 L 210.392,-21.2345 L 210.392,-21.2345 L 210.313,-21.1944 L 210.266,-21.1704 L 210.266,-21.1704
 L 210.222,-21.142 L 210.147,-21.0935 L 210.147,-21.0935 L 210.079,-21.0379 L 210.038,-21.0047 L 210.038,-21.0047
 L 209.969,-20.9359 L 209.938,-20.9048 L 209.938,-20.9048 L 209.849,-20.7951 L 209.849,-20.7951 L 209.846,-20.7915
 L 209.772,-20.6766 L 209.772,-20.6766 L 209.732,-20.5988 L 209.708,-20.5508 L 209.708,-20.5508 L 209.687,-20.4967
 L 209.658,-20.419 L 209.658,-20.419 L 209.622,-20.2885 L 209.621,-20.2826 L 209.621,-20.2826 L 209.598,-20.1431
 L 209.598,-20.1431 L 209.591,-20.0021 L 209.591,-20.0021 L 209.002,-18.9141 L 209.002,-18.9141 L 208.71,-18.2122
 L 208.527,-17.7725 L 208.527,-17.7725 L 208.168,-16.5888 L 208.168,-16.5888 L 207.93,-15.3749 L 207.93,-15.3749
 z
M 242.772,141.055 L 244.135,142.603 L 244.203,142.681 L 244.522,143.044 L 245.392,143.51 L 248.212,145.019
 L 249.132,145.151 L 252.408,145.612 L 257.612,145.447 L 267.09,145.147 L 269.804,145.055 L 281.965,144.642
 L 285.019,144.539 L 294.095,144.21 L 301.48,143.943 L 302.915,143.643 L 305.676,143.066 L 306.567,142.53
 L 309.366,140.847 L 310.695,139.248 L 312.105,137.554 L 312.23,137.212 L 312.319,136.969 L 312.834,135.56
 L 313.562,133.571 L 313.562,15.5246 L 313.192,14.5196 L 312.105,11.5514 L 311.033,10.3196 L 309.366,8.40212
 L 307.494,7.41657 L 305.676,6.45959 L 304.009,6.26035 L 301.48,5.95808 L 298.513,6.13435 L 286.451,6.82228
 L 274.354,7.48359 L 262.225,8.11822 L 252.408,8.60892 L 250.582,9.02205 L 248.212,9.55115 L 245.999,10.9287
 L 244.522,11.8485 L 244.233,12.2051 L 243.826,12.708 L 242.776,13.9967 L 245.614,13.8623 L 246.294,13.8301
 L 253.005,13.5125 L 256.72,13.3289 L 259.993,13.1671 L 264.244,12.9569 L 267.462,12.791 L 273.132,12.4988
 L 275.457,12.3789 L 277.858,12.25 L 285.745,11.8267 L 286.643,11.7785 L 287.923,11.7071 L 296.88,11.2072
 L 297.152,11.2405 L 298.165,11.3642 L 300.457,11.6404 L 301.075,11.7151 L 304.005,13.2577 L 304.765,13.658
 L 307.322,16.5952 L 307.504,16.8033 L 307.543,16.9101 L 308.961,20.7615 L 308.961,128.87 L 308.644,129.739
 L 307.504,132.846 L 306.669,133.851 L 304.765,136.141 L 303.824,136.707 L 301.075,138.36 L 299.525,138.685
 L 296.88,139.238 L 288.767,139.536 L 287.828,139.57 L 287.333,139.587 L 284.226,139.696 L 283.984,139.704
 L 283.484,139.721 L 276.258,139.973 L 272.745,140.096 L 271.817,140.128 L 270.849,140.16 L 269.419,140.207
 L 264.805,140.359 L 261.48,140.468 L 258.755,140.557 L 257.126,140.611 L 255.781,140.655 L 250.192,140.827
 L 249.259,140.856 L 245.648,140.967 L 245.143,140.983 z
" stroke="black" fill="lightgray" stroke-width="0.5"/>
</svg>
