<?xml version="1.0" standalone="no"?>
<!DOCTYPE svg PUBLIC "-//W3C//DTD SVG 1.1//EN" "http://www.w3.org/Graphics/SVG/1.1/DTD/svg11.dtd">
<svg width="161mm" height="72mm" viewBox="2 -72 161 72" xmlns="http://www.w3.org/2000/svg" version="1.1">
<title>OpenSCAD Model</title>
<path d="
M 6.38861,-64.5028 L 6.10066,-64.6716 L 5.71996,-64.9774 L 5.50653,-65.1489 L 5.02855,-65.684 L 4.67847,-66.2639
 L 4.4649,-66.8743 L 4.39314,-67.5 L 4.39888,-67.55 L 152.726,-67.55 L 152.745,-67.5329 L 152.782,-67.5
 L 157.231,-67.5 L 157.231,-0 L 162.821,-0 L 162.821,-72 L 2.27795,-72 L 2.27795,-3.81909
 L 2.28033,-3.77563 L 2.28311,-3.70105 L 2.5511,-3.44225 L 2.80765,-3.06189 L 2.96564,-2.64919 L 3.01897,-2.21999
 L 3.01202,-2.12 L 2.97112,-1.79079 L 2.94424,-1.6908 L 2.82454,-1.3781 L 2.76996,-1.27809 L 2.58087,-0.997742
 L 2.49324,-0.897736 L 2.2814,-0.693192 L 2.28033,-0.664352 L 2.27795,-0.620895 L 2.27795,-0 L 6.38861,-0
 z
" stroke="black" fill="lightgray" stroke-width="0.5"/>
</svg>
