<?xml version="1.0" standalone="no"?>
<!DOCTYPE svg PUBLIC "-//W3C//DTD SVG 1.1//EN" "http://www.w3.org/Graphics/SVG/1.1/DTD/svg11.dtd">
<svg width="141mm" height="72mm" viewBox="-14 -72 141 72" xmlns="http://www.w3.org/2000/svg" version="1.1">
<title>OpenSCAD Model</title>
<path d="
M -8.3011,-63.45 L -10.9588,-63.45 L -10.9588,-63.5 L -10.9029,-63.5492 L -9.15501,-65.0892 L -8.3011,-65.8414
 L -8.3011,-67.5 L -6.41847,-67.5 L -6.36171,-67.55 L 117.038,-67.55 L 117.088,-67.5 L 121.12,-67.5
 L 121.12,-0 L 126.099,-0 L 126.099,-72 L -13.4863,-72 L -13.4863,-13.2188 L -13.4863,-3.37813
 L -13.3177,-3.06189 L -13.2237,-2.75099 L -13.1928,-2.64919 L -13.1777,-2.49467 L -13.1507,-2.21999 L -13.1823,-1.89879
 L -13.1928,-1.79079 L -13.2243,-1.68695 L -13.3177,-1.3781 L -13.4863,-1.06186 L -13.4863,-0.615952 L -13.4863,-0
 L -8.3011,-0 z
" stroke="black" fill="lightgray" stroke-width="0.5"/>
</svg>
