<svg xmlns="http://www.w3.org/2000/svg" width="1400" height="900" viewBox="0 0 1400 900">
<rect x="0" y="0" width="100%" height="100%" fill="white"/>
<g stroke="#111" stroke-width="1.2" fill="none" stroke-linecap="round">
<line x1="1121" y1="778" x2="1265" y2="778"/>
<line x1="1105" y1="778" x2="974" y2="778"/>
<line x1="944" y1="778" x2="974" y2="778"/>
<line x1="944" y1="778" x2="839" y2="778"/>
<line x1="797" y1="778" x2="714" y2="778"/>
<line x1="1105" y1="778" x2="1121" y2="778"/>
<line x1="797" y1="778" x2="839" y2="778"/>
<line x1="662" y1="778" x2="714" y2="778"/>
<line x1="662" y1="778" x2="599" y2="778"/>
<line x1="539" y1="778" x2="599" y2="778"/>
<line x1="539" y1="778" x2="492" y2="778"/>
<line x1="425" y1="778" x2="492" y2="778"/>
<line x1="425" y1="778" x2="337" y2="778"/>
<line x1="147" y1="778" x2="145" y2="778"/>
<line x1="145" y1="778" x2="143" y2="778"/>
<line x1="147" y1="778" x2="337" y2="778"/>
<line x1="143" y1="778" x2="133" y2="778"/>
<line x1="41" y1="676" x2="47" y2="706"/>
<line x1="1278" y1="774" x2="1302" y2="765"/>
<line x1="89" y1="759" x2="96" y2="765"/>
<line x1="66" y1="740" x2="89" y2="759"/>
<line x1="96" y1="765" x2="131" y2="778"/>
<line x1="66" y1="146" x2="89" y2="128"/>
<line x1="1278" y1="774" x2="1265" y2="778"/>
<line x1="52" y1="715" x2="66" y2="740"/>
<line x1="47" y1="706" x2="52" y2="715"/>
<line x1="52" y1="172" x2="66" y2="146"/>
<line x1="52" y1="172" x2="47" y2="180"/>
<line x1="40" y1="305" x2="40" y2="668"/>
<line x1="40" y1="305" x2="40" y2="219"/>
<line x1="40" y1="668" x2="41" y2="676"/>
<line x1="1313" y1="756" x2="1302" y2="765"/>
<line x1="41" y1="211" x2="47" y2="180"/>
<line x1="41" y1="211" x2="40" y2="219"/>
<line x1="132" y1="778" x2="133" y2="778"/>
<line x1="132" y1="778" x2="131" y2="778"/>
<line x1="95" y1="122" x2="89" y2="128"/>
<line x1="95" y1="122" x2="96" y2="122"/>
<line x1="1356" y1="688" x2="1360" y2="668"/>
<line x1="1356" y1="688" x2="1353" y2="706"/>
<line x1="1360" y1="437" x2="1360" y2="219"/>
<line x1="1360" y1="437" x2="1360" y2="668"/>
<line x1="1356" y1="198" x2="1360" y2="219"/>
<line x1="1356" y1="198" x2="1353" y2="180"/>
<line x1="1339" y1="156" x2="1353" y2="180"/>
<line x1="1339" y1="156" x2="1333" y2="146"/>
<line x1="1339" y1="731" x2="1353" y2="706"/>
<line x1="1339" y1="731" x2="1333" y2="740"/>
<line x1="1333" y1="146" x2="1315" y2="132"/>
<line x1="1315" y1="132" x2="1314" y2="131"/>
<line x1="1313" y1="756" x2="1333" y2="740"/>
<line x1="1218" y1="736" x2="1174" y2="736"/>
<line x1="1170" y1="736" x2="1037" y2="736"/>
<line x1="1017" y1="736" x2="909" y2="736"/>
<line x1="878" y1="736" x2="791" y2="736"/>
<line x1="749" y1="736" x2="681" y2="736"/>
<line x1="631" y1="736" x2="579" y2="736"/>
<line x1="521" y1="736" x2="417" y2="736"/>
<line x1="1170" y1="736" x2="1174" y2="736"/>
<line x1="1017" y1="736" x2="1037" y2="736"/>
<line x1="878" y1="736" x2="909" y2="736"/>
<line x1="749" y1="736" x2="791" y2="736"/>
<line x1="631" y1="736" x2="681" y2="736"/>
<line x1="521" y1="736" x2="579" y2="736"/>
<line x1="198" y1="736" x2="417" y2="736"/>
<line x1="198" y1="736" x2="197" y2="736"/>
<line x1="197" y1="736" x2="197" y2="736"/>
<line x1="194" y1="736" x2="191" y2="736"/>
<line x1="191" y1="736" x2="190" y2="736"/>
<line x1="194" y1="736" x2="197" y2="736"/>
<line x1="96" y1="626" x2="98" y2="637"/>
<line x1="103" y1="664" x2="110" y2="676"/>
<line x1="1287" y1="698" x2="1304" y2="669"/>
<line x1="1312" y1="638" x2="1314" y2="626"/>
<line x1="1312" y1="638" x2="1307" y2="664"/>
<line x1="1314" y1="265" x2="1314" y2="626"/>
<line x1="1314" y1="265" x2="1314" y2="131"/>
<line x1="1307" y1="664" x2="1304" y2="669"/>
<line x1="103" y1="664" x2="98" y2="637"/>
<line x1="177" y1="732" x2="152" y2="723"/>
<line x1="152" y1="723" x2="141" y2="714"/>
<line x1="96" y1="124" x2="96" y2="123"/>
<line x1="96" y1="123" x2="96" y2="122"/>
<line x1="96" y1="122" x2="96" y2="122"/>
<line x1="96" y1="122" x2="96" y2="122"/>
<line x1="96" y1="124" x2="96" y2="265"/>
<line x1="96" y1="265" x2="96" y2="626"/>
<line x1="1235" y1="730" x2="1256" y2="723"/>
<line x1="1235" y1="730" x2="1218" y2="736"/>
<line x1="122" y1="698" x2="110" y2="676"/>
<line x1="141" y1="714" x2="122" y2="698"/>
<line x1="1281" y1="703" x2="1287" y2="698"/>
<line x1="1281" y1="703" x2="1256" y2="723"/>
<line x1="185" y1="734" x2="177" y2="732"/>
<line x1="190" y1="736" x2="185" y2="734"/>
</g></svg>