<svg xmlns="http://www.w3.org/2000/svg" width="1400" height="900" viewBox="0 0 1400 900">
<rect x="0" y="0" width="100%" height="100%" fill="white"/>
<g stroke="#111" stroke-width="1.2" fill="none" stroke-linecap="round">
<line x1="1257" y1="786" x2="1264" y2="786"/>
<line x1="1257" y1="786" x2="1230" y2="786"/>
<line x1="1230" y1="786" x2="1229" y2="786"/>
<line x1="1229" y1="786" x2="1208" y2="786"/>
<line x1="1208" y1="786" x2="1199" y2="786"/>
<line x1="1199" y1="786" x2="1190" y2="786"/>
<line x1="1190" y1="786" x2="1175" y2="786"/>
<line x1="1175" y1="786" x2="1174" y2="786"/>
<line x1="1174" y1="786" x2="1161" y2="786"/>
<line x1="1161" y1="786" x2="1155" y2="786"/>
<line x1="1155" y1="786" x2="1149" y2="786"/>
<line x1="1149" y1="786" x2="1139" y2="786"/>
<line x1="1139" y1="786" x2="1137" y2="786"/>
<line x1="1137" y1="786" x2="1136" y2="786"/>
<line x1="1136" y1="786" x2="1127" y2="786"/>
<line x1="1127" y1="786" x2="300" y2="786"/>
<line x1="159" y1="786" x2="136" y2="786"/>
<line x1="229" y1="786" x2="159" y2="786"/>
<line x1="300" y1="786" x2="229" y2="786"/>
<line x1="1356" y1="184" x2="1353" y2="166"/>
<line x1="1356" y1="184" x2="1360" y2="206"/>
<line x1="79" y1="121" x2="87" y2="114"/>
<line x1="79" y1="121" x2="67" y2="131"/>
<line x1="54" y1="153" x2="47" y2="166"/>
<line x1="54" y1="153" x2="59" y2="145"/>
<line x1="59" y1="145" x2="67" y2="131"/>
<line x1="40" y1="282" x2="40" y2="671"/>
<line x1="40" y1="282" x2="40" y2="206"/>
<line x1="1360" y1="421" x2="1360" y2="206"/>
<line x1="1360" y1="421" x2="1360" y2="671"/>
<line x1="41" y1="199" x2="40" y2="206"/>
<line x1="41" y1="199" x2="47" y2="166"/>
<line x1="41" y1="678" x2="47" y2="711"/>
<line x1="41" y1="678" x2="40" y2="671"/>
<line x1="1333" y1="131" x2="1321" y2="121"/>
<line x1="1321" y1="121" x2="1313" y2="114"/>
<line x1="91" y1="766" x2="98" y2="772"/>
<line x1="91" y1="766" x2="67" y2="746"/>
<line x1="1357" y1="690" x2="1360" y2="671"/>
<line x1="1357" y1="690" x2="1353" y2="711"/>
<line x1="1316" y1="760" x2="1333" y2="746"/>
<line x1="1316" y1="760" x2="1302" y2="772"/>
<line x1="59" y1="732" x2="67" y2="746"/>
<line x1="54" y1="724" x2="59" y2="732"/>
<line x1="54" y1="724" x2="47" y2="711"/>
<line x1="1281" y1="780" x2="1302" y2="772"/>
<line x1="1281" y1="780" x2="1264" y2="786"/>
<line x1="1344" y1="727" x2="1353" y2="711"/>
<line x1="1344" y1="727" x2="1333" y2="746"/>
<line x1="127" y1="783" x2="136" y2="786"/>
<line x1="127" y1="783" x2="98" y2="772"/>
<line x1="1342" y1="147" x2="1333" y2="131"/>
<line x1="1342" y1="147" x2="1353" y2="166"/>
<line x1="1217" y1="742" x2="1183" y2="742"/>
<line x1="1183" y1="742" x2="1174" y2="742"/>
<line x1="1174" y1="742" x2="1131" y2="742"/>
<line x1="1131" y1="742" x2="1122" y2="742"/>
<line x1="1122" y1="742" x2="1096" y2="742"/>
<line x1="1096" y1="742" x2="1077" y2="742"/>
<line x1="1077" y1="742" x2="1067" y2="742"/>
<line x1="1067" y1="742" x2="1043" y2="742"/>
<line x1="1043" y1="742" x2="1041" y2="742"/>
<line x1="1041" y1="742" x2="1022" y2="742"/>
<line x1="1022" y1="742" x2="1012" y2="742"/>
<line x1="1012" y1="742" x2="1008" y2="742"/>
<line x1="1008" y1="742" x2="999" y2="742"/>
<line x1="999" y1="742" x2="985" y2="742"/>
<line x1="985" y1="742" x2="984" y2="742"/>
<line x1="984" y1="742" x2="970" y2="742"/>
<line x1="970" y1="742" x2="965" y2="742"/>
<line x1="965" y1="742" x2="957" y2="742"/>
<line x1="957" y1="742" x2="948" y2="742"/>
<line x1="948" y1="742" x2="946" y2="742"/>
<line x1="946" y1="742" x2="936" y2="742"/>
<line x1="936" y1="742" x2="933" y2="742"/>
<line x1="234" y1="742" x2="183" y2="742"/>
<line x1="278" y1="742" x2="234" y2="742"/>
<line x1="322" y1="742" x2="278" y2="742"/>
<line x1="359" y1="742" x2="322" y2="742"/>
<line x1="389" y1="742" x2="359" y2="742"/>
<line x1="389" y1="742" x2="933" y2="742"/>
<line x1="1313" y1="413" x2="1313" y2="628"/>
<line x1="1313" y1="413" x2="1313" y2="114"/>
<line x1="1225" y1="739" x2="1255" y2="729"/>
<line x1="1225" y1="739" x2="1217" y2="742"/>
<line x1="109" y1="694" x2="94" y2="668"/>
<line x1="109" y1="694" x2="114" y2="703"/>
<line x1="87" y1="413" x2="87" y2="114"/>
<line x1="87" y1="413" x2="87" y2="628"/>
<line x1="121" y1="708" x2="145" y2="729"/>
<line x1="121" y1="708" x2="114" y2="703"/>
<line x1="153" y1="731" x2="183" y2="742"/>
<line x1="153" y1="731" x2="145" y2="729"/>
<line x1="1262" y1="723" x2="1286" y2="703"/>
<line x1="1262" y1="723" x2="1255" y2="729"/>
<line x1="1290" y1="695" x2="1286" y2="703"/>
<line x1="1290" y1="695" x2="1306" y2="668"/>
<line x1="87" y1="629" x2="87" y2="628"/>
<line x1="87" y1="629" x2="93" y2="658"/>
<line x1="93" y1="658" x2="94" y2="668"/>
<line x1="1308" y1="659" x2="1306" y2="668"/>
<line x1="1308" y1="659" x2="1313" y2="628"/>
</g></svg>