<svg xmlns="http://www.w3.org/2000/svg" width="1400" height="900" viewBox="0 0 1400 900">
<rect x="0" y="0" width="100%" height="100%" fill="white"/>
<g stroke="#111" stroke-width="1.2" fill="none" stroke-linecap="round">
<line x1="1259" y1="788" x2="1263" y2="788"/>
<line x1="1259" y1="788" x2="1189" y2="788"/>
<line x1="1189" y1="788" x2="1180" y2="788"/>
<line x1="1180" y1="788" x2="1150" y2="788"/>
<line x1="1150" y1="788" x2="1132" y2="788"/>
<line x1="1132" y1="788" x2="1124" y2="788"/>
<line x1="1124" y1="788" x2="1106" y2="788"/>
<line x1="1106" y1="788" x2="1105" y2="788"/>
<line x1="1105" y1="788" x2="1093" y2="788"/>
<line x1="1093" y1="788" x2="1087" y2="788"/>
<line x1="1087" y1="788" x2="1083" y2="788"/>
<line x1="1083" y1="788" x2="1075" y2="788"/>
<line x1="1075" y1="788" x2="1074" y2="788"/>
<line x1="1074" y1="788" x2="1068" y2="788"/>
<line x1="1068" y1="788" x2="1065" y2="788"/>
<line x1="1065" y1="788" x2="1062" y2="788"/>
<line x1="1062" y1="788" x2="1058" y2="788"/>
<line x1="1058" y1="788" x2="1057" y2="788"/>
<line x1="1057" y1="788" x2="1053" y2="788"/>
<line x1="1053" y1="788" x2="1052" y2="788"/>
<line x1="1052" y1="788" x2="1050" y2="788"/>
<line x1="1050" y1="788" x2="1047" y2="788"/>
<line x1="1047" y1="788" x2="1046" y2="788"/>
<line x1="1046" y1="788" x2="1046" y2="788"/>
<line x1="1046" y1="788" x2="1043" y2="788"/>
<line x1="1043" y1="788" x2="789" y2="788"/>
<line x1="153" y1="788" x2="137" y2="788"/>
<line x1="137" y1="788" x2="137" y2="788"/>
<line x1="153" y1="788" x2="390" y2="788"/>
<line x1="524" y1="788" x2="390" y2="788"/>
<line x1="609" y1="788" x2="524" y2="788"/>
<line x1="669" y1="788" x2="609" y2="788"/>
<line x1="712" y1="788" x2="669" y2="788"/>
<line x1="745" y1="788" x2="712" y2="788"/>
<line x1="767" y1="788" x2="745" y2="788"/>
<line x1="789" y1="788" x2="767" y2="788"/>
<line x1="97" y1="773" x2="99" y2="774"/>
<line x1="97" y1="773" x2="67" y2="748"/>
<line x1="68" y1="128" x2="87" y2="112"/>
<line x1="68" y1="128" x2="67" y2="129"/>
<line x1="40" y1="674" x2="47" y2="712"/>
<line x1="40" y1="674" x2="40" y2="672"/>
<line x1="47" y1="166" x2="40" y2="204"/>
<line x1="47" y1="166" x2="47" y2="164"/>
<line x1="1327" y1="752" x2="1333" y2="748"/>
<line x1="1327" y1="752" x2="1301" y2="774"/>
<line x1="48" y1="714" x2="67" y2="748"/>
<line x1="48" y1="714" x2="47" y2="712"/>
<line x1="135" y1="787" x2="137" y2="788"/>
<line x1="135" y1="787" x2="99" y2="774"/>
<line x1="40" y1="226" x2="40" y2="672"/>
<line x1="40" y1="226" x2="40" y2="204"/>
<line x1="66" y1="130" x2="47" y2="164"/>
<line x1="66" y1="130" x2="67" y2="129"/>
<line x1="1313" y1="112" x2="1327" y2="124"/>
<line x1="1333" y1="129" x2="1327" y2="124"/>
<line x1="1360" y1="589" x2="1360" y2="204"/>
<line x1="1360" y1="589" x2="1360" y2="672"/>
<line x1="1354" y1="705" x2="1360" y2="672"/>
<line x1="1354" y1="705" x2="1353" y2="712"/>
<line x1="1336" y1="741" x2="1353" y2="712"/>
<line x1="1336" y1="741" x2="1333" y2="748"/>
<line x1="1359" y1="197" x2="1353" y2="164"/>
<line x1="1359" y1="197" x2="1360" y2="204"/>
<line x1="1349" y1="158" x2="1333" y2="129"/>
<line x1="1349" y1="158" x2="1353" y2="164"/>
<line x1="1295" y1="776" x2="1301" y2="774"/>
<line x1="1295" y1="776" x2="1263" y2="788"/>
<line x1="1271" y1="716" x2="1286" y2="704"/>
<line x1="1271" y1="716" x2="1255" y2="730"/>
<line x1="93" y1="664" x2="87" y2="629"/>
<line x1="93" y1="664" x2="94" y2="669"/>
<line x1="87" y1="572" x2="87" y2="112"/>
<line x1="87" y1="572" x2="87" y2="629"/>
<line x1="1216" y1="744" x2="1214" y2="744"/>
<line x1="1214" y1="744" x2="1206" y2="744"/>
<line x1="1206" y1="744" x2="1205" y2="744"/>
<line x1="1205" y1="744" x2="1203" y2="744"/>
<line x1="956" y1="744" x2="930" y2="744"/>
<line x1="930" y1="744" x2="915" y2="744"/>
<line x1="915" y1="744" x2="889" y2="744"/>
<line x1="889" y1="744" x2="889" y2="744"/>
<line x1="889" y1="744" x2="870" y2="744"/>
<line x1="870" y1="744" x2="864" y2="744"/>
<line x1="864" y1="744" x2="856" y2="744"/>
<line x1="856" y1="744" x2="847" y2="744"/>
<line x1="847" y1="744" x2="846" y2="744"/>
<line x1="846" y1="744" x2="837" y2="744"/>
<line x1="837" y1="744" x2="836" y2="744"/>
<line x1="836" y1="744" x2="830" y2="744"/>
<line x1="830" y1="744" x2="827" y2="744"/>
<line x1="827" y1="744" x2="825" y2="744"/>
<line x1="825" y1="744" x2="820" y2="744"/>
<line x1="820" y1="744" x2="819" y2="744"/>
<line x1="819" y1="744" x2="816" y2="744"/>
<line x1="816" y1="744" x2="814" y2="744"/>
<line x1="814" y1="744" x2="813" y2="744"/>
<line x1="813" y1="744" x2="811" y2="744"/>
<line x1="811" y1="744" x2="808" y2="744"/>
<line x1="808" y1="744" x2="808" y2="744"/>
<line x1="808" y1="744" x2="805" y2="744"/>
<line x1="805" y1="744" x2="804" y2="744"/>
<line x1="804" y1="744" x2="803" y2="744"/>
<line x1="803" y1="744" x2="801" y2="744"/>
<line x1="801" y1="744" x2="801" y2="744"/>
<line x1="801" y1="744" x2="799" y2="744"/>
<line x1="799" y1="744" x2="798" y2="744"/>
<line x1="956" y1="744" x2="1203" y2="744"/>
<line x1="520" y1="744" x2="573" y2="744"/>
<line x1="428" y1="744" x2="190" y2="744"/>
<line x1="185" y1="744" x2="184" y2="744"/>
<line x1="185" y1="744" x2="190" y2="744"/>
<line x1="428" y1="744" x2="520" y2="744"/>
<line x1="607" y1="744" x2="573" y2="744"/>
<line x1="630" y1="744" x2="607" y2="744"/>
<line x1="647" y1="744" x2="630" y2="744"/>
<line x1="660" y1="744" x2="647" y2="744"/>
<line x1="669" y1="744" x2="660" y2="744"/>
<line x1="677" y1="744" x2="669" y2="744"/>
<line x1="685" y1="744" x2="677" y2="744"/>
<line x1="691" y1="744" x2="685" y2="744"/>
<line x1="691" y1="744" x2="798" y2="744"/>
<line x1="1236" y1="737" x2="1255" y2="730"/>
<line x1="1236" y1="737" x2="1216" y2="744"/>
<line x1="1310" y1="648" x2="1306" y2="669"/>
<line x1="1310" y1="648" x2="1313" y2="629"/>
<line x1="180" y1="742" x2="184" y2="744"/>
<line x1="180" y1="742" x2="146" y2="730"/>
<line x1="142" y1="727" x2="146" y2="730"/>
<line x1="142" y1="727" x2="114" y2="704"/>
<line x1="1296" y1="686" x2="1286" y2="704"/>
<line x1="1296" y1="686" x2="1306" y2="669"/>
<line x1="112" y1="700" x2="94" y2="669"/>
<line x1="112" y1="700" x2="114" y2="704"/>
<line x1="1313" y1="269" x2="1313" y2="629"/>
<line x1="1313" y1="269" x2="1313" y2="112"/>
</g></svg>