<svg xmlns="http://www.w3.org/2000/svg" width="1400" height="900" viewBox="0 0 1400 900">
<rect x="0" y="0" width="100%" height="100%" fill="white"/>
<g stroke="#111" stroke-width="1.2" fill="none" stroke-linecap="round">
<line x1="1127" y1="798" x2="1129" y2="788"/>
<line x1="1016" y1="837" x2="1091" y2="834"/>
<line x1="1016" y1="837" x2="947" y2="839"/>
<line x1="373" y1="784" x2="373" y2="794"/>
<line x1="373" y1="784" x2="372" y2="774"/>
<line x1="1091" y1="834" x2="1097" y2="831"/>
<line x1="1118" y1="818" x2="1121" y2="813"/>
<line x1="1126" y1="804" x2="1127" y2="798"/>
<line x1="1097" y1="831" x2="1106" y2="828"/>
<line x1="1121" y1="813" x2="1126" y2="804"/>
<line x1="1128" y1="781" x2="1129" y2="788"/>
<line x1="1128" y1="781" x2="1128" y2="774"/>
<line x1="1106" y1="828" x2="1113" y2="822"/>
<line x1="1113" y1="822" x2="1118" y2="818"/>
<line x1="389" y1="848" x2="397" y2="855"/>
<line x1="377" y1="831" x2="376" y2="825"/>
<line x1="406" y1="858" x2="412" y2="860"/>
<line x1="677" y1="850" x2="947" y2="839"/>
<line x1="677" y1="850" x2="428" y2="860"/>
<line x1="377" y1="831" x2="382" y2="839"/>
<line x1="397" y1="855" x2="406" y2="858"/>
<line x1="422" y1="860" x2="428" y2="860"/>
<line x1="422" y1="860" x2="412" y2="860"/>
<line x1="385" y1="844" x2="382" y2="839"/>
<line x1="389" y1="848" x2="385" y2="844"/>
<line x1="374" y1="815" x2="376" y2="825"/>
<line x1="374" y1="805" x2="374" y2="815"/>
<line x1="374" y1="805" x2="373" y2="794"/>
<line x1="371" y1="764" x2="372" y2="774"/>
<line x1="371" y1="764" x2="370" y2="753"/>
<line x1="1127" y1="755" x2="1127" y2="758"/>
<line x1="1127" y1="755" x2="1127" y2="753"/>
<line x1="1128" y1="766" x2="1128" y2="774"/>
<line x1="1128" y1="766" x2="1127" y2="758"/>
<line x1="365" y1="702" x2="366" y2="712"/>
<line x1="365" y1="702" x2="364" y2="691"/>
<line x1="1123" y1="695" x2="1123" y2="698"/>
<line x1="1123" y1="695" x2="1123" y2="691"/>
<line x1="1124" y1="705" x2="1124" y2="712"/>
<line x1="1124" y1="705" x2="1123" y2="698"/>
<line x1="1120" y1="659" x2="1121" y2="668"/>
<line x1="1120" y1="659" x2="1119" y2="650"/>
<line x1="1121" y1="669" x2="1121" y2="670"/>
<line x1="1121" y1="669" x2="1121" y2="668"/>
<line x1="360" y1="661" x2="361" y2="670"/>
<line x1="360" y1="661" x2="358" y2="650"/>
<line x1="1126" y1="742" x2="1127" y2="753"/>
<line x1="1126" y1="742" x2="1126" y2="732"/>
<line x1="369" y1="743" x2="370" y2="753"/>
<line x1="369" y1="743" x2="369" y2="732"/>
<line x1="1125" y1="720" x2="1126" y2="728"/>
<line x1="1125" y1="720" x2="1124" y2="712"/>
<line x1="367" y1="722" x2="369" y2="732"/>
<line x1="367" y1="722" x2="366" y2="712"/>
<line x1="1126" y1="730" x2="1126" y2="732"/>
<line x1="1126" y1="730" x2="1126" y2="728"/>
<line x1="357" y1="640" x2="358" y2="650"/>
<line x1="357" y1="640" x2="355" y2="629"/>
<line x1="1118" y1="644" x2="1119" y2="650"/>
<line x1="1118" y1="644" x2="1117" y2="638"/>
<line x1="1117" y1="634" x2="1117" y2="638"/>
<line x1="1117" y1="634" x2="1116" y2="629"/>
<line x1="363" y1="681" x2="364" y2="691"/>
<line x1="363" y1="681" x2="361" y2="670"/>
<line x1="1122" y1="680" x2="1123" y2="691"/>
<line x1="1122" y1="680" x2="1121" y2="670"/>
<line x1="352" y1="614" x2="354" y2="624"/>
<line x1="352" y1="614" x2="350" y2="604"/>
<line x1="1114" y1="609" x2="1114" y2="609"/>
<line x1="1114" y1="609" x2="1114" y2="608"/>
<line x1="1113" y1="598" x2="1114" y2="608"/>
<line x1="1113" y1="598" x2="1111" y2="589"/>
<line x1="348" y1="594" x2="350" y2="604"/>
<line x1="348" y1="594" x2="346" y2="584"/>
<line x1="1109" y1="573" x2="1110" y2="579"/>
<line x1="1109" y1="573" x2="1108" y2="568"/>
<line x1="1111" y1="583" x2="1111" y2="589"/>
<line x1="1111" y1="583" x2="1110" y2="579"/>
<line x1="1115" y1="619" x2="1116" y2="629"/>
<line x1="1115" y1="619" x2="1114" y2="609"/>
<line x1="354" y1="625" x2="355" y2="629"/>
<line x1="354" y1="625" x2="354" y2="624"/>
<line x1="344" y1="574" x2="346" y2="584"/>
<line x1="344" y1="574" x2="342" y2="564"/>
<line x1="1107" y1="558" x2="1108" y2="568"/>
<line x1="1107" y1="558" x2="1106" y2="549"/>
<line x1="1106" y1="548" x2="1106" y2="549"/>
<line x1="1106" y1="548" x2="1106" y2="548"/>
<line x1="1093" y1="474" x2="1094" y2="480"/>
<line x1="1096" y1="489" x2="1094" y2="480"/>
<line x1="1093" y1="473" x2="1093" y2="474"/>
<line x1="1093" y1="473" x2="1093" y2="472"/>
<line x1="329" y1="513" x2="332" y2="524"/>
<line x1="329" y1="513" x2="326" y2="503"/>
<line x1="1097" y1="498" x2="1099" y2="508"/>
<line x1="1097" y1="498" x2="1096" y2="489"/>
<line x1="334" y1="533" x2="337" y2="544"/>
<line x1="334" y1="533" x2="332" y2="524"/>
<line x1="1102" y1="523" x2="1102" y2="528"/>
<line x1="1102" y1="523" x2="1101" y2="519"/>
<line x1="1100" y1="513" x2="1101" y2="519"/>
<line x1="1100" y1="513" x2="1099" y2="508"/>
<line x1="318" y1="473" x2="321" y2="484"/>
<line x1="318" y1="473" x2="315" y2="464"/>
<line x1="1088" y1="448" x2="1089" y2="452"/>
<line x1="1088" y1="448" x2="1087" y2="444"/>
<line x1="1086" y1="439" x2="1087" y2="444"/>
<line x1="1086" y1="439" x2="1085" y2="432"/>
<line x1="299" y1="414" x2="302" y2="424"/>
<line x1="299" y1="414" x2="296" y2="405"/>
<line x1="1076" y1="389" x2="1076" y2="393"/>
<line x1="1076" y1="389" x2="1075" y2="385"/>
<line x1="1073" y1="380" x2="1075" y2="385"/>
<line x1="1073" y1="380" x2="1072" y2="373"/>
<line x1="339" y1="553" x2="342" y2="564"/>
<line x1="339" y1="553" x2="337" y2="544"/>
<line x1="1104" y1="538" x2="1106" y2="548"/>
<line x1="1104" y1="538" x2="1102" y2="528"/>
<line x1="292" y1="394" x2="296" y2="405"/>
<line x1="292" y1="394" x2="289" y2="385"/>
<line x1="1068" y1="355" x2="1068" y2="356"/>
<line x1="1068" y1="355" x2="1067" y2="354"/>
<line x1="1070" y1="365" x2="1072" y2="373"/>
<line x1="1070" y1="365" x2="1068" y2="356"/>
<line x1="1091" y1="463" x2="1093" y2="472"/>
<line x1="1091" y1="463" x2="1089" y2="452"/>
<line x1="324" y1="493" x2="326" y2="503"/>
<line x1="324" y1="493" x2="321" y2="484"/>
<line x1="1049" y1="284" x2="1053" y2="298"/>
<line x1="1049" y1="284" x2="1045" y2="269"/>
<line x1="271" y1="331" x2="273" y2="321"/>
<line x1="274" y1="346" x2="273" y2="340"/>
<line x1="287" y1="297" x2="294" y2="291"/>
<line x1="1032" y1="226" x2="1036" y2="240"/>
<line x1="1032" y1="226" x2="1027" y2="211"/>
<line x1="920" y1="42" x2="926" y2="40"/>
<line x1="964" y1="52" x2="969" y2="56"/>
<line x1="271" y1="331" x2="273" y2="340"/>
<line x1="274" y1="315" x2="279" y2="306"/>
<line x1="273" y1="321" x2="274" y2="315"/>
<line x1="935" y1="40" x2="941" y2="40"/>
<line x1="935" y1="40" x2="926" y2="40"/>
<line x1="279" y1="306" x2="282" y2="301"/>
<line x1="615" y1="163" x2="911" y2="45"/>
<line x1="615" y1="163" x2="294" y2="291"/>
<line x1="1041" y1="255" x2="1045" y2="269"/>
<line x1="1041" y1="255" x2="1036" y2="240"/>
<line x1="278" y1="356" x2="282" y2="366"/>
<line x1="278" y1="356" x2="274" y2="346"/>
<line x1="282" y1="301" x2="287" y2="297"/>
<line x1="993" y1="111" x2="998" y2="126"/>
<line x1="993" y1="111" x2="987" y2="97"/>
<line x1="911" y1="45" x2="920" y2="42"/>
<line x1="1023" y1="197" x2="1027" y2="211"/>
<line x1="1023" y1="197" x2="1018" y2="183"/>
<line x1="982" y1="83" x2="987" y2="97"/>
<line x1="982" y1="83" x2="977" y2="69"/>
<line x1="969" y1="56" x2="972" y2="61"/>
<line x1="1061" y1="331" x2="1062" y2="334"/>
<line x1="1061" y1="331" x2="1061" y2="327"/>
<line x1="1057" y1="313" x2="1061" y2="327"/>
<line x1="1057" y1="313" x2="1053" y2="298"/>
<line x1="1013" y1="169" x2="1018" y2="183"/>
<line x1="1013" y1="169" x2="1008" y2="154"/>
<line x1="964" y1="52" x2="956" y2="45"/>
<line x1="977" y1="69" x2="972" y2="61"/>
<line x1="1003" y1="140" x2="1008" y2="154"/>
<line x1="1003" y1="140" x2="998" y2="126"/>
<line x1="941" y1="40" x2="947" y2="42"/>
<line x1="947" y1="42" x2="956" y2="45"/>
<line x1="312" y1="453" x2="315" y2="464"/>
<line x1="312" y1="453" x2="309" y2="444"/>
<line x1="1081" y1="414" x2="1081" y2="415"/>
<line x1="1081" y1="414" x2="1081" y2="413"/>
<line x1="1083" y1="424" x2="1085" y2="432"/>
<line x1="1083" y1="424" x2="1081" y2="415"/>
<line x1="306" y1="434" x2="309" y2="444"/>
<line x1="306" y1="434" x2="302" y2="424"/>
<line x1="1079" y1="403" x2="1081" y2="413"/>
<line x1="1079" y1="403" x2="1076" y2="393"/>
<line x1="285" y1="376" x2="289" y2="385"/>
<line x1="285" y1="376" x2="282" y2="366"/>
<line x1="1065" y1="344" x2="1067" y2="354"/>
<line x1="1065" y1="344" x2="1062" y2="334"/>
</g></svg>