<svg xmlns="http://www.w3.org/2000/svg" width="1400" height="900" viewBox="0 0 1400 900">
<rect x="0" y="0" width="100%" height="100%" fill="white"/>
<g stroke="#111" stroke-width="1.2" fill="none" stroke-linecap="round">
<line x1="1181" y1="779" x2="1265" y2="779"/>
<line x1="1168" y1="779" x2="1181" y2="779"/>
<line x1="1168" y1="779" x2="1046" y2="779"/>
<line x1="1046" y1="779" x2="1032" y2="779"/>
<line x1="1032" y1="779" x2="929" y2="779"/>
<line x1="883" y1="779" x2="929" y2="779"/>
<line x1="883" y1="779" x2="847" y2="779"/>
<line x1="847" y1="779" x2="796" y2="779"/>
<line x1="732" y1="779" x2="796" y2="779"/>
<line x1="732" y1="779" x2="671" y2="779"/>
<line x1="671" y1="779" x2="663" y2="779"/>
<line x1="529" y1="779" x2="609" y2="779"/>
<line x1="529" y1="779" x2="512" y2="779"/>
<line x1="512" y1="779" x2="459" y2="779"/>
<line x1="370" y1="779" x2="338" y2="779"/>
<line x1="241" y1="779" x2="338" y2="779"/>
<line x1="241" y1="779" x2="227" y2="779"/>
<line x1="663" y1="779" x2="609" y2="779"/>
<line x1="370" y1="779" x2="459" y2="779"/>
<line x1="227" y1="779" x2="139" y2="779"/>
<line x1="1269" y1="778" x2="1303" y2="766"/>
<line x1="1269" y1="778" x2="1265" y2="779"/>
<line x1="1306" y1="763" x2="1303" y2="766"/>
<line x1="126" y1="775" x2="139" y2="779"/>
<line x1="1306" y1="763" x2="1333" y2="740"/>
<line x1="1341" y1="727" x2="1353" y2="706"/>
<line x1="1341" y1="727" x2="1333" y2="740"/>
<line x1="1357" y1="684" x2="1360" y2="667"/>
<line x1="1357" y1="684" x2="1353" y2="706"/>
<line x1="1357" y1="193" x2="1360" y2="211"/>
<line x1="1357" y1="193" x2="1353" y2="172"/>
<line x1="1360" y1="402" x2="1360" y2="211"/>
<line x1="1360" y1="402" x2="1360" y2="667"/>
<line x1="1333" y1="137" x2="1325" y2="131"/>
<line x1="1325" y1="131" x2="1314" y2="121"/>
<line x1="1341" y1="150" x2="1353" y2="172"/>
<line x1="1341" y1="150" x2="1333" y2="137"/>
<line x1="52" y1="714" x2="68" y2="740"/>
<line x1="52" y1="714" x2="47" y2="706"/>
<line x1="87" y1="755" x2="68" y2="740"/>
<line x1="87" y1="755" x2="100" y2="766"/>
<line x1="52" y1="163" x2="68" y2="137"/>
<line x1="52" y1="163" x2="47" y2="172"/>
<line x1="41" y1="672" x2="47" y2="706"/>
<line x1="41" y1="672" x2="40" y2="667"/>
<line x1="40" y1="261" x2="40" y2="667"/>
<line x1="40" y1="261" x2="40" y2="211"/>
<line x1="126" y1="775" x2="100" y2="766"/>
<line x1="83" y1="125" x2="88" y2="121"/>
<line x1="83" y1="125" x2="68" y2="137"/>
<line x1="41" y1="206" x2="47" y2="172"/>
<line x1="41" y1="206" x2="40" y2="211"/>
<line x1="1219" y1="736" x2="1207" y2="736"/>
<line x1="1207" y1="736" x2="1187" y2="736"/>
<line x1="1187" y1="736" x2="1183" y2="736"/>
<line x1="1183" y1="736" x2="1161" y2="736"/>
<line x1="1161" y1="736" x2="1156" y2="736"/>
<line x1="865" y1="736" x2="805" y2="736"/>
<line x1="749" y1="736" x2="702" y2="736"/>
<line x1="702" y1="736" x2="683" y2="736"/>
<line x1="610" y1="736" x2="561" y2="736"/>
<line x1="561" y1="736" x2="555" y2="736"/>
<line x1="555" y1="736" x2="503" y2="736"/>
<line x1="422" y1="736" x2="390" y2="736"/>
<line x1="300" y1="736" x2="285" y2="736"/>
<line x1="189" y1="736" x2="188" y2="736"/>
<line x1="610" y1="736" x2="683" y2="736"/>
<line x1="865" y1="736" x2="1156" y2="736"/>
<line x1="749" y1="736" x2="805" y2="736"/>
<line x1="422" y1="736" x2="503" y2="736"/>
<line x1="300" y1="736" x2="390" y2="736"/>
<line x1="189" y1="736" x2="285" y2="736"/>
<line x1="186" y1="736" x2="188" y2="736"/>
<line x1="1256" y1="723" x2="1235" y2="730"/>
<line x1="1256" y1="723" x2="1267" y2="714"/>
<line x1="1219" y1="736" x2="1235" y2="730"/>
<line x1="1293" y1="687" x2="1307" y2="663"/>
<line x1="1293" y1="687" x2="1287" y2="697"/>
<line x1="1310" y1="644" x2="1314" y2="624"/>
<line x1="1310" y1="644" x2="1307" y2="663"/>
<line x1="1287" y1="697" x2="1267" y2="714"/>
<line x1="1314" y1="203" x2="1314" y2="624"/>
<line x1="1314" y1="203" x2="1314" y2="121"/>
<line x1="95" y1="661" x2="95" y2="663"/>
<line x1="95" y1="661" x2="88" y2="624"/>
<line x1="95" y1="663" x2="99" y2="670"/>
<line x1="88" y1="541" x2="88" y2="121"/>
<line x1="88" y1="541" x2="88" y2="624"/>
<line x1="116" y1="697" x2="99" y2="670"/>
<line x1="185" y1="736" x2="186" y2="736"/>
<line x1="185" y1="736" x2="147" y2="723"/>
<line x1="125" y1="705" x2="147" y2="723"/>
<line x1="125" y1="705" x2="116" y2="697"/>
</g></svg>