<svg xmlns="http://www.w3.org/2000/svg" width="1400" height="900" viewBox="0 0 1400 900">
<rect x="0" y="0" width="100%" height="100%" fill="white"/>
<g stroke="#111" stroke-width="1.2" fill="none" stroke-linecap="round">
<line x1="1084" y1="834" x2="1100" y2="828"/>
<line x1="1075" y1="834" x2="943" y2="840"/>
<line x1="1075" y1="834" x2="1084" y2="834"/>
<line x1="1125" y1="798" x2="1129" y2="781"/>
<line x1="1102" y1="827" x2="1116" y2="816"/>
<line x1="1100" y1="828" x2="1101" y2="828"/>
<line x1="1101" y1="828" x2="1102" y2="827"/>
<line x1="1128" y1="767" x2="1128" y2="766"/>
<line x1="1128" y1="767" x2="1129" y2="781"/>
<line x1="1125" y1="800" x2="1125" y2="799"/>
<line x1="1125" y1="799" x2="1125" y2="798"/>
<line x1="1116" y1="816" x2="1125" y2="800"/>
<line x1="371" y1="785" x2="370" y2="766"/>
<line x1="371" y1="785" x2="371" y2="786"/>
<line x1="375" y1="824" x2="375" y2="825"/>
<line x1="398" y1="853" x2="385" y2="841"/>
<line x1="913" y1="841" x2="436" y2="860"/>
<line x1="913" y1="841" x2="943" y2="840"/>
<line x1="375" y1="825" x2="376" y2="826"/>
<line x1="398" y1="853" x2="399" y2="854"/>
<line x1="418" y1="860" x2="417" y2="860"/>
<line x1="418" y1="860" x2="436" y2="860"/>
<line x1="385" y1="841" x2="376" y2="826"/>
<line x1="375" y1="824" x2="372" y2="806"/>
<line x1="399" y1="854" x2="401" y2="854"/>
<line x1="401" y1="854" x2="417" y2="860"/>
<line x1="372" y1="805" x2="371" y2="786"/>
<line x1="372" y1="805" x2="372" y2="806"/>
<line x1="370" y1="765" x2="368" y2="746"/>
<line x1="370" y1="765" x2="370" y2="766"/>
<line x1="1127" y1="752" x2="1127" y2="751"/>
<line x1="1127" y1="752" x2="1128" y2="766"/>
<line x1="1127" y1="746" x2="1127" y2="746"/>
<line x1="1127" y1="746" x2="1127" y2="751"/>
<line x1="364" y1="704" x2="362" y2="685"/>
<line x1="364" y1="704" x2="364" y2="705"/>
<line x1="1123" y1="686" x2="1122" y2="685"/>
<line x1="1123" y1="686" x2="1123" y2="693"/>
<line x1="1123" y1="693" x2="1123" y2="693"/>
<line x1="1123" y1="693" x2="1124" y2="705"/>
<line x1="1121" y1="663" x2="1120" y2="663"/>
<line x1="1121" y1="663" x2="1121" y2="665"/>
<line x1="1119" y1="646" x2="1119" y2="645"/>
<line x1="1119" y1="646" x2="1120" y2="663"/>
<line x1="359" y1="664" x2="356" y2="645"/>
<line x1="359" y1="664" x2="359" y2="665"/>
<line x1="368" y1="745" x2="367" y2="726"/>
<line x1="368" y1="745" x2="368" y2="746"/>
<line x1="1126" y1="727" x2="1126" y2="726"/>
<line x1="1126" y1="727" x2="1127" y2="746"/>
<line x1="366" y1="724" x2="364" y2="705"/>
<line x1="366" y1="724" x2="367" y2="726"/>
<line x1="1125" y1="722" x2="1125" y2="722"/>
<line x1="1125" y1="722" x2="1126" y2="726"/>
<line x1="1124" y1="706" x2="1124" y2="705"/>
<line x1="1124" y1="706" x2="1125" y2="722"/>
<line x1="1118" y1="635" x2="1117" y2="634"/>
<line x1="1118" y1="635" x2="1119" y2="645"/>
<line x1="356" y1="643" x2="353" y2="625"/>
<line x1="356" y1="643" x2="356" y2="645"/>
<line x1="1116" y1="626" x2="1116" y2="625"/>
<line x1="1116" y1="626" x2="1117" y2="634"/>
<line x1="362" y1="684" x2="359" y2="665"/>
<line x1="362" y1="684" x2="362" y2="685"/>
<line x1="1121" y1="667" x2="1121" y2="665"/>
<line x1="1121" y1="667" x2="1122" y2="685"/>
<line x1="350" y1="606" x2="353" y2="623"/>
<line x1="350" y1="606" x2="349" y2="604"/>
<line x1="1114" y1="605" x2="1114" y2="605"/>
<line x1="1114" y1="605" x2="1114" y2="605"/>
<line x1="1112" y1="587" x2="1111" y2="585"/>
<line x1="1112" y1="587" x2="1114" y2="605"/>
<line x1="349" y1="603" x2="345" y2="584"/>
<line x1="349" y1="603" x2="349" y2="604"/>
<line x1="1109" y1="566" x2="1109" y2="566"/>
<line x1="1109" y1="566" x2="1110" y2="576"/>
<line x1="1110" y1="576" x2="1110" y2="576"/>
<line x1="1110" y1="576" x2="1111" y2="585"/>
<line x1="353" y1="625" x2="353" y2="623"/>
<line x1="1114" y1="607" x2="1114" y2="605"/>
<line x1="1114" y1="607" x2="1116" y2="625"/>
<line x1="1106" y1="548" x2="1106" y2="547"/>
<line x1="1106" y1="548" x2="1109" y2="566"/>
<line x1="345" y1="583" x2="341" y2="564"/>
<line x1="345" y1="583" x2="345" y2="584"/>
<line x1="1106" y1="546" x2="1106" y2="546"/>
<line x1="1106" y1="546" x2="1106" y2="547"/>
<line x1="1093" y1="471" x2="1096" y2="489"/>
<line x1="1096" y1="490" x2="1096" y2="489"/>
<line x1="1096" y1="490" x2="1099" y2="507"/>
<line x1="1093" y1="468" x2="1092" y2="468"/>
<line x1="1093" y1="468" x2="1093" y2="470"/>
<line x1="1093" y1="471" x2="1093" y2="470"/>
<line x1="331" y1="524" x2="326" y2="506"/>
<line x1="331" y1="524" x2="331" y2="525"/>
<line x1="336" y1="544" x2="331" y2="525"/>
<line x1="336" y1="544" x2="336" y2="545"/>
<line x1="1101" y1="518" x2="1101" y2="518"/>
<line x1="1101" y1="518" x2="1103" y2="526"/>
<line x1="1099" y1="507" x2="1099" y2="507"/>
<line x1="1099" y1="507" x2="1101" y2="518"/>
<line x1="320" y1="485" x2="315" y2="467"/>
<line x1="320" y1="485" x2="321" y2="486"/>
<line x1="1087" y1="442" x2="1087" y2="441"/>
<line x1="1087" y1="442" x2="1089" y2="449"/>
<line x1="1085" y1="430" x2="1085" y2="429"/>
<line x1="1085" y1="430" x2="1087" y2="441"/>
<line x1="1075" y1="384" x2="1075" y2="384"/>
<line x1="1075" y1="384" x2="1077" y2="391"/>
<line x1="1072" y1="372" x2="1072" y2="372"/>
<line x1="1072" y1="372" x2="1075" y2="384"/>
<line x1="302" y1="427" x2="296" y2="409"/>
<line x1="302" y1="427" x2="303" y2="428"/>
<line x1="1103" y1="527" x2="1103" y2="526"/>
<line x1="1103" y1="527" x2="1106" y2="546"/>
<line x1="341" y1="563" x2="336" y2="545"/>
<line x1="341" y1="563" x2="341" y2="564"/>
<line x1="296" y1="408" x2="289" y2="390"/>
<line x1="296" y1="408" x2="296" y2="409"/>
<line x1="1069" y1="356" x2="1068" y2="355"/>
<line x1="1069" y1="356" x2="1072" y2="372"/>
<line x1="1068" y1="353" x2="1068" y2="353"/>
<line x1="1068" y1="353" x2="1068" y2="355"/>
<line x1="1089" y1="450" x2="1089" y2="449"/>
<line x1="1089" y1="450" x2="1092" y2="468"/>
<line x1="326" y1="504" x2="321" y2="486"/>
<line x1="326" y1="504" x2="326" y2="506"/>
<line x1="275" y1="316" x2="275" y2="315"/>
<line x1="284" y1="298" x2="298" y2="287"/>
<line x1="275" y1="315" x2="275" y2="314"/>
<line x1="271" y1="333" x2="275" y2="316"/>
<line x1="1020" y1="187" x2="1020" y2="185"/>
<line x1="1020" y1="187" x2="1029" y2="213"/>
<line x1="282" y1="370" x2="275" y2="352"/>
<line x1="282" y1="370" x2="282" y2="371"/>
<line x1="298" y1="287" x2="299" y2="286"/>
<line x1="901" y1="46" x2="902" y2="46"/>
<line x1="275" y1="314" x2="284" y2="298"/>
<line x1="1038" y1="243" x2="1037" y2="241"/>
<line x1="1038" y1="243" x2="1046" y2="270"/>
<line x1="1046" y1="271" x2="1046" y2="270"/>
<line x1="1046" y1="271" x2="1054" y2="298"/>
<line x1="334" y1="272" x2="901" y2="46"/>
<line x1="334" y1="272" x2="299" y2="286"/>
<line x1="954" y1="46" x2="955" y2="46"/>
<line x1="970" y1="59" x2="979" y2="74"/>
<line x1="1029" y1="215" x2="1029" y2="213"/>
<line x1="1029" y1="215" x2="1037" y2="241"/>
<line x1="902" y1="46" x2="919" y2="40"/>
<line x1="275" y1="351" x2="271" y2="333"/>
<line x1="275" y1="351" x2="275" y2="352"/>
<line x1="979" y1="75" x2="979" y2="74"/>
<line x1="956" y1="47" x2="970" y2="59"/>
<line x1="1001" y1="132" x2="1000" y2="130"/>
<line x1="1001" y1="132" x2="1010" y2="158"/>
<line x1="936" y1="40" x2="938" y2="40"/>
<line x1="936" y1="40" x2="919" y2="40"/>
<line x1="938" y1="40" x2="954" y2="46"/>
<line x1="990" y1="104" x2="990" y2="102"/>
<line x1="990" y1="104" x2="1000" y2="130"/>
<line x1="956" y1="47" x2="955" y2="46"/>
<line x1="1061" y1="327" x2="1061" y2="326"/>
<line x1="1061" y1="327" x2="1063" y2="334"/>
<line x1="980" y1="77" x2="979" y2="75"/>
<line x1="980" y1="77" x2="990" y2="102"/>
<line x1="1054" y1="300" x2="1054" y2="298"/>
<line x1="1054" y1="300" x2="1061" y2="326"/>
<line x1="1011" y1="159" x2="1010" y2="158"/>
<line x1="1011" y1="159" x2="1020" y2="185"/>
<line x1="315" y1="465" x2="309" y2="447"/>
<line x1="315" y1="465" x2="315" y2="467"/>
<line x1="1081" y1="410" x2="1081" y2="410"/>
<line x1="1081" y1="410" x2="1081" y2="412"/>
<line x1="1082" y1="413" x2="1081" y2="412"/>
<line x1="1082" y1="413" x2="1085" y2="429"/>
<line x1="1077" y1="392" x2="1077" y2="391"/>
<line x1="1077" y1="392" x2="1081" y2="410"/>
<line x1="309" y1="446" x2="303" y2="428"/>
<line x1="309" y1="446" x2="309" y2="447"/>
<line x1="289" y1="389" x2="282" y2="371"/>
<line x1="289" y1="389" x2="289" y2="390"/>
<line x1="1063" y1="335" x2="1063" y2="334"/>
<line x1="1063" y1="335" x2="1068" y2="353"/>
</g></svg>