<svg xmlns="http://www.w3.org/2000/svg" width="1400" height="900" viewBox="0 0 1400 900">
<rect x="0" y="0" width="100%" height="100%" fill="white"/>
<g stroke="#111" stroke-width="1.2" fill="none" stroke-linecap="round">
<line x1="1135" y1="859" x2="1135" y2="859"/>
<line x1="1134" y1="860" x2="1135" y2="859"/>
<line x1="1138" y1="852" x2="1138" y2="852"/>
<line x1="1138" y1="853" x2="1138" y2="852"/>
<line x1="1135" y1="858" x2="1135" y2="859"/>
<line x1="1135" y1="858" x2="1138" y2="853"/>
<line x1="1140" y1="844" x2="1140" y2="844"/>
<line x1="1140" y1="844" x2="1138" y2="852"/>
<line x1="1141" y1="835" x2="1141" y2="835"/>
<line x1="1141" y1="835" x2="1140" y2="844"/>
<line x1="1140" y1="809" x2="1140" y2="808"/>
<line x1="1140" y1="809" x2="1141" y2="835"/>
<line x1="1140" y1="808" x2="1140" y2="808"/>
<line x1="1140" y1="808" x2="1140" y2="808"/>
<line x1="1139" y1="772" x2="1139" y2="771"/>
<line x1="1139" y1="772" x2="1140" y2="808"/>
<line x1="1139" y1="771" x2="1139" y2="771"/>
<line x1="1139" y1="771" x2="1139" y2="771"/>
<line x1="1136" y1="735" x2="1136" y2="734"/>
<line x1="1136" y1="735" x2="1139" y2="771"/>
<line x1="1136" y1="733" x2="1136" y2="733"/>
<line x1="1136" y1="733" x2="1136" y2="734"/>
<line x1="1133" y1="698" x2="1133" y2="697"/>
<line x1="1133" y1="698" x2="1136" y2="733"/>
<line x1="1133" y1="696" x2="1133" y2="696"/>
<line x1="1133" y1="696" x2="1133" y2="697"/>
<line x1="1130" y1="661" x2="1130" y2="660"/>
<line x1="1130" y1="661" x2="1133" y2="696"/>
<line x1="1130" y1="659" x2="1130" y2="659"/>
<line x1="1130" y1="659" x2="1130" y2="660"/>
<line x1="1126" y1="624" x2="1126" y2="623"/>
<line x1="1126" y1="624" x2="1130" y2="659"/>
<line x1="1126" y1="623" x2="1126" y2="623"/>
<line x1="1126" y1="623" x2="1126" y2="623"/>
<line x1="1121" y1="587" x2="1121" y2="586"/>
<line x1="1121" y1="587" x2="1126" y2="623"/>
<line x1="1121" y1="586" x2="1121" y2="586"/>
<line x1="1121" y1="586" x2="1121" y2="586"/>
<line x1="1115" y1="550" x2="1115" y2="550"/>
<line x1="1115" y1="550" x2="1121" y2="586"/>
<line x1="1115" y1="549" x2="1115" y2="549"/>
<line x1="1115" y1="549" x2="1115" y2="550"/>
<line x1="1109" y1="514" x2="1109" y2="513"/>
<line x1="1109" y1="514" x2="1115" y2="549"/>
<line x1="1109" y1="512" x2="1109" y2="512"/>
<line x1="1109" y1="512" x2="1109" y2="513"/>
<line x1="1103" y1="477" x2="1102" y2="477"/>
<line x1="1103" y1="477" x2="1109" y2="512"/>
<line x1="1102" y1="476" x2="1102" y2="476"/>
<line x1="1102" y1="476" x2="1102" y2="477"/>
<line x1="1102" y1="475" x2="1102" y2="475"/>
<line x1="1102" y1="476" x2="1102" y2="475"/>
<line x1="1102" y1="475" x2="1095" y2="440"/>
<line x1="1095" y1="439" x2="1095" y2="439"/>
<line x1="1095" y1="440" x2="1095" y2="440"/>
<line x1="1095" y1="440" x2="1095" y2="439"/>
<line x1="1087" y1="404" x2="1087" y2="404"/>
<line x1="1087" y1="404" x2="1087" y2="404"/>
<line x1="1087" y1="404" x2="1087" y2="404"/>
<line x1="1087" y1="404" x2="1095" y2="439"/>
<line x1="1087" y1="403" x2="1087" y2="403"/>
<line x1="1087" y1="403" x2="1087" y2="404"/>
<line x1="1078" y1="368" x2="1078" y2="368"/>
<line x1="1078" y1="368" x2="1087" y2="403"/>
<line x1="1078" y1="367" x2="1078" y2="367"/>
<line x1="1078" y1="367" x2="1078" y2="368"/>
<line x1="1069" y1="332" x2="1069" y2="332"/>
<line x1="1069" y1="332" x2="1078" y2="367"/>
<line x1="1069" y1="331" x2="1069" y2="331"/>
<line x1="1069" y1="331" x2="1069" y2="332"/>
<line x1="1059" y1="297" x2="1059" y2="296"/>
<line x1="1059" y1="297" x2="1069" y2="331"/>
<line x1="1059" y1="295" x2="1059" y2="295"/>
<line x1="1059" y1="295" x2="1059" y2="296"/>
<line x1="1049" y1="261" x2="1049" y2="260"/>
<line x1="1049" y1="261" x2="1059" y2="295"/>
<line x1="1048" y1="260" x2="1048" y2="260"/>
<line x1="1048" y1="260" x2="1049" y2="260"/>
<line x1="1038" y1="225" x2="1037" y2="225"/>
<line x1="1038" y1="225" x2="1048" y2="260"/>
<line x1="1037" y1="224" x2="1037" y2="224"/>
<line x1="1037" y1="224" x2="1037" y2="225"/>
<line x1="1026" y1="190" x2="1026" y2="190"/>
<line x1="1026" y1="190" x2="1037" y2="224"/>
<line x1="1025" y1="189" x2="1025" y2="189"/>
<line x1="1025" y1="189" x2="1026" y2="190"/>
<line x1="1013" y1="155" x2="1013" y2="155"/>
<line x1="1013" y1="155" x2="1025" y2="189"/>
<line x1="1013" y1="154" x2="1013" y2="154"/>
<line x1="1013" y1="154" x2="1013" y2="155"/>
<line x1="1000" y1="120" x2="1000" y2="120"/>
<line x1="1000" y1="120" x2="1013" y2="154"/>
<line x1="1000" y1="119" x2="1000" y2="119"/>
<line x1="1000" y1="119" x2="1000" y2="120"/>
<line x1="987" y1="86" x2="987" y2="85"/>
<line x1="987" y1="86" x2="1000" y2="119"/>
<line x1="986" y1="85" x2="986" y2="85"/>
<line x1="986" y1="85" x2="987" y2="85"/>
<line x1="976" y1="61" x2="976" y2="60"/>
<line x1="976" y1="61" x2="986" y2="85"/>
<line x1="973" y1="53" x2="972" y2="53"/>
<line x1="973" y1="53" x2="976" y2="60"/>
<line x1="968" y1="47" x2="968" y2="47"/>
<line x1="968" y1="47" x2="972" y2="53"/>
<line x1="967" y1="46" x2="968" y2="47"/>
<line x1="967" y1="46" x2="967" y2="46"/>
<line x1="962" y1="42" x2="967" y2="46"/>
<line x1="962" y1="42" x2="962" y2="41"/>
<line x1="960" y1="40" x2="960" y2="40"/>
<line x1="960" y1="40" x2="962" y2="41"/>
<line x1="259" y1="353" x2="259" y2="353"/>
<line x1="259" y1="352" x2="259" y2="352"/>
<line x1="259" y1="353" x2="259" y2="352"/>
<line x1="259" y1="353" x2="259" y2="353"/>
<line x1="259" y1="360" x2="259" y2="360"/>
<line x1="259" y1="360" x2="259" y2="360"/>
<line x1="259" y1="360" x2="259" y2="360"/>
<line x1="259" y1="360" x2="259" y2="360"/>
<line x1="259" y1="360" x2="259" y2="360"/>
<line x1="259" y1="360" x2="259" y2="360"/>
<line x1="259" y1="360" x2="259" y2="360"/>
<line x1="259" y1="360" x2="259" y2="360"/>
<line x1="259" y1="360" x2="259" y2="353"/>
<line x1="259" y1="360" x2="259" y2="361"/>
<line x1="260" y1="369" x2="259" y2="361"/>
<line x1="260" y1="369" x2="260" y2="369"/>
<line x1="260" y1="369" x2="260" y2="369"/>
<line x1="260" y1="369" x2="260" y2="369"/>
<line x1="262" y1="375" x2="260" y2="369"/>
<line x1="262" y1="375" x2="263" y2="375"/>
<line x1="263" y1="375" x2="263" y2="375"/>
<line x1="263" y1="375" x2="263" y2="377"/>
<line x1="263" y1="375" x2="263" y2="375"/>
<line x1="263" y1="377" x2="263" y2="377"/>
<line x1="263" y1="377" x2="272" y2="399"/>
<line x1="263" y1="377" x2="263" y2="377"/>
<line x1="272" y1="399" x2="272" y2="399"/>
<line x1="280" y1="421" x2="272" y2="399"/>
<line x1="280" y1="421" x2="280" y2="421"/>
<line x1="280" y1="421" x2="288" y2="443"/>
<line x1="280" y1="421" x2="280" y2="421"/>
<line x1="295" y1="465" x2="288" y2="443"/>
<line x1="295" y1="465" x2="296" y2="466"/>
<line x1="302" y1="488" x2="296" y2="466"/>
<line x1="302" y1="488" x2="303" y2="488"/>
<line x1="303" y1="488" x2="303" y2="488"/>
<line x1="309" y1="511" x2="303" y2="488"/>
<line x1="309" y1="511" x2="309" y2="511"/>
<line x1="309" y1="511" x2="309" y2="511"/>
<line x1="315" y1="533" x2="309" y2="511"/>
<line x1="315" y1="533" x2="316" y2="533"/>
<line x1="321" y1="556" x2="316" y2="533"/>
<line x1="321" y1="556" x2="321" y2="556"/>
<line x1="321" y1="556" x2="321" y2="556"/>
<line x1="321" y1="556" x2="321" y2="556"/>
<line x1="327" y1="579" x2="321" y2="556"/>
<line x1="327" y1="579" x2="327" y2="579"/>
<line x1="327" y1="579" x2="327" y2="579"/>
<line x1="327" y1="579" x2="327" y2="579"/>
<line x1="327" y1="579" x2="327" y2="579"/>
<line x1="327" y1="579" x2="327" y2="579"/>
<line x1="332" y1="602" x2="327" y2="579"/>
<line x1="332" y1="602" x2="332" y2="602"/>
<line x1="332" y1="602" x2="332" y2="602"/>
<line x1="332" y1="602" x2="332" y2="602"/>
<line x1="332" y1="602" x2="332" y2="602"/>
<line x1="332" y1="602" x2="337" y2="625"/>
<line x1="332" y1="602" x2="332" y2="602"/>
<line x1="337" y1="625" x2="337" y2="625"/>
<line x1="337" y1="625" x2="337" y2="625"/>
<line x1="337" y1="625" x2="337" y2="625"/>
<line x1="337" y1="625" x2="337" y2="625"/>
<line x1="337" y1="625" x2="341" y2="648"/>
<line x1="337" y1="625" x2="337" y2="625"/>
<line x1="341" y1="648" x2="341" y2="648"/>
<line x1="341" y1="648" x2="341" y2="648"/>
<line x1="345" y1="671" x2="341" y2="648"/>
<line x1="345" y1="671" x2="345" y2="671"/>
<line x1="345" y1="672" x2="348" y2="695"/>
<line x1="345" y1="672" x2="345" y2="671"/>
<line x1="348" y1="695" x2="348" y2="695"/>
<line x1="351" y1="718" x2="348" y2="695"/>
<line x1="351" y1="718" x2="351" y2="718"/>
<line x1="354" y1="741" x2="351" y2="718"/>
<line x1="354" y1="741" x2="354" y2="741"/>
<line x1="356" y1="764" x2="354" y2="741"/>
<line x1="356" y1="764" x2="356" y2="765"/>
<line x1="358" y1="788" x2="356" y2="765"/>
<line x1="358" y1="788" x2="358" y2="788"/>
<line x1="358" y1="788" x2="358" y2="788"/>
<line x1="360" y1="812" x2="358" y2="788"/>
<line x1="360" y1="812" x2="360" y2="812"/>
<line x1="360" y1="812" x2="360" y2="812"/>
<line x1="361" y1="835" x2="360" y2="812"/>
<line x1="361" y1="835" x2="361" y2="835"/>
<line x1="361" y1="837" x2="361" y2="835"/>
<line x1="361" y1="837" x2="361" y2="837"/>
<line x1="361" y1="837" x2="361" y2="837"/>
<line x1="361" y1="837" x2="361" y2="837"/>
<line x1="362" y1="845" x2="361" y2="837"/>
<line x1="362" y1="845" x2="362" y2="845"/>
<line x1="362" y1="845" x2="364" y2="853"/>
<line x1="362" y1="845" x2="362" y2="845"/>
<line x1="364" y1="853" x2="364" y2="853"/>
<line x1="364" y1="854" x2="364" y2="854"/>
<line x1="367" y1="859" x2="367" y2="860"/>
<line x1="367" y1="859" x2="364" y2="854"/>
<line x1="364" y1="854" x2="364" y2="854"/>
<line x1="364" y1="853" x2="364" y2="854"/>
<line x1="364" y1="853" x2="364" y2="853"/>
<line x1="364" y1="853" x2="364" y2="853"/>
<line x1="364" y1="853" x2="364" y2="853"/>
<line x1="367" y1="860" x2="367" y2="860"/>
<line x1="367" y1="860" x2="837" y2="860"/>
<line x1="837" y1="860" x2="1134" y2="860"/>
<line x1="960" y1="40" x2="525" y2="234"/>
<line x1="259" y1="352" x2="525" y2="234"/>
</g></svg>