<svg xmlns="http://www.w3.org/2000/svg" width="1400" height="900" viewBox="0 0 1400 900">
<rect x="0" y="0" width="100%" height="100%" fill="white"/>
<g stroke="#111" stroke-width="1.2" fill="none" stroke-linecap="round">
<line x1="149" y1="723" x2="149" y2="723"/>
<line x1="150" y1="723" x2="149" y2="723"/>
<line x1="150" y1="723" x2="150" y2="723"/>
<line x1="150" y1="723" x2="150" y2="723"/>
<line x1="150" y1="723" x2="150" y2="723"/>
<line x1="151" y1="723" x2="150" y2="723"/>
<line x1="100" y1="723" x2="129" y2="723"/>
<line x1="129" y1="723" x2="129" y2="723"/>
<line x1="129" y1="723" x2="138" y2="723"/>
<line x1="138" y1="723" x2="139" y2="723"/>
<line x1="139" y1="723" x2="142" y2="723"/>
<line x1="142" y1="723" x2="142" y2="723"/>
<line x1="142" y1="723" x2="145" y2="723"/>
<line x1="145" y1="723" x2="145" y2="723"/>
<line x1="145" y1="723" x2="146" y2="723"/>
<line x1="146" y1="723" x2="146" y2="723"/>
<line x1="146" y1="723" x2="148" y2="723"/>
<line x1="148" y1="723" x2="148" y2="723"/>
<line x1="148" y1="723" x2="149" y2="723"/>
<line x1="100" y1="573" x2="100" y2="723"/>
<line x1="100" y1="573" x2="100" y2="173"/>
<line x1="100" y1="141" x2="100" y2="141"/>
<line x1="100" y1="141" x2="100" y2="139"/>
<line x1="1318" y1="449" x2="1318" y2="688"/>
<line x1="1318" y1="449" x2="1318" y2="139"/>
<line x1="151" y1="723" x2="151" y2="723"/>
<line x1="151" y1="723" x2="151" y2="723"/>
<line x1="151" y1="723" x2="164" y2="723"/>
<line x1="164" y1="723" x2="164" y2="723"/>
<line x1="164" y1="723" x2="172" y2="723"/>
<line x1="242" y1="723" x2="243" y2="723"/>
<line x1="243" y1="723" x2="285" y2="723"/>
<line x1="285" y1="723" x2="285" y2="723"/>
<line x1="285" y1="723" x2="323" y2="723"/>
<line x1="323" y1="723" x2="323" y2="723"/>
<line x1="323" y1="723" x2="357" y2="723"/>
<line x1="357" y1="723" x2="357" y2="723"/>
<line x1="357" y1="723" x2="388" y2="723"/>
<line x1="388" y1="723" x2="388" y2="723"/>
<line x1="388" y1="723" x2="417" y2="723"/>
<line x1="417" y1="723" x2="417" y2="723"/>
<line x1="417" y1="723" x2="443" y2="723"/>
<line x1="443" y1="723" x2="443" y2="723"/>
<line x1="443" y1="723" x2="467" y2="723"/>
<line x1="467" y1="723" x2="467" y2="723"/>
<line x1="467" y1="723" x2="490" y2="723"/>
<line x1="490" y1="723" x2="490" y2="723"/>
<line x1="490" y1="723" x2="511" y2="723"/>
<line x1="511" y1="723" x2="511" y2="723"/>
<line x1="242" y1="723" x2="172" y2="723"/>
<line x1="1091" y1="723" x2="511" y2="723"/>
<line x1="50" y1="723" x2="52" y2="723"/>
<line x1="52" y1="723" x2="57" y2="723"/>
<line x1="57" y1="723" x2="62" y2="723"/>
<line x1="1091" y1="723" x2="1194" y2="723"/>
<line x1="1300" y1="723" x2="1355" y2="723"/>
<line x1="1277" y1="723" x2="1300" y2="723"/>
<line x1="1277" y1="723" x2="1194" y2="723"/>
<line x1="40" y1="761" x2="40" y2="761"/>
<line x1="40" y1="761" x2="47" y2="761"/>
<line x1="47" y1="761" x2="47" y2="761"/>
<line x1="47" y1="761" x2="50" y2="761"/>
<line x1="163" y1="761" x2="50" y2="761"/>
<line x1="163" y1="761" x2="165" y2="761"/>
<line x1="165" y1="761" x2="226" y2="761"/>
<line x1="242" y1="761" x2="226" y2="761"/>
<line x1="242" y1="761" x2="243" y2="761"/>
<line x1="243" y1="761" x2="304" y2="761"/>
<line x1="311" y1="761" x2="313" y2="761"/>
<line x1="313" y1="761" x2="370" y2="761"/>
<line x1="379" y1="761" x2="370" y2="761"/>
<line x1="379" y1="761" x2="380" y2="761"/>
<line x1="445" y1="761" x2="435" y2="761"/>
<line x1="445" y1="761" x2="446" y2="761"/>
<line x1="446" y1="761" x2="497" y2="761"/>
<line x1="508" y1="761" x2="497" y2="761"/>
<line x1="510" y1="761" x2="558" y2="761"/>
<line x1="571" y1="761" x2="558" y2="761"/>
<line x1="571" y1="761" x2="572" y2="761"/>
<line x1="572" y1="761" x2="618" y2="761"/>
<line x1="631" y1="761" x2="632" y2="761"/>
<line x1="632" y1="761" x2="676" y2="761"/>
<line x1="690" y1="761" x2="676" y2="761"/>
<line x1="690" y1="761" x2="691" y2="761"/>
<line x1="748" y1="761" x2="733" y2="761"/>
<line x1="748" y1="761" x2="749" y2="761"/>
<line x1="749" y1="761" x2="788" y2="761"/>
<line x1="805" y1="761" x2="788" y2="761"/>
<line x1="806" y1="761" x2="843" y2="761"/>
<line x1="860" y1="761" x2="843" y2="761"/>
<line x1="860" y1="761" x2="861" y2="761"/>
<line x1="861" y1="761" x2="896" y2="761"/>
<line x1="914" y1="761" x2="915" y2="761"/>
<line x1="915" y1="761" x2="948" y2="761"/>
<line x1="967" y1="761" x2="948" y2="761"/>
<line x1="967" y1="761" x2="968" y2="761"/>
<line x1="1019" y1="761" x2="1000" y2="761"/>
<line x1="1019" y1="761" x2="1020" y2="761"/>
<line x1="1020" y1="761" x2="1050" y2="761"/>
<line x1="1070" y1="761" x2="1050" y2="761"/>
<line x1="1071" y1="761" x2="1100" y2="761"/>
<line x1="1121" y1="761" x2="1100" y2="761"/>
<line x1="1121" y1="761" x2="1121" y2="761"/>
<line x1="1121" y1="761" x2="1149" y2="761"/>
<line x1="1170" y1="761" x2="1149" y2="761"/>
<line x1="1170" y1="761" x2="1171" y2="761"/>
<line x1="311" y1="761" x2="304" y2="761"/>
<line x1="380" y1="761" x2="435" y2="761"/>
<line x1="508" y1="761" x2="510" y2="761"/>
<line x1="631" y1="761" x2="618" y2="761"/>
<line x1="691" y1="761" x2="733" y2="761"/>
<line x1="805" y1="761" x2="806" y2="761"/>
<line x1="914" y1="761" x2="896" y2="761"/>
<line x1="968" y1="761" x2="1000" y2="761"/>
<line x1="1070" y1="761" x2="1071" y2="761"/>
<line x1="1171" y1="761" x2="1197" y2="761"/>
<line x1="1218" y1="761" x2="1197" y2="761"/>
<line x1="1265" y1="761" x2="1218" y2="761"/>
<line x1="1265" y1="761" x2="1265" y2="761"/>
<line x1="1265" y1="761" x2="1323" y2="761"/>
<line x1="1336" y1="139" x2="1318" y2="139"/>
<line x1="1336" y1="139" x2="1355" y2="139"/>
<line x1="95" y1="139" x2="100" y2="139"/>
<line x1="95" y1="139" x2="95" y2="139"/>
<line x1="93" y1="139" x2="95" y2="139"/>
<line x1="93" y1="139" x2="93" y2="139"/>
<line x1="93" y1="139" x2="92" y2="139"/>
<line x1="40" y1="139" x2="51" y2="139"/>
<line x1="77" y1="139" x2="51" y2="139"/>
<line x1="40" y1="139" x2="40" y2="139"/>
<line x1="40" y1="694" x2="40" y2="139"/>
<line x1="40" y1="694" x2="40" y2="761"/>
<line x1="1360" y1="423" x2="1360" y2="404"/>
<line x1="1360" y1="426" x2="1360" y2="423"/>
<line x1="1360" y1="441" x2="1360" y2="426"/>
<line x1="1360" y1="725" x2="1360" y2="441"/>
<line x1="1360" y1="725" x2="1360" y2="725"/>
<line x1="1360" y1="725" x2="1360" y2="727"/>
<line x1="1360" y1="177" x2="1360" y2="404"/>
<line x1="62" y1="723" x2="62" y2="723"/>
<line x1="62" y1="723" x2="62" y2="723"/>
<line x1="62" y1="723" x2="62" y2="723"/>
<line x1="62" y1="718" x2="62" y2="717"/>
<line x1="62" y1="718" x2="62" y2="723"/>
<line x1="53" y1="702" x2="53" y2="702"/>
<line x1="53" y1="702" x2="50" y2="699"/>
<line x1="60" y1="713" x2="60" y2="712"/>
<line x1="60" y1="713" x2="62" y2="717"/>
<line x1="62" y1="717" x2="62" y2="717"/>
<line x1="62" y1="717" x2="62" y2="717"/>
<line x1="54" y1="704" x2="53" y2="702"/>
<line x1="54" y1="704" x2="54" y2="704"/>
<line x1="54" y1="704" x2="57" y2="707"/>
<line x1="59" y1="711" x2="60" y2="712"/>
<line x1="59" y1="711" x2="57" y2="707"/>
<line x1="50" y1="712" x2="50" y2="723"/>
<line x1="50" y1="712" x2="50" y2="710"/>
<line x1="50" y1="710" x2="50" y2="699"/>
<line x1="1354" y1="715" x2="1353" y2="712"/>
<line x1="1354" y1="715" x2="1354" y2="715"/>
<line x1="1352" y1="710" x2="1351" y2="707"/>
<line x1="1352" y1="710" x2="1353" y2="712"/>
<line x1="1346" y1="701" x2="1344" y2="698"/>
<line x1="1346" y1="701" x2="1348" y2="702"/>
<line x1="1348" y1="702" x2="1348" y2="702"/>
<line x1="1348" y1="702" x2="1349" y2="704"/>
<line x1="1338" y1="693" x2="1340" y2="695"/>
<line x1="1338" y1="693" x2="1338" y2="693"/>
<line x1="1351" y1="707" x2="1349" y2="704"/>
<line x1="1351" y1="707" x2="1351" y2="707"/>
<line x1="1342" y1="697" x2="1344" y2="698"/>
<line x1="1342" y1="697" x2="1340" y2="695"/>
<line x1="1332" y1="691" x2="1335" y2="692"/>
<line x1="1332" y1="691" x2="1329" y2="690"/>
<line x1="1354" y1="715" x2="1354" y2="715"/>
<line x1="1354" y1="715" x2="1354" y2="717"/>
<line x1="1355" y1="723" x2="1355" y2="723"/>
<line x1="1355" y1="723" x2="1355" y2="723"/>
<line x1="1355" y1="721" x2="1354" y2="717"/>
<line x1="1355" y1="721" x2="1355" y2="723"/>
<line x1="1327" y1="689" x2="1329" y2="690"/>
<line x1="1327" y1="689" x2="1323" y2="688"/>
<line x1="1320" y1="688" x2="1323" y2="688"/>
<line x1="1320" y1="688" x2="1318" y2="688"/>
<line x1="1338" y1="693" x2="1338" y2="693"/>
<line x1="1338" y1="693" x2="1335" y2="692"/>
<line x1="1318" y1="688" x2="1318" y2="688"/>
<line x1="1330" y1="741" x2="1330" y2="741"/>
<line x1="1330" y1="741" x2="1329" y2="743"/>
<line x1="1354" y1="727" x2="1354" y2="727"/>
<line x1="1354" y1="727" x2="1351" y2="728"/>
<line x1="1323" y1="759" x2="1323" y2="759"/>
<line x1="1323" y1="759" x2="1323" y2="756"/>
<line x1="1323" y1="759" x2="1323" y2="761"/>
<line x1="1323" y1="759" x2="1323" y2="759"/>
<line x1="1340" y1="732" x2="1338" y2="733"/>
<line x1="1340" y1="732" x2="1340" y2="732"/>
<line x1="1346" y1="729" x2="1346" y2="729"/>
<line x1="1346" y1="729" x2="1343" y2="731"/>
<line x1="1337" y1="735" x2="1338" y2="733"/>
<line x1="1337" y1="735" x2="1334" y2="737"/>
<line x1="1340" y1="732" x2="1340" y2="732"/>
<line x1="1340" y1="732" x2="1343" y2="731"/>
<line x1="1325" y1="751" x2="1325" y2="751"/>
<line x1="1325" y1="751" x2="1324" y2="753"/>
<line x1="1323" y1="756" x2="1323" y2="756"/>
<line x1="1323" y1="756" x2="1324" y2="753"/>
<line x1="1334" y1="737" x2="1334" y2="737"/>
<line x1="1332" y1="739" x2="1334" y2="737"/>
<line x1="1347" y1="729" x2="1349" y2="729"/>
<line x1="1347" y1="729" x2="1346" y2="729"/>
<line x1="1351" y1="728" x2="1349" y2="729"/>
<line x1="1351" y1="728" x2="1351" y2="728"/>
<line x1="1326" y1="749" x2="1325" y2="751"/>
<line x1="1326" y1="749" x2="1326" y2="749"/>
<line x1="1332" y1="739" x2="1330" y2="741"/>
<line x1="1330" y1="741" x2="1330" y2="741"/>
<line x1="1358" y1="727" x2="1358" y2="727"/>
<line x1="1358" y1="727" x2="1354" y2="727"/>
<line x1="1326" y1="749" x2="1326" y2="749"/>
<line x1="1326" y1="749" x2="1327" y2="746"/>
<line x1="1327" y1="746" x2="1327" y2="746"/>
<line x1="1327" y1="746" x2="1329" y2="743"/>
<line x1="1360" y1="727" x2="1358" y2="727"/>
<line x1="1360" y1="727" x2="1360" y2="727"/>
<line x1="56" y1="161" x2="57" y2="164"/>
<line x1="56" y1="161" x2="56" y2="161"/>
<line x1="56" y1="161" x2="56" y2="161"/>
<line x1="58" y1="165" x2="60" y2="167"/>
<line x1="57" y1="164" x2="57" y2="164"/>
<line x1="57" y1="164" x2="58" y2="165"/>
<line x1="61" y1="168" x2="64" y2="170"/>
<line x1="60" y1="168" x2="60" y2="167"/>
<line x1="60" y1="168" x2="61" y2="168"/>
<line x1="65" y1="171" x2="68" y2="173"/>
<line x1="64" y1="171" x2="64" y2="170"/>
<line x1="64" y1="171" x2="65" y2="171"/>
<line x1="69" y1="173" x2="73" y2="174"/>
<line x1="69" y1="173" x2="68" y2="173"/>
<line x1="69" y1="173" x2="69" y2="173"/>
<line x1="74" y1="175" x2="79" y2="176"/>
<line x1="74" y1="175" x2="73" y2="174"/>
<line x1="74" y1="175" x2="74" y2="175"/>
<line x1="80" y1="176" x2="85" y2="176"/>
<line x1="80" y1="176" x2="79" y2="176"/>
<line x1="80" y1="176" x2="80" y2="176"/>
<line x1="87" y1="176" x2="91" y2="176"/>
<line x1="87" y1="176" x2="87" y2="176"/>
<line x1="87" y1="176" x2="87" y2="176"/>
<line x1="87" y1="176" x2="87" y2="176"/>
<line x1="87" y1="176" x2="86" y2="176"/>
<line x1="86" y1="176" x2="85" y2="176"/>
<line x1="86" y1="176" x2="86" y2="176"/>
<line x1="94" y1="175" x2="96" y2="174"/>
<line x1="92" y1="175" x2="94" y2="175"/>
<line x1="92" y1="175" x2="92" y2="175"/>
<line x1="92" y1="175" x2="92" y2="175"/>
<line x1="92" y1="175" x2="92" y2="175"/>
<line x1="91" y1="176" x2="92" y2="175"/>
<line x1="91" y1="176" x2="91" y2="176"/>
<line x1="91" y1="176" x2="91" y2="176"/>
<line x1="97" y1="174" x2="100" y2="173"/>
<line x1="97" y1="174" x2="97" y2="174"/>
<line x1="97" y1="174" x2="97" y2="174"/>
<line x1="96" y1="174" x2="97" y2="174"/>
<line x1="96" y1="174" x2="96" y2="174"/>
<line x1="100" y1="141" x2="100" y2="141"/>
<line x1="97" y1="139" x2="100" y2="141"/>
<line x1="96" y1="139" x2="97" y2="139"/>
<line x1="96" y1="139" x2="96" y2="139"/>
<line x1="100" y1="141" x2="100" y2="141"/>
<line x1="93" y1="139" x2="95" y2="139"/>
<line x1="93" y1="139" x2="93" y2="139"/>
<line x1="93" y1="139" x2="93" y2="139"/>
<line x1="93" y1="139" x2="92" y2="139"/>
<line x1="96" y1="139" x2="96" y2="139"/>
<line x1="96" y1="139" x2="95" y2="139"/>
<line x1="75" y1="139" x2="77" y2="139"/>
<line x1="75" y1="139" x2="73" y2="139"/>
<line x1="72" y1="140" x2="68" y2="141"/>
<line x1="73" y1="139" x2="73" y2="139"/>
<line x1="73" y1="139" x2="72" y2="140"/>
<line x1="67" y1="142" x2="64" y2="143"/>
<line x1="68" y1="141" x2="68" y2="141"/>
<line x1="68" y1="141" x2="67" y2="142"/>
<line x1="63" y1="144" x2="60" y2="146"/>
<line x1="63" y1="144" x2="63" y2="144"/>
<line x1="63" y1="144" x2="64" y2="143"/>
<line x1="59" y1="147" x2="57" y2="150"/>
<line x1="60" y1="147" x2="59" y2="147"/>
<line x1="60" y1="146" x2="60" y2="147"/>
<line x1="57" y1="150" x2="56" y2="153"/>
<line x1="57" y1="150" x2="57" y2="150"/>
<line x1="57" y1="150" x2="57" y2="150"/>
<line x1="57" y1="150" x2="57" y2="150"/>
<line x1="55" y1="154" x2="55" y2="157"/>
<line x1="55" y1="154" x2="55" y2="154"/>
<line x1="55" y1="153" x2="55" y2="154"/>
<line x1="55" y1="153" x2="56" y2="153"/>
<line x1="56" y1="161" x2="56" y2="161"/>
<line x1="56" y1="161" x2="55" y2="158"/>
<line x1="55" y1="157" x2="55" y2="158"/>
<line x1="55" y1="157" x2="55" y2="157"/>
<line x1="1341" y1="165" x2="1340" y2="163"/>
<line x1="1341" y1="165" x2="1341" y2="165"/>
<line x1="1341" y1="165" x2="1341" y2="165"/>
<line x1="1358" y1="177" x2="1360" y2="177"/>
<line x1="1358" y1="177" x2="1356" y2="176"/>
<line x1="1340" y1="158" x2="1340" y2="158"/>
<line x1="1340" y1="160" x2="1340" y2="158"/>
<line x1="1340" y1="160" x2="1340" y2="160"/>
<line x1="1350" y1="174" x2="1352" y2="175"/>
<line x1="1350" y1="174" x2="1349" y2="174"/>
<line x1="1340" y1="153" x2="1340" y2="153"/>
<line x1="1340" y1="153" x2="1340" y2="153"/>
<line x1="1340" y1="153" x2="1340" y2="155"/>
<line x1="1341" y1="165" x2="1341" y2="165"/>
<line x1="1342" y1="167" x2="1341" y2="165"/>
<line x1="1342" y1="167" x2="1342" y2="167"/>
<line x1="1340" y1="152" x2="1340" y2="152"/>
<line x1="1340" y1="152" x2="1340" y2="153"/>
<line x1="1340" y1="152" x2="1340" y2="152"/>
<line x1="1340" y1="163" x2="1340" y2="161"/>
<line x1="1340" y1="163" x2="1340" y2="163"/>
<line x1="1340" y1="163" x2="1340" y2="163"/>
<line x1="1340" y1="163" x2="1340" y2="163"/>
<line x1="1340" y1="161" x2="1340" y2="160"/>
<line x1="1340" y1="161" x2="1340" y2="161"/>
<line x1="1340" y1="161" x2="1340" y2="161"/>
<line x1="1340" y1="161" x2="1340" y2="161"/>
<line x1="1344" y1="170" x2="1344" y2="169"/>
<line x1="1344" y1="170" x2="1345" y2="171"/>
<line x1="1345" y1="171" x2="1346" y2="171"/>
<line x1="1343" y1="168" x2="1342" y2="167"/>
<line x1="1343" y1="168" x2="1343" y2="168"/>
<line x1="1343" y1="168" x2="1343" y2="168"/>
<line x1="1343" y1="168" x2="1343" y2="168"/>
<line x1="1347" y1="173" x2="1349" y2="174"/>
<line x1="1347" y1="173" x2="1346" y2="171"/>
<line x1="1354" y1="176" x2="1356" y2="176"/>
<line x1="1354" y1="176" x2="1352" y2="175"/>
<line x1="1344" y1="169" x2="1343" y2="168"/>
<line x1="1344" y1="169" x2="1344" y2="169"/>
<line x1="1344" y1="169" x2="1344" y2="169"/>
<line x1="1344" y1="169" x2="1344" y2="169"/>
<line x1="1354" y1="139" x2="1355" y2="139"/>
<line x1="1354" y1="139" x2="1352" y2="139"/>
<line x1="1351" y1="140" x2="1352" y2="139"/>
<line x1="1351" y1="140" x2="1349" y2="141"/>
<line x1="1343" y1="146" x2="1343" y2="146"/>
<line x1="1343" y1="147" x2="1343" y2="146"/>
<line x1="1343" y1="147" x2="1342" y2="148"/>
<line x1="1344" y1="145" x2="1344" y2="145"/>
<line x1="1344" y1="145" x2="1343" y2="146"/>
<line x1="1344" y1="145" x2="1344" y2="145"/>
<line x1="1347" y1="142" x2="1349" y2="141"/>
<line x1="1347" y1="142" x2="1346" y2="143"/>
<line x1="1340" y1="152" x2="1340" y2="152"/>
<line x1="1341" y1="150" x2="1341" y2="150"/>
<line x1="1341" y1="150" x2="1341" y2="150"/>
<line x1="1340" y1="152" x2="1341" y2="150"/>
<line x1="1340" y1="155" x2="1340" y2="155"/>
<line x1="1340" y1="157" x2="1340" y2="157"/>
<line x1="1340" y1="157" x2="1340" y2="155"/>
<line x1="1344" y1="145" x2="1344" y2="145"/>
<line x1="1345" y1="144" x2="1346" y2="143"/>
<line x1="1345" y1="144" x2="1345" y2="144"/>
<line x1="1344" y1="145" x2="1345" y2="144"/>
<line x1="1342" y1="148" x2="1342" y2="148"/>
<line x1="1341" y1="150" x2="1341" y2="150"/>
<line x1="1341" y1="150" x2="1342" y2="148"/>
<line x1="1340" y1="157" x2="1340" y2="158"/>
<line x1="1340" y1="157" x2="1340" y2="157"/>
<line x1="1340" y1="158" x2="1340" y2="158"/>
<line x1="1340" y1="157" x2="1340" y2="157"/>
</g></svg>