<?xml version="1.0" standalone="no"?>
<!DOCTYPE svg PUBLIC "-//W3C//DTD SVG 1.1//EN" "http://www.w3.org/Graphics/SVG/1.1/DTD/svg11.dtd">
<svg width="446mm" height="483mm" viewBox="-298 -411 446 483" xmlns="http://www.w3.org/2000/svg" version="1.1">
<title>OpenSCAD Model</title>
<path d="
M -70.946,71.9211 L -69.2528,71.8859 L -67.1949,71.6845 L -65.1667,71.3104 L -63.5417,70.8783 L -63.4872,70.8534
 L -62.8003,70.5333 L -62.0246,70.245 L -61.2255,70.0153 L -61.0311,69.975 L -60.4203,69.8457 L -60.3958,69.8353
 L -59.7232,69.5193 L -57.9512,68.5717 L -56.2968,67.4586 L -54.7781,66.1922 L -53.4119,64.7864 L -52.2131,63.2567
 L -51.195,61.6198 L -50.3687,59.8939 L -49.7433,58.0979 L -49.7283,39.7023 L -49.7181,32.2363 L -47.828,32.021
 L -43.9823,31.5147 L -40.1459,30.9413 L -36.3202,30.3011 L -32.5062,29.5942 L -28.7051,28.8209 L -24.9181,27.9813
 L -21.1463,27.0758 L -17.391,26.1046 L -13.6531,25.068 L -9.93388,23.9663 L -6.23447,22.7999 L -2.55597,21.5691
 L 1.10046,20.2743 L 4.73376,18.9158 L 8.3428,17.4942 L 11.9265,16.0098 L 15.4837,14.4631 L 19.0134,12.8545
 L 22.5145,11.1846 L 25.9859,9.4538 L 29.4265,7.66269 L 32.8354,5.81183 L 35.3473,4.39069 L 37.2023,3.97495
 L 37.5061,3.8905 L 37.799,3.77596 L 38.0778,3.63255 L 38.3395,3.46187 L 38.5812,3.26578 L 38.8002,3.04645
 L 38.9942,2.80627 L 39.1609,2.54788 L 39.2986,2.27414 L 39.3903,2.0293 L 39.5537,1.93303 L 42.8611,-0.0937042
 L 46.1325,-2.17786 L 49.3671,-4.31879 L 52.5639,-6.51585 L 55.7218,-8.76837 L 58.8399,-11.0757 L 61.9173,-13.437
 L 64.9529,-15.8517 L 67.946,-18.319 L 70.8956,-20.8382 L 73.8008,-23.4085 L 76.6606,-26.029 L 79.4743,-28.6991
 L 82.241,-31.4179 L 84.9598,-34.1846 L 87.6299,-36.9983 L 90.2504,-39.8581 L 92.8207,-42.7633 L 95.3399,-45.7128
 L 97.8072,-48.7059 L 100.222,-51.7416 L 102.583,-54.819 L 104.891,-57.9371 L 107.143,-61.095 L 109.34,-64.2918
 L 111.481,-67.5264 L 113.565,-70.7978 L 115.592,-74.1052 L 117.561,-77.4474 L 119.471,-80.8235 L 121.322,-84.2323
 L 123.113,-87.673 L 124.843,-91.1444 L 126.513,-94.6455 L 128.122,-98.1752 L 129.669,-101.732 L 131.153,-105.316
 L 132.575,-108.925 L 133.933,-112.558 L 135.228,-116.215 L 136.459,-119.893 L 137.625,-123.593 L 138.727,-127.312
 L 139.764,-131.05 L 140.735,-134.805 L 141.64,-138.577 L 142.48,-142.364 L 143.253,-146.165 L 143.96,-149.979
 L 144.6,-153.805 L 145.174,-157.641 L 145.68,-161.487 L 146.119,-165.341 L 146.491,-169.202 L 146.795,-173.069
 L 147.032,-176.941 L 147.201,-180.816 L 147.303,-184.694 L 147.336,-188.572 L 147.303,-192.451 L 147.201,-196.329
 L 147.032,-200.204 L 146.795,-204.076 L 146.491,-207.943 L 146.119,-211.804 L 145.68,-215.658 L 145.174,-219.504
 L 144.6,-223.34 L 143.96,-227.166 L 143.253,-230.98 L 142.48,-234.781 L 141.64,-238.568 L 140.735,-242.34
 L 139.764,-246.095 L 138.727,-249.833 L 137.625,-253.552 L 136.459,-257.251 L 135.228,-260.93 L 133.933,-264.586
 L 132.575,-268.22 L 131.153,-271.829 L 129.669,-275.412 L 128.122,-278.97 L 126.513,-282.499 L 124.843,-286
 L 123.113,-289.472 L 121.322,-292.912 L 119.471,-296.321 L 117.561,-299.697 L 115.592,-303.04 L 113.565,-306.347
 L 111.481,-309.618 L 109.34,-312.853 L 107.143,-316.05 L 104.891,-319.208 L 102.583,-322.326 L 100.222,-325.403
 L 97.8072,-328.439 L 95.3399,-331.432 L 92.8207,-334.382 L 90.2504,-337.287 L 87.6299,-340.147 L 84.9598,-342.96
 L 82.241,-345.727 L 79.4743,-348.446 L 76.6606,-351.116 L 73.8008,-353.736 L 70.8956,-356.307 L 67.946,-358.826
 L 64.9529,-361.293 L 61.9173,-363.708 L 58.8399,-366.069 L 55.7218,-368.376 L 52.5639,-370.629 L 49.3671,-372.826
 L 46.1325,-374.967 L 42.8611,-377.051 L 39.5537,-379.078 L 36.2115,-381.047 L 32.8354,-382.957 L 29.4265,-384.807
 L 25.9859,-386.599 L 22.5145,-388.329 L 19.0134,-389.999 L 15.4837,-391.608 L 11.9265,-393.155 L 8.3428,-394.639
 L 4.73376,-396.061 L 1.10046,-397.419 L -2.55597,-398.714 L -6.23447,-399.945 L -9.93388,-401.111 L -13.6531,-402.213
 L -17.391,-403.249 L -21.1463,-404.221 L -24.9181,-405.126 L -28.7051,-405.966 L -32.5062,-406.739 L -36.3202,-407.446
 L -40.1459,-408.086 L -43.9823,-408.659 L -47.828,-409.166 L -51.682,-409.605 L -55.5431,-409.977 L -59.4101,-410.281
 L -63.2818,-410.518 L -67.1571,-410.687 L -71.0347,-410.789 L -74.9135,-410.822 L -78.7923,-410.789 L -82.6699,-410.687
 L -86.5452,-410.518 L -90.4169,-410.281 L -94.2839,-409.977 L -98.1449,-409.605 L -101.999,-409.166 L -105.845,-408.659
 L -109.681,-408.086 L -113.507,-407.446 L -117.321,-406.739 L -121.122,-405.966 L -124.909,-405.126 L -128.681,-404.221
 L -132.436,-403.249 L -136.174,-402.213 L -139.893,-401.111 L -143.593,-399.945 L -147.271,-398.714 L -150.927,-397.419
 L -154.561,-396.061 L -158.17,-394.639 L -161.753,-393.155 L -165.311,-391.608 L -168.84,-389.999 L -172.341,-388.329
 L -175.813,-386.599 L -179.254,-384.807 L -182.662,-382.957 L -186.038,-381.047 L -189.381,-379.078 L -192.688,-377.051
 L -195.96,-374.967 L -199.194,-372.826 L -202.391,-370.629 L -205.549,-368.376 L -208.667,-366.069 L -211.744,-363.708
 L -214.78,-361.293 L -217.773,-358.826 L -220.723,-356.307 L -223.628,-353.736 L -226.488,-351.116 L -229.301,-348.446
 L -232.068,-345.727 L -234.787,-342.96 L -237.457,-340.147 L -240.077,-337.287 L -242.648,-334.382 L -245.167,-331.432
 L -247.634,-328.439 L -250.049,-325.403 L -252.41,-322.326 L -254.718,-319.208 L -256.97,-316.05 L -259.167,-312.853
 L -261.308,-309.618 L -263.392,-306.347 L -265.419,-303.04 L -267.388,-299.697 L -269.298,-296.321 L -271.149,-292.912
 L -272.94,-289.472 L -274.67,-286 L -276.34,-282.499 L -277.949,-278.97 L -279.496,-275.412 L -280.98,-271.829
 L -282.402,-268.22 L -283.76,-264.586 L -285.055,-260.93 L -286.286,-257.251 L -287.452,-253.552 L -288.554,-249.833
 L -289.59,-246.095 L -290.562,-242.34 L -291.467,-238.568 L -292.307,-234.781 L -293.08,-230.98 L -293.787,-227.166
 L -294.427,-223.34 L -295.001,-219.504 L -295.507,-215.658 L -295.946,-211.804 L -296.318,-207.943 L -296.622,-204.076
 L -296.859,-200.204 L -297.028,-196.329 L -297.13,-192.451 L -297.163,-188.572 L -297.13,-184.694 L -297.028,-180.816
 L -296.859,-176.941 L -296.622,-173.069 L -296.318,-169.202 L -295.946,-165.341 L -295.507,-161.487 L -295.001,-157.641
 L -294.427,-153.805 L -293.787,-149.979 L -293.08,-146.165 L -292.307,-142.364 L -291.467,-138.577 L -290.562,-134.805
 L -289.59,-131.05 L -288.554,-127.312 L -287.452,-123.593 L -286.286,-119.893 L -285.055,-116.215 L -283.76,-112.558
 L -282.402,-108.925 L -280.98,-105.316 L -279.496,-101.732 L -277.949,-98.1752 L -276.34,-94.6455 L -274.67,-91.1444
 L -272.94,-87.673 L -271.149,-84.2323 L -269.298,-80.8235 L -267.388,-77.4474 L -265.419,-74.1052 L -263.392,-70.7978
 L -261.308,-67.5264 L -259.167,-64.2918 L -256.97,-61.095 L -254.718,-57.9371 L -252.41,-54.819 L -250.049,-51.7416
 L -247.634,-48.7059 L -245.167,-45.7128 L -242.648,-42.7633 L -240.077,-39.8581 L -237.457,-36.9983 L -234.787,-34.1846
 L -232.068,-31.4179 L -229.301,-28.6991 L -226.488,-26.029 L -223.628,-23.4085 L -220.723,-20.8382 L -217.773,-18.319
 L -214.78,-15.8517 L -211.744,-13.437 L -208.667,-11.0757 L -205.549,-8.76837 L -202.391,-6.51585 L -199.194,-4.31879
 L -195.96,-2.17786 L -192.688,-0.0937042 L -189.381,1.93303 L -186.038,3.90173 L -182.662,5.81183 L -179.254,7.66269
 L -175.813,9.4538 L -172.341,11.1846 L -168.84,12.8545 L -165.311,14.4631 L -161.753,16.0098 L -158.17,17.4942
 L -154.561,18.9158 L -150.927,20.2743 L -147.271,21.5691 L -143.593,22.7999 L -139.893,23.9663 L -136.174,25.068
 L -132.436,26.1046 L -128.681,27.0758 L -124.909,27.9813 L -121.122,28.8209 L -117.321,29.5942 L -113.507,30.3011
 L -109.681,30.9413 L -105.845,31.5147 L -101.999,32.021 L -98.1449,32.4601 L -94.2839,32.8319 L -90.4169,33.1362
 L -86.5452,33.373 L -82.6699,33.5422 L -78.7923,33.6437 L -77.3979,33.6559 L -77.3862,33.6766 L -77.3009,33.7951
 L -77.2024,33.9048 L -77.0918,34.0047 L -76.9701,34.0935 L -76.8389,34.1704 L -76.6994,34.2345 L -76.5533,34.2852
 L -76.4021,34.3217 L -76.2476,34.3438 L -76.0913,34.3512 L -75.5493,34.3512 L -75.394,34.3438 L -75.2403,34.3217
 L -75.09,34.2852 L -74.9448,34.2345 L -74.8062,34.1704 L -74.6757,34.0935 L -74.5548,34.0047 L -74.4448,33.9048
 L -74.3469,33.7951 L -74.2622,33.6766 L -74.2595,33.6719 L -71.0347,33.6437 L -67.1571,33.5422 L -63.2818,33.373
 L -59.4101,33.1362 L -55.5431,32.8319 L -53.176,32.6039 L -53.176,51.1967 L -53.5053,52.9714 L -54.0343,54.7051
 L -54.7573,56.3792 L -55.6664,57.9754 L -56.7517,59.4764 L -58.0015,60.866 L -59.4024,62.1292 L -60.939,63.2523
 L -62.5948,64.2231 L -64.3519,65.0311 L -66.1911,65.6674 L -68.0927,66.1254 L -70.0359,66.4 L -71.9998,66.4881
 L -72.0321,66.5018 L -72.2992,66.6131 L -72.583,66.7657 L -72.8474,66.9442 L -73.0893,67.1467 L -73.3062,67.3709
 L -73.4956,67.6143 L -73.6553,67.8743 L -73.7838,68.1479 L -73.8794,68.432 L -73.9411,68.7236 L -73.9684,69.0195
 L -73.9621,69.0298 L -74.0124,69.0803 L -74.0118,69.1629 L -73.9867,69.4649 L -73.926,69.7627 L -73.8304,70.0529
 L -73.7009,70.3321 L -73.539,70.5971 L -73.3466,70.8449 L -73.126,71.0726 L -72.8797,71.2775 L -72.6105,71.4573
 L -72.3215,71.61 L -72.0161,71.7337 L -71.6978,71.827 L -71.3703,71.8889 L -71.0373,71.9186 z
" stroke="black" fill="lightgray" stroke-width="0.5"/>
</svg>
