<?xml version="1.0" standalone="no"?>
<!DOCTYPE svg PUBLIC "-//W3C//DTD SVG 1.1//EN" "http://www.w3.org/Graphics/SVG/1.1/DTD/svg11.dtd">
<svg width="33mm" height="59mm" viewBox="-9 -59 33 59" xmlns="http://www.w3.org/2000/svg" version="1.1">
<title>OpenSCAD Model</title>
<path d="
M 5.73299,-0.0349884 L 7.59499,-0.237 L 9.431,-0.610992 L 10.901,-1.043 L 12.693,-1.62999 L 14.414,-2.40199
 L 16.045,-3.349 L 17.567,-4.46199 L 18.964,-5.728 L 20.221,-7.13399 L 21.324,-8.66399 L 22.261,-10.301
 L 23.021,-12.027 L 23.5,-13.523 L 19,-58.921 L 5.96399,-58.921 L 3.47699,-58.34 L 1.99699,-57.959
 L 0.564987,-57.427 L -0.804993,-56.749 L -2.09599,-55.933 L -3.297,-54.987 L -4.392,-53.922 L -5.37099,-52.749
 L -6.22299,-51.481 L -6.939,-50.131 L -7.51099,-48.714 L -7.933,-47.245 L -8.06699,-46.016 L -8.077,-44.779
 L -7.96199,-43.547 L -7.724,-42.333 L -7.36499,-41.149 L -6.88899,-40.008 L -6.30099,-38.92 L -6.293,-38.779
 L -4.48499,-35.093 L -1.534,-29.083 L -0.956985,-27.874 L -0.515991,-26.884 L -0.194992,-26.004 L 0,-25.097
 L 4.5,-0 z
" stroke="black" fill="lightgray" stroke-width="0.5"/>
</svg>
