<?xml version="1.0" standalone="no"?>
<!DOCTYPE svg PUBLIC "-//W3C//DTD SVG 1.1//EN" "http://www.w3.org/Graphics/SVG/1.1/DTD/svg11.dtd">
<svg width="61mm" height="74mm" viewBox="-59 -2 61 74" xmlns="http://www.w3.org/2000/svg" version="1.1">
<title>OpenSCAD Model</title>
<path d="
M 0.261047,1.98288 L 0.517624,1.93184 L 0.765366,1.84775 L 1,1.73204 L 1.21751,1.5867 L 1.4142,1.4142
 L 1.5867,1.21751 L 1.73204,1 L 1.84775,0.765366 L 1.93184,0.517624 L 1.98288,0.261047 L 2,-0
 L 1.98288,-0.261047 L 1.93184,-0.517624 L 1.84775,-0.765366 L 1.73204,-1 L 1.5867,-1.21751 L 1.4142,-1.4142
 L 1.21751,-1.5867 L 1,-1.73204 L 0.765366,-1.84775 L 0.517624,-1.93184 L 0.261047,-1.98288 L 0,-2
 L -0.261047,-1.98288 L -0.517624,-1.93184 L -0.765366,-1.84775 L -1,-1.73204 L -1.21751,-1.5867 L -1.4142,-1.4142
 L -1.5867,-1.21751 L -1.73204,-1 L -1.84775,-0.765366 L -1.93184,-0.517624 L -1.98288,-0.261047 L -2,-0
 L -1.98288,0.261047 L -1.93184,0.517624 L -1.84775,0.765366 L -1.73204,1 L -1.5867,1.21751 L -1.4142,1.4142
 L -1.21751,1.5867 L -1,1.73204 L -0.765366,1.84775 L -0.517624,1.93184 L -0.261047,1.98288 L 0,2
 z
M -48.7695,71.8859 L -46.9071,71.6844 L -45.0715,71.3104 L -43.6008,70.8783 L -41.8085,70.291 L -40.0877,69.5193
 L -38.457,68.5717 L -36.9346,67.4586 L -35.5371,66.1921 L -34.2798,64.7863 L -33.1767,63.2567 L -32.2398,61.6198
 L -31.4794,59.8939 L -31,58.3977 L -31,13 L -44.0363,13 L -46.5234,13.5814 L -48.0032,13.9623
 L -49.4355,14.4946 L -50.8048,15.1725 L -52.0965,15.9889 L -53.2965,16.9348 L -54.392,18 L -55.371,19.1732
 L -56.2231,20.4415 L -56.9391,21.7914 L -57.5112,23.2082 L -57.9333,24.6768 L -58.0673,25.9064 L -58.077,27.1433
 L -57.9623,28.3749 L -57.7242,29.5888 L -57.3654,30.7725 L -56.8893,31.9141 L -56.3008,33.0021 L -56.2934,33.1431
 L -56.2713,33.2826 L -56.2347,33.419 L -56.1841,33.5508 L -56.12,33.6766 L -56.0431,33.7951 L -55.9543,33.9048
 L -55.8544,34.0047 L -55.7447,34.0935 L -55.6262,34.1704 L -55.5004,34.2345 L -55.3686,34.2852 L -55.2322,34.3217
 L -55.0927,34.3438 L -54.9517,34.3512 L -54.4748,34.3512 L -54.3338,34.3438 L -54.1944,34.3217 L -54.058,34.2851
 L -53.9261,34.2345 L -53.8003,34.1704 L -53.6819,34.0935 L -53.5721,34.0047 L -53.4723,33.9048 L -53.3834,33.7951
 L -53.3065,33.6766 L -53.2424,33.5508 L -53.1918,33.419 L -53.1553,33.2826 L -53.1332,33.1431 L -53.1258,33.0021
 L -53.1258,28.0012 L -53.0699,26.9713 L -52.9031,25.9536 L -52.6272,24.9598 L -52.2454,24.0017 L -51.7623,23.0905
 L -51.1836,22.2369 L -50.5159,21.4509 L -49.7671,20.7416 L -48.9461,20.1174 L -48.0624,19.5857 L -47.1263,19.1527
 L -46.149,18.8234 L -45.1417,18.6017 L -44.1164,18.4901 L -43.0851,18.4901 L -42.0598,18.6017 L -41.0526,18.8234
 L -40.0752,19.1527 L -39.1392,19.5857 L -38.2555,20.1174 L -37.4344,20.7416 L -36.6857,21.4509 L -36.018,22.2369
 L -35.4392,23.0905 L -34.9561,24.0017 L -34.5744,24.9598 L -34.2985,25.9536 L -34.1316,26.9713 L -34.0758,28.0012
 L -34.0758,51.1967 L -34.3773,52.9714 L -34.8616,54.7051 L -35.5235,56.3792 L -36.3558,57.9754 L -37.3494,59.4764
 L -38.4937,60.866 L -39.7762,62.1292 L -41.183,63.2523 L -42.699,64.2231 L -44.3076,65.0311 L -45.9915,65.6674
 L -47.7324,66.1254 L -49.5115,66.4 L -51.3095,66.4881 L -51.5787,66.6131 L -51.8333,66.7657 L -52.0704,66.9442
 L -52.2875,67.1467 L -52.482,67.3709 L -52.6519,67.6143 L -52.7952,67.8743 L -52.9104,68.1479 L -52.9962,68.432
 L -53.0517,68.7236 L -53.0761,69.0195 L -53.0772,69.0803 L -53.0767,69.1629 L -53.054,69.4649 L -52.9991,69.7627
 L -52.9125,70.0529 L -52.7953,70.3321 L -52.6488,70.5971 L -52.4747,70.8449 L -52.2751,71.0726 L -52.0521,71.2775
 L -51.8085,71.4573 L -51.5469,71.61 L -51.2705,71.7337 L -50.9824,71.827 L -50.686,71.8889 L -50.3846,71.9186
 L -50.302,71.9211 z
" stroke="black" fill="lightgray" stroke-width="0.5"/>
</svg>
