<?xml version="1.0" standalone="no"?>
<!DOCTYPE svg PUBLIC "-//W3C//DTD SVG 1.1//EN" "http://www.w3.org/Graphics/SVG/1.1/DTD/svg11.dtd">
<svg width="28mm" height="58mm" viewBox="-15 -31 28 58" xmlns="http://www.w3.org/2000/svg" version="1.1">
<title>OpenSCAD Model</title>
<path d="
M -6.58075,26.1039 L -4.5229,25.9025 L -2.49474,25.5284 L -0.86972,25.0962 L -0.81517,25.0714 L -0.128281,24.7513
 L 0.647369,24.463 L 1.44653,24.2333 L 1.64093,24.193 L 2.25172,24.0637 L 2.27618,24.0533 L 2.94879,23.7373
 L 4.72078,22.7897 L 6.3752,21.6766 L 7.89388,20.4101 L 9.26012,19.0043 L 10.4589,17.4746 L 11.477,15.8378
 L 12.3033,14.1119 L 12.9287,12.3159 L 12.9437,-6.07974 L 12.9597,-17.7808 L 12.9593,-17.8754 L 12.9658,-18.2155
 L 12.9626,-18.51 L 12.972,-18.5674 L 12.972,-30.482 L -1.306,-30.482 L -4.76517,-29.9824 L -6.18788,-29.5341
 L -7.54929,-28.9501 L -8.83368,-28.2373 L -10.0262,-27.4038 L -11.1132,-26.4592 L -12.082,-25.4145 L -12.9214,-24.2818
 L -13.6219,-23.0739 L -14.1753,-21.8051 L -14.5752,-20.4897 L -14.817,-19.1431 L -14.8979,-17.7808 L -14.8872,-16.0054
 L -14.9145,-12.7799 L -14.9063,-12.6389 L -14.8818,-12.4994 L -14.8413,-12.363 L -14.7852,-12.2312 L -14.7142,-12.1054
 L -14.6289,-11.9869 L -14.5304,-11.8772 L -14.4198,-11.7773 L -14.2981,-11.6885 L -14.1669,-11.6116 L -14.0274,-11.5475
 L -13.8813,-11.4969 L -13.7301,-11.4603 L -13.5756,-11.4382 L -13.4193,-11.4308 L -12.8773,-11.4308 L -12.722,-11.4382
 L -12.5683,-11.4603 L -12.418,-11.4969 L -12.2728,-11.5475 L -12.1342,-11.6116 L -12.0037,-11.6885 L -11.8828,-11.7773
 L -11.7728,-11.8772 L -11.6749,-11.9869 L -11.5902,-12.1054 L -11.5195,-12.2312 L -11.4638,-12.363 L -11.4235,-12.4994
 L -11.3992,-12.6389 L -11.391,-12.7799 L -11.3408,-16.8319 L -11.3518,-17.7808 L -11.2895,-18.8107 L -11.1035,-19.8284
 L -10.796,-20.8222 L -10.3704,-21.7803 L -9.83191,-22.6915 L -9.36003,-23.3158 L -9.19022,-23.5451 L -8.46094,-24.3311
 L -7.64311,-25.0404 L -6.74631,-25.6646 L -5.78105,-26.1963 L -4.75867,-26.6293 L -3.69115,-26.9586 L -2.59097,-27.1803
 L -1.47107,-27.2919 L -0.344559,-27.2919 L 0.775314,-27.1803 L 1.87547,-26.9586 L 2.94302,-26.6293 L 3.96541,-26.1963
 L 4.93066,-25.6646 L 5.82745,-25.0404 L 6.64529,-24.3311 L 7.37457,-23.5451 L 8.00674,-22.6915 L 8.53442,-21.7803
 L 8.95137,-20.8222 L 9.25275,-19.8284 L 9.435,-18.8107 L 9.49599,-17.7808 L 9.49599,5.41463 L 9.16666,7.18935
 L 8.63766,8.92311 L 7.91472,10.5972 L 7.00565,12.1933 L 5.92032,13.6944 L 4.67046,15.084 L 3.26962,16.3472
 L 1.73297,17.4703 L 0.0771484,18.4411 L -1.67987,19.249 L -3.51912,19.8854 L -5.42065,20.3434 L -7.36389,20.6179
 L -9.32776,20.7061 L -9.36005,20.7198 L -9.62721,20.8311 L -9.91103,20.9837 L -10.1754,21.1622 L -10.4173,21.3647
 L -10.6342,21.5889 L -10.8235,21.8323 L -10.9833,22.0923 L -11.1117,22.3658 L -11.2074,22.65 L -11.2691,22.9416
 L -11.2964,23.2374 L -11.2901,23.2478 L -11.3403,23.2982 L -11.3398,23.3809 L -11.3147,23.6829 L -11.254,23.9807
 L -11.1584,24.2709 L -11.0288,24.5501 L -10.867,24.8151 L -10.6746,25.0629 L -10.454,25.2906 L -10.2077,25.4955
 L -9.93846,25.6753 L -9.64949,25.828 L -9.34409,25.9517 L -9.02577,26.045 L -8.69826,26.1069 L -8.36526,26.1366
 L -8.27402,26.1391 z
M 0.261047,1.98288 L 0.517624,1.93184 L 0.765366,1.84775 L 1,1.73204 L 1.21751,1.5867 L 1.4142,1.4142
 L 1.5867,1.21751 L 1.73204,1 L 1.84775,0.765366 L 1.93184,0.517624 L 1.98288,0.261047 L 2,-0
 L 1.98288,-0.261047 L 1.93184,-0.517624 L 1.84775,-0.765366 L 1.73204,-1 L 1.5867,-1.21751 L 1.4142,-1.4142
 L 1.21751,-1.5867 L 1,-1.73204 L 0.765366,-1.84775 L 0.517624,-1.93184 L 0.261047,-1.98288 L 0,-2
 L -0.261047,-1.98288 L -0.517624,-1.93184 L -0.765366,-1.84775 L -1,-1.73204 L -1.21751,-1.5867 L -1.4142,-1.4142
 L -1.5867,-1.21751 L -1.73204,-1 L -1.84775,-0.765366 L -1.93184,-0.517624 L -1.98288,-0.261047 L -2,-0
 L -1.98288,0.261047 L -1.93184,0.517624 L -1.84775,0.765366 L -1.73204,1 L -1.5867,1.21751 L -1.4142,1.4142
 L -1.21751,1.5867 L -1,1.73204 L -0.765366,1.84775 L -0.517624,1.93184 L -0.261047,1.98288 L 0,2
 z
" stroke="black" fill="lightgray" stroke-width="0.5"/>
</svg>
