<?xml version="1.0" standalone="no"?>
<!DOCTYPE svg PUBLIC "-//W3C//DTD SVG 1.1//EN" "http://www.w3.org/Graphics/SVG/1.1/DTD/svg11.dtd">
<svg width="61mm" height="74mm" viewBox="-59 -2 61 74" xmlns="http://www.w3.org/2000/svg" version="1.1">
<title>OpenSCAD Model</title>
<path d="
M 0.261047,1.98288 L 0.517624,1.93184 L 0.765366,1.84775 L 1,1.73204 L 1.21751,1.5867 L 1.4142,1.4142
 L 1.5867,1.21751 L 1.73204,1 L 1.84775,0.765366 L 1.93184,0.517624 L 1.98288,0.261047 L 2,-0
 L 1.98288,-0.261047 L 1.93184,-0.517624 L 1.84775,-0.765366 L 1.73204,-1 L 1.5867,-1.21751 L 1.4142,-1.4142
 L 1.21751,-1.5867 L 1,-1.73204 L 0.765366,-1.84775 L 0.517624,-1.93184 L 0.261047,-1.98288 L 0,-2
 L -0.261047,-1.98288 L -0.517624,-1.93184 L -0.765366,-1.84775 L -1,-1.73204 L -1.21751,-1.5867 L -1.4142,-1.4142
 L -1.5867,-1.21751 L -1.73204,-1 L -1.84775,-0.765366 L -1.93184,-0.517624 L -1.98288,-0.261047 L -2,-0
 L -1.98288,0.261047 L -1.93184,0.517624 L -1.84775,0.765366 L -1.73204,1 L -1.5867,1.21751 L -1.4142,1.4142
 L -1.21751,1.5867 L -1,1.73204 L -0.765366,1.84775 L -0.517624,1.93184 L -0.261047,1.98288 L 0,2
 z
M -48.5772,71.8651 L -48.5532,69.4265 L -48.4816,69.7863 L -48.3637,70.1337 L -48.2014,70.4628 L -47.9976,70.7678 L -47.7557,71.0436 L -47.4799,71.2855 L -47.1749,71.4893 L -46.8458,71.6516 L -46.4984,71.7695 L -46.1386,71.8411 L -45.7725,71.8651 L -45.4065,71.8411 L -45.0467,71.7695 L -44.6993,71.6516 L -44.3702,71.4893 L -44.0652,71.2855 L -43.7894,71.0436 L -43.5475,70.7678 L -43.3437,70.4628 L -43.1814,70.1337 L -43.0635,69.7863 L -42.9919,69.4265 L -48.5772,71.8651 L -49.5115,66.4000 L -51.3095,66.4881 L -51.5787,66.6131 L -51.8333,66.7657 L -52.0704,66.9442 L -52.2875,67.1467 L -52.4820,67.3709 L -52.6519,67.6143 L -52.7952,67.8743 L -52.9104,68.1479 L -52.9962,68.4320 L -53.0517,68.7236 L -53.0761,69.0195 L -53.0772,69.0803 L -53.0767,69.1629 L -53.0540,69.4649 L -52.9991,69.7627 L -52.9125,70.0529 L -52.7953,70.3321 L -52.6488,70.5971 L -52.4747,70.8449 L -52.2751,71.0726 L -52.0521,71.2775 L -51.8085,71.4573 L -51.5469,71.6100 L -51.2705,71.7337 L -50.9824,71.8270 L -50.6860,71.8889 L -50.3846,71.9186 L -50.3020,71.9211
" stroke="black" fill="lightgray" stroke-width="0.5"/>

<g id='trim-box'>
  <rect x='-53.0772' y='62.0' width='4.5000' height='12.0' fill='red' opacity='0.12'/>
  <line x1='-48.5772' y1='62.0' x2='-48.5772' y2='74.0' stroke='red' stroke-width='0.4'/>
</g>
</svg>
