<?xml version="1.0" standalone="no"?>
<!DOCTYPE svg PUBLIC "-//W3C//DTD SVG 1.1//EN" "http://www.w3.org/Graphics/SVG/1.1/DTD/svg11.dtd">
<svg width="80mm" height="74mm" viewBox="-78 -2 80 74" xmlns="http://www.w3.org/2000/svg" version="1.1">
<title>OpenSCAD Model</title>
<path d="
M 0.261047,1.98288 L 0.517624,1.93184 L 0.765366,1.84775 L 1,1.73204 L 1.21751,1.5867 L 1.4142,1.4142
 L 1.5867,1.21751 L 1.73204,1 L 1.84775,0.765366 L 1.93184,0.517624 L 1.98288,0.261047 L 2,-0
 L 1.98288,-0.261047 L 1.93184,-0.517624 L 1.84775,-0.765366 L 1.73204,-1 L 1.5867,-1.21751 L 1.4142,-1.4142
 L 1.21751,-1.5867 L 1,-1.73204 L 0.765366,-1.84775 L 0.517624,-1.93184 L 0.261047,-1.98288 L 0,-2
 L -0.261047,-1.98288 L -0.517624,-1.93184 L -0.765366,-1.84775 L -1,-1.73204 L -1.21751,-1.5867 L -1.4142,-1.4142
 L -1.5867,-1.21751 L -1.73204,-1 L -1.84775,-0.765366 L -1.93184,-0.517624 L -1.98288,-0.261047 L -2,-0
 L -1.98288,0.261047 L -1.93184,0.517624 L -1.84775,0.765366 L -1.73204,1 L -1.5867,1.21751 L -1.4142,1.4142
 L -1.21751,1.5867 L -1,1.73204 L -0.765366,1.84775 L -0.517624,1.93184 L -0.261047,1.98288 L 0,2
 z
M -69.2528,71.8859 L -67.1949,71.6845 L -65.1667,71.3104 L -63.5417,70.8783 L -63.4872,70.8534 L -62.8003,70.5333
 L -62.0246,70.245 L -61.2255,70.0153 L -61.0311,69.975 L -60.4203,69.8457 L -60.3958,69.8353 L -59.7232,69.5193
 L -57.9512,68.5717 L -56.2968,67.4586 L -54.7781,66.1922 L -53.4119,64.7864 L -52.2131,63.2567 L -51.195,61.6198
 L -50.3687,59.8939 L -49.7433,58.0979 L -49.7283,39.7023 L -49.7123,28.0012 L -49.7127,27.9066 L -49.7062,27.5665
 L -49.7094,27.272 L -49.6068,26.6438 L -49.4335,26.0288 L -49.1916,25.4338 L -48.8836,24.8653 L -48.5129,24.3294
 L -48.0835,23.832 L -47.6,23.3785 L -47.0679,22.9738 L -46.4928,22.6224 L -45.881,22.328 L -45.2392,22.094
 L -41.4682,21.286 L -40.5038,21.078 L -39.5931,20.8826 L -38.8057,20.7128 L -33.9072,19.6421 L -33.2804,19.504
 L -5,13.3295 L -5,6.54471 L -16.3839,8.25536 L -30.0826,10.3083 L -36.0976,11.1994 L -41.1749,11.9476
 L -44.4624,12.4344 L -60.2323,14.7569 L -61.8708,14.9957 L -67.4372,15.7996 L -68.8599,16.2479 L -70.2213,16.8319
 L -71.5057,17.5447 L -72.6982,18.3782 L -73.7852,19.3228 L -74.754,20.3675 L -75.5935,21.5002 L -76.2939,22.7081
 L -76.8473,23.9769 L -77.2472,25.2923 L -77.489,26.6389 L -77.5699,28.0012 L -77.5592,29.7766 L -77.5865,33.0021
 L -77.5783,33.1431 L -77.5538,33.2826 L -77.5133,33.419 L -77.4572,33.5508 L -77.3862,33.6766 L -77.3009,33.7951
 L -77.2024,33.9048 L -77.0918,34.0047 L -76.9701,34.0935 L -76.8389,34.1704 L -76.6994,34.2345 L -76.5533,34.2852
 L -76.4021,34.3217 L -76.2476,34.3438 L -76.0913,34.3512 L -75.5493,34.3512 L -75.394,34.3438 L -75.2403,34.3217
 L -75.09,34.2852 L -74.9448,34.2345 L -74.8062,34.1704 L -74.6757,34.0935 L -74.5548,34.0047 L -74.4448,33.9048
 L -74.3469,33.7951 L -74.2622,33.6766 L -74.1915,33.5508 L -74.1358,33.419 L -74.0955,33.2826 L -74.0712,33.1431
 L -74.063,33.0021 L -74.0128,28.9501 L -74.0238,28.0012 L -73.9615,26.9713 L -73.7755,25.9536 L -73.468,24.9598
 L -73.0424,24.0017 L -72.5039,23.0905 L -72.032,22.4662 L -71.8622,22.2369 L -71.1329,21.4509 L -70.3151,20.7416
 L -69.4183,20.1174 L -68.4531,19.5857 L -67.4307,19.1527 L -66.3632,18.8234 L -65.263,18.6017 L -64.1431,18.4901
 L -63.0166,18.4901 L -61.8967,18.6017 L -60.7965,18.8234 L -59.729,19.1527 L -58.7066,19.5857 L -57.7413,20.1174
 L -56.8445,20.7416 L -56.0267,21.4509 L -55.2974,22.2369 L -54.6653,23.0905 L -54.1376,24.0017 L -53.7206,24.9598
 L -53.4193,25.9536 L -53.237,26.9713 L -53.176,28.0012 L -53.176,51.1967 L -53.5053,52.9714 L -54.0343,54.7051
 L -54.7573,56.3792 L -55.6664,57.9754 L -56.7517,59.4764 L -58.0015,60.866 L -59.4024,62.1292 L -60.939,63.2523
 L -62.5948,64.2231 L -64.3519,65.0311 L -66.1911,65.6674 L -68.0927,66.1254 L -70.0359,66.4 L -71.9998,66.4881
 L -72.0321,66.5018 L -72.2992,66.6131 L -72.583,66.7657 L -72.8474,66.9442 L -73.0893,67.1467 L -73.3062,67.3709
 L -73.4956,67.6143 L -73.6553,67.8743 L -73.7838,68.1479 L -73.8794,68.432 L -73.9411,68.7236 L -73.9684,69.0195
 L -73.9621,69.0298 L -74.0124,69.0803 L -74.0118,69.1629 L -73.9867,69.4649 L -73.926,69.7627 L -73.8304,70.0529
 L -73.7009,70.3321 L -73.539,70.5971 L -73.3466,70.8449 L -73.126,71.0726 L -72.8797,71.2775 L -72.6105,71.4573
 L -72.3215,71.61 L -72.0161,71.7337 L -71.6978,71.827 L -71.3703,71.8889 L -71.0373,71.9186 L -70.946,71.9211
 z
" stroke="black" fill="lightgray" stroke-width="0.5"/>
</svg>
