<?xml version="1.0" standalone="no"?>
<!DOCTYPE svg PUBLIC "-//W3C//DTD SVG 1.1//EN" "http://www.w3.org/Graphics/SVG/1.1/DTD/svg11.dtd">
<svg width="61mm" height="74mm" viewBox="-59 -2 61 74" xmlns="http://www.w3.org/2000/svg" version="1.1">
<title>OpenSCAD Model</title>
<path d="
M 0.261047,1.98288 L 0.517624,1.93184 L 0.765366,1.84775 L 1,1.73204 L 1.21751,1.5867 L 1.4142,1.4142
 L 1.5867,1.21751 L 1.73204,1 L 1.84775,0.765366 L 1.93184,0.517624 L 1.98288,0.261047 L 2,-0
 L 1.98288,-0.261047 L 1.93184,-0.517624 L 1.84775,-0.765366 L 1.73204,-1 L 1.5867,-1.21751 L 1.4142,-1.4142
 L 1.21751,-1.5867 L 1,-1.73204 L 0.765366,-1.84775 L 0.517624,-1.93184 L 0.261047,-1.98288 L 0,-2
 L -0.261047,-1.98288 L -0.517624,-1.93184 L -0.765366,-1.84775 L -1,-1.73204 L -1.21751,-1.5867 L -1.4142,-1.4142
 L -1.5867,-1.21751 L -1.73204,-1 L -1.84775,-0.765366 L -1.93184,-0.517624 L -1.98288,-0.261047 L -2,-0
 L -1.98288,0.261047 L -1.93184,0.517624 L -1.84775,0.765366 L -1.73204,1 L -1.5867,1.21751 L -1.4142,1.4142
 L -1.21751,1.5867 L -1,1.73204 L -0.765366,1.84775 L -0.517624,1.93184 L -0.261047,1.98288 L 0,2
 z
M -46.0772,71.8859 L -46.0772,71.6844 L -45.0715,71.3104 L -43.6008,70.8783 L -41.8085,70.2910 L -40.0877,69.5193 L -38.4570,68.5717 L -36.9346,67.4586 L -35.5371,66.1921 L -34.2798,64.7863 L -33.1767,63.2567 L -32.2398,61.6198 L -31.4794,59.8939 L -31.0000,58.3977 L -31.0000,13.0000 L -44.0363,13.0000 L -46.5234,13.5814 L -48.0032,13.9623 L -49.4355,14.4946 L -50.8048,15.1725 L -52.0965,15.9889 L -53.2965,16.9348 L -54.3920,18.0000 L -55.3710,19.1732 L -56.2231,20.4415 L -56.9391,21.7914 L -57.5112,23.2082 L -57.9333,24.6768 L -58.0673,25.9064 L -58.0770,27.1433 L -57.9623,28.3749 L -57.7242,29.5888 L -57.3654,30.7725 L -56.8893,31.9141 L -56.3008,33.0021 L -56.2934,33.1431 L -56.2713,33.2826 L -56.2347,33.4190 L -56.1841,33.5508 L -56.1200,33.6766 L -56.0431,33.7951 L -55.9543,33.9048 L -55.8544,34.0047 L -55.7447,34.0935 L -55.6262,34.1704 L -55.5004,34.2345 L -55.3686,34.2852 L -55.2322,34.3217 L -55.0927,34.3438 L -54.9517,34.3512 L -54.4748,34.3512 L -54.3338,34.3438 L -54.1944,34.3217 L -54.0580,34.2851 L -53.9261,34.2345 L -53.8003,34.1704 L -53.6819,34.0935 L -53.5721,34.0047 L -53.4723,33.9048 L -53.3834,33.7951 L -53.3065,33.6766 L -53.2424,33.5508 L -53.1918,33.4190 L -53.1553,33.2826 L -53.1332,33.1431 L -53.1258,33.0021 L -53.1258,28.0012 L -53.0699,26.9713 L -52.9031,25.9536 L -52.6272,24.9598 L -52.2454,24.0017 L -51.7623,23.0905 L -51.1836,22.2369 L -50.5159,21.4509 L -49.7671,20.7416 L -48.9461,20.1174 L -48.0624,19.5857 L -47.1263,19.1527 L -46.1490,18.8234 L -45.1417,18.6017 L -44.1164,18.4901 L -43.0851,18.4901 L -42.0598,18.6017 L -41.0526,18.8234 L -40.0752,19.1527 L -39.1392,19.5857 L -38.2555,20.1174 L -37.4344,20.7416 L -36.6857,21.4509 L -36.0180,22.2369 L -35.4392,23.0905 L -34.9561,24.0017 L -34.5744,24.9598 L -34.2985,25.9536 L -34.1316,26.9713 L -34.0758,28.0012 L -34.0758,51.1967 L -34.3773,52.9714 L -34.8616,54.7051 L -35.5235,56.3792 L -36.3558,57.9754 L -37.3494,59.4764 L -38.4937,60.8660 L -39.7762,62.1292 L -41.1830,63.2523 L -42.6990,64.2231 L -44.3076,65.0311 L -46.0772,68.6026 L -46.0464,68.9937 L -45.9548,69.3752 L -45.8047,69.7376 L -45.5997,70.0721 L -45.3450,70.3704 L -45.0467,70.6252 L -44.7122,70.8301 L -44.3497,70.9803 L -43.9683,71.0718 L -43.5772,71.1026 L -43.1861,71.0718 L -42.8047,70.9803 L -42.4422,70.8301 L -42.1077,70.6252 L -41.8094,70.3704 L -41.5547,70.0721 L -41.3497,69.7376 L -41.1996,69.3752 L -41.1080,68.9937 L -41.0772,68.6026 L -46.0772,71.6100 L -46.0772,71.7337 L -46.0772,71.8270 L -46.0772,71.8889 L -46.0772,71.9186 L -46.0772,71.9211
" stroke="black" fill="lightgray" stroke-width="0.5"/>

<g id='trim-box'>
  <rect x='-53.0772' y='62.0' width='7.0000' height='12.0' fill='red' opacity='0.12'/>
  <line x1='-46.0772' y1='62.0' x2='-46.0772' y2='74.0' stroke='red' stroke-width='0.4'/>
</g>
</svg>
