<?xml version="1.0" standalone="no"?>
<!DOCTYPE svg PUBLIC "-//W3C//DTD SVG 1.1//EN" "http://www.w3.org/Graphics/SVG/1.1/DTD/svg11.dtd">
<svg width="232mm" height="70mm" viewBox="-2 -2 232 70" xmlns="http://www.w3.org/2000/svg" version="1.1">
<title>OpenSCAD Model</title>
<path d="
M 0.261047,1.98288 L 0.517624,1.93184 L 0.765366,1.84775 L 1,1.73204 L 1.21751,1.5867 L 1.4142,1.4142
 L 1.5867,1.21751 L 1.73204,1 L 1.84775,0.765366 L 1.93184,0.517624 L 1.98288,0.261047 L 2,-0
 L 1.98288,-0.261047 L 1.93184,-0.517624 L 1.84775,-0.765366 L 1.73204,-1 L 1.5867,-1.21751 L 1.4142,-1.4142
 L 1.21751,-1.5867 L 1,-1.73204 L 0.765366,-1.84775 L 0.517624,-1.93184 L 0.261047,-1.98288 L 0,-2
 L -0.261047,-1.98288 L -0.517624,-1.93184 L -0.765366,-1.84775 L -1,-1.73204 L -1.21751,-1.5867 L -1.4142,-1.4142
 L -1.5867,-1.21751 L -1.73204,-1 L -1.84775,-0.765366 L -1.93184,-0.517624 L -1.98288,-0.261047 L -2,-0
 L -1.98288,0.261047 L -1.93184,0.517624 L -1.84775,0.765366 L -1.73204,1 L -1.5867,1.21751 L -1.4142,1.4142
 L -1.21751,1.5867 L -1,1.73204 L -0.765366,1.84775 L -0.517624,1.93184 L -0.261047,1.98288 L 0,2
 z
M 223.731,25.2168 L 205.946,18.9475 L 200.391,29.4834 z
M 214.436,67.3596 L 216.947,66.4563 L 229.045,49.551 L 229.046,49.524 L 229.047,49.47 L 229.047,49.4431
 L 229.048,49.3891 L 229.048,49.3351 L 229.049,49.3081 L 229.049,49.2811 L 228.265,24.3879 L 225.097,24.967
 L 225.437,25.5241 L 225.439,25.5571 L 225.441,25.6066 L 225.441,25.6232 L 225.443,25.6727 L 225.444,25.7057
 L 225.445,25.7553 L 225.446,25.7883 L 225.446,25.8213 L 224.337,25.4305 L 224.512,25.074 L 225.097,24.967
 L 224.802,24.4825 L 224.512,25.074 L 223.731,25.2168 L 224.337,25.4305 L 205.946,62.9832 L 213.026,67.7344
 z
" stroke="black" fill="lightgray" stroke-width="0.5"/>
</svg>
