<?xml version="1.0" standalone="no"?>
<!DOCTYPE svg PUBLIC "-//W3C//DTD SVG 1.1//EN" "http://www.w3.org/Graphics/SVG/1.1/DTD/svg11.dtd">
<svg width="56mm" height="74mm" viewBox="0 -2 56 74" xmlns="http://www.w3.org/2000/svg" version="1.1">
<title>OpenSCAD Model</title>
<path d="
M 53.4383,1.98288 L 53.6949,1.93184 L 53.9426,1.84775 L 54.1772,1.73204 L 54.3948,1.5867 L 54.5915,1.4142
 L 54.7639,1.21751 L 54.9093,1 L 55.025,0.765366 L 55.1091,0.517624 L 55.1601,0.261047 L 55.1772,-0
 L 55.1601,-0.261047 L 55.1091,-0.517624 L 55.025,-0.765366 L 54.9093,-1 L 54.7639,-1.21751 L 54.5915,-1.4142
 L 54.3948,-1.5867 L 54.1772,-1.73204 L 53.9426,-1.84775 L 53.6949,-1.93184 L 53.4383,-1.98288 L 53.1772,-2
 L 52.9162,-1.98288 L 52.6596,-1.93184 L 52.4119,-1.84775 L 52.1772,-1.73204 L 51.9597,-1.5867 L 51.763,-1.4142
 L 51.5905,-1.21751 L 51.4452,-1 L 51.3295,-0.765366 L 51.2454,-0.517624 L 51.1944,-0.261047 L 51.1772,-0
 L 51.1944,0.261047 L 51.2454,0.517624 L 51.3295,0.765366 L 51.4452,1 L 51.5905,1.21751 L 51.763,1.4142
 L 51.9597,1.5867 L 52.1772,1.73204 L 52.4119,1.84775 L 52.6596,1.93184 L 52.9162,1.98288 L 53.1772,2
 z
M 4.40768,71.8859 L 6.27016,71.6845 L 8.10577,71.3104 L 9.57648,70.8783 L 11.3687,70.291 L 13.0896,69.5193
 L 14.7202,68.5717 L 1.1068,66.9442 L 0.889755,67.1467 L 0.695206,67.3709 L 0.52533,67.6143 L 0.382004,67.8743
 L 0.2668,68.1479 L 0.18103,68.432 L 0.125595,68.7236 L 0.101166,69.0195 L 0.100006,69.0803 L 0.10054,69.1629
 L 0.123215,69.4649 L 0.178146,69.7627 L 0.264725,70.0529 L 0.381943,70.3321 L 0.528427,70.5971 L 0.70253,70.8449
 L 0.902191,71.0726 L 1.12514,71.2775 L 1.36879,71.4573 L 1.63033,71.61 L 1.90672,71.7337 L 2.19481,71.827
 L 2.49124,71.8889 L 2.79262,71.9186 L 2.8752,71.9211 z
" stroke="black" fill="lightgray" stroke-width="0.5"/>
</svg>
