<?xml version="1.0" standalone="no"?>
<!DOCTYPE svg PUBLIC "-//W3C//DTD SVG 1.1//EN" "http://www.w3.org/Graphics/SVG/1.1/DTD/svg11.dtd">
<svg width="300mm" height="337mm" viewBox="-150 -150 300 337" xmlns="http://www.w3.org/2000/svg" version="1.1">
<title>OpenSCAD Model</title>
<path d="
M -2.37611,181.999 L -2.3765,181.999 L 3.55963,172.872 L 6.97218,167.142 L 10.3443,161.488 L 10.896,160.48
 L 11.9988,158.617 L 13.9903,154.825 L 16.1379,150.9 L 17.8475,147.48 L 19.7016,143.95 L 20.7836,141.608
 L 21.535,140.105 L 25.0116,132.454 L 26.6481,128.911 L 30.2771,119.981 L 31.1102,117.951 L 31.7835,116.12
 L 32.8204,113.537 L 34.0618,109.924 L 35.2753,106.623 L 36.7711,102.037 L 38.2025,97.8698 L 38.7423,95.9923
 L 39.0174,95.1489 L 42.3315,83.5436 L 42.3888,83.3105 L 42.7803,81.9486 L 43.8234,77.475 L 45.2129,71.8234
 L 45.6574,69.6746 L 46.5422,65.8151 L 47.6578,60.0044 L 48.952,52.4328 L 49.4781,49.5111 L 49.6628,48.1028
 L 51.2251,36.1351 L 51.3296,35.0419 L 51.5807,33.0788 L 52.3426,24.1177 L 52.769,17.5475 L 52.8445,16.5609
 L 53.0137,12.0672 L 53.1269,6.65306 L 53.1577,5.67914 L 53.1775,4.23453 L 53.2609,0.25 L 150,0.25
 L 150,-0.25 L 0.25,-0.25 L 0.25,-150 L -0.25,-150 L -0.25,-0.25 L -150,-0.25
 L -150,0.25 L -58.0792,0.25 L -58.1096,3.73697 L -56.3819,3.76712 L -56.4523,6.76079 L -56.6465,11.6626
 L -57.033,17.1376 L -57.4003,21.5042 L -58.0559,27.0596 L -58.6024,31.2986 L -59.5494,37.0048 L -60.2502,41.0261
 L -61.5479,47.0713 L -62.34,50.6672 L -64.2315,57.8223 L -64.8672,60.2011 L -67.8329,69.6072 L -68.6774,71.9228
 L -71.2313,78.867 L -72.6458,82.2688 L -75.0494,87.9632 L -76.782,91.6593 L -79.2792,96.8767 L -81.263,100.663
 L -83.9123,105.589 L -86.1164,109.378 L -88.3662,113.128 L -91.7105,118.375 L -93.2577,120.699 L -94.6608,119.752
 L -96.7778,122.832 L -96.6861,122.897 L -5.59354,186.68 z
" stroke="black" fill="lightgray" stroke-width="0.5"/>
</svg>
