<?xml version="1.0" standalone="no"?>
<!DOCTYPE svg PUBLIC "-//W3C//DTD SVG 1.1//EN" "http://www.w3.org/Graphics/SVG/1.1/DTD/svg11.dtd">
<svg width="300mm" height="300mm" viewBox="-150 -150 300 300" xmlns="http://www.w3.org/2000/svg" version="1.1">
<title>OpenSCAD Model</title>
<path d="
M 0.25,15.8 L 50.9952,3.97495 L 51.2873,3.8905 L 51.569,3.77596 L 51.8372,3.63255 L 52.0888,3.46187
 L 52.3213,3.26578 L 52.5319,3.04645 L 52.7184,2.80627 L 52.8788,2.54788 L 53.0112,2.27414 L 53.1142,1.98804
 L 53.1868,1.69273 L 53.228,1.39143 L 53.2375,1.08749 L 53.2661,1.0808 L 53.2465,0.25 L 150,0.25
 L 150,-0.25 L 53.2357,-0.25 L 53.2357,-9.73518 L 0.25,-9.73518 L 0.25,-150 L -0.25,-150
 L -0.25,-9.73518 L -5.61887,-9.73518 L -38.8521,-0.25 L -150,-0.25 L -150,0.25 L -40.604,0.25
 L -87.3132,13.5814 L -88.5253,13.9623 L -89.6986,14.4946 L -90.8203,15.1725 L -91.8783,15.9889 L -92.8613,16.9348
 L -93.7587,18 L -94.5607,19.1732 L -95.2587,20.4415 L -95.8452,21.7914 L -96.3138,23.2082 L -96.6596,24.6768
 L -96.769,25.8985 L -96.7778,27.1275 L -96.6861,28.3514 L -96.4946,29.5579 L -96.2053,30.7351 L -95.8211,31.8711
 L -95.3459,32.9545 L -95.3459,33.0021 L -95.3398,33.1431 L -95.3217,33.2826 L -95.2918,33.419 L -95.2503,33.5508
 L -95.1978,33.6766 L -95.1348,33.7951 L -95.062,33.9048 L -94.9802,34.0047 L -94.8903,34.0935 L -94.7933,34.1704
 L -94.6902,34.2345 L -94.5823,34.2852 L -94.4705,34.3217 L -94.3563,34.3438 L -94.2408,34.3512 L -77.1402,34.3512
 L -77.1402,51.1967 L -77.3872,52.9714 L -77.7839,54.7051 L -78.3261,56.3792 L -79.0078,57.9754 L -79.8218,59.4764
 L -80.7591,60.866 L -81.8097,62.1292 L -82.9621,63.2523 L -84.2039,64.2231 L -85.5216,65.0311 L -86.901,65.6674
 L -88.3271,66.1254 L -89.7844,66.4 L -91.2572,66.4881 L -91.4778,66.6131 L -91.6863,66.7657 L -91.8806,66.9442
 L -92.0584,67.1467 L -92.2177,67.3709 L -92.3569,67.6143 L -92.4743,67.8743 L -92.5687,68.1479 L -92.6389,68.432
 L -92.6843,68.7236 L -92.7043,69.0195 L -92.7053,69.0803 L -92.7048,69.1629 L -92.6863,69.4649 L -92.6413,69.7627
 L -92.5704,70.0529 L -92.4743,70.3321 L -92.3544,70.5971 L -92.2117,70.8449 L -92.0482,71.0726 L -91.8656,71.2775
 L -91.666,71.4573 L -91.4517,71.61 L -91.2253,71.7337 L -90.9893,71.827 L -90.7465,71.8889 L -90.4996,71.9186
 L -90.432,71.9211 L -90.1699,71.9234 L -87.9731,71.9234 L -83.2375,71.9211 L -50.302,71.9211 L -48.7696,71.8859
 L -46.9071,71.6845 L -45.0715,71.3104 L -43.6008,70.8783 L -41.8085,70.291 L -40.7931,69.8457 L -40.0877,69.5193
 L -38.457,68.5717 L -36.9346,67.4586 L -35.5371,66.1922 L -34.2798,64.7864 L -33.1767,63.2567 L -32.2398,61.6198
 L -31.4794,59.8939 L -30.9039,58.0979 L -30.9008,28.0012 L -30.9011,27.9066 L -30.8727,27.272 L -30.7783,26.6438
 L -30.6189,26.0288 L -30.3962,25.4338 L -30.1128,24.8653 L -29.7716,24.3294 L -29.3765,23.832 L -28.9316,23.3785
 L -28.4419,22.9738 L -27.9127,22.6224 L -27.3497,22.328 L -26.7592,22.094 L -0.25,15.9166 L -0.25,150
 L 0.25,150 z
" stroke="black" fill="lightgray" stroke-width="0.5"/>
</svg>
