<?xml version="1.0" standalone="no"?>
<!DOCTYPE svg PUBLIC "-//W3C//DTD SVG 1.1//EN" "http://www.w3.org/Graphics/SVG/1.1/DTD/svg11.dtd">
<svg width="337mm" height="300mm" viewBox="-150 -150 337 300" xmlns="http://www.w3.org/2000/svg" version="1.1">
<title>OpenSCAD Model</title>
<path d="
M 0.25,71.9211 L 116.327,71.9211 L 124.263,71.9234 L 127.459,71.9234 L 127.497,71.9233 L 128.694,71.808
 L 129.868,71.4781 L 130.966,70.966 L 131.12,70.8828 L 131.136,70.8783 L 132.164,70.291 L 133.151,69.5193
 L 134.086,68.5717 L 134.96,67.4586 L 135.761,66.1922 L 136.482,64.7864 L 137.115,63.2567 L 137.652,61.6198
 L 138.089,59.8939 L 138.419,58.0979 L 138.421,28.0012 L 138.42,27.9066 L 138.422,27.6427 L 138.455,27.0002
 L 138.527,26.3674 L 138.637,25.7513 L 138.783,25.159 L 138.965,24.597 L 139.179,24.0717 L 139.425,23.5889
 L 139.698,23.1542 L 139.996,22.7723 L 140.316,22.4476 L 140.654,22.1837 L 140.788,22.0949 L 185.383,3.97357
 L 185.457,3.94711 L 185.626,3.84877 L 185.789,3.71939 L 185.942,3.56046 L 186.085,3.37379 L 186.215,3.16154
 L 186.332,2.92616 L 186.434,2.67033 L 186.519,2.39703 L 186.587,2.10938 L 186.637,1.81068 L 186.668,1.50436
 L 186.68,1.19398 L 186.68,1.0808 L 186.663,-0.210175 L 186.663,-9.73518 L 0.25,-9.73518 L 0.25,-150
 L -0.25,-150 L -0.25,-0.25 L -150,-0.25 L -150,0.25 L -0.25,0.25 L -0.25,150
 L 0.25,150 z
" stroke="black" fill="lightgray" stroke-width="0.5"/>
</svg>
