<?xml version="1.0" standalone="no"?>
<!DOCTYPE svg PUBLIC "-//W3C//DTD SVG 1.1//EN" "http://www.w3.org/Graphics/SVG/1.1/DTD/svg11.dtd">
<svg width="177mm" height="27mm" viewBox="-176 -6 177 27" xmlns="http://www.w3.org/2000/svg" version="1.1">
<title>OpenSCAD Model</title>
<path d="
M -175.363,8.04518 L -174.142,8.20629 L -168.927,8.89632 L -167.889,9.02759 L -167.585,9.06502 L -159.024,10.1477
 L -155.174,10.6335 L -150.924,11.1411 L -149.455,11.3141 L -145.434,11.7941 L -141.777,12.2245 L -135.469,12.9306
 L -132.41,13.2644 L -131.67,13.3471 L -128.713,13.6697 L -122.738,14.2927 L -117.767,14.791 L -116.273,14.9351
 L -114.478,15.1151 L -110.941,15.4564 L -103.77,16.1108 L -100.893,16.3655 L -100.623,16.3901 L -99.3225,16.5053
 L -95.6139,16.8033 L -95.3751,16.8205 L -87.6504,17.4559 L -86.1415,17.5657 L -79.1602,18.0742 L -76.5687,18.2614
 L -75.3698,18.3382 L -71.9051,18.5578 L -70.625,18.6397 L -65.4077,18.9704 L -63.6301,19.0693 L -58.0851,19.3678
 L -57.8186,19.3826 L -54.3751,19.5679 L -52.704,19.6468 L -44.9452,19.9894 L -44.5933,20.003 L -43.1179,20.0682
 L -42.1117,20.1072 L -32.6523,20.4328 L -31.9415,20.4542 L -31.3484,20.4688 L -30.9639,20.4805 L -21.9417,20.7027
 L -21.0218,20.7225 L -20.989,20.723 L -18.2736,20.7631 L -11.289,20.8665 L -10.5067,20.8767 L -10.1609,20.8782
 L -5.29653,20.9022 L -0.440367,20.9262 L 7.62939e-06,20.9281 L 7.62939e-06,7.79182 L -1.42628,7.78876 L -4.37152,7.78275
 L -4.37152,8.49197 L -4.37152,8.73598 L -4.37152,8.97353 L -4.37152,9.20302 L -4.37152,9.42291 L -4.37152,9.63164
 L -4.37152,9.82765 L -4.37152,10.0094 L -4.37152,10.1754 L -4.37152,11.7456 L -7.65092,11.7264 L -14.9753,11.6801
 L -16.1861,11.6656 L -17.5124,11.6479 L -19.6579,11.6222 L -25.6022,11.5427 L -28.1244,11.4972 L -30.7507,11.4436
 L -31.7181,11.4261 L -36.2664,11.3333 L -39.9423,11.2446 L -43.8138,11.1386 L -44.1602,11.1281 L -47.3318,11.0413
 L -50.9159,10.9331 L -55.9276,10.7611 L -57.82,10.6927 L -59.6681,10.6292 L -62.0214,10.544 L -68.043,10.296
 L -71.8143,10.1372 L -72.4068,10.1128 L -73.276,10.0762 L -78.2916,9.83551 L -84.6981,9.52809 L -85.6722,9.47568
 L -86.2347,9.44491 L -90.8342,9.19744 L -96.3067,8.8983 L -99.6133,8.7014 L -101.186,8.60503 L -104.094,8.43192
 L -108.122,8.18526 L -114.405,7.77566 L -116.784,7.61456 L -117.449,7.57128 L -120.167,7.38729 L -127.956,6.83624
 L -130.881,6.61975 L -133.164,6.44594 L -134.73,6.32995 L -141.205,5.83669 L -144.376,5.58232 L -150.483,5.08466
 L -151.11,5.03428 L -154.849,4.72956 L -157.921,4.46457 L -168.927,3.51044 L -168.927,3.09001 L -168.927,2.57879
 L -168.927,2.01894 L -168.927,1.41519 L -168.927,0.772268 L -168.927,0.0949718 L -168.927,-0.611914 L -168.927,-1.34359
 L -168.927,-2.09522 L -168.927,-4.27715 L -169.954,-4.4131 L -175.363,-5.12948 L -175.363,-1.89528 z
" stroke="black" fill="lightgray" stroke-width="0.5"/>
</svg>
