<?xml version="1.0" standalone="no"?>
<!DOCTYPE svg PUBLIC "-//W3C//DTD SVG 1.1//EN" "http://www.w3.org/Graphics/SVG/1.1/DTD/svg11.dtd">
<svg width="67mm" height="140mm" viewBox="-97 -1 67 140" xmlns="http://www.w3.org/2000/svg" version="1.1">
<title>OpenSCAD Model</title>
<path d="
M -96.0839,123.318 L -95.1988,123.938 L -94.3602,124.525 L -92.7215,125.673 L -90.5555,122.521 L -90.5794,122.505
 L -89.3796,120.675 L -86.0393,115.471 L -84.3157,112.63 L -82.9382,110.252 L -82.7701,109.975 L -81.0482,107.002
 L -79.2942,103.804 L -76.7591,98.9265 L -76.0781,97.5456 L -75.7613,96.936 L -74.8294,95.0462 L -72.2309,89.4344
 L -70.86,86.319 L -70.0802,84.4109 L -69.9823,84.1884 L -68.4224,80.372 L -67.1007,76.9732 L -65.4859,72.4422
 L -64.965,70.9075 L -64.5036,69.6131 L -63.8524,67.6946 L -62.0443,61.7806 L -61.0692,58.4351 L -60.7278,57.104
 L -60.6825,56.9484 L -59.4875,52.2892 L -58.6207,48.7469 L -57.7798,44.7107 L -57.4478,43.0416 L -57.0273,41.0236
 L -56.6479,39.116 L -55.664,33.0106 L -55.1216,29.4863 L -55.0434,28.8038 L -55.0311,28.7237 L -54.4051,23.2622
 L -54.0081,19.6372 L -53.773,16.2095 L -53.6564,14.4305 L -53.4684,11.6884 L -53.3465,9.82849 L -53.2053,3.64585
 L -53.1258,-7.62939e-06 L -57.2313,-7.62939e-06 L -57.2405,1.05858 L -57.264,3.75173 L -56.7988,3.75984 L -56.3337,3.76796
 L -56.4607,7.70969 L -56.6052,11.356 L -56.9475,16.2038 L -57.0968,17.9791 L -57.1964,19.3896 L -57.3529,21.2506
 L -58.0882,27.4812 L -58.5438,31.0151 L -58.7264,32.1153 L -58.7374,32.2006 L -59.582,37.2896 L -60.2084,40.8846
 L -60.9734,44.4483 L -61.3382,46.1041 L -61.8899,48.6746 L -62.3102,50.5824 L -63.8882,56.5516 L -64.7859,59.9109
 L -64.8114,60.0072 L -64.8558,60.1733 L -66.7423,66.1568 L -67.8397,69.6371 L -68.3912,71.1492 L -69.2299,73.4297
 L -69.9287,75.3458 L -71.2556,78.9536 L -72.5576,82.0849 L -74.4862,86.654 L -74.5852,86.8922 L -75.0964,88.1031
 L -76.6452,91.4073 L -79.3538,97.0663 L -80.0609,98.4158 L -80.6363,99.4858 L -81.6228,101.369 L -84.0188,105.824
 L -85.681,108.681 L -87.6074,111.892 L -88.9087,114.061 L -91.0989,117.415 L -91.2692,117.708 L -93.2116,120.73
 L -93.596,120.47 L -93.9585,120.226 L -94.6312,121.205 z
M -77.1402,136.583 L -74.8658,138.175 L -74.5161,138.42 L -74.2709,138.064 L -72.1304,134.949 L -72.1518,134.935
 L -72.1543,134.933 L -68.6417,129.555 L -68.0726,128.671 L -64.7211,123.192 L -64.5086,122.829 L -64.1899,122.285
 L -61.0025,116.708 L -60.6086,115.965 L -57.588,110.296 L -57.4896,110.11 L -54.6385,104.354 L -54.186,103.405
 L -51.507,97.5673 L -51.4246,97.374 L -48.9199,91.4589 L -48.5904,90.6853 L -46.2623,84.6985 L -46.0399,84.1084
 L -45.8917,83.715 L -43.7422,77.6618 L -43.4137,76.6635 L -41.4448,70.5492 L -39.658,64.3792 L -39.3721,63.3678
 L -37.7692,57.1475 L -37.6721,56.7385 L -37.5264,56.1249 L -36.1088,49.8598 L -35.9494,49.0342 L -34.7182,42.7298
 L -34.6784,42.5234 L -33.6348,36.1853 L -33.4794,35.1458 L -32.6243,28.7795 L -32.6021,28.5704 L -31.9362,22.1815
 L -31.8473,21.3454 L -31.3712,14.9396 L -31.3312,14.3103 L -31.3045,13.8907 L -31.0187,7.47356 L -30.9964,6.42281
 L -30.9011,-7.62939e-06 L -34.0758,-7.62939e-06 L -34.3024,10.3869 L -34.5742,14.5336 L -34.9819,20.754 L -35.8868,29.0162
 L -36.113,31.0815 L -37.6934,41.35 L -38.0988,43.3878 L -39.7203,51.5397 L -41.202,57.5947 L -42.1897,61.6313
 L -45.0969,71.6056 L -48.4365,81.4435 L -49.9426,85.3167 L -52.202,91.1265 L -55.5494,98.7342 L -56.3862,100.636
 L -60.9813,109.954 L -61.9807,111.775 L -65.9785,119.062 L -69.2123,124.392 L -71.3682,127.944 z
" stroke="black" fill="lightgray" stroke-width="0.5"/>
</svg>
