<?xml version="1.0" standalone="no"?>
<!DOCTYPE svg PUBLIC "-//W3C//DTD SVG 1.1//EN" "http://www.w3.org/Graphics/SVG/1.1/DTD/svg11.dtd">
<svg width="118mm" height="82mm" viewBox="-78 -10 118 82" xmlns="http://www.w3.org/2000/svg" version="1.1">
<title>OpenSCAD Model</title>
<path d="
M -77.5865,33.0021 L -77.5823,33.075 L -77.5783,33.1431 L -77.5657,33.2151 L -77.5538,33.2826 L -77.533,33.3528
 L -77.5133,33.419 L -77.4846,33.4866 L -77.4572,33.5508 L -77.421,33.615 L -77.3862,33.6766 L -77.343,33.7367
 L -77.3009,33.7951 L -77.2514,33.8503 L -77.2024,33.9048 L -77.1473,33.9546 L -77.0918,34.0047 L -77.0318,34.0485
 L -76.9701,34.0935 L -76.9061,34.1311 L -76.8389,34.1704 L -76.7716,34.2014 L -76.6994,34.2345 L -76.6298,34.2587
 L -76.5533,34.2852 L -76.4823,34.3023 L -76.4022,34.3217 L -76.3305,34.3319 L -76.2476,34.3438 L -76.1761,34.3472
 L -76.0913,34.3512 L -75.5493,34.3512 L -75.44,34.346 L -75.394,34.3438 L -75.2869,34.3284 L -75.2403,34.3217
 L -75.1366,34.2965 L -75.0901,34.2852 L -74.9907,34.2505 L -74.9448,34.2345 L -74.8508,34.1911 L -74.8062,34.1704
 L -74.7184,34.1187 L -74.6757,34.0935 L -74.595,34.0342 L -74.5548,34.0047 L -74.4819,33.9385 L -74.4448,33.9048
 L -74.3804,33.8326 L -74.3469,33.7951 L -74.2915,33.7176 L -74.2622,33.6766 L -74.2162,33.5947 L -74.1916,33.5508
 L -74.1554,33.4653 L -74.1358,33.419 L -74.1098,33.3308 L -74.0955,33.2826 L -74.0798,33.1926 L -74.0712,33.1431
 L -74.0659,33.0522 L -74.0631,33.0021 L -74.0128,28.9501 L -74.0238,28.0012 L -73.9708,27.1242 L -73.9615,26.9714
 L -73.79,26.0327 L -73.7755,25.9536 L -73.4878,25.0238 L -73.468,24.9598 L -73.0618,24.0453 L -73.0424,24.0017
 L -72.5154,23.1099 L -72.5039,23.0905 L -72.032,22.4662 L -71.8622,22.2369 L -71.8567,22.2309 L -71.133,21.4509
 L -71.0997,21.4221 L -70.3151,20.7416 L -70.2456,20.6932 L -69.4183,20.1175 L -69.3045,20.0548 L -68.4531,19.5857
 L -68.2883,19.5159 L -67.4307,19.1527 L -67.2101,19.0846 L -66.3632,18.8234 L -66.0839,18.7671 L -65.263,18.6017
 L -64.9249,18.568 L -64.1431,18.4902 L -63.0166,18.4902 L -62.5705,18.5346 L -61.8967,18.6017 L -61.4067,18.7004
 L -60.7965,18.8234 L -60.2725,18.985 L -59.729,19.1527 L -59.1829,19.384 L -58.7066,19.5857 L -58.1517,19.8914
 L -57.7413,20.1175 L -57.1921,20.4997 L -56.8446,20.7416 L -56.3158,21.2002 L -56.0267,21.4509 L -55.5331,21.9829
 L -55.2974,22.2369 L -54.853,22.837 L -54.6653,23.0905 L -54.2828,23.751 L -54.1376,24.0017 L -53.8281,24.7129
 L -53.7206,24.9598 L -53.4931,25.7101 L -53.4193,25.9536 L -53.2802,26.7303 L -53.237,26.9714 L -53.2191,27.2731
 L -53.176,28.0012 L -53.176,51.1967 L -53.406,52.4362 L -53.5053,52.9714 L -53.897,54.2549 L -54.0343,54.7051
 L -54.5517,55.903 L -54.7573,56.3792 L -55.3792,57.4711 L -55.6664,57.9754 L -56.3677,58.9454 L -56.7517,59.4764
 L -57.5044,60.3133 L -58.0015,60.8661 L -58.7756,61.5641 L -59.4024,62.1292 L -60.167,62.6881 L -60.939,63.2523
 L -61.6638,63.6772 L -62.5949,64.2231 L -63.2508,64.5247 L -64.3519,65.0311 L -64.9127,65.2251 L -66.1911,65.6675
 L -66.6342,65.7742 L -68.0927,66.1254 L -68.3998,66.1688 L -70.0359,66.4 L -70.1942,66.4071 L -71.9998,66.4881
 L -72.0321,66.5019 L -72.2992,66.6131 L -72.3026,66.6149 L -72.5831,66.7657 L -72.5895,66.7701 L -72.8474,66.9442
 L -72.8562,66.9516 L -73.0893,67.1467 L -73.0995,67.1573 L -73.3062,67.3709 L -73.3169,67.3847 L -73.4956,67.6143
 L -73.506,67.6313 L -73.6553,67.8743 L -73.6646,67.894 L -73.7838,68.1479 L -73.7912,68.17 L -73.8794,68.432
 L -73.8844,68.4559 L -73.9412,68.7236 L -73.9458,68.7737 L -73.9684,69.0195 L -73.9622,69.0298 L -74.0124,69.0803
 L -74.0121,69.1168 L -74.0118,69.1629 L -73.9991,69.3159 L -73.9867,69.4649 L -73.9561,69.6152 L -73.926,69.7627
 L -73.8781,69.9082 L -73.8304,70.0529 L -73.7661,70.1915 L -73.7009,70.3321 L -73.6215,70.462 L -73.539,70.5971
 L -73.4462,70.7167 L -73.3466,70.8449 L -73.2421,70.9528 L -73.126,71.0726 L -73.0118,71.1676 L -72.8797,71.2775
 L -72.7578,71.359 L -72.6105,71.4573 L -72.483,71.5247 L -72.3215,71.61 L -72.1906,71.663 L -72.0161,71.7337
 L -71.8839,71.7725 L -71.6978,71.827 L -71.5662,71.8519 L -71.3703,71.8889 L -71.241,71.9004 L -71.0373,71.9186
 L -71.0028,71.9195 L -70.946,71.9211 L -70.3545,71.9088 L -69.2528,71.8859 L -68.6784,71.8297 L -67.1949,71.6845
 L -66.7863,71.6091 L -65.1668,71.3104 L -64.9513,71.2531 L -63.5417,70.8783 L -63.4872,70.8534 L -62.8003,70.5333
 L -62.0563,70.2568 L -62.0246,70.245 L -61.2318,70.0172 L -61.2255,70.0153 L -61.195,70.009 L -61.0311,69.975
 L -60.4203,69.8458 L -60.3958,69.8354 L -59.7232,69.5193 L -58.4608,68.8442 L -57.9512,68.5717 L -56.878,67.8496
 L -56.2968,67.4586 L -55.4007,66.7113 L -54.7781,66.1922 L -54.0447,65.4375 L -53.4119,64.7864 L -52.825,64.0375
 L -52.2131,63.2567 L -51.7565,62.5225 L -51.195,61.6198 L -50.8528,60.9051 L -50.3687,59.8939 L -50.0681,59.0306
 L -49.7433,58.0979 L -49.7283,39.7023 L -49.7123,28.0012 L -49.7124,27.9645 L -49.7127,27.9066 L -49.7062,27.5665
 L -49.7094,27.272 L -49.6446,26.8756 L -49.6068,26.6438 L -49.4965,26.2524 L -49.4336,26.0288 L -49.2776,25.6453
 L -49.1916,25.4338 L -48.9897,25.0612 L -48.8836,24.8653 L -48.6357,24.5069 L -48.5129,24.3294 L -48.219,23.989
 L -48.0835,23.832 L -47.7441,23.5136 L -47.6,23.3785 L -47.216,23.0865 L -47.0679,22.9738 L -46.6406,22.7127
 L -46.4928,22.6224 L -46.0244,22.397 L -45.881,22.328 L -45.3554,22.1364 L -45.2392,22.094 L -41.4682,21.286
 L -40.5038,21.078 L -39.5931,20.8826 L -38.8057,20.7128 L -33.9072,19.6421 L -33.2804,19.504 L -3.78414,13.064
 L -0.826279,12.4094 L 8.38213,10.3714 L 33.1013,4.89405 L 37.2024,3.97495 L 37.4365,3.90987 L 37.5061,3.89052
 L 37.7657,3.78899 L 37.799,3.77596 L 38.0443,3.64982 L 38.0779,3.63256 L 38.3064,3.48349 L 38.3395,3.46187
 L 38.5492,3.29176 L 38.5812,3.26579 L 38.7701,3.07666 L 38.8002,3.04645 L 38.9665,2.84048 L 38.9942,2.80627
 L 39.1365,2.58574 L 39.1609,2.5479 L 39.278,2.31516 L 39.2986,2.27415 L 39.3894,2.03166 L 39.4057,1.98804
 L 39.4695,1.73832 L 39.4812,1.69273 L 39.5174,1.43829 L 39.524,1.39145 L 39.5261,1.32639 L 39.5339,1.0875
 L 39.5305,1.08606 L 39.3806,1.0808 L 39.5049,1.0808 L 39.4861,0.312894 L 39.4732,-0.210186 L 39.4732,-9.73519
 L 38.6258,-9.54472 L 37.8582,-9.37219 L 37.9281,-7.46095 L 37.9081,-6.56775 L 37.8667,-5.74917 L 37.8587,-5.59247
 L 37.7351,-4.78444 L 37.7109,-4.62629 L 37.5074,-3.83839 L 37.466,-3.67824 L 37.1863,-2.91957 L 37.1264,-2.75713
 L 36.7754,-2.03616 L 36.6953,-1.87155 L 36.279,-1.19598 L 36.1766,-1.02979 L 35.702,-0.406332 L 35.5751,-0.239697
 L 35.0501,0.326016 L 34.8966,0.491375 L 11.8406,4.0003 L 4.52469,5.11372 L -0.151652,5.81646 L -1.1199,5.96167
 L -16.3839,8.25536 L -30.0826,10.3084 L -36.0976,11.1994 L -41.1749,11.9476 L -44.4624,12.4344 L -60.2323,14.7569
 L -61.8708,14.9957 L -67.4372,15.7996 L -67.9781,15.9701 L -68.8599,16.2479 L -69.3229,16.4465 L -70.2213,16.8319
 L -70.7352,17.1171 L -71.5057,17.5447 L -72.0501,17.9252 L -72.6982,18.3782 L -73.251,18.8586 L -73.7852,19.3228
 L -74.3233,19.903 L -74.754,20.3675 L -75.2547,21.0431 L -75.5935,21.5003 L -76.0355,22.2624 L -76.2939,22.7081
 L -76.6585,23.5439 L -76.8473,23.977 L -77.1189,24.8704 L -77.2472,25.2923 L -77.4146,26.2247 L -77.489,26.6389
 L -77.5455,27.5901 L -77.5699,28.0012 L -77.5592,29.7766 z
" stroke="black" fill="lightgray" stroke-width="0.5"/>
</svg>
