  0
SECTION
  2
BLOCKS
  0
ENDSEC
  0
SECTION
  2
ENTITIES
  0
LINE
  8
0
 10
-31
 20
-58.3977
 11
-30.9039
 21
-58.0979
  0
LINE
  8
0
 10
-30.9039
 20
-58.0979
 11
-30.9008
 21
-28.0012
  0
LINE
  8
0
 10
-30.9008
 20
-28.0012
 11
-30.9011
 21
-27.9066
  0
LINE
  8
0
 10
-30.9011
 20
-27.9066
 11
-30.8727
 21
-27.272
  0
LINE
  8
0
 10
-30.8727
 20
-27.272
 11
-30.7783
 21
-26.6438
  0
LINE
  8
0
 10
-30.7783
 20
-26.6438
 11
-30.6189
 21
-26.0288
  0
LINE
  8
0
 10
-30.6189
 20
-26.0288
 11
-30.3962
 21
-25.4338
  0
LINE
  8
0
 10
-30.3962
 20
-25.4338
 11
-30.1128
 21
-24.8653
  0
LINE
  8
0
 10
-30.1128
 20
-24.8653
 11
-29.7716
 21
-24.3294
  0
LINE
  8
0
 10
-29.7716
 20
-24.3294
 11
-29.3765
 21
-23.832
  0
LINE
  8
0
 10
-29.3765
 20
-23.832
 11
-28.9316
 21
-23.3785
  0
LINE
  8
0
 10
-28.9316
 20
-23.3785
 11
-28.4419
 21
-22.9738
  0
LINE
  8
0
 10
-28.4419
 20
-22.9738
 11
-27.9127
 21
-22.6224
  0
LINE
  8
0
 10
-27.9127
 20
-22.6224
 11
-27.3497
 21
-22.328
  0
LINE
  8
0
 10
-27.3497
 20
-22.328
 11
-26.7591
 21
-22.0939
  0
LINE
  8
0
 10
-26.7591
 20
-22.0939
 11
50.9952
 21
-3.97495
  0
LINE
  8
0
 10
50.9952
 20
-3.97495
 11
51.2873
 21
-3.8905
  0
LINE
  8
0
 10
51.2873
 20
-3.8905
 11
51.569
 21
-3.77596
  0
LINE
  8
0
 10
51.569
 20
-3.77596
 11
51.8372
 21
-3.63255
  0
LINE
  8
0
 10
51.8372
 20
-3.63255
 11
52.0888
 21
-3.46187
  0
LINE
  8
0
 10
52.0888
 20
-3.46187
 11
52.3213
 21
-3.26578
  0
LINE
  8
0
 10
52.3213
 20
-3.26578
 11
52.5319
 21
-3.04645
  0
LINE
  8
0
 10
52.5319
 20
-3.04645
 11
52.7184
 21
-2.80626
  0
LINE
  8
0
 10
52.7184
 20
-2.80626
 11
52.8788
 21
-2.54788
  0
LINE
  8
0
 10
52.8788
 20
-2.54788
 11
53.0112
 21
-2.27414
  0
LINE
  8
0
 10
53.0112
 20
-2.27414
 11
53.1142
 21
-1.98804
  0
LINE
  8
0
 10
53.1142
 20
-1.98804
 11
53.1868
 21
-1.69272
  0
LINE
  8
0
 10
53.1868
 20
-1.69272
 11
53.228
 21
-1.39143
  0
LINE
  8
0
 10
53.228
 20
-1.39143
 11
53.2375
 21
-1.08749
  0
LINE
  8
0
 10
53.2375
 20
-1.08749
 11
53.2661
 21
-1.0808
  0
LINE
  8
0
 10
53.2661
 20
-1.0808
 11
53.2356
 21
0.210175
  0
LINE
  8
0
 10
53.2356
 20
0.210175
 11
53.2356
 21
9.73518
  0
LINE
  8
0
 10
53.2356
 20
9.73518
 11
53.2073
 21
9.73128
  0
LINE
  8
0
 10
53.2073
 20
9.73128
 11
-44.0363
 21
-13
  0
LINE
  8
0
 10
-44.0363
 20
-13
 11
-31
 21
-13
  0
LINE
  8
0
 10
-31
 20
-13
 11
-31
 21
-58.3977
  0
ENDSEC
  0
SECTION
  2
OBJECTS
  0
DICTIONARY
  0
ENDSEC
  0
EOF
