  0
SECTION
  2
BLOCKS
  0
ENDSEC
  0
SECTION
  2
ENTITIES
  0
LINE
  8
0
 10
-50.302
 20
-71.9211
 11
-48.7695
 21
-71.8859
  0
LINE
  8
0
 10
-48.7695
 20
-71.8859
 11
-46.9071
 21
-71.6844
  0
LINE
  8
0
 10
-46.9071
 20
-71.6844
 11
-45.0715
 21
-71.3104
  0
LINE
  8
0
 10
-45.0715
 20
-71.3104
 11
-43.6008
 21
-70.8783
  0
LINE
  8
0
 10
-43.6008
 20
-70.8783
 11
-41.8085
 21
-70.291
  0
LINE
  8
0
 10
-41.8085
 20
-70.291
 11
-40.0877
 21
-69.5193
  0
LINE
  8
0
 10
-40.0877
 20
-69.5193
 11
-38.457
 21
-68.5717
  0
LINE
  8
0
 10
-38.457
 20
-68.5717
 11
-36.9346
 21
-67.4586
  0
LINE
  8
0
 10
-36.9346
 20
-67.4586
 11
-35.5371
 21
-66.1921
  0
LINE
  8
0
 10
-35.5371
 20
-66.1921
 11
-34.2798
 21
-64.7863
  0
LINE
  8
0
 10
-34.2798
 20
-64.7863
 11
-33.1767
 21
-63.2567
  0
LINE
  8
0
 10
-33.1767
 20
-63.2567
 11
-32.2398
 21
-61.6198
  0
LINE
  8
0
 10
-32.2398
 20
-61.6198
 11
-31.4794
 21
-59.8939
  0
LINE
  8
0
 10
-31.4794
 20
-59.8939
 11
-31
 21
-58.3977
  0
LINE
  8
0
 10
-31
 20
-58.3977
 11
-31
 21
-13
  0
LINE
  8
0
 10
-31
 20
-13
 11
-44.0363
 21
-13
  0
LINE
  8
0
 10
-44.0363
 20
-13
 11
-46.5234
 21
-13.5814
  0
LINE
  8
0
 10
-46.5234
 20
-13.5814
 11
-48.0032
 21
-13.9623
  0
LINE
  8
0
 10
-48.0032
 20
-13.9623
 11
-49.4355
 21
-14.4946
  0
LINE
  8
0
 10
-49.4355
 20
-14.4946
 11
-50.8048
 21
-15.1725
  0
LINE
  8
0
 10
-50.8048
 20
-15.1725
 11
-52.0965
 21
-15.9889
  0
LINE
  8
0
 10
-52.0965
 20
-15.9889
 11
-53.2965
 21
-16.9348
  0
LINE
  8
0
 10
-53.2965
 20
-16.9348
 11
-54.392
 21
-18
  0
LINE
  8
0
 10
-54.392
 20
-18
 11
-55.371
 21
-19.1732
  0
LINE
  8
0
 10
-55.371
 20
-19.1732
 11
-56.2231
 21
-20.4415
  0
LINE
  8
0
 10
-56.2231
 20
-20.4415
 11
-56.9391
 21
-21.7914
  0
LINE
  8
0
 10
-56.9391
 20
-21.7914
 11
-57.5112
 21
-23.2082
  0
LINE
  8
0
 10
-57.5112
 20
-23.2082
 11
-57.9333
 21
-24.6768
  0
LINE
  8
0
 10
-57.9333
 20
-24.6768
 11
-58.0673
 21
-25.9064
  0
LINE
  8
0
 10
-58.0673
 20
-25.9064
 11
-58.077
 21
-27.1433
  0
LINE
  8
0
 10
-58.077
 20
-27.1433
 11
-57.9623
 21
-28.3749
  0
LINE
  8
0
 10
-57.9623
 20
-28.3749
 11
-57.7242
 21
-29.5888
  0
LINE
  8
0
 10
-57.7242
 20
-29.5888
 11
-57.3654
 21
-30.7725
  0
LINE
  8
0
 10
-57.3654
 20
-30.7725
 11
-56.8893
 21
-31.9141
  0
LINE
  8
0
 10
-56.8893
 20
-31.9141
 11
-56.3008
 21
-33.0021
  0
LINE
  8
0
 10
-56.3008
 20
-33.0021
 11
-56.2934
 21
-33.1431
  0
LINE
  8
0
 10
-56.2934
 20
-33.1431
 11
-56.2713
 21
-33.2826
  0
LINE
  8
0
 10
-56.2713
 20
-33.2826
 11
-56.2347
 21
-33.419
  0
LINE
  8
0
 10
-56.2347
 20
-33.419
 11
-56.1841
 21
-33.5508
  0
LINE
  8
0
 10
-56.1841
 20
-33.5508
 11
-56.12
 21
-33.6766
  0
LINE
  8
0
 10
-56.12
 20
-33.6766
 11
-56.0431
 21
-33.7951
  0
LINE
  8
0
 10
-56.0431
 20
-33.7951
 11
-55.9543
 21
-33.9048
  0
LINE
  8
0
 10
-55.9543
 20
-33.9048
 11
-55.8544
 21
-34.0047
  0
LINE
  8
0
 10
-55.8544
 20
-34.0047
 11
-55.7447
 21
-34.0935
  0
LINE
  8
0
 10
-55.7447
 20
-34.0935
 11
-55.6262
 21
-34.1704
  0
LINE
  8
0
 10
-55.6262
 20
-34.1704
 11
-55.5004
 21
-34.2345
  0
LINE
  8
0
 10
-55.5004
 20
-34.2345
 11
-55.3686
 21
-34.2852
  0
LINE
  8
0
 10
-55.3686
 20
-34.2852
 11
-55.2322
 21
-34.3217
  0
LINE
  8
0
 10
-55.2322
 20
-34.3217
 11
-55.0927
 21
-34.3438
  0
LINE
  8
0
 10
-55.0927
 20
-34.3438
 11
-54.9517
 21
-34.3512
  0
LINE
  8
0
 10
-54.9517
 20
-34.3512
 11
-54.4748
 21
-34.3512
  0
LINE
  8
0
 10
-54.4748
 20
-34.3512
 11
-54.3338
 21
-34.3438
  0
LINE
  8
0
 10
-54.3338
 20
-34.3438
 11
-54.1944
 21
-34.3217
  0
LINE
  8
0
 10
-54.1944
 20
-34.3217
 11
-54.058
 21
-34.2851
  0
LINE
  8
0
 10
-54.058
 20
-34.2851
 11
-53.9261
 21
-34.2345
  0
LINE
  8
0
 10
-53.9261
 20
-34.2345
 11
-53.8003
 21
-34.1704
  0
LINE
  8
0
 10
-53.8003
 20
-34.1704
 11
-53.6819
 21
-34.0935
  0
LINE
  8
0
 10
-53.6819
 20
-34.0935
 11
-53.5721
 21
-34.0047
  0
LINE
  8
0
 10
-53.5721
 20
-34.0047
 11
-53.4723
 21
-33.9048
  0
LINE
  8
0
 10
-53.4723
 20
-33.9048
 11
-53.3834
 21
-33.7951
  0
LINE
  8
0
 10
-53.3834
 20
-33.7951
 11
-53.3065
 21
-33.6766
  0
LINE
  8
0
 10
-53.3065
 20
-33.6766
 11
-53.2424
 21
-33.5508
  0
LINE
  8
0
 10
-53.2424
 20
-33.5508
 11
-53.1918
 21
-33.419
  0
LINE
  8
0
 10
-53.1918
 20
-33.419
 11
-53.1553
 21
-33.2826
  0
LINE
  8
0
 10
-53.1553
 20
-33.2826
 11
-53.1332
 21
-33.1431
  0
LINE
  8
0
 10
-53.1332
 20
-33.1431
 11
-53.1258
 21
-33.0021
  0
LINE
  8
0
 10
-53.1258
 20
-33.0021
 11
-53.1258
 21
-28.0012
  0
LINE
  8
0
 10
-53.1258
 20
-28.0012
 11
-53.0699
 21
-26.9713
  0
LINE
  8
0
 10
-53.0699
 20
-26.9713
 11
-52.9031
 21
-25.9536
  0
LINE
  8
0
 10
-52.9031
 20
-25.9536
 11
-52.6272
 21
-24.9598
  0
LINE
  8
0
 10
-52.6272
 20
-24.9598
 11
-52.2454
 21
-24.0017
  0
LINE
  8
0
 10
-52.2454
 20
-24.0017
 11
-51.7623
 21
-23.0905
  0
LINE
  8
0
 10
-51.7623
 20
-23.0905
 11
-51.1836
 21
-22.2369
  0
LINE
  8
0
 10
-51.1836
 20
-22.2369
 11
-50.5159
 21
-21.4509
  0
LINE
  8
0
 10
-50.5159
 20
-21.4509
 11
-49.7671
 21
-20.7416
  0
LINE
  8
0
 10
-49.7671
 20
-20.7416
 11
-48.9461
 21
-20.1174
  0
LINE
  8
0
 10
-48.9461
 20
-20.1174
 11
-48.0624
 21
-19.5857
  0
LINE
  8
0
 10
-48.0624
 20
-19.5857
 11
-47.1263
 21
-19.1527
  0
LINE
  8
0
 10
-47.1263
 20
-19.1527
 11
-46.149
 21
-18.8234
  0
LINE
  8
0
 10
-46.149
 20
-18.8234
 11
-45.1417
 21
-18.6017
  0
LINE
  8
0
 10
-45.1417
 20
-18.6017
 11
-44.1164
 21
-18.4901
  0
LINE
  8
0
 10
-44.1164
 20
-18.4901
 11
-43.0851
 21
-18.4901
  0
LINE
  8
0
 10
-43.0851
 20
-18.4901
 11
-42.0598
 21
-18.6017
  0
LINE
  8
0
 10
-42.0598
 20
-18.6017
 11
-41.0526
 21
-18.8234
  0
LINE
  8
0
 10
-41.0526
 20
-18.8234
 11
-40.0752
 21
-19.1527
  0
LINE
  8
0
 10
-40.0752
 20
-19.1527
 11
-39.1392
 21
-19.5857
  0
LINE
  8
0
 10
-39.1392
 20
-19.5857
 11
-38.2555
 21
-20.1174
  0
LINE
  8
0
 10
-38.2555
 20
-20.1174
 11
-37.4344
 21
-20.7416
  0
LINE
  8
0
 10
-37.4344
 20
-20.7416
 11
-36.6857
 21
-21.4509
  0
LINE
  8
0
 10
-36.6857
 20
-21.4509
 11
-36.018
 21
-22.2369
  0
LINE
  8
0
 10
-36.018
 20
-22.2369
 11
-35.4392
 21
-23.0905
  0
LINE
  8
0
 10
-35.4392
 20
-23.0905
 11
-34.9561
 21
-24.0017
  0
LINE
  8
0
 10
-34.9561
 20
-24.0017
 11
-34.5744
 21
-24.9598
  0
LINE
  8
0
 10
-34.5744
 20
-24.9598
 11
-34.2985
 21
-25.9536
  0
LINE
  8
0
 10
-34.2985
 20
-25.9536
 11
-34.1316
 21
-26.9713
  0
LINE
  8
0
 10
-34.1316
 20
-26.9713
 11
-34.0758
 21
-28.0012
  0
LINE
  8
0
 10
-34.0758
 20
-28.0012
 11
-34.0758
 21
-51.1967
  0
LINE
  8
0
 10
-34.0758
 20
-51.1967
 11
-34.3773
 21
-52.9714
  0
LINE
  8
0
 10
-34.3773
 20
-52.9714
 11
-34.8616
 21
-54.7051
  0
LINE
  8
0
 10
-34.8616
 20
-54.7051
 11
-35.5235
 21
-56.3792
  0
LINE
  8
0
 10
-35.5235
 20
-56.3792
 11
-36.3558
 21
-57.9754
  0
LINE
  8
0
 10
-36.3558
 20
-57.9754
 11
-37.3494
 21
-59.4764
  0
LINE
  8
0
 10
-37.3494
 20
-59.4764
 11
-38.4937
 21
-60.866
  0
LINE
  8
0
 10
-38.4937
 20
-60.866
 11
-39.7762
 21
-62.1292
  0
LINE
  8
0
 10
-39.7762
 20
-62.1292
 11
-41.183
 21
-63.2523
  0
LINE
  8
0
 10
-41.183
 20
-63.2523
 11
-42.699
 21
-64.2231
  0
LINE
  8
0
 10
-42.699
 20
-64.2231
 11
-44.3076
 21
-65.0311
  0
LINE
  8
0
 10
-44.3076
 20
-65.0311
 11
-45.9915
 21
-65.6674
  0
LINE
  8
0
 10
-45.9915
 20
-65.6674
 11
-47.7324
 21
-66.1254
  0
LINE
  8
0
 10
-47.7324
 20
-66.1254
 11
-49.5115
 21
-66.4
  0
LINE
  8
0
 10
-49.5115
 20
-66.4
 11
-51.3095
 21
-66.4881
  0
LINE
  8
0
 10
-51.3095
 20
-66.4881
 11
-51.5787
 21
-66.6131
  0
LINE
  8
0
 10
-51.5787
 20
-66.6131
 11
-51.8333
 21
-66.7657
  0
LINE
  8
0
 10
-51.8333
 20
-66.7657
 11
-52.0704
 21
-66.9442
  0
LINE
  8
0
 10
-52.0704
 20
-66.9442
 11
-52.2875
 21
-67.1467
  0
LINE
  8
0
 10
-52.2875
 20
-67.1467
 11
-52.482
 21
-67.3709
  0
LINE
  8
0
 10
-52.482
 20
-67.3709
 11
-52.6519
 21
-67.6143
  0
LINE
  8
0
 10
-52.6519
 20
-67.6143
 11
-52.7952
 21
-67.8743
  0
LINE
  8
0
 10
-52.7952
 20
-67.8743
 11
-52.9104
 21
-68.1479
  0
LINE
  8
0
 10
-52.9104
 20
-68.1479
 11
-52.9962
 21
-68.432
  0
LINE
  8
0
 10
-52.9962
 20
-68.432
 11
-53.0517
 21
-68.7236
  0
LINE
  8
0
 10
-53.0517
 20
-68.7236
 11
-53.0761
 21
-69.0195
  0
LINE
  8
0
 10
-53.0761
 20
-69.0195
 11
-53.0772
 21
-69.0803
  0
LINE
  8
0
 10
-53.0772
 20
-69.0803
 11
-53.0767
 21
-69.1629
  0
LINE
  8
0
 10
-53.0767
 20
-69.1629
 11
-53.054
 21
-69.4649
  0
LINE
  8
0
 10
-53.054
 20
-69.4649
 11
-52.9991
 21
-69.7627
  0
LINE
  8
0
 10
-52.9991
 20
-69.7627
 11
-52.9125
 21
-70.0529
  0
LINE
  8
0
 10
-52.9125
 20
-70.0529
 11
-52.7953
 21
-70.3321
  0
LINE
  8
0
 10
-52.7953
 20
-70.3321
 11
-52.6488
 21
-70.5971
  0
LINE
  8
0
 10
-52.6488
 20
-70.5971
 11
-52.4747
 21
-70.8449
  0
LINE
  8
0
 10
-52.4747
 20
-70.8449
 11
-52.2751
 21
-71.0726
  0
LINE
  8
0
 10
-52.2751
 20
-71.0726
 11
-52.0521
 21
-71.2775
  0
LINE
  8
0
 10
-52.0521
 20
-71.2775
 11
-51.8085
 21
-71.4573
  0
LINE
  8
0
 10
-51.8085
 20
-71.4573
 11
-51.5469
 21
-71.61
  0
LINE
  8
0
 10
-51.5469
 20
-71.61
 11
-51.2705
 21
-71.7337
  0
LINE
  8
0
 10
-51.2705
 20
-71.7337
 11
-50.9824
 21
-71.827
  0
LINE
  8
0
 10
-50.9824
 20
-71.827
 11
-50.686
 21
-71.8889
  0
LINE
  8
0
 10
-50.686
 20
-71.8889
 11
-50.3846
 21
-71.9186
  0
LINE
  8
0
 10
-50.3846
 20
-71.9186
 11
-50.302
 21
-71.9211
  0
ENDSEC
  0
SECTION
  2
OBJECTS
  0
DICTIONARY
  0
ENDSEC
  0
EOF
