<svg xmlns="http://www.w3.org/2000/svg" width="1400" height="900" viewBox="0 0 1400 900">
<rect x="0" y="0" width="100%" height="100%" fill="white"/>
<g stroke="#111" stroke-width="1.2" fill="none" stroke-linecap="round">
<line x1="1262" y1="40" x2="1259" y2="40"/>
<line x1="1244" y1="40" x2="1259" y2="40"/>
<line x1="1243" y1="860" x2="1262" y2="860"/>
<line x1="1241" y1="860" x2="1243" y2="860"/>
<line x1="1241" y1="860" x2="1048" y2="860"/>
<line x1="1029" y1="860" x2="1048" y2="860"/>
<line x1="1029" y1="860" x2="870" y2="860"/>
<line x1="836" y1="860" x2="870" y2="860"/>
<line x1="836" y1="860" x2="706" y2="860"/>
<line x1="660" y1="860" x2="706" y2="860"/>
<line x1="660" y1="860" x2="554" y2="860"/>
<line x1="499" y1="860" x2="554" y2="860"/>
<line x1="499" y1="860" x2="337" y2="860"/>
<line x1="193" y1="860" x2="337" y2="860"/>
<line x1="98" y1="272" x2="98" y2="85"/>
<line x1="98" y1="272" x2="98" y2="815"/>
<line x1="1299" y1="74" x2="1302" y2="85"/>
<line x1="1299" y1="74" x2="1299" y2="69"/>
<line x1="120" y1="841" x2="125" y2="844"/>
<line x1="120" y1="841" x2="105" y2="831"/>
<line x1="104" y1="73" x2="105" y2="69"/>
<line x1="104" y1="73" x2="98" y2="85"/>
<line x1="180" y1="42" x2="156" y2="45"/>
<line x1="180" y1="42" x2="192" y2="40"/>
<line x1="120" y1="59" x2="125" y2="56"/>
<line x1="120" y1="59" x2="105" y2="69"/>
<line x1="104" y1="827" x2="105" y2="831"/>
<line x1="104" y1="827" x2="98" y2="815"/>
<line x1="147" y1="48" x2="156" y2="45"/>
<line x1="147" y1="48" x2="125" y2="56"/>
<line x1="147" y1="852" x2="156" y2="855"/>
<line x1="147" y1="852" x2="125" y2="844"/>
<line x1="182" y1="858" x2="193" y2="860"/>
<line x1="182" y1="858" x2="156" y2="855"/>
<line x1="1280" y1="47" x2="1290" y2="56"/>
<line x1="1280" y1="47" x2="1278" y2="45"/>
<line x1="1302" y1="601" x2="1302" y2="85"/>
<line x1="1302" y1="601" x2="1302" y2="815"/>
<line x1="1292" y1="59" x2="1299" y2="69"/>
<line x1="1292" y1="59" x2="1290" y2="56"/>
<line x1="1264" y1="41" x2="1278" y2="45"/>
<line x1="1264" y1="41" x2="1262" y2="40"/>
<line x1="1299" y1="826" x2="1302" y2="815"/>
<line x1="1299" y1="826" x2="1299" y2="831"/>
<line x1="1264" y1="859" x2="1262" y2="860"/>
<line x1="1264" y1="859" x2="1278" y2="855"/>
<line x1="1280" y1="853" x2="1278" y2="855"/>
<line x1="1280" y1="853" x2="1290" y2="844"/>
<line x1="1292" y1="841" x2="1299" y2="831"/>
<line x1="1292" y1="841" x2="1290" y2="844"/>
<line x1="1205" y1="809" x2="1152" y2="809"/>
<line x1="1147" y1="809" x2="980" y2="809"/>
<line x1="959" y1="809" x2="820" y2="809"/>
<line x1="787" y1="809" x2="673" y2="809"/>
<line x1="450" y1="809" x2="629" y2="809"/>
<line x1="1147" y1="809" x2="1152" y2="809"/>
<line x1="959" y1="809" x2="980" y2="809"/>
<line x1="787" y1="809" x2="820" y2="809"/>
<line x1="629" y1="809" x2="673" y2="809"/>
<line x1="450" y1="809" x2="326" y2="809"/>
<line x1="1237" y1="787" x2="1241" y2="779"/>
<line x1="1237" y1="787" x2="1233" y2="793"/>
<line x1="233" y1="774" x2="228" y2="764"/>
<line x1="233" y1="774" x2="235" y2="779"/>
<line x1="249" y1="788" x2="235" y2="779"/>
<line x1="249" y1="788" x2="256" y2="793"/>
<line x1="228" y1="266" x2="228" y2="40"/>
<line x1="228" y1="266" x2="228" y2="764"/>
<line x1="276" y1="800" x2="287" y2="803"/>
<line x1="276" y1="800" x2="256" y2="793"/>
<line x1="311" y1="807" x2="326" y2="809"/>
<line x1="311" y1="807" x2="287" y2="803"/>
<line x1="1243" y1="772" x2="1244" y2="764"/>
<line x1="1243" y1="772" x2="1241" y2="779"/>
<line x1="1244" y1="409" x2="1244" y2="764"/>
<line x1="1244" y1="409" x2="1244" y2="40"/>
<line x1="1210" y1="807" x2="1220" y2="803"/>
<line x1="1210" y1="807" x2="1205" y2="809"/>
<line x1="1225" y1="799" x2="1233" y2="793"/>
<line x1="1225" y1="799" x2="1220" y2="803"/>
<line x1="212" y1="40" x2="192" y2="40"/>
<line x1="212" y1="40" x2="228" y2="40"/>
</g></svg>