<svg xmlns="http://www.w3.org/2000/svg" width="1400" height="900" viewBox="0 0 1400 900">
<rect x="0" y="0" width="100%" height="100%" fill="white"/>
<g stroke="#111" stroke-width="1.2" fill="none" stroke-linecap="round">
<line x1="1316" y1="99" x2="1317" y2="99"/>
<line x1="1316" y1="99" x2="1316" y2="99"/>
<line x1="1315" y1="99" x2="1316" y2="99"/>
<line x1="1313" y1="99" x2="1315" y2="99"/>
<line x1="1328" y1="99" x2="1324" y2="99"/>
<line x1="1324" y1="99" x2="1324" y2="99"/>
<line x1="1324" y1="99" x2="1321" y2="99"/>
<line x1="1321" y1="99" x2="1320" y2="99"/>
<line x1="1320" y1="99" x2="1319" y2="99"/>
<line x1="1319" y1="99" x2="1317" y2="99"/>
<line x1="919" y1="801" x2="900" y2="801"/>
<line x1="900" y1="801" x2="637" y2="801"/>
<line x1="291" y1="801" x2="637" y2="801"/>
<line x1="241" y1="801" x2="218" y2="801"/>
<line x1="218" y1="801" x2="182" y2="801"/>
<line x1="182" y1="801" x2="72" y2="801"/>
<line x1="919" y1="801" x2="1328" y2="801"/>
<line x1="291" y1="801" x2="241" y2="801"/>
<line x1="1360" y1="355" x2="1360" y2="138"/>
<line x1="1360" y1="355" x2="1360" y2="762"/>
<line x1="40" y1="545" x2="40" y2="762"/>
<line x1="40" y1="545" x2="40" y2="138"/>
<line x1="64" y1="103" x2="71" y2="100"/>
<line x1="64" y1="103" x2="60" y2="104"/>
<line x1="41" y1="133" x2="40" y2="138"/>
<line x1="41" y1="133" x2="42" y2="124"/>
<line x1="47" y1="783" x2="49" y2="787"/>
<line x1="47" y1="783" x2="42" y2="776"/>
<line x1="1359" y1="767" x2="1360" y2="762"/>
<line x1="1359" y1="767" x2="1358" y2="776"/>
<line x1="42" y1="771" x2="42" y2="776"/>
<line x1="42" y1="771" x2="40" y2="762"/>
<line x1="45" y1="120" x2="42" y2="124"/>
<line x1="45" y1="120" x2="49" y2="113"/>
<line x1="53" y1="790" x2="60" y2="796"/>
<line x1="53" y1="790" x2="49" y2="787"/>
<line x1="1355" y1="780" x2="1358" y2="776"/>
<line x1="1355" y1="780" x2="1351" y2="787"/>
<line x1="53" y1="110" x2="60" y2="104"/>
<line x1="53" y1="110" x2="49" y2="113"/>
<line x1="64" y1="798" x2="72" y2="801"/>
<line x1="64" y1="798" x2="60" y2="796"/>
<line x1="1344" y1="107" x2="1351" y2="113"/>
<line x1="1344" y1="107" x2="1340" y2="104"/>
<line x1="1332" y1="101" x2="1340" y2="104"/>
<line x1="1332" y1="101" x2="1328" y2="99"/>
<line x1="1358" y1="129" x2="1358" y2="124"/>
<line x1="1358" y1="129" x2="1360" y2="138"/>
<line x1="1344" y1="793" x2="1351" y2="787"/>
<line x1="1344" y1="793" x2="1340" y2="796"/>
<line x1="1332" y1="799" x2="1340" y2="796"/>
<line x1="1332" y1="799" x2="1328" y2="801"/>
<line x1="1353" y1="117" x2="1351" y2="113"/>
<line x1="1353" y1="117" x2="1358" y2="124"/>
<line x1="1281" y1="757" x2="1180" y2="757"/>
<line x1="1180" y1="757" x2="1159" y2="757"/>
<line x1="1025" y1="757" x2="723" y2="757"/>
<line x1="444" y1="757" x2="389" y2="757"/>
<line x1="389" y1="757" x2="336" y2="757"/>
<line x1="1025" y1="757" x2="1159" y2="757"/>
<line x1="444" y1="757" x2="723" y2="757"/>
<line x1="119" y1="757" x2="336" y2="757"/>
<line x1="1313" y1="342" x2="1313" y2="718"/>
<line x1="1313" y1="342" x2="1313" y2="99"/>
<line x1="87" y1="445" x2="87" y2="100"/>
<line x1="87" y1="445" x2="87" y2="718"/>
<line x1="1308" y1="736" x2="1304" y2="743"/>
<line x1="1308" y1="736" x2="1311" y2="732"/>
<line x1="114" y1="755" x2="119" y2="757"/>
<line x1="114" y1="755" x2="107" y2="752"/>
<line x1="93" y1="738" x2="89" y2="732"/>
<line x1="93" y1="738" x2="96" y2="743"/>
<line x1="1312" y1="724" x2="1311" y2="732"/>
<line x1="1312" y1="724" x2="1313" y2="718"/>
<line x1="88" y1="726" x2="87" y2="718"/>
<line x1="88" y1="726" x2="89" y2="732"/>
<line x1="1300" y1="747" x2="1304" y2="743"/>
<line x1="1300" y1="747" x2="1294" y2="752"/>
<line x1="1289" y1="754" x2="1294" y2="752"/>
<line x1="1289" y1="754" x2="1281" y2="757"/>
<line x1="102" y1="748" x2="107" y2="752"/>
<line x1="102" y1="748" x2="96" y2="743"/>
<line x1="87" y1="100" x2="78" y2="100"/>
<line x1="71" y1="100" x2="78" y2="100"/>
</g></svg>