<svg xmlns="http://www.w3.org/2000/svg" width="1400" height="900" viewBox="0 0 1400 900">
<rect x="0" y="0" width="100%" height="100%" fill="white"/>
<g stroke="#111" stroke-width="1.2" fill="none" stroke-linecap="round">
<line x1="1125" y1="839" x2="1126" y2="836"/>
<line x1="743" y1="855" x2="1114" y2="850"/>
<line x1="743" y1="855" x2="399" y2="860"/>
<line x1="392" y1="859" x2="394" y2="860"/>
<line x1="1126" y1="830" x2="1126" y2="836"/>
<line x1="1126" y1="830" x2="1126" y2="824"/>
<line x1="1114" y1="850" x2="1116" y2="850"/>
<line x1="387" y1="856" x2="389" y2="858"/>
<line x1="383" y1="851" x2="385" y2="853"/>
<line x1="383" y1="851" x2="383" y2="849"/>
<line x1="1121" y1="847" x2="1123" y2="846"/>
<line x1="1125" y1="841" x2="1125" y2="839"/>
<line x1="1116" y1="850" x2="1119" y2="849"/>
<line x1="397" y1="860" x2="399" y2="860"/>
<line x1="397" y1="860" x2="394" y2="860"/>
<line x1="1123" y1="846" x2="1124" y2="844"/>
<line x1="1124" y1="844" x2="1125" y2="841"/>
<line x1="382" y1="846" x2="383" y2="849"/>
<line x1="382" y1="835" x2="382" y2="846"/>
<line x1="382" y1="835" x2="382" y2="824"/>
<line x1="1119" y1="849" x2="1121" y2="847"/>
<line x1="389" y1="858" x2="392" y2="859"/>
<line x1="387" y1="856" x2="386" y2="855"/>
<line x1="386" y1="855" x2="385" y2="853"/>
<line x1="1126" y1="813" x2="1126" y2="824"/>
<line x1="1126" y1="813" x2="1125" y2="803"/>
<line x1="381" y1="814" x2="382" y2="824"/>
<line x1="381" y1="814" x2="381" y2="802"/>
<line x1="1125" y1="802" x2="1125" y2="803"/>
<line x1="1125" y1="802" x2="1125" y2="802"/>
<line x1="1121" y1="725" x2="1122" y2="736"/>
<line x1="1121" y1="725" x2="1121" y2="715"/>
<line x1="375" y1="726" x2="376" y2="737"/>
<line x1="375" y1="726" x2="374" y2="715"/>
<line x1="1122" y1="736" x2="1122" y2="737"/>
<line x1="1122" y1="736" x2="1122" y2="736"/>
<line x1="1119" y1="698" x2="1120" y2="702"/>
<line x1="1119" y1="698" x2="1119" y2="693"/>
<line x1="1120" y1="708" x2="1121" y2="715"/>
<line x1="1120" y1="708" x2="1120" y2="702"/>
<line x1="373" y1="705" x2="374" y2="715"/>
<line x1="373" y1="705" x2="372" y2="693"/>
<line x1="379" y1="770" x2="380" y2="780"/>
<line x1="379" y1="770" x2="378" y2="759"/>
<line x1="1124" y1="775" x2="1124" y2="780"/>
<line x1="1124" y1="775" x2="1124" y2="769"/>
<line x1="1124" y1="764" x2="1124" y2="769"/>
<line x1="1124" y1="764" x2="1123" y2="759"/>
<line x1="380" y1="792" x2="381" y2="802"/>
<line x1="380" y1="792" x2="380" y2="780"/>
<line x1="1125" y1="791" x2="1125" y2="802"/>
<line x1="1125" y1="791" x2="1124" y2="780"/>
<line x1="377" y1="748" x2="378" y2="759"/>
<line x1="377" y1="748" x2="376" y2="737"/>
<line x1="1123" y1="747" x2="1123" y2="759"/>
<line x1="1123" y1="747" x2="1122" y2="737"/>
<line x1="1116" y1="659" x2="1117" y2="669"/>
<line x1="1116" y1="659" x2="1115" y2="650"/>
<line x1="367" y1="661" x2="369" y2="672"/>
<line x1="367" y1="661" x2="365" y2="650"/>
<line x1="1117" y1="670" x2="1117" y2="672"/>
<line x1="1117" y1="670" x2="1117" y2="669"/>
<line x1="364" y1="641" x2="365" y2="650"/>
<line x1="364" y1="641" x2="362" y2="632"/>
<line x1="1114" y1="643" x2="1115" y2="650"/>
<line x1="1114" y1="643" x2="1113" y2="636"/>
<line x1="1113" y1="632" x2="1113" y2="636"/>
<line x1="1113" y1="632" x2="1113" y2="629"/>
<line x1="370" y1="683" x2="372" y2="693"/>
<line x1="370" y1="683" x2="369" y2="672"/>
<line x1="1118" y1="682" x2="1119" y2="693"/>
<line x1="1118" y1="682" x2="1117" y2="672"/>
<line x1="352" y1="580" x2="354" y2="591"/>
<line x1="352" y1="580" x2="349" y2="569"/>
<line x1="1105" y1="567" x2="1105" y2="569"/>
<line x1="1105" y1="567" x2="1104" y2="564"/>
<line x1="1106" y1="577" x2="1107" y2="586"/>
<line x1="1106" y1="577" x2="1105" y2="569"/>
<line x1="1096" y1="512" x2="1097" y2="522"/>
<line x1="1096" y1="512" x2="1094" y2="503"/>
<line x1="336" y1="516" x2="339" y2="527"/>
<line x1="336" y1="516" x2="333" y2="506"/>
<line x1="1094" y1="503" x2="1094" y2="500"/>
<line x1="1093" y1="497" x2="1093" y2="498"/>
<line x1="1093" y1="497" x2="1093" y2="496"/>
<line x1="1093" y1="498" x2="1094" y2="500"/>
<line x1="1111" y1="617" x2="1113" y2="629"/>
<line x1="1111" y1="617" x2="1110" y2="607"/>
<line x1="360" y1="622" x2="362" y2="632"/>
<line x1="360" y1="622" x2="358" y2="612"/>
<line x1="1086" y1="460" x2="1087" y2="465"/>
<line x1="1086" y1="460" x2="1085" y2="454"/>
<line x1="1088" y1="470" x2="1089" y2="475"/>
<line x1="1088" y1="470" x2="1087" y2="465"/>
<line x1="324" y1="474" x2="327" y2="485"/>
<line x1="324" y1="474" x2="321" y2="464"/>
<line x1="356" y1="601" x2="358" y2="612"/>
<line x1="356" y1="601" x2="354" y2="591"/>
<line x1="1108" y1="594" x2="1109" y2="602"/>
<line x1="1108" y1="594" x2="1107" y2="586"/>
<line x1="1110" y1="605" x2="1110" y2="607"/>
<line x1="1110" y1="605" x2="1109" y2="602"/>
<line x1="310" y1="432" x2="314" y2="443"/>
<line x1="310" y1="432" x2="307" y2="423"/>
<line x1="1078" y1="423" x2="1080" y2="432"/>
<line x1="1078" y1="423" x2="1076" y2="413"/>
<line x1="1081" y1="433" x2="1081" y2="433"/>
<line x1="1081" y1="433" x2="1080" y2="432"/>
<line x1="1072" y1="396" x2="1073" y2="399"/>
<line x1="1072" y1="396" x2="1072" y2="392"/>
<line x1="303" y1="413" x2="307" y2="423"/>
<line x1="303" y1="413" x2="299" y2="402"/>
<line x1="1075" y1="406" x2="1076" y2="413"/>
<line x1="1075" y1="406" x2="1073" y2="399"/>
<line x1="341" y1="537" x2="344" y2="548"/>
<line x1="341" y1="537" x2="339" y2="527"/>
<line x1="1099" y1="529" x2="1100" y2="536"/>
<line x1="1099" y1="529" x2="1097" y2="522"/>
<line x1="1100" y1="539" x2="1101" y2="543"/>
<line x1="1100" y1="539" x2="1100" y2="536"/>
<line x1="1103" y1="553" x2="1104" y2="564"/>
<line x1="1103" y1="553" x2="1101" y2="543"/>
<line x1="347" y1="558" x2="349" y2="569"/>
<line x1="347" y1="558" x2="344" y2="548"/>
<line x1="1064" y1="359" x2="1065" y2="367"/>
<line x1="1064" y1="359" x2="1062" y2="351"/>
<line x1="288" y1="372" x2="291" y2="382"/>
<line x1="288" y1="372" x2="283" y2="361"/>
<line x1="1066" y1="369" x2="1067" y2="372"/>
<line x1="1066" y1="369" x2="1065" y2="367"/>
<line x1="279" y1="352" x2="283" y2="361"/>
<line x1="279" y1="352" x2="275" y2="341"/>
<line x1="277" y1="327" x2="279" y2="326"/>
<line x1="948" y1="40" x2="950" y2="41"/>
<line x1="274" y1="336" x2="275" y2="333"/>
<line x1="978" y1="95" x2="984" y2="111"/>
<line x1="978" y1="95" x2="972" y2="80"/>
<line x1="1044" y1="286" x2="1048" y2="302"/>
<line x1="1044" y1="286" x2="1039" y2="270"/>
<line x1="959" y1="49" x2="957" y2="47"/>
<line x1="275" y1="341" x2="275" y2="339"/>
<line x1="623" y1="177" x2="938" y2="42"/>
<line x1="623" y1="177" x2="281" y2="324"/>
<line x1="965" y1="64" x2="972" y2="80"/>
<line x1="965" y1="64" x2="959" y2="49"/>
<line x1="1013" y1="191" x2="1019" y2="206"/>
<line x1="1013" y1="191" x2="1008" y2="174"/>
<line x1="956" y1="45" x2="957" y2="47"/>
<line x1="955" y1="44" x2="956" y2="45"/>
<line x1="274" y1="336" x2="275" y2="339"/>
<line x1="946" y1="40" x2="948" y2="40"/>
<line x1="946" y1="40" x2="943" y2="40"/>
<line x1="938" y1="42" x2="941" y2="41"/>
<line x1="941" y1="41" x2="943" y2="40"/>
<line x1="1024" y1="222" x2="1029" y2="238"/>
<line x1="1024" y1="222" x2="1019" y2="206"/>
<line x1="1002" y1="158" x2="1008" y2="174"/>
<line x1="1002" y1="158" x2="996" y2="143"/>
<line x1="279" y1="326" x2="281" y2="324"/>
<line x1="275" y1="333" x2="275" y2="331"/>
<line x1="275" y1="331" x2="276" y2="329"/>
<line x1="1053" y1="319" x2="1057" y2="334"/>
<line x1="1053" y1="319" x2="1048" y2="302"/>
<line x1="1034" y1="254" x2="1039" y2="270"/>
<line x1="1034" y1="254" x2="1029" y2="238"/>
<line x1="990" y1="126" x2="996" y2="143"/>
<line x1="990" y1="126" x2="984" y2="111"/>
<line x1="276" y1="329" x2="277" y2="327"/>
<line x1="1059" y1="343" x2="1062" y2="351"/>
<line x1="1059" y1="343" x2="1057" y2="334"/>
<line x1="950" y1="41" x2="953" y2="42"/>
<line x1="955" y1="44" x2="953" y2="42"/>
<line x1="330" y1="495" x2="333" y2="506"/>
<line x1="330" y1="495" x2="327" y2="485"/>
<line x1="1091" y1="486" x2="1093" y2="496"/>
<line x1="1091" y1="486" x2="1089" y2="475"/>
<line x1="317" y1="453" x2="321" y2="464"/>
<line x1="317" y1="453" x2="314" y2="443"/>
<line x1="1083" y1="444" x2="1085" y2="454"/>
<line x1="1083" y1="444" x2="1081" y2="433"/>
<line x1="1069" y1="382" x2="1072" y2="392"/>
<line x1="1069" y1="382" x2="1067" y2="372"/>
<line x1="295" y1="392" x2="299" y2="402"/>
<line x1="295" y1="392" x2="291" y2="382"/>
</g></svg>