<svg xmlns="http://www.w3.org/2000/svg" width="1400" height="900" viewBox="0 0 1400 900">
<rect x="0" y="0" width="100%" height="100%" fill="white"/>
<g stroke="#111" stroke-width="1.2" fill="none" stroke-linecap="round">
<line x1="1126" y1="821" x2="1126" y2="818"/>
<line x1="1126" y1="821" x2="1126" y2="830"/>
<line x1="393" y1="858" x2="398" y2="860"/>
<line x1="400" y1="860" x2="398" y2="860"/>
<line x1="400" y1="860" x2="405" y2="860"/>
<line x1="1125" y1="837" x2="1125" y2="835"/>
<line x1="1125" y1="835" x2="1126" y2="830"/>
<line x1="387" y1="854" x2="391" y2="857"/>
<line x1="1121" y1="843" x2="1122" y2="842"/>
<line x1="381" y1="833" x2="380" y2="818"/>
<line x1="381" y1="833" x2="381" y2="839"/>
<line x1="386" y1="853" x2="387" y2="854"/>
<line x1="382" y1="844" x2="381" y2="839"/>
<line x1="391" y1="857" x2="393" y2="858"/>
<line x1="385" y1="851" x2="386" y2="853"/>
<line x1="919" y1="853" x2="405" y2="860"/>
<line x1="919" y1="853" x2="1108" y2="851"/>
<line x1="1108" y1="851" x2="1113" y2="849"/>
<line x1="385" y1="851" x2="382" y2="846"/>
<line x1="382" y1="844" x2="382" y2="846"/>
<line x1="1122" y1="842" x2="1125" y2="837"/>
<line x1="1113" y1="849" x2="1115" y2="848"/>
<line x1="1119" y1="845" x2="1121" y2="843"/>
<line x1="1115" y1="848" x2="1119" y2="845"/>
<line x1="380" y1="812" x2="379" y2="796"/>
<line x1="380" y1="812" x2="380" y2="818"/>
<line x1="1125" y1="796" x2="1125" y2="796"/>
<line x1="1125" y1="796" x2="1125" y2="797"/>
<line x1="1125" y1="802" x2="1125" y2="797"/>
<line x1="1125" y1="802" x2="1126" y2="818"/>
<line x1="1122" y1="731" x2="1122" y2="731"/>
<line x1="1122" y1="731" x2="1122" y2="732"/>
<line x1="1121" y1="716" x2="1121" y2="711"/>
<line x1="1121" y1="716" x2="1122" y2="731"/>
<line x1="374" y1="726" x2="373" y2="711"/>
<line x1="374" y1="726" x2="375" y2="732"/>
<line x1="1120" y1="701" x2="1120" y2="698"/>
<line x1="1120" y1="701" x2="1121" y2="711"/>
<line x1="1119" y1="692" x2="1119" y2="689"/>
<line x1="1119" y1="692" x2="1120" y2="698"/>
<line x1="372" y1="705" x2="370" y2="689"/>
<line x1="372" y1="705" x2="373" y2="711"/>
<line x1="378" y1="769" x2="377" y2="753"/>
<line x1="378" y1="769" x2="378" y2="775"/>
<line x1="1124" y1="767" x2="1124" y2="764"/>
<line x1="1124" y1="767" x2="1124" y2="775"/>
<line x1="1123" y1="756" x2="1123" y2="753"/>
<line x1="1123" y1="756" x2="1124" y2="764"/>
<line x1="1125" y1="781" x2="1124" y2="775"/>
<line x1="1125" y1="781" x2="1125" y2="796"/>
<line x1="379" y1="790" x2="378" y2="775"/>
<line x1="379" y1="790" x2="379" y2="796"/>
<line x1="1122" y1="738" x2="1122" y2="732"/>
<line x1="1122" y1="738" x2="1123" y2="753"/>
<line x1="376" y1="748" x2="375" y2="732"/>
<line x1="376" y1="748" x2="377" y2="753"/>
<line x1="1117" y1="666" x2="1117" y2="665"/>
<line x1="1117" y1="666" x2="1117" y2="668"/>
<line x1="1116" y1="652" x2="1115" y2="647"/>
<line x1="1116" y1="652" x2="1117" y2="665"/>
<line x1="366" y1="662" x2="364" y2="647"/>
<line x1="366" y1="662" x2="367" y2="668"/>
<line x1="363" y1="642" x2="361" y2="630"/>
<line x1="363" y1="642" x2="364" y2="647"/>
<line x1="1114" y1="636" x2="1114" y2="632"/>
<line x1="1114" y1="636" x2="1115" y2="647"/>
<line x1="1113" y1="627" x2="1113" y2="626"/>
<line x1="1113" y1="627" x2="1114" y2="632"/>
<line x1="1118" y1="674" x2="1117" y2="668"/>
<line x1="1118" y1="674" x2="1119" y2="689"/>
<line x1="369" y1="684" x2="367" y2="668"/>
<line x1="369" y1="684" x2="370" y2="689"/>
<line x1="352" y1="585" x2="349" y2="570"/>
<line x1="352" y1="585" x2="353" y2="591"/>
<line x1="1106" y1="571" x2="1105" y2="567"/>
<line x1="1106" y1="571" x2="1107" y2="583"/>
<line x1="1105" y1="564" x2="1104" y2="562"/>
<line x1="1105" y1="564" x2="1105" y2="567"/>
<line x1="1093" y1="493" x2="1093" y2="493"/>
<line x1="1093" y1="493" x2="1093" y2="495"/>
<line x1="1094" y1="497" x2="1093" y2="495"/>
<line x1="1095" y1="507" x2="1095" y2="502"/>
<line x1="1095" y1="507" x2="1098" y2="521"/>
<line x1="337" y1="522" x2="333" y2="507"/>
<line x1="337" y1="522" x2="338" y2="528"/>
<line x1="1094" y1="497" x2="1095" y2="502"/>
<line x1="360" y1="625" x2="358" y2="612"/>
<line x1="360" y1="625" x2="361" y2="630"/>
<line x1="1111" y1="610" x2="1110" y2="604"/>
<line x1="1111" y1="610" x2="1113" y2="626"/>
<line x1="325" y1="481" x2="320" y2="466"/>
<line x1="325" y1="481" x2="327" y2="487"/>
<line x1="1088" y1="465" x2="1087" y2="462"/>
<line x1="1088" y1="465" x2="1089" y2="472"/>
<line x1="1086" y1="455" x2="1085" y2="452"/>
<line x1="1086" y1="455" x2="1087" y2="462"/>
<line x1="356" y1="606" x2="353" y2="591"/>
<line x1="356" y1="606" x2="358" y2="612"/>
<line x1="1108" y1="588" x2="1107" y2="583"/>
<line x1="1108" y1="588" x2="1110" y2="600"/>
<line x1="1110" y1="601" x2="1110" y2="600"/>
<line x1="1110" y1="601" x2="1110" y2="604"/>
<line x1="312" y1="440" x2="307" y2="425"/>
<line x1="312" y1="440" x2="314" y2="446"/>
<line x1="1078" y1="416" x2="1076" y2="411"/>
<line x1="1078" y1="416" x2="1081" y2="430"/>
<line x1="1081" y1="430" x2="1081" y2="430"/>
<line x1="1081" y1="430" x2="1081" y2="431"/>
<line x1="1072" y1="393" x2="1072" y2="391"/>
<line x1="1072" y1="393" x2="1074" y2="398"/>
<line x1="1074" y1="401" x2="1074" y2="398"/>
<line x1="1074" y1="401" x2="1076" y2="411"/>
<line x1="305" y1="420" x2="299" y2="405"/>
<line x1="305" y1="420" x2="307" y2="425"/>
<line x1="342" y1="543" x2="338" y2="528"/>
<line x1="342" y1="543" x2="344" y2="549"/>
<line x1="1098" y1="524" x2="1098" y2="521"/>
<line x1="1098" y1="524" x2="1100" y2="534"/>
<line x1="1100" y1="536" x2="1100" y2="534"/>
<line x1="1100" y1="536" x2="1101" y2="542"/>
<line x1="347" y1="564" x2="344" y2="549"/>
<line x1="347" y1="564" x2="349" y2="570"/>
<line x1="1102" y1="547" x2="1101" y2="542"/>
<line x1="1102" y1="547" x2="1104" y2="562"/>
<line x1="290" y1="380" x2="284" y2="365"/>
<line x1="290" y1="380" x2="292" y2="385"/>
<line x1="1063" y1="355" x2="1062" y2="351"/>
<line x1="1063" y1="355" x2="1066" y2="366"/>
<line x1="1066" y1="367" x2="1066" y2="366"/>
<line x1="1066" y1="367" x2="1067" y2="371"/>
<line x1="275" y1="333" x2="275" y2="331"/>
<line x1="274" y1="338" x2="275" y2="333"/>
<line x1="275" y1="343" x2="274" y2="338"/>
<line x1="275" y1="343" x2="275" y2="345"/>
<line x1="931" y1="43" x2="933" y2="42"/>
<line x1="956" y1="46" x2="957" y2="47"/>
<line x1="1023" y1="216" x2="1020" y2="208"/>
<line x1="1023" y1="216" x2="1030" y2="239"/>
<line x1="1051" y1="311" x2="1049" y2="302"/>
<line x1="1051" y1="311" x2="1058" y2="334"/>
<line x1="1042" y1="279" x2="1040" y2="270"/>
<line x1="1042" y1="279" x2="1049" y2="302"/>
<line x1="281" y1="323" x2="285" y2="320"/>
<line x1="958" y1="49" x2="957" y2="47"/>
<line x1="275" y1="331" x2="278" y2="326"/>
<line x1="459" y1="245" x2="931" y2="43"/>
<line x1="459" y1="245" x2="285" y2="320"/>
<line x1="933" y1="42" x2="938" y2="40"/>
<line x1="282" y1="360" x2="275" y2="345"/>
<line x1="282" y1="360" x2="284" y2="365"/>
<line x1="977" y1="92" x2="974" y2="84"/>
<line x1="977" y1="92" x2="986" y2="115"/>
<line x1="989" y1="123" x2="986" y2="115"/>
<line x1="989" y1="123" x2="998" y2="145"/>
<line x1="278" y1="326" x2="279" y2="325"/>
<line x1="279" y1="325" x2="281" y2="323"/>
<line x1="943" y1="40" x2="945" y2="40"/>
<line x1="943" y1="40" x2="938" y2="40"/>
<line x1="965" y1="62" x2="961" y2="54"/>
<line x1="965" y1="62" x2="974" y2="84"/>
<line x1="1012" y1="185" x2="1009" y2="176"/>
<line x1="1012" y1="185" x2="1020" y2="208"/>
<line x1="1059" y1="338" x2="1058" y2="334"/>
<line x1="1059" y1="338" x2="1062" y2="351"/>
<line x1="952" y1="43" x2="956" y2="46"/>
<line x1="958" y1="49" x2="961" y2="54"/>
<line x1="1001" y1="154" x2="998" y2="145"/>
<line x1="1001" y1="154" x2="1009" y2="176"/>
<line x1="1033" y1="247" x2="1030" y2="239"/>
<line x1="1033" y1="247" x2="1040" y2="270"/>
<line x1="945" y1="40" x2="950" y2="42"/>
<line x1="950" y1="42" x2="952" y2="43"/>
<line x1="331" y1="502" x2="327" y2="487"/>
<line x1="331" y1="502" x2="333" y2="507"/>
<line x1="1090" y1="478" x2="1089" y2="472"/>
<line x1="1090" y1="478" x2="1093" y2="493"/>
<line x1="1082" y1="437" x2="1081" y2="431"/>
<line x1="1082" y1="437" x2="1085" y2="452"/>
<line x1="319" y1="461" x2="314" y2="446"/>
<line x1="319" y1="461" x2="320" y2="466"/>
<line x1="1068" y1="376" x2="1067" y2="371"/>
<line x1="1068" y1="376" x2="1072" y2="391"/>
<line x1="297" y1="400" x2="292" y2="385"/>
<line x1="297" y1="400" x2="299" y2="405"/>
</g></svg>