<svg xmlns="http://www.w3.org/2000/svg" width="1400" height="900" viewBox="0 0 1400 900">
<rect x="0" y="0" width="100%" height="100%" fill="white"/>
<g stroke="#111" stroke-width="1.2" fill="none" stroke-linecap="round">
<line x1="100" y1="140" x2="99" y2="140"/>
<line x1="81" y1="140" x2="93" y2="140"/>
<line x1="93" y1="140" x2="95" y2="140"/>
<line x1="95" y1="140" x2="96" y2="140"/>
<line x1="96" y1="140" x2="97" y2="140"/>
<line x1="97" y1="140" x2="97" y2="140"/>
<line x1="97" y1="140" x2="98" y2="140"/>
<line x1="98" y1="140" x2="99" y2="140"/>
<line x1="99" y1="140" x2="99" y2="140"/>
<line x1="99" y1="140" x2="99" y2="140"/>
<line x1="84" y1="760" x2="81" y2="760"/>
<line x1="119" y1="760" x2="84" y2="760"/>
<line x1="119" y1="760" x2="140" y2="760"/>
<line x1="140" y1="760" x2="160" y2="760"/>
<line x1="165" y1="760" x2="160" y2="760"/>
<line x1="167" y1="760" x2="165" y2="760"/>
<line x1="210" y1="760" x2="212" y2="760"/>
<line x1="212" y1="760" x2="250" y2="760"/>
<line x1="254" y1="760" x2="250" y2="760"/>
<line x1="277" y1="760" x2="293" y2="760"/>
<line x1="293" y1="760" x2="330" y2="760"/>
<line x1="337" y1="760" x2="330" y2="760"/>
<line x1="337" y1="760" x2="342" y2="760"/>
<line x1="342" y1="760" x2="373" y2="760"/>
<line x1="380" y1="760" x2="404" y2="760"/>
<line x1="404" y1="760" x2="415" y2="760"/>
<line x1="415" y1="760" x2="448" y2="760"/>
<line x1="457" y1="760" x2="448" y2="760"/>
<line x1="457" y1="760" x2="465" y2="760"/>
<line x1="500" y1="760" x2="489" y2="760"/>
<line x1="500" y1="760" x2="524" y2="760"/>
<line x1="524" y1="760" x2="531" y2="760"/>
<line x1="531" y1="760" x2="560" y2="760"/>
<line x1="572" y1="760" x2="560" y2="760"/>
<line x1="572" y1="760" x2="582" y2="760"/>
<line x1="612" y1="760" x2="601" y2="760"/>
<line x1="612" y1="760" x2="638" y2="760"/>
<line x1="638" y1="760" x2="639" y2="760"/>
<line x1="639" y1="760" x2="642" y2="760"/>
<line x1="642" y1="760" x2="669" y2="760"/>
<line x1="682" y1="760" x2="669" y2="760"/>
<line x1="694" y1="760" x2="708" y2="760"/>
<line x1="722" y1="760" x2="708" y2="760"/>
<line x1="722" y1="760" x2="747" y2="760"/>
<line x1="747" y1="760" x2="748" y2="760"/>
<line x1="748" y1="760" x2="771" y2="760"/>
<line x1="786" y1="760" x2="801" y2="760"/>
<line x1="801" y1="760" x2="809" y2="760"/>
<line x1="847" y1="760" x2="831" y2="760"/>
<line x1="847" y1="760" x2="853" y2="760"/>
<line x1="886" y1="760" x2="869" y2="760"/>
<line x1="886" y1="760" x2="903" y2="760"/>
<line x1="953" y1="760" x2="936" y2="760"/>
<line x1="953" y1="760" x2="984" y2="760"/>
<line x1="1002" y1="760" x2="1031" y2="760"/>
<line x1="1050" y1="760" x2="1031" y2="760"/>
<line x1="167" y1="760" x2="210" y2="760"/>
<line x1="254" y1="760" x2="277" y2="760"/>
<line x1="380" y1="760" x2="373" y2="760"/>
<line x1="465" y1="760" x2="489" y2="760"/>
<line x1="582" y1="760" x2="601" y2="760"/>
<line x1="682" y1="760" x2="694" y2="760"/>
<line x1="786" y1="760" x2="771" y2="760"/>
<line x1="809" y1="760" x2="831" y2="760"/>
<line x1="853" y1="760" x2="869" y2="760"/>
<line x1="903" y1="760" x2="936" y2="760"/>
<line x1="1002" y1="760" x2="984" y2="760"/>
<line x1="1050" y1="760" x2="1078" y2="760"/>
<line x1="1097" y1="760" x2="1078" y2="760"/>
<line x1="1097" y1="760" x2="1124" y2="760"/>
<line x1="1144" y1="760" x2="1124" y2="760"/>
<line x1="1144" y1="760" x2="1169" y2="760"/>
<line x1="1190" y1="760" x2="1169" y2="760"/>
<line x1="1190" y1="760" x2="1214" y2="760"/>
<line x1="1235" y1="760" x2="1214" y2="760"/>
<line x1="1235" y1="760" x2="1283" y2="760"/>
<line x1="1329" y1="760" x2="1283" y2="760"/>
<line x1="67" y1="143" x2="65" y2="144"/>
<line x1="67" y1="143" x2="74" y2="141"/>
<line x1="57" y1="752" x2="52" y2="749"/>
<line x1="57" y1="752" x2="65" y2="756"/>
<line x1="48" y1="156" x2="52" y2="151"/>
<line x1="48" y1="156" x2="43" y2="162"/>
<line x1="42" y1="165" x2="43" y2="162"/>
<line x1="42" y1="165" x2="40" y2="174"/>
<line x1="75" y1="141" x2="74" y2="141"/>
<line x1="75" y1="141" x2="75" y2="141"/>
<line x1="75" y1="759" x2="74" y2="759"/>
<line x1="75" y1="759" x2="75" y2="759"/>
<line x1="40" y1="318" x2="40" y2="174"/>
<line x1="40" y1="318" x2="40" y2="726"/>
<line x1="47" y1="742" x2="43" y2="738"/>
<line x1="47" y1="742" x2="52" y2="749"/>
<line x1="57" y1="148" x2="52" y2="151"/>
<line x1="57" y1="148" x2="65" y2="144"/>
<line x1="67" y1="757" x2="65" y2="756"/>
<line x1="67" y1="757" x2="74" y2="759"/>
<line x1="41" y1="730" x2="40" y2="726"/>
<line x1="41" y1="730" x2="43" y2="738"/>
<line x1="80" y1="760" x2="75" y2="759"/>
<line x1="80" y1="760" x2="81" y2="760"/>
<line x1="80" y1="140" x2="75" y2="141"/>
<line x1="80" y1="140" x2="81" y2="140"/>
<line x1="1360" y1="383" x2="1360" y2="174"/>
<line x1="1360" y1="383" x2="1360" y2="726"/>
<line x1="1354" y1="745" x2="1351" y2="749"/>
<line x1="1354" y1="745" x2="1358" y2="738"/>
<line x1="1359" y1="166" x2="1358" y2="162"/>
<line x1="1359" y1="166" x2="1360" y2="174"/>
<line x1="1332" y1="140" x2="1342" y2="144"/>
<line x1="1332" y1="140" x2="1330" y2="140"/>
<line x1="1354" y1="155" x2="1351" y2="151"/>
<line x1="1354" y1="155" x2="1358" y2="162"/>
<line x1="1359" y1="734" x2="1358" y2="738"/>
<line x1="1359" y1="734" x2="1360" y2="726"/>
<line x1="1345" y1="147" x2="1342" y2="144"/>
<line x1="1345" y1="147" x2="1351" y2="151"/>
<line x1="1345" y1="753" x2="1342" y2="756"/>
<line x1="1345" y1="753" x2="1351" y2="749"/>
<line x1="1334" y1="759" x2="1329" y2="760"/>
<line x1="1334" y1="759" x2="1342" y2="756"/>
<line x1="142" y1="722" x2="144" y2="722"/>
<line x1="160" y1="722" x2="196" y2="722"/>
<line x1="196" y1="722" x2="199" y2="722"/>
<line x1="202" y1="722" x2="242" y2="722"/>
<line x1="244" y1="722" x2="260" y2="722"/>
<line x1="260" y1="722" x2="282" y2="722"/>
<line x1="286" y1="722" x2="319" y2="722"/>
<line x1="319" y1="722" x2="323" y2="722"/>
<line x1="323" y1="722" x2="358" y2="722"/>
<line x1="364" y1="722" x2="377" y2="722"/>
<line x1="377" y1="722" x2="398" y2="722"/>
<line x1="404" y1="722" x2="434" y2="722"/>
<line x1="434" y1="722" x2="437" y2="722"/>
<line x1="437" y1="722" x2="469" y2="722"/>
<line x1="477" y1="722" x2="489" y2="722"/>
<line x1="489" y1="722" x2="507" y2="722"/>
<line x1="516" y1="722" x2="543" y2="722"/>
<line x1="543" y1="722" x2="546" y2="722"/>
<line x1="546" y1="722" x2="574" y2="722"/>
<line x1="585" y1="722" x2="596" y2="722"/>
<line x1="596" y1="722" x2="612" y2="722"/>
<line x1="623" y1="722" x2="647" y2="722"/>
<line x1="647" y1="722" x2="648" y2="722"/>
<line x1="648" y1="722" x2="651" y2="722"/>
<line x1="651" y1="722" x2="676" y2="722"/>
<line x1="688" y1="722" x2="699" y2="722"/>
<line x1="699" y1="722" x2="713" y2="722"/>
<line x1="726" y1="722" x2="748" y2="722"/>
<line x1="748" y1="722" x2="749" y2="722"/>
<line x1="749" y1="722" x2="772" y2="722"/>
<line x1="786" y1="722" x2="797" y2="722"/>
<line x1="797" y1="722" x2="808" y2="722"/>
<line x1="823" y1="722" x2="844" y2="722"/>
<line x1="844" y1="722" x2="844" y2="722"/>
<line x1="844" y1="722" x2="864" y2="722"/>
<line x1="880" y1="722" x2="891" y2="722"/>
<line x1="891" y1="722" x2="921" y2="722"/>
<line x1="937" y1="722" x2="965" y2="722"/>
<line x1="982" y1="722" x2="1009" y2="722"/>
<line x1="1027" y1="722" x2="1053" y2="722"/>
<line x1="1071" y1="722" x2="1095" y2="722"/>
<line x1="1114" y1="722" x2="1137" y2="722"/>
<line x1="1156" y1="722" x2="1179" y2="722"/>
<line x1="1243" y1="722" x2="1198" y2="722"/>
<line x1="726" y1="722" x2="713" y2="722"/>
<line x1="202" y1="722" x2="199" y2="722"/>
<line x1="160" y1="722" x2="144" y2="722"/>
<line x1="244" y1="722" x2="242" y2="722"/>
<line x1="286" y1="722" x2="282" y2="722"/>
<line x1="364" y1="722" x2="358" y2="722"/>
<line x1="404" y1="722" x2="398" y2="722"/>
<line x1="477" y1="722" x2="469" y2="722"/>
<line x1="516" y1="722" x2="507" y2="722"/>
<line x1="585" y1="722" x2="574" y2="722"/>
<line x1="623" y1="722" x2="612" y2="722"/>
<line x1="688" y1="722" x2="676" y2="722"/>
<line x1="786" y1="722" x2="772" y2="722"/>
<line x1="823" y1="722" x2="808" y2="722"/>
<line x1="880" y1="722" x2="864" y2="722"/>
<line x1="937" y1="722" x2="921" y2="722"/>
<line x1="982" y1="722" x2="965" y2="722"/>
<line x1="1027" y1="722" x2="1009" y2="722"/>
<line x1="1071" y1="722" x2="1053" y2="722"/>
<line x1="1114" y1="722" x2="1095" y2="722"/>
<line x1="1156" y1="722" x2="1137" y2="722"/>
<line x1="1198" y1="722" x2="1179" y2="722"/>
<line x1="1243" y1="722" x2="1287" y2="722"/>
<line x1="140" y1="721" x2="136" y2="720"/>
<line x1="140" y1="721" x2="142" y2="722"/>
<line x1="122" y1="715" x2="117" y2="713"/>
<line x1="122" y1="715" x2="126" y2="717"/>
<line x1="131" y1="719" x2="126" y2="717"/>
<line x1="131" y1="719" x2="136" y2="720"/>
<line x1="100" y1="348" x2="100" y2="688"/>
<line x1="100" y1="348" x2="100" y2="140"/>
<line x1="101" y1="692" x2="103" y2="699"/>
<line x1="101" y1="692" x2="100" y2="688"/>
<line x1="106" y1="702" x2="112" y2="710"/>
<line x1="106" y1="702" x2="103" y2="699"/>
<line x1="113" y1="710" x2="112" y2="710"/>
<line x1="113" y1="710" x2="117" y2="713"/>
<line x1="1316" y1="695" x2="1317" y2="688"/>
<line x1="1316" y1="695" x2="1315" y2="699"/>
<line x1="1311" y1="706" x2="1315" y2="699"/>
<line x1="1311" y1="706" x2="1309" y2="710"/>
<line x1="1317" y1="244" x2="1317" y2="140"/>
<line x1="1317" y1="244" x2="1317" y2="688"/>
<line x1="1303" y1="714" x2="1299" y2="717"/>
<line x1="1303" y1="714" x2="1309" y2="710"/>
<line x1="1291" y1="720" x2="1287" y2="722"/>
<line x1="1291" y1="720" x2="1299" y2="717"/>
<line x1="1320" y1="140" x2="1330" y2="140"/>
<line x1="1320" y1="140" x2="1317" y2="140"/>
</g></svg>