<svg xmlns="http://www.w3.org/2000/svg" width="1400" height="900" viewBox="0 0 1400 900">
<rect x="0" y="0" width="100%" height="100%" fill="white"/>
<g stroke="#111" stroke-width="1.2" fill="none" stroke-linecap="round">
<line x1="1328" y1="102" x2="1324" y2="102"/>
<line x1="1319" y1="102" x2="1318" y2="102"/>
<line x1="1319" y1="102" x2="1324" y2="102"/>
<line x1="1313" y1="102" x2="1318" y2="102"/>
<line x1="1284" y1="798" x2="1328" y2="798"/>
<line x1="1284" y1="798" x2="1260" y2="798"/>
<line x1="1260" y1="798" x2="1063" y2="798"/>
<line x1="1010" y1="798" x2="1063" y2="798"/>
<line x1="933" y1="798" x2="855" y2="798"/>
<line x1="855" y1="798" x2="744" y2="798"/>
<line x1="646" y1="798" x2="744" y2="798"/>
<line x1="646" y1="798" x2="646" y2="798"/>
<line x1="646" y1="798" x2="565" y2="798"/>
<line x1="436" y1="798" x2="405" y2="798"/>
<line x1="405" y1="798" x2="385" y2="798"/>
<line x1="385" y1="798" x2="346" y2="798"/>
<line x1="204" y1="798" x2="346" y2="798"/>
<line x1="204" y1="798" x2="202" y2="798"/>
<line x1="202" y1="798" x2="188" y2="798"/>
<line x1="188" y1="798" x2="72" y2="798"/>
<line x1="1010" y1="798" x2="933" y2="798"/>
<line x1="436" y1="798" x2="565" y2="798"/>
<line x1="57" y1="108" x2="59" y2="106"/>
<line x1="57" y1="108" x2="49" y2="115"/>
<line x1="1338" y1="105" x2="1341" y2="106"/>
<line x1="1338" y1="105" x2="1328" y2="102"/>
<line x1="1360" y1="641" x2="1360" y2="140"/>
<line x1="1360" y1="641" x2="1360" y2="760"/>
<line x1="1349" y1="787" x2="1351" y2="785"/>
<line x1="1349" y1="787" x2="1341" y2="794"/>
<line x1="1356" y1="124" x2="1351" y2="115"/>
<line x1="1356" y1="124" x2="1358" y2="127"/>
<line x1="40" y1="220" x2="40" y2="760"/>
<line x1="40" y1="220" x2="40" y2="140"/>
<line x1="70" y1="102" x2="71" y2="102"/>
<line x1="59" y1="106" x2="70" y2="102"/>
<line x1="43" y1="125" x2="42" y2="127"/>
<line x1="43" y1="125" x2="49" y2="115"/>
<line x1="40" y1="138" x2="40" y2="140"/>
<line x1="40" y1="138" x2="42" y2="127"/>
<line x1="1349" y1="113" x2="1351" y2="115"/>
<line x1="1349" y1="113" x2="1341" y2="106"/>
<line x1="40" y1="762" x2="42" y2="773"/>
<line x1="40" y1="762" x2="40" y2="760"/>
<line x1="1360" y1="137" x2="1358" y2="127"/>
<line x1="1360" y1="137" x2="1360" y2="140"/>
<line x1="69" y1="797" x2="72" y2="798"/>
<line x1="69" y1="797" x2="59" y2="794"/>
<line x1="43" y1="775" x2="49" y2="785"/>
<line x1="43" y1="775" x2="42" y2="773"/>
<line x1="1338" y1="795" x2="1341" y2="794"/>
<line x1="1338" y1="795" x2="1328" y2="798"/>
<line x1="1358" y1="771" x2="1360" y2="760"/>
<line x1="1358" y1="771" x2="1358" y2="773"/>
<line x1="57" y1="792" x2="59" y2="794"/>
<line x1="57" y1="792" x2="49" y2="785"/>
<line x1="1352" y1="783" x2="1358" y2="773"/>
<line x1="1352" y1="783" x2="1351" y2="785"/>
<line x1="1281" y1="755" x2="1263" y2="755"/>
<line x1="1263" y1="755" x2="1260" y2="755"/>
<line x1="1260" y1="755" x2="1246" y2="755"/>
<line x1="1246" y1="755" x2="1235" y2="755"/>
<line x1="1235" y1="755" x2="1230" y2="755"/>
<line x1="1230" y1="755" x2="1216" y2="755"/>
<line x1="1216" y1="755" x2="1214" y2="755"/>
<line x1="1214" y1="755" x2="1204" y2="755"/>
<line x1="1204" y1="755" x2="1197" y2="755"/>
<line x1="1197" y1="755" x2="1194" y2="755"/>
<line x1="1194" y1="755" x2="1184" y2="755"/>
<line x1="1184" y1="755" x2="1182" y2="755"/>
<line x1="1182" y1="755" x2="1175" y2="755"/>
<line x1="1175" y1="755" x2="1169" y2="755"/>
<line x1="1169" y1="755" x2="1169" y2="755"/>
<line x1="1169" y1="755" x2="1166" y2="755"/>
<line x1="178" y1="755" x2="119" y2="755"/>
<line x1="238" y1="755" x2="178" y2="755"/>
<line x1="238" y1="755" x2="1166" y2="755"/>
<line x1="1295" y1="749" x2="1304" y2="741"/>
<line x1="1295" y1="749" x2="1294" y2="750"/>
<line x1="1305" y1="740" x2="1304" y2="741"/>
<line x1="1305" y1="740" x2="1311" y2="730"/>
<line x1="1311" y1="728" x2="1311" y2="730"/>
<line x1="1311" y1="728" x2="1313" y2="717"/>
<line x1="1313" y1="633" x2="1313" y2="717"/>
<line x1="1313" y1="633" x2="1313" y2="102"/>
<line x1="87" y1="222" x2="87" y2="102"/>
<line x1="87" y1="222" x2="87" y2="717"/>
<line x1="1283" y1="754" x2="1294" y2="750"/>
<line x1="1283" y1="754" x2="1281" y2="755"/>
<line x1="108" y1="751" x2="119" y2="755"/>
<line x1="108" y1="751" x2="107" y2="750"/>
<line x1="95" y1="739" x2="90" y2="730"/>
<line x1="95" y1="739" x2="96" y2="741"/>
<line x1="98" y1="743" x2="107" y2="750"/>
<line x1="98" y1="743" x2="96" y2="741"/>
<line x1="89" y1="727" x2="87" y2="717"/>
<line x1="89" y1="727" x2="90" y2="730"/>
<line x1="72" y1="102" x2="71" y2="102"/>
<line x1="72" y1="102" x2="77" y2="102"/>
<line x1="77" y1="102" x2="87" y2="102"/>
<line x1="72" y1="102" x2="72" y2="102"/>
</g></svg>