<svg xmlns="http://www.w3.org/2000/svg" width="1400" height="900" viewBox="0 0 1400 900">
<rect x="0" y="0" width="100%" height="100%" fill="white"/>
<g stroke="#111" stroke-width="1.2" fill="none" stroke-linecap="round">
<line x1="1321" y1="116" x2="1328" y2="116"/>
<line x1="1321" y1="116" x2="1314" y2="116"/>
<line x1="1284" y1="784" x2="1328" y2="784"/>
<line x1="1279" y1="784" x2="1284" y2="784"/>
<line x1="1202" y1="784" x2="1073" y2="784"/>
<line x1="1052" y1="784" x2="1073" y2="784"/>
<line x1="916" y1="784" x2="945" y2="784"/>
<line x1="916" y1="784" x2="827" y2="784"/>
<line x1="790" y1="784" x2="717" y2="784"/>
<line x1="673" y1="784" x2="717" y2="784"/>
<line x1="1279" y1="784" x2="1202" y2="784"/>
<line x1="1052" y1="784" x2="945" y2="784"/>
<line x1="790" y1="784" x2="827" y2="784"/>
<line x1="673" y1="784" x2="615" y2="784"/>
<line x1="565" y1="784" x2="615" y2="784"/>
<line x1="565" y1="784" x2="519" y2="784"/>
<line x1="465" y1="784" x2="519" y2="784"/>
<line x1="465" y1="784" x2="430" y2="784"/>
<line x1="372" y1="784" x2="430" y2="784"/>
<line x1="372" y1="784" x2="346" y2="784"/>
<line x1="285" y1="784" x2="346" y2="784"/>
<line x1="285" y1="784" x2="267" y2="784"/>
<line x1="203" y1="784" x2="267" y2="784"/>
<line x1="203" y1="784" x2="192" y2="784"/>
<line x1="126" y1="784" x2="192" y2="784"/>
<line x1="126" y1="784" x2="75" y2="784"/>
<line x1="75" y1="784" x2="73" y2="784"/>
<line x1="1355" y1="765" x2="1358" y2="760"/>
<line x1="70" y1="783" x2="73" y2="784"/>
<line x1="70" y1="783" x2="60" y2="780"/>
<line x1="1337" y1="781" x2="1328" y2="784"/>
<line x1="1337" y1="781" x2="1341" y2="780"/>
<line x1="1358" y1="142" x2="1360" y2="152"/>
<line x1="1358" y1="142" x2="1358" y2="140"/>
<line x1="1358" y1="758" x2="1360" y2="748"/>
<line x1="1358" y1="758" x2="1358" y2="760"/>
<line x1="1360" y1="540" x2="1360" y2="152"/>
<line x1="1360" y1="540" x2="1360" y2="748"/>
<line x1="69" y1="117" x2="72" y2="116"/>
<line x1="69" y1="117" x2="60" y2="120"/>
<line x1="1350" y1="128" x2="1351" y2="128"/>
<line x1="1350" y1="128" x2="1341" y2="120"/>
<line x1="59" y1="779" x2="60" y2="780"/>
<line x1="59" y1="779" x2="51" y2="773"/>
<line x1="59" y1="121" x2="60" y2="120"/>
<line x1="59" y1="121" x2="51" y2="127"/>
<line x1="1358" y1="140" x2="1355" y2="135"/>
<line x1="1351" y1="128" x2="1355" y2="135"/>
<line x1="1337" y1="119" x2="1341" y2="120"/>
<line x1="1337" y1="119" x2="1328" y2="116"/>
<line x1="1350" y1="772" x2="1341" y2="780"/>
<line x1="1350" y1="772" x2="1351" y2="772"/>
<line x1="1355" y1="765" x2="1351" y2="772"/>
<line x1="42" y1="759" x2="42" y2="760"/>
<line x1="42" y1="759" x2="40" y2="748"/>
<line x1="40" y1="662" x2="40" y2="748"/>
<line x1="40" y1="662" x2="40" y2="152"/>
<line x1="50" y1="772" x2="51" y2="773"/>
<line x1="50" y1="772" x2="49" y2="772"/>
<line x1="49" y1="771" x2="49" y2="772"/>
<line x1="49" y1="771" x2="42" y2="760"/>
<line x1="42" y1="141" x2="42" y2="140"/>
<line x1="42" y1="141" x2="40" y2="152"/>
<line x1="50" y1="128" x2="51" y2="127"/>
<line x1="50" y1="128" x2="49" y2="128"/>
<line x1="49" y1="129" x2="49" y2="128"/>
<line x1="49" y1="129" x2="42" y2="140"/>
<line x1="1282" y1="743" x2="1253" y2="743"/>
<line x1="1253" y1="743" x2="1125" y2="743"/>
<line x1="1112" y1="743" x2="1003" y2="743"/>
<line x1="981" y1="743" x2="890" y2="743"/>
<line x1="860" y1="743" x2="785" y2="743"/>
<line x1="748" y1="743" x2="686" y2="743"/>
<line x1="644" y1="743" x2="594" y2="743"/>
<line x1="546" y1="743" x2="507" y2="743"/>
<line x1="455" y1="743" x2="425" y2="743"/>
<line x1="370" y1="743" x2="348" y2="743"/>
<line x1="289" y1="743" x2="275" y2="743"/>
<line x1="251" y1="743" x2="275" y2="743"/>
<line x1="1112" y1="743" x2="1125" y2="743"/>
<line x1="981" y1="743" x2="1003" y2="743"/>
<line x1="860" y1="743" x2="890" y2="743"/>
<line x1="748" y1="743" x2="785" y2="743"/>
<line x1="644" y1="743" x2="686" y2="743"/>
<line x1="546" y1="743" x2="594" y2="743"/>
<line x1="455" y1="743" x2="507" y2="743"/>
<line x1="370" y1="743" x2="425" y2="743"/>
<line x1="289" y1="743" x2="348" y2="743"/>
<line x1="199" y1="743" x2="251" y2="743"/>
<line x1="125" y1="743" x2="199" y2="743"/>
<line x1="125" y1="743" x2="123" y2="743"/>
<line x1="121" y1="743" x2="123" y2="743"/>
<line x1="88" y1="559" x2="88" y2="116"/>
<line x1="88" y1="559" x2="88" y2="706"/>
<line x1="1282" y1="743" x2="1291" y2="740"/>
<line x1="104" y1="734" x2="108" y2="738"/>
<line x1="104" y1="734" x2="98" y2="730"/>
<line x1="93" y1="722" x2="98" y2="730"/>
<line x1="93" y1="722" x2="91" y2="719"/>
<line x1="89" y1="709" x2="91" y2="719"/>
<line x1="89" y1="709" x2="88" y2="706"/>
<line x1="114" y1="740" x2="121" y2="743"/>
<line x1="114" y1="740" x2="108" y2="738"/>
<line x1="1312" y1="715" x2="1314" y2="706"/>
<line x1="1312" y1="715" x2="1312" y2="719"/>
<line x1="1306" y1="727" x2="1312" y2="719"/>
<line x1="1306" y1="727" x2="1305" y2="730"/>
<line x1="1314" y1="310" x2="1314" y2="706"/>
<line x1="1314" y1="310" x2="1314" y2="116"/>
<line x1="1295" y1="738" x2="1305" y2="730"/>
<line x1="1295" y1="738" x2="1295" y2="738"/>
<line x1="1295" y1="738" x2="1291" y2="740"/>
<line x1="72" y1="116" x2="84" y2="116"/>
<line x1="88" y1="116" x2="84" y2="116"/>
</g></svg>