<svg xmlns="http://www.w3.org/2000/svg" width="1400" height="900" viewBox="0 0 1400 900">
<rect x="0" y="0" width="100%" height="100%" fill="white"/>
<g stroke="#111" stroke-width="1.2" fill="none" stroke-linecap="round">
<line x1="1328" y1="116" x2="1314" y2="116"/>
<line x1="1314" y1="116" x2="1314" y2="116"/>
<line x1="1315" y1="784" x2="1317" y2="784"/>
<line x1="1315" y1="784" x2="1202" y2="784"/>
<line x1="1006" y1="784" x2="1037" y2="784"/>
<line x1="1006" y1="784" x2="876" y2="784"/>
<line x1="830" y1="784" x2="731" y2="784"/>
<line x1="673" y1="784" x2="731" y2="784"/>
<line x1="1317" y1="784" x2="1328" y2="784"/>
<line x1="1202" y1="784" x2="1037" y2="784"/>
<line x1="830" y1="784" x2="876" y2="784"/>
<line x1="673" y1="784" x2="598" y2="784"/>
<line x1="531" y1="784" x2="598" y2="784"/>
<line x1="531" y1="784" x2="476" y2="784"/>
<line x1="402" y1="784" x2="476" y2="784"/>
<line x1="402" y1="784" x2="364" y2="784"/>
<line x1="285" y1="784" x2="364" y2="784"/>
<line x1="285" y1="784" x2="261" y2="784"/>
<line x1="177" y1="784" x2="261" y2="784"/>
<line x1="177" y1="784" x2="156" y2="784"/>
<line x1="76" y1="784" x2="74" y2="784"/>
<line x1="76" y1="784" x2="156" y2="784"/>
<line x1="74" y1="784" x2="73" y2="784"/>
<line x1="1344" y1="777" x2="1341" y2="780"/>
<line x1="1344" y1="777" x2="1351" y2="772"/>
<line x1="1359" y1="754" x2="1360" y2="748"/>
<line x1="1359" y1="754" x2="1358" y2="760"/>
<line x1="1354" y1="767" x2="1358" y2="760"/>
<line x1="1354" y1="767" x2="1351" y2="772"/>
<line x1="1330" y1="116" x2="1341" y2="120"/>
<line x1="1330" y1="116" x2="1328" y2="116"/>
<line x1="1330" y1="784" x2="1328" y2="784"/>
<line x1="1330" y1="784" x2="1341" y2="780"/>
<line x1="1359" y1="146" x2="1360" y2="152"/>
<line x1="1359" y1="146" x2="1358" y2="140"/>
<line x1="1360" y1="429" x2="1360" y2="152"/>
<line x1="1360" y1="429" x2="1360" y2="748"/>
<line x1="1354" y1="133" x2="1358" y2="140"/>
<line x1="1354" y1="133" x2="1351" y2="128"/>
<line x1="1344" y1="123" x2="1351" y2="128"/>
<line x1="1344" y1="123" x2="1341" y2="120"/>
<line x1="52" y1="774" x2="60" y2="780"/>
<line x1="52" y1="774" x2="49" y2="772"/>
<line x1="40" y1="534" x2="40" y2="748"/>
<line x1="40" y1="534" x2="40" y2="152"/>
<line x1="62" y1="781" x2="73" y2="784"/>
<line x1="62" y1="781" x2="60" y2="780"/>
<line x1="42" y1="144" x2="42" y2="140"/>
<line x1="42" y1="144" x2="40" y2="152"/>
<line x1="47" y1="132" x2="49" y2="128"/>
<line x1="47" y1="132" x2="42" y2="140"/>
<line x1="52" y1="126" x2="60" y2="120"/>
<line x1="52" y1="126" x2="49" y2="128"/>
<line x1="62" y1="119" x2="72" y2="116"/>
<line x1="62" y1="119" x2="60" y2="120"/>
<line x1="42" y1="756" x2="42" y2="760"/>
<line x1="42" y1="756" x2="40" y2="748"/>
<line x1="47" y1="768" x2="49" y2="772"/>
<line x1="47" y1="768" x2="42" y2="760"/>
<line x1="1282" y1="743" x2="1253" y2="743"/>
<line x1="1253" y1="743" x2="1088" y2="743"/>
<line x1="1067" y1="743" x2="936" y2="743"/>
<line x1="899" y1="743" x2="796" y2="743"/>
<line x1="748" y1="743" x2="669" y2="743"/>
<line x1="610" y1="743" x2="551" y2="743"/>
<line x1="485" y1="743" x2="443" y2="743"/>
<line x1="370" y1="743" x2="342" y2="743"/>
<line x1="235" y1="743" x2="264" y2="743"/>
<line x1="1067" y1="743" x2="1088" y2="743"/>
<line x1="899" y1="743" x2="936" y2="743"/>
<line x1="748" y1="743" x2="796" y2="743"/>
<line x1="610" y1="743" x2="669" y2="743"/>
<line x1="485" y1="743" x2="551" y2="743"/>
<line x1="370" y1="743" x2="443" y2="743"/>
<line x1="264" y1="743" x2="342" y2="743"/>
<line x1="125" y1="743" x2="235" y2="743"/>
<line x1="125" y1="743" x2="124" y2="743"/>
<line x1="121" y1="743" x2="124" y2="743"/>
<line x1="105" y1="735" x2="108" y2="738"/>
<line x1="105" y1="735" x2="98" y2="730"/>
<line x1="1303" y1="732" x2="1305" y2="730"/>
<line x1="1303" y1="732" x2="1295" y2="738"/>
<line x1="88" y1="596" x2="88" y2="116"/>
<line x1="88" y1="596" x2="88" y2="706"/>
<line x1="1311" y1="719" x2="1312" y2="719"/>
<line x1="1311" y1="719" x2="1305" y2="730"/>
<line x1="1314" y1="706" x2="1314" y2="706"/>
<line x1="1314" y1="706" x2="1312" y2="719"/>
<line x1="1314" y1="703" x2="1314" y2="706"/>
<line x1="1314" y1="703" x2="1314" y2="116"/>
<line x1="115" y1="741" x2="121" y2="743"/>
<line x1="115" y1="741" x2="108" y2="738"/>
<line x1="89" y1="708" x2="91" y2="719"/>
<line x1="89" y1="708" x2="88" y2="706"/>
<line x1="92" y1="721" x2="98" y2="730"/>
<line x1="92" y1="721" x2="91" y2="719"/>
<line x1="1289" y1="740" x2="1295" y2="738"/>
<line x1="1289" y1="740" x2="1282" y2="743"/>
<line x1="72" y1="116" x2="74" y2="116"/>
<line x1="88" y1="116" x2="76" y2="116"/>
<line x1="76" y1="116" x2="74" y2="116"/>
</g></svg>