<svg xmlns="http://www.w3.org/2000/svg" width="1400" height="900" viewBox="0 0 1400 900">
<rect x="0" y="0" width="100%" height="100%" fill="white"/>
<g stroke="#111" stroke-width="1.2" fill="none" stroke-linecap="round">
<line x1="1328" y1="102" x2="1319" y2="102"/>
<line x1="1319" y1="102" x2="1316" y2="102"/>
<line x1="1313" y1="102" x2="1316" y2="102"/>
<line x1="1284" y1="798" x2="1328" y2="798"/>
<line x1="1284" y1="798" x2="1186" y2="798"/>
<line x1="1186" y1="798" x2="965" y2="798"/>
<line x1="874" y1="798" x2="965" y2="798"/>
<line x1="874" y1="798" x2="831" y2="798"/>
<line x1="560" y1="798" x2="715" y2="798"/>
<line x1="560" y1="798" x2="481" y2="798"/>
<line x1="481" y1="798" x2="463" y2="798"/>
<line x1="463" y1="798" x2="399" y2="798"/>
<line x1="210" y1="798" x2="399" y2="798"/>
<line x1="210" y1="798" x2="202" y2="798"/>
<line x1="188" y1="798" x2="72" y2="798"/>
<line x1="831" y1="798" x2="715" y2="798"/>
<line x1="202" y1="798" x2="188" y2="798"/>
<line x1="41" y1="136" x2="40" y2="140"/>
<line x1="41" y1="136" x2="42" y2="127"/>
<line x1="1338" y1="795" x2="1341" y2="794"/>
<line x1="1338" y1="795" x2="1328" y2="798"/>
<line x1="40" y1="323" x2="40" y2="760"/>
<line x1="40" y1="323" x2="40" y2="140"/>
<line x1="55" y1="790" x2="59" y2="794"/>
<line x1="55" y1="790" x2="49" y2="785"/>
<line x1="1360" y1="137" x2="1358" y2="127"/>
<line x1="1360" y1="137" x2="1360" y2="140"/>
<line x1="41" y1="764" x2="42" y2="773"/>
<line x1="41" y1="764" x2="40" y2="760"/>
<line x1="1349" y1="113" x2="1351" y2="115"/>
<line x1="1349" y1="113" x2="1341" y2="106"/>
<line x1="1360" y1="641" x2="1360" y2="140"/>
<line x1="1360" y1="641" x2="1360" y2="760"/>
<line x1="44" y1="777" x2="49" y2="785"/>
<line x1="44" y1="777" x2="42" y2="773"/>
<line x1="1358" y1="771" x2="1360" y2="760"/>
<line x1="1358" y1="771" x2="1358" y2="773"/>
<line x1="67" y1="796" x2="72" y2="798"/>
<line x1="67" y1="796" x2="59" y2="794"/>
<line x1="55" y1="110" x2="59" y2="106"/>
<line x1="55" y1="110" x2="49" y2="115"/>
<line x1="66" y1="104" x2="71" y2="102"/>
<line x1="66" y1="104" x2="59" y2="106"/>
<line x1="1349" y1="787" x2="1351" y2="785"/>
<line x1="1349" y1="787" x2="1341" y2="794"/>
<line x1="1356" y1="124" x2="1351" y2="115"/>
<line x1="1356" y1="124" x2="1358" y2="127"/>
<line x1="44" y1="123" x2="42" y2="127"/>
<line x1="44" y1="123" x2="49" y2="115"/>
<line x1="1338" y1="105" x2="1341" y2="106"/>
<line x1="1338" y1="105" x2="1328" y2="102"/>
<line x1="1352" y1="783" x2="1358" y2="773"/>
<line x1="1352" y1="783" x2="1351" y2="785"/>
<line x1="1281" y1="755" x2="1048" y2="755"/>
<line x1="1048" y1="755" x2="1022" y2="755"/>
<line x1="1022" y1="755" x2="843" y2="755"/>
<line x1="732" y1="755" x2="679" y2="755"/>
<line x1="679" y1="755" x2="611" y2="755"/>
<line x1="441" y1="755" x2="383" y2="755"/>
<line x1="383" y1="755" x2="377" y2="755"/>
<line x1="377" y1="755" x2="335" y2="755"/>
<line x1="143" y1="755" x2="141" y2="755"/>
<line x1="141" y1="755" x2="139" y2="755"/>
<line x1="732" y1="755" x2="843" y2="755"/>
<line x1="441" y1="755" x2="611" y2="755"/>
<line x1="143" y1="755" x2="335" y2="755"/>
<line x1="119" y1="755" x2="139" y2="755"/>
<line x1="98" y1="742" x2="107" y2="750"/>
<line x1="98" y1="742" x2="96" y2="741"/>
<line x1="1313" y1="646" x2="1313" y2="717"/>
<line x1="1313" y1="646" x2="1313" y2="102"/>
<line x1="87" y1="193" x2="87" y2="102"/>
<line x1="87" y1="193" x2="87" y2="717"/>
<line x1="1295" y1="749" x2="1304" y2="741"/>
<line x1="1295" y1="749" x2="1294" y2="750"/>
<line x1="1305" y1="740" x2="1304" y2="741"/>
<line x1="1305" y1="740" x2="1311" y2="730"/>
<line x1="89" y1="728" x2="87" y2="717"/>
<line x1="89" y1="728" x2="90" y2="730"/>
<line x1="1311" y1="728" x2="1311" y2="730"/>
<line x1="1311" y1="728" x2="1313" y2="717"/>
<line x1="95" y1="740" x2="90" y2="730"/>
<line x1="95" y1="740" x2="96" y2="741"/>
<line x1="1283" y1="754" x2="1294" y2="750"/>
<line x1="1283" y1="754" x2="1281" y2="755"/>
<line x1="108" y1="751" x2="119" y2="755"/>
<line x1="108" y1="751" x2="107" y2="750"/>
<line x1="75" y1="102" x2="71" y2="102"/>
<line x1="78" y1="102" x2="75" y2="102"/>
<line x1="80" y1="102" x2="78" y2="102"/>
<line x1="80" y1="102" x2="84" y2="102"/>
<line x1="87" y1="102" x2="87" y2="102"/>
<line x1="87" y1="102" x2="87" y2="102"/>
<line x1="86" y1="102" x2="87" y2="102"/>
<line x1="86" y1="102" x2="86" y2="102"/>
<line x1="85" y1="102" x2="86" y2="102"/>
<line x1="85" y1="102" x2="85" y2="102"/>
<line x1="84" y1="102" x2="85" y2="102"/>
<line x1="84" y1="102" x2="84" y2="102"/>
</g></svg>