<svg xmlns="http://www.w3.org/2000/svg" width="1400" height="900" viewBox="0 0 1400 900">
<rect x="0" y="0" width="100%" height="100%" fill="white"/>
<g stroke="#111" stroke-width="1.2" fill="none" stroke-linecap="round">
<line x1="1328" y1="109" x2="1326" y2="109"/>
<line x1="1314" y1="109" x2="1326" y2="109"/>
<line x1="1320" y1="791" x2="1231" y2="791"/>
<line x1="1215" y1="791" x2="1231" y2="791"/>
<line x1="1215" y1="791" x2="1059" y2="791"/>
<line x1="1059" y1="791" x2="1051" y2="791"/>
<line x1="1051" y1="791" x2="940" y2="791"/>
<line x1="885" y1="791" x2="819" y2="791"/>
<line x1="819" y1="791" x2="788" y2="791"/>
<line x1="634" y1="791" x2="712" y2="791"/>
<line x1="634" y1="791" x2="618" y2="791"/>
<line x1="478" y1="791" x2="574" y2="791"/>
<line x1="478" y1="791" x2="441" y2="791"/>
<line x1="285" y1="791" x2="386" y2="791"/>
<line x1="285" y1="791" x2="255" y2="791"/>
<line x1="145" y1="791" x2="135" y2="791"/>
<line x1="135" y1="791" x2="73" y2="791"/>
<line x1="1320" y1="791" x2="1328" y2="791"/>
<line x1="885" y1="791" x2="940" y2="791"/>
<line x1="788" y1="791" x2="712" y2="791"/>
<line x1="618" y1="791" x2="574" y2="791"/>
<line x1="441" y1="791" x2="386" y2="791"/>
<line x1="145" y1="791" x2="255" y2="791"/>
<line x1="1360" y1="312" x2="1360" y2="146"/>
<line x1="1360" y1="312" x2="1360" y2="754"/>
<line x1="1355" y1="771" x2="1358" y2="767"/>
<line x1="1355" y1="771" x2="1351" y2="778"/>
<line x1="40" y1="756" x2="42" y2="767"/>
<line x1="40" y1="756" x2="40" y2="754"/>
<line x1="1359" y1="142" x2="1360" y2="146"/>
<line x1="1359" y1="142" x2="1358" y2="133"/>
<line x1="1355" y1="129" x2="1358" y2="133"/>
<line x1="1355" y1="129" x2="1351" y2="122"/>
<line x1="44" y1="769" x2="49" y2="778"/>
<line x1="44" y1="769" x2="42" y2="767"/>
<line x1="1345" y1="783" x2="1341" y2="787"/>
<line x1="1345" y1="783" x2="1351" y2="778"/>
<line x1="1359" y1="758" x2="1360" y2="754"/>
<line x1="1359" y1="758" x2="1358" y2="767"/>
<line x1="52" y1="120" x2="60" y2="113"/>
<line x1="52" y1="120" x2="49" y2="122"/>
<line x1="40" y1="226" x2="40" y2="754"/>
<line x1="40" y1="226" x2="40" y2="146"/>
<line x1="1330" y1="791" x2="1328" y2="791"/>
<line x1="1330" y1="791" x2="1341" y2="787"/>
<line x1="1330" y1="109" x2="1341" y2="113"/>
<line x1="1330" y1="109" x2="1328" y2="109"/>
<line x1="65" y1="788" x2="60" y2="787"/>
<line x1="65" y1="788" x2="73" y2="791"/>
<line x1="40" y1="144" x2="42" y2="133"/>
<line x1="40" y1="144" x2="40" y2="146"/>
<line x1="64" y1="112" x2="72" y2="109"/>
<line x1="64" y1="112" x2="60" y2="113"/>
<line x1="44" y1="131" x2="49" y2="122"/>
<line x1="44" y1="131" x2="42" y2="133"/>
<line x1="52" y1="780" x2="49" y2="778"/>
<line x1="52" y1="780" x2="60" y2="787"/>
<line x1="1345" y1="117" x2="1351" y2="122"/>
<line x1="1345" y1="117" x2="1341" y2="113"/>
<line x1="1282" y1="749" x2="1204" y2="749"/>
<line x1="1191" y1="749" x2="1051" y2="749"/>
<line x1="1051" y1="749" x2="1044" y2="749"/>
<line x1="1044" y1="749" x2="933" y2="749"/>
<line x1="884" y1="749" x2="837" y2="749"/>
<line x1="837" y1="749" x2="792" y2="749"/>
<line x1="722" y1="749" x2="650" y2="749"/>
<line x1="650" y1="749" x2="649" y2="749"/>
<line x1="649" y1="749" x2="593" y2="749"/>
<line x1="506" y1="749" x2="482" y2="749"/>
<line x1="482" y1="749" x2="429" y2="749"/>
<line x1="334" y1="749" x2="304" y2="749"/>
<line x1="200" y1="749" x2="189" y2="749"/>
<line x1="1191" y1="749" x2="1204" y2="749"/>
<line x1="884" y1="749" x2="933" y2="749"/>
<line x1="722" y1="749" x2="792" y2="749"/>
<line x1="506" y1="749" x2="593" y2="749"/>
<line x1="334" y1="749" x2="429" y2="749"/>
<line x1="200" y1="749" x2="304" y2="749"/>
<line x1="121" y1="749" x2="189" y2="749"/>
<line x1="88" y1="712" x2="90" y2="724"/>
<line x1="88" y1="712" x2="88" y2="711"/>
<line x1="111" y1="745" x2="121" y2="749"/>
<line x1="111" y1="745" x2="108" y2="744"/>
<line x1="1307" y1="731" x2="1311" y2="724"/>
<line x1="1307" y1="731" x2="1305" y2="736"/>
<line x1="98" y1="737" x2="108" y2="744"/>
<line x1="98" y1="737" x2="97" y2="736"/>
<line x1="1295" y1="744" x2="1290" y2="746"/>
<line x1="1296" y1="743" x2="1305" y2="736"/>
<line x1="1296" y1="743" x2="1295" y2="744"/>
<line x1="88" y1="694" x2="88" y2="109"/>
<line x1="88" y1="694" x2="88" y2="711"/>
<line x1="1282" y1="749" x2="1290" y2="746"/>
<line x1="1313" y1="717" x2="1314" y2="711"/>
<line x1="1313" y1="717" x2="1311" y2="724"/>
<line x1="91" y1="725" x2="97" y2="736"/>
<line x1="91" y1="725" x2="90" y2="724"/>
<line x1="1314" y1="449" x2="1314" y2="711"/>
<line x1="1314" y1="449" x2="1314" y2="109"/>
<line x1="88" y1="109" x2="87" y2="109"/>
<line x1="72" y1="109" x2="87" y2="109"/>
</g></svg>