<svg xmlns="http://www.w3.org/2000/svg" width="1400" height="900" viewBox="0 0 1400 900">
<rect x="0" y="0" width="100%" height="100%" fill="white"/>
<g stroke="#111" stroke-width="1.2" fill="none" stroke-linecap="round">
<line x1="412" y1="860" x2="406" y2="860"/>
<line x1="412" y1="860" x2="1108" y2="851"/>
<line x1="1126" y1="817" x2="1126" y2="817"/>
<line x1="1126" y1="817" x2="1126" y2="829"/>
<line x1="1124" y1="837" x2="1124" y2="836"/>
<line x1="1124" y1="837" x2="1121" y2="843"/>
<line x1="392" y1="857" x2="391" y2="857"/>
<line x1="392" y1="857" x2="399" y2="860"/>
<line x1="1115" y1="848" x2="1115" y2="848"/>
<line x1="1115" y1="848" x2="1121" y2="843"/>
<line x1="382" y1="846" x2="380" y2="838"/>
<line x1="382" y1="846" x2="382" y2="846"/>
<line x1="380" y1="838" x2="380" y2="817"/>
<line x1="380" y1="838" x2="380" y2="838"/>
<line x1="386" y1="852" x2="382" y2="846"/>
<line x1="386" y1="852" x2="386" y2="852"/>
<line x1="1126" y1="829" x2="1126" y2="829"/>
<line x1="1126" y1="829" x2="1124" y2="836"/>
<line x1="386" y1="852" x2="386" y2="852"/>
<line x1="386" y1="852" x2="391" y2="857"/>
<line x1="399" y1="860" x2="399" y2="860"/>
<line x1="399" y1="860" x2="406" y2="860"/>
<line x1="1108" y1="851" x2="1108" y2="851"/>
<line x1="1108" y1="851" x2="1115" y2="848"/>
<line x1="380" y1="817" x2="379" y2="795"/>
<line x1="380" y1="817" x2="380" y2="817"/>
<line x1="1125" y1="796" x2="1125" y2="796"/>
<line x1="1125" y1="796" x2="1126" y2="817"/>
<line x1="1125" y1="795" x2="1125" y2="795"/>
<line x1="1125" y1="795" x2="1125" y2="796"/>
<line x1="1121" y1="710" x2="1121" y2="710"/>
<line x1="1121" y1="710" x2="1122" y2="730"/>
<line x1="375" y1="731" x2="372" y2="710"/>
<line x1="375" y1="731" x2="375" y2="731"/>
<line x1="1122" y1="730" x2="1122" y2="730"/>
<line x1="1122" y1="730" x2="1122" y2="731"/>
<line x1="1119" y1="689" x2="1119" y2="689"/>
<line x1="1119" y1="689" x2="1120" y2="698"/>
<line x1="1120" y1="698" x2="1120" y2="698"/>
<line x1="1120" y1="698" x2="1121" y2="710"/>
<line x1="372" y1="710" x2="370" y2="689"/>
<line x1="372" y1="710" x2="372" y2="710"/>
<line x1="378" y1="774" x2="376" y2="753"/>
<line x1="378" y1="774" x2="378" y2="774"/>
<line x1="1124" y1="763" x2="1124" y2="763"/>
<line x1="1124" y1="763" x2="1124" y2="774"/>
<line x1="1123" y1="753" x2="1123" y2="753"/>
<line x1="1123" y1="753" x2="1124" y2="763"/>
<line x1="1124" y1="774" x2="1124" y2="774"/>
<line x1="1124" y1="774" x2="1125" y2="795"/>
<line x1="379" y1="795" x2="378" y2="774"/>
<line x1="379" y1="795" x2="379" y2="795"/>
<line x1="1122" y1="731" x2="1122" y2="731"/>
<line x1="1122" y1="731" x2="1123" y2="753"/>
<line x1="376" y1="752" x2="375" y2="731"/>
<line x1="376" y1="752" x2="376" y2="753"/>
<line x1="1117" y1="665" x2="1117" y2="665"/>
<line x1="1117" y1="665" x2="1117" y2="667"/>
<line x1="367" y1="667" x2="364" y2="646"/>
<line x1="367" y1="667" x2="367" y2="667"/>
<line x1="1115" y1="646" x2="1115" y2="646"/>
<line x1="1115" y1="646" x2="1117" y2="665"/>
<line x1="364" y1="646" x2="361" y2="630"/>
<line x1="364" y1="646" x2="364" y2="646"/>
<line x1="1114" y1="632" x2="1114" y2="632"/>
<line x1="1114" y1="632" x2="1115" y2="646"/>
<line x1="1113" y1="625" x2="1113" y2="625"/>
<line x1="1113" y1="625" x2="1114" y2="632"/>
<line x1="1117" y1="668" x2="1117" y2="667"/>
<line x1="1117" y1="668" x2="1119" y2="689"/>
<line x1="370" y1="689" x2="367" y2="667"/>
<line x1="370" y1="689" x2="370" y2="689"/>
<line x1="353" y1="591" x2="349" y2="570"/>
<line x1="353" y1="591" x2="353" y2="591"/>
<line x1="1104" y1="562" x2="1104" y2="562"/>
<line x1="1104" y1="562" x2="1105" y2="567"/>
<line x1="1105" y1="567" x2="1105" y2="567"/>
<line x1="1105" y1="567" x2="1107" y2="583"/>
<line x1="1095" y1="502" x2="1095" y2="502"/>
<line x1="1095" y1="502" x2="1098" y2="521"/>
<line x1="1093" y1="492" x2="1093" y2="492"/>
<line x1="1093" y1="492" x2="1093" y2="494"/>
<line x1="338" y1="528" x2="333" y2="507"/>
<line x1="338" y1="528" x2="338" y2="528"/>
<line x1="1093" y1="494" x2="1093" y2="494"/>
<line x1="1093" y1="494" x2="1095" y2="502"/>
<line x1="1110" y1="604" x2="1110" y2="604"/>
<line x1="1110" y1="604" x2="1113" y2="625"/>
<line x1="361" y1="630" x2="357" y2="612"/>
<line x1="361" y1="630" x2="361" y2="630"/>
<line x1="1087" y1="462" x2="1087" y2="462"/>
<line x1="1087" y1="462" x2="1089" y2="472"/>
<line x1="1085" y1="451" x2="1085" y2="451"/>
<line x1="1085" y1="451" x2="1087" y2="462"/>
<line x1="327" y1="487" x2="320" y2="466"/>
<line x1="327" y1="487" x2="327" y2="487"/>
<line x1="357" y1="612" x2="353" y2="591"/>
<line x1="357" y1="612" x2="357" y2="612"/>
<line x1="1107" y1="583" x2="1107" y2="583"/>
<line x1="1107" y1="583" x2="1110" y2="599"/>
<line x1="1110" y1="599" x2="1110" y2="599"/>
<line x1="1110" y1="599" x2="1110" y2="604"/>
<line x1="314" y1="446" x2="307" y2="426"/>
<line x1="314" y1="446" x2="314" y2="446"/>
<line x1="1081" y1="430" x2="1081" y2="430"/>
<line x1="1081" y1="430" x2="1081" y2="431"/>
<line x1="1077" y1="411" x2="1076" y2="411"/>
<line x1="1077" y1="411" x2="1081" y2="430"/>
<line x1="1072" y1="391" x2="1072" y2="391"/>
<line x1="1072" y1="391" x2="1074" y2="398"/>
<line x1="1074" y1="398" x2="1074" y2="398"/>
<line x1="1074" y1="398" x2="1076" y2="411"/>
<line x1="307" y1="426" x2="299" y2="406"/>
<line x1="307" y1="426" x2="307" y2="426"/>
<line x1="344" y1="549" x2="338" y2="528"/>
<line x1="344" y1="549" x2="344" y2="549"/>
<line x1="1100" y1="534" x2="1100" y2="534"/>
<line x1="1100" y1="534" x2="1101" y2="541"/>
<line x1="1098" y1="521" x2="1098" y2="521"/>
<line x1="1098" y1="521" x2="1100" y2="534"/>
<line x1="349" y1="570" x2="344" y2="549"/>
<line x1="349" y1="570" x2="349" y2="570"/>
<line x1="1101" y1="542" x2="1101" y2="541"/>
<line x1="1101" y1="542" x2="1104" y2="562"/>
<line x1="292" y1="385" x2="284" y2="366"/>
<line x1="292" y1="385" x2="292" y2="386"/>
<line x1="1066" y1="366" x2="1066" y2="366"/>
<line x1="1066" y1="366" x2="1067" y2="371"/>
<line x1="1062" y1="351" x2="1062" y2="351"/>
<line x1="1062" y1="351" x2="1066" y2="366"/>
<line x1="925" y1="45" x2="930" y2="43"/>
<line x1="925" y1="45" x2="285" y2="319"/>
<line x1="998" y1="146" x2="998" y2="146"/>
<line x1="998" y1="146" x2="1009" y2="177"/>
<line x1="284" y1="366" x2="276" y2="346"/>
<line x1="284" y1="366" x2="284" y2="366"/>
<line x1="275" y1="346" x2="274" y2="338"/>
<line x1="275" y1="346" x2="276" y2="346"/>
<line x1="962" y1="54" x2="961" y2="54"/>
<line x1="962" y1="54" x2="974" y2="85"/>
<line x1="944" y1="40" x2="945" y2="40"/>
<line x1="944" y1="40" x2="937" y2="40"/>
<line x1="276" y1="331" x2="279" y2="324"/>
<line x1="276" y1="331" x2="276" y2="331"/>
<line x1="974" y1="85" x2="974" y2="85"/>
<line x1="974" y1="85" x2="986" y2="115"/>
<line x1="1020" y1="208" x2="1020" y2="208"/>
<line x1="1020" y1="208" x2="1030" y2="239"/>
<line x1="274" y1="338" x2="276" y2="331"/>
<line x1="274" y1="338" x2="274" y2="338"/>
<line x1="937" y1="40" x2="937" y2="40"/>
<line x1="937" y1="40" x2="930" y2="43"/>
<line x1="1009" y1="177" x2="1009" y2="177"/>
<line x1="1009" y1="177" x2="1020" y2="208"/>
<line x1="1049" y1="302" x2="1049" y2="302"/>
<line x1="1049" y1="302" x2="1058" y2="334"/>
<line x1="1040" y1="271" x2="1040" y2="270"/>
<line x1="1040" y1="271" x2="1049" y2="302"/>
<line x1="285" y1="319" x2="285" y2="319"/>
<line x1="285" y1="319" x2="279" y2="324"/>
<line x1="958" y1="48" x2="958" y2="48"/>
<line x1="958" y1="48" x2="961" y2="54"/>
<line x1="986" y1="115" x2="986" y2="115"/>
<line x1="986" y1="115" x2="998" y2="146"/>
<line x1="1030" y1="239" x2="1030" y2="239"/>
<line x1="1030" y1="239" x2="1040" y2="270"/>
<line x1="952" y1="43" x2="952" y2="43"/>
<line x1="952" y1="43" x2="945" y2="40"/>
<line x1="958" y1="48" x2="958" y2="48"/>
<line x1="958" y1="48" x2="952" y2="43"/>
<line x1="1058" y1="334" x2="1058" y2="334"/>
<line x1="1058" y1="334" x2="1062" y2="351"/>
<line x1="333" y1="507" x2="327" y2="487"/>
<line x1="333" y1="507" x2="333" y2="507"/>
<line x1="1089" y1="472" x2="1089" y2="472"/>
<line x1="1089" y1="472" x2="1093" y2="492"/>
<line x1="320" y1="466" x2="314" y2="446"/>
<line x1="320" y1="466" x2="320" y2="466"/>
<line x1="1081" y1="431" x2="1081" y2="431"/>
<line x1="1081" y1="431" x2="1085" y2="451"/>
<line x1="299" y1="406" x2="292" y2="386"/>
<line x1="299" y1="406" x2="299" y2="406"/>
<line x1="1067" y1="371" x2="1067" y2="371"/>
<line x1="1067" y1="371" x2="1072" y2="391"/>
</g></svg>