<svg xmlns="http://www.w3.org/2000/svg" width="1400" height="900" viewBox="0 0 1400 900">
<rect x="0" y="0" width="100%" height="100%" fill="white"/>
<g stroke="#111" stroke-width="1.2" fill="none" stroke-linecap="round">
<line x1="1328" y1="105" x2="1319" y2="105"/>
<line x1="1313" y1="105" x2="1319" y2="105"/>
<line x1="1223" y1="795" x2="1328" y2="795"/>
<line x1="1202" y1="795" x2="1223" y2="795"/>
<line x1="1202" y1="795" x2="1131" y2="795"/>
<line x1="957" y1="795" x2="1017" y2="795"/>
<line x1="957" y1="795" x2="824" y2="795"/>
<line x1="824" y1="795" x2="816" y2="795"/>
<line x1="816" y1="795" x2="805" y2="795"/>
<line x1="805" y1="795" x2="703" y2="795"/>
<line x1="602" y1="795" x2="703" y2="795"/>
<line x1="564" y1="795" x2="529" y2="795"/>
<line x1="396" y1="795" x2="529" y2="795"/>
<line x1="396" y1="795" x2="351" y2="795"/>
<line x1="351" y1="795" x2="349" y2="795"/>
<line x1="349" y1="795" x2="318" y2="795"/>
<line x1="172" y1="795" x2="164" y2="795"/>
<line x1="164" y1="795" x2="160" y2="795"/>
<line x1="151" y1="795" x2="72" y2="795"/>
<line x1="1131" y1="795" x2="1017" y2="795"/>
<line x1="602" y1="795" x2="564" y2="795"/>
<line x1="172" y1="795" x2="318" y2="795"/>
<line x1="160" y1="795" x2="151" y2="795"/>
<line x1="52" y1="116" x2="60" y2="109"/>
<line x1="52" y1="116" x2="49" y2="118"/>
<line x1="40" y1="232" x2="40" y2="758"/>
<line x1="40" y1="232" x2="40" y2="142"/>
<line x1="64" y1="792" x2="60" y2="791"/>
<line x1="64" y1="792" x2="72" y2="795"/>
<line x1="44" y1="773" x2="49" y2="782"/>
<line x1="44" y1="773" x2="42" y2="771"/>
<line x1="64" y1="108" x2="71" y2="105"/>
<line x1="64" y1="108" x2="60" y2="109"/>
<line x1="1360" y1="445" x2="1360" y2="142"/>
<line x1="1360" y1="445" x2="1360" y2="758"/>
<line x1="1334" y1="107" x2="1341" y2="109"/>
<line x1="1334" y1="107" x2="1328" y2="105"/>
<line x1="1346" y1="787" x2="1351" y2="782"/>
<line x1="1346" y1="787" x2="1341" y2="791"/>
<line x1="52" y1="784" x2="49" y2="782"/>
<line x1="52" y1="784" x2="60" y2="791"/>
<line x1="40" y1="141" x2="42" y2="129"/>
<line x1="40" y1="141" x2="40" y2="142"/>
<line x1="40" y1="759" x2="42" y2="771"/>
<line x1="40" y1="759" x2="40" y2="758"/>
<line x1="44" y1="127" x2="49" y2="118"/>
<line x1="44" y1="127" x2="42" y2="129"/>
<line x1="1359" y1="136" x2="1358" y2="129"/>
<line x1="1359" y1="136" x2="1360" y2="142"/>
<line x1="1359" y1="764" x2="1360" y2="758"/>
<line x1="1359" y1="764" x2="1358" y2="771"/>
<line x1="1354" y1="776" x2="1358" y2="771"/>
<line x1="1354" y1="776" x2="1351" y2="782"/>
<line x1="1354" y1="123" x2="1351" y2="118"/>
<line x1="1354" y1="123" x2="1358" y2="129"/>
<line x1="1346" y1="113" x2="1351" y2="118"/>
<line x1="1346" y1="113" x2="1341" y2="109"/>
<line x1="1334" y1="793" x2="1341" y2="791"/>
<line x1="1334" y1="793" x2="1328" y2="795"/>
<line x1="1282" y1="752" x2="1150" y2="752"/>
<line x1="1123" y1="752" x2="1050" y2="752"/>
<line x1="1050" y1="752" x2="958" y2="752"/>
<line x1="897" y1="752" x2="780" y2="752"/>
<line x1="780" y1="752" x2="773" y2="752"/>
<line x1="773" y1="752" x2="763" y2="752"/>
<line x1="763" y1="752" x2="674" y2="752"/>
<line x1="575" y1="752" x2="546" y2="752"/>
<line x1="546" y1="752" x2="512" y2="752"/>
<line x1="384" y1="752" x2="349" y2="752"/>
<line x1="349" y1="752" x2="348" y2="752"/>
<line x1="348" y1="752" x2="320" y2="752"/>
<line x1="182" y1="752" x2="179" y2="752"/>
<line x1="179" y1="752" x2="175" y2="752"/>
<line x1="384" y1="752" x2="512" y2="752"/>
<line x1="1123" y1="752" x2="1150" y2="752"/>
<line x1="897" y1="752" x2="958" y2="752"/>
<line x1="575" y1="752" x2="674" y2="752"/>
<line x1="182" y1="752" x2="320" y2="752"/>
<line x1="120" y1="752" x2="175" y2="752"/>
<line x1="1285" y1="751" x2="1294" y2="748"/>
<line x1="1285" y1="751" x2="1282" y2="752"/>
<line x1="88" y1="718" x2="90" y2="727"/>
<line x1="88" y1="718" x2="87" y2="714"/>
<line x1="101" y1="743" x2="107" y2="748"/>
<line x1="101" y1="743" x2="97" y2="739"/>
<line x1="87" y1="529" x2="87" y2="105"/>
<line x1="87" y1="529" x2="87" y2="714"/>
<line x1="1313" y1="526" x2="1313" y2="714"/>
<line x1="1313" y1="526" x2="1313" y2="105"/>
<line x1="1297" y1="745" x2="1304" y2="739"/>
<line x1="1297" y1="745" x2="1294" y2="748"/>
<line x1="1312" y1="723" x2="1311" y2="727"/>
<line x1="1312" y1="723" x2="1313" y2="714"/>
<line x1="1306" y1="735" x2="1304" y2="739"/>
<line x1="1306" y1="735" x2="1311" y2="727"/>
<line x1="92" y1="731" x2="97" y2="739"/>
<line x1="92" y1="731" x2="90" y2="727"/>
<line x1="114" y1="750" x2="120" y2="752"/>
<line x1="114" y1="750" x2="107" y2="748"/>
<line x1="77" y1="105" x2="84" y2="105"/>
<line x1="77" y1="105" x2="74" y2="105"/>
<line x1="74" y1="105" x2="71" y2="105"/>
<line x1="87" y1="105" x2="87" y2="105"/>
<line x1="85" y1="105" x2="87" y2="105"/>
<line x1="84" y1="105" x2="85" y2="105"/>
<line x1="84" y1="105" x2="84" y2="105"/>
</g></svg>