<svg xmlns="http://www.w3.org/2000/svg" width="1400" height="900" viewBox="0 0 1400 900">
<rect x="0" y="0" width="100%" height="100%" fill="white"/>
<g stroke="#111" stroke-width="1.2" fill="none" stroke-linecap="round">
<line x1="110" y1="748" x2="107" y2="748"/>
<line x1="1321" y1="202" x2="1321" y2="726"/>
<line x1="1321" y1="184" x2="1321" y2="202"/>
<line x1="1321" y1="171" x2="1321" y2="184"/>
<line x1="1321" y1="149" x2="1321" y2="171"/>
<line x1="1321" y1="142" x2="1321" y2="149"/>
<line x1="1321" y1="139" x2="1321" y2="142"/>
<line x1="1321" y1="137" x2="1321" y2="139"/>
<line x1="1321" y1="137" x2="1321" y2="109"/>
<line x1="107" y1="109" x2="107" y2="575"/>
<line x1="107" y1="587" x2="107" y2="575"/>
<line x1="107" y1="599" x2="107" y2="748"/>
<line x1="107" y1="599" x2="107" y2="587"/>
<line x1="696" y1="749" x2="689" y2="749"/>
<line x1="1296" y1="749" x2="1261" y2="749"/>
<line x1="1261" y1="749" x2="696" y2="749"/>
<line x1="1298" y1="749" x2="1296" y2="749"/>
<line x1="1298" y1="749" x2="1328" y2="749"/>
<line x1="310" y1="749" x2="325" y2="749"/>
<line x1="325" y1="749" x2="325" y2="749"/>
<line x1="325" y1="749" x2="339" y2="749"/>
<line x1="339" y1="749" x2="339" y2="749"/>
<line x1="339" y1="749" x2="353" y2="749"/>
<line x1="353" y1="749" x2="353" y2="749"/>
<line x1="353" y1="749" x2="367" y2="749"/>
<line x1="367" y1="749" x2="367" y2="749"/>
<line x1="367" y1="749" x2="380" y2="749"/>
<line x1="380" y1="749" x2="380" y2="749"/>
<line x1="380" y1="749" x2="392" y2="749"/>
<line x1="392" y1="749" x2="392" y2="749"/>
<line x1="392" y1="749" x2="405" y2="749"/>
<line x1="405" y1="749" x2="405" y2="749"/>
<line x1="405" y1="749" x2="417" y2="749"/>
<line x1="417" y1="749" x2="417" y2="749"/>
<line x1="417" y1="749" x2="428" y2="749"/>
<line x1="428" y1="749" x2="428" y2="749"/>
<line x1="428" y1="749" x2="439" y2="749"/>
<line x1="439" y1="749" x2="440" y2="749"/>
<line x1="440" y1="749" x2="451" y2="749"/>
<line x1="451" y1="749" x2="451" y2="749"/>
<line x1="451" y1="749" x2="461" y2="749"/>
<line x1="461" y1="749" x2="461" y2="749"/>
<line x1="461" y1="749" x2="472" y2="749"/>
<line x1="472" y1="749" x2="472" y2="749"/>
<line x1="472" y1="749" x2="482" y2="749"/>
<line x1="482" y1="749" x2="482" y2="749"/>
<line x1="482" y1="749" x2="492" y2="749"/>
<line x1="492" y1="749" x2="492" y2="749"/>
<line x1="492" y1="749" x2="502" y2="749"/>
<line x1="502" y1="749" x2="502" y2="749"/>
<line x1="502" y1="749" x2="512" y2="749"/>
<line x1="512" y1="749" x2="512" y2="749"/>
<line x1="512" y1="749" x2="521" y2="749"/>
<line x1="521" y1="749" x2="521" y2="749"/>
<line x1="521" y1="749" x2="530" y2="749"/>
<line x1="530" y1="749" x2="530" y2="749"/>
<line x1="530" y1="749" x2="539" y2="749"/>
<line x1="539" y1="749" x2="539" y2="749"/>
<line x1="539" y1="749" x2="548" y2="749"/>
<line x1="548" y1="749" x2="548" y2="749"/>
<line x1="548" y1="749" x2="557" y2="749"/>
<line x1="557" y1="749" x2="557" y2="749"/>
<line x1="557" y1="749" x2="566" y2="749"/>
<line x1="566" y1="749" x2="566" y2="749"/>
<line x1="566" y1="749" x2="574" y2="749"/>
<line x1="574" y1="749" x2="574" y2="749"/>
<line x1="574" y1="749" x2="582" y2="749"/>
<line x1="582" y1="749" x2="583" y2="749"/>
<line x1="583" y1="749" x2="591" y2="749"/>
<line x1="591" y1="749" x2="591" y2="749"/>
<line x1="591" y1="749" x2="599" y2="749"/>
<line x1="599" y1="749" x2="599" y2="749"/>
<line x1="599" y1="749" x2="607" y2="749"/>
<line x1="607" y1="749" x2="607" y2="749"/>
<line x1="607" y1="749" x2="615" y2="749"/>
<line x1="615" y1="749" x2="615" y2="749"/>
<line x1="615" y1="749" x2="622" y2="749"/>
<line x1="622" y1="749" x2="622" y2="749"/>
<line x1="622" y1="749" x2="630" y2="749"/>
<line x1="630" y1="749" x2="630" y2="749"/>
<line x1="630" y1="749" x2="637" y2="749"/>
<line x1="637" y1="749" x2="637" y2="749"/>
<line x1="637" y1="749" x2="645" y2="749"/>
<line x1="645" y1="749" x2="645" y2="749"/>
<line x1="645" y1="749" x2="652" y2="749"/>
<line x1="652" y1="749" x2="652" y2="749"/>
<line x1="652" y1="749" x2="659" y2="749"/>
<line x1="659" y1="749" x2="660" y2="749"/>
<line x1="660" y1="749" x2="667" y2="749"/>
<line x1="667" y1="749" x2="667" y2="749"/>
<line x1="667" y1="749" x2="674" y2="749"/>
<line x1="674" y1="749" x2="674" y2="749"/>
<line x1="689" y1="749" x2="674" y2="749"/>
<line x1="310" y1="749" x2="137" y2="749"/>
<line x1="110" y1="749" x2="137" y2="749"/>
<line x1="110" y1="791" x2="40" y2="791"/>
<line x1="110" y1="791" x2="110" y2="791"/>
<line x1="110" y1="791" x2="117" y2="791"/>
<line x1="117" y1="791" x2="117" y2="791"/>
<line x1="117" y1="791" x2="123" y2="791"/>
<line x1="123" y1="791" x2="123" y2="791"/>
<line x1="123" y1="791" x2="128" y2="791"/>
<line x1="128" y1="791" x2="128" y2="791"/>
<line x1="128" y1="791" x2="133" y2="791"/>
<line x1="133" y1="791" x2="134" y2="791"/>
<line x1="134" y1="791" x2="139" y2="791"/>
<line x1="139" y1="791" x2="139" y2="791"/>
<line x1="139" y1="791" x2="143" y2="791"/>
<line x1="143" y1="791" x2="143" y2="791"/>
<line x1="143" y1="791" x2="148" y2="791"/>
<line x1="148" y1="791" x2="148" y2="791"/>
<line x1="148" y1="791" x2="152" y2="791"/>
<line x1="152" y1="791" x2="152" y2="791"/>
<line x1="152" y1="791" x2="157" y2="791"/>
<line x1="157" y1="791" x2="157" y2="791"/>
<line x1="157" y1="791" x2="161" y2="791"/>
<line x1="161" y1="791" x2="161" y2="791"/>
<line x1="161" y1="791" x2="165" y2="791"/>
<line x1="165" y1="791" x2="165" y2="791"/>
<line x1="165" y1="791" x2="168" y2="791"/>
<line x1="168" y1="791" x2="168" y2="791"/>
<line x1="168" y1="791" x2="172" y2="791"/>
<line x1="172" y1="791" x2="172" y2="791"/>
<line x1="172" y1="791" x2="175" y2="791"/>
<line x1="175" y1="791" x2="176" y2="791"/>
<line x1="176" y1="791" x2="179" y2="791"/>
<line x1="179" y1="791" x2="179" y2="791"/>
<line x1="179" y1="791" x2="182" y2="791"/>
<line x1="182" y1="791" x2="182" y2="791"/>
<line x1="182" y1="791" x2="361" y2="791"/>
<line x1="1043" y1="791" x2="361" y2="791"/>
<line x1="1052" y1="791" x2="1043" y2="791"/>
<line x1="1061" y1="791" x2="1052" y2="791"/>
<line x1="1071" y1="791" x2="1061" y2="791"/>
<line x1="1081" y1="791" x2="1071" y2="791"/>
<line x1="1091" y1="791" x2="1081" y2="791"/>
<line x1="1102" y1="791" x2="1091" y2="791"/>
<line x1="1113" y1="791" x2="1102" y2="791"/>
<line x1="1125" y1="791" x2="1113" y2="791"/>
<line x1="1136" y1="791" x2="1125" y2="791"/>
<line x1="1149" y1="791" x2="1136" y2="791"/>
<line x1="1161" y1="791" x2="1149" y2="791"/>
<line x1="1174" y1="791" x2="1161" y2="791"/>
<line x1="1187" y1="791" x2="1174" y2="791"/>
<line x1="1201" y1="791" x2="1187" y2="791"/>
<line x1="1215" y1="791" x2="1201" y2="791"/>
<line x1="1229" y1="791" x2="1215" y2="791"/>
<line x1="1352" y1="791" x2="1229" y2="791"/>
<line x1="1322" y1="109" x2="1321" y2="109"/>
<line x1="1322" y1="109" x2="1354" y2="109"/>
<line x1="64" y1="109" x2="107" y2="109"/>
<line x1="48" y1="109" x2="64" y2="109"/>
<line x1="1360" y1="720" x2="1360" y2="151"/>
<line x1="1360" y1="769" x2="1360" y2="720"/>
<line x1="40" y1="567" x2="40" y2="151"/>
<line x1="40" y1="588" x2="40" y2="567"/>
<line x1="40" y1="588" x2="40" y2="791"/>
<line x1="110" y1="749" x2="110" y2="748"/>
<line x1="110" y1="749" x2="110" y2="749"/>
<line x1="1328" y1="748" x2="1328" y2="744"/>
<line x1="1328" y1="748" x2="1328" y2="748"/>
<line x1="1325" y1="733" x2="1323" y2="730"/>
<line x1="1325" y1="733" x2="1325" y2="734"/>
<line x1="1327" y1="739" x2="1327" y2="739"/>
<line x1="1327" y1="739" x2="1327" y2="739"/>
<line x1="1328" y1="749" x2="1328" y2="749"/>
<line x1="1328" y1="748" x2="1328" y2="748"/>
<line x1="1328" y1="748" x2="1328" y2="748"/>
<line x1="1328" y1="743" x2="1327" y2="739"/>
<line x1="1328" y1="743" x2="1328" y2="744"/>
<line x1="1323" y1="729" x2="1323" y2="729"/>
<line x1="1323" y1="729" x2="1323" y2="730"/>
<line x1="1328" y1="748" x2="1328" y2="749"/>
<line x1="1328" y1="749" x2="1328" y2="749"/>
<line x1="1327" y1="738" x2="1327" y2="738"/>
<line x1="1327" y1="738" x2="1327" y2="739"/>
<line x1="1327" y1="738" x2="1325" y2="734"/>
<line x1="1327" y1="738" x2="1327" y2="738"/>
<line x1="1323" y1="730" x2="1323" y2="730"/>
<line x1="1323" y1="730" x2="1323" y2="730"/>
<line x1="1323" y1="729" x2="1321" y2="726"/>
<line x1="1360" y1="769" x2="1358" y2="772"/>
<line x1="1354" y1="781" x2="1353" y2="781"/>
<line x1="1354" y1="781" x2="1354" y2="781"/>
<line x1="1353" y1="786" x2="1352" y2="786"/>
<line x1="1353" y1="786" x2="1353" y2="781"/>
<line x1="1358" y1="772" x2="1356" y2="776"/>
<line x1="1356" y1="776" x2="1355" y2="777"/>
<line x1="1352" y1="786" x2="1352" y2="791"/>
<line x1="1352" y1="791" x2="1352" y2="791"/>
<line x1="1355" y1="777" x2="1354" y2="781"/>
<line x1="1354" y1="781" x2="1354" y2="781"/>
<line x1="56" y1="111" x2="55" y2="111"/>
<line x1="56" y1="111" x2="58" y2="112"/>
<line x1="46" y1="150" x2="44" y2="151"/>
<line x1="46" y1="150" x2="48" y2="150"/>
<line x1="69" y1="130" x2="69" y2="130"/>
<line x1="69" y1="131" x2="69" y2="130"/>
<line x1="69" y1="131" x2="69" y2="131"/>
<line x1="69" y1="132" x2="69" y2="131"/>
<line x1="69" y1="132" x2="69" y2="133"/>
<line x1="66" y1="119" x2="66" y2="119"/>
<line x1="67" y1="120" x2="67" y2="121"/>
<line x1="67" y1="120" x2="66" y2="119"/>
<line x1="67" y1="121" x2="67" y2="121"/>
<line x1="67" y1="120" x2="67" y2="120"/>
<line x1="67" y1="121" x2="67" y2="121"/>
<line x1="68" y1="123" x2="68" y2="123"/>
<line x1="68" y1="123" x2="67" y2="121"/>
<line x1="68" y1="123" x2="68" y2="124"/>
<line x1="68" y1="123" x2="68" y2="123"/>
<line x1="67" y1="138" x2="67" y2="138"/>
<line x1="67" y1="139" x2="67" y2="138"/>
<line x1="67" y1="139" x2="66" y2="139"/>
<line x1="66" y1="139" x2="66" y2="140"/>
<line x1="66" y1="140" x2="66" y2="140"/>
<line x1="69" y1="127" x2="69" y2="126"/>
<line x1="69" y1="127" x2="69" y2="127"/>
<line x1="69" y1="128" x2="69" y2="127"/>
<line x1="69" y1="129" x2="69" y2="128"/>
<line x1="69" y1="129" x2="69" y2="129"/>
<line x1="69" y1="124" x2="68" y2="124"/>
<line x1="69" y1="124" x2="69" y2="124"/>
<line x1="69" y1="125" x2="69" y2="124"/>
<line x1="69" y1="126" x2="69" y2="125"/>
<line x1="69" y1="126" x2="69" y2="126"/>
<line x1="69" y1="129" x2="69" y2="129"/>
<line x1="69" y1="129" x2="69" y2="130"/>
<line x1="42" y1="151" x2="40" y2="151"/>
<line x1="42" y1="151" x2="44" y2="151"/>
<line x1="59" y1="146" x2="61" y2="145"/>
<line x1="59" y1="146" x2="59" y2="146"/>
<line x1="59" y1="146" x2="58" y2="146"/>
<line x1="69" y1="133" x2="69" y2="133"/>
<line x1="69" y1="134" x2="69" y2="133"/>
<line x1="69" y1="134" x2="69" y2="134"/>
<line x1="69" y1="135" x2="69" y2="134"/>
<line x1="69" y1="135" x2="68" y2="135"/>
<line x1="50" y1="109" x2="48" y2="109"/>
<line x1="51" y1="110" x2="50" y2="109"/>
<line x1="53" y1="148" x2="51" y2="149"/>
<line x1="53" y1="148" x2="55" y2="148"/>
<line x1="61" y1="115" x2="61" y2="114"/>
<line x1="63" y1="116" x2="63" y2="116"/>
<line x1="63" y1="116" x2="61" y2="115"/>
<line x1="63" y1="116" x2="63" y2="116"/>
<line x1="63" y1="116" x2="63" y2="116"/>
<line x1="50" y1="149" x2="48" y2="150"/>
<line x1="50" y1="149" x2="51" y2="149"/>
<line x1="56" y1="147" x2="58" y2="146"/>
<line x1="56" y1="147" x2="55" y2="148"/>
<line x1="59" y1="113" x2="61" y2="114"/>
<line x1="59" y1="113" x2="59" y2="113"/>
<line x1="59" y1="113" x2="59" y2="113"/>
<line x1="59" y1="113" x2="58" y2="112"/>
<line x1="68" y1="136" x2="68" y2="135"/>
<line x1="68" y1="136" x2="68" y2="136"/>
<line x1="68" y1="136" x2="68" y2="137"/>
<line x1="68" y1="137" x2="68" y2="137"/>
<line x1="68" y1="137" x2="67" y2="138"/>
<line x1="65" y1="141" x2="66" y2="140"/>
<line x1="65" y1="141" x2="65" y2="141"/>
<line x1="65" y1="141" x2="64" y2="142"/>
<line x1="64" y1="142" x2="64" y2="142"/>
<line x1="64" y1="142" x2="63" y2="143"/>
<line x1="63" y1="143" x2="63" y2="143"/>
<line x1="62" y1="143" x2="63" y2="143"/>
<line x1="62" y1="143" x2="62" y2="144"/>
<line x1="62" y1="144" x2="62" y2="144"/>
<line x1="62" y1="144" x2="61" y2="145"/>
<line x1="64" y1="117" x2="63" y2="116"/>
<line x1="65" y1="118" x2="65" y2="118"/>
<line x1="65" y1="118" x2="64" y2="117"/>
<line x1="65" y1="118" x2="66" y2="119"/>
<line x1="65" y1="118" x2="65" y2="118"/>
<line x1="53" y1="110" x2="51" y2="110"/>
<line x1="55" y1="111" x2="53" y2="110"/>
<line x1="1339" y1="123" x2="1339" y2="123"/>
<line x1="1339" y1="121" x2="1339" y2="121"/>
<line x1="1339" y1="122" x2="1339" y2="121"/>
<line x1="1339" y1="123" x2="1339" y2="122"/>
<line x1="1338" y1="125" x2="1338" y2="124"/>
<line x1="1338" y1="126" x2="1338" y2="126"/>
<line x1="1338" y1="126" x2="1338" y2="125"/>
<line x1="1357" y1="151" x2="1357" y2="151"/>
<line x1="1354" y1="150" x2="1357" y2="151"/>
<line x1="1344" y1="144" x2="1342" y2="143"/>
<line x1="1344" y1="144" x2="1344" y2="144"/>
<line x1="1344" y1="144" x2="1344" y2="145"/>
<line x1="1341" y1="140" x2="1341" y2="140"/>
<line x1="1341" y1="140" x2="1341" y2="140"/>
<line x1="1341" y1="140" x2="1341" y2="140"/>
<line x1="1341" y1="140" x2="1341" y2="140"/>
<line x1="1346" y1="146" x2="1344" y2="145"/>
<line x1="1346" y1="146" x2="1346" y2="146"/>
<line x1="1344" y1="145" x2="1344" y2="145"/>
<line x1="1342" y1="143" x2="1342" y2="143"/>
<line x1="1342" y1="143" x2="1342" y2="143"/>
<line x1="1342" y1="143" x2="1342" y2="143"/>
<line x1="1342" y1="143" x2="1342" y2="143"/>
<line x1="1340" y1="119" x2="1341" y2="119"/>
<line x1="1340" y1="120" x2="1340" y2="119"/>
<line x1="1339" y1="121" x2="1339" y2="121"/>
<line x1="1339" y1="121" x2="1340" y2="120"/>
<line x1="1338" y1="134" x2="1338" y2="134"/>
<line x1="1338" y1="134" x2="1338" y2="133"/>
<line x1="1338" y1="134" x2="1338" y2="135"/>
<line x1="1341" y1="140" x2="1341" y2="140"/>
<line x1="1341" y1="140" x2="1341" y2="140"/>
<line x1="1341" y1="140" x2="1341" y2="140"/>
<line x1="1341" y1="140" x2="1341" y2="141"/>
<line x1="1341" y1="141" x2="1341" y2="141"/>
<line x1="1341" y1="141" x2="1342" y2="143"/>
<line x1="1342" y1="143" x2="1342" y2="143"/>
<line x1="1338" y1="126" x2="1338" y2="126"/>
<line x1="1338" y1="129" x2="1338" y2="129"/>
<line x1="1338" y1="127" x2="1338" y2="126"/>
<line x1="1338" y1="129" x2="1338" y2="129"/>
<line x1="1338" y1="129" x2="1338" y2="127"/>
<line x1="1338" y1="124" x2="1338" y2="124"/>
<line x1="1338" y1="124" x2="1338" y2="124"/>
<line x1="1338" y1="124" x2="1338" y2="124"/>
<line x1="1342" y1="116" x2="1342" y2="116"/>
<line x1="1344" y1="115" x2="1344" y2="114"/>
<line x1="1343" y1="115" x2="1344" y2="115"/>
<line x1="1342" y1="116" x2="1343" y2="115"/>
<line x1="1341" y1="119" x2="1341" y2="119"/>
<line x1="1341" y1="119" x2="1341" y2="119"/>
<line x1="1341" y1="119" x2="1341" y2="119"/>
<line x1="1338" y1="135" x2="1338" y2="135"/>
<line x1="1338" y1="135" x2="1338" y2="135"/>
<line x1="1338" y1="135" x2="1338" y2="135"/>
<line x1="1338" y1="135" x2="1339" y2="136"/>
<line x1="1349" y1="148" x2="1349" y2="148"/>
<line x1="1349" y1="148" x2="1351" y2="149"/>
<line x1="1359" y1="151" x2="1360" y2="151"/>
<line x1="1358" y1="151" x2="1359" y2="151"/>
<line x1="1358" y1="151" x2="1357" y2="151"/>
<line x1="1338" y1="123" x2="1338" y2="123"/>
<line x1="1338" y1="123" x2="1338" y2="124"/>
<line x1="1338" y1="123" x2="1339" y2="123"/>
<line x1="1351" y1="110" x2="1351" y2="110"/>
<line x1="1351" y1="110" x2="1349" y2="111"/>
<line x1="1339" y1="138" x2="1339" y2="138"/>
<line x1="1340" y1="140" x2="1339" y2="138"/>
<line x1="1340" y1="140" x2="1341" y2="140"/>
<line x1="1339" y1="136" x2="1339" y2="136"/>
<line x1="1339" y1="136" x2="1339" y2="137"/>
<line x1="1339" y1="137" x2="1339" y2="138"/>
<line x1="1338" y1="130" x2="1338" y2="130"/>
<line x1="1338" y1="130" x2="1338" y2="130"/>
<line x1="1338" y1="129" x2="1338" y2="130"/>
<line x1="1338" y1="130" x2="1338" y2="130"/>
<line x1="1338" y1="130" x2="1338" y2="130"/>
<line x1="1338" y1="130" x2="1338" y2="133"/>
<line x1="1338" y1="133" x2="1338" y2="133"/>
<line x1="1338" y1="133" x2="1338" y2="133"/>
<line x1="1346" y1="146" x2="1346" y2="146"/>
<line x1="1349" y1="148" x2="1346" y2="146"/>
<line x1="1349" y1="148" x2="1349" y2="148"/>
<line x1="1341" y1="118" x2="1341" y2="118"/>
<line x1="1341" y1="118" x2="1341" y2="119"/>
<line x1="1341" y1="118" x2="1341" y2="118"/>
<line x1="1347" y1="112" x2="1346" y2="112"/>
<line x1="1347" y1="112" x2="1349" y2="111"/>
<line x1="1338" y1="135" x2="1338" y2="135"/>
<line x1="1338" y1="135" x2="1338" y2="135"/>
<line x1="1338" y1="135" x2="1338" y2="135"/>
<line x1="1338" y1="135" x2="1338" y2="135"/>
<line x1="1351" y1="149" x2="1351" y2="149"/>
<line x1="1353" y1="150" x2="1351" y2="149"/>
<line x1="1353" y1="150" x2="1354" y2="150"/>
<line x1="1341" y1="118" x2="1341" y2="118"/>
<line x1="1342" y1="117" x2="1342" y2="116"/>
<line x1="1342" y1="117" x2="1342" y2="117"/>
<line x1="1341" y1="118" x2="1342" y2="117"/>
<line x1="1342" y1="116" x2="1342" y2="116"/>
<line x1="1342" y1="116" x2="1342" y2="116"/>
<line x1="1342" y1="116" x2="1342" y2="116"/>
<line x1="1344" y1="114" x2="1344" y2="114"/>
<line x1="1345" y1="113" x2="1344" y2="114"/>
<line x1="1346" y1="113" x2="1345" y2="113"/>
<line x1="1346" y1="113" x2="1346" y2="112"/>
<line x1="1354" y1="109" x2="1354" y2="109"/>
<line x1="1354" y1="109" x2="1351" y2="110"/>
</g></svg>