<svg xmlns="http://www.w3.org/2000/svg" width="1400" height="900" viewBox="0 0 1400 900">
<rect x="0" y="0" width="100%" height="100%" fill="white"/>
<g stroke="#111" stroke-width="1.2" fill="none" stroke-linecap="round">
<line x1="1128" y1="809" x2="1120" y2="809"/>
<line x1="1128" y1="809" x2="1129" y2="809"/>
<line x1="1130" y1="809" x2="1129" y2="809"/>
<line x1="1132" y1="809" x2="1130" y2="809"/>
<line x1="1134" y1="809" x2="1132" y2="809"/>
<line x1="1136" y1="809" x2="1134" y2="809"/>
<line x1="1137" y1="809" x2="1136" y2="809"/>
<line x1="1137" y1="803" x2="1137" y2="800"/>
<line x1="1137" y1="803" x2="1137" y2="809"/>
<line x1="1137" y1="258" x2="1137" y2="40"/>
<line x1="1137" y1="258" x2="1137" y2="763"/>
<line x1="224" y1="650" x2="224" y2="40"/>
<line x1="224" y1="740" x2="224" y2="795"/>
<line x1="224" y1="650" x2="224" y2="740"/>
<line x1="1213" y1="763" x2="1213" y2="763"/>
<line x1="1213" y1="763" x2="1213" y2="763"/>
<line x1="1119" y1="809" x2="1120" y2="809"/>
<line x1="1119" y1="809" x2="1119" y2="809"/>
<line x1="1140" y1="799" x2="1137" y2="800"/>
<line x1="1145" y1="797" x2="1140" y2="799"/>
<line x1="1149" y1="795" x2="1145" y2="797"/>
<line x1="1149" y1="795" x2="1150" y2="794"/>
<line x1="1150" y1="794" x2="1150" y2="794"/>
<line x1="1150" y1="794" x2="1150" y2="794"/>
<line x1="1153" y1="792" x2="1150" y2="794"/>
<line x1="1158" y1="790" x2="1153" y2="792"/>
<line x1="1162" y1="788" x2="1158" y2="790"/>
<line x1="1167" y1="786" x2="1162" y2="788"/>
<line x1="1171" y1="784" x2="1167" y2="786"/>
<line x1="1176" y1="781" x2="1171" y2="784"/>
<line x1="1181" y1="779" x2="1176" y2="781"/>
<line x1="1212" y1="764" x2="1181" y2="779"/>
<line x1="1212" y1="764" x2="1212" y2="763"/>
<line x1="1212" y1="763" x2="1213" y2="763"/>
<line x1="675" y1="809" x2="666" y2="809"/>
<line x1="1119" y1="809" x2="675" y2="809"/>
<line x1="398" y1="809" x2="408" y2="809"/>
<line x1="408" y1="809" x2="409" y2="809"/>
<line x1="409" y1="809" x2="419" y2="809"/>
<line x1="419" y1="809" x2="419" y2="809"/>
<line x1="419" y1="809" x2="428" y2="809"/>
<line x1="428" y1="809" x2="428" y2="809"/>
<line x1="428" y1="809" x2="438" y2="809"/>
<line x1="438" y1="809" x2="438" y2="809"/>
<line x1="438" y1="809" x2="447" y2="809"/>
<line x1="447" y1="809" x2="447" y2="809"/>
<line x1="447" y1="809" x2="456" y2="809"/>
<line x1="456" y1="809" x2="456" y2="809"/>
<line x1="456" y1="809" x2="465" y2="809"/>
<line x1="465" y1="809" x2="465" y2="809"/>
<line x1="465" y1="809" x2="473" y2="809"/>
<line x1="473" y1="809" x2="473" y2="809"/>
<line x1="473" y1="809" x2="481" y2="809"/>
<line x1="481" y1="809" x2="481" y2="809"/>
<line x1="481" y1="809" x2="489" y2="809"/>
<line x1="489" y1="809" x2="489" y2="809"/>
<line x1="489" y1="809" x2="497" y2="809"/>
<line x1="497" y1="809" x2="497" y2="809"/>
<line x1="497" y1="809" x2="505" y2="809"/>
<line x1="505" y1="809" x2="505" y2="809"/>
<line x1="505" y1="809" x2="512" y2="809"/>
<line x1="512" y1="809" x2="512" y2="809"/>
<line x1="512" y1="809" x2="519" y2="809"/>
<line x1="519" y1="809" x2="520" y2="809"/>
<line x1="520" y1="809" x2="527" y2="809"/>
<line x1="527" y1="809" x2="527" y2="809"/>
<line x1="527" y1="809" x2="534" y2="809"/>
<line x1="534" y1="809" x2="534" y2="809"/>
<line x1="534" y1="809" x2="540" y2="809"/>
<line x1="540" y1="809" x2="540" y2="809"/>
<line x1="540" y1="809" x2="547" y2="809"/>
<line x1="547" y1="809" x2="547" y2="809"/>
<line x1="547" y1="809" x2="554" y2="809"/>
<line x1="554" y1="809" x2="554" y2="809"/>
<line x1="554" y1="809" x2="560" y2="809"/>
<line x1="560" y1="809" x2="560" y2="809"/>
<line x1="560" y1="809" x2="566" y2="809"/>
<line x1="566" y1="809" x2="566" y2="809"/>
<line x1="566" y1="809" x2="572" y2="809"/>
<line x1="572" y1="809" x2="573" y2="809"/>
<line x1="573" y1="809" x2="579" y2="809"/>
<line x1="579" y1="809" x2="579" y2="809"/>
<line x1="579" y1="809" x2="585" y2="809"/>
<line x1="585" y1="809" x2="585" y2="809"/>
<line x1="585" y1="809" x2="590" y2="809"/>
<line x1="590" y1="809" x2="590" y2="809"/>
<line x1="590" y1="809" x2="596" y2="809"/>
<line x1="596" y1="809" x2="596" y2="809"/>
<line x1="596" y1="809" x2="602" y2="809"/>
<line x1="602" y1="809" x2="602" y2="809"/>
<line x1="602" y1="809" x2="608" y2="809"/>
<line x1="608" y1="809" x2="608" y2="809"/>
<line x1="608" y1="809" x2="613" y2="809"/>
<line x1="613" y1="809" x2="613" y2="809"/>
<line x1="613" y1="809" x2="619" y2="809"/>
<line x1="619" y1="809" x2="619" y2="809"/>
<line x1="619" y1="809" x2="624" y2="809"/>
<line x1="624" y1="809" x2="624" y2="809"/>
<line x1="624" y1="809" x2="629" y2="809"/>
<line x1="629" y1="809" x2="629" y2="809"/>
<line x1="629" y1="809" x2="634" y2="809"/>
<line x1="634" y1="809" x2="635" y2="809"/>
<line x1="635" y1="809" x2="640" y2="809"/>
<line x1="640" y1="809" x2="640" y2="809"/>
<line x1="640" y1="809" x2="645" y2="809"/>
<line x1="645" y1="809" x2="645" y2="809"/>
<line x1="645" y1="809" x2="650" y2="809"/>
<line x1="650" y1="809" x2="650" y2="809"/>
<line x1="650" y1="809" x2="655" y2="809"/>
<line x1="655" y1="809" x2="655" y2="809"/>
<line x1="666" y1="809" x2="655" y2="809"/>
<line x1="398" y1="809" x2="275" y2="809"/>
<line x1="221" y1="809" x2="275" y2="809"/>
<line x1="1212" y1="763" x2="1212" y2="763"/>
<line x1="1212" y1="763" x2="1213" y2="763"/>
<line x1="1140" y1="763" x2="1137" y2="763"/>
<line x1="1144" y1="763" x2="1140" y2="763"/>
<line x1="1149" y1="763" x2="1144" y2="763"/>
<line x1="1153" y1="763" x2="1149" y2="763"/>
<line x1="1158" y1="763" x2="1153" y2="763"/>
<line x1="1162" y1="763" x2="1158" y2="763"/>
<line x1="1167" y1="763" x2="1162" y2="763"/>
<line x1="1171" y1="763" x2="1167" y2="763"/>
<line x1="1176" y1="763" x2="1171" y2="763"/>
<line x1="1180" y1="763" x2="1176" y2="763"/>
<line x1="1185" y1="763" x2="1180" y2="763"/>
<line x1="1190" y1="763" x2="1185" y2="763"/>
<line x1="1195" y1="763" x2="1190" y2="763"/>
<line x1="1213" y1="763" x2="1213" y2="763"/>
<line x1="1200" y1="763" x2="1195" y2="763"/>
<line x1="1205" y1="763" x2="1200" y2="763"/>
<line x1="1210" y1="763" x2="1205" y2="763"/>
<line x1="1212" y1="763" x2="1210" y2="763"/>
<line x1="1212" y1="763" x2="1212" y2="763"/>
<line x1="1212" y1="763" x2="1212" y2="763"/>
<line x1="1213" y1="763" x2="1213" y2="763"/>
<line x1="198" y1="860" x2="152" y2="860"/>
<line x1="198" y1="860" x2="206" y2="860"/>
<line x1="206" y1="860" x2="214" y2="860"/>
<line x1="214" y1="860" x2="224" y2="860"/>
<line x1="224" y1="860" x2="234" y2="860"/>
<line x1="244" y1="860" x2="234" y2="860"/>
<line x1="256" y1="860" x2="244" y2="860"/>
<line x1="269" y1="860" x2="256" y2="860"/>
<line x1="283" y1="860" x2="269" y2="860"/>
<line x1="298" y1="860" x2="283" y2="860"/>
<line x1="314" y1="860" x2="298" y2="860"/>
<line x1="332" y1="860" x2="314" y2="860"/>
<line x1="352" y1="860" x2="332" y2="860"/>
<line x1="374" y1="860" x2="352" y2="860"/>
<line x1="399" y1="860" x2="374" y2="860"/>
<line x1="426" y1="860" x2="399" y2="860"/>
<line x1="456" y1="860" x2="426" y2="860"/>
<line x1="456" y1="860" x2="1076" y2="860"/>
<line x1="1091" y1="860" x2="1076" y2="860"/>
<line x1="1107" y1="860" x2="1091" y2="860"/>
<line x1="1122" y1="860" x2="1107" y2="860"/>
<line x1="1139" y1="860" x2="1122" y2="860"/>
<line x1="1156" y1="860" x2="1139" y2="860"/>
<line x1="1173" y1="860" x2="1156" y2="860"/>
<line x1="1191" y1="860" x2="1173" y2="860"/>
<line x1="1210" y1="860" x2="1191" y2="860"/>
<line x1="1229" y1="860" x2="1210" y2="860"/>
<line x1="1249" y1="860" x2="1229" y2="860"/>
<line x1="1249" y1="860" x2="1250" y2="860"/>
<line x1="192" y1="40" x2="224" y2="40"/>
<line x1="160" y1="40" x2="192" y2="40"/>
<line x1="1137" y1="40" x2="1153" y2="40"/>
<line x1="1158" y1="40" x2="1176" y2="40"/>
<line x1="1187" y1="40" x2="1200" y2="40"/>
<line x1="1218" y1="40" x2="1224" y2="40"/>
<line x1="1249" y1="40" x2="1249" y2="40"/>
<line x1="1158" y1="40" x2="1153" y2="40"/>
<line x1="1187" y1="40" x2="1176" y2="40"/>
<line x1="1218" y1="40" x2="1200" y2="40"/>
<line x1="1249" y1="40" x2="1224" y2="40"/>
<line x1="1250" y1="40" x2="1249" y2="40"/>
<line x1="1250" y1="843" x2="1250" y2="860"/>
<line x1="1250" y1="843" x2="1250" y2="40"/>
<line x1="150" y1="762" x2="150" y2="849"/>
<line x1="150" y1="762" x2="150" y2="90"/>
<line x1="221" y1="803" x2="221" y2="803"/>
<line x1="221" y1="803" x2="221" y2="805"/>
<line x1="221" y1="806" x2="221" y2="809"/>
<line x1="221" y1="806" x2="221" y2="805"/>
<line x1="223" y1="797" x2="223" y2="797"/>
<line x1="223" y1="797" x2="221" y2="803"/>
<line x1="221" y1="809" x2="221" y2="809"/>
<line x1="221" y1="809" x2="221" y2="809"/>
<line x1="224" y1="795" x2="223" y2="797"/>
<line x1="152" y1="854" x2="150" y2="849"/>
<line x1="152" y1="855" x2="152" y2="854"/>
<line x1="152" y1="855" x2="152" y2="860"/>
<line x1="1143" y1="71" x2="1144" y2="72"/>
<line x1="1143" y1="71" x2="1143" y2="69"/>
<line x1="1145" y1="74" x2="1146" y2="75"/>
<line x1="1145" y1="74" x2="1144" y2="72"/>
<line x1="1148" y1="77" x2="1149" y2="78"/>
<line x1="1148" y1="77" x2="1146" y2="75"/>
<line x1="1151" y1="80" x2="1152" y2="81"/>
<line x1="1151" y1="80" x2="1149" y2="78"/>
<line x1="1155" y1="82" x2="1156" y2="83"/>
<line x1="1155" y1="82" x2="1152" y2="81"/>
<line x1="1160" y1="85" x2="1161" y2="85"/>
<line x1="1160" y1="85" x2="1156" y2="83"/>
<line x1="1166" y1="87" x2="1167" y2="87"/>
<line x1="1166" y1="87" x2="1161" y2="85"/>
<line x1="1171" y1="88" x2="1172" y2="88"/>
<line x1="1171" y1="88" x2="1167" y2="87"/>
<line x1="1177" y1="89" x2="1178" y2="89"/>
<line x1="1177" y1="89" x2="1172" y2="88"/>
<line x1="1184" y1="90" x2="1185" y2="90"/>
<line x1="1184" y1="90" x2="1178" y2="89"/>
<line x1="1190" y1="90" x2="1191" y2="90"/>
<line x1="1190" y1="90" x2="1185" y2="90"/>
<line x1="1197" y1="90" x2="1197" y2="90"/>
<line x1="1197" y1="90" x2="1191" y2="90"/>
<line x1="1203" y1="90" x2="1204" y2="89"/>
<line x1="1203" y1="90" x2="1197" y2="90"/>
<line x1="1210" y1="88" x2="1204" y2="89"/>
<line x1="1204" y1="41" x2="1204" y2="41"/>
<line x1="1210" y1="42" x2="1204" y2="41"/>
<line x1="1198" y1="40" x2="1197" y2="40"/>
<line x1="1204" y1="41" x2="1198" y2="40"/>
<line x1="1191" y1="40" x2="1191" y2="40"/>
<line x1="1197" y1="40" x2="1191" y2="40"/>
<line x1="1185" y1="40" x2="1185" y2="40"/>
<line x1="1191" y1="40" x2="1185" y2="40"/>
<line x1="1179" y1="41" x2="1178" y2="41"/>
<line x1="1185" y1="40" x2="1179" y2="41"/>
<line x1="1173" y1="42" x2="1172" y2="42"/>
<line x1="1178" y1="41" x2="1173" y2="42"/>
<line x1="1168" y1="43" x2="1167" y2="44"/>
<line x1="1172" y1="42" x2="1168" y2="43"/>
<line x1="1162" y1="45" x2="1161" y2="45"/>
<line x1="1167" y1="44" x2="1162" y2="45"/>
<line x1="1158" y1="47" x2="1156" y2="48"/>
<line x1="1161" y1="45" x2="1158" y2="47"/>
<line x1="1153" y1="49" x2="1152" y2="50"/>
<line x1="1156" y1="48" x2="1153" y2="49"/>
<line x1="1150" y1="52" x2="1149" y2="53"/>
<line x1="1152" y1="50" x2="1150" y2="52"/>
<line x1="1147" y1="55" x2="1146" y2="56"/>
<line x1="1149" y1="53" x2="1147" y2="55"/>
<line x1="1144" y1="58" x2="1144" y2="59"/>
<line x1="1146" y1="56" x2="1144" y2="58"/>
<line x1="1143" y1="61" x2="1143" y2="62"/>
<line x1="1144" y1="59" x2="1143" y2="61"/>
<line x1="1142" y1="64" x2="1142" y2="65"/>
<line x1="1143" y1="62" x2="1142" y2="64"/>
<line x1="1142" y1="68" x2="1143" y2="69"/>
<line x1="1142" y1="68" x2="1142" y2="65"/>
<line x1="1210" y1="88" x2="1210" y2="88"/>
<line x1="1210" y1="88" x2="1216" y2="87"/>
<line x1="1210" y1="88" x2="1210" y2="88"/>
<line x1="1216" y1="87" x2="1222" y2="85"/>
<line x1="1216" y1="87" x2="1216" y2="87"/>
<line x1="1223" y1="85" x2="1228" y2="83"/>
<line x1="1223" y1="85" x2="1222" y2="85"/>
<line x1="1228" y1="83" x2="1233" y2="81"/>
<line x1="1228" y1="83" x2="1228" y2="83"/>
<line x1="1233" y1="80" x2="1237" y2="78"/>
<line x1="1233" y1="80" x2="1233" y2="81"/>
<line x1="1237" y1="77" x2="1240" y2="75"/>
<line x1="1237" y1="77" x2="1237" y2="78"/>
<line x1="1240" y1="74" x2="1242" y2="72"/>
<line x1="1240" y1="74" x2="1240" y2="75"/>
<line x1="1242" y1="71" x2="1244" y2="69"/>
<line x1="1242" y1="71" x2="1242" y2="72"/>
<line x1="1244" y1="68" x2="1244" y2="65"/>
<line x1="1244" y1="68" x2="1244" y2="69"/>
<line x1="1244" y1="65" x2="1244" y2="62"/>
<line x1="1244" y1="65" x2="1244" y2="65"/>
<line x1="1243" y1="62" x2="1242" y2="59"/>
<line x1="1244" y1="62" x2="1243" y2="62"/>
<line x1="1242" y1="58" x2="1240" y2="56"/>
<line x1="1242" y1="59" x2="1242" y2="58"/>
<line x1="1239" y1="55" x2="1237" y2="53"/>
<line x1="1240" y1="56" x2="1239" y2="55"/>
<line x1="1236" y1="52" x2="1233" y2="50"/>
<line x1="1237" y1="53" x2="1236" y2="52"/>
<line x1="1232" y1="50" x2="1228" y2="48"/>
<line x1="1233" y1="50" x2="1232" y2="50"/>
<line x1="1227" y1="47" x2="1222" y2="45"/>
<line x1="1228" y1="48" x2="1227" y2="47"/>
<line x1="1222" y1="45" x2="1216" y2="44"/>
<line x1="1222" y1="45" x2="1222" y2="45"/>
<line x1="1216" y1="44" x2="1210" y2="42"/>
<line x1="1216" y1="44" x2="1216" y2="44"/>
<line x1="1210" y1="42" x2="1210" y2="42"/>
<line x1="1210" y1="42" x2="1210" y2="42"/>
<line x1="170" y1="44" x2="168" y2="42"/>
<line x1="170" y1="44" x2="172" y2="44"/>
<line x1="157" y1="90" x2="155" y2="90"/>
<line x1="157" y1="90" x2="159" y2="89"/>
<line x1="186" y1="66" x2="186" y2="65"/>
<line x1="185" y1="66" x2="186" y2="66"/>
<line x1="185" y1="67" x2="185" y2="66"/>
<line x1="185" y1="68" x2="185" y2="67"/>
<line x1="185" y1="68" x2="185" y2="69"/>
<line x1="181" y1="52" x2="181" y2="52"/>
<line x1="182" y1="53" x2="182" y2="54"/>
<line x1="182" y1="53" x2="181" y2="52"/>
<line x1="182" y1="54" x2="183" y2="55"/>
<line x1="182" y1="53" x2="182" y2="53"/>
<line x1="183" y1="55" x2="183" y2="55"/>
<line x1="184" y1="56" x2="184" y2="57"/>
<line x1="184" y1="56" x2="183" y2="55"/>
<line x1="184" y1="57" x2="184" y2="58"/>
<line x1="184" y1="56" x2="184" y2="56"/>
<line x1="183" y1="75" x2="183" y2="75"/>
<line x1="182" y1="77" x2="183" y2="75"/>
<line x1="182" y1="77" x2="181" y2="77"/>
<line x1="181" y1="77" x2="181" y2="77"/>
<line x1="181" y1="77" x2="181" y2="78"/>
<line x1="185" y1="62" x2="185" y2="61"/>
<line x1="185" y1="62" x2="185" y2="62"/>
<line x1="185" y1="63" x2="185" y2="62"/>
<line x1="186" y1="64" x2="185" y2="63"/>
<line x1="186" y1="64" x2="186" y2="64"/>
<line x1="185" y1="58" x2="184" y2="58"/>
<line x1="185" y1="59" x2="185" y2="58"/>
<line x1="185" y1="60" x2="185" y2="59"/>
<line x1="185" y1="61" x2="185" y2="60"/>
<line x1="185" y1="61" x2="185" y2="61"/>
<line x1="186" y1="65" x2="186" y2="64"/>
<line x1="186" y1="65" x2="186" y2="65"/>
<line x1="152" y1="90" x2="150" y2="90"/>
<line x1="152" y1="90" x2="155" y2="90"/>
<line x1="174" y1="84" x2="175" y2="83"/>
<line x1="173" y1="84" x2="174" y2="84"/>
<line x1="173" y1="84" x2="172" y2="85"/>
<line x1="185" y1="69" x2="185" y2="69"/>
<line x1="185" y1="70" x2="185" y2="69"/>
<line x1="185" y1="70" x2="185" y2="70"/>
<line x1="184" y1="71" x2="185" y2="70"/>
<line x1="184" y1="71" x2="184" y2="72"/>
<line x1="161" y1="40" x2="160" y2="40"/>
<line x1="164" y1="41" x2="161" y2="40"/>
<line x1="165" y1="88" x2="164" y2="88"/>
<line x1="165" y1="88" x2="168" y2="87"/>
<line x1="176" y1="47" x2="175" y2="46"/>
<line x1="177" y1="48" x2="178" y2="49"/>
<line x1="177" y1="48" x2="176" y2="47"/>
<line x1="178" y1="49" x2="178" y2="49"/>
<line x1="177" y1="48" x2="177" y2="48"/>
<line x1="161" y1="89" x2="159" y2="89"/>
<line x1="161" y1="89" x2="164" y2="88"/>
<line x1="170" y1="86" x2="172" y2="85"/>
<line x1="170" y1="86" x2="168" y2="87"/>
<line x1="174" y1="46" x2="175" y2="46"/>
<line x1="173" y1="45" x2="174" y2="46"/>
<line x1="173" y1="45" x2="173" y2="45"/>
<line x1="173" y1="45" x2="172" y2="44"/>
<line x1="184" y1="72" x2="184" y2="72"/>
<line x1="183" y1="74" x2="184" y2="72"/>
<line x1="183" y1="74" x2="183" y2="74"/>
<line x1="183" y1="74" x2="183" y2="74"/>
<line x1="183" y1="74" x2="183" y2="75"/>
<line x1="180" y1="78" x2="181" y2="78"/>
<line x1="179" y1="79" x2="180" y2="78"/>
<line x1="179" y1="79" x2="179" y2="80"/>
<line x1="179" y1="80" x2="179" y2="80"/>
<line x1="179" y1="80" x2="178" y2="81"/>
<line x1="178" y1="81" x2="178" y2="81"/>
<line x1="176" y1="82" x2="178" y2="81"/>
<line x1="176" y1="82" x2="176" y2="82"/>
<line x1="176" y1="82" x2="176" y2="83"/>
<line x1="176" y1="83" x2="175" y2="83"/>
<line x1="179" y1="50" x2="178" y2="49"/>
<line x1="180" y1="51" x2="180" y2="51"/>
<line x1="180" y1="50" x2="179" y2="50"/>
<line x1="180" y1="51" x2="181" y2="52"/>
<line x1="180" y1="51" x2="180" y2="50"/>
<line x1="165" y1="42" x2="164" y2="41"/>
<line x1="168" y1="42" x2="165" y2="42"/>
</g></svg>