<svg xmlns="http://www.w3.org/2000/svg" width="1400" height="900" viewBox="0 0 1400 900">
<rect x="0" y="0" width="100%" height="100%" fill="white"/>
<g stroke="#111" stroke-width="1.2" fill="none" stroke-linecap="round">
<line x1="1084" y1="860" x2="1083" y2="860"/>
<line x1="1084" y1="860" x2="1086" y2="860"/>
<line x1="1089" y1="859" x2="1086" y2="860"/>
<line x1="1089" y1="859" x2="1089" y2="859"/>
<line x1="1092" y1="859" x2="1089" y2="859"/>
<line x1="1092" y1="859" x2="1092" y2="858"/>
<line x1="1095" y1="858" x2="1092" y2="858"/>
<line x1="1095" y1="858" x2="1095" y2="858"/>
<line x1="1095" y1="858" x2="1095" y2="858"/>
<line x1="1097" y1="857" x2="1095" y2="858"/>
<line x1="1097" y1="857" x2="1098" y2="857"/>
<line x1="1098" y1="857" x2="1098" y2="857"/>
<line x1="1100" y1="855" x2="1098" y2="857"/>
<line x1="1100" y1="855" x2="1100" y2="855"/>
<line x1="1103" y1="854" x2="1100" y2="855"/>
<line x1="1103" y1="854" x2="1103" y2="854"/>
<line x1="1103" y1="854" x2="1103" y2="854"/>
<line x1="1105" y1="853" x2="1103" y2="854"/>
<line x1="1105" y1="853" x2="1105" y2="853"/>
<line x1="1105" y1="853" x2="1105" y2="852"/>
<line x1="1105" y1="852" x2="1105" y2="852"/>
<line x1="1105" y1="852" x2="1105" y2="852"/>
<line x1="1105" y1="852" x2="1108" y2="851"/>
<line x1="1108" y1="851" x2="1108" y2="851"/>
<line x1="1108" y1="851" x2="1108" y2="851"/>
<line x1="1108" y1="851" x2="1108" y2="851"/>
<line x1="1108" y1="851" x2="1110" y2="849"/>
<line x1="1110" y1="849" x2="1110" y2="849"/>
<line x1="1110" y1="849" x2="1110" y2="849"/>
<line x1="1110" y1="849" x2="1110" y2="849"/>
<line x1="1110" y1="849" x2="1112" y2="847"/>
<line x1="1114" y1="845" x2="1114" y2="845"/>
<line x1="1114" y1="845" x2="1114" y2="845"/>
<line x1="1112" y1="847" x2="1112" y2="847"/>
<line x1="1112" y1="847" x2="1112" y2="847"/>
<line x1="1112" y1="847" x2="1114" y2="845"/>
<line x1="1116" y1="843" x2="1116" y2="843"/>
<line x1="1116" y1="843" x2="1116" y2="843"/>
<line x1="1116" y1="843" x2="1116" y2="843"/>
<line x1="1116" y1="843" x2="1116" y2="843"/>
<line x1="1116" y1="843" x2="1114" y2="845"/>
<line x1="1118" y1="840" x2="1118" y2="840"/>
<line x1="1118" y1="840" x2="1118" y2="840"/>
<line x1="1117" y1="840" x2="1118" y2="840"/>
<line x1="1117" y1="840" x2="1116" y2="843"/>
<line x1="1119" y1="838" x2="1119" y2="838"/>
<line x1="1119" y1="838" x2="1119" y2="838"/>
<line x1="1119" y1="838" x2="1119" y2="838"/>
<line x1="1119" y1="838" x2="1118" y2="840"/>
<line x1="1120" y1="835" x2="1120" y2="835"/>
<line x1="1120" y1="835" x2="1120" y2="835"/>
<line x1="1120" y1="835" x2="1120" y2="835"/>
<line x1="1120" y1="835" x2="1119" y2="838"/>
<line x1="1122" y1="832" x2="1122" y2="832"/>
<line x1="1122" y1="833" x2="1122" y2="832"/>
<line x1="1122" y1="833" x2="1122" y2="833"/>
<line x1="1122" y1="833" x2="1122" y2="833"/>
<line x1="1122" y1="833" x2="1120" y2="835"/>
<line x1="1123" y1="830" x2="1123" y2="830"/>
<line x1="1123" y1="830" x2="1123" y2="830"/>
<line x1="1123" y1="830" x2="1123" y2="830"/>
<line x1="1123" y1="830" x2="1122" y2="832"/>
<line x1="1124" y1="827" x2="1124" y2="827"/>
<line x1="1124" y1="827" x2="1124" y2="827"/>
<line x1="1124" y1="827" x2="1124" y2="827"/>
<line x1="1123" y1="827" x2="1124" y2="827"/>
<line x1="1123" y1="827" x2="1123" y2="830"/>
<line x1="1124" y1="824" x2="1124" y2="824"/>
<line x1="1124" y1="824" x2="1124" y2="824"/>
<line x1="1124" y1="824" x2="1124" y2="824"/>
<line x1="1124" y1="824" x2="1124" y2="824"/>
<line x1="1124" y1="824" x2="1124" y2="827"/>
<line x1="1125" y1="821" x2="1125" y2="821"/>
<line x1="1125" y1="821" x2="1125" y2="821"/>
<line x1="1125" y1="821" x2="1125" y2="821"/>
<line x1="1125" y1="821" x2="1125" y2="821"/>
<line x1="1125" y1="821" x2="1124" y2="824"/>
<line x1="1125" y1="818" x2="1125" y2="818"/>
<line x1="1125" y1="818" x2="1125" y2="821"/>
<line x1="1125" y1="815" x2="1125" y2="814"/>
<line x1="1125" y1="815" x2="1125" y2="818"/>
<line x1="1125" y1="807" x2="1125" y2="806"/>
<line x1="1125" y1="807" x2="1125" y2="814"/>
<line x1="1125" y1="806" x2="1125" y2="806"/>
<line x1="1125" y1="806" x2="1125" y2="806"/>
<line x1="1124" y1="789" x2="1124" y2="789"/>
<line x1="1124" y1="789" x2="1125" y2="806"/>
<line x1="1124" y1="788" x2="1124" y2="788"/>
<line x1="1124" y1="788" x2="1124" y2="789"/>
<line x1="1124" y1="771" x2="1124" y2="771"/>
<line x1="1124" y1="771" x2="1124" y2="788"/>
<line x1="1124" y1="770" x2="1124" y2="770"/>
<line x1="1124" y1="770" x2="1124" y2="771"/>
<line x1="1123" y1="754" x2="1123" y2="753"/>
<line x1="1123" y1="754" x2="1124" y2="770"/>
<line x1="1123" y1="752" x2="1123" y2="752"/>
<line x1="1123" y1="752" x2="1123" y2="753"/>
<line x1="1123" y1="752" x2="1123" y2="752"/>
<line x1="1123" y1="752" x2="1123" y2="752"/>
<line x1="1123" y1="752" x2="1123" y2="752"/>
<line x1="1123" y1="752" x2="1123" y2="752"/>
<line x1="1123" y1="752" x2="1123" y2="752"/>
<line x1="1123" y1="752" x2="1123" y2="752"/>
<line x1="1123" y1="752" x2="1122" y2="735"/>
<line x1="1122" y1="735" x2="1122" y2="735"/>
<line x1="1122" y1="735" x2="1122" y2="735"/>
<line x1="1122" y1="735" x2="1122" y2="735"/>
<line x1="1121" y1="717" x2="1121" y2="717"/>
<line x1="1121" y1="717" x2="1121" y2="717"/>
<line x1="1121" y1="717" x2="1121" y2="717"/>
<line x1="1121" y1="717" x2="1121" y2="717"/>
<line x1="1121" y1="718" x2="1121" y2="717"/>
<line x1="1121" y1="718" x2="1121" y2="718"/>
<line x1="1121" y1="718" x2="1121" y2="718"/>
<line x1="1121" y1="718" x2="1122" y2="735"/>
<line x1="1121" y1="717" x2="1121" y2="717"/>
<line x1="1121" y1="717" x2="1121" y2="717"/>
<line x1="1119" y1="700" x2="1119" y2="699"/>
<line x1="1119" y1="700" x2="1121" y2="717"/>
<line x1="1119" y1="699" x2="1119" y2="699"/>
<line x1="1119" y1="699" x2="1119" y2="699"/>
<line x1="1118" y1="682" x2="1118" y2="681"/>
<line x1="1118" y1="682" x2="1119" y2="699"/>
<line x1="1118" y1="681" x2="1118" y2="681"/>
<line x1="1118" y1="681" x2="1118" y2="681"/>
<line x1="1116" y1="664" x2="1116" y2="664"/>
<line x1="1116" y1="664" x2="1118" y2="681"/>
<line x1="1116" y1="663" x2="1116" y2="663"/>
<line x1="1116" y1="663" x2="1116" y2="664"/>
<line x1="1114" y1="646" x2="1114" y2="646"/>
<line x1="1114" y1="646" x2="1116" y2="663"/>
<line x1="1114" y1="645" x2="1114" y2="645"/>
<line x1="1114" y1="645" x2="1114" y2="646"/>
<line x1="1112" y1="629" x2="1112" y2="628"/>
<line x1="1112" y1="629" x2="1114" y2="645"/>
<line x1="1112" y1="628" x2="1112" y2="628"/>
<line x1="1112" y1="628" x2="1112" y2="628"/>
<line x1="1110" y1="611" x2="1110" y2="610"/>
<line x1="1110" y1="611" x2="1112" y2="628"/>
<line x1="1110" y1="610" x2="1110" y2="610"/>
<line x1="1110" y1="610" x2="1110" y2="610"/>
<line x1="1110" y1="609" x2="1110" y2="609"/>
<line x1="1110" y1="609" x2="1110" y2="609"/>
<line x1="1110" y1="609" x2="1110" y2="609"/>
<line x1="1110" y1="609" x2="1110" y2="610"/>
<line x1="1110" y1="609" x2="1108" y2="592"/>
<line x1="1108" y1="592" x2="1108" y2="592"/>
<line x1="1108" y1="592" x2="1108" y2="592"/>
<line x1="1106" y1="575" x2="1106" y2="575"/>
<line x1="1106" y1="575" x2="1106" y2="575"/>
<line x1="1106" y1="575" x2="1106" y2="575"/>
<line x1="1108" y1="592" x2="1108" y2="592"/>
<line x1="1108" y1="592" x2="1108" y2="592"/>
<line x1="1108" y1="592" x2="1108" y2="592"/>
<line x1="1108" y1="592" x2="1106" y2="575"/>
<line x1="1106" y1="574" x2="1106" y2="574"/>
<line x1="1106" y1="574" x2="1106" y2="575"/>
<line x1="1103" y1="557" x2="1103" y2="557"/>
<line x1="1103" y1="558" x2="1103" y2="557"/>
<line x1="1103" y1="558" x2="1103" y2="558"/>
<line x1="1103" y1="558" x2="1103" y2="558"/>
<line x1="1103" y1="558" x2="1103" y2="558"/>
<line x1="1103" y1="558" x2="1106" y2="574"/>
<line x1="1103" y1="557" x2="1103" y2="557"/>
<line x1="1103" y1="557" x2="1103" y2="557"/>
<line x1="1100" y1="540" x2="1100" y2="539"/>
<line x1="1100" y1="540" x2="1103" y2="557"/>
<line x1="1100" y1="539" x2="1100" y2="539"/>
<line x1="1100" y1="539" x2="1100" y2="539"/>
<line x1="1098" y1="522" x2="1097" y2="522"/>
<line x1="1098" y1="522" x2="1100" y2="539"/>
<line x1="1097" y1="521" x2="1097" y2="521"/>
<line x1="1097" y1="521" x2="1097" y2="522"/>
<line x1="1095" y1="505" x2="1094" y2="504"/>
<line x1="1095" y1="505" x2="1097" y2="521"/>
<line x1="1094" y1="504" x2="1094" y2="504"/>
<line x1="1094" y1="504" x2="1094" y2="504"/>
<line x1="1091" y1="487" x2="1091" y2="486"/>
<line x1="1091" y1="487" x2="1094" y2="504"/>
<line x1="1091" y1="486" x2="1091" y2="486"/>
<line x1="1091" y1="486" x2="1091" y2="486"/>
<line x1="1088" y1="469" x2="1088" y2="469"/>
<line x1="1088" y1="469" x2="1091" y2="486"/>
<line x1="1088" y1="468" x2="1088" y2="468"/>
<line x1="1088" y1="468" x2="1088" y2="469"/>
<line x1="1085" y1="452" x2="1084" y2="451"/>
<line x1="1085" y1="452" x2="1088" y2="468"/>
<line x1="1084" y1="451" x2="1084" y2="451"/>
<line x1="1084" y1="451" x2="1084" y2="451"/>
<line x1="1084" y1="450" x2="1084" y2="450"/>
<line x1="1084" y1="450" x2="1084" y2="450"/>
<line x1="1084" y1="450" x2="1084" y2="450"/>
<line x1="1084" y1="450" x2="1084" y2="450"/>
<line x1="1084" y1="450" x2="1084" y2="451"/>
<line x1="1084" y1="451" x2="1084" y2="451"/>
<line x1="1084" y1="450" x2="1081" y2="434"/>
<line x1="1081" y1="433" x2="1081" y2="433"/>
<line x1="1081" y1="434" x2="1081" y2="434"/>
<line x1="1081" y1="434" x2="1081" y2="433"/>
<line x1="1077" y1="416" x2="1077" y2="416"/>
<line x1="1077" y1="416" x2="1077" y2="416"/>
<line x1="1077" y1="416" x2="1077" y2="416"/>
<line x1="1077" y1="416" x2="1077" y2="416"/>
<line x1="1077" y1="417" x2="1077" y2="416"/>
<line x1="1077" y1="417" x2="1077" y2="417"/>
<line x1="1077" y1="417" x2="1077" y2="417"/>
<line x1="1077" y1="417" x2="1081" y2="433"/>
<line x1="1077" y1="416" x2="1077" y2="416"/>
<line x1="1077" y1="416" x2="1077" y2="416"/>
<line x1="1073" y1="399" x2="1073" y2="399"/>
<line x1="1073" y1="399" x2="1077" y2="416"/>
<line x1="1073" y1="398" x2="1073" y2="398"/>
<line x1="1073" y1="398" x2="1073" y2="399"/>
<line x1="1069" y1="382" x2="1069" y2="381"/>
<line x1="1069" y1="382" x2="1073" y2="398"/>
<line x1="1069" y1="381" x2="1069" y2="381"/>
<line x1="1069" y1="381" x2="1069" y2="381"/>
<line x1="1065" y1="365" x2="1065" y2="364"/>
<line x1="1065" y1="365" x2="1069" y2="381"/>
<line x1="1065" y1="363" x2="1065" y2="363"/>
<line x1="1065" y1="363" x2="1065" y2="364"/>
<line x1="1060" y1="347" x2="1060" y2="347"/>
<line x1="1060" y1="347" x2="1065" y2="363"/>
<line x1="1060" y1="346" x2="1060" y2="346"/>
<line x1="1060" y1="346" x2="1060" y2="347"/>
<line x1="1056" y1="330" x2="1056" y2="329"/>
<line x1="1056" y1="330" x2="1060" y2="346"/>
<line x1="1056" y1="329" x2="1056" y2="329"/>
<line x1="1056" y1="329" x2="1056" y2="329"/>
<line x1="1051" y1="313" x2="1051" y2="312"/>
<line x1="1051" y1="313" x2="1056" y2="329"/>
<line x1="1051" y1="312" x2="1051" y2="312"/>
<line x1="1051" y1="312" x2="1051" y2="312"/>
<line x1="1051" y1="311" x2="1051" y2="311"/>
<line x1="1051" y1="311" x2="1051" y2="311"/>
<line x1="1051" y1="311" x2="1051" y2="311"/>
<line x1="1051" y1="311" x2="1051" y2="312"/>
<line x1="1051" y1="311" x2="1046" y2="295"/>
<line x1="1046" y1="295" x2="1046" y2="295"/>
<line x1="1046" y1="295" x2="1046" y2="294"/>
<line x1="1041" y1="278" x2="1041" y2="277"/>
<line x1="1041" y1="278" x2="1041" y2="278"/>
<line x1="1041" y1="278" x2="1041" y2="278"/>
<line x1="1046" y1="294" x2="1046" y2="294"/>
<line x1="1046" y1="294" x2="1046" y2="294"/>
<line x1="1046" y1="294" x2="1046" y2="294"/>
<line x1="1046" y1="294" x2="1041" y2="278"/>
<line x1="1041" y1="277" x2="1041" y2="277"/>
<line x1="1041" y1="277" x2="1041" y2="277"/>
<line x1="1036" y1="261" x2="1036" y2="260"/>
<line x1="1036" y1="261" x2="1036" y2="261"/>
<line x1="1036" y1="261" x2="1036" y2="261"/>
<line x1="1036" y1="261" x2="1036" y2="261"/>
<line x1="1036" y1="261" x2="1036" y2="261"/>
<line x1="1036" y1="261" x2="1041" y2="277"/>
<line x1="1036" y1="260" x2="1036" y2="260"/>
<line x1="1036" y1="260" x2="1036" y2="260"/>
<line x1="1031" y1="244" x2="1031" y2="243"/>
<line x1="1031" y1="244" x2="1036" y2="260"/>
<line x1="1031" y1="243" x2="1031" y2="243"/>
<line x1="1031" y1="243" x2="1031" y2="243"/>
<line x1="1025" y1="227" x2="1025" y2="226"/>
<line x1="1025" y1="227" x2="1031" y2="243"/>
<line x1="1025" y1="226" x2="1025" y2="226"/>
<line x1="1025" y1="226" x2="1025" y2="226"/>
<line x1="1020" y1="210" x2="1020" y2="209"/>
<line x1="1020" y1="210" x2="1025" y2="226"/>
<line x1="1019" y1="209" x2="1019" y2="209"/>
<line x1="1019" y1="209" x2="1020" y2="209"/>
<line x1="1014" y1="193" x2="1014" y2="192"/>
<line x1="1014" y1="193" x2="1019" y2="209"/>
<line x1="1014" y1="192" x2="1014" y2="192"/>
<line x1="1014" y1="192" x2="1014" y2="192"/>
<line x1="1008" y1="176" x2="1008" y2="175"/>
<line x1="1008" y1="176" x2="1014" y2="192"/>
<line x1="1008" y1="175" x2="1008" y2="175"/>
<line x1="1008" y1="175" x2="1008" y2="175"/>
<line x1="1002" y1="159" x2="1002" y2="158"/>
<line x1="1002" y1="159" x2="1008" y2="175"/>
<line x1="1002" y1="158" x2="1002" y2="158"/>
<line x1="1002" y1="158" x2="1002" y2="158"/>
<line x1="1002" y1="157" x2="1002" y2="157"/>
<line x1="1002" y1="157" x2="1002" y2="157"/>
<line x1="1002" y1="157" x2="1002" y2="158"/>
<line x1="1002" y1="158" x2="1002" y2="158"/>
<line x1="1002" y1="158" x2="1002" y2="158"/>
<line x1="1002" y1="158" x2="1002" y2="158"/>
<line x1="1002" y1="157" x2="996" y2="142"/>
<line x1="996" y1="141" x2="996" y2="141"/>
<line x1="996" y1="142" x2="996" y2="142"/>
<line x1="996" y1="142" x2="996" y2="141"/>
<line x1="989" y1="125" x2="989" y2="125"/>
<line x1="989" y1="125" x2="989" y2="125"/>
<line x1="989" y1="125" x2="989" y2="125"/>
<line x1="989" y1="125" x2="989" y2="125"/>
<line x1="990" y1="126" x2="989" y2="125"/>
<line x1="990" y1="126" x2="990" y2="126"/>
<line x1="990" y1="126" x2="990" y2="126"/>
<line x1="990" y1="126" x2="996" y2="141"/>
<line x1="989" y1="125" x2="989" y2="125"/>
<line x1="989" y1="125" x2="989" y2="125"/>
<line x1="983" y1="109" x2="983" y2="108"/>
<line x1="983" y1="109" x2="989" y2="125"/>
<line x1="983" y1="108" x2="983" y2="108"/>
<line x1="983" y1="108" x2="983" y2="108"/>
<line x1="977" y1="92" x2="976" y2="92"/>
<line x1="977" y1="92" x2="983" y2="108"/>
<line x1="976" y1="91" x2="976" y2="91"/>
<line x1="976" y1="91" x2="976" y2="92"/>
<line x1="970" y1="76" x2="969" y2="75"/>
<line x1="970" y1="76" x2="976" y2="91"/>
<line x1="969" y1="75" x2="969" y2="75"/>
<line x1="969" y1="75" x2="969" y2="75"/>
<line x1="966" y1="68" x2="966" y2="67"/>
<line x1="966" y1="68" x2="969" y2="75"/>
<line x1="965" y1="65" x2="965" y2="65"/>
<line x1="965" y1="65" x2="966" y2="67"/>
<line x1="964" y1="62" x2="964" y2="62"/>
<line x1="964" y1="62" x2="965" y2="65"/>
<line x1="962" y1="60" x2="962" y2="60"/>
<line x1="962" y1="60" x2="964" y2="62"/>
<line x1="962" y1="60" x2="962" y2="60"/>
<line x1="962" y1="60" x2="962" y2="60"/>
<line x1="962" y1="60" x2="962" y2="60"/>
<line x1="962" y1="60" x2="962" y2="60"/>
<line x1="962" y1="60" x2="962" y2="60"/>
<line x1="962" y1="60" x2="962" y2="60"/>
<line x1="962" y1="60" x2="960" y2="57"/>
<line x1="960" y1="57" x2="960" y2="57"/>
<line x1="960" y1="57" x2="960" y2="57"/>
<line x1="960" y1="57" x2="960" y2="57"/>
<line x1="960" y1="57" x2="960" y2="57"/>
<line x1="960" y1="57" x2="959" y2="55"/>
<line x1="958" y1="55" x2="958" y2="55"/>
<line x1="958" y1="55" x2="958" y2="55"/>
<line x1="958" y1="55" x2="959" y2="55"/>
<line x1="958" y1="55" x2="957" y2="53"/>
<line x1="957" y1="53" x2="957" y2="53"/>
<line x1="956" y1="53" x2="957" y2="53"/>
<line x1="956" y1="53" x2="956" y2="53"/>
<line x1="956" y1="53" x2="956" y2="53"/>
<line x1="956" y1="53" x2="954" y2="51"/>
<line x1="954" y1="51" x2="954" y2="51"/>
<line x1="954" y1="51" x2="954" y2="51"/>
<line x1="954" y1="51" x2="952" y2="49"/>
<line x1="952" y1="49" x2="952" y2="49"/>
<line x1="952" y1="49" x2="952" y2="49"/>
<line x1="952" y1="49" x2="950" y2="47"/>
<line x1="950" y1="47" x2="950" y2="47"/>
<line x1="950" y1="47" x2="950" y2="47"/>
<line x1="950" y1="47" x2="950" y2="47"/>
<line x1="950" y1="47" x2="947" y2="46"/>
<line x1="947" y1="46" x2="947" y2="46"/>
<line x1="947" y1="46" x2="947" y2="46"/>
<line x1="947" y1="46" x2="947" y2="46"/>
<line x1="947" y1="46" x2="945" y2="45"/>
<line x1="945" y1="44" x2="945" y2="45"/>
<line x1="945" y1="44" x2="945" y2="44"/>
<line x1="945" y1="44" x2="945" y2="44"/>
<line x1="945" y1="44" x2="942" y2="43"/>
<line x1="942" y1="43" x2="942" y2="43"/>
<line x1="939" y1="42" x2="942" y2="43"/>
<line x1="939" y1="42" x2="939" y2="42"/>
<line x1="939" y1="42" x2="939" y2="42"/>
<line x1="939" y1="42" x2="939" y2="42"/>
<line x1="937" y1="42" x2="939" y2="42"/>
<line x1="937" y1="42" x2="937" y2="41"/>
<line x1="937" y1="41" x2="936" y2="41"/>
<line x1="934" y1="41" x2="936" y2="41"/>
<line x1="934" y1="41" x2="934" y2="41"/>
<line x1="934" y1="41" x2="934" y2="41"/>
<line x1="934" y1="41" x2="934" y2="41"/>
<line x1="934" y1="41" x2="934" y2="41"/>
<line x1="934" y1="41" x2="931" y2="40"/>
<line x1="931" y1="40" x2="931" y2="40"/>
<line x1="931" y1="40" x2="931" y2="40"/>
<line x1="931" y1="40" x2="928" y2="40"/>
<line x1="928" y1="40" x2="928" y2="40"/>
<line x1="928" y1="40" x2="928" y2="40"/>
<line x1="928" y1="40" x2="925" y2="40"/>
<line x1="925" y1="40" x2="925" y2="40"/>
<line x1="925" y1="40" x2="925" y2="40"/>
<line x1="925" y1="40" x2="922" y2="40"/>
<line x1="922" y1="40" x2="922" y2="40"/>
<line x1="922" y1="40" x2="919" y2="40"/>
<line x1="919" y1="40" x2="919" y2="40"/>
<line x1="919" y1="40" x2="919" y2="40"/>
<line x1="919" y1="40" x2="916" y2="41"/>
<line x1="916" y1="41" x2="916" y2="41"/>
<line x1="916" y1="41" x2="913" y2="42"/>
<line x1="913" y1="42" x2="913" y2="42"/>
<line x1="913" y1="42" x2="911" y2="42"/>
<line x1="911" y1="42" x2="910" y2="42"/>
<line x1="907" y1="44" x2="910" y2="42"/>
<line x1="907" y1="44" x2="907" y2="44"/>
<line x1="302" y1="313" x2="301" y2="314"/>
<line x1="583" y1="188" x2="603" y2="179"/>
<line x1="399" y1="270" x2="302" y2="313"/>
<line x1="485" y1="232" x2="399" y2="270"/>
<line x1="523" y1="215" x2="485" y2="232"/>
<line x1="547" y1="204" x2="523" y2="215"/>
<line x1="583" y1="188" x2="547" y2="204"/>
<line x1="618" y1="172" x2="907" y2="44"/>
<line x1="618" y1="172" x2="603" y2="179"/>
<line x1="301" y1="314" x2="301" y2="314"/>
<line x1="301" y1="314" x2="301" y2="314"/>
<line x1="301" y1="314" x2="299" y2="315"/>
<line x1="299" y1="315" x2="299" y2="315"/>
<line x1="299" y1="315" x2="296" y2="316"/>
<line x1="296" y1="316" x2="296" y2="316"/>
<line x1="296" y1="316" x2="294" y2="318"/>
<line x1="294" y1="318" x2="294" y2="318"/>
<line x1="294" y1="318" x2="294" y2="318"/>
<line x1="294" y1="318" x2="291" y2="320"/>
<line x1="291" y1="320" x2="291" y2="320"/>
<line x1="291" y1="320" x2="291" y2="320"/>
<line x1="291" y1="320" x2="291" y2="320"/>
<line x1="291" y1="320" x2="289" y2="321"/>
<line x1="289" y1="322" x2="289" y2="321"/>
<line x1="289" y1="322" x2="289" y2="322"/>
<line x1="288" y1="323" x2="289" y2="322"/>
<line x1="288" y1="323" x2="287" y2="324"/>
<line x1="287" y1="324" x2="287" y2="324"/>
<line x1="287" y1="324" x2="286" y2="324"/>
<line x1="286" y1="324" x2="286" y2="324"/>
<line x1="287" y1="324" x2="287" y2="324"/>
<line x1="286" y1="324" x2="285" y2="326"/>
<line x1="285" y1="326" x2="285" y2="326"/>
<line x1="287" y1="324" x2="287" y2="324"/>
<line x1="285" y1="326" x2="283" y2="328"/>
<line x1="285" y1="326" x2="285" y2="326"/>
<line x1="285" y1="326" x2="285" y2="326"/>
<line x1="283" y1="328" x2="283" y2="328"/>
<line x1="283" y1="328" x2="282" y2="330"/>
<line x1="282" y1="330" x2="282" y2="330"/>
<line x1="282" y1="330" x2="282" y2="330"/>
<line x1="282" y1="331" x2="282" y2="330"/>
<line x1="282" y1="331" x2="280" y2="333"/>
<line x1="282" y1="331" x2="282" y2="331"/>
<line x1="280" y1="333" x2="280" y2="333"/>
<line x1="280" y1="333" x2="280" y2="333"/>
<line x1="280" y1="333" x2="280" y2="333"/>
<line x1="280" y1="333" x2="279" y2="336"/>
<line x1="280" y1="333" x2="280" y2="333"/>
<line x1="279" y1="336" x2="279" y2="336"/>
<line x1="279" y1="336" x2="279" y2="336"/>
<line x1="278" y1="338" x2="279" y2="336"/>
<line x1="278" y1="338" x2="278" y2="338"/>
<line x1="277" y1="341" x2="278" y2="338"/>
<line x1="277" y1="341" x2="277" y2="341"/>
<line x1="277" y1="341" x2="277" y2="341"/>
<line x1="277" y1="341" x2="277" y2="341"/>
<line x1="277" y1="341" x2="277" y2="341"/>
<line x1="277" y1="341" x2="277" y2="342"/>
<line x1="277" y1="342" x2="277" y2="342"/>
<line x1="277" y1="342" x2="277" y2="342"/>
<line x1="276" y1="343" x2="277" y2="342"/>
<line x1="276" y1="343" x2="276" y2="344"/>
<line x1="276" y1="345" x2="276" y2="344"/>
<line x1="276" y1="345" x2="276" y2="347"/>
<line x1="275" y1="348" x2="276" y2="347"/>
<line x1="275" y1="348" x2="275" y2="350"/>
<line x1="275" y1="351" x2="275" y2="350"/>
<line x1="275" y1="352" x2="275" y2="352"/>
<line x1="275" y1="352" x2="275" y2="352"/>
<line x1="275" y1="352" x2="275" y2="352"/>
<line x1="275" y1="352" x2="275" y2="351"/>
<line x1="275" y1="352" x2="275" y2="352"/>
<line x1="275" y1="355" x2="275" y2="352"/>
<line x1="275" y1="355" x2="275" y2="355"/>
<line x1="275" y1="355" x2="275" y2="355"/>
<line x1="275" y1="355" x2="275" y2="355"/>
<line x1="275" y1="355" x2="275" y2="355"/>
<line x1="275" y1="358" x2="275" y2="355"/>
<line x1="275" y1="358" x2="275" y2="358"/>
<line x1="275" y1="358" x2="275" y2="358"/>
<line x1="275" y1="358" x2="275" y2="358"/>
<line x1="275" y1="361" x2="275" y2="358"/>
<line x1="275" y1="361" x2="275" y2="361"/>
<line x1="275" y1="361" x2="275" y2="361"/>
<line x1="275" y1="361" x2="275" y2="361"/>
<line x1="275" y1="361" x2="275" y2="361"/>
<line x1="276" y1="364" x2="275" y2="361"/>
<line x1="276" y1="364" x2="276" y2="364"/>
<line x1="276" y1="364" x2="276" y2="364"/>
<line x1="276" y1="364" x2="276" y2="364"/>
<line x1="276" y1="364" x2="276" y2="364"/>
<line x1="276" y1="364" x2="276" y2="364"/>
<line x1="277" y1="367" x2="276" y2="364"/>
<line x1="277" y1="367" x2="277" y2="367"/>
<line x1="278" y1="370" x2="277" y2="367"/>
<line x1="278" y1="370" x2="278" y2="370"/>
<line x1="278" y1="371" x2="278" y2="370"/>
<line x1="278" y1="371" x2="278" y2="371"/>
<line x1="279" y1="373" x2="278" y2="371"/>
<line x1="279" y1="373" x2="279" y2="373"/>
<line x1="283" y1="383" x2="279" y2="373"/>
<line x1="283" y1="383" x2="283" y2="384"/>
<line x1="287" y1="394" x2="283" y2="384"/>
<line x1="287" y1="394" x2="287" y2="394"/>
<line x1="291" y1="404" x2="287" y2="394"/>
<line x1="291" y1="404" x2="291" y2="405"/>
<line x1="295" y1="415" x2="291" y2="405"/>
<line x1="295" y1="415" x2="295" y2="415"/>
<line x1="299" y1="426" x2="295" y2="415"/>
<line x1="299" y1="426" x2="299" y2="426"/>
<line x1="303" y1="436" x2="299" y2="426"/>
<line x1="303" y1="436" x2="303" y2="437"/>
<line x1="306" y1="447" x2="303" y2="437"/>
<line x1="306" y1="447" x2="307" y2="448"/>
<line x1="310" y1="458" x2="307" y2="448"/>
<line x1="310" y1="458" x2="310" y2="458"/>
<line x1="313" y1="469" x2="310" y2="458"/>
<line x1="313" y1="469" x2="314" y2="469"/>
<line x1="317" y1="480" x2="314" y2="469"/>
<line x1="317" y1="480" x2="317" y2="480"/>
<line x1="320" y1="490" x2="317" y2="480"/>
<line x1="320" y1="490" x2="320" y2="491"/>
<line x1="323" y1="501" x2="320" y2="491"/>
<line x1="323" y1="501" x2="323" y2="502"/>
<line x1="326" y1="512" x2="323" y2="502"/>
<line x1="326" y1="512" x2="326" y2="513"/>
<line x1="329" y1="523" x2="326" y2="513"/>
<line x1="329" y1="523" x2="329" y2="524"/>
<line x1="332" y1="534" x2="329" y2="524"/>
<line x1="332" y1="534" x2="332" y2="535"/>
<line x1="335" y1="545" x2="332" y2="535"/>
<line x1="335" y1="545" x2="335" y2="546"/>
<line x1="338" y1="556" x2="335" y2="546"/>
<line x1="338" y1="556" x2="338" y2="557"/>
<line x1="340" y1="567" x2="338" y2="557"/>
<line x1="340" y1="567" x2="340" y2="568"/>
<line x1="343" y1="578" x2="340" y2="568"/>
<line x1="343" y1="578" x2="343" y2="579"/>
<line x1="345" y1="589" x2="343" y2="579"/>
<line x1="345" y1="589" x2="345" y2="590"/>
<line x1="348" y1="600" x2="345" y2="590"/>
<line x1="348" y1="600" x2="348" y2="601"/>
<line x1="350" y1="612" x2="348" y2="601"/>
<line x1="350" y1="612" x2="350" y2="612"/>
<line x1="352" y1="623" x2="350" y2="612"/>
<line x1="352" y1="623" x2="352" y2="623"/>
<line x1="354" y1="634" x2="352" y2="623"/>
<line x1="354" y1="634" x2="354" y2="634"/>
<line x1="356" y1="645" x2="354" y2="634"/>
<line x1="356" y1="645" x2="356" y2="645"/>
<line x1="358" y1="656" x2="356" y2="645"/>
<line x1="358" y1="656" x2="358" y2="657"/>
<line x1="359" y1="667" x2="358" y2="657"/>
<line x1="359" y1="667" x2="359" y2="668"/>
<line x1="361" y1="679" x2="359" y2="668"/>
<line x1="361" y1="679" x2="361" y2="679"/>
<line x1="363" y1="690" x2="361" y2="679"/>
<line x1="363" y1="690" x2="363" y2="690"/>
<line x1="364" y1="701" x2="363" y2="690"/>
<line x1="364" y1="701" x2="364" y2="702"/>
<line x1="365" y1="712" x2="364" y2="702"/>
<line x1="365" y1="712" x2="365" y2="713"/>
<line x1="367" y1="724" x2="365" y2="713"/>
<line x1="367" y1="724" x2="367" y2="724"/>
<line x1="368" y1="735" x2="367" y2="724"/>
<line x1="368" y1="735" x2="368" y2="735"/>
<line x1="369" y1="746" x2="368" y2="735"/>
<line x1="369" y1="746" x2="369" y2="747"/>
<line x1="370" y1="758" x2="369" y2="747"/>
<line x1="370" y1="758" x2="370" y2="758"/>
<line x1="371" y1="769" x2="370" y2="758"/>
<line x1="371" y1="769" x2="371" y2="769"/>
<line x1="371" y1="780" x2="371" y2="769"/>
<line x1="371" y1="780" x2="371" y2="781"/>
<line x1="372" y1="792" x2="371" y2="781"/>
<line x1="372" y1="792" x2="372" y2="792"/>
<line x1="372" y1="803" x2="372" y2="792"/>
<line x1="372" y1="803" x2="372" y2="803"/>
<line x1="373" y1="814" x2="372" y2="803"/>
<line x1="373" y1="814" x2="373" y2="815"/>
<line x1="373" y1="817" x2="373" y2="815"/>
<line x1="373" y1="817" x2="373" y2="817"/>
<line x1="373" y1="820" x2="373" y2="817"/>
<line x1="373" y1="820" x2="373" y2="820"/>
<line x1="374" y1="822" x2="373" y2="820"/>
<line x1="374" y1="822" x2="374" y2="823"/>
<line x1="374" y1="825" x2="374" y2="823"/>
<line x1="374" y1="825" x2="374" y2="825"/>
<line x1="374" y1="825" x2="374" y2="825"/>
<line x1="374" y1="825" x2="374" y2="825"/>
<line x1="374" y1="825" x2="374" y2="825"/>
<line x1="374" y1="826" x2="374" y2="825"/>
<line x1="374" y1="826" x2="374" y2="826"/>
<line x1="374" y1="826" x2="375" y2="828"/>
<line x1="374" y1="826" x2="374" y2="826"/>
<line x1="375" y1="828" x2="375" y2="828"/>
<line x1="375" y1="828" x2="375" y2="828"/>
<line x1="375" y1="828" x2="375" y2="828"/>
<line x1="375" y1="828" x2="376" y2="831"/>
<line x1="375" y1="828" x2="375" y2="828"/>
<line x1="376" y1="831" x2="376" y2="831"/>
<line x1="376" y1="831" x2="376" y2="831"/>
<line x1="376" y1="831" x2="376" y2="831"/>
<line x1="376" y1="831" x2="377" y2="834"/>
<line x1="376" y1="831" x2="376" y2="831"/>
<line x1="377" y1="834" x2="377" y2="835"/>
<line x1="377" y1="835" x2="378" y2="835"/>
<line x1="378" y1="836" x2="378" y2="835"/>
<line x1="378" y1="836" x2="378" y2="836"/>
<line x1="377" y1="835" x2="377" y2="835"/>
<line x1="377" y1="835" x2="377" y2="835"/>
<line x1="377" y1="835" x2="377" y2="835"/>
<line x1="379" y1="837" x2="378" y2="836"/>
<line x1="379" y1="837" x2="380" y2="839"/>
<line x1="380" y1="840" x2="380" y2="839"/>
<line x1="380" y1="840" x2="381" y2="841"/>
<line x1="382" y1="842" x2="381" y2="841"/>
<line x1="382" y1="842" x2="383" y2="844"/>
<line x1="383" y1="844" x2="383" y2="844"/>
<line x1="384" y1="845" x2="383" y2="844"/>
<line x1="384" y1="845" x2="384" y2="845"/>
<line x1="384" y1="845" x2="385" y2="846"/>
<line x1="385" y1="846" x2="385" y2="846"/>
<line x1="385" y1="846" x2="385" y2="846"/>
<line x1="385" y1="846" x2="385" y2="846"/>
<line x1="387" y1="848" x2="385" y2="846"/>
<line x1="387" y1="848" x2="387" y2="848"/>
<line x1="389" y1="850" x2="387" y2="848"/>
<line x1="389" y1="850" x2="389" y2="850"/>
<line x1="389" y1="850" x2="389" y2="850"/>
<line x1="389" y1="850" x2="389" y2="850"/>
<line x1="391" y1="852" x2="389" y2="850"/>
<line x1="391" y1="852" x2="391" y2="852"/>
<line x1="391" y1="852" x2="391" y2="852"/>
<line x1="391" y1="852" x2="391" y2="852"/>
<line x1="391" y1="852" x2="392" y2="852"/>
<line x1="394" y1="853" x2="392" y2="852"/>
<line x1="394" y1="853" x2="394" y2="853"/>
<line x1="394" y1="853" x2="394" y2="853"/>
<line x1="394" y1="853" x2="394" y2="853"/>
<line x1="394" y1="853" x2="394" y2="853"/>
<line x1="394" y1="853" x2="394" y2="853"/>
<line x1="394" y1="853" x2="394" y2="853"/>
<line x1="394" y1="853" x2="396" y2="855"/>
<line x1="399" y1="856" x2="399" y2="856"/>
<line x1="399" y1="856" x2="399" y2="856"/>
<line x1="399" y1="856" x2="396" y2="855"/>
<line x1="402" y1="857" x2="402" y2="857"/>
<line x1="402" y1="857" x2="402" y2="857"/>
<line x1="402" y1="857" x2="402" y2="857"/>
<line x1="401" y1="857" x2="402" y2="857"/>
<line x1="399" y1="856" x2="401" y2="857"/>
<line x1="399" y1="856" x2="399" y2="856"/>
<line x1="404" y1="858" x2="405" y2="858"/>
<line x1="404" y1="858" x2="402" y2="857"/>
<line x1="407" y1="859" x2="407" y2="859"/>
<line x1="407" y1="859" x2="407" y2="859"/>
<line x1="406" y1="858" x2="407" y2="859"/>
<line x1="405" y1="858" x2="406" y2="858"/>
<line x1="405" y1="858" x2="405" y2="858"/>
<line x1="410" y1="859" x2="410" y2="859"/>
<line x1="410" y1="859" x2="407" y2="859"/>
<line x1="413" y1="860" x2="413" y2="860"/>
<line x1="413" y1="860" x2="410" y2="859"/>
<line x1="416" y1="860" x2="416" y2="860"/>
<line x1="416" y1="860" x2="413" y2="860"/>
<line x1="418" y1="860" x2="418" y2="860"/>
<line x1="418" y1="860" x2="416" y2="860"/>
<line x1="524" y1="860" x2="418" y2="860"/>
<line x1="547" y1="860" x2="524" y2="860"/>
<line x1="618" y1="860" x2="547" y2="860"/>
<line x1="643" y1="860" x2="618" y2="860"/>
<line x1="684" y1="860" x2="643" y2="860"/>
<line x1="724" y1="860" x2="684" y2="860"/>
<line x1="724" y1="860" x2="748" y2="860"/>
<line x1="764" y1="860" x2="748" y2="860"/>
<line x1="764" y1="860" x2="1081" y2="860"/>
<line x1="1081" y1="860" x2="1081" y2="860"/>
<line x1="1081" y1="860" x2="1083" y2="860"/>
</g></svg>