<svg xmlns="http://www.w3.org/2000/svg" width="1400" height="900" viewBox="0 0 1400 900">
<rect x="0" y="0" width="100%" height="100%" fill="white"/>
<g stroke="#111" stroke-width="1.2" fill="none" stroke-linecap="round">
<line x1="1306" y1="744" x2="1314" y2="744"/>
<line x1="1306" y1="744" x2="1276" y2="744"/>
<line x1="117" y1="744" x2="117" y2="744"/>
<line x1="126" y1="744" x2="126" y2="744"/>
<line x1="117" y1="744" x2="113" y2="744"/>
<line x1="113" y1="744" x2="113" y2="744"/>
<line x1="126" y1="744" x2="126" y2="744"/>
<line x1="113" y1="744" x2="110" y2="744"/>
<line x1="110" y1="744" x2="110" y2="744"/>
<line x1="110" y1="744" x2="109" y2="744"/>
<line x1="125" y1="744" x2="126" y2="744"/>
<line x1="124" y1="744" x2="125" y2="744"/>
<line x1="122" y1="744" x2="124" y2="744"/>
<line x1="117" y1="744" x2="122" y2="744"/>
<line x1="126" y1="744" x2="126" y2="744"/>
<line x1="126" y1="744" x2="126" y2="744"/>
<line x1="126" y1="744" x2="126" y2="744"/>
<line x1="1314" y1="717" x2="1314" y2="744"/>
<line x1="1314" y1="717" x2="1314" y2="114"/>
<line x1="85" y1="252" x2="85" y2="114"/>
<line x1="85" y1="252" x2="85" y2="706"/>
<line x1="84" y1="706" x2="84" y2="706"/>
<line x1="84" y1="706" x2="84" y2="706"/>
<line x1="84" y1="707" x2="84" y2="706"/>
<line x1="127" y1="744" x2="127" y2="744"/>
<line x1="127" y1="744" x2="126" y2="744"/>
<line x1="834" y1="744" x2="838" y2="744"/>
<line x1="128" y1="744" x2="136" y2="744"/>
<line x1="136" y1="744" x2="834" y2="744"/>
<line x1="127" y1="744" x2="128" y2="744"/>
<line x1="45" y1="744" x2="109" y2="744"/>
<line x1="1275" y1="744" x2="1268" y2="744"/>
<line x1="1268" y1="744" x2="1268" y2="744"/>
<line x1="1268" y1="744" x2="1232" y2="744"/>
<line x1="1232" y1="744" x2="1231" y2="744"/>
<line x1="1231" y1="744" x2="1197" y2="744"/>
<line x1="1197" y1="744" x2="1197" y2="744"/>
<line x1="1197" y1="744" x2="1165" y2="744"/>
<line x1="1165" y1="744" x2="1164" y2="744"/>
<line x1="1164" y1="744" x2="1134" y2="744"/>
<line x1="1134" y1="744" x2="1134" y2="744"/>
<line x1="1134" y1="744" x2="1105" y2="744"/>
<line x1="1105" y1="744" x2="1105" y2="744"/>
<line x1="1105" y1="744" x2="1077" y2="744"/>
<line x1="1077" y1="744" x2="1077" y2="744"/>
<line x1="1077" y1="744" x2="1051" y2="744"/>
<line x1="1051" y1="744" x2="1051" y2="744"/>
<line x1="1051" y1="744" x2="1026" y2="744"/>
<line x1="1026" y1="744" x2="1025" y2="744"/>
<line x1="1025" y1="744" x2="1002" y2="744"/>
<line x1="1002" y1="744" x2="1001" y2="744"/>
<line x1="1001" y1="744" x2="979" y2="744"/>
<line x1="979" y1="744" x2="978" y2="744"/>
<line x1="978" y1="744" x2="957" y2="744"/>
<line x1="957" y1="744" x2="956" y2="744"/>
<line x1="956" y1="744" x2="936" y2="744"/>
<line x1="936" y1="744" x2="935" y2="744"/>
<line x1="935" y1="744" x2="915" y2="744"/>
<line x1="915" y1="744" x2="915" y2="744"/>
<line x1="915" y1="744" x2="896" y2="744"/>
<line x1="896" y1="744" x2="896" y2="744"/>
<line x1="896" y1="744" x2="877" y2="744"/>
<line x1="877" y1="744" x2="877" y2="744"/>
<line x1="838" y1="744" x2="877" y2="744"/>
<line x1="127" y1="744" x2="127" y2="744"/>
<line x1="127" y1="744" x2="127" y2="744"/>
<line x1="127" y1="744" x2="127" y2="744"/>
<line x1="127" y1="744" x2="127" y2="744"/>
<line x1="1276" y1="744" x2="1276" y2="744"/>
<line x1="1276" y1="744" x2="1275" y2="744"/>
<line x1="84" y1="706" x2="84" y2="706"/>
<line x1="84" y1="706" x2="84" y2="706"/>
<line x1="84" y1="706" x2="84" y2="706"/>
<line x1="84" y1="706" x2="85" y2="706"/>
<line x1="84" y1="706" x2="84" y2="706"/>
<line x1="84" y1="706" x2="84" y2="706"/>
<line x1="84" y1="706" x2="84" y2="706"/>
<line x1="1156" y1="786" x2="656" y2="786"/>
<line x1="1156" y1="786" x2="1192" y2="786"/>
<line x1="1192" y1="786" x2="1193" y2="786"/>
<line x1="1193" y1="786" x2="1234" y2="786"/>
<line x1="1234" y1="786" x2="1235" y2="786"/>
<line x1="1235" y1="786" x2="1283" y2="786"/>
<line x1="1283" y1="786" x2="1284" y2="786"/>
<line x1="1284" y1="786" x2="1341" y2="786"/>
<line x1="1341" y1="786" x2="1342" y2="786"/>
<line x1="1342" y1="786" x2="1360" y2="786"/>
<line x1="401" y1="786" x2="656" y2="786"/>
<line x1="394" y1="786" x2="401" y2="786"/>
<line x1="387" y1="786" x2="394" y2="786"/>
<line x1="379" y1="786" x2="387" y2="786"/>
<line x1="370" y1="786" x2="379" y2="786"/>
<line x1="361" y1="786" x2="370" y2="786"/>
<line x1="351" y1="786" x2="361" y2="786"/>
<line x1="340" y1="786" x2="351" y2="786"/>
<line x1="329" y1="786" x2="340" y2="786"/>
<line x1="317" y1="786" x2="329" y2="786"/>
<line x1="304" y1="786" x2="317" y2="786"/>
<line x1="289" y1="786" x2="304" y2="786"/>
<line x1="274" y1="786" x2="289" y2="786"/>
<line x1="257" y1="786" x2="274" y2="786"/>
<line x1="239" y1="786" x2="257" y2="786"/>
<line x1="219" y1="786" x2="239" y2="786"/>
<line x1="198" y1="786" x2="219" y2="786"/>
<line x1="63" y1="786" x2="61" y2="786"/>
<line x1="61" y1="786" x2="58" y2="786"/>
<line x1="63" y1="786" x2="198" y2="786"/>
<line x1="55" y1="786" x2="58" y2="786"/>
<line x1="50" y1="786" x2="55" y2="786"/>
<line x1="48" y1="786" x2="50" y2="786"/>
<line x1="48" y1="786" x2="48" y2="786"/>
<line x1="48" y1="786" x2="47" y2="786"/>
<line x1="47" y1="786" x2="46" y2="786"/>
<line x1="46" y1="786" x2="46" y2="786"/>
<line x1="45" y1="786" x2="46" y2="786"/>
<line x1="44" y1="786" x2="45" y2="786"/>
<line x1="44" y1="786" x2="44" y2="786"/>
<line x1="43" y1="786" x2="44" y2="786"/>
<line x1="42" y1="786" x2="43" y2="786"/>
<line x1="41" y1="786" x2="42" y2="786"/>
<line x1="41" y1="786" x2="41" y2="786"/>
<line x1="41" y1="786" x2="41" y2="786"/>
<line x1="40" y1="786" x2="41" y2="786"/>
<line x1="40" y1="786" x2="40" y2="786"/>
<line x1="1318" y1="114" x2="1332" y2="114"/>
<line x1="1318" y1="114" x2="1314" y2="114"/>
<line x1="1314" y1="114" x2="1314" y2="114"/>
<line x1="1314" y1="114" x2="1314" y2="114"/>
<line x1="79" y1="114" x2="80" y2="114"/>
<line x1="77" y1="114" x2="79" y2="114"/>
<line x1="74" y1="114" x2="77" y2="114"/>
<line x1="69" y1="114" x2="74" y2="114"/>
<line x1="67" y1="114" x2="69" y2="114"/>
<line x1="65" y1="114" x2="67" y2="114"/>
<line x1="62" y1="114" x2="65" y2="114"/>
<line x1="57" y1="114" x2="62" y2="114"/>
<line x1="50" y1="114" x2="57" y2="114"/>
<line x1="40" y1="114" x2="50" y2="114"/>
<line x1="85" y1="114" x2="83" y2="114"/>
<line x1="83" y1="114" x2="82" y2="114"/>
<line x1="82" y1="114" x2="81" y2="114"/>
<line x1="81" y1="114" x2="81" y2="114"/>
<line x1="81" y1="114" x2="80" y2="114"/>
<line x1="80" y1="114" x2="80" y2="114"/>
<line x1="1357" y1="114" x2="1360" y2="114"/>
<line x1="1343" y1="114" x2="1357" y2="114"/>
<line x1="1360" y1="300" x2="1360" y2="114"/>
<line x1="1360" y1="300" x2="1360" y2="786"/>
<line x1="40" y1="252" x2="40" y2="786"/>
<line x1="40" y1="252" x2="40" y2="143"/>
<line x1="40" y1="124" x2="40" y2="127"/>
<line x1="40" y1="124" x2="40" y2="114"/>
<line x1="45" y1="735" x2="45" y2="715"/>
<line x1="45" y1="735" x2="45" y2="744"/>
<line x1="45" y1="709" x2="45" y2="708"/>
<line x1="47" y1="708" x2="47" y2="708"/>
<line x1="45" y1="715" x2="45" y2="712"/>
<line x1="45" y1="708" x2="45" y2="708"/>
<line x1="45" y1="709" x2="45" y2="712"/>
<line x1="47" y1="708" x2="45" y2="708"/>
<line x1="48" y1="708" x2="60" y2="707"/>
<line x1="48" y1="708" x2="48" y2="708"/>
<line x1="48" y1="708" x2="47" y2="708"/>
<line x1="47" y1="708" x2="47" y2="708"/>
<line x1="47" y1="708" x2="47" y2="708"/>
<line x1="60" y1="707" x2="60" y2="707"/>
<line x1="61" y1="707" x2="67" y2="707"/>
<line x1="67" y1="707" x2="72" y2="706"/>
<line x1="61" y1="707" x2="60" y2="707"/>
<line x1="72" y1="706" x2="84" y2="707"/>
<line x1="109" y1="744" x2="109" y2="744"/>
<line x1="109" y1="744" x2="109" y2="744"/>
<line x1="82" y1="140" x2="82" y2="140"/>
<line x1="82" y1="140" x2="82" y2="139"/>
<line x1="82" y1="138" x2="83" y2="138"/>
<line x1="82" y1="139" x2="82" y2="138"/>
<line x1="82" y1="139" x2="82" y2="139"/>
<line x1="81" y1="142" x2="81" y2="143"/>
<line x1="81" y1="142" x2="82" y2="141"/>
<line x1="82" y1="140" x2="82" y2="140"/>
<line x1="82" y1="140" x2="82" y2="141"/>
<line x1="80" y1="145" x2="80" y2="145"/>
<line x1="80" y1="145" x2="80" y2="145"/>
<line x1="80" y1="145" x2="80" y2="144"/>
<line x1="80" y1="144" x2="81" y2="143"/>
<line x1="78" y1="147" x2="78" y2="147"/>
<line x1="78" y1="147" x2="79" y2="146"/>
<line x1="79" y1="146" x2="79" y2="146"/>
<line x1="79" y1="146" x2="80" y2="145"/>
<line x1="80" y1="145" x2="80" y2="145"/>
<line x1="79" y1="146" x2="79" y2="146"/>
<line x1="76" y1="149" x2="76" y2="149"/>
<line x1="76" y1="149" x2="77" y2="148"/>
<line x1="78" y1="148" x2="77" y2="148"/>
<line x1="78" y1="148" x2="78" y2="147"/>
<line x1="74" y1="151" x2="75" y2="150"/>
<line x1="74" y1="151" x2="74" y2="151"/>
<line x1="76" y1="150" x2="76" y2="149"/>
<line x1="75" y1="150" x2="76" y2="150"/>
<line x1="75" y1="150" x2="75" y2="150"/>
<line x1="73" y1="152" x2="73" y2="152"/>
<line x1="73" y1="152" x2="72" y2="153"/>
<line x1="73" y1="152" x2="74" y2="151"/>
<line x1="70" y1="153" x2="70" y2="153"/>
<line x1="70" y1="153" x2="69" y2="154"/>
<line x1="70" y1="153" x2="72" y2="153"/>
<line x1="67" y1="154" x2="68" y2="154"/>
<line x1="67" y1="154" x2="66" y2="155"/>
<line x1="68" y1="154" x2="69" y2="154"/>
<line x1="64" y1="155" x2="65" y2="155"/>
<line x1="64" y1="155" x2="63" y2="155"/>
<line x1="65" y1="155" x2="66" y2="155"/>
<line x1="62" y1="155" x2="62" y2="155"/>
<line x1="62" y1="155" x2="60" y2="155"/>
<line x1="62" y1="155" x2="63" y2="155"/>
<line x1="59" y1="155" x2="59" y2="155"/>
<line x1="59" y1="155" x2="58" y2="155"/>
<line x1="59" y1="155" x2="60" y2="155"/>
<line x1="56" y1="155" x2="56" y2="155"/>
<line x1="56" y1="155" x2="55" y2="155"/>
<line x1="56" y1="155" x2="58" y2="155"/>
<line x1="53" y1="154" x2="53" y2="154"/>
<line x1="53" y1="154" x2="52" y2="154"/>
<line x1="53" y1="154" x2="55" y2="155"/>
<line x1="50" y1="153" x2="51" y2="153"/>
<line x1="50" y1="153" x2="49" y2="153"/>
<line x1="51" y1="153" x2="52" y2="154"/>
<line x1="47" y1="151" x2="48" y2="152"/>
<line x1="47" y1="151" x2="47" y2="151"/>
<line x1="48" y1="152" x2="49" y2="153"/>
<line x1="45" y1="150" x2="46" y2="150"/>
<line x1="45" y1="150" x2="45" y2="149"/>
<line x1="46" y1="150" x2="47" y2="151"/>
<line x1="43" y1="148" x2="44" y2="148"/>
<line x1="43" y1="148" x2="43" y2="147"/>
<line x1="44" y1="148" x2="45" y2="149"/>
<line x1="41" y1="145" x2="42" y2="146"/>
<line x1="41" y1="145" x2="41" y2="145"/>
<line x1="42" y1="146" x2="43" y2="147"/>
<line x1="40" y1="143" x2="40" y2="143"/>
<line x1="41" y1="144" x2="40" y2="143"/>
<line x1="41" y1="145" x2="41" y2="144"/>
<line x1="41" y1="126" x2="41" y2="125"/>
<line x1="41" y1="126" x2="41" y2="126"/>
<line x1="40" y1="127" x2="40" y2="127"/>
<line x1="40" y1="127" x2="41" y2="126"/>
<line x1="42" y1="123" x2="43" y2="122"/>
<line x1="42" y1="123" x2="42" y2="124"/>
<line x1="42" y1="124" x2="41" y2="125"/>
<line x1="44" y1="121" x2="45" y2="120"/>
<line x1="44" y1="121" x2="44" y2="121"/>
<line x1="43" y1="122" x2="44" y2="121"/>
<line x1="46" y1="119" x2="46" y2="120"/>
<line x1="46" y1="119" x2="47" y2="119"/>
<line x1="45" y1="120" x2="46" y2="120"/>
<line x1="49" y1="118" x2="48" y2="118"/>
<line x1="49" y1="118" x2="49" y2="117"/>
<line x1="47" y1="119" x2="48" y2="118"/>
<line x1="51" y1="116" x2="51" y2="117"/>
<line x1="51" y1="116" x2="52" y2="116"/>
<line x1="49" y1="117" x2="51" y2="117"/>
<line x1="54" y1="115" x2="53" y2="116"/>
<line x1="54" y1="115" x2="55" y2="115"/>
<line x1="53" y1="116" x2="52" y2="116"/>
<line x1="57" y1="115" x2="56" y2="115"/>
<line x1="57" y1="115" x2="58" y2="115"/>
<line x1="56" y1="115" x2="55" y2="115"/>
<line x1="60" y1="114" x2="59" y2="115"/>
<line x1="60" y1="114" x2="60" y2="114"/>
<line x1="59" y1="115" x2="58" y2="115"/>
<line x1="63" y1="115" x2="62" y2="115"/>
<line x1="63" y1="115" x2="63" y2="115"/>
<line x1="60" y1="114" x2="62" y2="115"/>
<line x1="66" y1="115" x2="65" y2="115"/>
<line x1="66" y1="115" x2="66" y2="115"/>
<line x1="63" y1="115" x2="65" y2="115"/>
<line x1="69" y1="116" x2="67" y2="116"/>
<line x1="69" y1="116" x2="69" y2="116"/>
<line x1="67" y1="116" x2="66" y2="115"/>
<line x1="71" y1="117" x2="70" y2="117"/>
<line x1="71" y1="117" x2="72" y2="117"/>
<line x1="70" y1="117" x2="69" y2="116"/>
<line x1="73" y1="118" x2="74" y2="119"/>
<line x1="73" y1="118" x2="73" y2="118"/>
<line x1="73" y1="118" x2="72" y2="117"/>
<line x1="75" y1="120" x2="76" y2="120"/>
<line x1="75" y1="120" x2="75" y2="119"/>
<line x1="75" y1="119" x2="75" y2="119"/>
<line x1="75" y1="119" x2="74" y2="119"/>
<line x1="78" y1="122" x2="78" y2="122"/>
<line x1="78" y1="122" x2="77" y2="121"/>
<line x1="77" y1="121" x2="76" y2="120"/>
<line x1="77" y1="121" x2="77" y2="121"/>
<line x1="77" y1="121" x2="77" y2="121"/>
<line x1="79" y1="124" x2="80" y2="125"/>
<line x1="79" y1="124" x2="79" y2="123"/>
<line x1="79" y1="123" x2="79" y2="123"/>
<line x1="79" y1="123" x2="78" y2="122"/>
<line x1="79" y1="123" x2="79" y2="123"/>
<line x1="81" y1="127" x2="81" y2="127"/>
<line x1="81" y1="127" x2="80" y2="126"/>
<line x1="80" y1="126" x2="80" y2="125"/>
<line x1="80" y1="126" x2="80" y2="126"/>
<line x1="82" y1="129" x2="82" y2="130"/>
<line x1="82" y1="129" x2="81" y2="128"/>
<line x1="81" y1="128" x2="81" y2="128"/>
<line x1="81" y1="128" x2="81" y2="127"/>
<line x1="81" y1="128" x2="81" y2="128"/>
<line x1="81" y1="128" x2="81" y2="128"/>
<line x1="82" y1="132" x2="83" y2="132"/>
<line x1="82" y1="132" x2="82" y2="131"/>
<line x1="82" y1="131" x2="82" y2="131"/>
<line x1="82" y1="131" x2="82" y2="130"/>
<line x1="83" y1="134" x2="83" y2="135"/>
<line x1="83" y1="134" x2="83" y2="133"/>
<line x1="83" y1="133" x2="83" y2="133"/>
<line x1="83" y1="133" x2="83" y2="132"/>
<line x1="83" y1="137" x2="83" y2="138"/>
<line x1="83" y1="137" x2="83" y2="136"/>
<line x1="83" y1="135" x2="83" y2="136"/>
<line x1="83" y1="135" x2="83" y2="135"/>
<line x1="1358" y1="138" x2="1358" y2="138"/>
<line x1="1358" y1="138" x2="1358" y2="139"/>
<line x1="1358" y1="138" x2="1358" y2="137"/>
<line x1="1358" y1="138" x2="1358" y2="138"/>
<line x1="1357" y1="141" x2="1357" y2="142"/>
<line x1="1357" y1="141" x2="1358" y2="139"/>
<line x1="1357" y1="141" x2="1357" y2="141"/>
<line x1="1356" y1="143" x2="1356" y2="144"/>
<line x1="1356" y1="143" x2="1357" y2="142"/>
<line x1="1355" y1="145" x2="1354" y2="146"/>
<line x1="1355" y1="145" x2="1356" y2="144"/>
<line x1="1353" y1="148" x2="1352" y2="149"/>
<line x1="1353" y1="148" x2="1354" y2="146"/>
<line x1="1351" y1="149" x2="1350" y2="150"/>
<line x1="1351" y1="149" x2="1352" y2="149"/>
<line x1="1349" y1="151" x2="1348" y2="152"/>
<line x1="1349" y1="151" x2="1350" y2="150"/>
<line x1="1347" y1="152" x2="1345" y2="153"/>
<line x1="1347" y1="152" x2="1348" y2="152"/>
<line x1="1344" y1="153" x2="1343" y2="154"/>
<line x1="1344" y1="153" x2="1345" y2="153"/>
<line x1="1341" y1="154" x2="1340" y2="154"/>
<line x1="1341" y1="154" x2="1343" y2="154"/>
<line x1="1339" y1="154" x2="1337" y2="155"/>
<line x1="1339" y1="154" x2="1340" y2="154"/>
<line x1="1336" y1="154" x2="1334" y2="154"/>
<line x1="1336" y1="154" x2="1337" y2="155"/>
<line x1="1333" y1="154" x2="1332" y2="154"/>
<line x1="1333" y1="154" x2="1334" y2="154"/>
<line x1="1330" y1="153" x2="1329" y2="153"/>
<line x1="1330" y1="153" x2="1332" y2="154"/>
<line x1="1328" y1="152" x2="1327" y2="152"/>
<line x1="1328" y1="152" x2="1329" y2="153"/>
<line x1="1325" y1="151" x2="1324" y2="150"/>
<line x1="1325" y1="151" x2="1327" y2="152"/>
<line x1="1323" y1="149" x2="1322" y2="149"/>
<line x1="1323" y1="149" x2="1324" y2="150"/>
<line x1="1321" y1="147" x2="1320" y2="146"/>
<line x1="1321" y1="147" x2="1322" y2="149"/>
<line x1="1320" y1="145" x2="1319" y2="144"/>
<line x1="1320" y1="145" x2="1320" y2="146"/>
<line x1="1318" y1="143" x2="1318" y2="142"/>
<line x1="1318" y1="143" x2="1319" y2="144"/>
<line x1="1317" y1="140" x2="1317" y2="139"/>
<line x1="1317" y1="140" x2="1318" y2="142"/>
<line x1="1316" y1="138" x2="1316" y2="137"/>
<line x1="1316" y1="138" x2="1317" y2="139"/>
<line x1="1316" y1="135" x2="1316" y2="134"/>
<line x1="1316" y1="135" x2="1316" y2="137"/>
<line x1="1316" y1="133" x2="1316" y2="131"/>
<line x1="1316" y1="134" x2="1316" y2="133"/>
<line x1="1317" y1="130" x2="1317" y2="129"/>
<line x1="1316" y1="131" x2="1317" y2="130"/>
<line x1="1317" y1="127" x2="1318" y2="126"/>
<line x1="1317" y1="129" x2="1317" y2="127"/>
<line x1="1318" y1="125" x2="1319" y2="124"/>
<line x1="1318" y1="126" x2="1318" y2="125"/>
<line x1="1320" y1="123" x2="1320" y2="122"/>
<line x1="1319" y1="124" x2="1320" y2="123"/>
<line x1="1321" y1="120" x2="1322" y2="119"/>
<line x1="1320" y1="122" x2="1321" y2="120"/>
<line x1="1323" y1="119" x2="1324" y2="118"/>
<line x1="1322" y1="119" x2="1323" y2="119"/>
<line x1="1326" y1="117" x2="1327" y2="116"/>
<line x1="1324" y1="118" x2="1326" y2="117"/>
<line x1="1328" y1="116" x2="1329" y2="115"/>
<line x1="1327" y1="116" x2="1328" y2="116"/>
<line x1="1331" y1="115" x2="1332" y2="114"/>
<line x1="1331" y1="115" x2="1329" y2="115"/>
<line x1="1344" y1="115" x2="1345" y2="115"/>
<line x1="1343" y1="114" x2="1344" y2="115"/>
<line x1="1347" y1="116" x2="1348" y2="116"/>
<line x1="1345" y1="115" x2="1347" y2="116"/>
<line x1="1349" y1="117" x2="1350" y2="118"/>
<line x1="1348" y1="116" x2="1349" y2="117"/>
<line x1="1351" y1="119" x2="1352" y2="119"/>
<line x1="1350" y1="118" x2="1351" y2="119"/>
<line x1="1353" y1="121" x2="1354" y2="122"/>
<line x1="1352" y1="119" x2="1353" y2="121"/>
<line x1="1355" y1="123" x2="1356" y2="124"/>
<line x1="1354" y1="122" x2="1355" y2="123"/>
<line x1="1356" y1="125" x2="1357" y2="126"/>
<line x1="1356" y1="124" x2="1356" y2="125"/>
<line x1="1357" y1="127" x2="1358" y2="129"/>
<line x1="1357" y1="127" x2="1357" y2="127"/>
<line x1="1357" y1="127" x2="1357" y2="126"/>
<line x1="1358" y1="131" x2="1358" y2="131"/>
<line x1="1358" y1="131" x2="1358" y2="130"/>
<line x1="1358" y1="129" x2="1358" y2="130"/>
<line x1="1358" y1="129" x2="1358" y2="129"/>
<line x1="1358" y1="133" x2="1358" y2="134"/>
<line x1="1358" y1="133" x2="1358" y2="133"/>
<line x1="1358" y1="133" x2="1358" y2="133"/>
<line x1="1358" y1="133" x2="1358" y2="131"/>
<line x1="1358" y1="137" x2="1358" y2="137"/>
<line x1="1358" y1="137" x2="1358" y2="135"/>
<line x1="1358" y1="134" x2="1358" y2="135"/>
<line x1="1358" y1="134" x2="1358" y2="134"/>
</g></svg>