<svg xmlns="http://www.w3.org/2000/svg" width="1400" height="900" viewBox="0 0 1400 900">
<rect x="0" y="0" width="100%" height="100%" fill="white"/>
<g stroke="#111" stroke-width="1.2" fill="none" stroke-linecap="round">
<line x1="1238" y1="809" x2="1207" y2="809"/>
<line x1="1191" y1="809" x2="1207" y2="809"/>
<line x1="1238" y1="700" x2="1238" y2="809"/>
<line x1="1238" y1="700" x2="1238" y2="40"/>
<line x1="230" y1="706" x2="230" y2="792"/>
<line x1="230" y1="642" x2="230" y2="706"/>
<line x1="230" y1="604" x2="230" y2="642"/>
<line x1="230" y1="604" x2="230" y2="40"/>
<line x1="1190" y1="809" x2="1191" y2="809"/>
<line x1="1190" y1="809" x2="1190" y2="809"/>
<line x1="285" y1="809" x2="222" y2="809"/>
<line x1="883" y1="809" x2="886" y2="809"/>
<line x1="285" y1="809" x2="414" y2="809"/>
<line x1="414" y1="809" x2="883" y2="809"/>
<line x1="1190" y1="809" x2="1172" y2="809"/>
<line x1="1172" y1="809" x2="1171" y2="809"/>
<line x1="1171" y1="809" x2="1135" y2="809"/>
<line x1="1135" y1="809" x2="1135" y2="809"/>
<line x1="1135" y1="809" x2="1100" y2="809"/>
<line x1="1100" y1="809" x2="1100" y2="809"/>
<line x1="1100" y1="809" x2="1067" y2="809"/>
<line x1="1067" y1="809" x2="1067" y2="809"/>
<line x1="1067" y1="809" x2="1035" y2="809"/>
<line x1="1035" y1="809" x2="1034" y2="809"/>
<line x1="1034" y1="809" x2="1004" y2="809"/>
<line x1="1004" y1="809" x2="1004" y2="809"/>
<line x1="1004" y1="809" x2="974" y2="809"/>
<line x1="974" y1="809" x2="974" y2="809"/>
<line x1="974" y1="809" x2="946" y2="809"/>
<line x1="946" y1="809" x2="946" y2="809"/>
<line x1="886" y1="809" x2="946" y2="809"/>
<line x1="685" y1="860" x2="452" y2="860"/>
<line x1="685" y1="860" x2="702" y2="860"/>
<line x1="702" y1="860" x2="702" y2="860"/>
<line x1="702" y1="860" x2="722" y2="860"/>
<line x1="722" y1="860" x2="722" y2="860"/>
<line x1="722" y1="860" x2="745" y2="860"/>
<line x1="745" y1="860" x2="745" y2="860"/>
<line x1="745" y1="860" x2="772" y2="860"/>
<line x1="772" y1="860" x2="772" y2="860"/>
<line x1="772" y1="860" x2="804" y2="860"/>
<line x1="804" y1="860" x2="805" y2="860"/>
<line x1="805" y1="860" x2="844" y2="860"/>
<line x1="844" y1="860" x2="845" y2="860"/>
<line x1="845" y1="860" x2="893" y2="860"/>
<line x1="893" y1="860" x2="894" y2="860"/>
<line x1="894" y1="860" x2="957" y2="860"/>
<line x1="957" y1="860" x2="959" y2="860"/>
<line x1="959" y1="860" x2="1043" y2="860"/>
<line x1="1043" y1="860" x2="1045" y2="860"/>
<line x1="1045" y1="860" x2="1164" y2="860"/>
<line x1="1164" y1="860" x2="1167" y2="860"/>
<line x1="1167" y1="860" x2="1295" y2="860"/>
<line x1="333" y1="860" x2="452" y2="860"/>
<line x1="329" y1="860" x2="333" y2="860"/>
<line x1="326" y1="860" x2="329" y2="860"/>
<line x1="322" y1="860" x2="326" y2="860"/>
<line x1="318" y1="860" x2="322" y2="860"/>
<line x1="314" y1="860" x2="318" y2="860"/>
<line x1="309" y1="860" x2="314" y2="860"/>
<line x1="304" y1="860" x2="309" y2="860"/>
<line x1="299" y1="860" x2="304" y2="860"/>
<line x1="293" y1="860" x2="299" y2="860"/>
<line x1="287" y1="860" x2="293" y2="860"/>
<line x1="280" y1="860" x2="287" y2="860"/>
<line x1="273" y1="860" x2="280" y2="860"/>
<line x1="265" y1="860" x2="273" y2="860"/>
<line x1="257" y1="860" x2="265" y2="860"/>
<line x1="248" y1="860" x2="257" y2="860"/>
<line x1="237" y1="860" x2="248" y2="860"/>
<line x1="116" y1="860" x2="237" y2="860"/>
<line x1="1243" y1="40" x2="1238" y2="40"/>
<line x1="1243" y1="40" x2="1243" y2="40"/>
<line x1="1247" y1="40" x2="1243" y2="40"/>
<line x1="1247" y1="40" x2="1260" y2="40"/>
<line x1="186" y1="40" x2="230" y2="40"/>
<line x1="186" y1="40" x2="121" y2="40"/>
<line x1="1293" y1="40" x2="1295" y2="40"/>
<line x1="1293" y1="40" x2="1293" y2="40"/>
<line x1="1287" y1="40" x2="1293" y2="40"/>
<line x1="1287" y1="40" x2="1287" y2="40"/>
<line x1="1284" y1="40" x2="1287" y2="40"/>
<line x1="1284" y1="40" x2="1284" y2="40"/>
<line x1="1274" y1="40" x2="1284" y2="40"/>
<line x1="1295" y1="657" x2="1295" y2="40"/>
<line x1="1295" y1="657" x2="1295" y2="860"/>
<line x1="105" y1="385" x2="105" y2="90"/>
<line x1="105" y1="616" x2="105" y2="840"/>
<line x1="105" y1="495" x2="105" y2="616"/>
<line x1="105" y1="442" x2="105" y2="495"/>
<line x1="105" y1="385" x2="105" y2="442"/>
<line x1="223" y1="805" x2="223" y2="803"/>
<line x1="223" y1="805" x2="222" y2="807"/>
<line x1="226" y1="797" x2="226" y2="797"/>
<line x1="226" y1="797" x2="225" y2="799"/>
<line x1="222" y1="807" x2="222" y2="807"/>
<line x1="222" y1="807" x2="222" y2="809"/>
<line x1="224" y1="800" x2="225" y2="799"/>
<line x1="224" y1="800" x2="223" y2="803"/>
<line x1="222" y1="809" x2="222" y2="809"/>
<line x1="222" y1="809" x2="222" y2="809"/>
<line x1="222" y1="809" x2="222" y2="809"/>
<line x1="228" y1="795" x2="228" y2="795"/>
<line x1="228" y1="795" x2="226" y2="797"/>
<line x1="228" y1="795" x2="230" y2="792"/>
<line x1="111" y1="847" x2="112" y2="848"/>
<line x1="111" y1="847" x2="111" y2="847"/>
<line x1="113" y1="850" x2="115" y2="854"/>
<line x1="113" y1="850" x2="112" y2="848"/>
<line x1="105" y1="840" x2="108" y2="843"/>
<line x1="115" y1="854" x2="115" y2="857"/>
<line x1="115" y1="857" x2="116" y2="860"/>
<line x1="108" y1="843" x2="108" y2="844"/>
<line x1="108" y1="844" x2="111" y2="847"/>
<line x1="1293" y1="71" x2="1293" y2="71"/>
<line x1="1293" y1="71" x2="1293" y2="68"/>
<line x1="1293" y1="68" x2="1294" y2="67"/>
<line x1="1293" y1="68" x2="1293" y2="68"/>
<line x1="1293" y1="71" x2="1292" y2="74"/>
<line x1="1293" y1="71" x2="1293" y2="71"/>
<line x1="1293" y1="71" x2="1293" y2="71"/>
<line x1="1291" y1="75" x2="1290" y2="77"/>
<line x1="1291" y1="75" x2="1292" y2="74"/>
<line x1="1290" y1="77" x2="1288" y2="79"/>
<line x1="1290" y1="77" x2="1290" y2="77"/>
<line x1="1288" y1="80" x2="1286" y2="82"/>
<line x1="1288" y1="80" x2="1288" y2="79"/>
<line x1="1285" y1="82" x2="1283" y2="84"/>
<line x1="1285" y1="82" x2="1286" y2="82"/>
<line x1="1283" y1="85" x2="1281" y2="86"/>
<line x1="1283" y1="85" x2="1283" y2="84"/>
<line x1="1280" y1="86" x2="1278" y2="87"/>
<line x1="1280" y1="86" x2="1281" y2="86"/>
<line x1="1277" y1="88" x2="1274" y2="88"/>
<line x1="1277" y1="88" x2="1278" y2="87"/>
<line x1="1273" y1="89" x2="1271" y2="89"/>
<line x1="1273" y1="89" x2="1274" y2="88"/>
<line x1="1270" y1="89" x2="1267" y2="89"/>
<line x1="1270" y1="89" x2="1271" y2="89"/>
<line x1="1266" y1="89" x2="1264" y2="89"/>
<line x1="1266" y1="89" x2="1267" y2="89"/>
<line x1="1263" y1="89" x2="1261" y2="88"/>
<line x1="1263" y1="89" x2="1264" y2="89"/>
<line x1="1260" y1="88" x2="1257" y2="87"/>
<line x1="1260" y1="88" x2="1261" y2="88"/>
<line x1="1256" y1="87" x2="1254" y2="86"/>
<line x1="1256" y1="87" x2="1257" y2="87"/>
<line x1="1253" y1="85" x2="1251" y2="84"/>
<line x1="1253" y1="85" x2="1254" y2="86"/>
<line x1="1251" y1="83" x2="1249" y2="82"/>
<line x1="1251" y1="83" x2="1251" y2="84"/>
<line x1="1248" y1="81" x2="1246" y2="79"/>
<line x1="1248" y1="81" x2="1249" y2="82"/>
<line x1="1246" y1="79" x2="1245" y2="77"/>
<line x1="1246" y1="79" x2="1246" y2="79"/>
<line x1="1244" y1="76" x2="1243" y2="74"/>
<line x1="1244" y1="76" x2="1245" y2="77"/>
<line x1="1243" y1="73" x2="1242" y2="71"/>
<line x1="1243" y1="73" x2="1243" y2="74"/>
<line x1="1242" y1="70" x2="1241" y2="67"/>
<line x1="1242" y1="70" x2="1242" y2="71"/>
<line x1="1241" y1="66" x2="1241" y2="64"/>
<line x1="1241" y1="66" x2="1241" y2="67"/>
<line x1="1241" y1="63" x2="1241" y2="61"/>
<line x1="1241" y1="64" x2="1241" y2="63"/>
<line x1="1241" y1="60" x2="1242" y2="58"/>
<line x1="1241" y1="61" x2="1241" y2="60"/>
<line x1="1242" y1="57" x2="1243" y2="55"/>
<line x1="1242" y1="58" x2="1242" y2="57"/>
<line x1="1244" y1="54" x2="1245" y2="52"/>
<line x1="1243" y1="55" x2="1244" y2="54"/>
<line x1="1245" y1="51" x2="1246" y2="49"/>
<line x1="1245" y1="52" x2="1245" y2="51"/>
<line x1="1247" y1="48" x2="1249" y2="46"/>
<line x1="1246" y1="49" x2="1247" y2="48"/>
<line x1="1250" y1="46" x2="1251" y2="44"/>
<line x1="1249" y1="46" x2="1250" y2="46"/>
<line x1="1252" y1="44" x2="1254" y2="42"/>
<line x1="1251" y1="44" x2="1252" y2="44"/>
<line x1="1255" y1="42" x2="1257" y2="41"/>
<line x1="1254" y1="42" x2="1255" y2="42"/>
<line x1="1258" y1="41" x2="1260" y2="40"/>
<line x1="1258" y1="41" x2="1257" y2="41"/>
<line x1="1275" y1="40" x2="1278" y2="41"/>
<line x1="1274" y1="40" x2="1275" y2="40"/>
<line x1="1278" y1="41" x2="1281" y2="42"/>
<line x1="1278" y1="41" x2="1278" y2="41"/>
<line x1="1281" y1="43" x2="1283" y2="44"/>
<line x1="1281" y1="42" x2="1281" y2="43"/>
<line x1="1284" y1="45" x2="1286" y2="46"/>
<line x1="1283" y1="44" x2="1284" y2="45"/>
<line x1="1287" y1="47" x2="1288" y2="49"/>
<line x1="1286" y1="46" x2="1287" y2="47"/>
<line x1="1289" y1="50" x2="1290" y2="52"/>
<line x1="1288" y1="49" x2="1289" y2="50"/>
<line x1="1291" y1="52" x2="1292" y2="55"/>
<line x1="1290" y1="52" x2="1291" y2="52"/>
<line x1="1292" y1="55" x2="1293" y2="58"/>
<line x1="1292" y1="55" x2="1292" y2="55"/>
<line x1="1292" y1="55" x2="1292" y2="55"/>
<line x1="1294" y1="61" x2="1294" y2="61"/>
<line x1="1293" y1="59" x2="1294" y2="61"/>
<line x1="1293" y1="58" x2="1293" y2="59"/>
<line x1="1293" y1="58" x2="1293" y2="58"/>
<line x1="1294" y1="64" x2="1294" y2="64"/>
<line x1="1294" y1="64" x2="1294" y2="62"/>
<line x1="1294" y1="61" x2="1294" y2="62"/>
<line x1="1294" y1="61" x2="1294" y2="61"/>
<line x1="1294" y1="65" x2="1294" y2="65"/>
<line x1="1294" y1="65" x2="1294" y2="67"/>
<line x1="1294" y1="65" x2="1294" y2="64"/>
<line x1="1294" y1="65" x2="1294" y2="65"/>
<line x1="105" y1="90" x2="105" y2="90"/>
<line x1="163" y1="57" x2="164" y2="57"/>
<line x1="162" y1="55" x2="162" y2="55"/>
<line x1="162" y1="55" x2="162" y2="55"/>
<line x1="163" y1="57" x2="162" y2="55"/>
<line x1="165" y1="59" x2="165" y2="59"/>
<line x1="166" y1="61" x2="166" y2="61"/>
<line x1="166" y1="61" x2="165" y2="59"/>
<line x1="115" y1="90" x2="113" y2="90"/>
<line x1="121" y1="89" x2="115" y2="90"/>
<line x1="149" y1="83" x2="152" y2="81"/>
<line x1="149" y1="83" x2="149" y2="83"/>
<line x1="149" y1="83" x2="148" y2="83"/>
<line x1="159" y1="77" x2="159" y2="77"/>
<line x1="158" y1="78" x2="159" y2="77"/>
<line x1="158" y1="78" x2="158" y2="78"/>
<line x1="158" y1="78" x2="158" y2="78"/>
<line x1="144" y1="85" x2="148" y2="83"/>
<line x1="144" y1="85" x2="142" y2="85"/>
<line x1="148" y1="83" x2="148" y2="83"/>
<line x1="153" y1="81" x2="154" y2="81"/>
<line x1="153" y1="81" x2="153" y2="81"/>
<line x1="152" y1="81" x2="153" y2="81"/>
<line x1="152" y1="81" x2="152" y2="81"/>
<line x1="159" y1="53" x2="159" y2="53"/>
<line x1="160" y1="53" x2="159" y2="53"/>
<line x1="162" y1="55" x2="162" y2="55"/>
<line x1="162" y1="55" x2="160" y2="53"/>
<line x1="165" y1="70" x2="165" y2="70"/>
<line x1="165" y1="70" x2="166" y2="69"/>
<line x1="165" y1="70" x2="165" y2="71"/>
<line x1="157" y1="78" x2="158" y2="78"/>
<line x1="157" y1="78" x2="157" y2="78"/>
<line x1="157" y1="79" x2="157" y2="78"/>
<line x1="157" y1="79" x2="157" y2="79"/>
<line x1="155" y1="79" x2="157" y2="79"/>
<line x1="155" y1="79" x2="154" y2="81"/>
<line x1="154" y1="81" x2="154" y2="81"/>
<line x1="166" y1="61" x2="166" y2="61"/>
<line x1="166" y1="63" x2="166" y2="63"/>
<line x1="166" y1="62" x2="166" y2="61"/>
<line x1="166" y1="63" x2="166" y2="64"/>
<line x1="166" y1="63" x2="166" y2="62"/>
<line x1="164" y1="58" x2="164" y2="58"/>
<line x1="164" y1="58" x2="164" y2="58"/>
<line x1="164" y1="58" x2="165" y2="59"/>
<line x1="152" y1="48" x2="152" y2="48"/>
<line x1="149" y1="47" x2="148" y2="46"/>
<line x1="150" y1="47" x2="149" y2="47"/>
<line x1="152" y1="48" x2="150" y2="47"/>
<line x1="158" y1="52" x2="158" y2="52"/>
<line x1="159" y1="52" x2="158" y2="52"/>
<line x1="159" y1="52" x2="159" y2="53"/>
<line x1="164" y1="72" x2="164" y2="72"/>
<line x1="164" y1="73" x2="164" y2="72"/>
<line x1="164" y1="73" x2="164" y2="73"/>
<line x1="164" y1="73" x2="163" y2="73"/>
<line x1="134" y1="87" x2="136" y2="87"/>
<line x1="134" y1="87" x2="128" y2="88"/>
<line x1="106" y1="90" x2="105" y2="90"/>
<line x1="113" y1="90" x2="106" y2="90"/>
<line x1="164" y1="57" x2="164" y2="57"/>
<line x1="164" y1="57" x2="164" y2="58"/>
<line x1="164" y1="57" x2="164" y2="57"/>
<line x1="130" y1="41" x2="128" y2="41"/>
<line x1="130" y1="41" x2="136" y2="42"/>
<line x1="162" y1="75" x2="162" y2="75"/>
<line x1="160" y1="76" x2="162" y2="75"/>
<line x1="160" y1="76" x2="159" y2="77"/>
<line x1="163" y1="73" x2="163" y2="73"/>
<line x1="163" y1="73" x2="162" y2="74"/>
<line x1="162" y1="74" x2="162" y2="75"/>
<line x1="166" y1="65" x2="166" y2="65"/>
<line x1="166" y1="65" x2="166" y2="65"/>
<line x1="166" y1="64" x2="166" y2="65"/>
<line x1="166" y1="65" x2="166" y2="65"/>
<line x1="166" y1="66" x2="166" y2="65"/>
<line x1="166" y1="66" x2="166" y2="68"/>
<line x1="166" y1="68" x2="166" y2="68"/>
<line x1="166" y1="68" x2="166" y2="69"/>
<line x1="141" y1="86" x2="142" y2="85"/>
<line x1="136" y1="87" x2="141" y2="86"/>
<line x1="136" y1="87" x2="136" y2="87"/>
<line x1="157" y1="51" x2="157" y2="51"/>
<line x1="157" y1="51" x2="158" y2="52"/>
<line x1="157" y1="51" x2="157" y2="51"/>
<line x1="140" y1="44" x2="142" y2="44"/>
<line x1="140" y1="44" x2="136" y2="42"/>
<line x1="165" y1="71" x2="165" y2="71"/>
<line x1="164" y1="72" x2="165" y2="71"/>
<line x1="164" y1="72" x2="164" y2="72"/>
<line x1="164" y1="72" x2="164" y2="72"/>
<line x1="126" y1="89" x2="128" y2="88"/>
<line x1="124" y1="89" x2="126" y2="89"/>
<line x1="124" y1="89" x2="121" y2="89"/>
<line x1="157" y1="51" x2="157" y2="51"/>
<line x1="154" y1="49" x2="154" y2="49"/>
<line x1="155" y1="50" x2="154" y2="49"/>
<line x1="157" y1="51" x2="155" y2="50"/>
<line x1="152" y1="48" x2="153" y2="48"/>
<line x1="153" y1="48" x2="154" y2="49"/>
<line x1="152" y1="48" x2="152" y2="48"/>
<line x1="147" y1="46" x2="148" y2="46"/>
<line x1="145" y1="45" x2="147" y2="46"/>
<line x1="144" y1="45" x2="145" y2="45"/>
<line x1="144" y1="45" x2="142" y2="44"/>
<line x1="123" y1="40" x2="121" y2="40"/>
<line x1="123" y1="40" x2="128" y2="41"/>
</g></svg>