<svg xmlns="http://www.w3.org/2000/svg" width="1400" height="900" viewBox="0 0 1400 900">
<rect x="0" y="0" width="100%" height="100%" fill="white"/>
<g stroke="#111" stroke-width="1.2" fill="none" stroke-linecap="round">
<line x1="1313" y1="753" x2="1305" y2="753"/>
<line x1="1305" y1="753" x2="1305" y2="753"/>
<line x1="1305" y1="753" x2="1305" y2="753"/>
<line x1="1305" y1="753" x2="1305" y2="753"/>
<line x1="1305" y1="753" x2="1305" y2="753"/>
<line x1="1275" y1="753" x2="1305" y2="753"/>
<line x1="89" y1="753" x2="93" y2="753"/>
<line x1="89" y1="753" x2="88" y2="753"/>
<line x1="87" y1="753" x2="88" y2="753"/>
<line x1="1313" y1="195" x2="1313" y2="753"/>
<line x1="1313" y1="195" x2="1313" y2="104"/>
<line x1="87" y1="752" x2="87" y2="747"/>
<line x1="87" y1="752" x2="87" y2="753"/>
<line x1="87" y1="667" x2="87" y2="104"/>
<line x1="87" y1="667" x2="87" y2="714"/>
<line x1="50" y1="714" x2="50" y2="714"/>
<line x1="50" y1="714" x2="50" y2="714"/>
<line x1="93" y1="753" x2="93" y2="753"/>
<line x1="93" y1="753" x2="94" y2="753"/>
<line x1="87" y1="747" x2="87" y2="747"/>
<line x1="85" y1="746" x2="87" y2="747"/>
<line x1="83" y1="744" x2="85" y2="746"/>
<line x1="82" y1="742" x2="83" y2="744"/>
<line x1="80" y1="741" x2="82" y2="742"/>
<line x1="78" y1="739" x2="80" y2="741"/>
<line x1="76" y1="737" x2="78" y2="739"/>
<line x1="76" y1="737" x2="75" y2="737"/>
<line x1="75" y1="737" x2="75" y2="737"/>
<line x1="75" y1="737" x2="75" y2="737"/>
<line x1="74" y1="735" x2="75" y2="737"/>
<line x1="72" y1="734" x2="74" y2="735"/>
<line x1="70" y1="732" x2="72" y2="734"/>
<line x1="68" y1="730" x2="70" y2="732"/>
<line x1="66" y1="729" x2="68" y2="730"/>
<line x1="64" y1="727" x2="66" y2="729"/>
<line x1="62" y1="725" x2="64" y2="727"/>
<line x1="50" y1="714" x2="62" y2="725"/>
<line x1="50" y1="714" x2="50" y2="714"/>
<line x1="50" y1="714" x2="50" y2="714"/>
<line x1="1275" y1="753" x2="1275" y2="753"/>
<line x1="1275" y1="753" x2="1275" y2="753"/>
<line x1="505" y1="753" x2="512" y2="753"/>
<line x1="94" y1="753" x2="505" y2="753"/>
<line x1="1275" y1="753" x2="1246" y2="753"/>
<line x1="1246" y1="753" x2="1246" y2="753"/>
<line x1="1246" y1="753" x2="1186" y2="753"/>
<line x1="1186" y1="753" x2="1186" y2="753"/>
<line x1="1186" y1="753" x2="1132" y2="753"/>
<line x1="1132" y1="753" x2="1132" y2="753"/>
<line x1="1132" y1="753" x2="1084" y2="753"/>
<line x1="1084" y1="753" x2="1083" y2="753"/>
<line x1="1083" y1="753" x2="1039" y2="753"/>
<line x1="1039" y1="753" x2="1039" y2="753"/>
<line x1="1039" y1="753" x2="998" y2="753"/>
<line x1="998" y1="753" x2="998" y2="753"/>
<line x1="998" y1="753" x2="961" y2="753"/>
<line x1="961" y1="753" x2="961" y2="753"/>
<line x1="961" y1="753" x2="927" y2="753"/>
<line x1="927" y1="753" x2="926" y2="753"/>
<line x1="926" y1="753" x2="895" y2="753"/>
<line x1="895" y1="753" x2="894" y2="753"/>
<line x1="894" y1="753" x2="865" y2="753"/>
<line x1="865" y1="753" x2="865" y2="753"/>
<line x1="865" y1="753" x2="837" y2="753"/>
<line x1="837" y1="753" x2="837" y2="753"/>
<line x1="837" y1="753" x2="812" y2="753"/>
<line x1="812" y1="753" x2="811" y2="753"/>
<line x1="811" y1="753" x2="788" y2="753"/>
<line x1="788" y1="753" x2="787" y2="753"/>
<line x1="787" y1="753" x2="765" y2="753"/>
<line x1="765" y1="753" x2="765" y2="753"/>
<line x1="765" y1="753" x2="743" y2="753"/>
<line x1="743" y1="753" x2="743" y2="753"/>
<line x1="743" y1="753" x2="723" y2="753"/>
<line x1="723" y1="753" x2="723" y2="753"/>
<line x1="723" y1="753" x2="704" y2="753"/>
<line x1="704" y1="753" x2="704" y2="753"/>
<line x1="704" y1="753" x2="686" y2="753"/>
<line x1="686" y1="753" x2="686" y2="753"/>
<line x1="686" y1="753" x2="669" y2="753"/>
<line x1="669" y1="753" x2="669" y2="753"/>
<line x1="669" y1="753" x2="653" y2="753"/>
<line x1="653" y1="753" x2="653" y2="753"/>
<line x1="653" y1="753" x2="637" y2="753"/>
<line x1="637" y1="753" x2="637" y2="753"/>
<line x1="637" y1="753" x2="623" y2="753"/>
<line x1="623" y1="753" x2="623" y2="753"/>
<line x1="623" y1="753" x2="609" y2="753"/>
<line x1="609" y1="753" x2="608" y2="753"/>
<line x1="608" y1="753" x2="595" y2="753"/>
<line x1="595" y1="753" x2="595" y2="753"/>
<line x1="595" y1="753" x2="582" y2="753"/>
<line x1="582" y1="753" x2="582" y2="753"/>
<line x1="582" y1="753" x2="570" y2="753"/>
<line x1="570" y1="753" x2="570" y2="753"/>
<line x1="570" y1="753" x2="558" y2="753"/>
<line x1="558" y1="753" x2="558" y2="753"/>
<line x1="558" y1="753" x2="546" y2="753"/>
<line x1="546" y1="753" x2="546" y2="753"/>
<line x1="546" y1="753" x2="535" y2="753"/>
<line x1="535" y1="753" x2="535" y2="753"/>
<line x1="512" y1="753" x2="535" y2="753"/>
<line x1="50" y1="714" x2="50" y2="714"/>
<line x1="50" y1="714" x2="50" y2="714"/>
<line x1="87" y1="714" x2="87" y2="714"/>
<line x1="85" y1="714" x2="87" y2="714"/>
<line x1="83" y1="714" x2="85" y2="714"/>
<line x1="82" y1="714" x2="83" y2="714"/>
<line x1="80" y1="714" x2="82" y2="714"/>
<line x1="78" y1="714" x2="80" y2="714"/>
<line x1="76" y1="714" x2="78" y2="714"/>
<line x1="74" y1="714" x2="76" y2="714"/>
<line x1="72" y1="714" x2="74" y2="714"/>
<line x1="70" y1="714" x2="72" y2="714"/>
<line x1="68" y1="714" x2="70" y2="714"/>
<line x1="66" y1="714" x2="68" y2="714"/>
<line x1="64" y1="714" x2="66" y2="714"/>
<line x1="62" y1="714" x2="64" y2="714"/>
<line x1="61" y1="714" x2="62" y2="714"/>
<line x1="59" y1="714" x2="61" y2="714"/>
<line x1="57" y1="714" x2="59" y2="714"/>
<line x1="50" y1="714" x2="50" y2="714"/>
<line x1="55" y1="714" x2="57" y2="714"/>
<line x1="53" y1="714" x2="55" y2="714"/>
<line x1="51" y1="714" x2="53" y2="714"/>
<line x1="50" y1="714" x2="51" y2="714"/>
<line x1="50" y1="714" x2="50" y2="714"/>
<line x1="50" y1="714" x2="50" y2="714"/>
<line x1="50" y1="714" x2="50" y2="714"/>
<line x1="1329" y1="796" x2="1360" y2="796"/>
<line x1="1329" y1="796" x2="1328" y2="796"/>
<line x1="1328" y1="796" x2="1294" y2="796"/>
<line x1="1294" y1="796" x2="1294" y2="796"/>
<line x1="1294" y1="796" x2="1263" y2="796"/>
<line x1="1263" y1="796" x2="1262" y2="796"/>
<line x1="1262" y1="796" x2="1234" y2="796"/>
<line x1="1234" y1="796" x2="1234" y2="796"/>
<line x1="1234" y1="796" x2="1208" y2="796"/>
<line x1="1208" y1="796" x2="1208" y2="796"/>
<line x1="1208" y1="796" x2="1184" y2="796"/>
<line x1="1184" y1="796" x2="1183" y2="796"/>
<line x1="1183" y1="796" x2="1162" y2="796"/>
<line x1="1162" y1="796" x2="1161" y2="796"/>
<line x1="1161" y1="796" x2="639" y2="796"/>
<line x1="93" y1="796" x2="639" y2="796"/>
<line x1="78" y1="796" x2="93" y2="796"/>
<line x1="62" y1="796" x2="78" y2="796"/>
<line x1="45" y1="796" x2="62" y2="796"/>
<line x1="45" y1="796" x2="40" y2="796"/>
<line x1="1315" y1="104" x2="1313" y2="104"/>
<line x1="1315" y1="104" x2="1315" y2="104"/>
<line x1="1321" y1="104" x2="1315" y2="104"/>
<line x1="1321" y1="104" x2="1321" y2="104"/>
<line x1="1323" y1="104" x2="1321" y2="104"/>
<line x1="1324" y1="104" x2="1323" y2="104"/>
<line x1="1324" y1="104" x2="1332" y2="104"/>
<line x1="87" y1="104" x2="85" y2="104"/>
<line x1="77" y1="104" x2="50" y2="104"/>
<line x1="77" y1="104" x2="85" y2="104"/>
<line x1="40" y1="104" x2="50" y2="104"/>
<line x1="1360" y1="104" x2="1354" y2="104"/>
<line x1="1354" y1="104" x2="1354" y2="104"/>
<line x1="1354" y1="104" x2="1351" y2="104"/>
<line x1="1351" y1="104" x2="1351" y2="104"/>
<line x1="1349" y1="104" x2="1351" y2="104"/>
<line x1="1349" y1="104" x2="1349" y2="104"/>
<line x1="1343" y1="104" x2="1349" y2="104"/>
<line x1="1360" y1="219" x2="1360" y2="104"/>
<line x1="1360" y1="219" x2="1360" y2="796"/>
<line x1="40" y1="616" x2="40" y2="796"/>
<line x1="40" y1="616" x2="40" y2="104"/>
<line x1="85" y1="129" x2="84" y2="131"/>
<line x1="85" y1="129" x2="85" y2="128"/>
<line x1="84" y1="132" x2="84" y2="134"/>
<line x1="84" y1="132" x2="84" y2="131"/>
<line x1="83" y1="134" x2="82" y2="136"/>
<line x1="83" y1="134" x2="84" y2="134"/>
<line x1="82" y1="137" x2="81" y2="138"/>
<line x1="82" y1="137" x2="82" y2="136"/>
<line x1="80" y1="139" x2="79" y2="141"/>
<line x1="80" y1="139" x2="81" y2="138"/>
<line x1="78" y1="141" x2="77" y2="142"/>
<line x1="78" y1="141" x2="79" y2="141"/>
<line x1="76" y1="143" x2="74" y2="144"/>
<line x1="76" y1="143" x2="77" y2="142"/>
<line x1="73" y1="144" x2="72" y2="145"/>
<line x1="73" y1="144" x2="74" y2="144"/>
<line x1="71" y1="145" x2="69" y2="146"/>
<line x1="71" y1="145" x2="72" y2="145"/>
<line x1="68" y1="146" x2="66" y2="147"/>
<line x1="68" y1="146" x2="69" y2="146"/>
<line x1="65" y1="147" x2="63" y2="147"/>
<line x1="65" y1="147" x2="66" y2="147"/>
<line x1="62" y1="147" x2="61" y2="147"/>
<line x1="62" y1="147" x2="63" y2="147"/>
<line x1="60" y1="146" x2="58" y2="146"/>
<line x1="60" y1="146" x2="61" y2="147"/>
<line x1="57" y1="146" x2="55" y2="145"/>
<line x1="57" y1="146" x2="58" y2="146"/>
<line x1="54" y1="145" x2="53" y2="144"/>
<line x1="54" y1="145" x2="55" y2="145"/>
<line x1="52" y1="143" x2="50" y2="142"/>
<line x1="52" y1="143" x2="53" y2="144"/>
<line x1="49" y1="142" x2="48" y2="141"/>
<line x1="49" y1="142" x2="50" y2="142"/>
<line x1="47" y1="140" x2="46" y2="138"/>
<line x1="47" y1="140" x2="48" y2="141"/>
<line x1="46" y1="138" x2="45" y2="136"/>
<line x1="46" y1="138" x2="46" y2="138"/>
<line x1="44" y1="135" x2="43" y2="134"/>
<line x1="44" y1="135" x2="45" y2="136"/>
<line x1="43" y1="133" x2="42" y2="131"/>
<line x1="43" y1="133" x2="43" y2="134"/>
<line x1="42" y1="130" x2="42" y2="128"/>
<line x1="42" y1="130" x2="42" y2="131"/>
<line x1="42" y1="127" x2="42" y2="126"/>
<line x1="42" y1="127" x2="42" y2="128"/>
<line x1="42" y1="125" x2="42" y2="123"/>
<line x1="42" y1="126" x2="42" y2="125"/>
<line x1="42" y1="122" x2="42" y2="120"/>
<line x1="42" y1="123" x2="42" y2="122"/>
<line x1="43" y1="119" x2="43" y2="117"/>
<line x1="42" y1="120" x2="43" y2="119"/>
<line x1="44" y1="117" x2="45" y2="115"/>
<line x1="43" y1="117" x2="44" y2="117"/>
<line x1="45" y1="114" x2="46" y2="113"/>
<line x1="45" y1="115" x2="45" y2="114"/>
<line x1="47" y1="112" x2="48" y2="111"/>
<line x1="46" y1="113" x2="47" y2="112"/>
<line x1="49" y1="110" x2="50" y2="109"/>
<line x1="48" y1="111" x2="49" y2="110"/>
<line x1="51" y1="108" x2="53" y2="107"/>
<line x1="50" y1="109" x2="51" y2="108"/>
<line x1="53" y1="107" x2="55" y2="106"/>
<line x1="53" y1="107" x2="53" y2="107"/>
<line x1="56" y1="106" x2="58" y2="105"/>
<line x1="55" y1="106" x2="56" y2="106"/>
<line x1="59" y1="105" x2="61" y2="105"/>
<line x1="58" y1="105" x2="59" y2="105"/>
<line x1="62" y1="105" x2="63" y2="104"/>
<line x1="61" y1="105" x2="62" y2="105"/>
<line x1="64" y1="105" x2="66" y2="105"/>
<line x1="63" y1="104" x2="64" y2="105"/>
<line x1="67" y1="105" x2="69" y2="105"/>
<line x1="66" y1="105" x2="67" y2="105"/>
<line x1="70" y1="105" x2="72" y2="106"/>
<line x1="69" y1="105" x2="70" y2="105"/>
<line x1="73" y1="106" x2="74" y2="107"/>
<line x1="72" y1="106" x2="73" y2="106"/>
<line x1="75" y1="108" x2="77" y2="109"/>
<line x1="74" y1="107" x2="75" y2="108"/>
<line x1="77" y1="109" x2="79" y2="111"/>
<line x1="77" y1="109" x2="77" y2="109"/>
<line x1="79" y1="111" x2="81" y2="113"/>
<line x1="79" y1="111" x2="79" y2="111"/>
<line x1="81" y1="113" x2="82" y2="115"/>
<line x1="81" y1="113" x2="81" y2="113"/>
<line x1="83" y1="116" x2="84" y2="117"/>
<line x1="82" y1="115" x2="83" y2="116"/>
<line x1="84" y1="118" x2="84" y2="120"/>
<line x1="84" y1="117" x2="84" y2="118"/>
<line x1="85" y1="121" x2="85" y2="123"/>
<line x1="84" y1="120" x2="85" y2="121"/>
<line x1="85" y1="124" x2="85" y2="126"/>
<line x1="85" y1="123" x2="85" y2="124"/>
<line x1="85" y1="126" x2="85" y2="128"/>
<line x1="85" y1="126" x2="85" y2="126"/>
<line x1="1359" y1="130" x2="1359" y2="130"/>
<line x1="1359" y1="130" x2="1359" y2="128"/>
<line x1="1359" y1="128" x2="1359" y2="127"/>
<line x1="1359" y1="128" x2="1359" y2="128"/>
<line x1="1358" y1="131" x2="1358" y2="133"/>
<line x1="1358" y1="131" x2="1359" y2="130"/>
<line x1="1358" y1="131" x2="1358" y2="131"/>
<line x1="1357" y1="133" x2="1356" y2="135"/>
<line x1="1357" y1="133" x2="1358" y2="133"/>
<line x1="1356" y1="136" x2="1355" y2="137"/>
<line x1="1356" y1="136" x2="1356" y2="135"/>
<line x1="1354" y1="138" x2="1353" y2="140"/>
<line x1="1354" y1="138" x2="1355" y2="137"/>
<line x1="1353" y1="140" x2="1351" y2="141"/>
<line x1="1353" y1="140" x2="1353" y2="140"/>
<line x1="1350" y1="142" x2="1349" y2="143"/>
<line x1="1350" y1="142" x2="1351" y2="141"/>
<line x1="1348" y1="143" x2="1346" y2="144"/>
<line x1="1348" y1="143" x2="1349" y2="143"/>
<line x1="1345" y1="144" x2="1343" y2="145"/>
<line x1="1345" y1="144" x2="1346" y2="144"/>
<line x1="1343" y1="145" x2="1341" y2="146"/>
<line x1="1343" y1="145" x2="1343" y2="145"/>
<line x1="1340" y1="146" x2="1338" y2="146"/>
<line x1="1340" y1="146" x2="1341" y2="146"/>
<line x1="1337" y1="146" x2="1335" y2="146"/>
<line x1="1337" y1="146" x2="1338" y2="146"/>
<line x1="1334" y1="145" x2="1332" y2="145"/>
<line x1="1334" y1="145" x2="1335" y2="146"/>
<line x1="1332" y1="145" x2="1330" y2="144"/>
<line x1="1332" y1="145" x2="1332" y2="145"/>
<line x1="1329" y1="144" x2="1327" y2="143"/>
<line x1="1329" y1="144" x2="1330" y2="144"/>
<line x1="1327" y1="143" x2="1325" y2="141"/>
<line x1="1327" y1="143" x2="1327" y2="143"/>
<line x1="1324" y1="141" x2="1323" y2="140"/>
<line x1="1324" y1="141" x2="1325" y2="141"/>
<line x1="1322" y1="139" x2="1321" y2="137"/>
<line x1="1322" y1="139" x2="1323" y2="140"/>
<line x1="1320" y1="137" x2="1319" y2="135"/>
<line x1="1320" y1="137" x2="1321" y2="137"/>
<line x1="1319" y1="135" x2="1318" y2="133"/>
<line x1="1319" y1="135" x2="1319" y2="135"/>
<line x1="1318" y1="132" x2="1317" y2="130"/>
<line x1="1318" y1="132" x2="1318" y2="133"/>
<line x1="1317" y1="129" x2="1317" y2="127"/>
<line x1="1317" y1="129" x2="1317" y2="130"/>
<line x1="1317" y1="127" x2="1316" y2="125"/>
<line x1="1317" y1="127" x2="1317" y2="127"/>
<line x1="1316" y1="124" x2="1317" y2="122"/>
<line x1="1316" y1="125" x2="1316" y2="124"/>
<line x1="1317" y1="121" x2="1317" y2="119"/>
<line x1="1317" y1="122" x2="1317" y2="121"/>
<line x1="1317" y1="119" x2="1318" y2="117"/>
<line x1="1317" y1="119" x2="1317" y2="119"/>
<line x1="1318" y1="116" x2="1319" y2="114"/>
<line x1="1318" y1="117" x2="1318" y2="116"/>
<line x1="1320" y1="114" x2="1321" y2="112"/>
<line x1="1319" y1="114" x2="1320" y2="114"/>
<line x1="1321" y1="111" x2="1323" y2="110"/>
<line x1="1321" y1="112" x2="1321" y2="111"/>
<line x1="1323" y1="109" x2="1325" y2="108"/>
<line x1="1323" y1="110" x2="1323" y2="109"/>
<line x1="1325" y1="108" x2="1327" y2="106"/>
<line x1="1325" y1="108" x2="1325" y2="108"/>
<line x1="1328" y1="106" x2="1330" y2="105"/>
<line x1="1327" y1="106" x2="1328" y2="106"/>
<line x1="1330" y1="105" x2="1332" y2="104"/>
<line x1="1330" y1="105" x2="1330" y2="105"/>
<line x1="1344" y1="104" x2="1346" y2="105"/>
<line x1="1343" y1="104" x2="1344" y2="104"/>
<line x1="1347" y1="105" x2="1349" y2="106"/>
<line x1="1346" y1="105" x2="1347" y2="105"/>
<line x1="1349" y1="107" x2="1351" y2="108"/>
<line x1="1349" y1="106" x2="1349" y2="107"/>
<line x1="1351" y1="108" x2="1353" y2="110"/>
<line x1="1351" y1="108" x2="1351" y2="108"/>
<line x1="1353" y1="110" x2="1355" y2="112"/>
<line x1="1353" y1="110" x2="1353" y2="110"/>
<line x1="1355" y1="112" x2="1356" y2="114"/>
<line x1="1355" y1="112" x2="1355" y2="112"/>
<line x1="1357" y1="115" x2="1358" y2="117"/>
<line x1="1356" y1="114" x2="1357" y2="115"/>
<line x1="1358" y1="117" x2="1359" y2="119"/>
<line x1="1358" y1="117" x2="1358" y2="117"/>
<line x1="1358" y1="117" x2="1358" y2="117"/>
<line x1="1359" y1="122" x2="1359" y2="122"/>
<line x1="1359" y1="120" x2="1359" y2="122"/>
<line x1="1359" y1="119" x2="1359" y2="120"/>
<line x1="1359" y1="119" x2="1359" y2="119"/>
<line x1="1359" y1="125" x2="1359" y2="125"/>
<line x1="1359" y1="125" x2="1359" y2="122"/>
<line x1="1359" y1="122" x2="1359" y2="122"/>
<line x1="1359" y1="122" x2="1359" y2="122"/>
<line x1="1359" y1="125" x2="1359" y2="125"/>
<line x1="1359" y1="125" x2="1359" y2="127"/>
<line x1="1359" y1="125" x2="1359" y2="125"/>
<line x1="1359" y1="125" x2="1359" y2="125"/>
</g></svg>