<svg xmlns="http://www.w3.org/2000/svg" width="1400" height="900" viewBox="0 0 1400 900">
<rect x="0" y="0" width="100%" height="100%" fill="white"/>
<g stroke="#111" stroke-width="1.2" fill="none" stroke-linecap="round">
<line x1="142" y1="790" x2="142" y2="790"/>
<line x1="142" y1="790" x2="142" y2="790"/>
<line x1="142" y1="790" x2="142" y2="790"/>
<line x1="143" y1="790" x2="142" y2="790"/>
<line x1="143" y1="790" x2="143" y2="790"/>
<line x1="143" y1="790" x2="143" y2="790"/>
<line x1="143" y1="790" x2="143" y2="790"/>
<line x1="143" y1="790" x2="143" y2="790"/>
<line x1="143" y1="790" x2="143" y2="790"/>
<line x1="143" y1="790" x2="143" y2="790"/>
<line x1="144" y1="790" x2="143" y2="790"/>
<line x1="144" y1="790" x2="144" y2="790"/>
<line x1="144" y1="790" x2="144" y2="790"/>
<line x1="145" y1="790" x2="144" y2="790"/>
<line x1="145" y1="790" x2="145" y2="790"/>
<line x1="145" y1="790" x2="145" y2="790"/>
<line x1="145" y1="790" x2="145" y2="790"/>
<line x1="146" y1="790" x2="145" y2="790"/>
<line x1="146" y1="790" x2="146" y2="790"/>
<line x1="146" y1="790" x2="146" y2="790"/>
<line x1="146" y1="790" x2="146" y2="790"/>
<line x1="148" y1="790" x2="146" y2="790"/>
<line x1="148" y1="790" x2="148" y2="790"/>
<line x1="148" y1="790" x2="148" y2="790"/>
<line x1="150" y1="790" x2="148" y2="790"/>
<line x1="150" y1="790" x2="150" y2="790"/>
<line x1="150" y1="790" x2="150" y2="790"/>
<line x1="150" y1="790" x2="150" y2="790"/>
<line x1="152" y1="790" x2="150" y2="790"/>
<line x1="152" y1="790" x2="152" y2="790"/>
<line x1="152" y1="790" x2="152" y2="790"/>
<line x1="155" y1="790" x2="152" y2="790"/>
<line x1="155" y1="790" x2="155" y2="790"/>
<line x1="156" y1="790" x2="155" y2="790"/>
<line x1="156" y1="790" x2="156" y2="790"/>
<line x1="160" y1="790" x2="156" y2="790"/>
<line x1="160" y1="790" x2="160" y2="790"/>
<line x1="160" y1="790" x2="160" y2="790"/>
<line x1="160" y1="790" x2="160" y2="790"/>
<line x1="167" y1="790" x2="160" y2="790"/>
<line x1="167" y1="790" x2="167" y2="790"/>
<line x1="167" y1="790" x2="167" y2="790"/>
<line x1="167" y1="790" x2="167" y2="790"/>
<line x1="176" y1="790" x2="167" y2="790"/>
<line x1="177" y1="790" x2="176" y2="790"/>
<line x1="177" y1="790" x2="177" y2="790"/>
<line x1="177" y1="790" x2="177" y2="790"/>
<line x1="192" y1="790" x2="177" y2="790"/>
<line x1="193" y1="790" x2="192" y2="790"/>
<line x1="193" y1="790" x2="193" y2="790"/>
<line x1="193" y1="790" x2="193" y2="790"/>
<line x1="123" y1="790" x2="123" y2="790"/>
<line x1="123" y1="790" x2="124" y2="790"/>
<line x1="124" y1="790" x2="130" y2="790"/>
<line x1="130" y1="790" x2="130" y2="790"/>
<line x1="130" y1="790" x2="137" y2="790"/>
<line x1="137" y1="790" x2="137" y2="790"/>
<line x1="137" y1="790" x2="142" y2="790"/>
<line x1="1303" y1="790" x2="1302" y2="790"/>
<line x1="123" y1="100" x2="123" y2="790"/>
<line x1="123" y1="100" x2="123" y2="61"/>
<line x1="1303" y1="626" x2="1303" y2="61"/>
<line x1="1303" y1="667" x2="1303" y2="626"/>
<line x1="1303" y1="683" x2="1303" y2="667"/>
<line x1="1303" y1="699" x2="1303" y2="683"/>
<line x1="1303" y1="699" x2="1303" y2="790"/>
<line x1="193" y1="790" x2="193" y2="790"/>
<line x1="193" y1="790" x2="194" y2="791"/>
<line x1="1261" y1="791" x2="1302" y2="791"/>
<line x1="953" y1="791" x2="950" y2="791"/>
<line x1="1261" y1="791" x2="1228" y2="791"/>
<line x1="1228" y1="791" x2="953" y2="791"/>
<line x1="194" y1="791" x2="224" y2="791"/>
<line x1="224" y1="791" x2="224" y2="791"/>
<line x1="224" y1="791" x2="254" y2="791"/>
<line x1="254" y1="791" x2="255" y2="791"/>
<line x1="255" y1="791" x2="284" y2="791"/>
<line x1="284" y1="791" x2="284" y2="791"/>
<line x1="284" y1="791" x2="313" y2="791"/>
<line x1="313" y1="791" x2="313" y2="791"/>
<line x1="313" y1="791" x2="341" y2="791"/>
<line x1="341" y1="791" x2="341" y2="791"/>
<line x1="341" y1="791" x2="368" y2="791"/>
<line x1="368" y1="791" x2="369" y2="791"/>
<line x1="369" y1="791" x2="395" y2="791"/>
<line x1="395" y1="791" x2="395" y2="791"/>
<line x1="395" y1="791" x2="421" y2="791"/>
<line x1="421" y1="791" x2="422" y2="791"/>
<line x1="422" y1="791" x2="447" y2="791"/>
<line x1="447" y1="791" x2="447" y2="791"/>
<line x1="447" y1="791" x2="472" y2="791"/>
<line x1="472" y1="791" x2="472" y2="791"/>
<line x1="472" y1="791" x2="497" y2="791"/>
<line x1="497" y1="791" x2="497" y2="791"/>
<line x1="497" y1="791" x2="521" y2="791"/>
<line x1="521" y1="791" x2="521" y2="791"/>
<line x1="521" y1="791" x2="544" y2="791"/>
<line x1="544" y1="791" x2="544" y2="791"/>
<line x1="544" y1="791" x2="567" y2="791"/>
<line x1="567" y1="791" x2="568" y2="791"/>
<line x1="568" y1="791" x2="590" y2="791"/>
<line x1="590" y1="791" x2="590" y2="791"/>
<line x1="590" y1="791" x2="612" y2="791"/>
<line x1="612" y1="791" x2="613" y2="791"/>
<line x1="613" y1="791" x2="634" y2="791"/>
<line x1="634" y1="791" x2="635" y2="791"/>
<line x1="635" y1="791" x2="656" y2="791"/>
<line x1="656" y1="791" x2="656" y2="791"/>
<line x1="656" y1="791" x2="677" y2="791"/>
<line x1="677" y1="791" x2="677" y2="791"/>
<line x1="677" y1="791" x2="698" y2="791"/>
<line x1="698" y1="791" x2="698" y2="791"/>
<line x1="698" y1="791" x2="719" y2="791"/>
<line x1="719" y1="791" x2="719" y2="791"/>
<line x1="719" y1="791" x2="739" y2="791"/>
<line x1="739" y1="791" x2="739" y2="791"/>
<line x1="739" y1="791" x2="759" y2="791"/>
<line x1="759" y1="791" x2="759" y2="791"/>
<line x1="759" y1="791" x2="778" y2="791"/>
<line x1="778" y1="791" x2="779" y2="791"/>
<line x1="779" y1="791" x2="798" y2="791"/>
<line x1="798" y1="791" x2="798" y2="791"/>
<line x1="798" y1="791" x2="817" y2="791"/>
<line x1="817" y1="791" x2="817" y2="791"/>
<line x1="817" y1="791" x2="836" y2="791"/>
<line x1="836" y1="791" x2="836" y2="791"/>
<line x1="836" y1="791" x2="855" y2="791"/>
<line x1="855" y1="791" x2="855" y2="791"/>
<line x1="855" y1="791" x2="873" y2="791"/>
<line x1="873" y1="791" x2="873" y2="791"/>
<line x1="873" y1="791" x2="892" y2="791"/>
<line x1="892" y1="791" x2="892" y2="791"/>
<line x1="892" y1="791" x2="910" y2="791"/>
<line x1="910" y1="791" x2="910" y2="791"/>
<line x1="950" y1="791" x2="910" y2="791"/>
<line x1="43" y1="839" x2="40" y2="839"/>
<line x1="43" y1="839" x2="44" y2="839"/>
<line x1="44" y1="839" x2="75" y2="839"/>
<line x1="75" y1="839" x2="75" y2="839"/>
<line x1="75" y1="839" x2="105" y2="839"/>
<line x1="105" y1="839" x2="106" y2="839"/>
<line x1="106" y1="839" x2="134" y2="839"/>
<line x1="134" y1="839" x2="134" y2="839"/>
<line x1="134" y1="839" x2="161" y2="839"/>
<line x1="161" y1="839" x2="162" y2="839"/>
<line x1="162" y1="839" x2="188" y2="839"/>
<line x1="188" y1="839" x2="188" y2="839"/>
<line x1="188" y1="839" x2="213" y2="839"/>
<line x1="213" y1="839" x2="214" y2="839"/>
<line x1="214" y1="839" x2="238" y2="839"/>
<line x1="238" y1="839" x2="238" y2="839"/>
<line x1="238" y1="839" x2="261" y2="839"/>
<line x1="261" y1="839" x2="262" y2="839"/>
<line x1="262" y1="839" x2="284" y2="839"/>
<line x1="284" y1="839" x2="285" y2="839"/>
<line x1="285" y1="839" x2="306" y2="839"/>
<line x1="306" y1="839" x2="307" y2="839"/>
<line x1="307" y1="839" x2="327" y2="839"/>
<line x1="327" y1="839" x2="328" y2="839"/>
<line x1="328" y1="839" x2="348" y2="839"/>
<line x1="348" y1="839" x2="349" y2="839"/>
<line x1="1197" y1="839" x2="349" y2="839"/>
<line x1="1197" y1="839" x2="1212" y2="839"/>
<line x1="1212" y1="839" x2="1212" y2="839"/>
<line x1="1212" y1="839" x2="1226" y2="839"/>
<line x1="1226" y1="839" x2="1227" y2="839"/>
<line x1="1227" y1="839" x2="1239" y2="839"/>
<line x1="1239" y1="839" x2="1239" y2="839"/>
<line x1="1239" y1="839" x2="1250" y2="839"/>
<line x1="1250" y1="839" x2="1250" y2="839"/>
<line x1="1250" y1="839" x2="1260" y2="839"/>
<line x1="1260" y1="839" x2="1260" y2="839"/>
<line x1="1260" y1="839" x2="1269" y2="839"/>
<line x1="1269" y1="839" x2="1270" y2="839"/>
<line x1="1270" y1="839" x2="1278" y2="839"/>
<line x1="1278" y1="839" x2="1278" y2="839"/>
<line x1="1278" y1="839" x2="1286" y2="839"/>
<line x1="1286" y1="839" x2="1286" y2="839"/>
<line x1="1286" y1="839" x2="1293" y2="839"/>
<line x1="1293" y1="839" x2="1293" y2="839"/>
<line x1="1293" y1="839" x2="1299" y2="839"/>
<line x1="1299" y1="839" x2="1299" y2="839"/>
<line x1="1299" y1="839" x2="1305" y2="839"/>
<line x1="1305" y1="839" x2="1306" y2="839"/>
<line x1="1306" y1="839" x2="1311" y2="839"/>
<line x1="1311" y1="839" x2="1311" y2="839"/>
<line x1="1311" y1="839" x2="1317" y2="839"/>
<line x1="1317" y1="839" x2="1317" y2="839"/>
<line x1="1317" y1="839" x2="1322" y2="839"/>
<line x1="1322" y1="839" x2="1322" y2="839"/>
<line x1="1322" y1="839" x2="1326" y2="839"/>
<line x1="1326" y1="839" x2="1327" y2="839"/>
<line x1="1327" y1="839" x2="1331" y2="839"/>
<line x1="1331" y1="839" x2="1331" y2="839"/>
<line x1="1331" y1="839" x2="1360" y2="839"/>
<line x1="90" y1="61" x2="104" y2="61"/>
<line x1="104" y1="61" x2="104" y2="61"/>
<line x1="107" y1="61" x2="104" y2="61"/>
<line x1="107" y1="61" x2="107" y2="61"/>
<line x1="113" y1="61" x2="107" y2="61"/>
<line x1="113" y1="61" x2="113" y2="61"/>
<line x1="123" y1="61" x2="113" y2="61"/>
<line x1="1336" y1="61" x2="1303" y2="61"/>
<line x1="1336" y1="61" x2="1353" y2="61"/>
<line x1="40" y1="61" x2="41" y2="61"/>
<line x1="70" y1="61" x2="41" y2="61"/>
<line x1="40" y1="769" x2="40" y2="61"/>
<line x1="40" y1="769" x2="40" y2="839"/>
<line x1="1360" y1="109" x2="1360" y2="738"/>
<line x1="1360" y1="771" x2="1360" y2="839"/>
<line x1="1360" y1="771" x2="1360" y2="738"/>
<line x1="1302" y1="790" x2="1302" y2="790"/>
<line x1="1302" y1="790" x2="1302" y2="791"/>
<line x1="44" y1="89" x2="44" y2="89"/>
<line x1="44" y1="89" x2="44" y2="90"/>
<line x1="44" y1="89" x2="43" y2="87"/>
<line x1="44" y1="89" x2="44" y2="89"/>
<line x1="45" y1="92" x2="46" y2="93"/>
<line x1="45" y1="92" x2="44" y2="90"/>
<line x1="45" y1="92" x2="45" y2="92"/>
<line x1="47" y1="95" x2="48" y2="96"/>
<line x1="47" y1="95" x2="46" y2="93"/>
<line x1="49" y1="98" x2="51" y2="99"/>
<line x1="49" y1="98" x2="48" y2="96"/>
<line x1="53" y1="100" x2="54" y2="101"/>
<line x1="53" y1="100" x2="51" y2="99"/>
<line x1="56" y1="102" x2="57" y2="103"/>
<line x1="56" y1="102" x2="54" y2="101"/>
<line x1="60" y1="104" x2="62" y2="105"/>
<line x1="60" y1="104" x2="57" y2="103"/>
<line x1="64" y1="106" x2="66" y2="106"/>
<line x1="64" y1="106" x2="62" y2="105"/>
<line x1="69" y1="107" x2="71" y2="107"/>
<line x1="69" y1="107" x2="66" y2="106"/>
<line x1="74" y1="108" x2="75" y2="108"/>
<line x1="74" y1="108" x2="71" y2="107"/>
<line x1="79" y1="108" x2="80" y2="108"/>
<line x1="79" y1="108" x2="75" y2="108"/>
<line x1="84" y1="108" x2="85" y2="108"/>
<line x1="84" y1="108" x2="80" y2="108"/>
<line x1="89" y1="107" x2="90" y2="107"/>
<line x1="89" y1="107" x2="85" y2="108"/>
<line x1="93" y1="106" x2="95" y2="106"/>
<line x1="93" y1="106" x2="90" y2="107"/>
<line x1="98" y1="105" x2="99" y2="105"/>
<line x1="98" y1="105" x2="95" y2="106"/>
<line x1="102" y1="104" x2="103" y2="103"/>
<line x1="102" y1="104" x2="99" y2="105"/>
<line x1="106" y1="102" x2="107" y2="101"/>
<line x1="106" y1="102" x2="103" y2="103"/>
<line x1="109" y1="99" x2="110" y2="99"/>
<line x1="109" y1="99" x2="107" y2="101"/>
<line x1="112" y1="97" x2="113" y2="96"/>
<line x1="112" y1="97" x2="110" y2="99"/>
<line x1="114" y1="94" x2="115" y2="93"/>
<line x1="114" y1="94" x2="113" y2="96"/>
<line x1="116" y1="91" x2="116" y2="90"/>
<line x1="116" y1="91" x2="115" y2="93"/>
<line x1="117" y1="88" x2="117" y2="87"/>
<line x1="117" y1="88" x2="116" y2="90"/>
<line x1="118" y1="85" x2="118" y2="84"/>
<line x1="118" y1="85" x2="117" y2="87"/>
<line x1="117" y1="82" x2="117" y2="81"/>
<line x1="118" y1="84" x2="117" y2="82"/>
<line x1="117" y1="79" x2="116" y2="78"/>
<line x1="117" y1="81" x2="117" y2="79"/>
<line x1="115" y1="76" x2="115" y2="75"/>
<line x1="116" y1="78" x2="115" y2="76"/>
<line x1="113" y1="73" x2="113" y2="72"/>
<line x1="115" y1="75" x2="113" y2="73"/>
<line x1="111" y1="70" x2="110" y2="70"/>
<line x1="113" y1="72" x2="111" y2="70"/>
<line x1="107" y1="68" x2="107" y2="67"/>
<line x1="110" y1="70" x2="107" y2="68"/>
<line x1="104" y1="66" x2="103" y2="65"/>
<line x1="107" y1="67" x2="104" y2="66"/>
<line x1="100" y1="64" x2="99" y2="64"/>
<line x1="103" y1="65" x2="100" y2="64"/>
<line x1="96" y1="63" x2="95" y2="62"/>
<line x1="99" y1="64" x2="96" y2="63"/>
<line x1="91" y1="62" x2="90" y2="61"/>
<line x1="91" y1="62" x2="95" y2="62"/>
<line x1="68" y1="62" x2="66" y2="62"/>
<line x1="70" y1="61" x2="68" y2="62"/>
<line x1="63" y1="63" x2="62" y2="64"/>
<line x1="66" y1="62" x2="63" y2="63"/>
<line x1="59" y1="65" x2="57" y2="65"/>
<line x1="62" y1="64" x2="59" y2="65"/>
<line x1="55" y1="67" x2="54" y2="67"/>
<line x1="57" y1="65" x2="55" y2="67"/>
<line x1="52" y1="69" x2="51" y2="70"/>
<line x1="54" y1="67" x2="52" y2="69"/>
<line x1="49" y1="71" x2="48" y2="72"/>
<line x1="51" y1="70" x2="49" y2="71"/>
<line x1="47" y1="74" x2="46" y2="75"/>
<line x1="48" y1="72" x2="47" y2="74"/>
<line x1="45" y1="77" x2="44" y2="78"/>
<line x1="45" y1="77" x2="45" y2="77"/>
<line x1="45" y1="77" x2="46" y2="75"/>
<line x1="43" y1="80" x2="43" y2="81"/>
<line x1="43" y1="80" x2="44" y2="80"/>
<line x1="44" y1="78" x2="44" y2="80"/>
<line x1="44" y1="78" x2="44" y2="78"/>
<line x1="43" y1="83" x2="43" y2="84"/>
<line x1="43" y1="83" x2="43" y2="83"/>
<line x1="43" y1="83" x2="43" y2="83"/>
<line x1="43" y1="83" x2="43" y2="81"/>
<line x1="43" y1="87" x2="43" y2="87"/>
<line x1="43" y1="87" x2="43" y2="86"/>
<line x1="43" y1="84" x2="43" y2="86"/>
<line x1="43" y1="84" x2="43" y2="84"/>
<line x1="1360" y1="109" x2="1360" y2="109"/>
<line x1="1336" y1="76" x2="1336" y2="76"/>
<line x1="1336" y1="75" x2="1336" y2="75"/>
<line x1="1336" y1="76" x2="1336" y2="75"/>
<line x1="1336" y1="76" x2="1336" y2="76"/>
<line x1="1335" y1="80" x2="1335" y2="80"/>
<line x1="1335" y1="81" x2="1335" y2="81"/>
<line x1="1335" y1="81" x2="1335" y2="80"/>
<line x1="1355" y1="109" x2="1357" y2="109"/>
<line x1="1353" y1="108" x2="1355" y2="109"/>
<line x1="1342" y1="102" x2="1341" y2="101"/>
<line x1="1342" y1="102" x2="1342" y2="102"/>
<line x1="1342" y1="102" x2="1342" y2="102"/>
<line x1="1338" y1="97" x2="1337" y2="96"/>
<line x1="1338" y1="97" x2="1338" y2="97"/>
<line x1="1338" y1="97" x2="1338" y2="97"/>
<line x1="1338" y1="97" x2="1338" y2="97"/>
<line x1="1343" y1="103" x2="1342" y2="102"/>
<line x1="1343" y1="103" x2="1345" y2="104"/>
<line x1="1342" y1="102" x2="1342" y2="102"/>
<line x1="1340" y1="100" x2="1340" y2="100"/>
<line x1="1341" y1="101" x2="1340" y2="100"/>
<line x1="1341" y1="101" x2="1341" y2="101"/>
<line x1="1341" y1="101" x2="1341" y2="101"/>
<line x1="1337" y1="74" x2="1337" y2="74"/>
<line x1="1337" y1="74" x2="1337" y2="74"/>
<line x1="1337" y1="75" x2="1336" y2="75"/>
<line x1="1337" y1="75" x2="1337" y2="74"/>
<line x1="1335" y1="89" x2="1335" y2="89"/>
<line x1="1335" y1="89" x2="1335" y2="88"/>
<line x1="1335" y1="89" x2="1335" y2="90"/>
<line x1="1339" y1="98" x2="1338" y2="97"/>
<line x1="1339" y1="98" x2="1339" y2="98"/>
<line x1="1339" y1="99" x2="1339" y2="98"/>
<line x1="1339" y1="99" x2="1339" y2="99"/>
<line x1="1339" y1="99" x2="1339" y2="99"/>
<line x1="1339" y1="99" x2="1340" y2="100"/>
<line x1="1340" y1="100" x2="1340" y2="100"/>
<line x1="1335" y1="81" x2="1335" y2="81"/>
<line x1="1335" y1="83" x2="1335" y2="83"/>
<line x1="1335" y1="82" x2="1335" y2="81"/>
<line x1="1335" y1="83" x2="1335" y2="84"/>
<line x1="1335" y1="83" x2="1335" y2="82"/>
<line x1="1335" y1="78" x2="1335" y2="78"/>
<line x1="1335" y1="79" x2="1335" y2="78"/>
<line x1="1335" y1="79" x2="1335" y2="80"/>
<line x1="1341" y1="68" x2="1341" y2="68"/>
<line x1="1342" y1="68" x2="1342" y2="67"/>
<line x1="1342" y1="68" x2="1342" y2="68"/>
<line x1="1341" y1="68" x2="1342" y2="68"/>
<line x1="1338" y1="72" x2="1338" y2="72"/>
<line x1="1338" y1="73" x2="1338" y2="72"/>
<line x1="1338" y1="73" x2="1337" y2="74"/>
<line x1="1336" y1="92" x2="1335" y2="91"/>
<line x1="1336" y1="93" x2="1336" y2="92"/>
<line x1="1336" y1="93" x2="1336" y2="93"/>
<line x1="1336" y1="93" x2="1336" y2="93"/>
<line x1="1349" y1="107" x2="1347" y2="106"/>
<line x1="1349" y1="107" x2="1350" y2="107"/>
<line x1="1358" y1="109" x2="1360" y2="109"/>
<line x1="1357" y1="109" x2="1358" y2="109"/>
<line x1="1336" y1="77" x2="1336" y2="77"/>
<line x1="1336" y1="77" x2="1335" y2="78"/>
<line x1="1336" y1="77" x2="1336" y2="76"/>
<line x1="1349" y1="63" x2="1350" y2="62"/>
<line x1="1349" y1="63" x2="1347" y2="64"/>
<line x1="1337" y1="94" x2="1336" y2="94"/>
<line x1="1337" y1="95" x2="1337" y2="94"/>
<line x1="1337" y1="95" x2="1337" y2="96"/>
<line x1="1336" y1="93" x2="1336" y2="93"/>
<line x1="1336" y1="93" x2="1336" y2="94"/>
<line x1="1336" y1="94" x2="1336" y2="94"/>
<line x1="1335" y1="85" x2="1335" y2="85"/>
<line x1="1335" y1="85" x2="1335" y2="85"/>
<line x1="1335" y1="84" x2="1335" y2="85"/>
<line x1="1335" y1="85" x2="1335" y2="85"/>
<line x1="1335" y1="86" x2="1335" y2="85"/>
<line x1="1335" y1="86" x2="1335" y2="88"/>
<line x1="1335" y1="88" x2="1335" y2="88"/>
<line x1="1335" y1="88" x2="1335" y2="88"/>
<line x1="1346" y1="105" x2="1345" y2="104"/>
<line x1="1347" y1="106" x2="1346" y2="105"/>
<line x1="1347" y1="106" x2="1347" y2="106"/>
<line x1="1339" y1="71" x2="1339" y2="71"/>
<line x1="1339" y1="71" x2="1338" y2="72"/>
<line x1="1339" y1="71" x2="1339" y2="71"/>
<line x1="1346" y1="64" x2="1345" y2="65"/>
<line x1="1346" y1="64" x2="1347" y2="64"/>
<line x1="1335" y1="91" x2="1335" y2="90"/>
<line x1="1335" y1="91" x2="1335" y2="91"/>
<line x1="1335" y1="91" x2="1335" y2="91"/>
<line x1="1335" y1="91" x2="1335" y2="91"/>
<line x1="1352" y1="108" x2="1350" y2="107"/>
<line x1="1353" y1="108" x2="1352" y2="108"/>
<line x1="1353" y1="108" x2="1353" y2="108"/>
<line x1="1339" y1="71" x2="1339" y2="71"/>
<line x1="1340" y1="70" x2="1340" y2="70"/>
<line x1="1339" y1="70" x2="1340" y2="70"/>
<line x1="1339" y1="71" x2="1339" y2="70"/>
<line x1="1341" y1="69" x2="1341" y2="69"/>
<line x1="1341" y1="69" x2="1340" y2="70"/>
<line x1="1341" y1="69" x2="1341" y2="68"/>
<line x1="1343" y1="66" x2="1342" y2="67"/>
<line x1="1344" y1="66" x2="1343" y2="66"/>
<line x1="1344" y1="66" x2="1344" y2="66"/>
<line x1="1344" y1="66" x2="1345" y2="65"/>
<line x1="1352" y1="62" x2="1353" y2="61"/>
<line x1="1352" y1="62" x2="1350" y2="62"/>
</g></svg>