<svg xmlns="http://www.w3.org/2000/svg" width="1400" height="900" viewBox="0 0 1400 900">
<rect x="0" y="0" width="100%" height="100%" fill="white"/>
<g stroke="#111" stroke-width="1.2" fill="none" stroke-linecap="round">
<line x1="942" y1="809" x2="911" y2="809"/>
<line x1="910" y1="809" x2="910" y2="809"/>
<line x1="910" y1="809" x2="911" y2="809"/>
<line x1="910" y1="809" x2="910" y2="809"/>
<line x1="893" y1="809" x2="910" y2="809"/>
<line x1="548" y1="809" x2="560" y2="809"/>
<line x1="942" y1="521" x2="942" y2="809"/>
<line x1="942" y1="521" x2="942" y2="40"/>
<line x1="548" y1="370" x2="548" y2="40"/>
<line x1="548" y1="395" x2="548" y2="370"/>
<line x1="548" y1="404" x2="548" y2="395"/>
<line x1="548" y1="413" x2="548" y2="404"/>
<line x1="548" y1="413" x2="548" y2="809"/>
<line x1="893" y1="809" x2="893" y2="809"/>
<line x1="893" y1="809" x2="893" y2="809"/>
<line x1="723" y1="809" x2="560" y2="809"/>
<line x1="833" y1="809" x2="834" y2="809"/>
<line x1="723" y1="809" x2="747" y2="809"/>
<line x1="747" y1="809" x2="833" y2="809"/>
<line x1="892" y1="809" x2="893" y2="809"/>
<line x1="892" y1="809" x2="834" y2="809"/>
<line x1="979" y1="860" x2="400" y2="860"/>
<line x1="979" y1="860" x2="994" y2="860"/>
<line x1="994" y1="860" x2="994" y2="860"/>
<line x1="994" y1="860" x2="1000" y2="860"/>
<line x1="954" y1="40" x2="942" y2="40"/>
<line x1="954" y1="40" x2="954" y2="40"/>
<line x1="959" y1="40" x2="954" y2="40"/>
<line x1="959" y1="40" x2="959" y2="40"/>
<line x1="961" y1="40" x2="959" y2="40"/>
<line x1="961" y1="40" x2="961" y2="40"/>
<line x1="961" y1="40" x2="966" y2="40"/>
<line x1="446" y1="40" x2="548" y2="40"/>
<line x1="446" y1="40" x2="416" y2="40"/>
<line x1="1000" y1="40" x2="982" y2="40"/>
<line x1="982" y1="40" x2="982" y2="40"/>
<line x1="981" y1="40" x2="982" y2="40"/>
<line x1="981" y1="40" x2="981" y2="40"/>
<line x1="981" y1="40" x2="981" y2="40"/>
<line x1="981" y1="40" x2="981" y2="40"/>
<line x1="981" y1="40" x2="981" y2="40"/>
<line x1="1000" y1="52" x2="1000" y2="40"/>
<line x1="1000" y1="52" x2="1000" y2="59"/>
<line x1="1000" y1="306" x2="1000" y2="69"/>
<line x1="1000" y1="308" x2="1000" y2="306"/>
<line x1="1000" y1="326" x2="1000" y2="308"/>
<line x1="1000" y1="326" x2="1000" y2="860"/>
<line x1="400" y1="90" x2="400" y2="592"/>
<line x1="400" y1="617" x2="400" y2="860"/>
<line x1="400" y1="617" x2="400" y2="592"/>
<line x1="560" y1="809" x2="560" y2="809"/>
<line x1="560" y1="809" x2="560" y2="809"/>
<line x1="1000" y1="71" x2="1000" y2="69"/>
<line x1="999" y1="74" x2="999" y2="74"/>
<line x1="999" y1="74" x2="1000" y2="71"/>
<line x1="1000" y1="71" x2="1000" y2="71"/>
<line x1="1000" y1="71" x2="1000" y2="71"/>
<line x1="997" y1="77" x2="997" y2="77"/>
<line x1="997" y1="77" x2="999" y2="74"/>
<line x1="999" y1="74" x2="999" y2="74"/>
<line x1="995" y1="79" x2="995" y2="79"/>
<line x1="995" y1="79" x2="997" y2="77"/>
<line x1="997" y1="77" x2="997" y2="77"/>
<line x1="993" y1="82" x2="993" y2="82"/>
<line x1="993" y1="82" x2="995" y2="80"/>
<line x1="995" y1="80" x2="995" y2="79"/>
<line x1="990" y1="84" x2="993" y2="82"/>
<line x1="990" y1="84" x2="990" y2="84"/>
<line x1="993" y1="82" x2="993" y2="82"/>
<line x1="987" y1="86" x2="990" y2="84"/>
<line x1="987" y1="86" x2="987" y2="86"/>
<line x1="990" y1="84" x2="990" y2="84"/>
<line x1="984" y1="87" x2="987" y2="86"/>
<line x1="984" y1="87" x2="984" y2="87"/>
<line x1="987" y1="86" x2="987" y2="86"/>
<line x1="981" y1="88" x2="984" y2="87"/>
<line x1="981" y1="88" x2="981" y2="88"/>
<line x1="984" y1="87" x2="984" y2="87"/>
<line x1="977" y1="89" x2="980" y2="88"/>
<line x1="977" y1="89" x2="977" y2="89"/>
<line x1="980" y1="88" x2="981" y2="88"/>
<line x1="974" y1="89" x2="977" y2="89"/>
<line x1="974" y1="89" x2="974" y2="89"/>
<line x1="977" y1="89" x2="977" y2="89"/>
<line x1="970" y1="89" x2="973" y2="89"/>
<line x1="970" y1="89" x2="970" y2="89"/>
<line x1="973" y1="89" x2="974" y2="89"/>
<line x1="967" y1="88" x2="970" y2="89"/>
<line x1="967" y1="88" x2="967" y2="88"/>
<line x1="970" y1="89" x2="970" y2="89"/>
<line x1="963" y1="87" x2="966" y2="88"/>
<line x1="963" y1="87" x2="963" y2="87"/>
<line x1="966" y1="88" x2="967" y2="88"/>
<line x1="960" y1="86" x2="963" y2="87"/>
<line x1="960" y1="86" x2="960" y2="86"/>
<line x1="963" y1="87" x2="963" y2="87"/>
<line x1="960" y1="86" x2="960" y2="86"/>
<line x1="960" y1="86" x2="957" y2="84"/>
<line x1="960" y1="86" x2="960" y2="86"/>
<line x1="957" y1="84" x2="957" y2="84"/>
<line x1="957" y1="84" x2="954" y2="82"/>
<line x1="957" y1="84" x2="957" y2="84"/>
<line x1="957" y1="84" x2="957" y2="84"/>
<line x1="957" y1="84" x2="957" y2="84"/>
<line x1="954" y1="82" x2="954" y2="82"/>
<line x1="954" y1="82" x2="952" y2="79"/>
<line x1="954" y1="82" x2="954" y2="82"/>
<line x1="954" y1="82" x2="954" y2="82"/>
<line x1="954" y1="82" x2="954" y2="82"/>
<line x1="952" y1="79" x2="952" y2="79"/>
<line x1="952" y1="79" x2="950" y2="77"/>
<line x1="952" y1="79" x2="952" y2="79"/>
<line x1="952" y1="79" x2="952" y2="79"/>
<line x1="950" y1="76" x2="950" y2="76"/>
<line x1="950" y1="76" x2="948" y2="74"/>
<line x1="950" y1="76" x2="950" y2="77"/>
<line x1="950" y1="76" x2="950" y2="76"/>
<line x1="950" y1="76" x2="950" y2="76"/>
<line x1="950" y1="76" x2="950" y2="76"/>
<line x1="948" y1="73" x2="948" y2="73"/>
<line x1="948" y1="73" x2="947" y2="71"/>
<line x1="948" y1="73" x2="948" y2="74"/>
<line x1="948" y1="73" x2="948" y2="73"/>
<line x1="947" y1="70" x2="947" y2="70"/>
<line x1="947" y1="70" x2="947" y2="67"/>
<line x1="947" y1="70" x2="947" y2="71"/>
<line x1="947" y1="70" x2="947" y2="70"/>
<line x1="947" y1="70" x2="947" y2="70"/>
<line x1="947" y1="67" x2="947" y2="67"/>
<line x1="947" y1="67" x2="946" y2="64"/>
<line x1="947" y1="67" x2="947" y2="67"/>
<line x1="947" y1="67" x2="947" y2="67"/>
<line x1="947" y1="61" x2="947" y2="61"/>
<line x1="947" y1="61" x2="946" y2="64"/>
<line x1="946" y1="64" x2="946" y2="64"/>
<line x1="947" y1="58" x2="947" y2="58"/>
<line x1="947" y1="58" x2="947" y2="61"/>
<line x1="947" y1="61" x2="947" y2="61"/>
<line x1="947" y1="61" x2="947" y2="61"/>
<line x1="948" y1="55" x2="948" y2="55"/>
<line x1="948" y1="55" x2="947" y2="57"/>
<line x1="947" y1="58" x2="947" y2="57"/>
<line x1="950" y1="52" x2="950" y2="52"/>
<line x1="950" y1="52" x2="949" y2="54"/>
<line x1="949" y1="55" x2="948" y2="55"/>
<line x1="949" y1="55" x2="949" y2="54"/>
<line x1="952" y1="49" x2="952" y2="49"/>
<line x1="952" y1="49" x2="952" y2="49"/>
<line x1="952" y1="49" x2="950" y2="51"/>
<line x1="950" y1="52" x2="950" y2="51"/>
<line x1="954" y1="46" x2="954" y2="46"/>
<line x1="954" y1="46" x2="952" y2="49"/>
<line x1="952" y1="49" x2="952" y2="49"/>
<line x1="957" y1="44" x2="955" y2="46"/>
<line x1="957" y1="44" x2="957" y2="44"/>
<line x1="954" y1="46" x2="955" y2="46"/>
<line x1="957" y1="44" x2="960" y2="42"/>
<line x1="957" y1="44" x2="957" y2="44"/>
<line x1="957" y1="44" x2="957" y2="44"/>
<line x1="960" y1="42" x2="963" y2="41"/>
<line x1="960" y1="42" x2="960" y2="42"/>
<line x1="960" y1="42" x2="960" y2="42"/>
<line x1="964" y1="41" x2="966" y2="40"/>
<line x1="964" y1="41" x2="963" y2="41"/>
<line x1="963" y1="41" x2="963" y2="41"/>
<line x1="981" y1="40" x2="984" y2="41"/>
<line x1="981" y1="40" x2="981" y2="40"/>
<line x1="981" y1="40" x2="981" y2="40"/>
<line x1="984" y1="41" x2="987" y2="42"/>
<line x1="984" y1="41" x2="984" y2="41"/>
<line x1="984" y1="41" x2="984" y2="41"/>
<line x1="987" y1="43" x2="990" y2="44"/>
<line x1="987" y1="43" x2="987" y2="43"/>
<line x1="987" y1="42" x2="987" y2="43"/>
<line x1="990" y1="44" x2="993" y2="46"/>
<line x1="990" y1="44" x2="990" y2="44"/>
<line x1="990" y1="44" x2="990" y2="44"/>
<line x1="993" y1="47" x2="995" y2="49"/>
<line x1="993" y1="47" x2="993" y2="47"/>
<line x1="993" y1="46" x2="993" y2="47"/>
<line x1="995" y1="49" x2="997" y2="52"/>
<line x1="995" y1="49" x2="995" y2="49"/>
<line x1="995" y1="49" x2="995" y2="49"/>
<line x1="997" y1="52" x2="999" y2="55"/>
<line x1="997" y1="52" x2="997" y2="52"/>
<line x1="997" y1="52" x2="997" y2="52"/>
<line x1="999" y1="55" x2="1000" y2="58"/>
<line x1="999" y1="55" x2="999" y2="55"/>
<line x1="999" y1="55" x2="999" y2="55"/>
<line x1="1000" y1="59" x2="1000" y2="58"/>
<line x1="1000" y1="58" x2="1000" y2="58"/>
<line x1="1000" y1="58" x2="1000" y2="58"/>
<line x1="400" y1="90" x2="400" y2="90"/>
<line x1="458" y1="55" x2="458" y2="56"/>
<line x1="457" y1="55" x2="457" y2="55"/>
<line x1="457" y1="55" x2="457" y2="55"/>
<line x1="458" y1="55" x2="457" y2="55"/>
<line x1="461" y1="60" x2="460" y2="60"/>
<line x1="461" y1="61" x2="461" y2="61"/>
<line x1="461" y1="61" x2="461" y2="60"/>
<line x1="413" y1="90" x2="408" y2="90"/>
<line x1="416" y1="89" x2="413" y2="90"/>
<line x1="444" y1="83" x2="445" y2="82"/>
<line x1="444" y1="83" x2="444" y2="83"/>
<line x1="444" y1="83" x2="443" y2="83"/>
<line x1="454" y1="77" x2="456" y2="76"/>
<line x1="454" y1="77" x2="454" y2="77"/>
<line x1="453" y1="78" x2="454" y2="77"/>
<line x1="453" y1="78" x2="453" y2="78"/>
<line x1="441" y1="84" x2="443" y2="83"/>
<line x1="441" y1="84" x2="437" y2="85"/>
<line x1="443" y1="83" x2="443" y2="83"/>
<line x1="449" y1="81" x2="449" y2="81"/>
<line x1="447" y1="81" x2="449" y2="81"/>
<line x1="446" y1="82" x2="447" y2="81"/>
<line x1="446" y1="82" x2="445" y2="82"/>
<line x1="456" y1="54" x2="456" y2="54"/>
<line x1="456" y1="54" x2="456" y2="54"/>
<line x1="457" y1="54" x2="457" y2="55"/>
<line x1="457" y1="54" x2="456" y2="54"/>
<line x1="461" y1="69" x2="461" y2="69"/>
<line x1="461" y1="69" x2="461" y2="69"/>
<line x1="461" y1="69" x2="460" y2="70"/>
<line x1="451" y1="79" x2="453" y2="78"/>
<line x1="451" y1="79" x2="451" y2="79"/>
<line x1="450" y1="80" x2="451" y2="79"/>
<line x1="450" y1="80" x2="450" y2="80"/>
<line x1="450" y1="80" x2="450" y2="80"/>
<line x1="450" y1="80" x2="449" y2="80"/>
<line x1="449" y1="80" x2="449" y2="81"/>
<line x1="461" y1="61" x2="461" y2="61"/>
<line x1="461" y1="62" x2="461" y2="62"/>
<line x1="461" y1="61" x2="461" y2="61"/>
<line x1="461" y1="62" x2="461" y2="64"/>
<line x1="461" y1="62" x2="461" y2="61"/>
<line x1="459" y1="58" x2="459" y2="58"/>
<line x1="460" y1="58" x2="459" y2="58"/>
<line x1="460" y1="58" x2="460" y2="60"/>
<line x1="445" y1="47" x2="445" y2="47"/>
<line x1="444" y1="47" x2="443" y2="46"/>
<line x1="444" y1="47" x2="444" y2="47"/>
<line x1="445" y1="47" x2="444" y2="47"/>
<line x1="453" y1="52" x2="453" y2="52"/>
<line x1="454" y1="52" x2="453" y2="52"/>
<line x1="454" y1="52" x2="456" y2="54"/>
<line x1="458" y1="73" x2="459" y2="72"/>
<line x1="458" y1="74" x2="458" y2="73"/>
<line x1="458" y1="74" x2="458" y2="74"/>
<line x1="458" y1="74" x2="458" y2="74"/>
<line x1="426" y1="88" x2="431" y2="87"/>
<line x1="426" y1="88" x2="423" y2="88"/>
<line x1="405" y1="90" x2="400" y2="90"/>
<line x1="408" y1="90" x2="405" y2="90"/>
<line x1="458" y1="56" x2="458" y2="56"/>
<line x1="458" y1="56" x2="459" y2="58"/>
<line x1="458" y1="56" x2="458" y2="56"/>
<line x1="428" y1="42" x2="423" y2="41"/>
<line x1="428" y1="42" x2="431" y2="42"/>
<line x1="457" y1="75" x2="457" y2="75"/>
<line x1="456" y1="76" x2="457" y2="75"/>
<line x1="456" y1="76" x2="456" y2="76"/>
<line x1="458" y1="74" x2="458" y2="74"/>
<line x1="458" y1="74" x2="457" y2="75"/>
<line x1="457" y1="75" x2="457" y2="75"/>
<line x1="461" y1="65" x2="461" y2="65"/>
<line x1="461" y1="65" x2="461" y2="65"/>
<line x1="461" y1="64" x2="461" y2="65"/>
<line x1="461" y1="65" x2="461" y2="65"/>
<line x1="461" y1="67" x2="461" y2="65"/>
<line x1="461" y1="67" x2="461" y2="68"/>
<line x1="461" y1="68" x2="461" y2="68"/>
<line x1="461" y1="68" x2="461" y2="69"/>
<line x1="433" y1="86" x2="437" y2="85"/>
<line x1="431" y1="87" x2="433" y2="86"/>
<line x1="431" y1="87" x2="431" y2="87"/>
<line x1="450" y1="50" x2="451" y2="50"/>
<line x1="451" y1="50" x2="453" y2="52"/>
<line x1="450" y1="50" x2="450" y2="50"/>
<line x1="433" y1="43" x2="437" y2="44"/>
<line x1="433" y1="43" x2="431" y2="42"/>
<line x1="460" y1="71" x2="460" y2="70"/>
<line x1="460" y1="71" x2="460" y2="71"/>
<line x1="459" y1="72" x2="460" y2="71"/>
<line x1="459" y1="72" x2="459" y2="72"/>
<line x1="418" y1="89" x2="423" y2="88"/>
<line x1="417" y1="89" x2="418" y2="89"/>
<line x1="417" y1="89" x2="416" y2="89"/>
<line x1="450" y1="50" x2="450" y2="50"/>
<line x1="449" y1="49" x2="449" y2="49"/>
<line x1="449" y1="49" x2="449" y2="49"/>
<line x1="450" y1="50" x2="449" y2="49"/>
<line x1="445" y1="47" x2="446" y2="48"/>
<line x1="446" y1="48" x2="449" y2="49"/>
<line x1="445" y1="47" x2="445" y2="47"/>
<line x1="439" y1="45" x2="443" y2="46"/>
<line x1="438" y1="45" x2="439" y2="45"/>
<line x1="438" y1="44" x2="438" y2="45"/>
<line x1="438" y1="44" x2="437" y2="44"/>
<line x1="421" y1="41" x2="416" y2="40"/>
<line x1="421" y1="41" x2="423" y2="41"/>
</g></svg>