<svg xmlns="http://www.w3.org/2000/svg" width="1400" height="900" viewBox="0 0 1400 900">
<rect x="0" y="0" width="100%" height="100%" fill="white"/>
<g stroke="#111" stroke-width="1.2" fill="none" stroke-linecap="round">
<line x1="149" y1="722" x2="149" y2="722"/>
<line x1="149" y1="722" x2="149" y2="722"/>
<line x1="149" y1="722" x2="149" y2="722"/>
<line x1="150" y1="722" x2="149" y2="722"/>
<line x1="150" y1="722" x2="150" y2="722"/>
<line x1="150" y1="722" x2="150" y2="722"/>
<line x1="151" y1="722" x2="150" y2="722"/>
<line x1="117" y1="722" x2="117" y2="722"/>
<line x1="117" y1="722" x2="129" y2="722"/>
<line x1="129" y1="722" x2="129" y2="722"/>
<line x1="129" y1="722" x2="135" y2="722"/>
<line x1="135" y1="722" x2="135" y2="722"/>
<line x1="135" y1="722" x2="139" y2="722"/>
<line x1="139" y1="722" x2="139" y2="722"/>
<line x1="139" y1="722" x2="141" y2="722"/>
<line x1="141" y1="722" x2="141" y2="722"/>
<line x1="141" y1="722" x2="143" y2="722"/>
<line x1="143" y1="722" x2="143" y2="722"/>
<line x1="143" y1="722" x2="144" y2="722"/>
<line x1="144" y1="722" x2="144" y2="722"/>
<line x1="144" y1="722" x2="145" y2="722"/>
<line x1="145" y1="722" x2="145" y2="722"/>
<line x1="145" y1="722" x2="146" y2="722"/>
<line x1="146" y1="722" x2="146" y2="722"/>
<line x1="146" y1="722" x2="146" y2="722"/>
<line x1="146" y1="722" x2="146" y2="722"/>
<line x1="146" y1="722" x2="147" y2="722"/>
<line x1="147" y1="722" x2="147" y2="722"/>
<line x1="147" y1="722" x2="148" y2="722"/>
<line x1="148" y1="722" x2="148" y2="722"/>
<line x1="148" y1="722" x2="148" y2="722"/>
<line x1="148" y1="722" x2="148" y2="722"/>
<line x1="148" y1="722" x2="149" y2="722"/>
<line x1="100" y1="722" x2="117" y2="722"/>
<line x1="100" y1="695" x2="100" y2="722"/>
<line x1="100" y1="695" x2="100" y2="661"/>
<line x1="100" y1="603" x2="100" y2="661"/>
<line x1="100" y1="600" x2="100" y2="603"/>
<line x1="100" y1="509" x2="100" y2="600"/>
<line x1="100" y1="446" x2="100" y2="509"/>
<line x1="100" y1="446" x2="100" y2="139"/>
<line x1="1318" y1="669" x2="1318" y2="712"/>
<line x1="1318" y1="636" x2="1318" y2="669"/>
<line x1="1318" y1="636" x2="1318" y2="139"/>
<line x1="151" y1="723" x2="151" y2="722"/>
<line x1="151" y1="723" x2="151" y2="723"/>
<line x1="1298" y1="723" x2="1319" y2="723"/>
<line x1="940" y1="723" x2="937" y2="723"/>
<line x1="1298" y1="723" x2="1259" y2="723"/>
<line x1="1259" y1="723" x2="940" y2="723"/>
<line x1="151" y1="723" x2="157" y2="723"/>
<line x1="50" y1="723" x2="51" y2="723"/>
<line x1="51" y1="723" x2="55" y2="723"/>
<line x1="55" y1="723" x2="59" y2="723"/>
<line x1="59" y1="723" x2="63" y2="723"/>
<line x1="63" y1="723" x2="66" y2="723"/>
<line x1="66" y1="723" x2="69" y2="723"/>
<line x1="69" y1="723" x2="72" y2="723"/>
<line x1="72" y1="723" x2="75" y2="723"/>
<line x1="75" y1="723" x2="77" y2="723"/>
<line x1="77" y1="723" x2="79" y2="723"/>
<line x1="79" y1="723" x2="82" y2="723"/>
<line x1="82" y1="723" x2="84" y2="723"/>
<line x1="84" y1="723" x2="86" y2="723"/>
<line x1="86" y1="723" x2="87" y2="723"/>
<line x1="87" y1="723" x2="89" y2="723"/>
<line x1="89" y1="723" x2="91" y2="723"/>
<line x1="91" y1="723" x2="92" y2="723"/>
<line x1="92" y1="723" x2="94" y2="723"/>
<line x1="94" y1="723" x2="95" y2="723"/>
<line x1="95" y1="723" x2="97" y2="723"/>
<line x1="97" y1="723" x2="98" y2="723"/>
<line x1="98" y1="723" x2="99" y2="723"/>
<line x1="157" y1="723" x2="157" y2="723"/>
<line x1="157" y1="723" x2="165" y2="723"/>
<line x1="165" y1="723" x2="165" y2="723"/>
<line x1="165" y1="723" x2="171" y2="723"/>
<line x1="171" y1="723" x2="171" y2="723"/>
<line x1="171" y1="723" x2="176" y2="723"/>
<line x1="176" y1="723" x2="176" y2="723"/>
<line x1="176" y1="723" x2="180" y2="723"/>
<line x1="180" y1="723" x2="180" y2="723"/>
<line x1="180" y1="723" x2="184" y2="723"/>
<line x1="184" y1="723" x2="184" y2="723"/>
<line x1="306" y1="723" x2="330" y2="723"/>
<line x1="330" y1="723" x2="330" y2="723"/>
<line x1="330" y1="723" x2="354" y2="723"/>
<line x1="354" y1="723" x2="354" y2="723"/>
<line x1="354" y1="723" x2="377" y2="723"/>
<line x1="377" y1="723" x2="377" y2="723"/>
<line x1="377" y1="723" x2="399" y2="723"/>
<line x1="399" y1="723" x2="399" y2="723"/>
<line x1="399" y1="723" x2="421" y2="723"/>
<line x1="421" y1="723" x2="421" y2="723"/>
<line x1="421" y1="723" x2="442" y2="723"/>
<line x1="442" y1="723" x2="442" y2="723"/>
<line x1="442" y1="723" x2="462" y2="723"/>
<line x1="462" y1="723" x2="463" y2="723"/>
<line x1="463" y1="723" x2="482" y2="723"/>
<line x1="482" y1="723" x2="483" y2="723"/>
<line x1="483" y1="723" x2="502" y2="723"/>
<line x1="502" y1="723" x2="502" y2="723"/>
<line x1="502" y1="723" x2="521" y2="723"/>
<line x1="521" y1="723" x2="521" y2="723"/>
<line x1="521" y1="723" x2="539" y2="723"/>
<line x1="539" y1="723" x2="539" y2="723"/>
<line x1="539" y1="723" x2="557" y2="723"/>
<line x1="557" y1="723" x2="557" y2="723"/>
<line x1="557" y1="723" x2="574" y2="723"/>
<line x1="574" y1="723" x2="575" y2="723"/>
<line x1="575" y1="723" x2="592" y2="723"/>
<line x1="592" y1="723" x2="592" y2="723"/>
<line x1="592" y1="723" x2="608" y2="723"/>
<line x1="608" y1="723" x2="608" y2="723"/>
<line x1="608" y1="723" x2="625" y2="723"/>
<line x1="625" y1="723" x2="625" y2="723"/>
<line x1="625" y1="723" x2="641" y2="723"/>
<line x1="641" y1="723" x2="641" y2="723"/>
<line x1="641" y1="723" x2="656" y2="723"/>
<line x1="656" y1="723" x2="657" y2="723"/>
<line x1="657" y1="723" x2="672" y2="723"/>
<line x1="672" y1="723" x2="672" y2="723"/>
<line x1="672" y1="723" x2="687" y2="723"/>
<line x1="687" y1="723" x2="687" y2="723"/>
<line x1="687" y1="723" x2="702" y2="723"/>
<line x1="702" y1="723" x2="702" y2="723"/>
<line x1="702" y1="723" x2="716" y2="723"/>
<line x1="716" y1="723" x2="717" y2="723"/>
<line x1="717" y1="723" x2="731" y2="723"/>
<line x1="731" y1="723" x2="731" y2="723"/>
<line x1="731" y1="723" x2="745" y2="723"/>
<line x1="745" y1="723" x2="745" y2="723"/>
<line x1="745" y1="723" x2="759" y2="723"/>
<line x1="759" y1="723" x2="759" y2="723"/>
<line x1="759" y1="723" x2="772" y2="723"/>
<line x1="772" y1="723" x2="772" y2="723"/>
<line x1="772" y1="723" x2="786" y2="723"/>
<line x1="786" y1="723" x2="786" y2="723"/>
<line x1="786" y1="723" x2="799" y2="723"/>
<line x1="799" y1="723" x2="799" y2="723"/>
<line x1="799" y1="723" x2="812" y2="723"/>
<line x1="812" y1="723" x2="812" y2="723"/>
<line x1="812" y1="723" x2="825" y2="723"/>
<line x1="825" y1="723" x2="825" y2="723"/>
<line x1="825" y1="723" x2="838" y2="723"/>
<line x1="838" y1="723" x2="838" y2="723"/>
<line x1="838" y1="723" x2="850" y2="723"/>
<line x1="850" y1="723" x2="850" y2="723"/>
<line x1="850" y1="723" x2="863" y2="723"/>
<line x1="863" y1="723" x2="863" y2="723"/>
<line x1="863" y1="723" x2="875" y2="723"/>
<line x1="875" y1="723" x2="875" y2="723"/>
<line x1="875" y1="723" x2="887" y2="723"/>
<line x1="887" y1="723" x2="887" y2="723"/>
<line x1="887" y1="723" x2="899" y2="723"/>
<line x1="899" y1="723" x2="899" y2="723"/>
<line x1="899" y1="723" x2="911" y2="723"/>
<line x1="911" y1="723" x2="911" y2="723"/>
<line x1="937" y1="723" x2="911" y2="723"/>
<line x1="306" y1="723" x2="184" y2="723"/>
<line x1="41" y1="761" x2="40" y2="761"/>
<line x1="41" y1="761" x2="49" y2="761"/>
<line x1="49" y1="761" x2="49" y2="761"/>
<line x1="49" y1="761" x2="63" y2="761"/>
<line x1="63" y1="761" x2="64" y2="761"/>
<line x1="64" y1="761" x2="74" y2="761"/>
<line x1="74" y1="761" x2="74" y2="761"/>
<line x1="74" y1="761" x2="82" y2="761"/>
<line x1="82" y1="761" x2="83" y2="761"/>
<line x1="83" y1="761" x2="89" y2="761"/>
<line x1="89" y1="761" x2="89" y2="761"/>
<line x1="89" y1="761" x2="95" y2="761"/>
<line x1="199" y1="761" x2="95" y2="761"/>
<line x1="199" y1="761" x2="199" y2="761"/>
<line x1="199" y1="761" x2="222" y2="761"/>
<line x1="222" y1="761" x2="222" y2="761"/>
<line x1="222" y1="761" x2="243" y2="761"/>
<line x1="243" y1="761" x2="244" y2="761"/>
<line x1="244" y1="761" x2="264" y2="761"/>
<line x1="264" y1="761" x2="264" y2="761"/>
<line x1="264" y1="761" x2="283" y2="761"/>
<line x1="283" y1="761" x2="284" y2="761"/>
<line x1="284" y1="761" x2="302" y2="761"/>
<line x1="302" y1="761" x2="302" y2="761"/>
<line x1="302" y1="761" x2="319" y2="761"/>
<line x1="319" y1="761" x2="320" y2="761"/>
<line x1="320" y1="761" x2="336" y2="761"/>
<line x1="336" y1="761" x2="337" y2="761"/>
<line x1="337" y1="761" x2="352" y2="761"/>
<line x1="352" y1="761" x2="353" y2="761"/>
<line x1="353" y1="761" x2="368" y2="761"/>
<line x1="368" y1="761" x2="368" y2="761"/>
<line x1="368" y1="761" x2="383" y2="761"/>
<line x1="383" y1="761" x2="383" y2="761"/>
<line x1="383" y1="761" x2="397" y2="761"/>
<line x1="397" y1="761" x2="397" y2="761"/>
<line x1="397" y1="761" x2="411" y2="761"/>
<line x1="411" y1="761" x2="411" y2="761"/>
<line x1="411" y1="761" x2="424" y2="761"/>
<line x1="424" y1="761" x2="424" y2="761"/>
<line x1="424" y1="761" x2="437" y2="761"/>
<line x1="437" y1="761" x2="437" y2="761"/>
<line x1="437" y1="761" x2="449" y2="761"/>
<line x1="449" y1="761" x2="449" y2="761"/>
<line x1="449" y1="761" x2="461" y2="761"/>
<line x1="461" y1="761" x2="461" y2="761"/>
<line x1="461" y1="761" x2="1113" y2="761"/>
<line x1="1282" y1="761" x2="1113" y2="761"/>
<line x1="1284" y1="761" x2="1282" y2="761"/>
<line x1="1286" y1="761" x2="1284" y2="761"/>
<line x1="1289" y1="761" x2="1286" y2="761"/>
<line x1="1291" y1="761" x2="1289" y2="761"/>
<line x1="1294" y1="761" x2="1291" y2="761"/>
<line x1="1296" y1="761" x2="1294" y2="761"/>
<line x1="1299" y1="761" x2="1296" y2="761"/>
<line x1="1302" y1="761" x2="1299" y2="761"/>
<line x1="1305" y1="761" x2="1302" y2="761"/>
<line x1="1308" y1="761" x2="1305" y2="761"/>
<line x1="1311" y1="761" x2="1308" y2="761"/>
<line x1="1314" y1="761" x2="1311" y2="761"/>
<line x1="1317" y1="761" x2="1314" y2="761"/>
<line x1="1321" y1="761" x2="1317" y2="761"/>
<line x1="1324" y1="761" x2="1321" y2="761"/>
<line x1="1328" y1="761" x2="1324" y2="761"/>
<line x1="1358" y1="761" x2="1328" y2="761"/>
<line x1="77" y1="139" x2="97" y2="139"/>
<line x1="98" y1="139" x2="97" y2="139"/>
<line x1="100" y1="139" x2="98" y2="139"/>
<line x1="1335" y1="139" x2="1318" y2="139"/>
<line x1="1335" y1="139" x2="1355" y2="139"/>
<line x1="40" y1="139" x2="44" y2="139"/>
<line x1="44" y1="139" x2="44" y2="139"/>
<line x1="40" y1="139" x2="40" y2="139"/>
<line x1="44" y1="139" x2="49" y2="139"/>
<line x1="49" y1="139" x2="49" y2="139"/>
<line x1="62" y1="139" x2="49" y2="139"/>
<line x1="40" y1="622" x2="40" y2="139"/>
<line x1="40" y1="622" x2="40" y2="761"/>
<line x1="1360" y1="587" x2="1360" y2="177"/>
<line x1="1360" y1="739" x2="1360" y2="751"/>
<line x1="1360" y1="667" x2="1360" y2="739"/>
<line x1="1360" y1="587" x2="1360" y2="667"/>
<line x1="91" y1="691" x2="91" y2="690"/>
<line x1="91" y1="691" x2="92" y2="691"/>
<line x1="96" y1="692" x2="92" y2="691"/>
<line x1="96" y1="692" x2="97" y2="692"/>
<line x1="67" y1="688" x2="67" y2="688"/>
<line x1="67" y1="688" x2="68" y2="688"/>
<line x1="71" y1="688" x2="68" y2="688"/>
<line x1="71" y1="688" x2="72" y2="688"/>
<line x1="72" y1="688" x2="73" y2="688"/>
<line x1="85" y1="689" x2="85" y2="689"/>
<line x1="85" y1="689" x2="86" y2="689"/>
<line x1="90" y1="690" x2="86" y2="689"/>
<line x1="85" y1="689" x2="85" y2="689"/>
<line x1="90" y1="690" x2="91" y2="690"/>
<line x1="91" y1="690" x2="91" y2="690"/>
<line x1="73" y1="688" x2="73" y2="688"/>
<line x1="73" y1="688" x2="75" y2="688"/>
<line x1="78" y1="688" x2="75" y2="688"/>
<line x1="78" y1="688" x2="79" y2="688"/>
<line x1="79" y1="688" x2="79" y2="688"/>
<line x1="97" y1="693" x2="97" y2="693"/>
<line x1="97" y1="693" x2="97" y2="693"/>
<line x1="97" y1="693" x2="99" y2="694"/>
<line x1="97" y1="693" x2="97" y2="692"/>
<line x1="62" y1="689" x2="60" y2="689"/>
<line x1="62" y1="689" x2="63" y2="689"/>
<line x1="65" y1="688" x2="63" y2="689"/>
<line x1="65" y1="688" x2="67" y2="688"/>
<line x1="73" y1="688" x2="73" y2="688"/>
<line x1="51" y1="692" x2="50" y2="692"/>
<line x1="51" y1="692" x2="51" y2="692"/>
<line x1="53" y1="691" x2="54" y2="691"/>
<line x1="51" y1="692" x2="53" y2="691"/>
<line x1="54" y1="691" x2="55" y2="690"/>
<line x1="80" y1="688" x2="79" y2="688"/>
<line x1="80" y1="688" x2="81" y2="688"/>
<line x1="84" y1="689" x2="81" y2="688"/>
<line x1="84" y1="689" x2="85" y2="689"/>
<line x1="85" y1="689" x2="85" y2="689"/>
<line x1="85" y1="689" x2="85" y2="689"/>
<line x1="55" y1="690" x2="55" y2="690"/>
<line x1="55" y1="690" x2="57" y2="690"/>
<line x1="58" y1="690" x2="57" y2="690"/>
<line x1="58" y1="690" x2="60" y2="689"/>
<line x1="60" y1="689" x2="60" y2="689"/>
<line x1="50" y1="692" x2="50" y2="713"/>
<line x1="50" y1="713" x2="50" y2="723"/>
<line x1="50" y1="692" x2="50" y2="692"/>
<line x1="99" y1="722" x2="99" y2="694"/>
<line x1="99" y1="722" x2="99" y2="722"/>
<line x1="99" y1="722" x2="99" y2="723"/>
<line x1="1319" y1="719" x2="1319" y2="718"/>
<line x1="1319" y1="719" x2="1319" y2="721"/>
<line x1="1318" y1="714" x2="1318" y2="714"/>
<line x1="1318" y1="714" x2="1318" y2="715"/>
<line x1="1319" y1="721" x2="1319" y2="721"/>
<line x1="1319" y1="721" x2="1319" y2="722"/>
<line x1="1319" y1="716" x2="1318" y2="715"/>
<line x1="1319" y1="716" x2="1319" y2="718"/>
<line x1="1319" y1="723" x2="1319" y2="722"/>
<line x1="1319" y1="723" x2="1319" y2="723"/>
<line x1="1319" y1="723" x2="1319" y2="723"/>
<line x1="1318" y1="714" x2="1318" y2="712"/>
<line x1="1360" y1="751" x2="1359" y2="752"/>
<line x1="1360" y1="751" x2="1360" y2="751"/>
<line x1="1359" y1="753" x2="1358" y2="757"/>
<line x1="1359" y1="753" x2="1359" y2="752"/>
<line x1="1358" y1="757" x2="1358" y2="758"/>
<line x1="1358" y1="758" x2="1358" y2="761"/>
<line x1="1360" y1="751" x2="1360" y2="751"/>
<line x1="43" y1="162" x2="43" y2="162"/>
<line x1="43" y1="162" x2="43" y2="161"/>
<line x1="43" y1="160" x2="43" y2="161"/>
<line x1="43" y1="160" x2="42" y2="159"/>
<line x1="44" y1="163" x2="44" y2="164"/>
<line x1="43" y1="162" x2="43" y2="162"/>
<line x1="43" y1="162" x2="44" y2="163"/>
<line x1="45" y1="165" x2="46" y2="166"/>
<line x1="44" y1="165" x2="44" y2="164"/>
<line x1="44" y1="165" x2="45" y2="165"/>
<line x1="47" y1="167" x2="48" y2="169"/>
<line x1="46" y1="167" x2="46" y2="166"/>
<line x1="46" y1="167" x2="47" y2="167"/>
<line x1="49" y1="169" x2="50" y2="170"/>
<line x1="48" y1="169" x2="48" y2="169"/>
<line x1="48" y1="169" x2="49" y2="169"/>
<line x1="51" y1="171" x2="53" y2="172"/>
<line x1="51" y1="171" x2="50" y2="170"/>
<line x1="51" y1="171" x2="51" y2="171"/>
<line x1="54" y1="173" x2="56" y2="173"/>
<line x1="54" y1="172" x2="53" y2="172"/>
<line x1="54" y1="172" x2="54" y2="173"/>
<line x1="58" y1="174" x2="59" y2="175"/>
<line x1="57" y1="174" x2="56" y2="173"/>
<line x1="57" y1="174" x2="58" y2="174"/>
<line x1="61" y1="175" x2="62" y2="175"/>
<line x1="60" y1="175" x2="59" y2="175"/>
<line x1="60" y1="175" x2="61" y2="175"/>
<line x1="64" y1="176" x2="66" y2="176"/>
<line x1="64" y1="176" x2="62" y2="175"/>
<line x1="64" y1="176" x2="64" y2="176"/>
<line x1="68" y1="176" x2="70" y2="176"/>
<line x1="67" y1="176" x2="66" y2="176"/>
<line x1="67" y1="176" x2="68" y2="176"/>
<line x1="72" y1="176" x2="73" y2="176"/>
<line x1="71" y1="176" x2="70" y2="176"/>
<line x1="71" y1="176" x2="72" y2="176"/>
<line x1="75" y1="176" x2="77" y2="175"/>
<line x1="75" y1="176" x2="73" y2="176"/>
<line x1="75" y1="176" x2="75" y2="176"/>
<line x1="79" y1="175" x2="80" y2="175"/>
<line x1="78" y1="175" x2="77" y2="175"/>
<line x1="78" y1="175" x2="79" y2="175"/>
<line x1="82" y1="174" x2="83" y2="173"/>
<line x1="82" y1="174" x2="80" y2="175"/>
<line x1="82" y1="174" x2="82" y2="174"/>
<line x1="85" y1="173" x2="86" y2="172"/>
<line x1="85" y1="173" x2="83" y2="173"/>
<line x1="85" y1="173" x2="85" y2="173"/>
<line x1="88" y1="171" x2="89" y2="170"/>
<line x1="88" y1="171" x2="88" y2="171"/>
<line x1="87" y1="172" x2="86" y2="172"/>
<line x1="87" y1="172" x2="88" y2="171"/>
<line x1="91" y1="169" x2="91" y2="169"/>
<line x1="91" y1="169" x2="91" y2="169"/>
<line x1="89" y1="170" x2="91" y2="169"/>
<line x1="89" y1="170" x2="89" y2="170"/>
<line x1="93" y1="167" x2="93" y2="166"/>
<line x1="93" y1="167" x2="93" y2="167"/>
<line x1="92" y1="168" x2="93" y2="167"/>
<line x1="92" y1="168" x2="91" y2="169"/>
<line x1="95" y1="165" x2="95" y2="164"/>
<line x1="95" y1="165" x2="94" y2="165"/>
<line x1="94" y1="166" x2="94" y2="165"/>
<line x1="94" y1="166" x2="93" y2="166"/>
<line x1="96" y1="162" x2="96" y2="162"/>
<line x1="96" y1="162" x2="96" y2="163"/>
<line x1="95" y1="164" x2="96" y2="163"/>
<line x1="95" y1="164" x2="95" y2="164"/>
<line x1="97" y1="160" x2="97" y2="159"/>
<line x1="97" y1="160" x2="97" y2="160"/>
<line x1="96" y1="162" x2="97" y2="160"/>
<line x1="96" y1="162" x2="96" y2="162"/>
<line x1="97" y1="157" x2="97" y2="157"/>
<line x1="97" y1="157" x2="97" y2="158"/>
<line x1="97" y1="159" x2="97" y2="158"/>
<line x1="97" y1="159" x2="97" y2="159"/>
<line x1="97" y1="155" x2="97" y2="154"/>
<line x1="97" y1="156" x2="97" y2="157"/>
<line x1="97" y1="156" x2="97" y2="155"/>
<line x1="96" y1="153" x2="96" y2="152"/>
<line x1="97" y1="153" x2="97" y2="154"/>
<line x1="97" y1="153" x2="96" y2="153"/>
<line x1="95" y1="151" x2="95" y2="150"/>
<line x1="96" y1="151" x2="96" y2="152"/>
<line x1="96" y1="151" x2="95" y2="151"/>
<line x1="94" y1="148" x2="93" y2="147"/>
<line x1="94" y1="149" x2="95" y2="150"/>
<line x1="94" y1="149" x2="94" y2="148"/>
<line x1="92" y1="146" x2="91" y2="145"/>
<line x1="92" y1="146" x2="93" y2="147"/>
<line x1="92" y1="146" x2="92" y2="146"/>
<line x1="90" y1="144" x2="89" y2="143"/>
<line x1="90" y1="144" x2="91" y2="145"/>
<line x1="90" y1="144" x2="90" y2="144"/>
<line x1="87" y1="142" x2="86" y2="142"/>
<line x1="88" y1="143" x2="87" y2="142"/>
<line x1="88" y1="143" x2="89" y2="143"/>
<line x1="85" y1="141" x2="83" y2="140"/>
<line x1="86" y1="142" x2="86" y2="142"/>
<line x1="86" y1="142" x2="85" y2="141"/>
<line x1="81" y1="140" x2="80" y2="139"/>
<line x1="83" y1="140" x2="83" y2="140"/>
<line x1="83" y1="140" x2="81" y2="140"/>
<line x1="78" y1="139" x2="77" y2="139"/>
<line x1="79" y1="139" x2="78" y2="139"/>
<line x1="79" y1="139" x2="80" y2="139"/>
<line x1="61" y1="139" x2="59" y2="139"/>
<line x1="62" y1="139" x2="62" y2="139"/>
<line x1="62" y1="139" x2="61" y2="139"/>
<line x1="57" y1="140" x2="56" y2="140"/>
<line x1="58" y1="140" x2="59" y2="139"/>
<line x1="58" y1="140" x2="57" y2="140"/>
<line x1="54" y1="141" x2="53" y2="142"/>
<line x1="55" y1="141" x2="56" y2="140"/>
<line x1="55" y1="141" x2="54" y2="141"/>
<line x1="51" y1="143" x2="50" y2="143"/>
<line x1="52" y1="142" x2="53" y2="142"/>
<line x1="52" y1="142" x2="51" y2="143"/>
<line x1="49" y1="144" x2="48" y2="145"/>
<line x1="49" y1="144" x2="49" y2="144"/>
<line x1="49" y1="144" x2="50" y2="143"/>
<line x1="47" y1="146" x2="46" y2="147"/>
<line x1="47" y1="146" x2="47" y2="146"/>
<line x1="47" y1="146" x2="48" y2="145"/>
<line x1="45" y1="149" x2="44" y2="150"/>
<line x1="45" y1="148" x2="45" y2="149"/>
<line x1="45" y1="148" x2="46" y2="147"/>
<line x1="44" y1="151" x2="43" y2="152"/>
<line x1="44" y1="151" x2="44" y2="151"/>
<line x1="44" y1="150" x2="44" y2="151"/>
<line x1="44" y1="150" x2="44" y2="150"/>
<line x1="43" y1="153" x2="42" y2="154"/>
<line x1="43" y1="153" x2="43" y2="153"/>
<line x1="43" y1="152" x2="43" y2="153"/>
<line x1="43" y1="152" x2="43" y2="152"/>
<line x1="42" y1="156" x2="42" y2="157"/>
<line x1="42" y1="156" x2="42" y2="156"/>
<line x1="42" y1="155" x2="42" y2="156"/>
<line x1="42" y1="155" x2="42" y2="154"/>
<line x1="42" y1="159" x2="42" y2="159"/>
<line x1="42" y1="159" x2="42" y2="158"/>
<line x1="42" y1="158" x2="42" y2="158"/>
<line x1="42" y1="158" x2="42" y2="157"/>
<line x1="1360" y1="177" x2="1360" y2="177"/>
<line x1="1341" y1="151" x2="1341" y2="151"/>
<line x1="1341" y1="150" x2="1341" y2="150"/>
<line x1="1341" y1="150" x2="1341" y2="150"/>
<line x1="1341" y1="151" x2="1341" y2="150"/>
<line x1="1340" y1="153" x2="1340" y2="153"/>
<line x1="1340" y1="154" x2="1340" y2="154"/>
<line x1="1340" y1="154" x2="1340" y2="153"/>
<line x1="1356" y1="177" x2="1357" y2="177"/>
<line x1="1355" y1="176" x2="1356" y2="177"/>
<line x1="1345" y1="171" x2="1345" y2="170"/>
<line x1="1345" y1="171" x2="1345" y2="171"/>
<line x1="1345" y1="171" x2="1346" y2="171"/>
<line x1="1342" y1="167" x2="1342" y2="166"/>
<line x1="1342" y1="167" x2="1342" y2="167"/>
<line x1="1342" y1="167" x2="1342" y2="167"/>
<line x1="1342" y1="167" x2="1342" y2="167"/>
<line x1="1347" y1="172" x2="1346" y2="171"/>
<line x1="1347" y1="172" x2="1348" y2="173"/>
<line x1="1346" y1="171" x2="1346" y2="171"/>
<line x1="1344" y1="169" x2="1344" y2="169"/>
<line x1="1344" y1="170" x2="1344" y2="169"/>
<line x1="1344" y1="170" x2="1344" y2="170"/>
<line x1="1344" y1="170" x2="1345" y2="170"/>
<line x1="1342" y1="148" x2="1342" y2="148"/>
<line x1="1342" y1="149" x2="1342" y2="148"/>
<line x1="1341" y1="150" x2="1341" y2="150"/>
<line x1="1341" y1="150" x2="1342" y2="149"/>
<line x1="1340" y1="161" x2="1340" y2="161"/>
<line x1="1340" y1="161" x2="1340" y2="160"/>
<line x1="1340" y1="161" x2="1340" y2="162"/>
<line x1="1343" y1="168" x2="1342" y2="167"/>
<line x1="1343" y1="168" x2="1343" y2="168"/>
<line x1="1343" y1="168" x2="1343" y2="168"/>
<line x1="1343" y1="168" x2="1343" y2="168"/>
<line x1="1343" y1="169" x2="1343" y2="168"/>
<line x1="1343" y1="169" x2="1344" y2="169"/>
<line x1="1344" y1="169" x2="1344" y2="169"/>
<line x1="1340" y1="155" x2="1340" y2="154"/>
<line x1="1340" y1="156" x2="1340" y2="156"/>
<line x1="1340" y1="155" x2="1340" y2="155"/>
<line x1="1340" y1="156" x2="1340" y2="157"/>
<line x1="1340" y1="156" x2="1340" y2="155"/>
<line x1="1340" y1="152" x2="1340" y2="152"/>
<line x1="1340" y1="152" x2="1340" y2="152"/>
<line x1="1340" y1="152" x2="1340" y2="153"/>
<line x1="1345" y1="145" x2="1345" y2="145"/>
<line x1="1345" y1="144" x2="1346" y2="143"/>
<line x1="1345" y1="144" x2="1345" y2="144"/>
<line x1="1345" y1="145" x2="1345" y2="144"/>
<line x1="1342" y1="148" x2="1342" y2="147"/>
<line x1="1342" y1="148" x2="1342" y2="148"/>
<line x1="1342" y1="148" x2="1342" y2="148"/>
<line x1="1341" y1="163" x2="1340" y2="163"/>
<line x1="1341" y1="164" x2="1341" y2="163"/>
<line x1="1341" y1="164" x2="1341" y2="164"/>
<line x1="1341" y1="164" x2="1341" y2="164"/>
<line x1="1351" y1="175" x2="1350" y2="174"/>
<line x1="1351" y1="175" x2="1352" y2="175"/>
<line x1="1359" y1="177" x2="1360" y2="177"/>
<line x1="1357" y1="177" x2="1359" y2="177"/>
<line x1="1341" y1="151" x2="1341" y2="151"/>
<line x1="1341" y1="151" x2="1340" y2="152"/>
<line x1="1341" y1="151" x2="1341" y2="151"/>
<line x1="1351" y1="140" x2="1352" y2="139"/>
<line x1="1351" y1="140" x2="1350" y2="140"/>
<line x1="1341" y1="165" x2="1341" y2="165"/>
<line x1="1342" y1="166" x2="1341" y2="165"/>
<line x1="1342" y1="166" x2="1342" y2="166"/>
<line x1="1341" y1="164" x2="1341" y2="164"/>
<line x1="1341" y1="164" x2="1341" y2="165"/>
<line x1="1341" y1="165" x2="1341" y2="165"/>
<line x1="1340" y1="158" x2="1340" y2="158"/>
<line x1="1340" y1="158" x2="1340" y2="158"/>
<line x1="1340" y1="157" x2="1340" y2="158"/>
<line x1="1340" y1="158" x2="1340" y2="158"/>
<line x1="1340" y1="158" x2="1340" y2="158"/>
<line x1="1340" y1="158" x2="1340" y2="160"/>
<line x1="1340" y1="160" x2="1340" y2="160"/>
<line x1="1340" y1="160" x2="1340" y2="160"/>
<line x1="1348" y1="173" x2="1348" y2="173"/>
<line x1="1350" y1="174" x2="1348" y2="173"/>
<line x1="1350" y1="174" x2="1350" y2="174"/>
<line x1="1343" y1="147" x2="1343" y2="147"/>
<line x1="1343" y1="147" x2="1342" y2="147"/>
<line x1="1343" y1="147" x2="1343" y2="147"/>
<line x1="1348" y1="141" x2="1348" y2="142"/>
<line x1="1348" y1="141" x2="1350" y2="140"/>
<line x1="1340" y1="162" x2="1340" y2="162"/>
<line x1="1340" y1="163" x2="1340" y2="162"/>
<line x1="1340" y1="163" x2="1340" y2="163"/>
<line x1="1340" y1="163" x2="1340" y2="163"/>
<line x1="1353" y1="176" x2="1352" y2="175"/>
<line x1="1354" y1="176" x2="1353" y2="176"/>
<line x1="1354" y1="176" x2="1355" y2="176"/>
<line x1="1343" y1="147" x2="1343" y2="147"/>
<line x1="1344" y1="146" x2="1344" y2="145"/>
<line x1="1343" y1="146" x2="1344" y2="146"/>
<line x1="1343" y1="147" x2="1343" y2="146"/>
<line x1="1344" y1="145" x2="1344" y2="145"/>
<line x1="1344" y1="145" x2="1344" y2="145"/>
<line x1="1344" y1="145" x2="1345" y2="145"/>
<line x1="1346" y1="143" x2="1346" y2="143"/>
<line x1="1347" y1="142" x2="1346" y2="143"/>
<line x1="1347" y1="142" x2="1347" y2="142"/>
<line x1="1347" y1="142" x2="1348" y2="142"/>
<line x1="1354" y1="139" x2="1355" y2="139"/>
<line x1="1354" y1="139" x2="1352" y2="139"/>
</g></svg>