<svg xmlns="http://www.w3.org/2000/svg" width="1400" height="900" viewBox="0 0 1400 900">
<rect x="0" y="0" width="100%" height="100%" fill="white"/>
<g stroke="#111" stroke-width="1.2" fill="none" stroke-linecap="round">
<line x1="710" y1="809" x2="732" y2="809"/>
<line x1="790" y1="601" x2="790" y2="770"/>
<line x1="790" y1="601" x2="790" y2="40"/>
<line x1="710" y1="78" x2="710" y2="40"/>
<line x1="710" y1="81" x2="710" y2="78"/>
<line x1="710" y1="82" x2="710" y2="81"/>
<line x1="710" y1="83" x2="710" y2="82"/>
<line x1="710" y1="83" x2="710" y2="809"/>
<line x1="840" y1="809" x2="838" y2="809"/>
<line x1="838" y1="809" x2="835" y2="809"/>
<line x1="835" y1="809" x2="832" y2="809"/>
<line x1="832" y1="809" x2="830" y2="809"/>
<line x1="830" y1="809" x2="827" y2="809"/>
<line x1="827" y1="809" x2="825" y2="809"/>
<line x1="825" y1="809" x2="822" y2="809"/>
<line x1="822" y1="809" x2="820" y2="809"/>
<line x1="820" y1="809" x2="818" y2="809"/>
<line x1="818" y1="809" x2="816" y2="809"/>
<line x1="816" y1="809" x2="814" y2="809"/>
<line x1="814" y1="809" x2="812" y2="809"/>
<line x1="812" y1="809" x2="811" y2="809"/>
<line x1="811" y1="809" x2="809" y2="809"/>
<line x1="809" y1="809" x2="808" y2="809"/>
<line x1="808" y1="809" x2="806" y2="809"/>
<line x1="806" y1="809" x2="805" y2="809"/>
<line x1="805" y1="809" x2="803" y2="809"/>
<line x1="803" y1="809" x2="802" y2="809"/>
<line x1="802" y1="809" x2="732" y2="809"/>
<line x1="780" y1="860" x2="550" y2="860"/>
<line x1="780" y1="860" x2="785" y2="860"/>
<line x1="785" y1="860" x2="785" y2="860"/>
<line x1="785" y1="860" x2="793" y2="860"/>
<line x1="793" y1="860" x2="794" y2="860"/>
<line x1="794" y1="860" x2="806" y2="860"/>
<line x1="806" y1="860" x2="806" y2="860"/>
<line x1="806" y1="860" x2="826" y2="860"/>
<line x1="826" y1="860" x2="826" y2="860"/>
<line x1="826" y1="860" x2="850" y2="860"/>
<line x1="797" y1="40" x2="813" y2="40"/>
<line x1="797" y1="40" x2="792" y2="40"/>
<line x1="792" y1="40" x2="791" y2="40"/>
<line x1="791" y1="40" x2="790" y2="40"/>
<line x1="790" y1="40" x2="790" y2="40"/>
<line x1="579" y1="40" x2="710" y2="40"/>
<line x1="579" y1="40" x2="567" y2="40"/>
<line x1="844" y1="40" x2="850" y2="40"/>
<line x1="844" y1="40" x2="828" y2="40"/>
<line x1="850" y1="594" x2="850" y2="40"/>
<line x1="850" y1="594" x2="850" y2="860"/>
<line x1="550" y1="90" x2="550" y2="289"/>
<line x1="550" y1="299" x2="550" y2="860"/>
<line x1="550" y1="299" x2="550" y2="289"/>
<line x1="820" y1="765" x2="821" y2="765"/>
<line x1="820" y1="765" x2="817" y2="765"/>
<line x1="809" y1="766" x2="817" y2="765"/>
<line x1="809" y1="766" x2="807" y2="767"/>
<line x1="807" y1="767" x2="806" y2="767"/>
<line x1="804" y1="767" x2="805" y2="767"/>
<line x1="804" y1="767" x2="802" y2="767"/>
<line x1="805" y1="767" x2="806" y2="767"/>
<line x1="798" y1="768" x2="802" y2="767"/>
<line x1="798" y1="768" x2="797" y2="768"/>
<line x1="797" y1="768" x2="792" y2="769"/>
<line x1="732" y1="809" x2="732" y2="809"/>
<line x1="732" y1="809" x2="732" y2="809"/>
<line x1="806" y1="767" x2="806" y2="767"/>
<line x1="806" y1="767" x2="806" y2="767"/>
<line x1="832" y1="764" x2="836" y2="764"/>
<line x1="832" y1="764" x2="828" y2="764"/>
<line x1="824" y1="765" x2="828" y2="764"/>
<line x1="824" y1="765" x2="821" y2="765"/>
<line x1="837" y1="764" x2="840" y2="763"/>
<line x1="837" y1="764" x2="836" y2="764"/>
<line x1="792" y1="769" x2="792" y2="769"/>
<line x1="792" y1="769" x2="792" y2="769"/>
<line x1="791" y1="769" x2="792" y2="769"/>
<line x1="791" y1="769" x2="791" y2="769"/>
<line x1="791" y1="769" x2="790" y2="770"/>
<line x1="840" y1="784" x2="840" y2="809"/>
<line x1="840" y1="784" x2="840" y2="763"/>
<line x1="847" y1="70" x2="847" y2="69"/>
<line x1="847" y1="70" x2="847" y2="71"/>
<line x1="847" y1="69" x2="848" y2="67"/>
<line x1="847" y1="69" x2="847" y2="69"/>
<line x1="846" y1="73" x2="846" y2="74"/>
<line x1="846" y1="73" x2="846" y2="72"/>
<line x1="846" y1="72" x2="847" y2="71"/>
<line x1="846" y1="72" x2="846" y2="72"/>
<line x1="845" y1="76" x2="844" y2="77"/>
<line x1="845" y1="76" x2="845" y2="75"/>
<line x1="845" y1="75" x2="846" y2="74"/>
<line x1="843" y1="79" x2="842" y2="79"/>
<line x1="843" y1="79" x2="843" y2="78"/>
<line x1="843" y1="78" x2="844" y2="77"/>
<line x1="840" y1="81" x2="840" y2="82"/>
<line x1="840" y1="81" x2="841" y2="80"/>
<line x1="841" y1="80" x2="842" y2="79"/>
<line x1="838" y1="84" x2="839" y2="83"/>
<line x1="838" y1="84" x2="837" y2="84"/>
<line x1="839" y1="83" x2="840" y2="82"/>
<line x1="835" y1="85" x2="836" y2="85"/>
<line x1="835" y1="85" x2="834" y2="86"/>
<line x1="836" y1="85" x2="837" y2="84"/>
<line x1="832" y1="87" x2="833" y2="86"/>
<line x1="832" y1="87" x2="831" y2="87"/>
<line x1="833" y1="86" x2="834" y2="86"/>
<line x1="828" y1="88" x2="829" y2="88"/>
<line x1="828" y1="88" x2="828" y2="88"/>
<line x1="829" y1="88" x2="831" y2="87"/>
<line x1="825" y1="89" x2="826" y2="89"/>
<line x1="825" y1="89" x2="824" y2="89"/>
<line x1="826" y1="89" x2="828" y2="88"/>
<line x1="821" y1="89" x2="823" y2="89"/>
<line x1="821" y1="89" x2="821" y2="89"/>
<line x1="823" y1="89" x2="824" y2="89"/>
<line x1="818" y1="89" x2="819" y2="89"/>
<line x1="818" y1="89" x2="817" y2="89"/>
<line x1="819" y1="89" x2="821" y2="89"/>
<line x1="814" y1="88" x2="815" y2="89"/>
<line x1="814" y1="88" x2="814" y2="88"/>
<line x1="815" y1="89" x2="817" y2="89"/>
<line x1="811" y1="87" x2="812" y2="88"/>
<line x1="810" y1="87" x2="811" y2="87"/>
<line x1="812" y1="88" x2="814" y2="88"/>
<line x1="808" y1="86" x2="809" y2="87"/>
<line x1="808" y1="86" x2="807" y2="86"/>
<line x1="809" y1="87" x2="810" y2="87"/>
<line x1="805" y1="85" x2="806" y2="85"/>
<line x1="805" y1="85" x2="804" y2="84"/>
<line x1="806" y1="85" x2="807" y2="86"/>
<line x1="802" y1="83" x2="803" y2="83"/>
<line x1="802" y1="83" x2="801" y2="82"/>
<line x1="803" y1="83" x2="804" y2="84"/>
<line x1="803" y1="83" x2="803" y2="83"/>
<line x1="803" y1="83" x2="803" y2="83"/>
<line x1="800" y1="80" x2="800" y2="81"/>
<line x1="800" y1="80" x2="799" y2="79"/>
<line x1="801" y1="81" x2="801" y2="82"/>
<line x1="801" y1="81" x2="801" y2="81"/>
<line x1="801" y1="81" x2="800" y2="81"/>
<line x1="798" y1="78" x2="798" y2="78"/>
<line x1="798" y1="78" x2="797" y2="77"/>
<line x1="798" y1="78" x2="799" y2="79"/>
<line x1="798" y1="78" x2="798" y2="78"/>
<line x1="796" y1="75" x2="796" y2="75"/>
<line x1="796" y1="75" x2="796" y2="74"/>
<line x1="797" y1="76" x2="797" y2="77"/>
<line x1="796" y1="75" x2="797" y2="76"/>
<line x1="796" y1="75" x2="796" y2="75"/>
<line x1="796" y1="75" x2="796" y2="75"/>
<line x1="795" y1="72" x2="795" y2="72"/>
<line x1="795" y1="72" x2="794" y2="71"/>
<line x1="795" y1="72" x2="796" y2="74"/>
<line x1="795" y1="72" x2="795" y2="72"/>
<line x1="794" y1="68" x2="794" y2="69"/>
<line x1="794" y1="68" x2="794" y2="67"/>
<line x1="794" y1="69" x2="794" y2="71"/>
<line x1="794" y1="69" x2="794" y2="69"/>
<line x1="794" y1="69" x2="794" y2="69"/>
<line x1="794" y1="65" x2="794" y2="66"/>
<line x1="794" y1="65" x2="793" y2="64"/>
<line x1="794" y1="66" x2="794" y2="67"/>
<line x1="794" y1="66" x2="794" y2="66"/>
<line x1="794" y1="61" x2="794" y2="61"/>
<line x1="794" y1="61" x2="794" y2="63"/>
<line x1="793" y1="64" x2="794" y2="63"/>
<line x1="794" y1="58" x2="794" y2="58"/>
<line x1="794" y1="58" x2="794" y2="59"/>
<line x1="794" y1="61" x2="794" y2="61"/>
<line x1="794" y1="61" x2="794" y2="59"/>
<line x1="795" y1="55" x2="796" y2="55"/>
<line x1="795" y1="55" x2="795" y2="56"/>
<line x1="794" y1="58" x2="795" y2="56"/>
<line x1="797" y1="52" x2="797" y2="52"/>
<line x1="797" y1="52" x2="796" y2="53"/>
<line x1="796" y1="54" x2="796" y2="55"/>
<line x1="796" y1="54" x2="796" y2="53"/>
<line x1="799" y1="49" x2="799" y2="49"/>
<line x1="799" y1="49" x2="799" y2="49"/>
<line x1="799" y1="49" x2="798" y2="50"/>
<line x1="797" y1="52" x2="798" y2="50"/>
<line x1="801" y1="47" x2="801" y2="46"/>
<line x1="801" y1="47" x2="800" y2="48"/>
<line x1="799" y1="49" x2="800" y2="48"/>
<line x1="804" y1="45" x2="803" y2="45"/>
<line x1="804" y1="45" x2="804" y2="44"/>
<line x1="801" y1="46" x2="803" y2="45"/>
<line x1="806" y1="43" x2="807" y2="42"/>
<line x1="806" y1="43" x2="806" y2="43"/>
<line x1="806" y1="43" x2="804" y2="44"/>
<line x1="809" y1="42" x2="810" y2="41"/>
<line x1="809" y1="42" x2="809" y2="42"/>
<line x1="807" y1="42" x2="809" y2="42"/>
<line x1="812" y1="40" x2="813" y2="40"/>
<line x1="812" y1="40" x2="812" y2="40"/>
<line x1="812" y1="40" x2="810" y2="41"/>
<line x1="830" y1="41" x2="831" y2="41"/>
<line x1="830" y1="41" x2="829" y2="40"/>
<line x1="829" y1="40" x2="828" y2="40"/>
<line x1="833" y1="42" x2="834" y2="42"/>
<line x1="833" y1="42" x2="832" y2="42"/>
<line x1="832" y1="42" x2="831" y2="41"/>
<line x1="836" y1="44" x2="837" y2="44"/>
<line x1="836" y1="44" x2="836" y2="43"/>
<line x1="834" y1="42" x2="836" y2="43"/>
<line x1="839" y1="46" x2="840" y2="46"/>
<line x1="839" y1="46" x2="838" y2="45"/>
<line x1="837" y1="44" x2="838" y2="45"/>
<line x1="841" y1="48" x2="842" y2="49"/>
<line x1="841" y1="48" x2="841" y2="48"/>
<line x1="840" y1="46" x2="841" y2="48"/>
<line x1="844" y1="51" x2="844" y2="52"/>
<line x1="844" y1="51" x2="843" y2="50"/>
<line x1="843" y1="50" x2="842" y2="49"/>
<line x1="845" y1="54" x2="846" y2="55"/>
<line x1="845" y1="54" x2="845" y2="53"/>
<line x1="845" y1="53" x2="844" y2="52"/>
<line x1="847" y1="57" x2="847" y2="58"/>
<line x1="847" y1="57" x2="846" y2="56"/>
<line x1="846" y1="55" x2="846" y2="56"/>
<line x1="847" y1="60" x2="848" y2="61"/>
<line x1="847" y1="60" x2="847" y2="59"/>
<line x1="847" y1="58" x2="847" y2="59"/>
<line x1="847" y1="58" x2="847" y2="58"/>
<line x1="848" y1="63" x2="848" y2="64"/>
<line x1="848" y1="63" x2="848" y2="62"/>
<line x1="848" y1="61" x2="848" y2="62"/>
<line x1="848" y1="61" x2="848" y2="61"/>
<line x1="848" y1="67" x2="848" y2="66"/>
<line x1="848" y1="67" x2="848" y2="67"/>
<line x1="848" y1="65" x2="848" y2="64"/>
<line x1="848" y1="65" x2="848" y2="66"/>
<line x1="550" y1="90" x2="550" y2="90"/>
<line x1="607" y1="55" x2="608" y2="55"/>
<line x1="607" y1="55" x2="607" y2="55"/>
<line x1="607" y1="55" x2="607" y2="55"/>
<line x1="607" y1="55" x2="607" y2="55"/>
<line x1="611" y1="60" x2="611" y2="60"/>
<line x1="611" y1="61" x2="611" y2="61"/>
<line x1="611" y1="61" x2="611" y2="60"/>
<line x1="565" y1="90" x2="558" y2="90"/>
<line x1="566" y1="89" x2="565" y2="90"/>
<line x1="594" y1="83" x2="595" y2="83"/>
<line x1="594" y1="83" x2="594" y2="83"/>
<line x1="594" y1="83" x2="594" y2="83"/>
<line x1="605" y1="77" x2="607" y2="75"/>
<line x1="604" y1="77" x2="605" y2="77"/>
<line x1="604" y1="78" x2="604" y2="77"/>
<line x1="604" y1="78" x2="604" y2="78"/>
<line x1="593" y1="83" x2="594" y2="83"/>
<line x1="593" y1="83" x2="588" y2="85"/>
<line x1="594" y1="83" x2="594" y2="83"/>
<line x1="599" y1="81" x2="599" y2="81"/>
<line x1="597" y1="82" x2="599" y2="81"/>
<line x1="596" y1="82" x2="597" y2="82"/>
<line x1="596" y1="82" x2="595" y2="83"/>
<line x1="607" y1="54" x2="607" y2="54"/>
<line x1="607" y1="54" x2="607" y2="54"/>
<line x1="607" y1="54" x2="607" y2="55"/>
<line x1="607" y1="54" x2="607" y2="54"/>
<line x1="611" y1="69" x2="611" y2="69"/>
<line x1="611" y1="69" x2="611" y2="69"/>
<line x1="611" y1="69" x2="611" y2="69"/>
<line x1="601" y1="79" x2="604" y2="78"/>
<line x1="600" y1="80" x2="601" y2="79"/>
<line x1="600" y1="80" x2="600" y2="80"/>
<line x1="600" y1="80" x2="600" y2="80"/>
<line x1="600" y1="80" x2="600" y2="80"/>
<line x1="600" y1="80" x2="599" y2="80"/>
<line x1="599" y1="80" x2="599" y2="81"/>
<line x1="611" y1="61" x2="611" y2="61"/>
<line x1="611" y1="61" x2="611" y2="62"/>
<line x1="611" y1="61" x2="611" y2="61"/>
<line x1="611" y1="62" x2="612" y2="64"/>
<line x1="611" y1="61" x2="611" y2="61"/>
<line x1="610" y1="58" x2="610" y2="58"/>
<line x1="610" y1="58" x2="610" y2="58"/>
<line x1="610" y1="58" x2="611" y2="60"/>
<line x1="594" y1="47" x2="595" y2="47"/>
<line x1="594" y1="47" x2="594" y2="46"/>
<line x1="594" y1="47" x2="594" y2="47"/>
<line x1="594" y1="47" x2="594" y2="47"/>
<line x1="604" y1="52" x2="604" y2="52"/>
<line x1="604" y1="52" x2="604" y2="52"/>
<line x1="604" y1="52" x2="607" y2="54"/>
<line x1="608" y1="73" x2="610" y2="72"/>
<line x1="608" y1="74" x2="608" y2="73"/>
<line x1="608" y1="74" x2="608" y2="74"/>
<line x1="608" y1="74" x2="608" y2="74"/>
<line x1="575" y1="88" x2="581" y2="87"/>
<line x1="575" y1="88" x2="574" y2="88"/>
<line x1="557" y1="90" x2="550" y2="90"/>
<line x1="558" y1="90" x2="557" y2="90"/>
<line x1="608" y1="55" x2="608" y2="56"/>
<line x1="608" y1="56" x2="610" y2="58"/>
<line x1="608" y1="55" x2="608" y2="55"/>
<line x1="580" y1="42" x2="574" y2="41"/>
<line x1="580" y1="42" x2="581" y2="42"/>
<line x1="607" y1="75" x2="607" y2="75"/>
<line x1="607" y1="75" x2="607" y2="75"/>
<line x1="607" y1="75" x2="607" y2="75"/>
<line x1="607" y1="75" x2="608" y2="74"/>
<line x1="607" y1="75" x2="607" y2="75"/>
<line x1="607" y1="75" x2="607" y2="75"/>
<line x1="612" y1="64" x2="612" y2="64"/>
<line x1="612" y1="65" x2="612" y2="65"/>
<line x1="612" y1="64" x2="612" y2="64"/>
<line x1="612" y1="64" x2="612" y2="65"/>
<line x1="612" y1="67" x2="612" y2="65"/>
<line x1="612" y1="67" x2="611" y2="68"/>
<line x1="611" y1="68" x2="611" y2="68"/>
<line x1="611" y1="68" x2="611" y2="69"/>
<line x1="582" y1="87" x2="588" y2="85"/>
<line x1="581" y1="87" x2="582" y2="87"/>
<line x1="581" y1="87" x2="581" y2="87"/>
<line x1="600" y1="49" x2="601" y2="50"/>
<line x1="601" y1="50" x2="604" y2="52"/>
<line x1="600" y1="49" x2="600" y2="49"/>
<line x1="582" y1="43" x2="588" y2="44"/>
<line x1="582" y1="43" x2="581" y2="42"/>
<line x1="610" y1="71" x2="611" y2="69"/>
<line x1="610" y1="71" x2="610" y2="71"/>
<line x1="610" y1="72" x2="610" y2="71"/>
<line x1="610" y1="72" x2="610" y2="72"/>
<line x1="567" y1="89" x2="574" y2="88"/>
<line x1="567" y1="89" x2="567" y2="89"/>
<line x1="567" y1="89" x2="566" y2="89"/>
<line x1="600" y1="49" x2="600" y2="49"/>
<line x1="599" y1="49" x2="599" y2="49"/>
<line x1="599" y1="49" x2="599" y2="49"/>
<line x1="600" y1="49" x2="599" y2="49"/>
<line x1="595" y1="47" x2="596" y2="47"/>
<line x1="596" y1="47" x2="599" y2="49"/>
<line x1="595" y1="47" x2="595" y2="47"/>
<line x1="589" y1="45" x2="594" y2="46"/>
<line x1="588" y1="44" x2="589" y2="45"/>
<line x1="588" y1="44" x2="588" y2="44"/>
<line x1="588" y1="44" x2="588" y2="44"/>
<line x1="573" y1="41" x2="567" y2="40"/>
<line x1="573" y1="41" x2="574" y2="41"/>
</g></svg>