<svg xmlns="http://www.w3.org/2000/svg" width="1400" height="900" viewBox="0 0 1400 900">
<rect x="0" y="0" width="100%" height="100%" fill="white"/>
<g stroke="#111" stroke-width="1.2" fill="none" stroke-linecap="round">
<line x1="302" y1="809" x2="312" y2="809"/>
<line x1="312" y1="809" x2="312" y2="809"/>
<line x1="319" y1="809" x2="348" y2="809"/>
<line x1="349" y1="809" x2="349" y2="809"/>
<line x1="380" y1="809" x2="382" y2="809"/>
<line x1="383" y1="809" x2="383" y2="809"/>
<line x1="312" y1="809" x2="312" y2="809"/>
<line x1="312" y1="809" x2="312" y2="809"/>
<line x1="312" y1="809" x2="312" y2="809"/>
<line x1="319" y1="809" x2="312" y2="809"/>
<line x1="348" y1="809" x2="348" y2="809"/>
<line x1="349" y1="809" x2="348" y2="809"/>
<line x1="349" y1="809" x2="349" y2="809"/>
<line x1="380" y1="809" x2="349" y2="809"/>
<line x1="383" y1="809" x2="382" y2="809"/>
<line x1="383" y1="809" x2="383" y2="809"/>
<line x1="386" y1="809" x2="383" y2="809"/>
<line x1="1134" y1="809" x2="1129" y2="809"/>
<line x1="302" y1="245" x2="302" y2="809"/>
<line x1="302" y1="245" x2="302" y2="40"/>
<line x1="1134" y1="389" x2="1134" y2="40"/>
<line x1="1134" y1="414" x2="1134" y2="389"/>
<line x1="1134" y1="424" x2="1134" y2="414"/>
<line x1="1134" y1="433" x2="1134" y2="424"/>
<line x1="1134" y1="433" x2="1134" y2="809"/>
<line x1="387" y1="809" x2="386" y2="809"/>
<line x1="387" y1="809" x2="387" y2="809"/>
<line x1="1071" y1="809" x2="1129" y2="809"/>
<line x1="891" y1="809" x2="890" y2="809"/>
<line x1="1071" y1="809" x2="1052" y2="809"/>
<line x1="1052" y1="809" x2="891" y2="809"/>
<line x1="387" y1="809" x2="412" y2="809"/>
<line x1="412" y1="809" x2="412" y2="809"/>
<line x1="412" y1="809" x2="441" y2="809"/>
<line x1="441" y1="809" x2="441" y2="809"/>
<line x1="441" y1="809" x2="468" y2="809"/>
<line x1="468" y1="809" x2="469" y2="809"/>
<line x1="469" y1="809" x2="496" y2="809"/>
<line x1="496" y1="809" x2="496" y2="809"/>
<line x1="496" y1="809" x2="523" y2="809"/>
<line x1="523" y1="809" x2="523" y2="809"/>
<line x1="523" y1="809" x2="549" y2="809"/>
<line x1="549" y1="809" x2="549" y2="809"/>
<line x1="549" y1="809" x2="575" y2="809"/>
<line x1="575" y1="809" x2="575" y2="809"/>
<line x1="575" y1="809" x2="601" y2="809"/>
<line x1="601" y1="809" x2="601" y2="809"/>
<line x1="601" y1="809" x2="626" y2="809"/>
<line x1="626" y1="809" x2="626" y2="809"/>
<line x1="626" y1="809" x2="651" y2="809"/>
<line x1="651" y1="809" x2="651" y2="809"/>
<line x1="651" y1="809" x2="676" y2="809"/>
<line x1="676" y1="809" x2="676" y2="809"/>
<line x1="676" y1="809" x2="700" y2="809"/>
<line x1="700" y1="809" x2="700" y2="809"/>
<line x1="700" y1="809" x2="724" y2="809"/>
<line x1="724" y1="809" x2="724" y2="809"/>
<line x1="724" y1="809" x2="748" y2="809"/>
<line x1="748" y1="809" x2="748" y2="809"/>
<line x1="748" y1="809" x2="771" y2="809"/>
<line x1="771" y1="809" x2="771" y2="809"/>
<line x1="771" y1="809" x2="794" y2="809"/>
<line x1="794" y1="809" x2="795" y2="809"/>
<line x1="795" y1="809" x2="817" y2="809"/>
<line x1="817" y1="809" x2="817" y2="809"/>
<line x1="817" y1="809" x2="840" y2="809"/>
<line x1="840" y1="809" x2="840" y2="809"/>
<line x1="890" y1="809" x2="840" y2="809"/>
<line x1="219" y1="860" x2="202" y2="860"/>
<line x1="219" y1="860" x2="220" y2="860"/>
<line x1="220" y1="860" x2="247" y2="860"/>
<line x1="247" y1="860" x2="247" y2="860"/>
<line x1="360" y1="860" x2="247" y2="860"/>
<line x1="360" y1="860" x2="440" y2="860"/>
<line x1="440" y1="860" x2="442" y2="860"/>
<line x1="442" y1="860" x2="512" y2="860"/>
<line x1="512" y1="860" x2="513" y2="860"/>
<line x1="513" y1="860" x2="576" y2="860"/>
<line x1="576" y1="860" x2="578" y2="860"/>
<line x1="578" y1="860" x2="634" y2="860"/>
<line x1="634" y1="860" x2="635" y2="860"/>
<line x1="635" y1="860" x2="686" y2="860"/>
<line x1="686" y1="860" x2="687" y2="860"/>
<line x1="687" y1="860" x2="733" y2="860"/>
<line x1="733" y1="860" x2="734" y2="860"/>
<line x1="734" y1="860" x2="777" y2="860"/>
<line x1="777" y1="860" x2="777" y2="860"/>
<line x1="777" y1="860" x2="816" y2="860"/>
<line x1="816" y1="860" x2="817" y2="860"/>
<line x1="817" y1="860" x2="853" y2="860"/>
<line x1="853" y1="860" x2="854" y2="860"/>
<line x1="854" y1="860" x2="887" y2="860"/>
<line x1="887" y1="860" x2="888" y2="860"/>
<line x1="888" y1="860" x2="918" y2="860"/>
<line x1="918" y1="860" x2="919" y2="860"/>
<line x1="919" y1="860" x2="948" y2="860"/>
<line x1="948" y1="860" x2="949" y2="860"/>
<line x1="949" y1="860" x2="975" y2="860"/>
<line x1="975" y1="860" x2="976" y2="860"/>
<line x1="976" y1="860" x2="1001" y2="860"/>
<line x1="1001" y1="860" x2="1002" y2="860"/>
<line x1="1002" y1="860" x2="1026" y2="860"/>
<line x1="1026" y1="860" x2="1026" y2="860"/>
<line x1="1026" y1="860" x2="1049" y2="860"/>
<line x1="1049" y1="860" x2="1049" y2="860"/>
<line x1="1049" y1="860" x2="1198" y2="860"/>
<line x1="258" y1="40" x2="272" y2="40"/>
<line x1="273" y1="40" x2="272" y2="40"/>
<line x1="302" y1="40" x2="273" y2="40"/>
<line x1="1180" y1="40" x2="1134" y2="40"/>
<line x1="1180" y1="40" x2="1191" y2="40"/>
<line x1="226" y1="40" x2="222" y2="40"/>
<line x1="222" y1="40" x2="222" y2="40"/>
<line x1="222" y1="40" x2="212" y2="40"/>
<line x1="212" y1="40" x2="211" y2="40"/>
<line x1="211" y1="40" x2="202" y2="40"/>
<line x1="226" y1="40" x2="235" y2="40"/>
<line x1="202" y1="351" x2="202" y2="40"/>
<line x1="202" y1="351" x2="202" y2="860"/>
<line x1="1198" y1="90" x2="1198" y2="490"/>
<line x1="1198" y1="511" x2="1198" y2="860"/>
<line x1="1198" y1="511" x2="1198" y2="490"/>
<line x1="1129" y1="809" x2="1129" y2="809"/>
<line x1="1129" y1="809" x2="1129" y2="809"/>
<line x1="205" y1="71" x2="205" y2="71"/>
<line x1="205" y1="71" x2="205" y2="70"/>
<line x1="205" y1="70" x2="204" y2="67"/>
<line x1="205" y1="70" x2="205" y2="70"/>
<line x1="206" y1="73" x2="207" y2="74"/>
<line x1="206" y1="73" x2="205" y2="71"/>
<line x1="206" y1="73" x2="206" y2="73"/>
<line x1="209" y1="76" x2="209" y2="77"/>
<line x1="209" y1="76" x2="207" y2="74"/>
<line x1="212" y1="79" x2="212" y2="79"/>
<line x1="212" y1="79" x2="209" y2="77"/>
<line x1="215" y1="81" x2="216" y2="82"/>
<line x1="215" y1="81" x2="212" y2="79"/>
<line x1="220" y1="84" x2="220" y2="84"/>
<line x1="220" y1="84" x2="216" y2="82"/>
<line x1="224" y1="86" x2="225" y2="86"/>
<line x1="224" y1="86" x2="220" y2="84"/>
<line x1="230" y1="87" x2="230" y2="87"/>
<line x1="230" y1="87" x2="225" y2="86"/>
<line x1="235" y1="88" x2="236" y2="88"/>
<line x1="235" y1="88" x2="230" y2="87"/>
<line x1="241" y1="89" x2="241" y2="89"/>
<line x1="241" y1="89" x2="236" y2="88"/>
<line x1="246" y1="89" x2="247" y2="89"/>
<line x1="246" y1="89" x2="241" y2="89"/>
<line x1="252" y1="89" x2="252" y2="89"/>
<line x1="252" y1="89" x2="247" y2="89"/>
<line x1="258" y1="88" x2="258" y2="88"/>
<line x1="258" y1="88" x2="252" y2="89"/>
<line x1="263" y1="87" x2="263" y2="87"/>
<line x1="263" y1="87" x2="258" y2="88"/>
<line x1="269" y1="86" x2="269" y2="86"/>
<line x1="269" y1="86" x2="263" y2="87"/>
<line x1="272" y1="84" x2="269" y2="86"/>
<line x1="269" y1="42" x2="269" y2="42"/>
<line x1="272" y1="44" x2="269" y2="42"/>
<line x1="264" y1="41" x2="263" y2="41"/>
<line x1="269" y1="42" x2="264" y2="41"/>
<line x1="260" y1="40" x2="263" y2="41"/>
<line x1="260" y1="40" x2="258" y2="40"/>
<line x1="231" y1="41" x2="230" y2="41"/>
<line x1="235" y1="40" x2="231" y2="41"/>
<line x1="226" y1="42" x2="225" y2="42"/>
<line x1="230" y1="41" x2="226" y2="42"/>
<line x1="221" y1="44" x2="220" y2="44"/>
<line x1="225" y1="42" x2="221" y2="44"/>
<line x1="217" y1="46" x2="216" y2="46"/>
<line x1="220" y1="44" x2="217" y2="46"/>
<line x1="213" y1="48" x2="212" y2="49"/>
<line x1="216" y1="46" x2="213" y2="48"/>
<line x1="210" y1="51" x2="209" y2="52"/>
<line x1="212" y1="49" x2="210" y2="51"/>
<line x1="207" y1="54" x2="207" y2="55"/>
<line x1="209" y1="52" x2="207" y2="54"/>
<line x1="205" y1="57" x2="205" y2="58"/>
<line x1="205" y1="57" x2="205" y2="57"/>
<line x1="205" y1="57" x2="207" y2="55"/>
<line x1="204" y1="61" x2="204" y2="61"/>
<line x1="204" y1="60" x2="204" y2="61"/>
<line x1="205" y1="58" x2="204" y2="60"/>
<line x1="205" y1="58" x2="205" y2="58"/>
<line x1="203" y1="64" x2="203" y2="64"/>
<line x1="203" y1="64" x2="203" y2="64"/>
<line x1="204" y1="61" x2="203" y2="64"/>
<line x1="204" y1="61" x2="204" y2="61"/>
<line x1="204" y1="67" x2="204" y2="67"/>
<line x1="204" y1="67" x2="204" y2="67"/>
<line x1="204" y1="67" x2="203" y2="64"/>
<line x1="204" y1="67" x2="204" y2="67"/>
<line x1="273" y1="84" x2="272" y2="84"/>
<line x1="273" y1="84" x2="278" y2="82"/>
<line x1="273" y1="84" x2="273" y2="84"/>
<line x1="278" y1="82" x2="282" y2="79"/>
<line x1="278" y1="82" x2="278" y2="82"/>
<line x1="282" y1="79" x2="286" y2="77"/>
<line x1="282" y1="79" x2="282" y2="79"/>
<line x1="286" y1="77" x2="289" y2="74"/>
<line x1="286" y1="77" x2="286" y2="77"/>
<line x1="289" y1="74" x2="291" y2="71"/>
<line x1="289" y1="74" x2="289" y2="74"/>
<line x1="291" y1="70" x2="292" y2="67"/>
<line x1="291" y1="70" x2="291" y2="71"/>
<line x1="292" y1="67" x2="292" y2="64"/>
<line x1="292" y1="67" x2="292" y2="67"/>
<line x1="292" y1="64" x2="292" y2="61"/>
<line x1="292" y1="64" x2="292" y2="64"/>
<line x1="292" y1="61" x2="291" y2="58"/>
<line x1="292" y1="61" x2="292" y2="61"/>
<line x1="291" y1="58" x2="289" y2="55"/>
<line x1="291" y1="58" x2="291" y2="58"/>
<line x1="289" y1="54" x2="286" y2="52"/>
<line x1="289" y1="55" x2="289" y2="54"/>
<line x1="286" y1="52" x2="282" y2="49"/>
<line x1="286" y1="52" x2="286" y2="52"/>
<line x1="282" y1="49" x2="278" y2="46"/>
<line x1="282" y1="49" x2="282" y2="49"/>
<line x1="278" y1="46" x2="273" y2="44"/>
<line x1="278" y1="46" x2="278" y2="46"/>
<line x1="273" y1="44" x2="272" y2="44"/>
<line x1="273" y1="44" x2="273" y2="44"/>
<line x1="1198" y1="90" x2="1198" y2="90"/>
<line x1="1173" y1="55" x2="1173" y2="55"/>
<line x1="1173" y1="55" x2="1173" y2="55"/>
<line x1="1173" y1="55" x2="1173" y2="55"/>
<line x1="1173" y1="55" x2="1173" y2="55"/>
<line x1="1172" y1="60" x2="1172" y2="60"/>
<line x1="1172" y1="61" x2="1172" y2="61"/>
<line x1="1172" y1="61" x2="1172" y2="60"/>
<line x1="1192" y1="90" x2="1195" y2="90"/>
<line x1="1191" y1="89" x2="1192" y2="90"/>
<line x1="1179" y1="83" x2="1178" y2="82"/>
<line x1="1179" y1="83" x2="1179" y2="83"/>
<line x1="1179" y1="83" x2="1179" y2="83"/>
<line x1="1174" y1="77" x2="1174" y2="76"/>
<line x1="1175" y1="77" x2="1174" y2="77"/>
<line x1="1175" y1="78" x2="1175" y2="77"/>
<line x1="1175" y1="78" x2="1175" y2="78"/>
<line x1="1180" y1="84" x2="1179" y2="83"/>
<line x1="1180" y1="84" x2="1182" y2="85"/>
<line x1="1179" y1="83" x2="1179" y2="83"/>
<line x1="1177" y1="81" x2="1177" y2="81"/>
<line x1="1178" y1="82" x2="1177" y2="81"/>
<line x1="1178" y1="82" x2="1178" y2="82"/>
<line x1="1178" y1="82" x2="1178" y2="82"/>
<line x1="1174" y1="54" x2="1174" y2="54"/>
<line x1="1174" y1="54" x2="1174" y2="54"/>
<line x1="1173" y1="54" x2="1173" y2="55"/>
<line x1="1173" y1="54" x2="1174" y2="54"/>
<line x1="1172" y1="69" x2="1172" y2="69"/>
<line x1="1172" y1="69" x2="1172" y2="69"/>
<line x1="1172" y1="69" x2="1172" y2="70"/>
<line x1="1176" y1="79" x2="1175" y2="78"/>
<line x1="1176" y1="79" x2="1176" y2="79"/>
<line x1="1176" y1="80" x2="1176" y2="79"/>
<line x1="1176" y1="80" x2="1176" y2="80"/>
<line x1="1177" y1="80" x2="1176" y2="80"/>
<line x1="1177" y1="80" x2="1177" y2="80"/>
<line x1="1177" y1="80" x2="1177" y2="81"/>
<line x1="1172" y1="61" x2="1172" y2="61"/>
<line x1="1171" y1="62" x2="1171" y2="62"/>
<line x1="1172" y1="61" x2="1172" y2="61"/>
<line x1="1171" y1="62" x2="1171" y2="64"/>
<line x1="1171" y1="62" x2="1172" y2="61"/>
<line x1="1172" y1="58" x2="1172" y2="58"/>
<line x1="1172" y1="58" x2="1172" y2="58"/>
<line x1="1172" y1="58" x2="1172" y2="60"/>
<line x1="1179" y1="47" x2="1178" y2="47"/>
<line x1="1179" y1="47" x2="1179" y2="46"/>
<line x1="1179" y1="47" x2="1179" y2="47"/>
<line x1="1179" y1="47" x2="1179" y2="47"/>
<line x1="1175" y1="52" x2="1175" y2="52"/>
<line x1="1175" y1="52" x2="1175" y2="52"/>
<line x1="1175" y1="52" x2="1174" y2="54"/>
<line x1="1173" y1="73" x2="1172" y2="72"/>
<line x1="1173" y1="74" x2="1173" y2="73"/>
<line x1="1173" y1="74" x2="1173" y2="74"/>
<line x1="1173" y1="74" x2="1173" y2="74"/>
<line x1="1187" y1="88" x2="1185" y2="87"/>
<line x1="1187" y1="88" x2="1188" y2="88"/>
<line x1="1196" y1="90" x2="1198" y2="90"/>
<line x1="1195" y1="90" x2="1196" y2="90"/>
<line x1="1173" y1="56" x2="1173" y2="56"/>
<line x1="1173" y1="56" x2="1172" y2="58"/>
<line x1="1173" y1="56" x2="1173" y2="55"/>
<line x1="1186" y1="42" x2="1188" y2="41"/>
<line x1="1186" y1="42" x2="1185" y2="42"/>
<line x1="1173" y1="75" x2="1173" y2="75"/>
<line x1="1174" y1="76" x2="1173" y2="75"/>
<line x1="1174" y1="76" x2="1174" y2="76"/>
<line x1="1173" y1="74" x2="1173" y2="74"/>
<line x1="1173" y1="74" x2="1173" y2="75"/>
<line x1="1173" y1="75" x2="1173" y2="75"/>
<line x1="1171" y1="64" x2="1171" y2="64"/>
<line x1="1171" y1="65" x2="1171" y2="65"/>
<line x1="1171" y1="64" x2="1171" y2="64"/>
<line x1="1171" y1="64" x2="1171" y2="65"/>
<line x1="1171" y1="67" x2="1171" y2="65"/>
<line x1="1171" y1="67" x2="1171" y2="68"/>
<line x1="1171" y1="68" x2="1172" y2="68"/>
<line x1="1172" y1="68" x2="1172" y2="69"/>
<line x1="1184" y1="86" x2="1182" y2="85"/>
<line x1="1185" y1="87" x2="1184" y2="86"/>
<line x1="1185" y1="87" x2="1185" y2="87"/>
<line x1="1176" y1="50" x2="1176" y2="50"/>
<line x1="1176" y1="50" x2="1175" y2="52"/>
<line x1="1176" y1="50" x2="1176" y2="50"/>
<line x1="1184" y1="43" x2="1182" y2="44"/>
<line x1="1184" y1="43" x2="1185" y2="42"/>
<line x1="1172" y1="71" x2="1172" y2="70"/>
<line x1="1172" y1="71" x2="1172" y2="71"/>
<line x1="1172" y1="72" x2="1172" y2="71"/>
<line x1="1172" y1="72" x2="1172" y2="72"/>
<line x1="1190" y1="89" x2="1188" y2="88"/>
<line x1="1191" y1="89" x2="1190" y2="89"/>
<line x1="1191" y1="89" x2="1191" y2="89"/>
<line x1="1176" y1="50" x2="1176" y2="50"/>
<line x1="1177" y1="49" x2="1177" y2="49"/>
<line x1="1177" y1="49" x2="1177" y2="49"/>
<line x1="1176" y1="50" x2="1177" y2="49"/>
<line x1="1178" y1="47" x2="1178" y2="48"/>
<line x1="1178" y1="48" x2="1177" y2="49"/>
<line x1="1178" y1="47" x2="1178" y2="47"/>
<line x1="1181" y1="45" x2="1179" y2="46"/>
<line x1="1181" y1="45" x2="1181" y2="45"/>
<line x1="1182" y1="44" x2="1181" y2="45"/>
<line x1="1182" y1="44" x2="1182" y2="44"/>
<line x1="1189" y1="41" x2="1191" y2="40"/>
<line x1="1189" y1="41" x2="1188" y2="41"/>
</g></svg>