<svg xmlns="http://www.w3.org/2000/svg" width="1400" height="900" viewBox="0 0 1400 900">
<rect x="0" y="0" width="100%" height="100%" fill="white"/>
<g stroke="#111" stroke-width="1.2" fill="none" stroke-linecap="round">
<line x1="1278" y1="757" x2="1278" y2="757"/>
<line x1="1278" y1="757" x2="1278" y2="757"/>
<line x1="1278" y1="757" x2="1278" y2="757"/>
<line x1="1277" y1="757" x2="1278" y2="757"/>
<line x1="1277" y1="757" x2="1277" y2="757"/>
<line x1="1277" y1="757" x2="1277" y2="757"/>
<line x1="1276" y1="757" x2="1277" y2="757"/>
<line x1="1276" y1="757" x2="1276" y2="757"/>
<line x1="1276" y1="757" x2="1276" y2="757"/>
<line x1="1275" y1="757" x2="1276" y2="757"/>
<line x1="1275" y1="757" x2="1275" y2="757"/>
<line x1="1313" y1="757" x2="1311" y2="757"/>
<line x1="1311" y1="757" x2="1310" y2="757"/>
<line x1="1310" y1="757" x2="1299" y2="757"/>
<line x1="1299" y1="757" x2="1299" y2="757"/>
<line x1="1299" y1="757" x2="1293" y2="757"/>
<line x1="1293" y1="757" x2="1293" y2="757"/>
<line x1="1293" y1="757" x2="1289" y2="757"/>
<line x1="1289" y1="757" x2="1289" y2="757"/>
<line x1="1289" y1="757" x2="1287" y2="757"/>
<line x1="1287" y1="757" x2="1287" y2="757"/>
<line x1="1287" y1="757" x2="1285" y2="757"/>
<line x1="1285" y1="757" x2="1285" y2="757"/>
<line x1="1285" y1="757" x2="1283" y2="757"/>
<line x1="1283" y1="757" x2="1283" y2="757"/>
<line x1="1283" y1="757" x2="1282" y2="757"/>
<line x1="1282" y1="757" x2="1282" y2="757"/>
<line x1="1282" y1="757" x2="1281" y2="757"/>
<line x1="1281" y1="757" x2="1281" y2="757"/>
<line x1="1281" y1="757" x2="1280" y2="757"/>
<line x1="1280" y1="757" x2="1280" y2="757"/>
<line x1="1280" y1="757" x2="1279" y2="757"/>
<line x1="1279" y1="757" x2="1279" y2="757"/>
<line x1="1279" y1="757" x2="1278" y2="757"/>
<line x1="90" y1="757" x2="87" y2="757"/>
<line x1="95" y1="757" x2="90" y2="757"/>
<line x1="98" y1="757" x2="95" y2="757"/>
<line x1="101" y1="757" x2="98" y2="757"/>
<line x1="103" y1="757" x2="101" y2="757"/>
<line x1="104" y1="757" x2="103" y2="757"/>
<line x1="106" y1="757" x2="104" y2="757"/>
<line x1="107" y1="757" x2="106" y2="757"/>
<line x1="107" y1="757" x2="107" y2="757"/>
<line x1="108" y1="757" x2="107" y2="757"/>
<line x1="108" y1="757" x2="108" y2="757"/>
<line x1="109" y1="757" x2="108" y2="757"/>
<line x1="109" y1="757" x2="109" y2="757"/>
<line x1="109" y1="757" x2="109" y2="757"/>
<line x1="109" y1="757" x2="109" y2="757"/>
<line x1="110" y1="757" x2="109" y2="757"/>
<line x1="110" y1="757" x2="110" y2="757"/>
<line x1="110" y1="757" x2="111" y2="757"/>
<line x1="1313" y1="197" x2="1313" y2="757"/>
<line x1="1313" y1="197" x2="1313" y2="99"/>
<line x1="87" y1="748" x2="87" y2="736"/>
<line x1="87" y1="748" x2="87" y2="757"/>
<line x1="87" y1="377" x2="87" y2="99"/>
<line x1="87" y1="377" x2="87" y2="718"/>
<line x1="67" y1="718" x2="67" y2="718"/>
<line x1="67" y1="718" x2="67" y2="718"/>
<line x1="111" y1="758" x2="111" y2="757"/>
<line x1="111" y1="758" x2="111" y2="758"/>
<line x1="87" y1="736" x2="87" y2="736"/>
<line x1="86" y1="735" x2="87" y2="736"/>
<line x1="85" y1="735" x2="86" y2="735"/>
<line x1="85" y1="734" x2="85" y2="735"/>
<line x1="84" y1="734" x2="85" y2="734"/>
<line x1="84" y1="733" x2="84" y2="734"/>
<line x1="83" y1="733" x2="84" y2="733"/>
<line x1="83" y1="732" x2="83" y2="733"/>
<line x1="82" y1="732" x2="83" y2="732"/>
<line x1="82" y1="732" x2="82" y2="732"/>
<line x1="81" y1="731" x2="82" y2="732"/>
<line x1="81" y1="731" x2="81" y2="731"/>
<line x1="80" y1="730" x2="81" y2="731"/>
<line x1="80" y1="730" x2="80" y2="730"/>
<line x1="79" y1="729" x2="80" y2="730"/>
<line x1="79" y1="729" x2="79" y2="729"/>
<line x1="78" y1="728" x2="79" y2="729"/>
<line x1="78" y1="728" x2="78" y2="728"/>
<line x1="77" y1="728" x2="78" y2="728"/>
<line x1="77" y1="727" x2="77" y2="728"/>
<line x1="76" y1="727" x2="77" y2="727"/>
<line x1="76" y1="726" x2="76" y2="727"/>
<line x1="75" y1="726" x2="76" y2="726"/>
<line x1="75" y1="725" x2="75" y2="726"/>
<line x1="74" y1="725" x2="75" y2="725"/>
<line x1="74" y1="725" x2="74" y2="725"/>
<line x1="74" y1="725" x2="74" y2="725"/>
<line x1="74" y1="725" x2="74" y2="725"/>
<line x1="73" y1="724" x2="74" y2="725"/>
<line x1="73" y1="724" x2="73" y2="724"/>
<line x1="72" y1="723" x2="73" y2="724"/>
<line x1="72" y1="723" x2="72" y2="723"/>
<line x1="71" y1="722" x2="72" y2="723"/>
<line x1="71" y1="722" x2="71" y2="722"/>
<line x1="70" y1="722" x2="71" y2="722"/>
<line x1="67" y1="719" x2="70" y2="722"/>
<line x1="67" y1="719" x2="67" y2="718"/>
<line x1="67" y1="718" x2="67" y2="718"/>
<line x1="1274" y1="758" x2="1275" y2="757"/>
<line x1="1274" y1="758" x2="1274" y2="758"/>
<line x1="207" y1="758" x2="218" y2="758"/>
<line x1="111" y1="758" x2="207" y2="758"/>
<line x1="1274" y1="758" x2="1270" y2="758"/>
<line x1="1270" y1="758" x2="1270" y2="758"/>
<line x1="1270" y1="758" x2="1263" y2="758"/>
<line x1="1263" y1="758" x2="1263" y2="758"/>
<line x1="1263" y1="758" x2="1258" y2="758"/>
<line x1="1258" y1="758" x2="1258" y2="758"/>
<line x1="1258" y1="758" x2="1253" y2="758"/>
<line x1="1253" y1="758" x2="1253" y2="758"/>
<line x1="1253" y1="758" x2="1250" y2="758"/>
<line x1="1250" y1="758" x2="1250" y2="758"/>
<line x1="686" y1="758" x2="629" y2="758"/>
<line x1="629" y1="758" x2="628" y2="758"/>
<line x1="628" y1="758" x2="582" y2="758"/>
<line x1="582" y1="758" x2="582" y2="758"/>
<line x1="582" y1="758" x2="543" y2="758"/>
<line x1="543" y1="758" x2="543" y2="758"/>
<line x1="543" y1="758" x2="510" y2="758"/>
<line x1="510" y1="758" x2="510" y2="758"/>
<line x1="510" y1="758" x2="482" y2="758"/>
<line x1="482" y1="758" x2="482" y2="758"/>
<line x1="482" y1="758" x2="458" y2="758"/>
<line x1="458" y1="758" x2="458" y2="758"/>
<line x1="458" y1="758" x2="437" y2="758"/>
<line x1="437" y1="758" x2="436" y2="758"/>
<line x1="436" y1="758" x2="418" y2="758"/>
<line x1="418" y1="758" x2="418" y2="758"/>
<line x1="418" y1="758" x2="401" y2="758"/>
<line x1="401" y1="758" x2="401" y2="758"/>
<line x1="401" y1="758" x2="386" y2="758"/>
<line x1="386" y1="758" x2="386" y2="758"/>
<line x1="386" y1="758" x2="373" y2="758"/>
<line x1="373" y1="758" x2="373" y2="758"/>
<line x1="373" y1="758" x2="361" y2="758"/>
<line x1="361" y1="758" x2="361" y2="758"/>
<line x1="361" y1="758" x2="349" y2="758"/>
<line x1="349" y1="758" x2="349" y2="758"/>
<line x1="349" y1="758" x2="339" y2="758"/>
<line x1="339" y1="758" x2="339" y2="758"/>
<line x1="339" y1="758" x2="330" y2="758"/>
<line x1="330" y1="758" x2="330" y2="758"/>
<line x1="330" y1="758" x2="321" y2="758"/>
<line x1="321" y1="758" x2="321" y2="758"/>
<line x1="321" y1="758" x2="313" y2="758"/>
<line x1="313" y1="758" x2="313" y2="758"/>
<line x1="313" y1="758" x2="306" y2="758"/>
<line x1="306" y1="758" x2="306" y2="758"/>
<line x1="306" y1="758" x2="299" y2="758"/>
<line x1="299" y1="758" x2="299" y2="758"/>
<line x1="299" y1="758" x2="293" y2="758"/>
<line x1="293" y1="758" x2="293" y2="758"/>
<line x1="293" y1="758" x2="287" y2="758"/>
<line x1="287" y1="758" x2="287" y2="758"/>
<line x1="287" y1="758" x2="281" y2="758"/>
<line x1="281" y1="758" x2="281" y2="758"/>
<line x1="281" y1="758" x2="276" y2="758"/>
<line x1="276" y1="758" x2="276" y2="758"/>
<line x1="276" y1="758" x2="271" y2="758"/>
<line x1="271" y1="758" x2="271" y2="758"/>
<line x1="271" y1="758" x2="266" y2="758"/>
<line x1="266" y1="758" x2="266" y2="758"/>
<line x1="266" y1="758" x2="261" y2="758"/>
<line x1="261" y1="758" x2="261" y2="758"/>
<line x1="261" y1="758" x2="257" y2="758"/>
<line x1="257" y1="758" x2="257" y2="758"/>
<line x1="257" y1="758" x2="253" y2="758"/>
<line x1="253" y1="758" x2="253" y2="758"/>
<line x1="253" y1="758" x2="249" y2="758"/>
<line x1="249" y1="758" x2="249" y2="758"/>
<line x1="249" y1="758" x2="245" y2="758"/>
<line x1="245" y1="758" x2="245" y2="758"/>
<line x1="245" y1="758" x2="242" y2="758"/>
<line x1="242" y1="758" x2="242" y2="758"/>
<line x1="242" y1="758" x2="238" y2="758"/>
<line x1="238" y1="758" x2="238" y2="758"/>
<line x1="238" y1="758" x2="235" y2="758"/>
<line x1="235" y1="758" x2="235" y2="758"/>
<line x1="235" y1="758" x2="232" y2="758"/>
<line x1="232" y1="758" x2="232" y2="758"/>
<line x1="232" y1="758" x2="229" y2="758"/>
<line x1="229" y1="758" x2="229" y2="758"/>
<line x1="229" y1="758" x2="226" y2="758"/>
<line x1="226" y1="758" x2="226" y2="758"/>
<line x1="226" y1="758" x2="224" y2="758"/>
<line x1="224" y1="758" x2="224" y2="758"/>
<line x1="218" y1="758" x2="224" y2="758"/>
<line x1="686" y1="758" x2="1250" y2="758"/>
<line x1="87" y1="718" x2="87" y2="718"/>
<line x1="86" y1="718" x2="87" y2="718"/>
<line x1="67" y1="718" x2="67" y2="718"/>
<line x1="86" y1="718" x2="86" y2="718"/>
<line x1="85" y1="718" x2="86" y2="718"/>
<line x1="85" y1="718" x2="85" y2="718"/>
<line x1="84" y1="718" x2="85" y2="718"/>
<line x1="84" y1="718" x2="84" y2="718"/>
<line x1="83" y1="718" x2="84" y2="718"/>
<line x1="83" y1="718" x2="83" y2="718"/>
<line x1="82" y1="718" x2="83" y2="718"/>
<line x1="82" y1="718" x2="82" y2="718"/>
<line x1="81" y1="718" x2="82" y2="718"/>
<line x1="81" y1="718" x2="81" y2="718"/>
<line x1="80" y1="718" x2="81" y2="718"/>
<line x1="79" y1="718" x2="80" y2="718"/>
<line x1="79" y1="718" x2="79" y2="718"/>
<line x1="78" y1="718" x2="79" y2="718"/>
<line x1="78" y1="718" x2="78" y2="718"/>
<line x1="67" y1="718" x2="67" y2="718"/>
<line x1="77" y1="718" x2="78" y2="718"/>
<line x1="77" y1="718" x2="77" y2="718"/>
<line x1="76" y1="718" x2="77" y2="718"/>
<line x1="76" y1="718" x2="76" y2="718"/>
<line x1="75" y1="718" x2="76" y2="718"/>
<line x1="75" y1="718" x2="75" y2="718"/>
<line x1="74" y1="718" x2="75" y2="718"/>
<line x1="74" y1="718" x2="74" y2="718"/>
<line x1="73" y1="718" x2="74" y2="718"/>
<line x1="73" y1="718" x2="73" y2="718"/>
<line x1="72" y1="718" x2="73" y2="718"/>
<line x1="72" y1="718" x2="72" y2="718"/>
<line x1="71" y1="718" x2="72" y2="718"/>
<line x1="71" y1="718" x2="71" y2="718"/>
<line x1="70" y1="718" x2="71" y2="718"/>
<line x1="69" y1="718" x2="70" y2="718"/>
<line x1="69" y1="718" x2="69" y2="718"/>
<line x1="67" y1="718" x2="67" y2="718"/>
<line x1="68" y1="718" x2="69" y2="718"/>
<line x1="68" y1="718" x2="68" y2="718"/>
<line x1="67" y1="718" x2="68" y2="718"/>
<line x1="67" y1="718" x2="67" y2="718"/>
<line x1="67" y1="718" x2="67" y2="718"/>
<line x1="67" y1="718" x2="67" y2="718"/>
<line x1="67" y1="718" x2="67" y2="718"/>
<line x1="1351" y1="801" x2="1360" y2="801"/>
<line x1="1351" y1="801" x2="1351" y2="801"/>
<line x1="1351" y1="801" x2="1341" y2="801"/>
<line x1="1213" y1="801" x2="1341" y2="801"/>
<line x1="1213" y1="801" x2="1212" y2="801"/>
<line x1="1212" y1="801" x2="1155" y2="801"/>
<line x1="1155" y1="801" x2="1154" y2="801"/>
<line x1="1154" y1="801" x2="1109" y2="801"/>
<line x1="1109" y1="801" x2="1108" y2="801"/>
<line x1="1108" y1="801" x2="1071" y2="801"/>
<line x1="1071" y1="801" x2="1070" y2="801"/>
<line x1="1070" y1="801" x2="1039" y2="801"/>
<line x1="1039" y1="801" x2="1038" y2="801"/>
<line x1="1038" y1="801" x2="1012" y2="801"/>
<line x1="1012" y1="801" x2="1011" y2="801"/>
<line x1="1011" y1="801" x2="989" y2="801"/>
<line x1="989" y1="801" x2="988" y2="801"/>
<line x1="988" y1="801" x2="968" y2="801"/>
<line x1="968" y1="801" x2="968" y2="801"/>
<line x1="968" y1="801" x2="950" y2="801"/>
<line x1="950" y1="801" x2="950" y2="801"/>
<line x1="950" y1="801" x2="934" y2="801"/>
<line x1="934" y1="801" x2="934" y2="801"/>
<line x1="934" y1="801" x2="920" y2="801"/>
<line x1="920" y1="801" x2="920" y2="801"/>
<line x1="920" y1="801" x2="907" y2="801"/>
<line x1="907" y1="801" x2="907" y2="801"/>
<line x1="907" y1="801" x2="896" y2="801"/>
<line x1="896" y1="801" x2="896" y2="801"/>
<line x1="896" y1="801" x2="885" y2="801"/>
<line x1="885" y1="801" x2="885" y2="801"/>
<line x1="885" y1="801" x2="876" y2="801"/>
<line x1="876" y1="801" x2="875" y2="801"/>
<line x1="875" y1="801" x2="867" y2="801"/>
<line x1="867" y1="801" x2="866" y2="801"/>
<line x1="866" y1="801" x2="858" y2="801"/>
<line x1="858" y1="801" x2="858" y2="801"/>
<line x1="858" y1="801" x2="665" y2="801"/>
<line x1="40" y1="801" x2="51" y2="801"/>
<line x1="51" y1="801" x2="109" y2="801"/>
<line x1="109" y1="801" x2="157" y2="801"/>
<line x1="197" y1="801" x2="157" y2="801"/>
<line x1="232" y1="801" x2="197" y2="801"/>
<line x1="262" y1="801" x2="232" y2="801"/>
<line x1="288" y1="801" x2="262" y2="801"/>
<line x1="311" y1="801" x2="288" y2="801"/>
<line x1="331" y1="801" x2="311" y2="801"/>
<line x1="349" y1="801" x2="331" y2="801"/>
<line x1="365" y1="801" x2="349" y2="801"/>
<line x1="379" y1="801" x2="365" y2="801"/>
<line x1="392" y1="801" x2="379" y2="801"/>
<line x1="404" y1="801" x2="392" y2="801"/>
<line x1="415" y1="801" x2="404" y2="801"/>
<line x1="415" y1="801" x2="665" y2="801"/>
<line x1="1333" y1="99" x2="1331" y2="99"/>
<line x1="1331" y1="99" x2="1331" y2="99"/>
<line x1="1330" y1="99" x2="1331" y2="99"/>
<line x1="1330" y1="99" x2="1330" y2="99"/>
<line x1="1328" y1="99" x2="1330" y2="99"/>
<line x1="1328" y1="99" x2="1328" y2="99"/>
<line x1="1313" y1="99" x2="1328" y2="99"/>
<line x1="53" y1="99" x2="87" y2="99"/>
<line x1="53" y1="99" x2="40" y2="99"/>
<line x1="1349" y1="99" x2="1351" y2="99"/>
<line x1="1351" y1="99" x2="1351" y2="99"/>
<line x1="1351" y1="99" x2="1356" y2="99"/>
<line x1="1356" y1="99" x2="1357" y2="99"/>
<line x1="1349" y1="99" x2="1344" y2="99"/>
<line x1="1357" y1="99" x2="1360" y2="99"/>
<line x1="1360" y1="107" x2="1360" y2="99"/>
<line x1="1360" y1="107" x2="1360" y2="108"/>
<line x1="1360" y1="108" x2="1360" y2="117"/>
<line x1="1360" y1="117" x2="1360" y2="118"/>
<line x1="1360" y1="654" x2="1360" y2="648"/>
<line x1="1360" y1="648" x2="1360" y2="647"/>
<line x1="1360" y1="647" x2="1360" y2="446"/>
<line x1="1360" y1="446" x2="1360" y2="434"/>
<line x1="1360" y1="434" x2="1360" y2="166"/>
<line x1="1360" y1="166" x2="1360" y2="118"/>
<line x1="1360" y1="654" x2="1360" y2="801"/>
<line x1="40" y1="217" x2="40" y2="801"/>
<line x1="40" y1="217" x2="40" y2="99"/>
<line x1="84" y1="124" x2="84" y2="126"/>
<line x1="84" y1="124" x2="85" y2="123"/>
<line x1="84" y1="127" x2="83" y2="129"/>
<line x1="84" y1="127" x2="84" y2="126"/>
<line x1="83" y1="129" x2="82" y2="131"/>
<line x1="83" y1="129" x2="83" y2="129"/>
<line x1="81" y1="132" x2="80" y2="134"/>
<line x1="81" y1="132" x2="82" y2="131"/>
<line x1="80" y1="134" x2="79" y2="136"/>
<line x1="80" y1="134" x2="80" y2="134"/>
<line x1="78" y1="136" x2="76" y2="138"/>
<line x1="78" y1="136" x2="79" y2="136"/>
<line x1="76" y1="138" x2="74" y2="139"/>
<line x1="76" y1="138" x2="76" y2="138"/>
<line x1="73" y1="139" x2="72" y2="140"/>
<line x1="73" y1="139" x2="74" y2="139"/>
<line x1="71" y1="141" x2="69" y2="141"/>
<line x1="71" y1="141" x2="72" y2="140"/>
<line x1="68" y1="141" x2="66" y2="142"/>
<line x1="68" y1="141" x2="69" y2="141"/>
<line x1="65" y1="142" x2="63" y2="142"/>
<line x1="65" y1="142" x2="66" y2="142"/>
<line x1="62" y1="142" x2="60" y2="142"/>
<line x1="62" y1="142" x2="63" y2="142"/>
<line x1="60" y1="142" x2="58" y2="141"/>
<line x1="60" y1="142" x2="60" y2="142"/>
<line x1="57" y1="141" x2="55" y2="140"/>
<line x1="57" y1="141" x2="58" y2="141"/>
<line x1="54" y1="140" x2="53" y2="139"/>
<line x1="54" y1="140" x2="55" y2="140"/>
<line x1="52" y1="139" x2="50" y2="138"/>
<line x1="52" y1="139" x2="53" y2="139"/>
<line x1="49" y1="137" x2="48" y2="136"/>
<line x1="49" y1="137" x2="50" y2="138"/>
<line x1="47" y1="135" x2="46" y2="134"/>
<line x1="47" y1="135" x2="48" y2="136"/>
<line x1="46" y1="133" x2="45" y2="131"/>
<line x1="46" y1="133" x2="46" y2="134"/>
<line x1="44" y1="130" x2="43" y2="129"/>
<line x1="44" y1="130" x2="45" y2="131"/>
<line x1="43" y1="128" x2="42" y2="126"/>
<line x1="43" y1="128" x2="43" y2="129"/>
<line x1="42" y1="125" x2="42" y2="123"/>
<line x1="42" y1="125" x2="42" y2="126"/>
<line x1="42" y1="122" x2="42" y2="120"/>
<line x1="42" y1="122" x2="42" y2="123"/>
<line x1="42" y1="120" x2="42" y2="118"/>
<line x1="42" y1="120" x2="42" y2="120"/>
<line x1="42" y1="117" x2="42" y2="115"/>
<line x1="42" y1="118" x2="42" y2="117"/>
<line x1="43" y1="114" x2="43" y2="112"/>
<line x1="42" y1="115" x2="43" y2="114"/>
<line x1="44" y1="111" x2="45" y2="110"/>
<line x1="43" y1="112" x2="44" y2="111"/>
<line x1="45" y1="109" x2="46" y2="107"/>
<line x1="45" y1="110" x2="45" y2="109"/>
<line x1="47" y1="107" x2="48" y2="105"/>
<line x1="46" y1="107" x2="47" y2="107"/>
<line x1="49" y1="105" x2="50" y2="103"/>
<line x1="48" y1="105" x2="49" y2="105"/>
<line x1="51" y1="103" x2="53" y2="102"/>
<line x1="50" y1="103" x2="51" y2="103"/>
<line x1="53" y1="101" x2="55" y2="101"/>
<line x1="53" y1="102" x2="53" y2="101"/>
<line x1="56" y1="100" x2="58" y2="100"/>
<line x1="55" y1="101" x2="56" y2="100"/>
<line x1="59" y1="100" x2="60" y2="99"/>
<line x1="58" y1="100" x2="59" y2="100"/>
<line x1="61" y1="99" x2="63" y2="99"/>
<line x1="60" y1="99" x2="61" y2="99"/>
<line x1="64" y1="99" x2="66" y2="99"/>
<line x1="63" y1="99" x2="64" y2="99"/>
<line x1="67" y1="99" x2="69" y2="100"/>
<line x1="66" y1="99" x2="67" y2="99"/>
<line x1="70" y1="100" x2="72" y2="101"/>
<line x1="69" y1="100" x2="70" y2="100"/>
<line x1="72" y1="101" x2="74" y2="102"/>
<line x1="72" y1="101" x2="72" y2="101"/>
<line x1="75" y1="102" x2="76" y2="103"/>
<line x1="74" y1="102" x2="75" y2="102"/>
<line x1="77" y1="104" x2="79" y2="105"/>
<line x1="76" y1="103" x2="77" y2="104"/>
<line x1="79" y1="106" x2="80" y2="107"/>
<line x1="79" y1="105" x2="79" y2="106"/>
<line x1="81" y1="108" x2="82" y2="110"/>
<line x1="80" y1="107" x2="81" y2="108"/>
<line x1="82" y1="111" x2="83" y2="112"/>
<line x1="82" y1="110" x2="82" y2="111"/>
<line x1="83" y1="113" x2="84" y2="115"/>
<line x1="83" y1="112" x2="83" y2="113"/>
<line x1="84" y1="116" x2="85" y2="118"/>
<line x1="84" y1="115" x2="84" y2="116"/>
<line x1="85" y1="119" x2="85" y2="120"/>
<line x1="85" y1="118" x2="85" y2="119"/>
<line x1="85" y1="121" x2="85" y2="123"/>
<line x1="85" y1="121" x2="85" y2="120"/>
<line x1="1359" y1="125" x2="1359" y2="125"/>
<line x1="1359" y1="125" x2="1359" y2="125"/>
<line x1="1360" y1="122" x2="1359" y2="125"/>
<line x1="1360" y1="122" x2="1360" y2="122"/>
<line x1="1358" y1="127" x2="1358" y2="128"/>
<line x1="1358" y1="127" x2="1359" y2="125"/>
<line x1="1358" y1="127" x2="1358" y2="127"/>
<line x1="1357" y1="130" x2="1357" y2="130"/>
<line x1="1357" y1="130" x2="1358" y2="128"/>
<line x1="1357" y1="130" x2="1357" y2="130"/>
<line x1="1356" y1="132" x2="1356" y2="133"/>
<line x1="1356" y1="132" x2="1357" y2="130"/>
<line x1="1356" y1="132" x2="1356" y2="132"/>
<line x1="1354" y1="134" x2="1354" y2="135"/>
<line x1="1354" y1="134" x2="1356" y2="133"/>
<line x1="1354" y1="134" x2="1354" y2="134"/>
<line x1="1352" y1="136" x2="1352" y2="137"/>
<line x1="1352" y1="136" x2="1354" y2="135"/>
<line x1="1352" y1="136" x2="1352" y2="136"/>
<line x1="1349" y1="138" x2="1349" y2="138"/>
<line x1="1350" y1="138" x2="1352" y2="137"/>
<line x1="1350" y1="138" x2="1349" y2="138"/>
<line x1="1347" y1="139" x2="1347" y2="139"/>
<line x1="1347" y1="139" x2="1349" y2="138"/>
<line x1="1347" y1="139" x2="1347" y2="139"/>
<line x1="1344" y1="140" x2="1344" y2="140"/>
<line x1="1344" y1="140" x2="1347" y2="139"/>
<line x1="1344" y1="140" x2="1344" y2="140"/>
<line x1="1342" y1="141" x2="1341" y2="141"/>
<line x1="1342" y1="141" x2="1344" y2="140"/>
<line x1="1342" y1="141" x2="1342" y2="141"/>
<line x1="1339" y1="141" x2="1339" y2="141"/>
<line x1="1339" y1="141" x2="1341" y2="141"/>
<line x1="1339" y1="141" x2="1339" y2="141"/>
<line x1="1336" y1="141" x2="1336" y2="141"/>
<line x1="1336" y1="141" x2="1339" y2="141"/>
<line x1="1336" y1="141" x2="1336" y2="141"/>
<line x1="1333" y1="140" x2="1333" y2="140"/>
<line x1="1333" y1="140" x2="1336" y2="141"/>
<line x1="1333" y1="140" x2="1333" y2="140"/>
<line x1="1331" y1="139" x2="1330" y2="139"/>
<line x1="1331" y1="139" x2="1333" y2="140"/>
<line x1="1331" y1="139" x2="1331" y2="139"/>
<line x1="1328" y1="138" x2="1328" y2="138"/>
<line x1="1328" y1="138" x2="1330" y2="139"/>
<line x1="1328" y1="138" x2="1328" y2="138"/>
<line x1="1326" y1="137" x2="1325" y2="137"/>
<line x1="1326" y1="137" x2="1328" y2="138"/>
<line x1="1326" y1="137" x2="1326" y2="137"/>
<line x1="1323" y1="135" x2="1323" y2="135"/>
<line x1="1323" y1="135" x2="1324" y2="135"/>
<line x1="1325" y1="136" x2="1325" y2="137"/>
<line x1="1325" y1="136" x2="1324" y2="135"/>
<line x1="1322" y1="133" x2="1322" y2="133"/>
<line x1="1322" y1="133" x2="1322" y2="133"/>
<line x1="1323" y1="135" x2="1322" y2="133"/>
<line x1="1323" y1="135" x2="1323" y2="135"/>
<line x1="1320" y1="130" x2="1320" y2="130"/>
<line x1="1320" y1="130" x2="1320" y2="130"/>
<line x1="1321" y1="133" x2="1320" y2="130"/>
<line x1="1321" y1="133" x2="1322" y2="133"/>
<line x1="1319" y1="128" x2="1319" y2="128"/>
<line x1="1319" y1="128" x2="1319" y2="128"/>
<line x1="1320" y1="130" x2="1319" y2="128"/>
<line x1="1320" y1="130" x2="1320" y2="130"/>
<line x1="1318" y1="125" x2="1318" y2="125"/>
<line x1="1318" y1="125" x2="1318" y2="125"/>
<line x1="1319" y1="128" x2="1318" y2="125"/>
<line x1="1319" y1="128" x2="1319" y2="128"/>
<line x1="1317" y1="122" x2="1317" y2="122"/>
<line x1="1317" y1="122" x2="1317" y2="123"/>
<line x1="1318" y1="125" x2="1317" y2="123"/>
<line x1="1318" y1="125" x2="1318" y2="125"/>
<line x1="1317" y1="120" x2="1317" y2="119"/>
<line x1="1317" y1="120" x2="1317" y2="120"/>
<line x1="1317" y1="122" x2="1317" y2="120"/>
<line x1="1317" y1="122" x2="1317" y2="122"/>
<line x1="1317" y1="117" x2="1317" y2="117"/>
<line x1="1317" y1="117" x2="1317" y2="119"/>
<line x1="1317" y1="117" x2="1317" y2="117"/>
<line x1="1318" y1="114" x2="1318" y2="114"/>
<line x1="1318" y1="114" x2="1317" y2="117"/>
<line x1="1318" y1="114" x2="1318" y2="114"/>
<line x1="1319" y1="112" x2="1319" y2="111"/>
<line x1="1319" y1="112" x2="1318" y2="114"/>
<line x1="1319" y1="112" x2="1319" y2="112"/>
<line x1="1320" y1="109" x2="1320" y2="109"/>
<line x1="1320" y1="109" x2="1319" y2="111"/>
<line x1="1320" y1="109" x2="1320" y2="109"/>
<line x1="1321" y1="107" x2="1322" y2="106"/>
<line x1="1321" y1="107" x2="1320" y2="109"/>
<line x1="1321" y1="107" x2="1321" y2="107"/>
<line x1="1323" y1="105" x2="1323" y2="104"/>
<line x1="1323" y1="105" x2="1322" y2="106"/>
<line x1="1323" y1="105" x2="1323" y2="105"/>
<line x1="1325" y1="103" x2="1325" y2="102"/>
<line x1="1325" y1="103" x2="1325" y2="103"/>
<line x1="1325" y1="103" x2="1323" y2="104"/>
<line x1="1328" y1="101" x2="1328" y2="101"/>
<line x1="1326" y1="102" x2="1325" y2="102"/>
<line x1="1326" y1="102" x2="1328" y2="101"/>
<line x1="1330" y1="100" x2="1330" y2="100"/>
<line x1="1328" y1="101" x2="1328" y2="101"/>
<line x1="1328" y1="101" x2="1330" y2="100"/>
<line x1="1333" y1="99" x2="1333" y2="99"/>
<line x1="1333" y1="99" x2="1333" y2="99"/>
<line x1="1333" y1="99" x2="1330" y2="100"/>
<line x1="1347" y1="100" x2="1347" y2="100"/>
<line x1="1344" y1="99" x2="1344" y2="99"/>
<line x1="1344" y1="99" x2="1347" y2="100"/>
<line x1="1349" y1="101" x2="1349" y2="101"/>
<line x1="1347" y1="100" x2="1347" y2="100"/>
<line x1="1347" y1="100" x2="1349" y2="101"/>
<line x1="1351" y1="102" x2="1352" y2="102"/>
<line x1="1349" y1="101" x2="1349" y2="101"/>
<line x1="1349" y1="101" x2="1351" y2="102"/>
<line x1="1354" y1="104" x2="1354" y2="104"/>
<line x1="1352" y1="103" x2="1352" y2="102"/>
<line x1="1352" y1="103" x2="1354" y2="104"/>
<line x1="1355" y1="106" x2="1356" y2="106"/>
<line x1="1354" y1="104" x2="1355" y2="106"/>
<line x1="1354" y1="104" x2="1354" y2="104"/>
<line x1="1357" y1="109" x2="1357" y2="109"/>
<line x1="1356" y1="107" x2="1357" y2="109"/>
<line x1="1356" y1="107" x2="1356" y2="106"/>
<line x1="1358" y1="111" x2="1358" y2="111"/>
<line x1="1357" y1="109" x2="1358" y2="111"/>
<line x1="1357" y1="109" x2="1357" y2="109"/>
<line x1="1359" y1="114" x2="1359" y2="114"/>
<line x1="1359" y1="114" x2="1359" y2="114"/>
<line x1="1358" y1="111" x2="1359" y2="114"/>
<line x1="1358" y1="111" x2="1358" y2="111"/>
<line x1="1360" y1="117" x2="1360" y2="117"/>
<line x1="1360" y1="117" x2="1360" y2="116"/>
<line x1="1360" y1="116" x2="1360" y2="116"/>
<line x1="1360" y1="116" x2="1359" y2="114"/>
<line x1="1360" y1="119" x2="1360" y2="119"/>
<line x1="1360" y1="119" x2="1360" y2="119"/>
<line x1="1360" y1="119" x2="1360" y2="119"/>
<line x1="1360" y1="119" x2="1360" y2="117"/>
<line x1="1360" y1="122" x2="1360" y2="122"/>
<line x1="1360" y1="122" x2="1360" y2="122"/>
<line x1="1360" y1="120" x2="1360" y2="122"/>
<line x1="1360" y1="120" x2="1360" y2="119"/>
</g></svg>