<svg xmlns="http://www.w3.org/2000/svg" width="1400" height="900" viewBox="0 0 1400 900">
<rect x="0" y="0" width="100%" height="100%" fill="white"/>
<g stroke="#111" stroke-width="1.2" fill="none" stroke-linecap="round">
<line x1="557" y1="809" x2="571" y2="809"/>
<line x1="571" y1="809" x2="571" y2="809"/>
<line x1="578" y1="809" x2="605" y2="809"/>
<line x1="606" y1="809" x2="606" y2="809"/>
<line x1="627" y1="809" x2="638" y2="809"/>
<line x1="639" y1="809" x2="639" y2="809"/>
<line x1="571" y1="809" x2="571" y2="809"/>
<line x1="571" y1="809" x2="571" y2="809"/>
<line x1="578" y1="809" x2="571" y2="809"/>
<line x1="606" y1="809" x2="605" y2="809"/>
<line x1="606" y1="809" x2="606" y2="809"/>
<line x1="627" y1="809" x2="606" y2="809"/>
<line x1="638" y1="809" x2="638" y2="809"/>
<line x1="639" y1="809" x2="638" y2="809"/>
<line x1="639" y1="809" x2="639" y2="809"/>
<line x1="661" y1="809" x2="639" y2="809"/>
<line x1="895" y1="809" x2="886" y2="809"/>
<line x1="557" y1="336" x2="557" y2="809"/>
<line x1="557" y1="336" x2="557" y2="40"/>
<line x1="895" y1="142" x2="895" y2="40"/>
<line x1="895" y1="149" x2="895" y2="142"/>
<line x1="895" y1="152" x2="895" y2="149"/>
<line x1="895" y1="155" x2="895" y2="152"/>
<line x1="895" y1="155" x2="895" y2="809"/>
<line x1="662" y1="809" x2="661" y2="809"/>
<line x1="662" y1="809" x2="663" y2="809"/>
<line x1="814" y1="809" x2="886" y2="809"/>
<line x1="779" y1="809" x2="779" y2="809"/>
<line x1="814" y1="809" x2="810" y2="809"/>
<line x1="810" y1="809" x2="779" y2="809"/>
<line x1="663" y1="809" x2="669" y2="809"/>
<line x1="669" y1="809" x2="669" y2="809"/>
<line x1="669" y1="809" x2="695" y2="809"/>
<line x1="695" y1="809" x2="696" y2="809"/>
<line x1="696" y1="809" x2="721" y2="809"/>
<line x1="721" y1="809" x2="722" y2="809"/>
<line x1="779" y1="809" x2="722" y2="809"/>
<line x1="461" y1="860" x2="437" y2="860"/>
<line x1="461" y1="860" x2="462" y2="860"/>
<line x1="462" y1="860" x2="514" y2="860"/>
<line x1="514" y1="860" x2="515" y2="860"/>
<line x1="515" y1="860" x2="564" y2="860"/>
<line x1="564" y1="860" x2="565" y2="860"/>
<line x1="565" y1="860" x2="610" y2="860"/>
<line x1="610" y1="860" x2="611" y2="860"/>
<line x1="611" y1="860" x2="654" y2="860"/>
<line x1="654" y1="860" x2="655" y2="860"/>
<line x1="655" y1="860" x2="695" y2="860"/>
<line x1="695" y1="860" x2="696" y2="860"/>
<line x1="696" y1="860" x2="963" y2="860"/>
<line x1="552" y1="40" x2="510" y2="40"/>
<line x1="552" y1="40" x2="552" y2="40"/>
<line x1="552" y1="40" x2="557" y2="40"/>
<line x1="952" y1="40" x2="895" y2="40"/>
<line x1="952" y1="40" x2="956" y2="40"/>
<line x1="443" y1="40" x2="437" y2="40"/>
<line x1="443" y1="40" x2="443" y2="40"/>
<line x1="452" y1="40" x2="443" y2="40"/>
<line x1="452" y1="40" x2="452" y2="40"/>
<line x1="457" y1="40" x2="452" y2="40"/>
<line x1="457" y1="40" x2="457" y2="40"/>
<line x1="480" y1="40" x2="457" y2="40"/>
<line x1="437" y1="492" x2="437" y2="40"/>
<line x1="437" y1="492" x2="437" y2="860"/>
<line x1="963" y1="90" x2="963" y2="226"/>
<line x1="963" y1="233" x2="963" y2="860"/>
<line x1="963" y1="233" x2="963" y2="226"/>
<line x1="886" y1="809" x2="886" y2="809"/>
<line x1="886" y1="809" x2="886" y2="809"/>
<line x1="441" y1="71" x2="441" y2="71"/>
<line x1="441" y1="71" x2="440" y2="68"/>
<line x1="440" y1="68" x2="440" y2="67"/>
<line x1="440" y1="68" x2="440" y2="68"/>
<line x1="442" y1="71" x2="444" y2="74"/>
<line x1="442" y1="71" x2="441" y2="71"/>
<line x1="442" y1="71" x2="442" y2="71"/>
<line x1="445" y1="75" x2="447" y2="77"/>
<line x1="445" y1="75" x2="444" y2="74"/>
<line x1="448" y1="77" x2="451" y2="79"/>
<line x1="448" y1="77" x2="447" y2="77"/>
<line x1="452" y1="80" x2="456" y2="82"/>
<line x1="452" y1="80" x2="451" y2="79"/>
<line x1="457" y1="83" x2="461" y2="84"/>
<line x1="457" y1="83" x2="456" y2="82"/>
<line x1="463" y1="85" x2="467" y2="86"/>
<line x1="463" y1="85" x2="461" y2="84"/>
<line x1="470" y1="86" x2="474" y2="87"/>
<line x1="470" y1="86" x2="467" y2="86"/>
<line x1="476" y1="88" x2="481" y2="88"/>
<line x1="476" y1="88" x2="474" y2="87"/>
<line x1="484" y1="89" x2="488" y2="89"/>
<line x1="484" y1="89" x2="481" y2="88"/>
<line x1="491" y1="89" x2="495" y2="89"/>
<line x1="491" y1="89" x2="488" y2="89"/>
<line x1="498" y1="89" x2="503" y2="89"/>
<line x1="498" y1="89" x2="495" y2="89"/>
<line x1="506" y1="89" x2="510" y2="88"/>
<line x1="506" y1="89" x2="503" y2="89"/>
<line x1="513" y1="88" x2="517" y2="87"/>
<line x1="513" y1="88" x2="510" y2="88"/>
<line x1="520" y1="87" x2="523" y2="86"/>
<line x1="520" y1="87" x2="517" y2="87"/>
<line x1="526" y1="85" x2="529" y2="84"/>
<line x1="526" y1="85" x2="523" y2="86"/>
<line x1="532" y1="83" x2="535" y2="82"/>
<line x1="532" y1="83" x2="529" y2="84"/>
<line x1="537" y1="81" x2="540" y2="79"/>
<line x1="537" y1="81" x2="535" y2="82"/>
<line x1="542" y1="78" x2="544" y2="77"/>
<line x1="542" y1="78" x2="540" y2="79"/>
<line x1="546" y1="75" x2="547" y2="74"/>
<line x1="546" y1="75" x2="544" y2="77"/>
<line x1="548" y1="72" x2="549" y2="71"/>
<line x1="548" y1="72" x2="547" y2="74"/>
<line x1="550" y1="69" x2="551" y2="67"/>
<line x1="550" y1="69" x2="549" y2="71"/>
<line x1="551" y1="66" x2="551" y2="64"/>
<line x1="551" y1="66" x2="551" y2="67"/>
<line x1="551" y1="62" x2="551" y2="61"/>
<line x1="551" y1="64" x2="551" y2="62"/>
<line x1="550" y1="59" x2="549" y2="58"/>
<line x1="551" y1="61" x2="550" y2="59"/>
<line x1="548" y1="56" x2="547" y2="55"/>
<line x1="549" y1="58" x2="548" y2="56"/>
<line x1="545" y1="53" x2="544" y2="52"/>
<line x1="547" y1="55" x2="545" y2="53"/>
<line x1="542" y1="50" x2="540" y2="49"/>
<line x1="544" y1="52" x2="542" y2="50"/>
<line x1="537" y1="48" x2="535" y2="46"/>
<line x1="540" y1="49" x2="537" y2="48"/>
<line x1="532" y1="45" x2="529" y2="44"/>
<line x1="535" y1="46" x2="532" y2="45"/>
<line x1="526" y1="43" x2="523" y2="42"/>
<line x1="529" y1="44" x2="526" y2="43"/>
<line x1="520" y1="42" x2="517" y2="41"/>
<line x1="523" y1="42" x2="520" y2="42"/>
<line x1="514" y1="41" x2="510" y2="40"/>
<line x1="514" y1="41" x2="517" y2="41"/>
<line x1="478" y1="40" x2="474" y2="41"/>
<line x1="480" y1="40" x2="478" y2="40"/>
<line x1="472" y1="41" x2="467" y2="42"/>
<line x1="474" y1="41" x2="472" y2="41"/>
<line x1="465" y1="43" x2="461" y2="44"/>
<line x1="467" y1="42" x2="465" y2="43"/>
<line x1="460" y1="45" x2="456" y2="46"/>
<line x1="461" y1="44" x2="460" y2="45"/>
<line x1="454" y1="47" x2="451" y2="49"/>
<line x1="456" y1="46" x2="454" y2="47"/>
<line x1="450" y1="50" x2="447" y2="52"/>
<line x1="451" y1="49" x2="450" y2="50"/>
<line x1="446" y1="52" x2="444" y2="55"/>
<line x1="447" y1="52" x2="446" y2="52"/>
<line x1="443" y1="55" x2="441" y2="58"/>
<line x1="443" y1="55" x2="443" y2="55"/>
<line x1="443" y1="55" x2="444" y2="55"/>
<line x1="440" y1="61" x2="440" y2="61"/>
<line x1="441" y1="58" x2="440" y2="61"/>
<line x1="441" y1="58" x2="441" y2="58"/>
<line x1="441" y1="58" x2="441" y2="58"/>
<line x1="439" y1="64" x2="439" y2="64"/>
<line x1="439" y1="64" x2="440" y2="62"/>
<line x1="440" y1="61" x2="440" y2="62"/>
<line x1="440" y1="61" x2="440" y2="61"/>
<line x1="440" y1="65" x2="440" y2="65"/>
<line x1="440" y1="65" x2="440" y2="67"/>
<line x1="440" y1="65" x2="439" y2="64"/>
<line x1="440" y1="65" x2="440" y2="65"/>
<line x1="963" y1="90" x2="963" y2="90"/>
<line x1="938" y1="55" x2="938" y2="55"/>
<line x1="938" y1="55" x2="938" y2="55"/>
<line x1="938" y1="55" x2="938" y2="55"/>
<line x1="938" y1="55" x2="938" y2="55"/>
<line x1="937" y1="60" x2="937" y2="60"/>
<line x1="937" y1="61" x2="937" y2="61"/>
<line x1="937" y1="61" x2="937" y2="60"/>
<line x1="957" y1="90" x2="960" y2="90"/>
<line x1="956" y1="89" x2="957" y2="90"/>
<line x1="944" y1="83" x2="944" y2="83"/>
<line x1="944" y1="83" x2="944" y2="83"/>
<line x1="944" y1="83" x2="944" y2="83"/>
<line x1="939" y1="77" x2="939" y2="75"/>
<line x1="940" y1="77" x2="939" y2="77"/>
<line x1="940" y1="78" x2="940" y2="77"/>
<line x1="940" y1="78" x2="940" y2="78"/>
<line x1="944" y1="83" x2="944" y2="83"/>
<line x1="944" y1="83" x2="947" y2="85"/>
<line x1="944" y1="83" x2="944" y2="83"/>
<line x1="942" y1="81" x2="942" y2="81"/>
<line x1="943" y1="82" x2="942" y2="81"/>
<line x1="943" y1="82" x2="943" y2="82"/>
<line x1="943" y1="82" x2="944" y2="83"/>
<line x1="939" y1="54" x2="939" y2="54"/>
<line x1="939" y1="54" x2="939" y2="54"/>
<line x1="938" y1="54" x2="938" y2="55"/>
<line x1="938" y1="54" x2="939" y2="54"/>
<line x1="937" y1="69" x2="937" y2="69"/>
<line x1="937" y1="69" x2="937" y2="69"/>
<line x1="937" y1="69" x2="937" y2="69"/>
<line x1="941" y1="79" x2="940" y2="78"/>
<line x1="941" y1="80" x2="941" y2="79"/>
<line x1="942" y1="80" x2="941" y2="80"/>
<line x1="942" y1="80" x2="942" y2="80"/>
<line x1="942" y1="80" x2="942" y2="80"/>
<line x1="942" y1="80" x2="942" y2="80"/>
<line x1="942" y1="80" x2="942" y2="81"/>
<line x1="937" y1="61" x2="937" y2="61"/>
<line x1="937" y1="61" x2="936" y2="62"/>
<line x1="937" y1="61" x2="937" y2="61"/>
<line x1="936" y1="62" x2="936" y2="64"/>
<line x1="937" y1="61" x2="937" y2="61"/>
<line x1="937" y1="58" x2="937" y2="58"/>
<line x1="937" y1="58" x2="937" y2="58"/>
<line x1="937" y1="58" x2="937" y2="60"/>
<line x1="944" y1="47" x2="944" y2="47"/>
<line x1="944" y1="46" x2="944" y2="46"/>
<line x1="944" y1="47" x2="944" y2="46"/>
<line x1="944" y1="47" x2="944" y2="47"/>
<line x1="940" y1="52" x2="940" y2="52"/>
<line x1="940" y1="52" x2="940" y2="52"/>
<line x1="940" y1="52" x2="939" y2="54"/>
<line x1="938" y1="74" x2="937" y2="72"/>
<line x1="938" y1="74" x2="938" y2="74"/>
<line x1="938" y1="74" x2="938" y2="74"/>
<line x1="938" y1="74" x2="938" y2="74"/>
<line x1="953" y1="88" x2="950" y2="87"/>
<line x1="953" y1="88" x2="953" y2="88"/>
<line x1="960" y1="90" x2="963" y2="90"/>
<line x1="960" y1="90" x2="960" y2="90"/>
<line x1="938" y1="55" x2="938" y2="56"/>
<line x1="938" y1="56" x2="937" y2="58"/>
<line x1="938" y1="55" x2="938" y2="55"/>
<line x1="950" y1="42" x2="953" y2="41"/>
<line x1="950" y1="42" x2="950" y2="42"/>
<line x1="938" y1="75" x2="938" y2="75"/>
<line x1="939" y1="75" x2="938" y2="75"/>
<line x1="939" y1="75" x2="939" y2="75"/>
<line x1="938" y1="75" x2="938" y2="74"/>
<line x1="938" y1="75" x2="938" y2="75"/>
<line x1="938" y1="75" x2="938" y2="75"/>
<line x1="936" y1="64" x2="936" y2="64"/>
<line x1="936" y1="65" x2="936" y2="65"/>
<line x1="936" y1="64" x2="936" y2="64"/>
<line x1="936" y1="64" x2="936" y2="65"/>
<line x1="936" y1="67" x2="936" y2="65"/>
<line x1="936" y1="67" x2="936" y2="68"/>
<line x1="936" y1="68" x2="937" y2="68"/>
<line x1="937" y1="68" x2="937" y2="69"/>
<line x1="949" y1="87" x2="947" y2="85"/>
<line x1="950" y1="87" x2="949" y2="87"/>
<line x1="950" y1="87" x2="950" y2="87"/>
<line x1="942" y1="49" x2="941" y2="50"/>
<line x1="941" y1="50" x2="940" y2="52"/>
<line x1="942" y1="49" x2="942" y2="49"/>
<line x1="949" y1="43" x2="947" y2="44"/>
<line x1="949" y1="43" x2="950" y2="42"/>
<line x1="937" y1="71" x2="937" y2="69"/>
<line x1="937" y1="71" x2="937" y2="71"/>
<line x1="937" y1="72" x2="937" y2="71"/>
<line x1="937" y1="72" x2="937" y2="72"/>
<line x1="956" y1="89" x2="953" y2="88"/>
<line x1="956" y1="89" x2="956" y2="89"/>
<line x1="956" y1="89" x2="956" y2="89"/>
<line x1="942" y1="49" x2="942" y2="49"/>
<line x1="942" y1="49" x2="942" y2="49"/>
<line x1="942" y1="49" x2="942" y2="49"/>
<line x1="942" y1="49" x2="942" y2="49"/>
<line x1="944" y1="47" x2="943" y2="47"/>
<line x1="943" y1="47" x2="942" y2="49"/>
<line x1="944" y1="47" x2="944" y2="47"/>
<line x1="946" y1="45" x2="944" y2="46"/>
<line x1="947" y1="44" x2="946" y2="45"/>
<line x1="947" y1="44" x2="947" y2="44"/>
<line x1="947" y1="44" x2="947" y2="44"/>
<line x1="953" y1="41" x2="956" y2="40"/>
<line x1="953" y1="41" x2="953" y2="41"/>
</g></svg>