<svg xmlns="http://www.w3.org/2000/svg" width="1400" height="900" viewBox="0 0 1400 900">
<rect x="0" y="0" width="100%" height="100%" fill="white"/>
<g stroke="#111" stroke-width="1.2" fill="none" stroke-linecap="round">
<line x1="114" y1="724" x2="107" y2="724"/>
<line x1="1321" y1="511" x2="1321" y2="708"/>
<line x1="1321" y1="447" x2="1321" y2="511"/>
<line x1="1321" y1="417" x2="1321" y2="447"/>
<line x1="1321" y1="400" x2="1321" y2="417"/>
<line x1="1321" y1="400" x2="1321" y2="137"/>
<line x1="107" y1="137" x2="107" y2="304"/>
<line x1="107" y1="308" x2="107" y2="304"/>
<line x1="107" y1="312" x2="107" y2="724"/>
<line x1="107" y1="312" x2="107" y2="308"/>
<line x1="1315" y1="725" x2="1325" y2="725"/>
<line x1="844" y1="725" x2="839" y2="725"/>
<line x1="1315" y1="725" x2="1264" y2="725"/>
<line x1="1264" y1="725" x2="844" y2="725"/>
<line x1="347" y1="725" x2="366" y2="725"/>
<line x1="366" y1="725" x2="366" y2="725"/>
<line x1="366" y1="725" x2="385" y2="725"/>
<line x1="385" y1="725" x2="385" y2="725"/>
<line x1="385" y1="725" x2="403" y2="725"/>
<line x1="403" y1="725" x2="403" y2="725"/>
<line x1="403" y1="725" x2="420" y2="725"/>
<line x1="420" y1="725" x2="420" y2="725"/>
<line x1="420" y1="725" x2="437" y2="725"/>
<line x1="437" y1="725" x2="437" y2="725"/>
<line x1="437" y1="725" x2="453" y2="725"/>
<line x1="453" y1="725" x2="454" y2="725"/>
<line x1="454" y1="725" x2="469" y2="725"/>
<line x1="469" y1="725" x2="470" y2="725"/>
<line x1="470" y1="725" x2="485" y2="725"/>
<line x1="485" y1="725" x2="485" y2="725"/>
<line x1="485" y1="725" x2="500" y2="725"/>
<line x1="500" y1="725" x2="500" y2="725"/>
<line x1="500" y1="725" x2="515" y2="725"/>
<line x1="515" y1="725" x2="515" y2="725"/>
<line x1="515" y1="725" x2="529" y2="725"/>
<line x1="529" y1="725" x2="529" y2="725"/>
<line x1="529" y1="725" x2="543" y2="725"/>
<line x1="543" y1="725" x2="543" y2="725"/>
<line x1="543" y1="725" x2="557" y2="725"/>
<line x1="557" y1="725" x2="557" y2="725"/>
<line x1="557" y1="725" x2="570" y2="725"/>
<line x1="570" y1="725" x2="570" y2="725"/>
<line x1="570" y1="725" x2="583" y2="725"/>
<line x1="583" y1="725" x2="583" y2="725"/>
<line x1="583" y1="725" x2="596" y2="725"/>
<line x1="596" y1="725" x2="596" y2="725"/>
<line x1="596" y1="725" x2="608" y2="725"/>
<line x1="608" y1="725" x2="608" y2="725"/>
<line x1="608" y1="725" x2="621" y2="725"/>
<line x1="621" y1="725" x2="621" y2="725"/>
<line x1="621" y1="725" x2="633" y2="725"/>
<line x1="633" y1="725" x2="633" y2="725"/>
<line x1="633" y1="725" x2="644" y2="725"/>
<line x1="644" y1="725" x2="644" y2="725"/>
<line x1="644" y1="725" x2="656" y2="725"/>
<line x1="656" y1="725" x2="656" y2="725"/>
<line x1="656" y1="725" x2="667" y2="725"/>
<line x1="667" y1="725" x2="667" y2="725"/>
<line x1="667" y1="725" x2="678" y2="725"/>
<line x1="678" y1="725" x2="679" y2="725"/>
<line x1="679" y1="725" x2="689" y2="725"/>
<line x1="689" y1="725" x2="690" y2="725"/>
<line x1="690" y1="725" x2="700" y2="725"/>
<line x1="700" y1="725" x2="700" y2="725"/>
<line x1="700" y1="725" x2="711" y2="725"/>
<line x1="711" y1="725" x2="711" y2="725"/>
<line x1="711" y1="725" x2="721" y2="725"/>
<line x1="721" y1="725" x2="721" y2="725"/>
<line x1="721" y1="725" x2="732" y2="725"/>
<line x1="732" y1="725" x2="732" y2="725"/>
<line x1="732" y1="725" x2="742" y2="725"/>
<line x1="742" y1="725" x2="742" y2="725"/>
<line x1="742" y1="725" x2="752" y2="725"/>
<line x1="752" y1="725" x2="752" y2="725"/>
<line x1="752" y1="725" x2="762" y2="725"/>
<line x1="762" y1="725" x2="762" y2="725"/>
<line x1="762" y1="725" x2="771" y2="725"/>
<line x1="771" y1="725" x2="772" y2="725"/>
<line x1="772" y1="725" x2="781" y2="725"/>
<line x1="781" y1="725" x2="781" y2="725"/>
<line x1="781" y1="725" x2="791" y2="725"/>
<line x1="791" y1="725" x2="791" y2="725"/>
<line x1="791" y1="725" x2="800" y2="725"/>
<line x1="800" y1="725" x2="800" y2="725"/>
<line x1="800" y1="725" x2="809" y2="725"/>
<line x1="809" y1="725" x2="810" y2="725"/>
<line x1="810" y1="725" x2="819" y2="725"/>
<line x1="819" y1="725" x2="819" y2="725"/>
<line x1="839" y1="725" x2="819" y2="725"/>
<line x1="347" y1="725" x2="122" y2="725"/>
<line x1="114" y1="725" x2="122" y2="725"/>
<line x1="201" y1="763" x2="40" y2="763"/>
<line x1="201" y1="763" x2="202" y2="763"/>
<line x1="202" y1="763" x2="216" y2="763"/>
<line x1="216" y1="763" x2="216" y2="763"/>
<line x1="216" y1="763" x2="230" y2="763"/>
<line x1="230" y1="763" x2="230" y2="763"/>
<line x1="230" y1="763" x2="242" y2="763"/>
<line x1="242" y1="763" x2="243" y2="763"/>
<line x1="243" y1="763" x2="255" y2="763"/>
<line x1="255" y1="763" x2="255" y2="763"/>
<line x1="255" y1="763" x2="266" y2="763"/>
<line x1="266" y1="763" x2="267" y2="763"/>
<line x1="267" y1="763" x2="277" y2="763"/>
<line x1="277" y1="763" x2="278" y2="763"/>
<line x1="278" y1="763" x2="288" y2="763"/>
<line x1="288" y1="763" x2="288" y2="763"/>
<line x1="288" y1="763" x2="298" y2="763"/>
<line x1="298" y1="763" x2="298" y2="763"/>
<line x1="298" y1="763" x2="308" y2="763"/>
<line x1="308" y1="763" x2="308" y2="763"/>
<line x1="308" y1="763" x2="317" y2="763"/>
<line x1="317" y1="763" x2="317" y2="763"/>
<line x1="317" y1="763" x2="326" y2="763"/>
<line x1="326" y1="763" x2="326" y2="763"/>
<line x1="326" y1="763" x2="335" y2="763"/>
<line x1="335" y1="763" x2="335" y2="763"/>
<line x1="335" y1="763" x2="343" y2="763"/>
<line x1="343" y1="763" x2="343" y2="763"/>
<line x1="343" y1="763" x2="351" y2="763"/>
<line x1="351" y1="763" x2="351" y2="763"/>
<line x1="351" y1="763" x2="359" y2="763"/>
<line x1="359" y1="763" x2="359" y2="763"/>
<line x1="359" y1="763" x2="367" y2="763"/>
<line x1="367" y1="763" x2="367" y2="763"/>
<line x1="367" y1="763" x2="777" y2="763"/>
<line x1="1175" y1="763" x2="777" y2="763"/>
<line x1="1180" y1="763" x2="1175" y2="763"/>
<line x1="1186" y1="763" x2="1180" y2="763"/>
<line x1="1191" y1="763" x2="1186" y2="763"/>
<line x1="1197" y1="763" x2="1191" y2="763"/>
<line x1="1203" y1="763" x2="1197" y2="763"/>
<line x1="1210" y1="763" x2="1203" y2="763"/>
<line x1="1216" y1="763" x2="1210" y2="763"/>
<line x1="1223" y1="763" x2="1216" y2="763"/>
<line x1="1230" y1="763" x2="1223" y2="763"/>
<line x1="1237" y1="763" x2="1230" y2="763"/>
<line x1="1244" y1="763" x2="1237" y2="763"/>
<line x1="1251" y1="763" x2="1244" y2="763"/>
<line x1="1259" y1="763" x2="1251" y2="763"/>
<line x1="1267" y1="763" x2="1259" y2="763"/>
<line x1="1275" y1="763" x2="1267" y2="763"/>
<line x1="1284" y1="763" x2="1275" y2="763"/>
<line x1="1355" y1="763" x2="1284" y2="763"/>
<line x1="1330" y1="137" x2="1321" y2="137"/>
<line x1="1330" y1="137" x2="1355" y2="137"/>
<line x1="53" y1="137" x2="107" y2="137"/>
<line x1="47" y1="137" x2="53" y2="137"/>
<line x1="1360" y1="312" x2="1360" y2="175"/>
<line x1="1360" y1="420" x2="1360" y2="747"/>
<line x1="1360" y1="363" x2="1360" y2="420"/>
<line x1="1360" y1="339" x2="1360" y2="363"/>
<line x1="1360" y1="312" x2="1360" y2="339"/>
<line x1="40" y1="291" x2="40" y2="175"/>
<line x1="40" y1="297" x2="40" y2="291"/>
<line x1="40" y1="297" x2="40" y2="763"/>
<line x1="114" y1="725" x2="114" y2="724"/>
<line x1="114" y1="725" x2="114" y2="725"/>
<line x1="1325" y1="722" x2="1325" y2="720"/>
<line x1="1325" y1="722" x2="1325" y2="723"/>
<line x1="1322" y1="711" x2="1321" y2="708"/>
<line x1="1324" y1="715" x2="1324" y2="715"/>
<line x1="1324" y1="715" x2="1324" y2="716"/>
<line x1="1325" y1="723" x2="1325" y2="723"/>
<line x1="1325" y1="723" x2="1325" y2="724"/>
<line x1="1324" y1="718" x2="1324" y2="716"/>
<line x1="1324" y1="718" x2="1325" y2="720"/>
<line x1="1325" y1="725" x2="1325" y2="724"/>
<line x1="1325" y1="725" x2="1325" y2="725"/>
<line x1="1325" y1="725" x2="1325" y2="725"/>
<line x1="1323" y1="714" x2="1323" y2="714"/>
<line x1="1323" y1="714" x2="1324" y2="715"/>
<line x1="1323" y1="712" x2="1322" y2="711"/>
<line x1="1323" y1="712" x2="1323" y2="714"/>
<line x1="1357" y1="753" x2="1357" y2="754"/>
<line x1="1357" y1="753" x2="1357" y2="753"/>
<line x1="1356" y1="757" x2="1356" y2="759"/>
<line x1="1356" y1="757" x2="1357" y2="754"/>
<line x1="1360" y1="747" x2="1358" y2="750"/>
<line x1="1356" y1="759" x2="1356" y2="761"/>
<line x1="1356" y1="761" x2="1355" y2="763"/>
<line x1="1358" y1="750" x2="1358" y2="752"/>
<line x1="1358" y1="752" x2="1357" y2="753"/>
<line x1="54" y1="139" x2="54" y2="138"/>
<line x1="54" y1="139" x2="56" y2="140"/>
<line x1="47" y1="174" x2="44" y2="175"/>
<line x1="47" y1="174" x2="47" y2="174"/>
<line x1="67" y1="156" x2="67" y2="156"/>
<line x1="67" y1="157" x2="67" y2="156"/>
<line x1="67" y1="157" x2="67" y2="157"/>
<line x1="67" y1="158" x2="67" y2="157"/>
<line x1="67" y1="158" x2="67" y2="158"/>
<line x1="64" y1="146" x2="63" y2="145"/>
<line x1="65" y1="148" x2="65" y2="148"/>
<line x1="65" y1="147" x2="64" y2="146"/>
<line x1="65" y1="148" x2="65" y2="148"/>
<line x1="65" y1="148" x2="65" y2="147"/>
<line x1="65" y1="148" x2="65" y2="148"/>
<line x1="66" y1="150" x2="66" y2="150"/>
<line x1="66" y1="149" x2="65" y2="148"/>
<line x1="66" y1="150" x2="66" y2="150"/>
<line x1="66" y1="150" x2="66" y2="149"/>
<line x1="65" y1="163" x2="65" y2="163"/>
<line x1="65" y1="164" x2="65" y2="163"/>
<line x1="65" y1="164" x2="64" y2="164"/>
<line x1="64" y1="164" x2="64" y2="165"/>
<line x1="64" y1="165" x2="63" y2="166"/>
<line x1="67" y1="153" x2="67" y2="153"/>
<line x1="67" y1="153" x2="67" y2="153"/>
<line x1="67" y1="154" x2="67" y2="153"/>
<line x1="67" y1="155" x2="67" y2="154"/>
<line x1="67" y1="155" x2="67" y2="155"/>
<line x1="66" y1="150" x2="66" y2="150"/>
<line x1="66" y1="150" x2="66" y2="150"/>
<line x1="67" y1="152" x2="66" y2="150"/>
<line x1="67" y1="152" x2="67" y2="152"/>
<line x1="67" y1="152" x2="67" y2="153"/>
<line x1="67" y1="155" x2="67" y2="155"/>
<line x1="67" y1="155" x2="67" y2="156"/>
<line x1="43" y1="175" x2="40" y2="175"/>
<line x1="43" y1="175" x2="44" y2="175"/>
<line x1="57" y1="171" x2="59" y2="169"/>
<line x1="57" y1="171" x2="57" y2="171"/>
<line x1="57" y1="171" x2="56" y2="171"/>
<line x1="67" y1="159" x2="67" y2="158"/>
<line x1="67" y1="159" x2="67" y2="159"/>
<line x1="66" y1="160" x2="67" y2="159"/>
<line x1="66" y1="160" x2="66" y2="160"/>
<line x1="66" y1="160" x2="66" y2="161"/>
<line x1="50" y1="137" x2="47" y2="137"/>
<line x1="50" y1="137" x2="50" y2="137"/>
<line x1="53" y1="173" x2="50" y2="174"/>
<line x1="53" y1="173" x2="54" y2="173"/>
<line x1="59" y1="142" x2="59" y2="142"/>
<line x1="61" y1="143" x2="61" y2="143"/>
<line x1="61" y1="143" x2="59" y2="142"/>
<line x1="61" y1="143" x2="61" y2="143"/>
<line x1="61" y1="143" x2="61" y2="143"/>
<line x1="50" y1="174" x2="47" y2="174"/>
<line x1="50" y1="174" x2="50" y2="174"/>
<line x1="54" y1="172" x2="56" y2="171"/>
<line x1="54" y1="172" x2="54" y2="173"/>
<line x1="57" y1="140" x2="59" y2="142"/>
<line x1="57" y1="140" x2="57" y2="140"/>
<line x1="57" y1="140" x2="57" y2="140"/>
<line x1="57" y1="140" x2="56" y2="140"/>
<line x1="66" y1="161" x2="66" y2="161"/>
<line x1="66" y1="161" x2="66" y2="161"/>
<line x1="66" y1="161" x2="66" y2="162"/>
<line x1="66" y1="162" x2="65" y2="163"/>
<line x1="65" y1="163" x2="65" y2="163"/>
<line x1="63" y1="166" x2="63" y2="166"/>
<line x1="63" y1="166" x2="63" y2="166"/>
<line x1="63" y1="166" x2="63" y2="166"/>
<line x1="63" y1="166" x2="62" y2="167"/>
<line x1="62" y1="167" x2="61" y2="168"/>
<line x1="61" y1="168" x2="61" y2="168"/>
<line x1="61" y1="168" x2="61" y2="168"/>
<line x1="61" y1="168" x2="61" y2="168"/>
<line x1="61" y1="168" x2="60" y2="169"/>
<line x1="60" y1="169" x2="59" y2="169"/>
<line x1="62" y1="144" x2="61" y2="143"/>
<line x1="63" y1="145" x2="63" y2="145"/>
<line x1="63" y1="145" x2="62" y2="144"/>
<line x1="63" y1="145" x2="63" y2="145"/>
<line x1="63" y1="145" x2="63" y2="145"/>
<line x1="53" y1="138" x2="50" y2="137"/>
<line x1="54" y1="138" x2="53" y2="138"/>
<line x1="1360" y1="175" x2="1360" y2="175"/>
<line x1="1340" y1="150" x2="1340" y2="150"/>
<line x1="1341" y1="148" x2="1341" y2="148"/>
<line x1="1341" y1="148" x2="1341" y2="148"/>
<line x1="1340" y1="150" x2="1341" y2="148"/>
<line x1="1340" y1="151" x2="1340" y2="151"/>
<line x1="1340" y1="153" x2="1340" y2="153"/>
<line x1="1340" y1="153" x2="1340" y2="151"/>
<line x1="1357" y1="175" x2="1357" y2="175"/>
<line x1="1355" y1="174" x2="1357" y2="175"/>
<line x1="1345" y1="169" x2="1344" y2="168"/>
<line x1="1345" y1="169" x2="1345" y2="169"/>
<line x1="1345" y1="169" x2="1345" y2="169"/>
<line x1="1342" y1="165" x2="1342" y2="165"/>
<line x1="1342" y1="165" x2="1342" y2="165"/>
<line x1="1342" y1="165" x2="1342" y2="165"/>
<line x1="1342" y1="165" x2="1342" y2="166"/>
<line x1="1347" y1="171" x2="1346" y2="170"/>
<line x1="1347" y1="171" x2="1348" y2="171"/>
<line x1="1345" y1="169" x2="1346" y2="170"/>
<line x1="1344" y1="168" x2="1344" y2="168"/>
<line x1="1344" y1="168" x2="1344" y2="168"/>
<line x1="1344" y1="168" x2="1344" y2="168"/>
<line x1="1344" y1="168" x2="1344" y2="168"/>
<line x1="1342" y1="146" x2="1342" y2="146"/>
<line x1="1342" y1="147" x2="1342" y2="146"/>
<line x1="1341" y1="148" x2="1341" y2="148"/>
<line x1="1341" y1="148" x2="1342" y2="147"/>
<line x1="1340" y1="159" x2="1340" y2="159"/>
<line x1="1340" y1="159" x2="1340" y2="158"/>
<line x1="1340" y1="159" x2="1340" y2="160"/>
<line x1="1342" y1="166" x2="1342" y2="166"/>
<line x1="1342" y1="166" x2="1342" y2="166"/>
<line x1="1343" y1="166" x2="1342" y2="166"/>
<line x1="1343" y1="166" x2="1343" y2="166"/>
<line x1="1343" y1="167" x2="1343" y2="166"/>
<line x1="1343" y1="167" x2="1344" y2="168"/>
<line x1="1344" y1="168" x2="1344" y2="168"/>
<line x1="1340" y1="153" x2="1340" y2="153"/>
<line x1="1340" y1="155" x2="1340" y2="155"/>
<line x1="1340" y1="153" x2="1340" y2="153"/>
<line x1="1340" y1="155" x2="1339" y2="155"/>
<line x1="1340" y1="155" x2="1340" y2="153"/>
<line x1="1340" y1="150" x2="1340" y2="150"/>
<line x1="1340" y1="150" x2="1340" y2="150"/>
<line x1="1340" y1="150" x2="1340" y2="151"/>
<line x1="1344" y1="143" x2="1344" y2="143"/>
<line x1="1345" y1="142" x2="1345" y2="142"/>
<line x1="1345" y1="142" x2="1345" y2="142"/>
<line x1="1344" y1="143" x2="1345" y2="142"/>
<line x1="1342" y1="146" x2="1342" y2="145"/>
<line x1="1342" y1="146" x2="1342" y2="146"/>
<line x1="1342" y1="146" x2="1342" y2="146"/>
<line x1="1340" y1="161" x2="1340" y2="161"/>
<line x1="1340" y1="161" x2="1340" y2="161"/>
<line x1="1340" y1="161" x2="1340" y2="161"/>
<line x1="1340" y1="161" x2="1340" y2="161"/>
<line x1="1350" y1="173" x2="1350" y2="173"/>
<line x1="1350" y1="173" x2="1352" y2="174"/>
<line x1="1360" y1="175" x2="1360" y2="175"/>
<line x1="1357" y1="175" x2="1360" y2="175"/>
<line x1="1340" y1="150" x2="1340" y2="150"/>
<line x1="1340" y1="150" x2="1340" y2="150"/>
<line x1="1340" y1="150" x2="1340" y2="150"/>
<line x1="1352" y1="138" x2="1352" y2="137"/>
<line x1="1352" y1="138" x2="1350" y2="138"/>
<line x1="1341" y1="163" x2="1341" y2="163"/>
<line x1="1342" y1="165" x2="1341" y2="163"/>
<line x1="1342" y1="165" x2="1342" y2="165"/>
<line x1="1340" y1="161" x2="1340" y2="161"/>
<line x1="1340" y1="161" x2="1341" y2="163"/>
<line x1="1341" y1="163" x2="1341" y2="163"/>
<line x1="1339" y1="156" x2="1339" y2="156"/>
<line x1="1339" y1="156" x2="1339" y2="156"/>
<line x1="1339" y1="155" x2="1339" y2="156"/>
<line x1="1339" y1="156" x2="1339" y2="156"/>
<line x1="1340" y1="156" x2="1339" y2="156"/>
<line x1="1340" y1="156" x2="1340" y2="158"/>
<line x1="1340" y1="158" x2="1340" y2="158"/>
<line x1="1340" y1="158" x2="1340" y2="158"/>
<line x1="1348" y1="171" x2="1348" y2="171"/>
<line x1="1350" y1="173" x2="1348" y2="171"/>
<line x1="1350" y1="173" x2="1350" y2="173"/>
<line x1="1343" y1="145" x2="1342" y2="145"/>
<line x1="1342" y1="145" x2="1342" y2="145"/>
<line x1="1343" y1="145" x2="1343" y2="145"/>
<line x1="1348" y1="140" x2="1348" y2="140"/>
<line x1="1348" y1="140" x2="1350" y2="138"/>
<line x1="1340" y1="161" x2="1340" y2="160"/>
<line x1="1340" y1="161" x2="1340" y2="161"/>
<line x1="1340" y1="161" x2="1340" y2="161"/>
<line x1="1340" y1="161" x2="1340" y2="161"/>
<line x1="1353" y1="174" x2="1352" y2="174"/>
<line x1="1354" y1="174" x2="1353" y2="174"/>
<line x1="1354" y1="174" x2="1355" y2="174"/>
<line x1="1343" y1="145" x2="1343" y2="145"/>
<line x1="1344" y1="144" x2="1344" y2="143"/>
<line x1="1343" y1="144" x2="1344" y2="144"/>
<line x1="1343" y1="145" x2="1343" y2="144"/>
<line x1="1344" y1="143" x2="1344" y2="143"/>
<line x1="1344" y1="143" x2="1344" y2="143"/>
<line x1="1344" y1="143" x2="1344" y2="143"/>
<line x1="1346" y1="141" x2="1345" y2="142"/>
<line x1="1347" y1="141" x2="1346" y2="141"/>
<line x1="1347" y1="140" x2="1347" y2="141"/>
<line x1="1347" y1="140" x2="1348" y2="140"/>
<line x1="1354" y1="137" x2="1355" y2="137"/>
<line x1="1354" y1="137" x2="1352" y2="137"/>
</g></svg>