<svg xmlns="http://www.w3.org/2000/svg" width="1400" height="900" viewBox="0 0 1400 900">
<rect x="0" y="0" width="100%" height="100%" fill="white"/>
<g stroke="#111" stroke-width="1.2" fill="none" stroke-linecap="round">
<line x1="1296" y1="755" x2="1296" y2="755"/>
<line x1="1296" y1="755" x2="1296" y2="755"/>
<line x1="1296" y1="755" x2="1296" y2="755"/>
<line x1="1296" y1="755" x2="1296" y2="755"/>
<line x1="1296" y1="755" x2="1296" y2="755"/>
<line x1="1296" y1="755" x2="1296" y2="755"/>
<line x1="1296" y1="755" x2="1296" y2="755"/>
<line x1="1296" y1="755" x2="1296" y2="755"/>
<line x1="1296" y1="755" x2="1296" y2="755"/>
<line x1="1295" y1="755" x2="1296" y2="755"/>
<line x1="1295" y1="755" x2="1295" y2="755"/>
<line x1="1295" y1="755" x2="1295" y2="755"/>
<line x1="1295" y1="755" x2="1295" y2="755"/>
<line x1="1294" y1="755" x2="1295" y2="755"/>
<line x1="1294" y1="755" x2="1294" y2="755"/>
<line x1="1294" y1="755" x2="1294" y2="755"/>
<line x1="1294" y1="755" x2="1294" y2="755"/>
<line x1="1292" y1="755" x2="1294" y2="755"/>
<line x1="1292" y1="755" x2="1292" y2="755"/>
<line x1="1292" y1="755" x2="1292" y2="755"/>
<line x1="1292" y1="755" x2="1292" y2="755"/>
<line x1="1291" y1="755" x2="1292" y2="755"/>
<line x1="1291" y1="755" x2="1291" y2="755"/>
<line x1="1291" y1="755" x2="1291" y2="755"/>
<line x1="1288" y1="755" x2="1291" y2="755"/>
<line x1="1288" y1="755" x2="1288" y2="755"/>
<line x1="1288" y1="755" x2="1288" y2="755"/>
<line x1="1288" y1="755" x2="1288" y2="755"/>
<line x1="1285" y1="755" x2="1288" y2="755"/>
<line x1="1285" y1="755" x2="1285" y2="755"/>
<line x1="1285" y1="755" x2="1285" y2="755"/>
<line x1="1281" y1="755" x2="1285" y2="755"/>
<line x1="1281" y1="755" x2="1281" y2="755"/>
<line x1="1281" y1="755" x2="1281" y2="755"/>
<line x1="1281" y1="755" x2="1281" y2="755"/>
<line x1="1275" y1="755" x2="1281" y2="755"/>
<line x1="1313" y1="755" x2="1312" y2="755"/>
<line x1="1312" y1="755" x2="1312" y2="755"/>
<line x1="1312" y1="755" x2="1307" y2="755"/>
<line x1="1307" y1="755" x2="1307" y2="755"/>
<line x1="1307" y1="755" x2="1303" y2="755"/>
<line x1="1303" y1="755" x2="1303" y2="755"/>
<line x1="1303" y1="755" x2="1300" y2="755"/>
<line x1="1300" y1="755" x2="1300" y2="755"/>
<line x1="1300" y1="755" x2="1296" y2="755"/>
<line x1="87" y1="755" x2="87" y2="755"/>
<line x1="88" y1="755" x2="87" y2="755"/>
<line x1="89" y1="755" x2="88" y2="755"/>
<line x1="90" y1="755" x2="89" y2="755"/>
<line x1="90" y1="755" x2="90" y2="755"/>
<line x1="90" y1="755" x2="90" y2="755"/>
<line x1="91" y1="755" x2="90" y2="755"/>
<line x1="91" y1="755" x2="94" y2="755"/>
<line x1="1313" y1="300" x2="1313" y2="755"/>
<line x1="1313" y1="300" x2="1313" y2="101"/>
<line x1="87" y1="749" x2="87" y2="749"/>
<line x1="87" y1="749" x2="87" y2="755"/>
<line x1="87" y1="686" x2="87" y2="101"/>
<line x1="87" y1="686" x2="87" y2="716"/>
<line x1="50" y1="716" x2="50" y2="716"/>
<line x1="50" y1="716" x2="50" y2="716"/>
<line x1="95" y1="755" x2="94" y2="755"/>
<line x1="95" y1="755" x2="95" y2="756"/>
<line x1="87" y1="749" x2="87" y2="749"/>
<line x1="86" y1="748" x2="87" y2="749"/>
<line x1="84" y1="746" x2="86" y2="748"/>
<line x1="83" y1="745" x2="84" y2="746"/>
<line x1="82" y1="744" x2="83" y2="745"/>
<line x1="81" y1="743" x2="82" y2="744"/>
<line x1="79" y1="742" x2="81" y2="743"/>
<line x1="78" y1="741" x2="79" y2="742"/>
<line x1="77" y1="739" x2="78" y2="741"/>
<line x1="75" y1="738" x2="77" y2="739"/>
<line x1="74" y1="737" x2="75" y2="738"/>
<line x1="73" y1="736" x2="74" y2="737"/>
<line x1="71" y1="735" x2="73" y2="736"/>
<line x1="70" y1="734" x2="71" y2="735"/>
<line x1="69" y1="732" x2="70" y2="734"/>
<line x1="69" y1="732" x2="68" y2="732"/>
<line x1="68" y1="732" x2="68" y2="732"/>
<line x1="68" y1="732" x2="68" y2="732"/>
<line x1="67" y1="731" x2="68" y2="732"/>
<line x1="66" y1="730" x2="67" y2="731"/>
<line x1="65" y1="729" x2="66" y2="730"/>
<line x1="63" y1="728" x2="65" y2="729"/>
<line x1="62" y1="727" x2="63" y2="728"/>
<line x1="61" y1="725" x2="62" y2="727"/>
<line x1="59" y1="724" x2="61" y2="725"/>
<line x1="51" y1="717" x2="59" y2="724"/>
<line x1="51" y1="717" x2="51" y2="717"/>
<line x1="51" y1="717" x2="50" y2="716"/>
<line x1="1275" y1="755" x2="1274" y2="756"/>
<line x1="1275" y1="755" x2="1275" y2="755"/>
<line x1="372" y1="756" x2="381" y2="756"/>
<line x1="95" y1="756" x2="372" y2="756"/>
<line x1="1274" y1="756" x2="1270" y2="756"/>
<line x1="1270" y1="756" x2="1269" y2="756"/>
<line x1="1269" y1="756" x2="1180" y2="756"/>
<line x1="1180" y1="756" x2="1180" y2="756"/>
<line x1="1180" y1="756" x2="1104" y2="756"/>
<line x1="1104" y1="756" x2="1103" y2="756"/>
<line x1="1103" y1="756" x2="1037" y2="756"/>
<line x1="1037" y1="756" x2="1037" y2="756"/>
<line x1="1037" y1="756" x2="979" y2="756"/>
<line x1="979" y1="756" x2="979" y2="756"/>
<line x1="979" y1="756" x2="928" y2="756"/>
<line x1="928" y1="756" x2="927" y2="756"/>
<line x1="927" y1="756" x2="882" y2="756"/>
<line x1="882" y1="756" x2="882" y2="756"/>
<line x1="882" y1="756" x2="842" y2="756"/>
<line x1="842" y1="756" x2="841" y2="756"/>
<line x1="841" y1="756" x2="805" y2="756"/>
<line x1="805" y1="756" x2="804" y2="756"/>
<line x1="804" y1="756" x2="771" y2="756"/>
<line x1="771" y1="756" x2="771" y2="756"/>
<line x1="771" y1="756" x2="741" y2="756"/>
<line x1="741" y1="756" x2="741" y2="756"/>
<line x1="741" y1="756" x2="713" y2="756"/>
<line x1="713" y1="756" x2="713" y2="756"/>
<line x1="713" y1="756" x2="688" y2="756"/>
<line x1="688" y1="756" x2="688" y2="756"/>
<line x1="688" y1="756" x2="664" y2="756"/>
<line x1="664" y1="756" x2="664" y2="756"/>
<line x1="664" y1="756" x2="642" y2="756"/>
<line x1="642" y1="756" x2="642" y2="756"/>
<line x1="642" y1="756" x2="622" y2="756"/>
<line x1="622" y1="756" x2="622" y2="756"/>
<line x1="622" y1="756" x2="603" y2="756"/>
<line x1="603" y1="756" x2="603" y2="756"/>
<line x1="603" y1="756" x2="586" y2="756"/>
<line x1="586" y1="756" x2="586" y2="756"/>
<line x1="586" y1="756" x2="569" y2="756"/>
<line x1="569" y1="756" x2="569" y2="756"/>
<line x1="569" y1="756" x2="554" y2="756"/>
<line x1="554" y1="756" x2="554" y2="756"/>
<line x1="554" y1="756" x2="539" y2="756"/>
<line x1="539" y1="756" x2="539" y2="756"/>
<line x1="539" y1="756" x2="525" y2="756"/>
<line x1="525" y1="756" x2="525" y2="756"/>
<line x1="525" y1="756" x2="512" y2="756"/>
<line x1="512" y1="756" x2="512" y2="756"/>
<line x1="512" y1="756" x2="500" y2="756"/>
<line x1="500" y1="756" x2="500" y2="756"/>
<line x1="500" y1="756" x2="488" y2="756"/>
<line x1="488" y1="756" x2="488" y2="756"/>
<line x1="488" y1="756" x2="477" y2="756"/>
<line x1="477" y1="756" x2="477" y2="756"/>
<line x1="477" y1="756" x2="467" y2="756"/>
<line x1="467" y1="756" x2="467" y2="756"/>
<line x1="467" y1="756" x2="457" y2="756"/>
<line x1="457" y1="756" x2="457" y2="756"/>
<line x1="457" y1="756" x2="447" y2="756"/>
<line x1="447" y1="756" x2="447" y2="756"/>
<line x1="447" y1="756" x2="438" y2="756"/>
<line x1="438" y1="756" x2="438" y2="756"/>
<line x1="438" y1="756" x2="429" y2="756"/>
<line x1="429" y1="756" x2="429" y2="756"/>
<line x1="429" y1="756" x2="421" y2="756"/>
<line x1="421" y1="756" x2="421" y2="756"/>
<line x1="421" y1="756" x2="412" y2="756"/>
<line x1="412" y1="756" x2="412" y2="756"/>
<line x1="412" y1="756" x2="405" y2="756"/>
<line x1="405" y1="756" x2="405" y2="756"/>
<line x1="405" y1="756" x2="397" y2="756"/>
<line x1="397" y1="756" x2="397" y2="756"/>
<line x1="381" y1="756" x2="397" y2="756"/>
<line x1="51" y1="716" x2="51" y2="716"/>
<line x1="87" y1="716" x2="87" y2="716"/>
<line x1="86" y1="716" x2="87" y2="716"/>
<line x1="85" y1="716" x2="86" y2="716"/>
<line x1="83" y1="716" x2="85" y2="716"/>
<line x1="82" y1="716" x2="83" y2="716"/>
<line x1="81" y1="716" x2="82" y2="716"/>
<line x1="79" y1="716" x2="81" y2="716"/>
<line x1="78" y1="716" x2="79" y2="716"/>
<line x1="51" y1="716" x2="50" y2="716"/>
<line x1="77" y1="716" x2="78" y2="716"/>
<line x1="75" y1="716" x2="77" y2="716"/>
<line x1="74" y1="716" x2="75" y2="716"/>
<line x1="73" y1="716" x2="74" y2="716"/>
<line x1="71" y1="716" x2="73" y2="716"/>
<line x1="70" y1="716" x2="71" y2="716"/>
<line x1="69" y1="716" x2="70" y2="716"/>
<line x1="67" y1="716" x2="69" y2="716"/>
<line x1="66" y1="716" x2="67" y2="716"/>
<line x1="65" y1="716" x2="66" y2="716"/>
<line x1="63" y1="716" x2="65" y2="716"/>
<line x1="62" y1="716" x2="63" y2="716"/>
<line x1="61" y1="716" x2="62" y2="716"/>
<line x1="59" y1="716" x2="61" y2="716"/>
<line x1="58" y1="716" x2="59" y2="716"/>
<line x1="57" y1="716" x2="58" y2="716"/>
<line x1="55" y1="716" x2="57" y2="716"/>
<line x1="50" y1="716" x2="50" y2="716"/>
<line x1="54" y1="716" x2="55" y2="716"/>
<line x1="53" y1="716" x2="54" y2="716"/>
<line x1="51" y1="716" x2="53" y2="716"/>
<line x1="51" y1="716" x2="51" y2="716"/>
<line x1="51" y1="716" x2="51" y2="716"/>
<line x1="51" y1="716" x2="51" y2="716"/>
<line x1="50" y1="716" x2="50" y2="716"/>
<line x1="1333" y1="799" x2="1360" y2="799"/>
<line x1="1333" y1="799" x2="1332" y2="799"/>
<line x1="1332" y1="799" x2="1287" y2="799"/>
<line x1="1287" y1="799" x2="1286" y2="799"/>
<line x1="1286" y1="799" x2="1246" y2="799"/>
<line x1="1246" y1="799" x2="1245" y2="799"/>
<line x1="1245" y1="799" x2="1211" y2="799"/>
<line x1="1211" y1="799" x2="1210" y2="799"/>
<line x1="1210" y1="799" x2="1179" y2="799"/>
<line x1="1179" y1="799" x2="1179" y2="799"/>
<line x1="1179" y1="799" x2="1151" y2="799"/>
<line x1="1151" y1="799" x2="1150" y2="799"/>
<line x1="1150" y1="799" x2="1126" y2="799"/>
<line x1="1126" y1="799" x2="1125" y2="799"/>
<line x1="1125" y1="799" x2="1103" y2="799"/>
<line x1="1103" y1="799" x2="1102" y2="799"/>
<line x1="1102" y1="799" x2="1082" y2="799"/>
<line x1="1082" y1="799" x2="1081" y2="799"/>
<line x1="1081" y1="799" x2="1062" y2="799"/>
<line x1="1062" y1="799" x2="1062" y2="799"/>
<line x1="1062" y1="799" x2="1045" y2="799"/>
<line x1="1045" y1="799" x2="1044" y2="799"/>
<line x1="1044" y1="799" x2="1028" y2="799"/>
<line x1="1028" y1="799" x2="1028" y2="799"/>
<line x1="1028" y1="799" x2="645" y2="799"/>
<line x1="48" y1="799" x2="40" y2="799"/>
<line x1="77" y1="799" x2="48" y2="799"/>
<line x1="103" y1="799" x2="77" y2="799"/>
<line x1="126" y1="799" x2="103" y2="799"/>
<line x1="148" y1="799" x2="126" y2="799"/>
<line x1="148" y1="799" x2="645" y2="799"/>
<line x1="1331" y1="101" x2="1320" y2="101"/>
<line x1="1320" y1="101" x2="1320" y2="101"/>
<line x1="1317" y1="101" x2="1320" y2="101"/>
<line x1="1317" y1="101" x2="1317" y2="101"/>
<line x1="1313" y1="101" x2="1317" y2="101"/>
<line x1="87" y1="101" x2="84" y2="101"/>
<line x1="40" y1="101" x2="84" y2="101"/>
<line x1="1358" y1="101" x2="1358" y2="101"/>
<line x1="1358" y1="101" x2="1360" y2="101"/>
<line x1="1358" y1="101" x2="1343" y2="101"/>
<line x1="1360" y1="427" x2="1360" y2="101"/>
<line x1="1360" y1="427" x2="1360" y2="799"/>
<line x1="40" y1="285" x2="40" y2="799"/>
<line x1="40" y1="285" x2="40" y2="101"/>
<line x1="84" y1="127" x2="84" y2="128"/>
<line x1="84" y1="127" x2="85" y2="126"/>
<line x1="84" y1="130" x2="83" y2="131"/>
<line x1="84" y1="130" x2="84" y2="128"/>
<line x1="83" y1="132" x2="82" y2="133"/>
<line x1="83" y1="132" x2="83" y2="131"/>
<line x1="81" y1="135" x2="80" y2="136"/>
<line x1="81" y1="135" x2="82" y2="133"/>
<line x1="79" y1="137" x2="78" y2="138"/>
<line x1="79" y1="137" x2="80" y2="136"/>
<line x1="78" y1="139" x2="76" y2="140"/>
<line x1="78" y1="139" x2="78" y2="138"/>
<line x1="75" y1="140" x2="74" y2="141"/>
<line x1="75" y1="140" x2="76" y2="140"/>
<line x1="73" y1="142" x2="71" y2="142"/>
<line x1="73" y1="142" x2="74" y2="141"/>
<line x1="70" y1="143" x2="69" y2="143"/>
<line x1="70" y1="143" x2="71" y2="142"/>
<line x1="67" y1="144" x2="66" y2="144"/>
<line x1="67" y1="144" x2="69" y2="143"/>
<line x1="65" y1="144" x2="63" y2="144"/>
<line x1="65" y1="144" x2="66" y2="144"/>
<line x1="62" y1="144" x2="60" y2="144"/>
<line x1="62" y1="144" x2="63" y2="144"/>
<line x1="59" y1="144" x2="58" y2="143"/>
<line x1="59" y1="144" x2="60" y2="144"/>
<line x1="56" y1="143" x2="55" y2="142"/>
<line x1="56" y1="143" x2="58" y2="143"/>
<line x1="54" y1="142" x2="52" y2="141"/>
<line x1="54" y1="142" x2="55" y2="142"/>
<line x1="51" y1="140" x2="50" y2="140"/>
<line x1="51" y1="140" x2="52" y2="141"/>
<line x1="49" y1="139" x2="48" y2="138"/>
<line x1="49" y1="139" x2="50" y2="140"/>
<line x1="47" y1="137" x2="46" y2="136"/>
<line x1="47" y1="137" x2="48" y2="138"/>
<line x1="45" y1="135" x2="44" y2="133"/>
<line x1="45" y1="135" x2="46" y2="136"/>
<line x1="44" y1="132" x2="43" y2="131"/>
<line x1="44" y1="132" x2="44" y2="133"/>
<line x1="43" y1="130" x2="42" y2="128"/>
<line x1="43" y1="130" x2="43" y2="131"/>
<line x1="42" y1="127" x2="42" y2="126"/>
<line x1="42" y1="127" x2="42" y2="128"/>
<line x1="42" y1="124" x2="42" y2="123"/>
<line x1="42" y1="124" x2="42" y2="126"/>
<line x1="42" y1="121" x2="42" y2="120"/>
<line x1="42" y1="123" x2="42" y2="121"/>
<line x1="42" y1="119" x2="42" y2="117"/>
<line x1="42" y1="120" x2="42" y2="119"/>
<line x1="43" y1="116" x2="43" y2="115"/>
<line x1="42" y1="117" x2="43" y2="116"/>
<line x1="44" y1="113" x2="44" y2="112"/>
<line x1="43" y1="115" x2="44" y2="113"/>
<line x1="45" y1="111" x2="46" y2="110"/>
<line x1="44" y1="112" x2="45" y2="111"/>
<line x1="47" y1="109" x2="48" y2="108"/>
<line x1="46" y1="110" x2="47" y2="109"/>
<line x1="49" y1="107" x2="50" y2="106"/>
<line x1="48" y1="108" x2="49" y2="107"/>
<line x1="51" y1="105" x2="52" y2="104"/>
<line x1="50" y1="106" x2="51" y2="105"/>
<line x1="54" y1="104" x2="55" y2="103"/>
<line x1="52" y1="104" x2="54" y2="104"/>
<line x1="56" y1="103" x2="58" y2="102"/>
<line x1="55" y1="103" x2="56" y2="103"/>
<line x1="59" y1="102" x2="60" y2="102"/>
<line x1="58" y1="102" x2="59" y2="102"/>
<line x1="62" y1="102" x2="63" y2="101"/>
<line x1="60" y1="102" x2="62" y2="102"/>
<line x1="65" y1="102" x2="66" y2="102"/>
<line x1="63" y1="101" x2="65" y2="102"/>
<line x1="67" y1="102" x2="69" y2="102"/>
<line x1="66" y1="102" x2="67" y2="102"/>
<line x1="70" y1="103" x2="71" y2="103"/>
<line x1="69" y1="102" x2="70" y2="103"/>
<line x1="73" y1="104" x2="74" y2="104"/>
<line x1="71" y1="103" x2="73" y2="104"/>
<line x1="75" y1="105" x2="76" y2="106"/>
<line x1="74" y1="104" x2="75" y2="105"/>
<line x1="77" y1="107" x2="78" y2="108"/>
<line x1="76" y1="106" x2="77" y2="107"/>
<line x1="79" y1="109" x2="80" y2="110"/>
<line x1="78" y1="108" x2="79" y2="109"/>
<line x1="81" y1="111" x2="82" y2="112"/>
<line x1="80" y1="110" x2="81" y2="111"/>
<line x1="82" y1="113" x2="83" y2="115"/>
<line x1="82" y1="112" x2="82" y2="113"/>
<line x1="84" y1="116" x2="84" y2="117"/>
<line x1="83" y1="115" x2="84" y2="116"/>
<line x1="84" y1="119" x2="85" y2="120"/>
<line x1="84" y1="117" x2="84" y2="119"/>
<line x1="85" y1="121" x2="85" y2="123"/>
<line x1="85" y1="120" x2="85" y2="121"/>
<line x1="85" y1="124" x2="85" y2="126"/>
<line x1="85" y1="124" x2="85" y2="123"/>
<line x1="1358" y1="126" x2="1358" y2="126"/>
<line x1="1358" y1="126" x2="1358" y2="127"/>
<line x1="1358" y1="126" x2="1358" y2="125"/>
<line x1="1358" y1="126" x2="1358" y2="126"/>
<line x1="1357" y1="129" x2="1357" y2="130"/>
<line x1="1357" y1="129" x2="1358" y2="127"/>
<line x1="1357" y1="129" x2="1357" y2="129"/>
<line x1="1356" y1="132" x2="1356" y2="132"/>
<line x1="1356" y1="132" x2="1357" y2="130"/>
<line x1="1355" y1="134" x2="1354" y2="135"/>
<line x1="1355" y1="134" x2="1356" y2="132"/>
<line x1="1353" y1="136" x2="1352" y2="137"/>
<line x1="1353" y1="136" x2="1354" y2="135"/>
<line x1="1351" y1="138" x2="1350" y2="139"/>
<line x1="1351" y1="138" x2="1352" y2="137"/>
<line x1="1349" y1="140" x2="1348" y2="140"/>
<line x1="1349" y1="140" x2="1350" y2="139"/>
<line x1="1346" y1="141" x2="1345" y2="142"/>
<line x1="1346" y1="141" x2="1348" y2="140"/>
<line x1="1344" y1="142" x2="1343" y2="142"/>
<line x1="1344" y1="142" x2="1345" y2="142"/>
<line x1="1341" y1="143" x2="1340" y2="143"/>
<line x1="1341" y1="143" x2="1343" y2="142"/>
<line x1="1338" y1="143" x2="1337" y2="143"/>
<line x1="1338" y1="143" x2="1340" y2="143"/>
<line x1="1335" y1="143" x2="1334" y2="143"/>
<line x1="1335" y1="143" x2="1337" y2="143"/>
<line x1="1333" y1="143" x2="1332" y2="142"/>
<line x1="1333" y1="143" x2="1334" y2="143"/>
<line x1="1330" y1="142" x2="1329" y2="142"/>
<line x1="1330" y1="142" x2="1332" y2="142"/>
<line x1="1327" y1="141" x2="1326" y2="140"/>
<line x1="1327" y1="141" x2="1329" y2="142"/>
<line x1="1325" y1="139" x2="1324" y2="139"/>
<line x1="1325" y1="139" x2="1326" y2="140"/>
<line x1="1323" y1="138" x2="1322" y2="137"/>
<line x1="1323" y1="138" x2="1324" y2="139"/>
<line x1="1321" y1="136" x2="1320" y2="135"/>
<line x1="1321" y1="136" x2="1322" y2="137"/>
<line x1="1319" y1="133" x2="1319" y2="132"/>
<line x1="1319" y1="133" x2="1320" y2="135"/>
<line x1="1318" y1="131" x2="1317" y2="130"/>
<line x1="1318" y1="131" x2="1319" y2="132"/>
<line x1="1317" y1="128" x2="1316" y2="127"/>
<line x1="1317" y1="128" x2="1317" y2="130"/>
<line x1="1316" y1="126" x2="1316" y2="125"/>
<line x1="1316" y1="126" x2="1316" y2="127"/>
<line x1="1316" y1="123" x2="1316" y2="122"/>
<line x1="1316" y1="123" x2="1316" y2="125"/>
<line x1="1316" y1="120" x2="1316" y2="119"/>
<line x1="1316" y1="122" x2="1316" y2="120"/>
<line x1="1316" y1="117" x2="1316" y2="116"/>
<line x1="1316" y1="119" x2="1316" y2="117"/>
<line x1="1317" y1="115" x2="1317" y2="114"/>
<line x1="1316" y1="116" x2="1317" y2="115"/>
<line x1="1318" y1="112" x2="1319" y2="111"/>
<line x1="1317" y1="114" x2="1318" y2="112"/>
<line x1="1320" y1="110" x2="1320" y2="109"/>
<line x1="1319" y1="111" x2="1320" y2="110"/>
<line x1="1321" y1="107" x2="1322" y2="107"/>
<line x1="1320" y1="109" x2="1321" y2="107"/>
<line x1="1323" y1="106" x2="1324" y2="105"/>
<line x1="1322" y1="107" x2="1323" y2="106"/>
<line x1="1326" y1="104" x2="1326" y2="103"/>
<line x1="1324" y1="105" x2="1326" y2="104"/>
<line x1="1328" y1="103" x2="1329" y2="102"/>
<line x1="1326" y1="103" x2="1328" y2="103"/>
<line x1="1331" y1="102" x2="1331" y2="101"/>
<line x1="1331" y1="102" x2="1329" y2="102"/>
<line x1="1344" y1="102" x2="1345" y2="102"/>
<line x1="1343" y1="101" x2="1344" y2="102"/>
<line x1="1347" y1="103" x2="1348" y2="103"/>
<line x1="1345" y1="102" x2="1347" y2="103"/>
<line x1="1349" y1="104" x2="1350" y2="105"/>
<line x1="1348" y1="103" x2="1349" y2="104"/>
<line x1="1352" y1="106" x2="1352" y2="107"/>
<line x1="1350" y1="105" x2="1352" y2="106"/>
<line x1="1353" y1="108" x2="1354" y2="109"/>
<line x1="1352" y1="107" x2="1353" y2="108"/>
<line x1="1355" y1="110" x2="1356" y2="111"/>
<line x1="1354" y1="109" x2="1355" y2="110"/>
<line x1="1356" y1="113" x2="1357" y2="114"/>
<line x1="1356" y1="111" x2="1356" y2="113"/>
<line x1="1358" y1="115" x2="1358" y2="116"/>
<line x1="1358" y1="115" x2="1357" y2="115"/>
<line x1="1357" y1="115" x2="1357" y2="114"/>
<line x1="1358" y1="118" x2="1358" y2="119"/>
<line x1="1358" y1="118" x2="1358" y2="118"/>
<line x1="1358" y1="116" x2="1358" y2="118"/>
<line x1="1358" y1="116" x2="1358" y2="116"/>
<line x1="1358" y1="121" x2="1359" y2="122"/>
<line x1="1358" y1="121" x2="1358" y2="121"/>
<line x1="1358" y1="121" x2="1358" y2="121"/>
<line x1="1358" y1="121" x2="1358" y2="119"/>
<line x1="1358" y1="124" x2="1358" y2="125"/>
<line x1="1358" y1="124" x2="1358" y2="124"/>
<line x1="1359" y1="122" x2="1358" y2="124"/>
<line x1="1359" y1="122" x2="1359" y2="122"/>
</g></svg>