<svg xmlns="http://www.w3.org/2000/svg" width="1400" height="900" viewBox="0 0 1400 900">
<rect x="0" y="0" width="100%" height="100%" fill="white"/>
<g stroke="#111" stroke-width="1.2" fill="none" stroke-linecap="round">
<line x1="1314" y1="749" x2="1281" y2="749"/>
<line x1="1275" y1="749" x2="1281" y2="749"/>
<line x1="99" y1="749" x2="102" y2="749"/>
<line x1="99" y1="749" x2="99" y2="749"/>
<line x1="99" y1="749" x2="99" y2="749"/>
<line x1="98" y1="749" x2="99" y2="749"/>
<line x1="98" y1="749" x2="98" y2="749"/>
<line x1="97" y1="749" x2="98" y2="749"/>
<line x1="96" y1="749" x2="97" y2="749"/>
<line x1="94" y1="749" x2="96" y2="749"/>
<line x1="93" y1="749" x2="94" y2="749"/>
<line x1="90" y1="749" x2="93" y2="749"/>
<line x1="88" y1="749" x2="90" y2="749"/>
<line x1="88" y1="749" x2="88" y2="749"/>
<line x1="1314" y1="718" x2="1314" y2="749"/>
<line x1="1314" y1="718" x2="1314" y2="108"/>
<line x1="88" y1="737" x2="88" y2="737"/>
<line x1="88" y1="737" x2="88" y2="749"/>
<line x1="88" y1="121" x2="88" y2="108"/>
<line x1="88" y1="121" x2="88" y2="711"/>
<line x1="59" y1="711" x2="59" y2="711"/>
<line x1="59" y1="711" x2="59" y2="711"/>
<line x1="102" y1="749" x2="102" y2="749"/>
<line x1="102" y1="749" x2="102" y2="750"/>
<line x1="85" y1="734" x2="88" y2="737"/>
<line x1="83" y1="732" x2="85" y2="734"/>
<line x1="80" y1="730" x2="83" y2="732"/>
<line x1="78" y1="728" x2="80" y2="730"/>
<line x1="75" y1="726" x2="78" y2="728"/>
<line x1="59" y1="711" x2="75" y2="726"/>
<line x1="59" y1="711" x2="59" y2="711"/>
<line x1="59" y1="711" x2="59" y2="711"/>
<line x1="1275" y1="749" x2="1275" y2="749"/>
<line x1="1275" y1="749" x2="1275" y2="750"/>
<line x1="643" y1="750" x2="649" y2="750"/>
<line x1="102" y1="750" x2="643" y2="750"/>
<line x1="1275" y1="750" x2="1236" y2="750"/>
<line x1="1236" y1="750" x2="1236" y2="750"/>
<line x1="1236" y1="750" x2="1191" y2="750"/>
<line x1="1191" y1="750" x2="1191" y2="750"/>
<line x1="1191" y1="750" x2="1149" y2="750"/>
<line x1="1149" y1="750" x2="1149" y2="750"/>
<line x1="1149" y1="750" x2="1111" y2="750"/>
<line x1="1111" y1="750" x2="1110" y2="750"/>
<line x1="1110" y1="750" x2="1075" y2="750"/>
<line x1="1075" y1="750" x2="1074" y2="750"/>
<line x1="1074" y1="750" x2="1041" y2="750"/>
<line x1="1041" y1="750" x2="1040" y2="750"/>
<line x1="1040" y1="750" x2="1009" y2="750"/>
<line x1="1009" y1="750" x2="1009" y2="750"/>
<line x1="1009" y1="750" x2="979" y2="750"/>
<line x1="979" y1="750" x2="979" y2="750"/>
<line x1="979" y1="750" x2="952" y2="750"/>
<line x1="952" y1="750" x2="951" y2="750"/>
<line x1="951" y1="750" x2="925" y2="750"/>
<line x1="925" y1="750" x2="925" y2="750"/>
<line x1="925" y1="750" x2="900" y2="750"/>
<line x1="900" y1="750" x2="900" y2="750"/>
<line x1="900" y1="750" x2="877" y2="750"/>
<line x1="877" y1="750" x2="877" y2="750"/>
<line x1="877" y1="750" x2="854" y2="750"/>
<line x1="854" y1="750" x2="854" y2="750"/>
<line x1="854" y1="750" x2="833" y2="750"/>
<line x1="833" y1="750" x2="833" y2="750"/>
<line x1="833" y1="750" x2="813" y2="750"/>
<line x1="813" y1="750" x2="813" y2="750"/>
<line x1="813" y1="750" x2="793" y2="750"/>
<line x1="793" y1="750" x2="793" y2="750"/>
<line x1="793" y1="750" x2="775" y2="750"/>
<line x1="775" y1="750" x2="775" y2="750"/>
<line x1="775" y1="750" x2="757" y2="750"/>
<line x1="757" y1="750" x2="757" y2="750"/>
<line x1="757" y1="750" x2="741" y2="750"/>
<line x1="741" y1="750" x2="740" y2="750"/>
<line x1="740" y1="750" x2="724" y2="750"/>
<line x1="724" y1="750" x2="724" y2="750"/>
<line x1="724" y1="750" x2="709" y2="750"/>
<line x1="709" y1="750" x2="709" y2="750"/>
<line x1="709" y1="750" x2="694" y2="750"/>
<line x1="694" y1="750" x2="694" y2="750"/>
<line x1="694" y1="750" x2="679" y2="750"/>
<line x1="679" y1="750" x2="679" y2="750"/>
<line x1="649" y1="750" x2="679" y2="750"/>
<line x1="59" y1="711" x2="59" y2="711"/>
<line x1="59" y1="711" x2="59" y2="711"/>
<line x1="85" y1="711" x2="88" y2="711"/>
<line x1="83" y1="711" x2="85" y2="711"/>
<line x1="80" y1="711" x2="83" y2="711"/>
<line x1="78" y1="711" x2="80" y2="711"/>
<line x1="75" y1="711" x2="78" y2="711"/>
<line x1="73" y1="711" x2="75" y2="711"/>
<line x1="70" y1="711" x2="73" y2="711"/>
<line x1="68" y1="711" x2="70" y2="711"/>
<line x1="59" y1="711" x2="59" y2="711"/>
<line x1="65" y1="711" x2="68" y2="711"/>
<line x1="63" y1="711" x2="65" y2="711"/>
<line x1="60" y1="711" x2="63" y2="711"/>
<line x1="59" y1="711" x2="60" y2="711"/>
<line x1="59" y1="711" x2="59" y2="711"/>
<line x1="59" y1="711" x2="59" y2="711"/>
<line x1="59" y1="711" x2="59" y2="711"/>
<line x1="1357" y1="792" x2="1360" y2="792"/>
<line x1="1357" y1="792" x2="1357" y2="792"/>
<line x1="1357" y1="792" x2="1327" y2="792"/>
<line x1="1327" y1="792" x2="1326" y2="792"/>
<line x1="1326" y1="792" x2="1299" y2="792"/>
<line x1="1299" y1="792" x2="1298" y2="792"/>
<line x1="1298" y1="792" x2="642" y2="792"/>
<line x1="222" y1="792" x2="642" y2="792"/>
<line x1="211" y1="792" x2="222" y2="792"/>
<line x1="198" y1="792" x2="211" y2="792"/>
<line x1="185" y1="792" x2="198" y2="792"/>
<line x1="171" y1="792" x2="185" y2="792"/>
<line x1="155" y1="792" x2="171" y2="792"/>
<line x1="139" y1="792" x2="155" y2="792"/>
<line x1="122" y1="792" x2="139" y2="792"/>
<line x1="103" y1="792" x2="122" y2="792"/>
<line x1="83" y1="792" x2="103" y2="792"/>
<line x1="61" y1="792" x2="83" y2="792"/>
<line x1="61" y1="792" x2="40" y2="792"/>
<line x1="1326" y1="108" x2="1332" y2="108"/>
<line x1="1324" y1="108" x2="1326" y2="108"/>
<line x1="1324" y1="108" x2="1324" y2="108"/>
<line x1="1321" y1="108" x2="1324" y2="108"/>
<line x1="1321" y1="108" x2="1321" y2="108"/>
<line x1="1314" y1="108" x2="1321" y2="108"/>
<line x1="1314" y1="108" x2="1314" y2="108"/>
<line x1="1314" y1="108" x2="1314" y2="108"/>
<line x1="80" y1="108" x2="88" y2="108"/>
<line x1="80" y1="108" x2="40" y2="108"/>
<line x1="1352" y1="108" x2="1355" y2="108"/>
<line x1="1355" y1="108" x2="1355" y2="108"/>
<line x1="1355" y1="108" x2="1360" y2="108"/>
<line x1="1352" y1="108" x2="1343" y2="108"/>
<line x1="1360" y1="735" x2="1360" y2="108"/>
<line x1="1360" y1="735" x2="1360" y2="792"/>
<line x1="40" y1="172" x2="40" y2="792"/>
<line x1="40" y1="172" x2="40" y2="108"/>
<line x1="86" y1="133" x2="85" y2="135"/>
<line x1="86" y1="133" x2="86" y2="132"/>
<line x1="85" y1="135" x2="84" y2="137"/>
<line x1="85" y1="135" x2="85" y2="135"/>
<line x1="84" y1="138" x2="83" y2="140"/>
<line x1="84" y1="138" x2="84" y2="137"/>
<line x1="83" y1="140" x2="81" y2="142"/>
<line x1="83" y1="140" x2="83" y2="140"/>
<line x1="81" y1="142" x2="79" y2="144"/>
<line x1="81" y1="142" x2="81" y2="142"/>
<line x1="79" y1="144" x2="77" y2="146"/>
<line x1="79" y1="144" x2="79" y2="144"/>
<line x1="77" y1="146" x2="75" y2="147"/>
<line x1="77" y1="146" x2="77" y2="146"/>
<line x1="74" y1="148" x2="72" y2="149"/>
<line x1="74" y1="148" x2="75" y2="147"/>
<line x1="72" y1="149" x2="70" y2="149"/>
<line x1="72" y1="149" x2="72" y2="149"/>
<line x1="69" y1="150" x2="67" y2="150"/>
<line x1="69" y1="150" x2="70" y2="149"/>
<line x1="66" y1="150" x2="64" y2="150"/>
<line x1="66" y1="150" x2="67" y2="150"/>
<line x1="63" y1="150" x2="61" y2="150"/>
<line x1="63" y1="150" x2="64" y2="150"/>
<line x1="60" y1="150" x2="58" y2="149"/>
<line x1="60" y1="150" x2="61" y2="150"/>
<line x1="58" y1="149" x2="55" y2="149"/>
<line x1="58" y1="149" x2="58" y2="149"/>
<line x1="55" y1="148" x2="53" y2="147"/>
<line x1="55" y1="148" x2="55" y2="149"/>
<line x1="52" y1="147" x2="51" y2="146"/>
<line x1="52" y1="147" x2="53" y2="147"/>
<line x1="50" y1="145" x2="48" y2="144"/>
<line x1="50" y1="145" x2="51" y2="146"/>
<line x1="48" y1="144" x2="46" y2="142"/>
<line x1="48" y1="144" x2="48" y2="144"/>
<line x1="46" y1="141" x2="45" y2="140"/>
<line x1="46" y1="141" x2="46" y2="142"/>
<line x1="44" y1="139" x2="44" y2="137"/>
<line x1="44" y1="139" x2="45" y2="140"/>
<line x1="43" y1="137" x2="43" y2="135"/>
<line x1="43" y1="137" x2="44" y2="137"/>
<line x1="42" y1="134" x2="42" y2="132"/>
<line x1="42" y1="134" x2="43" y2="135"/>
<line x1="42" y1="131" x2="42" y2="129"/>
<line x1="42" y1="131" x2="42" y2="132"/>
<line x1="42" y1="129" x2="42" y2="127"/>
<line x1="42" y1="129" x2="42" y2="129"/>
<line x1="42" y1="126" x2="43" y2="124"/>
<line x1="42" y1="127" x2="42" y2="126"/>
<line x1="43" y1="123" x2="44" y2="121"/>
<line x1="43" y1="124" x2="43" y2="123"/>
<line x1="44" y1="121" x2="45" y2="119"/>
<line x1="44" y1="121" x2="44" y2="121"/>
<line x1="45" y1="118" x2="46" y2="117"/>
<line x1="45" y1="119" x2="45" y2="118"/>
<line x1="47" y1="116" x2="48" y2="115"/>
<line x1="46" y1="117" x2="47" y2="116"/>
<line x1="49" y1="114" x2="51" y2="113"/>
<line x1="48" y1="115" x2="49" y2="114"/>
<line x1="51" y1="112" x2="53" y2="111"/>
<line x1="51" y1="113" x2="51" y2="112"/>
<line x1="54" y1="111" x2="55" y2="110"/>
<line x1="53" y1="111" x2="54" y2="111"/>
<line x1="56" y1="110" x2="58" y2="109"/>
<line x1="55" y1="110" x2="56" y2="110"/>
<line x1="59" y1="109" x2="61" y2="109"/>
<line x1="58" y1="109" x2="59" y2="109"/>
<line x1="62" y1="109" x2="64" y2="108"/>
<line x1="61" y1="109" x2="62" y2="109"/>
<line x1="65" y1="108" x2="67" y2="109"/>
<line x1="64" y1="108" x2="65" y2="108"/>
<line x1="67" y1="109" x2="70" y2="109"/>
<line x1="67" y1="109" x2="67" y2="109"/>
<line x1="70" y1="109" x2="72" y2="110"/>
<line x1="70" y1="109" x2="70" y2="109"/>
<line x1="73" y1="110" x2="75" y2="111"/>
<line x1="72" y1="110" x2="73" y2="110"/>
<line x1="75" y1="112" x2="77" y2="113"/>
<line x1="75" y1="111" x2="75" y2="112"/>
<line x1="78" y1="113" x2="79" y2="115"/>
<line x1="77" y1="113" x2="78" y2="113"/>
<line x1="80" y1="115" x2="81" y2="117"/>
<line x1="79" y1="115" x2="80" y2="115"/>
<line x1="82" y1="117" x2="83" y2="119"/>
<line x1="81" y1="117" x2="82" y2="117"/>
<line x1="83" y1="119" x2="84" y2="121"/>
<line x1="83" y1="119" x2="83" y2="119"/>
<line x1="84" y1="122" x2="85" y2="124"/>
<line x1="84" y1="121" x2="84" y2="122"/>
<line x1="85" y1="124" x2="86" y2="127"/>
<line x1="85" y1="124" x2="85" y2="124"/>
<line x1="86" y1="127" x2="86" y2="129"/>
<line x1="86" y1="127" x2="86" y2="127"/>
<line x1="86" y1="130" x2="86" y2="132"/>
<line x1="86" y1="130" x2="86" y2="129"/>
<line x1="1358" y1="134" x2="1358" y2="134"/>
<line x1="1358" y1="134" x2="1358" y2="133"/>
<line x1="1358" y1="133" x2="1359" y2="131"/>
<line x1="1358" y1="133" x2="1358" y2="133"/>
<line x1="1358" y1="136" x2="1357" y2="136"/>
<line x1="1358" y1="136" x2="1358" y2="134"/>
<line x1="1358" y1="136" x2="1358" y2="136"/>
<line x1="1356" y1="138" x2="1356" y2="139"/>
<line x1="1356" y1="138" x2="1357" y2="136"/>
<line x1="1355" y1="141" x2="1355" y2="141"/>
<line x1="1355" y1="141" x2="1356" y2="139"/>
<line x1="1353" y1="143" x2="1353" y2="143"/>
<line x1="1353" y1="143" x2="1355" y2="141"/>
<line x1="1351" y1="144" x2="1351" y2="145"/>
<line x1="1351" y1="144" x2="1353" y2="143"/>
<line x1="1349" y1="146" x2="1348" y2="146"/>
<line x1="1349" y1="146" x2="1351" y2="145"/>
<line x1="1346" y1="147" x2="1346" y2="148"/>
<line x1="1346" y1="147" x2="1348" y2="146"/>
<line x1="1344" y1="148" x2="1343" y2="149"/>
<line x1="1344" y1="148" x2="1346" y2="148"/>
<line x1="1341" y1="149" x2="1341" y2="149"/>
<line x1="1341" y1="149" x2="1343" y2="149"/>
<line x1="1338" y1="149" x2="1338" y2="149"/>
<line x1="1338" y1="149" x2="1341" y2="149"/>
<line x1="1336" y1="149" x2="1335" y2="149"/>
<line x1="1336" y1="149" x2="1338" y2="149"/>
<line x1="1333" y1="149" x2="1332" y2="149"/>
<line x1="1333" y1="149" x2="1335" y2="149"/>
<line x1="1330" y1="148" x2="1330" y2="148"/>
<line x1="1330" y1="148" x2="1332" y2="149"/>
<line x1="1328" y1="147" x2="1327" y2="146"/>
<line x1="1328" y1="147" x2="1330" y2="148"/>
<line x1="1325" y1="145" x2="1325" y2="145"/>
<line x1="1325" y1="145" x2="1327" y2="146"/>
<line x1="1323" y1="144" x2="1323" y2="143"/>
<line x1="1323" y1="144" x2="1325" y2="145"/>
<line x1="1321" y1="141" x2="1321" y2="141"/>
<line x1="1321" y1="141" x2="1323" y2="143"/>
<line x1="1320" y1="139" x2="1319" y2="139"/>
<line x1="1320" y1="139" x2="1321" y2="141"/>
<line x1="1318" y1="137" x2="1318" y2="136"/>
<line x1="1318" y1="137" x2="1319" y2="139"/>
<line x1="1318" y1="134" x2="1317" y2="134"/>
<line x1="1318" y1="134" x2="1318" y2="136"/>
<line x1="1317" y1="132" x2="1317" y2="131"/>
<line x1="1317" y1="132" x2="1317" y2="134"/>
<line x1="1317" y1="129" x2="1317" y2="128"/>
<line x1="1317" y1="129" x2="1317" y2="131"/>
<line x1="1317" y1="126" x2="1317" y2="126"/>
<line x1="1317" y1="128" x2="1317" y2="126"/>
<line x1="1317" y1="124" x2="1317" y2="123"/>
<line x1="1317" y1="126" x2="1317" y2="124"/>
<line x1="1318" y1="121" x2="1318" y2="120"/>
<line x1="1317" y1="123" x2="1318" y2="121"/>
<line x1="1319" y1="118" x2="1319" y2="118"/>
<line x1="1318" y1="120" x2="1319" y2="118"/>
<line x1="1321" y1="116" x2="1321" y2="116"/>
<line x1="1319" y1="118" x2="1321" y2="116"/>
<line x1="1322" y1="114" x2="1323" y2="114"/>
<line x1="1321" y1="116" x2="1322" y2="114"/>
<line x1="1324" y1="112" x2="1325" y2="112"/>
<line x1="1323" y1="114" x2="1324" y2="112"/>
<line x1="1327" y1="111" x2="1327" y2="110"/>
<line x1="1325" y1="112" x2="1327" y2="111"/>
<line x1="1329" y1="109" x2="1330" y2="109"/>
<line x1="1327" y1="110" x2="1329" y2="109"/>
<line x1="1332" y1="108" x2="1332" y2="108"/>
<line x1="1332" y1="108" x2="1330" y2="109"/>
<line x1="1345" y1="109" x2="1346" y2="109"/>
<line x1="1343" y1="108" x2="1345" y2="109"/>
<line x1="1348" y1="110" x2="1348" y2="110"/>
<line x1="1346" y1="109" x2="1348" y2="110"/>
<line x1="1350" y1="111" x2="1351" y2="112"/>
<line x1="1348" y1="110" x2="1350" y2="111"/>
<line x1="1352" y1="113" x2="1353" y2="114"/>
<line x1="1351" y1="112" x2="1352" y2="113"/>
<line x1="1354" y1="115" x2="1355" y2="116"/>
<line x1="1353" y1="114" x2="1354" y2="115"/>
<line x1="1356" y1="117" x2="1356" y2="118"/>
<line x1="1355" y1="116" x2="1356" y2="117"/>
<line x1="1357" y1="120" x2="1357" y2="120"/>
<line x1="1356" y1="118" x2="1357" y2="120"/>
<line x1="1358" y1="122" x2="1358" y2="123"/>
<line x1="1358" y1="122" x2="1358" y2="122"/>
<line x1="1358" y1="122" x2="1357" y2="120"/>
<line x1="1359" y1="125" x2="1359" y2="126"/>
<line x1="1359" y1="125" x2="1359" y2="125"/>
<line x1="1358" y1="123" x2="1359" y2="125"/>
<line x1="1358" y1="123" x2="1358" y2="123"/>
<line x1="1359" y1="128" x2="1359" y2="128"/>
<line x1="1359" y1="128" x2="1359" y2="128"/>
<line x1="1359" y1="126" x2="1359" y2="128"/>
<line x1="1359" y1="126" x2="1359" y2="126"/>
<line x1="1359" y1="131" x2="1359" y2="130"/>
<line x1="1359" y1="131" x2="1359" y2="131"/>
<line x1="1359" y1="130" x2="1359" y2="128"/>
<line x1="1359" y1="130" x2="1359" y2="130"/>
</g></svg>