<svg xmlns="http://www.w3.org/2000/svg" width="1400" height="900" viewBox="0 0 1400 900">
<rect x="0" y="0" width="100%" height="100%" fill="white"/>
<g stroke="#111" stroke-width="1.2" fill="none" stroke-linecap="round">
<line x1="151" y1="723" x2="120" y2="723"/>
<line x1="100" y1="638" x2="100" y2="694"/>
<line x1="100" y1="589" x2="100" y2="638"/>
<line x1="100" y1="589" x2="100" y2="575"/>
<line x1="100" y1="575" x2="100" y2="517"/>
<line x1="100" y1="517" x2="100" y2="503"/>
<line x1="100" y1="484" x2="100" y2="503"/>
<line x1="100" y1="484" x2="100" y2="465"/>
<line x1="100" y1="465" x2="100" y2="174"/>
<line x1="100" y1="139" x2="100" y2="140"/>
<line x1="100" y1="139" x2="100" y2="139"/>
<line x1="1318" y1="478" x2="1318" y2="139"/>
<line x1="1318" y1="478" x2="1318" y2="687"/>
<line x1="1318" y1="712" x2="1318" y2="710"/>
<line x1="1318" y1="712" x2="1318" y2="712"/>
<line x1="1318" y1="705" x2="1318" y2="687"/>
<line x1="1318" y1="705" x2="1318" y2="710"/>
<line x1="1318" y1="710" x2="1318" y2="710"/>
<line x1="1318" y1="710" x2="1318" y2="710"/>
<line x1="153" y1="723" x2="154" y2="723"/>
<line x1="154" y1="723" x2="218" y2="723"/>
<line x1="218" y1="723" x2="218" y2="723"/>
<line x1="218" y1="723" x2="277" y2="723"/>
<line x1="277" y1="723" x2="278" y2="723"/>
<line x1="278" y1="723" x2="332" y2="723"/>
<line x1="332" y1="723" x2="333" y2="723"/>
<line x1="333" y1="723" x2="383" y2="723"/>
<line x1="383" y1="723" x2="384" y2="723"/>
<line x1="384" y1="723" x2="431" y2="723"/>
<line x1="431" y1="723" x2="431" y2="723"/>
<line x1="431" y1="723" x2="476" y2="723"/>
<line x1="476" y1="723" x2="476" y2="723"/>
<line x1="476" y1="723" x2="518" y2="723"/>
<line x1="518" y1="723" x2="518" y2="723"/>
<line x1="518" y1="723" x2="558" y2="723"/>
<line x1="558" y1="723" x2="558" y2="723"/>
<line x1="558" y1="723" x2="596" y2="723"/>
<line x1="596" y1="723" x2="596" y2="723"/>
<line x1="596" y1="723" x2="632" y2="723"/>
<line x1="938" y1="723" x2="938" y2="723"/>
<line x1="938" y1="723" x2="978" y2="723"/>
<line x1="978" y1="723" x2="978" y2="723"/>
<line x1="978" y1="723" x2="1014" y2="723"/>
<line x1="1014" y1="723" x2="1015" y2="723"/>
<line x1="1015" y1="723" x2="1048" y2="723"/>
<line x1="1048" y1="723" x2="1048" y2="723"/>
<line x1="1048" y1="723" x2="1080" y2="723"/>
<line x1="1080" y1="723" x2="1080" y2="723"/>
<line x1="1080" y1="723" x2="1109" y2="723"/>
<line x1="1109" y1="723" x2="1110" y2="723"/>
<line x1="1110" y1="723" x2="1137" y2="723"/>
<line x1="1137" y1="723" x2="1137" y2="723"/>
<line x1="1137" y1="723" x2="1163" y2="723"/>
<line x1="1163" y1="723" x2="1163" y2="723"/>
<line x1="1163" y1="723" x2="1188" y2="723"/>
<line x1="1188" y1="723" x2="1188" y2="723"/>
<line x1="1188" y1="723" x2="1211" y2="723"/>
<line x1="1211" y1="723" x2="1212" y2="723"/>
<line x1="1212" y1="723" x2="1234" y2="723"/>
<line x1="1234" y1="723" x2="1234" y2="723"/>
<line x1="1234" y1="723" x2="1244" y2="723"/>
<line x1="938" y1="723" x2="632" y2="723"/>
<line x1="153" y1="723" x2="151" y2="723"/>
<line x1="151" y1="723" x2="151" y2="723"/>
<line x1="151" y1="723" x2="151" y2="723"/>
<line x1="63" y1="761" x2="41" y2="761"/>
<line x1="41" y1="761" x2="40" y2="761"/>
<line x1="63" y1="761" x2="63" y2="761"/>
<line x1="63" y1="761" x2="82" y2="761"/>
<line x1="82" y1="761" x2="82" y2="761"/>
<line x1="82" y1="761" x2="95" y2="761"/>
<line x1="198" y1="761" x2="95" y2="761"/>
<line x1="198" y1="761" x2="199" y2="761"/>
<line x1="199" y1="761" x2="243" y2="761"/>
<line x1="243" y1="761" x2="244" y2="761"/>
<line x1="244" y1="761" x2="283" y2="761"/>
<line x1="283" y1="761" x2="284" y2="761"/>
<line x1="284" y1="761" x2="319" y2="761"/>
<line x1="319" y1="761" x2="320" y2="761"/>
<line x1="320" y1="761" x2="352" y2="761"/>
<line x1="352" y1="761" x2="353" y2="761"/>
<line x1="353" y1="761" x2="382" y2="761"/>
<line x1="382" y1="761" x2="383" y2="761"/>
<line x1="383" y1="761" x2="410" y2="761"/>
<line x1="410" y1="761" x2="411" y2="761"/>
<line x1="411" y1="761" x2="436" y2="761"/>
<line x1="436" y1="761" x2="437" y2="761"/>
<line x1="437" y1="761" x2="461" y2="761"/>
<line x1="461" y1="761" x2="461" y2="761"/>
<line x1="461" y1="761" x2="1113" y2="761"/>
<line x1="1282" y1="761" x2="1113" y2="761"/>
<line x1="1286" y1="761" x2="1282" y2="761"/>
<line x1="1291" y1="761" x2="1286" y2="761"/>
<line x1="1296" y1="761" x2="1291" y2="761"/>
<line x1="1302" y1="761" x2="1296" y2="761"/>
<line x1="1308" y1="761" x2="1302" y2="761"/>
<line x1="1314" y1="761" x2="1308" y2="761"/>
<line x1="1321" y1="761" x2="1314" y2="761"/>
<line x1="1328" y1="761" x2="1321" y2="761"/>
<line x1="1358" y1="761" x2="1328" y2="761"/>
<line x1="1338" y1="139" x2="1318" y2="139"/>
<line x1="1338" y1="139" x2="1360" y2="139"/>
<line x1="87" y1="139" x2="88" y2="139"/>
<line x1="83" y1="139" x2="45" y2="139"/>
<line x1="100" y1="139" x2="88" y2="139"/>
<line x1="87" y1="139" x2="87" y2="139"/>
<line x1="45" y1="139" x2="40" y2="139"/>
<line x1="87" y1="139" x2="83" y2="139"/>
<line x1="40" y1="716" x2="40" y2="139"/>
<line x1="40" y1="716" x2="40" y2="761"/>
<line x1="1360" y1="622" x2="1360" y2="139"/>
<line x1="1360" y1="735" x2="1360" y2="750"/>
<line x1="1360" y1="680" x2="1360" y2="735"/>
<line x1="1360" y1="622" x2="1360" y2="680"/>
<line x1="80" y1="157" x2="80" y2="157"/>
<line x1="80" y1="157" x2="80" y2="157"/>
<line x1="80" y1="155" x2="80" y2="157"/>
<line x1="80" y1="155" x2="80" y2="153"/>
<line x1="80" y1="157" x2="80" y2="157"/>
<line x1="80" y1="157" x2="80" y2="157"/>
<line x1="80" y1="159" x2="80" y2="157"/>
<line x1="80" y1="159" x2="80" y2="161"/>
<line x1="81" y1="153" x2="80" y2="153"/>
<line x1="81" y1="153" x2="81" y2="153"/>
<line x1="93" y1="172" x2="94" y2="172"/>
<line x1="93" y1="172" x2="90" y2="170"/>
<line x1="93" y1="142" x2="94" y2="141"/>
<line x1="93" y1="142" x2="90" y2="143"/>
<line x1="95" y1="173" x2="95" y2="173"/>
<line x1="95" y1="173" x2="94" y2="172"/>
<line x1="81" y1="161" x2="80" y2="161"/>
<line x1="81" y1="161" x2="81" y2="161"/>
<line x1="86" y1="146" x2="85" y2="147"/>
<line x1="86" y1="146" x2="86" y2="146"/>
<line x1="96" y1="173" x2="96" y2="173"/>
<line x1="96" y1="173" x2="95" y2="173"/>
<line x1="84" y1="166" x2="82" y2="164"/>
<line x1="84" y1="166" x2="85" y2="167"/>
<line x1="82" y1="162" x2="81" y2="161"/>
<line x1="82" y1="162" x2="82" y2="164"/>
<line x1="86" y1="167" x2="85" y2="167"/>
<line x1="86" y1="167" x2="86" y2="167"/>
<line x1="86" y1="168" x2="86" y2="167"/>
<line x1="86" y1="168" x2="86" y2="168"/>
<line x1="96" y1="173" x2="100" y2="174"/>
<line x1="87" y1="168" x2="86" y2="168"/>
<line x1="87" y1="169" x2="87" y2="168"/>
<line x1="88" y1="169" x2="87" y2="169"/>
<line x1="88" y1="169" x2="90" y2="170"/>
<line x1="87" y1="145" x2="86" y2="146"/>
<line x1="87" y1="145" x2="87" y2="145"/>
<line x1="88" y1="144" x2="87" y2="145"/>
<line x1="88" y1="144" x2="90" y2="143"/>
<line x1="95" y1="141" x2="95" y2="141"/>
<line x1="95" y1="141" x2="94" y2="141"/>
<line x1="100" y1="140" x2="96" y2="141"/>
<line x1="82" y1="151" x2="81" y2="153"/>
<line x1="82" y1="151" x2="82" y2="150"/>
<line x1="84" y1="148" x2="82" y2="150"/>
<line x1="84" y1="148" x2="85" y2="147"/>
<line x1="86" y1="146" x2="86" y2="146"/>
<line x1="86" y1="146" x2="86" y2="146"/>
<line x1="96" y1="141" x2="96" y2="141"/>
<line x1="96" y1="141" x2="95" y2="141"/>
<line x1="80" y1="757" x2="80" y2="757"/>
<line x1="50" y1="713" x2="50" y2="732"/>
<line x1="80" y1="757" x2="72" y2="757"/>
<line x1="87" y1="755" x2="80" y2="757"/>
<line x1="50" y1="702" x2="50" y2="713"/>
<line x1="80" y1="757" x2="80" y2="757"/>
<line x1="118" y1="733" x2="118" y2="733"/>
<line x1="118" y1="733" x2="115" y2="738"/>
<line x1="111" y1="743" x2="106" y2="747"/>
<line x1="50" y1="744" x2="50" y2="732"/>
<line x1="65" y1="688" x2="65" y2="688"/>
<line x1="115" y1="738" x2="111" y2="743"/>
<line x1="89" y1="690" x2="87" y2="690"/>
<line x1="89" y1="690" x2="94" y2="692"/>
<line x1="94" y1="753" x2="87" y2="755"/>
<line x1="94" y1="753" x2="94" y2="753"/>
<line x1="100" y1="751" x2="94" y2="753"/>
<line x1="100" y1="751" x2="100" y2="751"/>
<line x1="106" y1="747" x2="100" y2="751"/>
<line x1="106" y1="747" x2="106" y2="747"/>
<line x1="120" y1="723" x2="120" y2="723"/>
<line x1="120" y1="723" x2="120" y2="724"/>
<line x1="120" y1="724" x2="119" y2="728"/>
<line x1="111" y1="743" x2="111" y2="743"/>
<line x1="70" y1="688" x2="65" y2="688"/>
<line x1="70" y1="688" x2="72" y2="688"/>
<line x1="63" y1="689" x2="58" y2="690"/>
<line x1="63" y1="689" x2="65" y2="688"/>
<line x1="119" y1="728" x2="119" y2="728"/>
<line x1="119" y1="728" x2="118" y2="733"/>
<line x1="111" y1="743" x2="111" y2="743"/>
<line x1="51" y1="692" x2="50" y2="692"/>
<line x1="50" y1="747" x2="50" y2="751"/>
<line x1="50" y1="744" x2="50" y2="747"/>
<line x1="83" y1="689" x2="80" y2="688"/>
<line x1="83" y1="689" x2="85" y2="689"/>
<line x1="86" y1="689" x2="85" y2="689"/>
<line x1="86" y1="689" x2="87" y2="690"/>
<line x1="50" y1="694" x2="50" y2="698"/>
<line x1="65" y1="757" x2="65" y2="757"/>
<line x1="80" y1="688" x2="80" y2="688"/>
<line x1="76" y1="688" x2="72" y2="688"/>
<line x1="76" y1="688" x2="80" y2="688"/>
<line x1="95" y1="692" x2="94" y2="692"/>
<line x1="95" y1="692" x2="100" y2="694"/>
<line x1="51" y1="692" x2="57" y2="690"/>
<line x1="51" y1="692" x2="51" y2="692"/>
<line x1="57" y1="690" x2="58" y2="690"/>
<line x1="50" y1="698" x2="50" y2="702"/>
<line x1="72" y1="757" x2="65" y2="757"/>
<line x1="72" y1="757" x2="72" y2="757"/>
<line x1="50" y1="753" x2="50" y2="751"/>
<line x1="80" y1="688" x2="80" y2="688"/>
<line x1="50" y1="692" x2="50" y2="692"/>
<line x1="50" y1="692" x2="50" y2="694"/>
<line x1="50" y1="753" x2="50" y2="753"/>
<line x1="51" y1="753" x2="50" y2="753"/>
<line x1="51" y1="753" x2="51" y2="753"/>
<line x1="58" y1="755" x2="51" y2="753"/>
<line x1="58" y1="755" x2="58" y2="755"/>
<line x1="65" y1="757" x2="58" y2="755"/>
<line x1="1288" y1="757" x2="1285" y2="757"/>
<line x1="1282" y1="757" x2="1285" y2="757"/>
<line x1="1319" y1="717" x2="1318" y2="712"/>
<line x1="1319" y1="718" x2="1319" y2="717"/>
<line x1="1319" y1="718" x2="1319" y2="720"/>
<line x1="1307" y1="748" x2="1308" y2="747"/>
<line x1="1307" y1="748" x2="1304" y2="751"/>
<line x1="1318" y1="733" x2="1316" y2="736"/>
<line x1="1296" y1="755" x2="1299" y2="753"/>
<line x1="1245" y1="725" x2="1244" y2="723"/>
<line x1="1319" y1="725" x2="1319" y2="728"/>
<line x1="1308" y1="747" x2="1311" y2="745"/>
<line x1="1316" y1="736" x2="1316" y2="736"/>
<line x1="1316" y1="736" x2="1315" y2="738"/>
<line x1="1318" y1="731" x2="1319" y2="728"/>
<line x1="1318" y1="731" x2="1318" y2="733"/>
<line x1="1299" y1="753" x2="1302" y2="752"/>
<line x1="1290" y1="756" x2="1288" y2="757"/>
<line x1="1265" y1="753" x2="1268" y2="755"/>
<line x1="1296" y1="755" x2="1293" y2="755"/>
<line x1="1290" y1="756" x2="1293" y2="755"/>
<line x1="1319" y1="723" x2="1319" y2="723"/>
<line x1="1319" y1="723" x2="1319" y2="723"/>
<line x1="1319" y1="723" x2="1319" y2="725"/>
<line x1="1319" y1="720" x2="1319" y2="720"/>
<line x1="1319" y1="720" x2="1319" y2="723"/>
<line x1="1304" y1="751" x2="1302" y2="752"/>
<line x1="1273" y1="756" x2="1276" y2="757"/>
<line x1="1262" y1="752" x2="1260" y2="751"/>
<line x1="1262" y1="752" x2="1265" y2="753"/>
<line x1="1276" y1="757" x2="1279" y2="757"/>
<line x1="1282" y1="757" x2="1279" y2="757"/>
<line x1="1312" y1="743" x2="1312" y2="743"/>
<line x1="1312" y1="743" x2="1311" y2="745"/>
<line x1="1270" y1="755" x2="1268" y2="755"/>
<line x1="1273" y1="756" x2="1270" y2="755"/>
<line x1="1313" y1="741" x2="1315" y2="738"/>
<line x1="1313" y1="741" x2="1312" y2="743"/>
<line x1="1245" y1="730" x2="1245" y2="728"/>
<line x1="1245" y1="730" x2="1246" y2="733"/>
<line x1="1246" y1="733" x2="1247" y2="736"/>
<line x1="1245" y1="725" x2="1245" y2="728"/>
<line x1="1250" y1="740" x2="1248" y2="738"/>
<line x1="1250" y1="740" x2="1252" y2="743"/>
<line x1="1253" y1="745" x2="1255" y2="747"/>
<line x1="1257" y1="748" x2="1255" y2="747"/>
<line x1="1257" y1="748" x2="1260" y2="751"/>
<line x1="1253" y1="745" x2="1252" y2="743"/>
<line x1="1248" y1="738" x2="1247" y2="736"/>
<line x1="1358" y1="759" x2="1358" y2="761"/>
<line x1="1358" y1="759" x2="1358" y2="759"/>
<line x1="1360" y1="751" x2="1360" y2="751"/>
<line x1="1360" y1="751" x2="1359" y2="753"/>
<line x1="1360" y1="750" x2="1360" y2="751"/>
<line x1="1359" y1="753" x2="1359" y2="756"/>
<line x1="1359" y1="753" x2="1359" y2="753"/>
<line x1="1358" y1="757" x2="1358" y2="759"/>
<line x1="1358" y1="757" x2="1359" y2="756"/>
</g></svg>