<svg xmlns="http://www.w3.org/2000/svg" width="1400" height="900" viewBox="0 0 1400 900">
<rect x="0" y="0" width="100%" height="100%" fill="white"/>
<g stroke="#111" stroke-width="1.2" fill="none" stroke-linecap="round">
<line x1="1313" y1="753" x2="1293" y2="753"/>
<line x1="1275" y1="753" x2="1293" y2="753"/>
<line x1="88" y1="753" x2="88" y2="753"/>
<line x1="87" y1="753" x2="88" y2="753"/>
<line x1="1313" y1="475" x2="1313" y2="753"/>
<line x1="1313" y1="475" x2="1313" y2="104"/>
<line x1="87" y1="753" x2="87" y2="752"/>
<line x1="87" y1="753" x2="87" y2="753"/>
<line x1="87" y1="386" x2="87" y2="104"/>
<line x1="87" y1="386" x2="87" y2="714"/>
<line x1="50" y1="714" x2="50" y2="714"/>
<line x1="50" y1="714" x2="50" y2="714"/>
<line x1="86" y1="751" x2="87" y2="752"/>
<line x1="86" y1="751" x2="86" y2="751"/>
<line x1="80" y1="745" x2="86" y2="751"/>
<line x1="80" y1="745" x2="80" y2="745"/>
<line x1="77" y1="742" x2="80" y2="745"/>
<line x1="74" y1="739" x2="77" y2="742"/>
<line x1="71" y1="736" x2="74" y2="739"/>
<line x1="68" y1="733" x2="71" y2="736"/>
<line x1="68" y1="733" x2="66" y2="731"/>
<line x1="88" y1="753" x2="88" y2="753"/>
<line x1="88" y1="753" x2="88" y2="753"/>
<line x1="88" y1="753" x2="88" y2="753"/>
<line x1="66" y1="731" x2="66" y2="731"/>
<line x1="50" y1="715" x2="50" y2="714"/>
<line x1="50" y1="714" x2="50" y2="714"/>
<line x1="65" y1="730" x2="66" y2="731"/>
<line x1="62" y1="727" x2="65" y2="730"/>
<line x1="59" y1="724" x2="62" y2="727"/>
<line x1="50" y1="715" x2="59" y2="724"/>
<line x1="50" y1="714" x2="50" y2="714"/>
<line x1="50" y1="714" x2="50" y2="714"/>
<line x1="1275" y1="753" x2="1209" y2="753"/>
<line x1="1209" y1="753" x2="1207" y2="753"/>
<line x1="1207" y1="753" x2="1088" y2="753"/>
<line x1="1088" y1="753" x2="1087" y2="753"/>
<line x1="1087" y1="753" x2="991" y2="753"/>
<line x1="991" y1="753" x2="990" y2="753"/>
<line x1="990" y1="753" x2="911" y2="753"/>
<line x1="107" y1="753" x2="911" y2="753"/>
<line x1="107" y1="753" x2="88" y2="753"/>
<line x1="1275" y1="753" x2="1275" y2="753"/>
<line x1="1275" y1="753" x2="1275" y2="753"/>
<line x1="85" y1="714" x2="87" y2="714"/>
<line x1="82" y1="714" x2="85" y2="714"/>
<line x1="78" y1="714" x2="82" y2="714"/>
<line x1="74" y1="714" x2="78" y2="714"/>
<line x1="50" y1="714" x2="50" y2="714"/>
<line x1="70" y1="714" x2="74" y2="714"/>
<line x1="66" y1="714" x2="70" y2="714"/>
<line x1="63" y1="714" x2="66" y2="714"/>
<line x1="59" y1="714" x2="63" y2="714"/>
<line x1="55" y1="714" x2="59" y2="714"/>
<line x1="51" y1="714" x2="55" y2="714"/>
<line x1="50" y1="714" x2="51" y2="714"/>
<line x1="50" y1="714" x2="50" y2="714"/>
<line x1="1329" y1="796" x2="1360" y2="796"/>
<line x1="1329" y1="796" x2="1328" y2="796"/>
<line x1="1328" y1="796" x2="1263" y2="796"/>
<line x1="1263" y1="796" x2="1262" y2="796"/>
<line x1="1262" y1="796" x2="1208" y2="796"/>
<line x1="1208" y1="796" x2="1207" y2="796"/>
<line x1="1207" y1="796" x2="1162" y2="796"/>
<line x1="1162" y1="796" x2="1161" y2="796"/>
<line x1="1161" y1="796" x2="639" y2="796"/>
<line x1="93" y1="796" x2="639" y2="796"/>
<line x1="62" y1="796" x2="93" y2="796"/>
<line x1="62" y1="796" x2="40" y2="796"/>
<line x1="87" y1="104" x2="66" y2="104"/>
<line x1="40" y1="104" x2="66" y2="104"/>
<line x1="1360" y1="104" x2="1336" y2="104"/>
<line x1="1313" y1="104" x2="1336" y2="104"/>
<line x1="1360" y1="511" x2="1360" y2="104"/>
<line x1="1360" y1="511" x2="1360" y2="796"/>
<line x1="40" y1="360" x2="40" y2="796"/>
<line x1="40" y1="360" x2="40" y2="104"/>
</g></svg>