<svg xmlns="http://www.w3.org/2000/svg" width="1400" height="900" viewBox="0 0 1400 900">
<rect x="0" y="0" width="100%" height="100%" fill="white"/>
<g stroke="#111" stroke-width="1.2" fill="none" stroke-linecap="round">
<line x1="1314" y1="744" x2="1298" y2="744"/>
<line x1="1276" y1="744" x2="1298" y2="744"/>
<line x1="1314" y1="414" x2="1314" y2="744"/>
<line x1="1314" y1="414" x2="1314" y2="114"/>
<line x1="85" y1="256" x2="85" y2="114"/>
<line x1="85" y1="256" x2="85" y2="706"/>
<line x1="83" y1="706" x2="83" y2="707"/>
<line x1="83" y1="706" x2="83" y2="706"/>
<line x1="84" y1="707" x2="83" y2="707"/>
<line x1="83" y1="707" x2="83" y2="707"/>
<line x1="83" y1="707" x2="83" y2="707"/>
<line x1="83" y1="707" x2="83" y2="707"/>
<line x1="1275" y1="744" x2="483" y2="744"/>
<line x1="483" y1="744" x2="476" y2="744"/>
<line x1="476" y1="744" x2="250" y2="744"/>
<line x1="250" y1="744" x2="250" y2="744"/>
<line x1="250" y1="744" x2="210" y2="744"/>
<line x1="210" y1="744" x2="210" y2="744"/>
<line x1="210" y1="744" x2="193" y2="744"/>
<line x1="193" y1="744" x2="193" y2="744"/>
<line x1="193" y1="744" x2="184" y2="744"/>
<line x1="184" y1="744" x2="184" y2="744"/>
<line x1="184" y1="744" x2="178" y2="744"/>
<line x1="178" y1="744" x2="178" y2="744"/>
<line x1="178" y1="744" x2="174" y2="744"/>
<line x1="174" y1="744" x2="174" y2="744"/>
<line x1="174" y1="744" x2="171" y2="744"/>
<line x1="171" y1="744" x2="171" y2="744"/>
<line x1="171" y1="744" x2="170" y2="744"/>
<line x1="1275" y1="744" x2="1276" y2="744"/>
<line x1="1275" y1="744" x2="1275" y2="744"/>
<line x1="84" y1="706" x2="84" y2="706"/>
<line x1="84" y1="706" x2="85" y2="706"/>
<line x1="84" y1="706" x2="83" y2="706"/>
<line x1="1156" y1="786" x2="656" y2="786"/>
<line x1="1156" y1="786" x2="1234" y2="786"/>
<line x1="1234" y1="786" x2="1236" y2="786"/>
<line x1="1236" y1="786" x2="1340" y2="786"/>
<line x1="1340" y1="786" x2="1343" y2="786"/>
<line x1="1343" y1="786" x2="1360" y2="786"/>
<line x1="401" y1="786" x2="656" y2="786"/>
<line x1="387" y1="786" x2="401" y2="786"/>
<line x1="370" y1="786" x2="387" y2="786"/>
<line x1="351" y1="786" x2="370" y2="786"/>
<line x1="329" y1="786" x2="351" y2="786"/>
<line x1="303" y1="786" x2="329" y2="786"/>
<line x1="274" y1="786" x2="303" y2="786"/>
<line x1="239" y1="786" x2="274" y2="786"/>
<line x1="197" y1="786" x2="239" y2="786"/>
<line x1="63" y1="786" x2="59" y2="786"/>
<line x1="63" y1="786" x2="197" y2="786"/>
<line x1="50" y1="786" x2="59" y2="786"/>
<line x1="48" y1="786" x2="50" y2="786"/>
<line x1="41" y1="786" x2="48" y2="786"/>
<line x1="41" y1="786" x2="40" y2="786"/>
<line x1="76" y1="114" x2="80" y2="114"/>
<line x1="65" y1="114" x2="76" y2="114"/>
<line x1="64" y1="114" x2="65" y2="114"/>
<line x1="47" y1="114" x2="64" y2="114"/>
<line x1="40" y1="114" x2="47" y2="114"/>
<line x1="85" y1="114" x2="82" y2="114"/>
<line x1="82" y1="114" x2="80" y2="114"/>
<line x1="80" y1="114" x2="80" y2="114"/>
<line x1="1349" y1="114" x2="1360" y2="114"/>
<line x1="1349" y1="114" x2="1314" y2="114"/>
<line x1="1360" y1="203" x2="1360" y2="114"/>
<line x1="1360" y1="203" x2="1360" y2="786"/>
<line x1="40" y1="783" x2="40" y2="783"/>
<line x1="40" y1="783" x2="40" y2="782"/>
<line x1="40" y1="782" x2="40" y2="782"/>
<line x1="40" y1="782" x2="40" y2="768"/>
<line x1="40" y1="768" x2="40" y2="768"/>
<line x1="40" y1="768" x2="40" y2="767"/>
<line x1="40" y1="767" x2="40" y2="767"/>
<line x1="40" y1="783" x2="40" y2="786"/>
<line x1="40" y1="767" x2="40" y2="301"/>
<line x1="40" y1="301" x2="40" y2="275"/>
<line x1="40" y1="275" x2="40" y2="155"/>
<line x1="40" y1="115" x2="40" y2="115"/>
<line x1="40" y1="114" x2="40" y2="115"/>
<line x1="64" y1="134" x2="64" y2="131"/>
<line x1="64" y1="134" x2="64" y2="135"/>
<line x1="63" y1="131" x2="63" y2="130"/>
<line x1="63" y1="131" x2="63" y2="131"/>
<line x1="63" y1="131" x2="63" y2="131"/>
<line x1="63" y1="131" x2="64" y2="131"/>
<line x1="63" y1="139" x2="63" y2="139"/>
<line x1="63" y1="139" x2="63" y2="139"/>
<line x1="57" y1="150" x2="58" y2="149"/>
<line x1="57" y1="150" x2="55" y2="152"/>
<line x1="63" y1="130" x2="62" y2="127"/>
<line x1="63" y1="130" x2="63" y2="130"/>
<line x1="63" y1="130" x2="63" y2="130"/>
<line x1="63" y1="139" x2="63" y2="139"/>
<line x1="63" y1="139" x2="64" y2="138"/>
<line x1="60" y1="124" x2="60" y2="123"/>
<line x1="60" y1="124" x2="61" y2="124"/>
<line x1="57" y1="120" x2="58" y2="120"/>
<line x1="57" y1="120" x2="55" y2="118"/>
<line x1="51" y1="116" x2="51" y2="116"/>
<line x1="51" y1="116" x2="51" y2="116"/>
<line x1="55" y1="118" x2="55" y2="118"/>
<line x1="55" y1="118" x2="55" y2="118"/>
<line x1="63" y1="140" x2="62" y2="143"/>
<line x1="63" y1="140" x2="63" y2="140"/>
<line x1="63" y1="140" x2="63" y2="139"/>
<line x1="47" y1="155" x2="47" y2="155"/>
<line x1="47" y1="155" x2="47" y2="155"/>
<line x1="46" y1="155" x2="47" y2="155"/>
<line x1="46" y1="155" x2="43" y2="155"/>
<line x1="46" y1="115" x2="47" y2="115"/>
<line x1="46" y1="115" x2="43" y2="114"/>
<line x1="51" y1="116" x2="52" y2="116"/>
<line x1="51" y1="116" x2="51" y2="116"/>
<line x1="62" y1="126" x2="61" y2="124"/>
<line x1="62" y1="126" x2="62" y2="127"/>
<line x1="64" y1="135" x2="64" y2="138"/>
<line x1="64" y1="135" x2="64" y2="135"/>
<line x1="62" y1="143" x2="61" y2="146"/>
<line x1="62" y1="143" x2="62" y2="143"/>
<line x1="42" y1="155" x2="43" y2="155"/>
<line x1="42" y1="155" x2="40" y2="155"/>
<line x1="40" y1="155" x2="40" y2="155"/>
<line x1="40" y1="155" x2="40" y2="155"/>
<line x1="51" y1="154" x2="52" y2="154"/>
<line x1="51" y1="154" x2="51" y2="154"/>
<line x1="51" y1="154" x2="51" y2="154"/>
<line x1="51" y1="154" x2="51" y2="154"/>
<line x1="60" y1="147" x2="58" y2="149"/>
<line x1="60" y1="147" x2="60" y2="147"/>
<line x1="60" y1="147" x2="60" y2="147"/>
<line x1="60" y1="123" x2="60" y2="123"/>
<line x1="60" y1="123" x2="60" y2="123"/>
<line x1="47" y1="115" x2="47" y2="115"/>
<line x1="47" y1="115" x2="47" y2="115"/>
<line x1="43" y1="114" x2="43" y2="114"/>
<line x1="43" y1="114" x2="43" y2="114"/>
<line x1="54" y1="152" x2="55" y2="152"/>
<line x1="54" y1="152" x2="54" y2="152"/>
<line x1="52" y1="154" x2="54" y2="152"/>
<line x1="60" y1="146" x2="60" y2="147"/>
<line x1="60" y1="146" x2="60" y2="146"/>
<line x1="60" y1="146" x2="60" y2="146"/>
<line x1="60" y1="146" x2="61" y2="146"/>
<line x1="54" y1="118" x2="55" y2="118"/>
<line x1="54" y1="117" x2="54" y2="118"/>
<line x1="54" y1="117" x2="52" y2="116"/>
<line x1="42" y1="114" x2="40" y2="115"/>
<line x1="40" y1="115" x2="40" y2="115"/>
<line x1="42" y1="114" x2="43" y2="114"/>
<line x1="40" y1="115" x2="40" y2="115"/>
<line x1="50" y1="154" x2="51" y2="154"/>
<line x1="50" y1="154" x2="50" y2="154"/>
<line x1="50" y1="154" x2="47" y2="155"/>
<line x1="43" y1="155" x2="43" y2="155"/>
<line x1="43" y1="155" x2="43" y2="155"/>
<line x1="55" y1="152" x2="55" y2="152"/>
<line x1="55" y1="152" x2="55" y2="152"/>
<line x1="60" y1="123" x2="58" y2="120"/>
<line x1="60" y1="123" x2="60" y2="123"/>
<line x1="60" y1="123" x2="60" y2="123"/>
<line x1="50" y1="115" x2="51" y2="116"/>
<line x1="50" y1="115" x2="50" y2="115"/>
<line x1="50" y1="115" x2="47" y2="115"/>
<line x1="57" y1="781" x2="57" y2="781"/>
<line x1="72" y1="781" x2="57" y2="781"/>
<line x1="44" y1="780" x2="44" y2="779"/>
<line x1="44" y1="779" x2="44" y2="779"/>
<line x1="44" y1="779" x2="44" y2="779"/>
<line x1="170" y1="744" x2="170" y2="744"/>
<line x1="44" y1="709" x2="44" y2="708"/>
<line x1="57" y1="781" x2="57" y2="781"/>
<line x1="117" y1="777" x2="103" y2="779"/>
<line x1="57" y1="781" x2="44" y2="780"/>
<line x1="57" y1="707" x2="44" y2="708"/>
<line x1="72" y1="707" x2="84" y2="707"/>
<line x1="44" y1="708" x2="44" y2="708"/>
<line x1="102" y1="779" x2="87" y2="781"/>
<line x1="129" y1="774" x2="130" y2="774"/>
<line x1="129" y1="774" x2="117" y2="777"/>
<line x1="44" y1="778" x2="44" y2="709"/>
<line x1="44" y1="778" x2="44" y2="779"/>
<line x1="87" y1="781" x2="72" y2="781"/>
<line x1="72" y1="781" x2="72" y2="781"/>
<line x1="44" y1="708" x2="44" y2="708"/>
<line x1="102" y1="779" x2="103" y2="779"/>
<line x1="102" y1="779" x2="102" y2="779"/>
<line x1="57" y1="707" x2="57" y2="707"/>
<line x1="169" y1="750" x2="169" y2="750"/>
<line x1="169" y1="750" x2="166" y2="755"/>
<line x1="57" y1="707" x2="57" y2="707"/>
<line x1="60" y1="707" x2="64" y2="707"/>
<line x1="64" y1="707" x2="72" y2="707"/>
<line x1="60" y1="707" x2="57" y2="707"/>
<line x1="166" y1="755" x2="160" y2="760"/>
<line x1="170" y1="744" x2="169" y2="750"/>
<line x1="159" y1="761" x2="160" y2="761"/>
<line x1="159" y1="761" x2="152" y2="766"/>
<line x1="72" y1="707" x2="72" y2="707"/>
<line x1="151" y1="766" x2="142" y2="770"/>
<line x1="141" y1="771" x2="142" y2="770"/>
<line x1="141" y1="771" x2="130" y2="774"/>
<line x1="151" y1="766" x2="152" y2="766"/>
<line x1="160" y1="761" x2="160" y2="760"/>
</g></svg>