<svg xmlns="http://www.w3.org/2000/svg" width="1400" height="900" viewBox="0 0 1400 900">
<rect x="0" y="0" width="100%" height="100%" fill="white"/>
<g stroke="#111" stroke-width="1.2" fill="none" stroke-linecap="round">
<line x1="1085" y1="827" x2="1081" y2="828"/>
<line x1="1085" y1="827" x2="1090" y2="825"/>
<line x1="1090" y1="825" x2="1092" y2="823"/>
<line x1="1097" y1="763" x2="1097" y2="778"/>
<line x1="1097" y1="762" x2="1097" y2="763"/>
<line x1="1095" y1="730" x2="1097" y2="762"/>
<line x1="1095" y1="730" x2="1095" y2="730"/>
<line x1="1095" y1="730" x2="1092" y2="697"/>
<line x1="1092" y1="697" x2="1092" y2="697"/>
<line x1="1092" y1="697" x2="1089" y2="665"/>
<line x1="1089" y1="665" x2="1089" y2="665"/>
<line x1="1089" y1="665" x2="1086" y2="632"/>
<line x1="1086" y1="632" x2="1086" y2="632"/>
<line x1="1086" y1="632" x2="1082" y2="600"/>
<line x1="1082" y1="600" x2="1082" y2="600"/>
<line x1="1082" y1="600" x2="1078" y2="568"/>
<line x1="1078" y1="568" x2="1078" y2="567"/>
<line x1="1078" y1="567" x2="1073" y2="535"/>
<line x1="1073" y1="535" x2="1073" y2="535"/>
<line x1="1073" y1="535" x2="1067" y2="503"/>
<line x1="1067" y1="503" x2="1067" y2="503"/>
<line x1="1067" y1="503" x2="1061" y2="471"/>
<line x1="1061" y1="471" x2="1061" y2="471"/>
<line x1="1061" y1="471" x2="1055" y2="439"/>
<line x1="1055" y1="439" x2="1055" y2="439"/>
<line x1="1055" y1="439" x2="1048" y2="407"/>
<line x1="1048" y1="407" x2="1048" y2="407"/>
<line x1="1048" y1="407" x2="1040" y2="375"/>
<line x1="1040" y1="375" x2="1040" y2="375"/>
<line x1="1040" y1="375" x2="1032" y2="344"/>
<line x1="1032" y1="344" x2="1032" y2="343"/>
<line x1="1032" y1="343" x2="1023" y2="312"/>
<line x1="1023" y1="312" x2="1023" y2="312"/>
<line x1="1023" y1="312" x2="1014" y2="281"/>
<line x1="1014" y1="281" x2="1014" y2="280"/>
<line x1="1014" y1="280" x2="1005" y2="249"/>
<line x1="1005" y1="249" x2="1005" y2="249"/>
<line x1="1005" y1="249" x2="995" y2="218"/>
<line x1="995" y1="218" x2="995" y2="218"/>
<line x1="995" y1="218" x2="984" y2="188"/>
<line x1="984" y1="188" x2="984" y2="187"/>
<line x1="984" y1="187" x2="973" y2="157"/>
<line x1="973" y1="157" x2="973" y2="157"/>
<line x1="973" y1="157" x2="961" y2="126"/>
<line x1="961" y1="126" x2="961" y2="126"/>
<line x1="961" y1="126" x2="955" y2="111"/>
<line x1="929" y1="71" x2="933" y2="72"/>
<line x1="925" y1="71" x2="929" y2="71"/>
<line x1="925" y1="71" x2="920" y2="73"/>
<line x1="887" y1="87" x2="920" y2="73"/>
<line x1="310" y1="379" x2="309" y2="377"/>
<line x1="310" y1="379" x2="318" y2="399"/>
<line x1="318" y1="399" x2="325" y2="419"/>
<line x1="325" y1="419" x2="332" y2="440"/>
<line x1="332" y1="440" x2="338" y2="460"/>
<line x1="338" y1="460" x2="345" y2="480"/>
<line x1="345" y1="480" x2="351" y2="501"/>
<line x1="351" y1="501" x2="356" y2="522"/>
<line x1="356" y1="522" x2="362" y2="542"/>
<line x1="362" y1="542" x2="367" y2="563"/>
<line x1="367" y1="563" x2="367" y2="564"/>
<line x1="375" y1="604" x2="375" y2="605"/>
<line x1="379" y1="626" x2="375" y2="605"/>
<line x1="383" y1="647" x2="379" y2="626"/>
<line x1="386" y1="668" x2="383" y2="647"/>
<line x1="389" y1="690" x2="386" y2="668"/>
<line x1="392" y1="711" x2="389" y2="690"/>
<line x1="394" y1="732" x2="392" y2="711"/>
<line x1="396" y1="753" x2="394" y2="732"/>
<line x1="397" y1="775" x2="396" y2="753"/>
<line x1="399" y1="796" x2="397" y2="775"/>
<line x1="399" y1="796" x2="399" y2="799"/>
<line x1="1059" y1="828" x2="1081" y2="828"/>
<line x1="905" y1="80" x2="909" y2="80"/>
<line x1="1039" y1="474" x2="1033" y2="444"/>
<line x1="1043" y1="829" x2="1050" y2="828"/>
<line x1="1043" y1="829" x2="1039" y2="829"/>
<line x1="1015" y1="829" x2="1034" y2="829"/>
<line x1="1039" y1="829" x2="1034" y2="829"/>
<line x1="1015" y1="829" x2="749" y2="833"/>
<line x1="1026" y1="412" x2="1033" y2="443"/>
<line x1="1070" y1="699" x2="1070" y2="699"/>
<line x1="974" y1="225" x2="974" y2="225"/>
<line x1="900" y1="81" x2="904" y2="80"/>
<line x1="905" y1="80" x2="905" y2="80"/>
<line x1="909" y1="80" x2="912" y2="81"/>
<line x1="1063" y1="828" x2="1059" y2="828"/>
<line x1="1059" y1="828" x2="1059" y2="828"/>
<line x1="1026" y1="412" x2="1026" y2="412"/>
<line x1="1063" y1="828" x2="1068" y2="826"/>
<line x1="941" y1="134" x2="941" y2="135"/>
<line x1="887" y1="87" x2="615" y2="203"/>
<line x1="887" y1="87" x2="615" y2="203"/>
<line x1="887" y1="87" x2="900" y2="81"/>
<line x1="1019" y1="381" x2="1026" y2="412"/>
<line x1="1073" y1="731" x2="1073" y2="732"/>
<line x1="375" y1="604" x2="367" y2="564"/>
<line x1="367" y1="564" x2="325" y2="370"/>
<line x1="375" y1="604" x2="367" y2="564"/>
<line x1="375" y1="604" x2="417" y2="798"/>
<line x1="963" y1="194" x2="963" y2="195"/>
<line x1="1056" y1="571" x2="1056" y2="570"/>
<line x1="941" y1="134" x2="941" y2="134"/>
<line x1="1051" y1="538" x2="1051" y2="539"/>
<line x1="963" y1="194" x2="952" y2="164"/>
<line x1="993" y1="287" x2="993" y2="287"/>
<line x1="1039" y1="474" x2="1040" y2="475"/>
<line x1="1033" y1="443" x2="1033" y2="444"/>
<line x1="974" y1="225" x2="974" y2="225"/>
<line x1="1056" y1="571" x2="1060" y2="602"/>
<line x1="1075" y1="764" x2="1075" y2="763"/>
<line x1="993" y1="287" x2="993" y2="287"/>
<line x1="1019" y1="380" x2="1019" y2="381"/>
<line x1="1068" y1="667" x2="1068" y2="667"/>
<line x1="904" y1="80" x2="905" y2="80"/>
<line x1="1058" y1="828" x2="1050" y2="828"/>
<line x1="1058" y1="828" x2="1059" y2="828"/>
<line x1="963" y1="195" x2="963" y2="195"/>
<line x1="993" y1="286" x2="984" y2="256"/>
<line x1="1068" y1="666" x2="1068" y2="667"/>
<line x1="1073" y1="732" x2="1075" y2="763"/>
<line x1="974" y1="225" x2="974" y2="225"/>
<line x1="1019" y1="381" x2="1019" y2="381"/>
<line x1="1068" y1="667" x2="1070" y2="699"/>
<line x1="1019" y1="380" x2="1019" y2="380"/>
<line x1="993" y1="287" x2="1002" y2="318"/>
<line x1="1046" y1="507" x2="1046" y2="507"/>
<line x1="984" y1="256" x2="984" y2="256"/>
<line x1="1002" y1="318" x2="1002" y2="318"/>
<line x1="974" y1="226" x2="984" y2="256"/>
<line x1="1011" y1="349" x2="1011" y2="349"/>
<line x1="1068" y1="666" x2="1064" y2="635"/>
<line x1="1002" y1="318" x2="1011" y2="349"/>
<line x1="1060" y1="603" x2="1060" y2="602"/>
<line x1="993" y1="286" x2="993" y2="287"/>
<line x1="1056" y1="570" x2="1056" y2="570"/>
<line x1="1056" y1="571" x2="1056" y2="571"/>
<line x1="1019" y1="380" x2="1019" y2="380"/>
<line x1="974" y1="225" x2="963" y2="195"/>
<line x1="941" y1="135" x2="952" y2="164"/>
<line x1="1026" y1="412" x2="1026" y2="412"/>
<line x1="952" y1="164" x2="952" y2="164"/>
<line x1="1056" y1="570" x2="1051" y2="539"/>
<line x1="1045" y1="506" x2="1046" y2="507"/>
<line x1="974" y1="225" x2="974" y2="226"/>
<line x1="1068" y1="667" x2="1068" y2="667"/>
<line x1="935" y1="120" x2="941" y2="134"/>
<line x1="1068" y1="826" x2="1070" y2="824"/>
<line x1="1073" y1="731" x2="1073" y2="731"/>
<line x1="1046" y1="507" x2="1046" y2="507"/>
<line x1="1040" y1="475" x2="1040" y2="475"/>
<line x1="1073" y1="731" x2="1073" y2="731"/>
<line x1="1046" y1="507" x2="1051" y2="538"/>
<line x1="1073" y1="731" x2="1070" y2="699"/>
<line x1="1045" y1="506" x2="1040" y2="475"/>
<line x1="1075" y1="764" x2="1075" y2="764"/>
<line x1="1075" y1="764" x2="1075" y2="779"/>
<line x1="1064" y1="635" x2="1064" y2="635"/>
<line x1="1064" y1="634" x2="1060" y2="603"/>
<line x1="1019" y1="380" x2="1011" y2="349"/>
<line x1="1011" y1="349" x2="1011" y2="349"/>
<line x1="1002" y1="318" x2="1002" y2="318"/>
<line x1="993" y1="287" x2="993" y2="287"/>
<line x1="1064" y1="634" x2="1064" y2="635"/>
<line x1="1092" y1="858" x2="1092" y2="858"/>
<line x1="1092" y1="858" x2="1092" y2="858"/>
<line x1="1092" y1="858" x2="1092" y2="858"/>
<line x1="1092" y1="858" x2="1092" y2="858"/>
<line x1="1092" y1="858" x2="1092" y2="858"/>
<line x1="1093" y1="858" x2="1092" y2="858"/>
<line x1="1093" y1="858" x2="1093" y2="858"/>
<line x1="1093" y1="858" x2="1093" y2="858"/>
<line x1="1093" y1="858" x2="1093" y2="858"/>
<line x1="1093" y1="858" x2="1103" y2="854"/>
<line x1="1103" y1="854" x2="1103" y2="854"/>
<line x1="1103" y1="854" x2="1103" y2="854"/>
<line x1="1112" y1="847" x2="1103" y2="854"/>
<line x1="1112" y1="847" x2="1112" y2="847"/>
<line x1="1112" y1="847" x2="1112" y2="847"/>
<line x1="1112" y1="847" x2="1112" y2="847"/>
<line x1="1112" y1="847" x2="1112" y2="847"/>
<line x1="1112" y1="847" x2="1112" y2="847"/>
<line x1="1119" y1="838" x2="1119" y2="838"/>
<line x1="1119" y1="838" x2="1119" y2="838"/>
<line x1="1119" y1="838" x2="1119" y2="838"/>
<line x1="1119" y1="838" x2="1119" y2="838"/>
<line x1="1119" y1="838" x2="1119" y2="838"/>
<line x1="1119" y1="838" x2="1119" y2="838"/>
<line x1="1119" y1="838" x2="1119" y2="838"/>
<line x1="1119" y1="838" x2="1119" y2="838"/>
<line x1="1119" y1="838" x2="1119" y2="838"/>
<line x1="1119" y1="838" x2="1112" y2="847"/>
<line x1="1123" y1="828" x2="1124" y2="827"/>
<line x1="1123" y1="828" x2="1119" y2="838"/>
<line x1="1125" y1="815" x2="1125" y2="814"/>
<line x1="1125" y1="815" x2="1124" y2="827"/>
<line x1="1124" y1="790" x2="1124" y2="789"/>
<line x1="1124" y1="790" x2="1125" y2="814"/>
<line x1="1124" y1="788" x2="1124" y2="788"/>
<line x1="1124" y1="788" x2="1124" y2="789"/>
<line x1="1123" y1="755" x2="1123" y2="753"/>
<line x1="1123" y1="755" x2="1124" y2="788"/>
<line x1="1123" y1="752" x2="1123" y2="752"/>
<line x1="1123" y1="752" x2="1123" y2="753"/>
<line x1="1121" y1="719" x2="1121" y2="717"/>
<line x1="1121" y1="719" x2="1123" y2="752"/>
<line x1="1121" y1="716" x2="1121" y2="716"/>
<line x1="1121" y1="716" x2="1121" y2="717"/>
<line x1="1118" y1="684" x2="1118" y2="681"/>
<line x1="1118" y1="684" x2="1121" y2="716"/>
<line x1="1118" y1="681" x2="1118" y2="681"/>
<line x1="1118" y1="681" x2="1118" y2="681"/>
<line x1="1115" y1="648" x2="1114" y2="646"/>
<line x1="1115" y1="648" x2="1118" y2="681"/>
<line x1="1114" y1="645" x2="1114" y2="645"/>
<line x1="1114" y1="645" x2="1114" y2="646"/>
<line x1="1111" y1="612" x2="1110" y2="610"/>
<line x1="1111" y1="612" x2="1114" y2="645"/>
<line x1="1110" y1="610" x2="1110" y2="609"/>
<line x1="1110" y1="610" x2="1110" y2="610"/>
<line x1="1106" y1="577" x2="1106" y2="575"/>
<line x1="1106" y1="577" x2="1110" y2="609"/>
<line x1="1106" y1="574" x2="1106" y2="574"/>
<line x1="1106" y1="574" x2="1106" y2="575"/>
<line x1="1101" y1="541" x2="1100" y2="539"/>
<line x1="1101" y1="541" x2="1106" y2="574"/>
<line x1="1100" y1="539" x2="1100" y2="539"/>
<line x1="1100" y1="539" x2="1100" y2="539"/>
<line x1="1095" y1="506" x2="1095" y2="504"/>
<line x1="1095" y1="506" x2="1100" y2="539"/>
<line x1="1094" y1="503" x2="1094" y2="503"/>
<line x1="1094" y1="503" x2="1095" y2="504"/>
<line x1="1088" y1="471" x2="1088" y2="469"/>
<line x1="1088" y1="471" x2="1094" y2="503"/>
<line x1="1088" y1="468" x2="1088" y2="468"/>
<line x1="1088" y1="468" x2="1088" y2="469"/>
<line x1="1081" y1="436" x2="1081" y2="434"/>
<line x1="1081" y1="436" x2="1088" y2="468"/>
<line x1="1081" y1="433" x2="1081" y2="433"/>
<line x1="1081" y1="433" x2="1081" y2="434"/>
<line x1="1074" y1="401" x2="1073" y2="399"/>
<line x1="1074" y1="401" x2="1081" y2="433"/>
<line x1="1073" y1="398" x2="1073" y2="398"/>
<line x1="1073" y1="398" x2="1073" y2="399"/>
<line x1="1065" y1="366" x2="1065" y2="364"/>
<line x1="1065" y1="366" x2="1073" y2="398"/>
<line x1="1065" y1="363" x2="1065" y2="363"/>
<line x1="1065" y1="363" x2="1065" y2="364"/>
<line x1="1056" y1="331" x2="1056" y2="329"/>
<line x1="1056" y1="331" x2="1065" y2="363"/>
<line x1="1056" y1="328" x2="1056" y2="328"/>
<line x1="1056" y1="328" x2="1056" y2="329"/>
<line x1="1047" y1="297" x2="1046" y2="295"/>
<line x1="1047" y1="297" x2="1056" y2="328"/>
<line x1="1046" y1="294" x2="1046" y2="294"/>
<line x1="1046" y1="294" x2="1046" y2="295"/>
<line x1="1037" y1="262" x2="1036" y2="260"/>
<line x1="1037" y1="262" x2="1046" y2="294"/>
<line x1="1036" y1="260" x2="1036" y2="259"/>
<line x1="1036" y1="260" x2="1036" y2="260"/>
<line x1="1026" y1="228" x2="1025" y2="226"/>
<line x1="1026" y1="228" x2="1036" y2="259"/>
<line x1="1025" y1="225" x2="1025" y2="225"/>
<line x1="1025" y1="225" x2="1025" y2="226"/>
<line x1="1015" y1="194" x2="1014" y2="192"/>
<line x1="1015" y1="194" x2="1025" y2="225"/>
<line x1="1014" y1="191" x2="1014" y2="191"/>
<line x1="1014" y1="191" x2="1014" y2="192"/>
<line x1="1003" y1="160" x2="1002" y2="158"/>
<line x1="1003" y1="160" x2="1014" y2="191"/>
<line x1="1002" y1="158" x2="1002" y2="158"/>
<line x1="1002" y1="158" x2="1002" y2="158"/>
<line x1="990" y1="127" x2="989" y2="125"/>
<line x1="990" y1="127" x2="1002" y2="158"/>
<line x1="989" y1="124" x2="989" y2="124"/>
<line x1="989" y1="124" x2="989" y2="125"/>
<line x1="977" y1="93" x2="976" y2="91"/>
<line x1="977" y1="93" x2="989" y2="124"/>
<line x1="976" y1="91" x2="976" y2="91"/>
<line x1="976" y1="91" x2="976" y2="91"/>
<line x1="967" y1="69" x2="966" y2="67"/>
<line x1="967" y1="69" x2="976" y2="91"/>
<line x1="961" y1="58" x2="960" y2="57"/>
<line x1="961" y1="58" x2="966" y2="67"/>
<line x1="953" y1="49" x2="952" y2="49"/>
<line x1="953" y1="49" x2="960" y2="57"/>
<line x1="952" y1="49" x2="952" y2="49"/>
<line x1="952" y1="49" x2="952" y2="49"/>
<line x1="952" y1="49" x2="952" y2="49"/>
<line x1="952" y1="48" x2="952" y2="49"/>
<line x1="952" y1="48" x2="952" y2="48"/>
<line x1="952" y1="48" x2="952" y2="48"/>
<line x1="952" y1="48" x2="942" y2="43"/>
<line x1="942" y1="43" x2="942" y2="43"/>
<line x1="942" y1="43" x2="942" y2="43"/>
<line x1="942" y1="43" x2="942" y2="43"/>
<line x1="942" y1="43" x2="942" y2="43"/>
<line x1="942" y1="43" x2="942" y2="43"/>
<line x1="931" y1="40" x2="942" y2="43"/>
<line x1="931" y1="40" x2="931" y2="40"/>
<line x1="931" y1="40" x2="931" y2="40"/>
<line x1="931" y1="40" x2="931" y2="40"/>
<line x1="931" y1="40" x2="931" y2="40"/>
<line x1="920" y1="40" x2="931" y2="40"/>
<line x1="920" y1="40" x2="920" y2="40"/>
<line x1="920" y1="40" x2="920" y2="40"/>
<line x1="920" y1="40" x2="920" y2="40"/>
<line x1="920" y1="40" x2="920" y2="40"/>
<line x1="920" y1="40" x2="920" y2="40"/>
<line x1="920" y1="40" x2="919" y2="40"/>
<line x1="919" y1="40" x2="919" y2="40"/>
<line x1="919" y1="40" x2="919" y2="40"/>
<line x1="919" y1="40" x2="919" y2="40"/>
<line x1="919" y1="40" x2="919" y2="40"/>
<line x1="919" y1="40" x2="907" y2="43"/>
<line x1="570" y1="193" x2="603" y2="179"/>
<line x1="312" y1="308" x2="301" y2="313"/>
<line x1="432" y1="255" x2="312" y2="308"/>
<line x1="489" y1="230" x2="432" y2="255"/>
<line x1="519" y1="216" x2="489" y2="230"/>
<line x1="541" y1="206" x2="519" y2="216"/>
<line x1="570" y1="193" x2="541" y2="206"/>
<line x1="614" y1="174" x2="603" y2="179"/>
<line x1="624" y1="170" x2="907" y2="43"/>
<line x1="624" y1="170" x2="614" y2="174"/>
<line x1="301" y1="313" x2="301" y2="313"/>
<line x1="300" y1="314" x2="301" y2="313"/>
<line x1="300" y1="314" x2="291" y2="319"/>
<line x1="291" y1="320" x2="290" y2="321"/>
<line x1="290" y1="321" x2="287" y2="323"/>
<line x1="287" y1="323" x2="287" y2="323"/>
<line x1="283" y1="328" x2="287" y2="323"/>
<line x1="291" y1="320" x2="291" y2="319"/>
<line x1="283" y1="328" x2="283" y2="328"/>
<line x1="283" y1="328" x2="283" y2="328"/>
<line x1="283" y1="328" x2="283" y2="328"/>
<line x1="283" y1="328" x2="283" y2="328"/>
<line x1="283" y1="328" x2="283" y2="328"/>
<line x1="283" y1="328" x2="283" y2="328"/>
<line x1="283" y1="328" x2="283" y2="328"/>
<line x1="283" y1="328" x2="283" y2="328"/>
<line x1="283" y1="328" x2="283" y2="328"/>
<line x1="283" y1="328" x2="283" y2="328"/>
<line x1="283" y1="328" x2="283" y2="328"/>
<line x1="283" y1="328" x2="278" y2="338"/>
<line x1="283" y1="328" x2="283" y2="328"/>
<line x1="278" y1="338" x2="277" y2="341"/>
<line x1="277" y1="342" x2="277" y2="342"/>
<line x1="277" y1="341" x2="277" y2="342"/>
<line x1="275" y1="355" x2="275" y2="352"/>
<line x1="275" y1="355" x2="275" y2="355"/>
<line x1="275" y1="355" x2="275" y2="355"/>
<line x1="275" y1="355" x2="275" y2="356"/>
<line x1="275" y1="356" x2="275" y2="361"/>
<line x1="275" y1="361" x2="275" y2="361"/>
<line x1="278" y1="370" x2="275" y2="361"/>
<line x1="278" y1="370" x2="278" y2="371"/>
<line x1="278" y1="371" x2="279" y2="373"/>
<line x1="278" y1="371" x2="278" y2="371"/>
<line x1="279" y1="373" x2="279" y2="373"/>
<line x1="279" y1="373" x2="279" y2="373"/>
<line x1="287" y1="393" x2="279" y2="373"/>
<line x1="287" y1="393" x2="287" y2="394"/>
<line x1="287" y1="394" x2="287" y2="394"/>
<line x1="287" y1="394" x2="287" y2="394"/>
<line x1="294" y1="414" x2="287" y2="394"/>
<line x1="294" y1="414" x2="295" y2="415"/>
<line x1="295" y1="415" x2="295" y2="415"/>
<line x1="295" y1="415" x2="295" y2="415"/>
<line x1="295" y1="415" x2="295" y2="415"/>
<line x1="302" y1="435" x2="295" y2="415"/>
<line x1="302" y1="435" x2="302" y2="436"/>
<line x1="302" y1="436" x2="302" y2="436"/>
<line x1="302" y1="436" x2="303" y2="437"/>
<line x1="303" y1="437" x2="303" y2="437"/>
<line x1="309" y1="457" x2="303" y2="437"/>
<line x1="309" y1="457" x2="309" y2="457"/>
<line x1="309" y1="457" x2="310" y2="457"/>
<line x1="310" y1="457" x2="310" y2="458"/>
<line x1="310" y1="458" x2="310" y2="458"/>
<line x1="310" y1="458" x2="310" y2="458"/>
<line x1="316" y1="478" x2="310" y2="458"/>
<line x1="316" y1="478" x2="316" y2="479"/>
<line x1="316" y1="479" x2="316" y2="479"/>
<line x1="316" y1="479" x2="317" y2="480"/>
<line x1="323" y1="500" x2="317" y2="480"/>
<line x1="323" y1="500" x2="323" y2="502"/>
<line x1="329" y1="522" x2="323" y2="502"/>
<line x1="329" y1="522" x2="329" y2="523"/>
<line x1="334" y1="544" x2="329" y2="523"/>
<line x1="334" y1="544" x2="335" y2="545"/>
<line x1="340" y1="566" x2="335" y2="545"/>
<line x1="340" y1="566" x2="340" y2="567"/>
<line x1="345" y1="588" x2="340" y2="567"/>
<line x1="345" y1="588" x2="345" y2="590"/>
<line x1="349" y1="610" x2="345" y2="590"/>
<line x1="349" y1="610" x2="350" y2="612"/>
<line x1="353" y1="633" x2="350" y2="612"/>
<line x1="353" y1="633" x2="354" y2="634"/>
<line x1="357" y1="655" x2="354" y2="634"/>
<line x1="357" y1="655" x2="357" y2="657"/>
<line x1="361" y1="678" x2="357" y2="657"/>
<line x1="361" y1="678" x2="361" y2="679"/>
<line x1="364" y1="700" x2="361" y2="679"/>
<line x1="364" y1="700" x2="364" y2="702"/>
<line x1="364" y1="702" x2="364" y2="703"/>
<line x1="364" y1="703" x2="366" y2="724"/>
<line x1="364" y1="703" x2="364" y2="703"/>
<line x1="366" y1="724" x2="366" y2="724"/>
<line x1="366" y1="724" x2="366" y2="724"/>
<line x1="366" y1="724" x2="366" y2="724"/>
<line x1="366" y1="725" x2="366" y2="724"/>
<line x1="366" y1="725" x2="366" y2="725"/>
<line x1="366" y1="726" x2="369" y2="747"/>
<line x1="366" y1="726" x2="366" y2="725"/>
<line x1="369" y1="747" x2="369" y2="747"/>
<line x1="369" y1="747" x2="369" y2="747"/>
<line x1="369" y1="748" x2="369" y2="747"/>
<line x1="369" y1="748" x2="369" y2="748"/>
<line x1="369" y1="748" x2="370" y2="769"/>
<line x1="369" y1="748" x2="369" y2="748"/>
<line x1="370" y1="770" x2="370" y2="769"/>
<line x1="370" y1="771" x2="370" y2="770"/>
<line x1="372" y1="792" x2="370" y2="771"/>
<line x1="372" y1="792" x2="372" y2="792"/>
<line x1="372" y1="792" x2="372" y2="792"/>
<line x1="372" y1="793" x2="372" y2="792"/>
<line x1="372" y1="793" x2="372" y2="793"/>
<line x1="373" y1="814" x2="372" y2="793"/>
<line x1="373" y1="814" x2="373" y2="815"/>
<line x1="373" y1="816" x2="373" y2="815"/>
<line x1="373" y1="816" x2="373" y2="817"/>
<line x1="373" y1="817" x2="373" y2="817"/>
<line x1="374" y1="828" x2="373" y2="817"/>
<line x1="374" y1="828" x2="375" y2="828"/>
<line x1="375" y1="828" x2="375" y2="828"/>
<line x1="375" y1="828" x2="376" y2="832"/>
<line x1="377" y1="833" x2="378" y2="835"/>
<line x1="377" y1="833" x2="377" y2="833"/>
<line x1="376" y1="833" x2="377" y2="833"/>
<line x1="376" y1="832" x2="376" y2="833"/>
<line x1="376" y1="832" x2="376" y2="832"/>
<line x1="384" y1="844" x2="387" y2="848"/>
<line x1="384" y1="844" x2="384" y2="844"/>
<line x1="384" y1="844" x2="384" y2="844"/>
<line x1="395" y1="854" x2="387" y2="848"/>
<line x1="395" y1="854" x2="395" y2="854"/>
<line x1="395" y1="854" x2="396" y2="854"/>
<line x1="396" y1="854" x2="396" y2="854"/>
<line x1="396" y1="854" x2="396" y2="854"/>
<line x1="396" y1="854" x2="396" y2="854"/>
<line x1="396" y1="854" x2="396" y2="854"/>
<line x1="396" y1="854" x2="396" y2="854"/>
<line x1="396" y1="854" x2="396" y2="855"/>
<line x1="396" y1="855" x2="396" y2="855"/>
<line x1="396" y1="855" x2="396" y2="855"/>
<line x1="406" y1="859" x2="407" y2="859"/>
<line x1="404" y1="858" x2="406" y2="859"/>
<line x1="404" y1="858" x2="404" y2="858"/>
<line x1="404" y1="858" x2="404" y2="858"/>
<line x1="401" y1="856" x2="404" y2="858"/>
<line x1="401" y1="856" x2="396" y2="855"/>
<line x1="417" y1="860" x2="417" y2="860"/>
<line x1="415" y1="860" x2="417" y2="860"/>
<line x1="415" y1="860" x2="407" y2="859"/>
<line x1="429" y1="860" x2="417" y2="860"/>
<line x1="531" y1="860" x2="429" y2="860"/>
<line x1="561" y1="860" x2="531" y2="860"/>
<line x1="591" y1="860" x2="561" y2="860"/>
<line x1="656" y1="860" x2="591" y2="860"/>
<line x1="688" y1="860" x2="656" y2="860"/>
<line x1="712" y1="860" x2="688" y2="860"/>
<line x1="712" y1="860" x2="748" y2="860"/>
<line x1="759" y1="860" x2="748" y2="860"/>
<line x1="770" y1="860" x2="759" y2="860"/>
<line x1="770" y1="860" x2="1081" y2="860"/>
<line x1="1081" y1="860" x2="1081" y2="860"/>
<line x1="1081" y1="860" x2="1092" y2="858"/>
<line x1="1121" y1="822" x2="1120" y2="787"/>
<line x1="1121" y1="822" x2="1092" y2="823"/>
<line x1="384" y1="844" x2="749" y2="833"/>
<line x1="1120" y1="784" x2="1120" y2="778"/>
<line x1="1120" y1="786" x2="1120" y2="784"/>
<line x1="1120" y1="786" x2="1120" y2="787"/>
<line x1="377" y1="801" x2="377" y2="800"/>
<line x1="377" y1="801" x2="377" y2="806"/>
<line x1="399" y1="799" x2="377" y2="800"/>
<line x1="399" y1="799" x2="417" y2="798"/>
<line x1="1097" y1="778" x2="1075" y2="779"/>
<line x1="1097" y1="778" x2="1120" y2="778"/>
<line x1="377" y1="800" x2="377" y2="800"/>
<line x1="1092" y1="823" x2="1121" y2="822"/>
<line x1="1092" y1="823" x2="1070" y2="824"/>
<line x1="384" y1="844" x2="749" y2="833"/>
<line x1="377" y1="813" x2="377" y2="806"/>
<line x1="377" y1="813" x2="377" y2="822"/>
<line x1="378" y1="830" x2="377" y2="822"/>
<line x1="378" y1="830" x2="378" y2="835"/>
<line x1="1097" y1="778" x2="1120" y2="778"/>
<line x1="377" y1="800" x2="399" y2="799"/>
<line x1="960" y1="63" x2="960" y2="62"/>
<line x1="960" y1="63" x2="961" y2="65"/>
<line x1="955" y1="111" x2="976" y2="103"/>
<line x1="955" y1="111" x2="935" y2="120"/>
<line x1="309" y1="377" x2="325" y2="370"/>
<line x1="309" y1="377" x2="289" y2="385"/>
<line x1="973" y1="95" x2="961" y2="65"/>
<line x1="973" y1="95" x2="976" y2="102"/>
<line x1="959" y1="62" x2="959" y2="61"/>
<line x1="289" y1="385" x2="286" y2="379"/>
<line x1="276" y1="354" x2="275" y2="352"/>
<line x1="276" y1="354" x2="277" y2="358"/>
<line x1="277" y1="342" x2="615" y2="203"/>
<line x1="933" y1="72" x2="912" y2="81"/>
<line x1="933" y1="72" x2="959" y2="61"/>
<line x1="959" y1="61" x2="933" y2="72"/>
<line x1="277" y1="342" x2="615" y2="203"/>
<line x1="282" y1="370" x2="277" y2="358"/>
<line x1="282" y1="370" x2="286" y2="379"/>
<line x1="959" y1="62" x2="959" y2="62"/>
<line x1="959" y1="62" x2="960" y2="62"/>
<line x1="976" y1="103" x2="976" y2="102"/>
<line x1="955" y1="111" x2="976" y2="103"/>
<line x1="309" y1="377" x2="289" y2="385"/>
</g></svg>