<svg xmlns="http://www.w3.org/2000/svg" width="1400" height="900" viewBox="0 0 1400 900">
<rect x="0" y="0" width="100%" height="100%" fill="white"/>
<g stroke="#111" stroke-width="1.2" fill="none" stroke-linecap="round">
<line x1="1092" y1="858" x2="1092" y2="858"/>
<line x1="1092" y1="858" x2="1092" y2="858"/>
<line x1="1092" y1="858" x2="1092" y2="858"/>
<line x1="1092" y1="858" x2="1092" y2="858"/>
<line x1="1092" y1="858" x2="1092" y2="858"/>
<line x1="1092" y1="858" x2="1092" y2="858"/>
<line x1="1092" y1="858" x2="1092" y2="858"/>
<line x1="1092" y1="858" x2="1092" y2="858"/>
<line x1="1092" y1="858" x2="1092" y2="858"/>
<line x1="1092" y1="858" x2="1103" y2="854"/>
<line x1="1103" y1="854" x2="1103" y2="854"/>
<line x1="1103" y1="854" x2="1103" y2="854"/>
<line x1="1112" y1="847" x2="1103" y2="854"/>
<line x1="1112" y1="847" x2="1112" y2="847"/>
<line x1="1112" y1="847" x2="1112" y2="847"/>
<line x1="1112" y1="847" x2="1112" y2="847"/>
<line x1="1112" y1="847" x2="1112" y2="847"/>
<line x1="1112" y1="847" x2="1112" y2="847"/>
<line x1="1119" y1="838" x2="1119" y2="838"/>
<line x1="1119" y1="838" x2="1119" y2="838"/>
<line x1="1119" y1="838" x2="1119" y2="838"/>
<line x1="1119" y1="838" x2="1119" y2="838"/>
<line x1="1119" y1="838" x2="1119" y2="838"/>
<line x1="1119" y1="838" x2="1119" y2="838"/>
<line x1="1119" y1="838" x2="1119" y2="838"/>
<line x1="1119" y1="838" x2="1119" y2="838"/>
<line x1="1119" y1="838" x2="1119" y2="838"/>
<line x1="1119" y1="838" x2="1112" y2="847"/>
<line x1="1124" y1="827" x2="1124" y2="827"/>
<line x1="1124" y1="827" x2="1119" y2="838"/>
<line x1="1125" y1="814" x2="1125" y2="814"/>
<line x1="1125" y1="814" x2="1124" y2="827"/>
<line x1="1124" y1="789" x2="1124" y2="789"/>
<line x1="1124" y1="789" x2="1125" y2="814"/>
<line x1="1124" y1="788" x2="1124" y2="788"/>
<line x1="1124" y1="788" x2="1124" y2="789"/>
<line x1="1123" y1="753" x2="1123" y2="753"/>
<line x1="1123" y1="753" x2="1124" y2="788"/>
<line x1="1123" y1="752" x2="1123" y2="752"/>
<line x1="1123" y1="752" x2="1123" y2="753"/>
<line x1="1121" y1="718" x2="1121" y2="717"/>
<line x1="1121" y1="718" x2="1123" y2="752"/>
<line x1="1121" y1="716" x2="1121" y2="716"/>
<line x1="1121" y1="716" x2="1121" y2="717"/>
<line x1="1118" y1="682" x2="1118" y2="681"/>
<line x1="1118" y1="682" x2="1121" y2="716"/>
<line x1="1118" y1="681" x2="1118" y2="681"/>
<line x1="1118" y1="681" x2="1118" y2="681"/>
<line x1="1115" y1="646" x2="1114" y2="646"/>
<line x1="1115" y1="646" x2="1118" y2="681"/>
<line x1="1114" y1="645" x2="1114" y2="645"/>
<line x1="1114" y1="645" x2="1114" y2="646"/>
<line x1="1110" y1="611" x2="1110" y2="610"/>
<line x1="1110" y1="611" x2="1114" y2="645"/>
<line x1="1110" y1="609" x2="1110" y2="609"/>
<line x1="1110" y1="609" x2="1110" y2="610"/>
<line x1="1106" y1="575" x2="1106" y2="575"/>
<line x1="1106" y1="575" x2="1110" y2="609"/>
<line x1="1106" y1="574" x2="1106" y2="574"/>
<line x1="1106" y1="574" x2="1106" y2="575"/>
<line x1="1101" y1="540" x2="1100" y2="539"/>
<line x1="1101" y1="540" x2="1106" y2="574"/>
<line x1="1100" y1="539" x2="1100" y2="539"/>
<line x1="1100" y1="539" x2="1100" y2="539"/>
<line x1="1095" y1="504" x2="1095" y2="504"/>
<line x1="1095" y1="504" x2="1100" y2="539"/>
<line x1="1094" y1="503" x2="1094" y2="503"/>
<line x1="1094" y1="503" x2="1095" y2="504"/>
<line x1="1088" y1="469" x2="1088" y2="469"/>
<line x1="1088" y1="469" x2="1094" y2="503"/>
<line x1="1088" y1="468" x2="1088" y2="468"/>
<line x1="1088" y1="468" x2="1088" y2="469"/>
<line x1="1081" y1="434" x2="1081" y2="434"/>
<line x1="1081" y1="434" x2="1088" y2="468"/>
<line x1="1081" y1="433" x2="1081" y2="433"/>
<line x1="1081" y1="433" x2="1081" y2="434"/>
<line x1="1073" y1="399" x2="1073" y2="399"/>
<line x1="1073" y1="399" x2="1081" y2="433"/>
<line x1="1073" y1="398" x2="1073" y2="398"/>
<line x1="1073" y1="398" x2="1073" y2="399"/>
<line x1="1065" y1="364" x2="1065" y2="364"/>
<line x1="1065" y1="364" x2="1073" y2="398"/>
<line x1="1065" y1="363" x2="1065" y2="363"/>
<line x1="1065" y1="363" x2="1065" y2="364"/>
<line x1="1056" y1="330" x2="1056" y2="329"/>
<line x1="1056" y1="330" x2="1065" y2="363"/>
<line x1="1056" y1="328" x2="1056" y2="328"/>
<line x1="1056" y1="328" x2="1056" y2="329"/>
<line x1="1046" y1="295" x2="1046" y2="295"/>
<line x1="1046" y1="295" x2="1056" y2="328"/>
<line x1="1046" y1="294" x2="1046" y2="294"/>
<line x1="1046" y1="294" x2="1046" y2="295"/>
<line x1="1036" y1="261" x2="1036" y2="260"/>
<line x1="1036" y1="261" x2="1046" y2="294"/>
<line x1="1036" y1="260" x2="1036" y2="259"/>
<line x1="1036" y1="260" x2="1036" y2="260"/>
<line x1="1025" y1="227" x2="1025" y2="226"/>
<line x1="1025" y1="227" x2="1036" y2="259"/>
<line x1="1025" y1="225" x2="1025" y2="225"/>
<line x1="1025" y1="225" x2="1025" y2="226"/>
<line x1="1014" y1="193" x2="1014" y2="192"/>
<line x1="1014" y1="193" x2="1025" y2="225"/>
<line x1="1014" y1="191" x2="1014" y2="191"/>
<line x1="1014" y1="191" x2="1014" y2="192"/>
<line x1="1002" y1="159" x2="1002" y2="158"/>
<line x1="1002" y1="159" x2="1014" y2="191"/>
<line x1="1002" y1="158" x2="1002" y2="158"/>
<line x1="1002" y1="158" x2="1002" y2="158"/>
<line x1="990" y1="125" x2="989" y2="125"/>
<line x1="990" y1="125" x2="1002" y2="158"/>
<line x1="989" y1="124" x2="989" y2="124"/>
<line x1="989" y1="124" x2="989" y2="125"/>
<line x1="977" y1="92" x2="976" y2="91"/>
<line x1="977" y1="92" x2="989" y2="124"/>
<line x1="976" y1="91" x2="976" y2="91"/>
<line x1="976" y1="91" x2="976" y2="91"/>
<line x1="966" y1="67" x2="966" y2="67"/>
<line x1="966" y1="67" x2="976" y2="91"/>
<line x1="961" y1="57" x2="960" y2="57"/>
<line x1="961" y1="57" x2="966" y2="67"/>
<line x1="952" y1="49" x2="952" y2="49"/>
<line x1="952" y1="49" x2="960" y2="57"/>
<line x1="952" y1="49" x2="952" y2="49"/>
<line x1="952" y1="49" x2="952" y2="49"/>
<line x1="952" y1="49" x2="952" y2="49"/>
<line x1="952" y1="49" x2="952" y2="49"/>
<line x1="952" y1="49" x2="952" y2="49"/>
<line x1="952" y1="49" x2="952" y2="49"/>
<line x1="952" y1="49" x2="942" y2="43"/>
<line x1="942" y1="43" x2="942" y2="43"/>
<line x1="942" y1="43" x2="942" y2="43"/>
<line x1="942" y1="43" x2="942" y2="43"/>
<line x1="942" y1="43" x2="942" y2="43"/>
<line x1="942" y1="43" x2="942" y2="43"/>
<line x1="931" y1="40" x2="942" y2="43"/>
<line x1="931" y1="40" x2="931" y2="40"/>
<line x1="931" y1="40" x2="931" y2="40"/>
<line x1="931" y1="40" x2="931" y2="40"/>
<line x1="931" y1="40" x2="931" y2="40"/>
<line x1="919" y1="40" x2="931" y2="40"/>
<line x1="919" y1="40" x2="919" y2="40"/>
<line x1="919" y1="40" x2="919" y2="40"/>
<line x1="919" y1="40" x2="919" y2="40"/>
<line x1="919" y1="40" x2="919" y2="40"/>
<line x1="919" y1="40" x2="919" y2="40"/>
<line x1="919" y1="40" x2="919" y2="40"/>
<line x1="919" y1="40" x2="919" y2="40"/>
<line x1="919" y1="40" x2="919" y2="40"/>
<line x1="919" y1="40" x2="919" y2="40"/>
<line x1="919" y1="40" x2="919" y2="40"/>
<line x1="919" y1="40" x2="907" y2="43"/>
<line x1="584" y1="187" x2="588" y2="186"/>
<line x1="554" y1="201" x2="551" y2="202"/>
<line x1="584" y1="187" x2="554" y2="201"/>
<line x1="599" y1="181" x2="588" y2="186"/>
<line x1="609" y1="176" x2="907" y2="43"/>
<line x1="609" y1="176" x2="599" y2="181"/>
<line x1="287" y1="324" x2="287" y2="324"/>
<line x1="287" y1="324" x2="287" y2="324"/>
<line x1="287" y1="324" x2="283" y2="328"/>
<line x1="283" y1="328" x2="283" y2="328"/>
<line x1="283" y1="328" x2="283" y2="328"/>
<line x1="283" y1="328" x2="283" y2="328"/>
<line x1="283" y1="328" x2="283" y2="328"/>
<line x1="283" y1="328" x2="283" y2="328"/>
<line x1="283" y1="328" x2="283" y2="328"/>
<line x1="283" y1="328" x2="283" y2="328"/>
<line x1="283" y1="328" x2="283" y2="328"/>
<line x1="283" y1="328" x2="283" y2="328"/>
<line x1="283" y1="328" x2="283" y2="328"/>
<line x1="283" y1="328" x2="283" y2="328"/>
<line x1="283" y1="328" x2="278" y2="338"/>
<line x1="283" y1="328" x2="283" y2="328"/>
<line x1="278" y1="338" x2="277" y2="339"/>
<line x1="277" y1="339" x2="277" y2="339"/>
<line x1="277" y1="339" x2="277" y2="339"/>
<line x1="277" y1="339" x2="277" y2="339"/>
<line x1="277" y1="340" x2="277" y2="339"/>
<line x1="277" y1="340" x2="277" y2="340"/>
<line x1="277" y1="340" x2="277" y2="340"/>
<line x1="277" y1="342" x2="277" y2="340"/>
<line x1="277" y1="342" x2="277" y2="342"/>
<line x1="276" y1="345" x2="275" y2="349"/>
<line x1="276" y1="345" x2="277" y2="342"/>
<line x1="277" y1="339" x2="277" y2="339"/>
<line x1="275" y1="349" x2="275" y2="349"/>
<line x1="275" y1="351" x2="275" y2="349"/>
<line x1="275" y1="354" x2="275" y2="354"/>
<line x1="275" y1="354" x2="275" y2="355"/>
<line x1="275" y1="355" x2="275" y2="356"/>
<line x1="275" y1="356" x2="275" y2="360"/>
<line x1="275" y1="360" x2="275" y2="360"/>
<line x1="275" y1="360" x2="275" y2="360"/>
<line x1="275" y1="360" x2="275" y2="360"/>
<line x1="275" y1="354" x2="275" y2="351"/>
<line x1="275" y1="360" x2="275" y2="361"/>
<line x1="275" y1="361" x2="275" y2="361"/>
<line x1="278" y1="371" x2="275" y2="361"/>
<line x1="278" y1="371" x2="278" y2="371"/>
<line x1="278" y1="371" x2="279" y2="373"/>
<line x1="278" y1="371" x2="278" y2="371"/>
<line x1="279" y1="373" x2="279" y2="373"/>
<line x1="279" y1="373" x2="279" y2="373"/>
<line x1="287" y1="394" x2="279" y2="373"/>
<line x1="287" y1="394" x2="287" y2="394"/>
<line x1="287" y1="394" x2="287" y2="394"/>
<line x1="287" y1="394" x2="287" y2="394"/>
<line x1="295" y1="415" x2="287" y2="394"/>
<line x1="295" y1="415" x2="295" y2="415"/>
<line x1="295" y1="415" x2="295" y2="415"/>
<line x1="295" y1="415" x2="295" y2="415"/>
<line x1="295" y1="415" x2="295" y2="415"/>
<line x1="303" y1="436" x2="295" y2="415"/>
<line x1="303" y1="436" x2="303" y2="436"/>
<line x1="303" y1="436" x2="303" y2="436"/>
<line x1="303" y1="436" x2="303" y2="437"/>
<line x1="303" y1="437" x2="303" y2="437"/>
<line x1="310" y1="458" x2="303" y2="437"/>
<line x1="310" y1="458" x2="310" y2="458"/>
<line x1="310" y1="458" x2="310" y2="458"/>
<line x1="310" y1="458" x2="310" y2="458"/>
<line x1="310" y1="458" x2="310" y2="458"/>
<line x1="310" y1="458" x2="310" y2="458"/>
<line x1="317" y1="479" x2="310" y2="458"/>
<line x1="317" y1="479" x2="317" y2="480"/>
<line x1="317" y1="480" x2="317" y2="480"/>
<line x1="317" y1="480" x2="317" y2="480"/>
<line x1="323" y1="501" x2="317" y2="480"/>
<line x1="323" y1="501" x2="323" y2="502"/>
<line x1="329" y1="523" x2="323" y2="502"/>
<line x1="329" y1="523" x2="329" y2="523"/>
<line x1="335" y1="545" x2="329" y2="523"/>
<line x1="335" y1="545" x2="335" y2="545"/>
<line x1="340" y1="567" x2="335" y2="545"/>
<line x1="340" y1="567" x2="340" y2="567"/>
<line x1="345" y1="589" x2="340" y2="567"/>
<line x1="345" y1="589" x2="345" y2="590"/>
<line x1="350" y1="612" x2="345" y2="590"/>
<line x1="350" y1="612" x2="350" y2="612"/>
<line x1="354" y1="634" x2="350" y2="612"/>
<line x1="354" y1="634" x2="354" y2="634"/>
<line x1="357" y1="656" x2="354" y2="634"/>
<line x1="357" y1="656" x2="357" y2="657"/>
<line x1="361" y1="679" x2="357" y2="657"/>
<line x1="361" y1="679" x2="361" y2="679"/>
<line x1="364" y1="701" x2="361" y2="679"/>
<line x1="364" y1="701" x2="364" y2="702"/>
<line x1="364" y1="702" x2="364" y2="702"/>
<line x1="364" y1="702" x2="366" y2="724"/>
<line x1="364" y1="702" x2="364" y2="702"/>
<line x1="366" y1="724" x2="366" y2="724"/>
<line x1="366" y1="724" x2="366" y2="724"/>
<line x1="366" y1="724" x2="366" y2="724"/>
<line x1="366" y1="724" x2="366" y2="724"/>
<line x1="366" y1="724" x2="366" y2="724"/>
<line x1="366" y1="724" x2="369" y2="747"/>
<line x1="366" y1="724" x2="366" y2="724"/>
<line x1="369" y1="747" x2="369" y2="747"/>
<line x1="369" y1="747" x2="369" y2="747"/>
<line x1="369" y1="747" x2="369" y2="747"/>
<line x1="369" y1="747" x2="369" y2="747"/>
<line x1="369" y1="747" x2="370" y2="769"/>
<line x1="369" y1="747" x2="369" y2="747"/>
<line x1="370" y1="769" x2="370" y2="769"/>
<line x1="370" y1="770" x2="370" y2="769"/>
<line x1="372" y1="792" x2="370" y2="770"/>
<line x1="372" y1="792" x2="372" y2="792"/>
<line x1="372" y1="792" x2="372" y2="792"/>
<line x1="372" y1="792" x2="372" y2="792"/>
<line x1="372" y1="792" x2="372" y2="792"/>
<line x1="373" y1="814" x2="372" y2="792"/>
<line x1="373" y1="814" x2="373" y2="815"/>
<line x1="373" y1="817" x2="373" y2="815"/>
<line x1="373" y1="817" x2="373" y2="817"/>
<line x1="373" y1="817" x2="373" y2="817"/>
<line x1="375" y1="828" x2="373" y2="817"/>
<line x1="375" y1="828" x2="375" y2="828"/>
<line x1="375" y1="828" x2="375" y2="828"/>
<line x1="375" y1="828" x2="375" y2="829"/>
<line x1="375" y1="829" x2="376" y2="831"/>
<line x1="376" y1="832" x2="376" y2="831"/>
<line x1="377" y1="832" x2="376" y2="832"/>
<line x1="377" y1="834" x2="377" y2="834"/>
<line x1="378" y1="836" x2="377" y2="834"/>
<line x1="378" y1="836" x2="379" y2="838"/>
<line x1="379" y1="838" x2="379" y2="839"/>
<line x1="375" y1="829" x2="375" y2="829"/>
<line x1="375" y1="829" x2="375" y2="829"/>
<line x1="375" y1="829" x2="375" y2="829"/>
<line x1="375" y1="829" x2="375" y2="829"/>
<line x1="377" y1="834" x2="377" y2="832"/>
<line x1="383" y1="843" x2="379" y2="839"/>
<line x1="383" y1="843" x2="384" y2="844"/>
<line x1="384" y1="844" x2="385" y2="845"/>
<line x1="385" y1="845" x2="385" y2="845"/>
<line x1="385" y1="845" x2="385" y2="846"/>
<line x1="385" y1="846" x2="386" y2="847"/>
<line x1="386" y1="847" x2="386" y2="847"/>
<line x1="386" y1="847" x2="386" y2="847"/>
<line x1="386" y1="847" x2="386" y2="847"/>
<line x1="386" y1="847" x2="387" y2="848"/>
<line x1="386" y1="847" x2="386" y2="847"/>
<line x1="386" y1="847" x2="386" y2="847"/>
<line x1="396" y1="854" x2="387" y2="848"/>
<line x1="396" y1="854" x2="396" y2="855"/>
<line x1="396" y1="855" x2="396" y2="855"/>
<line x1="396" y1="855" x2="396" y2="855"/>
<line x1="396" y1="855" x2="396" y2="855"/>
<line x1="396" y1="855" x2="396" y2="855"/>
<line x1="396" y1="855" x2="396" y2="855"/>
<line x1="396" y1="855" x2="396" y2="855"/>
<line x1="396" y1="855" x2="396" y2="855"/>
<line x1="396" y1="855" x2="396" y2="855"/>
<line x1="396" y1="855" x2="396" y2="855"/>
<line x1="400" y1="856" x2="396" y2="855"/>
<line x1="400" y1="856" x2="400" y2="856"/>
<line x1="702" y1="860" x2="691" y2="860"/>
<line x1="727" y1="860" x2="702" y2="860"/>
<line x1="727" y1="860" x2="731" y2="860"/>
<line x1="742" y1="860" x2="731" y2="860"/>
<line x1="754" y1="860" x2="742" y2="860"/>
<line x1="754" y1="860" x2="1081" y2="860"/>
<line x1="1081" y1="860" x2="1081" y2="860"/>
<line x1="1081" y1="860" x2="1092" y2="858"/>
<line x1="377" y1="812" x2="377" y2="815"/>
<line x1="1121" y1="806" x2="1120" y2="793"/>
<line x1="377" y1="811" x2="377" y2="811"/>
<line x1="522" y1="807" x2="1120" y2="789"/>
<line x1="522" y1="807" x2="377" y2="811"/>
<line x1="1120" y1="793" x2="1120" y2="789"/>
<line x1="377" y1="811" x2="377" y2="812"/>
<line x1="377" y1="822" x2="377" y2="815"/>
<line x1="377" y1="823" x2="377" y2="822"/>
<line x1="377" y1="823" x2="377" y2="826"/>
<line x1="378" y1="831" x2="378" y2="829"/>
<line x1="1121" y1="807" x2="1121" y2="809"/>
<line x1="1121" y1="806" x2="1121" y2="807"/>
<line x1="378" y1="833" x2="378" y2="831"/>
<line x1="378" y1="827" x2="377" y2="826"/>
<line x1="378" y1="829" x2="378" y2="827"/>
<line x1="378" y1="829" x2="378" y2="829"/>
<line x1="1121" y1="811" x2="1121" y2="809"/>
<line x1="1121" y1="811" x2="1121" y2="811"/>
<line x1="976" y1="815" x2="1121" y2="811"/>
<line x1="976" y1="815" x2="378" y2="833"/>
<line x1="964" y1="73" x2="964" y2="72"/>
<line x1="277" y1="356" x2="277" y2="356"/>
<line x1="284" y1="374" x2="280" y2="364"/>
<line x1="964" y1="72" x2="964" y2="72"/>
<line x1="971" y1="90" x2="969" y2="86"/>
<line x1="966" y1="78" x2="964" y2="73"/>
<line x1="284" y1="374" x2="284" y2="374"/>
<line x1="829" y1="127" x2="276" y2="354"/>
<line x1="964" y1="72" x2="964" y2="72"/>
<line x1="972" y1="91" x2="971" y2="90"/>
<line x1="972" y1="92" x2="972" y2="91"/>
<line x1="278" y1="358" x2="277" y2="356"/>
<line x1="964" y1="72" x2="829" y2="127"/>
<line x1="277" y1="356" x2="276" y2="355"/>
<line x1="966" y1="78" x2="969" y2="86"/>
<line x1="838" y1="147" x2="972" y2="92"/>
<line x1="838" y1="147" x2="284" y2="374"/>
<line x1="278" y1="359" x2="278" y2="358"/>
<line x1="278" y1="359" x2="280" y2="364"/>
<line x1="276" y1="354" x2="276" y2="355"/>
<line x1="557" y1="858" x2="400" y2="856"/>
<line x1="557" y1="858" x2="691" y2="860"/>
<line x1="551" y1="202" x2="523" y2="215"/>
<line x1="287" y1="324" x2="523" y2="215"/>
</g></svg>