<?xml version="1.0" standalone="no"?>
<!DOCTYPE svg PUBLIC "-//W3C//DTD SVG 1.1//EN" "http://www.w3.org/Graphics/SVG/1.1/DTD/svg11.dtd">
<svg width="161mm" height="72mm" viewBox="2 -72 161 72" xmlns="http://www.w3.org/2000/svg" version="1.1">
<title>OpenSCAD Model</title>
<path d="
M 6.35724,-64.4591 L 5.99463,-64.6716 L 5.60667,-64.9832 L 5.4005,-65.1489 L 4.92253,-65.684 L 4.57245,-66.2639
 L 4.35889,-66.8743 L 4.28711,-67.5 L 4.29285,-67.55 L 152.778,-67.55 L 152.798,-67.5318 L 152.834,-67.5
 L 157.282,-67.5 L 157.282,-0 L 162.771,-0 L 162.771,-72 L 2.28058,-72 L 2.28058,-3.76938
 L 2.28311,-3.70105 L 2.5511,-3.44225 L 2.80765,-3.06189 L 2.96564,-2.64919 L 3.01897,-2.21999 L 3.01202,-2.12
 L 2.97112,-1.79079 L 2.95927,-1.74675 L 2.95148,-1.6908 L 2.88428,-1.53415 L 2.82454,-1.3781 L 2.79083,-1.31631
 L 2.77443,-1.27809 L 2.733,-1.2233 L 2.58087,-0.997742 L 2.49324,-0.897736 L 2.2814,-0.693192 L 2.28058,-0.670609
 L 2.28058,-0 L 6.35724,-0 z
" stroke="black" fill="lightgray" stroke-width="0.5"/>
</svg>
