<?xml version="1.0" standalone="no"?>
<!DOCTYPE svg PUBLIC "-//W3C//DTD SVG 1.1//EN" "http://www.w3.org/Graphics/SVG/1.1/DTD/svg11.dtd">
<svg width="161mm" height="72mm" viewBox="2 -72 161 72" xmlns="http://www.w3.org/2000/svg" version="1.1">
<title>OpenSCAD Model</title>
<path d="
M 6.90536,-63.45 L 6.90355,-63.45 L 6.90355,-63.5 L 6.90536,-63.5011 L 6.90536,-63.6246 L 6.8728,-63.6347
 L 6.76669,-63.6781 L 6.68034,-63.6958 L 5.99893,-63.936 L 5.37009,-64.2639 L 4.80925,-64.6716 L 4.33025,-65.1489
 L 3.9449,-65.684 L 3.66264,-66.2639 L 3.49046,-66.8743 L 3.4326,-67.5 L 3.43723,-67.55 L 9.73076,-67.55
 L 9.73076,-67.5 L 13.5406,-67.5 L 13.6236,-67.55 L 152.392,-67.55 L 152.397,-67.5105 L 152.398,-67.5
 L 153.216,-67.5 L 153.216,-24.7943 L 153.216,-23.9565 L 153.216,-23.124 L 153.216,-0 L 161.736,-0
 L 161.246,-0.0874634 L 160.599,-0.290756 L 160.581,-0.299622 L 160.118,-0.522812 L 160.031,-0.564362 L 160.01,-0.580185
 L 159.583,-0.88591 L 159.567,-0.897736 L 159.552,-0.913757 L 159.288,-1.2032 L 159.238,-1.2588 L 159.221,-1.27809
 L 159.189,-1.33864 L 159.179,-1.3596 L 159.016,-1.67543 L 159.007,-1.6908 L 159.007,-1.69376 L 159.005,-1.70976
 L 158.95,-2.03465 L 158.939,-2.0977 L 158.936,-2.12 L 158.936,-2.21999 L 158.943,-2.26425 L 158.946,-2.28638
 L 158.95,-2.30533 L 158.991,-2.54558 L 158.993,-2.5616 L 158.996,-2.57997 L 159.007,-2.64919 L 159.146,-2.91664
 L 159.179,-2.98077 L 159.21,-3.04105 L 159.221,-3.06189 L 159.289,-3.13678 L 159.474,-3.34138 L 159.489,-3.35754
 L 159.501,-3.36946 L 159.566,-3.44225 L 159.845,-3.64215 L 159.943,-3.71124 L 160.011,-3.76004 L 160.032,-3.77563
 L 160.119,-3.8174 L 160.423,-3.96446 L 160.599,-4.04922 L 161.246,-4.25253 L 161.949,-4.37772 L 162.679,-4.42
 L 162.679,-50.0447 L 162.679,-72 L 2.32326,-72 L 2.32326,-3.96436 L 2.65848,-3.77563 L 3.05728,-3.44225
 L 3.35361,-3.06189 L 3.5361,-2.64919 L 3.59772,-2.21999 L 3.5361,-1.79079 L 3.35361,-1.3781 L 3.05728,-0.997742
 L 2.65848,-0.664352 L 2.32326,-0.475632 L 2.32326,-0 L 6.90536,-0 z
" stroke="black" fill="lightgray" stroke-width="0.5"/>
</svg>
