<?xml version="1.0" standalone="no"?>
<!DOCTYPE svg PUBLIC "-//W3C//DTD SVG 1.1//EN" "http://www.w3.org/Graphics/SVG/1.1/DTD/svg11.dtd">
<svg width="144mm" height="72mm" viewBox="2 -72 144 72" xmlns="http://www.w3.org/2000/svg" version="1.1">
<title>OpenSCAD Model</title>
<path d="
M 7.8876,-65.1235 L 7.84196,-65.1489 L 7.15076,-65.684 L 6.64449,-66.2639 L 6.33566,-66.8743 L 6.23187,-67.5
 L 6.24017,-67.55 L 136.407,-67.55 L 136.42,-67.5372 L 136.459,-67.5 L 140.641,-67.5 L 140.641,-0
 L 145.766,-0 L 145.766,-72 L 2.42982,-72 L 2.42981,-3.98418 L 2.93805,-3.77563 L 3.48524,-3.44225
 L 3.89185,-3.06189 L 4.14224,-2.64919 L 4.22679,-2.21999 L 4.22679,-2.12 L 4.14224,-1.6908 L 3.89185,-1.27809
 L 3.48524,-0.897736 L 2.93805,-0.564362 L 2.42981,-0.355804 L 2.42982,-0 L 7.8876,-0 z
" stroke="black" fill="lightgray" stroke-width="0.5"/>
</svg>
