<?xml version="1.0" standalone="no"?>
<!DOCTYPE svg PUBLIC "-//W3C//DTD SVG 1.1//EN" "http://www.w3.org/Graphics/SVG/1.1/DTD/svg11.dtd">
<svg width="106mm" height="72mm" viewBox="11 -72 106 72" xmlns="http://www.w3.org/2000/svg" version="1.1">
<title>OpenSCAD Model</title>
<path d="
M 23.4089,-0 L 23.4098,-58.2984 L 23.4099,-66.091 L 23.2213,-66.2639 L 22.8353,-66.8743 L 22.8001,-67.0443
 L 22.7486,-67.2858 L 22.705,-67.5 L 22.7089,-67.5185 L 22.7122,-67.535 L 22.715,-67.55 L 107.423,-67.55
 L 107.463,-67.5109 L 107.474,-67.5 L 111.626,-67.5 L 111.626,-0 L 116.712,-0 L 116.712,-72
 L 12.9222,-72 L 12.8909,-71.8348 L 12.8878,-71.8178 L 12.8526,-71.6341 L 12.8037,-71.3743 L 12.6807,-71.1582
 L 12.4617,-70.7762 L 12.4548,-70.7639 L 12.2983,-70.6053 L 12.2903,-70.5973 L 11.9471,-70.2512 L 11.9468,-67.3712
 L 11.9474,-45.9419 L 11.9473,-44.729 L 11.9473,-4.42 L 13.0025,-4.37772 L 14.0173,-4.25253 L 14.9524,-4.04922
 L 15.0375,-4.02089 L 15.186,-3.97124 L 15.772,-3.77563 L 15.7827,-3.77025 L 16.2364,-3.54546 L 16.2852,-3.52148
 L 16.4449,-3.44225 L 16.4782,-3.41663 L 16.4843,-3.41243 L 16.5056,-3.39606 L 16.6005,-3.32359 L 16.6023,-3.32228
 L 16.9444,-3.06189 L 16.9501,-3.05447 L 17.1539,-2.7812 L 17.1553,-2.77942 L 17.1721,-2.75671 L 17.2528,-2.64919
 L 17.2633,-2.60538 L 17.2643,-2.59962 L 17.2856,-2.5134 L 17.3063,-2.42758 L 17.3077,-2.4202 L 17.3562,-2.21999
 L 17.3562,-2.12 L 17.3547,-2.11198 L 17.3029,-1.89816 L 17.2991,-1.88278 L 17.2856,-1.82658 L 17.2567,-1.70995
 L 17.2558,-1.70421 L 17.2526,-1.6908 L 17.2483,-1.68529 L 17.1647,-1.57346 L 17.155,-1.56056 L 17.1498,-1.5531
 L 16.9968,-1.34793 L 16.9447,-1.27809 L 16.9357,-1.27122 L 16.6779,-1.07507 L 16.6009,-1.01639 L 16.466,-0.91391
 L 16.4598,-0.909134 L 16.4447,-0.897736 L 16.4364,-0.89357 L 15.7831,-0.569824 L 15.7724,-0.564362 L 15.1866,-0.36882
 L 14.9525,-0.290756 L 14.0173,-0.0874634 L 13.3086,-0 z
" stroke="black" fill="lightgray" stroke-width="0.5"/>
</svg>
