<?xml version="1.0" standalone="no"?>
<!DOCTYPE svg PUBLIC "-//W3C//DTD SVG 1.1//EN" "http://www.w3.org/Graphics/SVG/1.1/DTD/svg11.dtd">
<svg width="27mm" height="72mm" viewBox="79 -72 27 72" xmlns="http://www.w3.org/2000/svg" version="1.1">
<title>OpenSCAD Model</title>
<path d="
M 93.7905,-3.25056 L 93.7904,-3.36775 L 93.7905,-3.48543 L 93.7905,-67.5 L 95.7638,-67.5 L 95.7641,-67.5014
 L 95.7733,-67.55 L 104.955,-67.55 L 104.955,-63.54 L 104.647,-63.5492 L 103.727,-63.6333 L 103.062,-63.6939
 L 103.041,-63.6958 L 102.991,-63.7037 L 102.435,-63.7911 L 102.017,-63.8569 L 101.901,-63.8752 L 101.55,-63.9303
 L 101.55,-63.9303 L 101.514,-63.936 L 101.48,-63.9438 L 100.51,-64.1695 L 100.51,-35.4365 L 100.511,-34.7838
 L 100.51,-34.1156 L 100.511,-28.3167 L 100.511,-4.31601 L 100.559,-4.31915 L 100.597,-4.31535 L 100.734,-4.3019
 L 100.978,-4.27773 L 101.062,-4.25232 L 101.258,-4.19281 L 101.264,-4.19067 L 101.361,-4.16133 L 101.39,-4.15253
 L 101.422,-4.13509 L 101.563,-4.0596 L 101.769,-3.94922 L 102.072,-3.69957 L 102.081,-3.69252 L 102.101,-3.67563
 L 102.109,-3.6669 L 102.126,-3.64645 L 102.271,-3.46854 L 102.308,-3.42389 L 102.312,-3.41922 L 102.374,-3.34224
 L 102.49,-3.12448 L 102.559,-2.99561 L 102.566,-2.98364 L 102.577,-2.9619 L 102.581,-2.94882 L 102.589,-2.92532
 L 102.664,-2.67586 L 102.702,-2.54919 L 102.703,-2.53502 L 102.706,-2.51102 L 102.732,-2.24568 L 102.744,-2.12
 L 102.732,-1.99429 L 102.706,-1.72897 L 102.703,-1.70496 L 102.702,-1.6908 L 102.664,-1.56413 L 102.589,-1.31467
 L 102.581,-1.29117 L 102.577,-1.27809 L 102.566,-1.25635 L 102.559,-1.24438 L 102.49,-1.11551 L 102.374,-0.897736
 L 102.312,-0.82077 L 102.308,-0.816101 L 102.271,-0.771454 L 102.126,-0.593521 L 102.109,-0.573074 L 102.101,-0.564362
 L 102.081,-0.54747 L 102.072,-0.540421 L 101.769,-0.290756 L 101.563,-0.180374 L 101.422,-0.104889 L 101.39,-0.0874634
 L 101.355,-0.0767212 L 101.264,-0.0493164 L 101.258,-0.0471802 L 101.173,-0.0217133 L 101.102,-0 L 105.889,-0
 L 105.889,-72 L 79.3287,-72 L 79.3283,-46.4537 L 79.3283,-4.42 L 80.3835,-4.37772 L 81.3983,-4.25253
 L 82.3333,-4.04922 L 82.5938,-3.96248 L 83.0484,-3.81052 L 83.1529,-3.77563 L 83.185,-3.75955 L 83.2657,-3.71957
 L 83.4102,-3.64861 L 83.8262,-3.44225 L 83.9248,-3.36641 L 83.9427,-3.35397 L 83.9638,-3.3378 L 84.2448,-3.1232
 L 84.3253,-3.06189 L 84.342,-3.04005 L 84.3752,-2.99548 L 84.4261,-2.92674 L 84.6344,-2.64919 L 84.6518,-2.57635
 L 84.6562,-2.55804 L 84.659,-2.54117 L 84.7217,-2.28809 L 84.725,-2.27466 L 84.7294,-2.2513 L 84.737,-2.21999
 L 84.7369,-2.12 L 84.7325,-2.09651 L 84.7217,-2.0519 L 84.6372,-1.70975 L 84.6343,-1.6929 L 84.6338,-1.6908
 L 84.6212,-1.67464 L 84.3744,-1.3445 L 84.3591,-1.3226 L 84.3259,-1.27809 L 84.2996,-1.2579 L 84.2453,-1.21657
 L 83.8466,-0.913757 L 83.8256,-0.897736 L 83.801,-0.885437 L 83.186,-0.580688 L 83.1541,-0.564362 L 83.0503,-0.529709
 L 82.3609,-0.299805 L 82.3336,-0.290756 L 81.3983,-0.0874634 L 80.6902,-0 L 93.7905,-0 z
" stroke="black" fill="lightgray" stroke-width="0.5"/>
</svg>
