<?xml version="1.0" standalone="no"?>
<!DOCTYPE svg PUBLIC "-//W3C//DTD SVG 1.1//EN" "http://www.w3.org/Graphics/SVG/1.1/DTD/svg11.dtd">
<svg width="136mm" height="72mm" viewBox="-3 -72 136 72" xmlns="http://www.w3.org/2000/svg" version="1.1">
<title>OpenSCAD Model</title>
<path d="
M 2.46231,-63.45 L 0.416183,-63.45 L 0.416183,-63.5 L 0.472092,-63.5492 L 2.46231,-65.3025 L 2.46231,-67.5
 L 4.95667,-67.5 L 5.01343,-67.55 L 124.131,-67.55 L 124.17,-67.5107 L 124.181,-67.5 L 128.132,-67.5
 L 128.132,-26.7556 L 128.133,-24.5942 L 128.132,-22.7896 L 128.133,-8.59038 L 128.132,-2.80173 L 128.189,-2.61343
 L 128.209,-2.54919 L 128.244,-2.18636 L 128.251,-2.12 L 128.244,-2.05273 L 128.209,-1.6908 L 128.189,-1.62611
 L 128.132,-1.43825 L 128.133,-1.16663 L 128.132,-0 L 132.957,-0 L 132.957,-72 L -2.36913,-72
 L -2.36913,-3.76503 L -2.10498,-3.44225 L -1.90227,-3.06189 L -1.77744,-2.64919 L -1.73529,-2.21999 L -1.77744,-1.79079
 L -1.90227,-1.3781 L -1.94809,-1.29207 L -2.10498,-0.997742 L -2.36913,-0.674957 L -2.36913,-0 L 2.46231,-0
 z
" stroke="black" fill="lightgray" stroke-width="0.5"/>
</svg>
