<?xml version="1.0" standalone="no"?>
<!DOCTYPE svg PUBLIC "-//W3C//DTD SVG 1.1//EN" "http://www.w3.org/Graphics/SVG/1.1/DTD/svg11.dtd">
<svg width="154mm" height="148mm" viewBox="-20 -148 154 148" xmlns="http://www.w3.org/2000/svg" version="1.1">
<title>OpenSCAD Model</title>
<path d="
M 131.801,-3.22696 L 131.872,-3.2977 L 133.008,-5.52785 L 133.397,-8.2094 L 133.277,-12.7866 L 133.273,-12.9261
 L 132.998,-19.2105 L 132.991,-19.3499 L 132.607,-25.6276 L 132.597,-25.767 L 132.104,-32.0384 L 132.091,-32.1775
 L 131.489,-38.4375 L 131.474,-38.5763 L 130.762,-44.8261 L 130.745,-44.9647 L 129.924,-51.2016 L 129.904,-51.3399
 L 128.975,-57.5596 L 128.953,-57.6975 L 127.915,-63.902 L 127.891,-64.0395 L 126.744,-70.2236 L 126.718,-70.3607
 L 125.464,-76.5244 L 125.435,-76.661 L 124.073,-82.8023 L 124.042,-82.9384 L 122.573,-89.0546 L 122.54,-89.19
 L 120.965,-95.2789 L 120.929,-95.4138 L 119.248,-101.475 L 119.209,-101.609 L 117.423,-107.641 L 117.382,-107.774
 L 115.491,-113.772 L 115.448,-113.905 L 113.451,-119.871 L 113.406,-120.003 L 111.307,-125.931 L 111.259,-126.063
 L 109.056,-131.954 L 109.006,-132.085 L 106.701,-137.937 L 106.648,-138.066 L 104.896,-142.297 L 103.588,-144.431
 L 101.685,-146.057 L 101.652,-146.071 L 101.651,-146.071 L 101.633,-146.078 L 101.578,-146.101 L 101.55,-146.113
 L 101.549,-146.113 L 99.3726,-147.015 L 99.348,-147.017 L 99.166,-147.031 L 96.8774,-147.211 L 94.2511,-146.544
 L 90.9799,-145.088 L 41.1754,-122.913 L 39.6385,-122.229 L 37.9053,-121.458 L 32.4593,-119.032 L 28.3976,-117.224
 L 22.7622,-114.715 L 12.4715,-110.134 L -9.36006,-100.413 L -11.2899,-99.554 L -14.4933,-98.1278 L -16.5925,-96.7646
 L -18.1676,-94.8194 L -18.9328,-92.8261 L 30.6256,-113.176 L 38.9165,-116.71 L 40.8644,-117.541 L 42.6417,-118.298
 L 96.6151,-141.304 L 97.6118,-141.55 L 98.6101,-141.473 L 98.9788,-141.322 L 99.0105,-141.309 L 99.0735,-141.283
 L 100.122,-141.713 L 103.672,-143.171 L 103.693,-143.123 L 103.759,-142.967 L 103.828,-142.803 L 103.843,-142.766
 L 103.908,-142.611 L 103.91,-142.607 L 104.062,-142.247 L 104.213,-141.886 L 104.364,-141.526 L 104.664,-140.804
 L 105.111,-139.721 L 105.259,-139.359 L 105.407,-138.998 L 105.555,-138.636 L 105.849,-137.912 L 105.995,-137.55
 L 102.279,-136.05 L 103.996,-131.735 L 104.014,-131.687 L 106.076,-126.253 L 106.094,-126.205 L 108.067,-120.739
 L 108.085,-120.69 L 109.969,-115.195 L 109.985,-115.146 L 111.782,-109.619 L 111.797,-109.57 L 113.504,-104.015
 L 113.519,-103.966 L 115.136,-98.3844 L 115.15,-98.3348 L 116.677,-92.7278 L 116.69,-92.6779 L 118.126,-87.0475
 L 118.138,-86.9974 L 119.484,-81.3439 L 119.495,-81.2937 L 120.749,-75.6203 L 120.76,-75.5698 L 121.922,-69.8766
 L 121.932,-69.8259 L 123.002,-64.1143 L 123.011,-64.0635 L 123.99,-58.3353 L 123.998,-58.2844 L 124.883,-52.5421
 L 124.891,-52.4911 L 125.684,-46.7336 L 125.69,-46.6824 L 126.39,-40.914 L 126.396,-40.8628 L 127.003,-35.084
 L 127.008,-35.0326 L 127.522,-29.2447 L 127.526,-29.1933 L 127.946,-23.3971 L 127.95,-23.3456 L 128.276,-17.5443
 L 128.279,-17.4928 L 128.465,-12.8519 L 132.47,-12.9935 L 132.484,-12.603 L 132.51,-11.822 L 132.546,-10.6503
 L 132.557,-10.2597 L 132.567,-9.86913 L 132.578,-9.47852 L 132.588,-9.08791 L 132.615,-7.91602 L 132.623,-7.52538
 L 132.623,-7.51997 L 132.627,-7.34589 L 132.631,-7.13472 L 132.634,-6.96594 L 132.635,-6.91335 L 127.666,-6.76797
 L 127.656,-6.7578 L 127.654,-6.75624 L 127.299,-6.38959 L 126.414,-5.9209 L 125.428,-5.74852 L 53.7022,-4.60419
 L 0.115936,-3.03654 L 1.83301,-1.40706 L 4.09212,-0.329468 L 6.36438,-0 L 125.4,-0 L 127.872,-0.391541
 L 130.102,-1.52785 L 131.776,-3.20213 z
M -0.731735,-4.50995 L -0.84198,-8.27829 L 3.14612,-8.41934 L 3.02332,-11.4767 L 2.80739,-15.3106 L 2.52962,-19.1417
 L 2.19014,-22.967 L 1.78908,-26.7861 L 1.32639,-30.5989 L 0.802246,-34.4041 L 0.672134,-35.2479 L -0.668365,-41.553
 L -3.02969,-52.6604 L -5.36218,-63.6317 L -5.58112,-64.4356 L -6.64998,-68.125 L -7.77817,-71.7966 L -8.96515,-75.4486
 L -10.2109,-79.0811 L -11.5152,-82.6935 L -12.8777,-86.2849 L -14.0089,-89.1273 L -17.7096,-87.6341 L -18.7225,-90.1009
 L -19.1366,-91.1093 L -19.1956,-89.9832 L -18.6305,-87.758 L -18.4948,-87.4304 L -17.0019,-83.6404 L -15.5752,-79.8245
 L -14.2155,-75.9849 L -12.923,-72.122 L -11.6982,-68.2374 L -10.5412,-64.3316 L -9.45258,-60.4062 L -8.43265,-56.4624
 L -7.48183,-52.5018 L -6.60027,-48.5254 L -5.78802,-44.5332 L -5.04575,-40.5282 L -4.37331,-36.5099 L -3.77135,-32.4819
 L -3.23972,-28.4438 L -2.77846,-24.3956 L -2.38817,-20.3419 L -2.0685,-16.2802 L -1.81987,-12.2151 L -1.64217,-8.14557
 L -1.63289,-7.7907 L -1.17679,-5.32967 z
" stroke="black" fill="lightgray" stroke-width="0.5"/>
</svg>
