<?xml version="1.0" standalone="no"?>
<!DOCTYPE svg PUBLIC "-//W3C//DTD SVG 1.1//EN" "http://www.w3.org/Graphics/SVG/1.1/DTD/svg11.dtd">
<svg width="154mm" height="148mm" viewBox="-20 -148 154 148" xmlns="http://www.w3.org/2000/svg" version="1.1">
<title>OpenSCAD Model</title>
<path d="
M 127.872,-0.391541 L 127.946,-0.429184 L 128.756,-0.841888 L 129.271,-1.10414 L 129.51,-1.22615 L 129.999,-1.47522
 L 130.012,-1.48186 L 130.102,-1.52785 L 130.36,-1.78569 L 130.375,-1.8004 L 130.867,-2.29272 L 131.013,-2.43825
 L 131.036,-2.46117 L 131.04,-2.46512 L 131.83,-3.25607 L 131.831,-3.25659 L 131.872,-3.2977 L 133.008,-5.52785
 L 133.397,-8.2094 L 133.277,-12.7866 L 133.273,-12.9261 L 132.998,-19.2105 L 132.991,-19.3499 L 132.607,-25.6276
 L 132.597,-25.767 L 132.104,-32.0384 L 132.091,-32.1775 L 131.489,-38.4375 L 131.474,-38.5763 L 130.762,-44.8261
 L 130.745,-44.9647 L 129.924,-51.2016 L 129.904,-51.3399 L 128.975,-57.5596 L 128.953,-57.6975 L 127.915,-63.902
 L 127.891,-64.0395 L 126.744,-70.2236 L 126.718,-70.3607 L 125.464,-76.5244 L 125.435,-76.661 L 124.073,-82.8023
 L 124.042,-82.9384 L 122.573,-89.0546 L 122.54,-89.19 L 120.965,-95.2789 L 120.929,-95.4138 L 119.248,-101.475
 L 119.209,-101.609 L 117.423,-107.641 L 117.382,-107.774 L 115.491,-113.772 L 115.448,-113.905 L 113.451,-119.871
 L 113.406,-120.003 L 111.307,-125.931 L 111.259,-126.063 L 109.056,-131.954 L 109.006,-132.085 L 106.701,-137.937
 L 106.648,-138.066 L 104.896,-142.297 L 103.588,-144.431 L 101.685,-146.057 L 101.275,-146.227 L 101.274,-146.227
 L 101.053,-146.319 L 100.768,-146.437 L 100.765,-146.438 L 100.389,-146.594 L 100.352,-146.609 L 99.3726,-147.015
 L 99.093,-147.037 L 99.091,-147.037 L 96.8774,-147.211 L 96.7076,-147.168 L 94.2511,-146.544 L 54.7745,-128.968
 L 36.6101,-120.881 L 34.4608,-119.924 L 10.0332,-109.048 L -9.1107,-100.524 L -14.4933,-98.1278 L -16.5925,-96.7646
 L -17.744,-95.3426 L -18.1676,-94.8194 L -18.1817,-94.7828 L -18.3132,-94.4403 L -18.441,-94.1074 L -18.9489,-92.7842
 L -19.0646,-92.4827 L -19.084,-92.1131 L -19.1956,-89.9832 L -18.6305,-87.758 L -18.4948,-87.4304 L -17.0019,-83.6404
 L -15.5752,-79.8245 L -14.2155,-75.9849 L -13.7615,-74.6279 L -12.923,-72.122 L -12.7578,-71.598 L -11.6982,-68.2374
 L -10.5412,-64.3316 L -9.45258,-60.4062 L -8.43265,-56.4624 L -7.48183,-52.5018 L -6.60027,-48.5254 L -5.78802,-44.5332
 L -5.04575,-40.5282 L -4.37331,-36.5099 L -3.77135,-32.4819 L -3.23972,-28.4438 L -2.77846,-24.3956 L -2.38817,-20.3419
 L -2.0685,-16.2802 L -1.81987,-12.2151 L -1.64217,-8.14557 L -1.63289,-7.7907 L -1.17679,-5.32967 L 0.0174561,-3.12999
 L 1.83301,-1.40706 L 4.09212,-0.329468 L 6.36438,-0 L 125.4,-0 z
" stroke="black" fill="lightgray" stroke-width="0.5"/>
</svg>
