<svg xmlns="http://www.w3.org/2000/svg" width="1400" height="900" viewBox="0 0 1400 900">
<rect x="0" y="0" width="100%" height="100%" fill="white"/>
<g stroke="#111" stroke-width="1.2" fill="none" stroke-linecap="round">
<line x1="141" y1="722" x2="141" y2="722"/>
<line x1="129" y1="722" x2="120" y2="722"/>
<line x1="130" y1="722" x2="129" y2="722"/>
<line x1="140" y1="722" x2="130" y2="722"/>
<line x1="140" y1="722" x2="141" y2="722"/>
<line x1="141" y1="722" x2="141" y2="722"/>
<line x1="141" y1="722" x2="151" y2="722"/>
<line x1="100" y1="638" x2="100" y2="694"/>
<line x1="100" y1="588" x2="100" y2="638"/>
<line x1="100" y1="575" x2="100" y2="588"/>
<line x1="100" y1="575" x2="100" y2="168"/>
<line x1="100" y1="140" x2="100" y2="146"/>
<line x1="100" y1="140" x2="100" y2="139"/>
<line x1="1318" y1="610" x2="1318" y2="712"/>
<line x1="1318" y1="610" x2="1318" y2="139"/>
<line x1="151" y1="723" x2="151" y2="723"/>
<line x1="151" y1="723" x2="151" y2="722"/>
<line x1="1291" y1="723" x2="1319" y2="723"/>
<line x1="1248" y1="723" x2="935" y2="723"/>
<line x1="1291" y1="723" x2="1248" y2="723"/>
<line x1="50" y1="723" x2="53" y2="723"/>
<line x1="63" y1="723" x2="82" y2="723"/>
<line x1="82" y1="723" x2="94" y2="723"/>
<line x1="94" y1="723" x2="103" y2="723"/>
<line x1="103" y1="723" x2="109" y2="723"/>
<line x1="109" y1="723" x2="114" y2="723"/>
<line x1="114" y1="723" x2="118" y2="723"/>
<line x1="118" y1="723" x2="120" y2="723"/>
<line x1="63" y1="723" x2="53" y2="723"/>
<line x1="151" y1="723" x2="160" y2="723"/>
<line x1="160" y1="723" x2="160" y2="723"/>
<line x1="160" y1="723" x2="167" y2="723"/>
<line x1="255" y1="723" x2="255" y2="723"/>
<line x1="255" y1="723" x2="307" y2="723"/>
<line x1="307" y1="723" x2="308" y2="723"/>
<line x1="308" y1="723" x2="356" y2="723"/>
<line x1="356" y1="723" x2="357" y2="723"/>
<line x1="357" y1="723" x2="402" y2="723"/>
<line x1="402" y1="723" x2="403" y2="723"/>
<line x1="403" y1="723" x2="445" y2="723"/>
<line x1="445" y1="723" x2="446" y2="723"/>
<line x1="446" y1="723" x2="486" y2="723"/>
<line x1="486" y1="723" x2="486" y2="723"/>
<line x1="486" y1="723" x2="525" y2="723"/>
<line x1="525" y1="723" x2="525" y2="723"/>
<line x1="525" y1="723" x2="561" y2="723"/>
<line x1="561" y1="723" x2="562" y2="723"/>
<line x1="562" y1="723" x2="596" y2="723"/>
<line x1="596" y1="723" x2="596" y2="723"/>
<line x1="596" y1="723" x2="630" y2="723"/>
<line x1="630" y1="723" x2="630" y2="723"/>
<line x1="630" y1="723" x2="661" y2="723"/>
<line x1="661" y1="723" x2="662" y2="723"/>
<line x1="662" y1="723" x2="692" y2="723"/>
<line x1="692" y1="723" x2="692" y2="723"/>
<line x1="692" y1="723" x2="722" y2="723"/>
<line x1="722" y1="723" x2="722" y2="723"/>
<line x1="722" y1="723" x2="750" y2="723"/>
<line x1="750" y1="723" x2="751" y2="723"/>
<line x1="751" y1="723" x2="778" y2="723"/>
<line x1="778" y1="723" x2="778" y2="723"/>
<line x1="778" y1="723" x2="805" y2="723"/>
<line x1="805" y1="723" x2="805" y2="723"/>
<line x1="805" y1="723" x2="831" y2="723"/>
<line x1="831" y1="723" x2="831" y2="723"/>
<line x1="831" y1="723" x2="856" y2="723"/>
<line x1="856" y1="723" x2="856" y2="723"/>
<line x1="856" y1="723" x2="881" y2="723"/>
<line x1="881" y1="723" x2="881" y2="723"/>
<line x1="881" y1="723" x2="905" y2="723"/>
<line x1="905" y1="723" x2="905" y2="723"/>
<line x1="905" y1="723" x2="928" y2="723"/>
<line x1="928" y1="723" x2="929" y2="723"/>
<line x1="929" y1="723" x2="935" y2="723"/>
<line x1="255" y1="723" x2="167" y2="723"/>
<line x1="41" y1="761" x2="40" y2="761"/>
<line x1="41" y1="761" x2="63" y2="761"/>
<line x1="63" y1="761" x2="64" y2="761"/>
<line x1="64" y1="761" x2="82" y2="761"/>
<line x1="82" y1="761" x2="82" y2="761"/>
<line x1="82" y1="761" x2="95" y2="761"/>
<line x1="198" y1="761" x2="95" y2="761"/>
<line x1="198" y1="761" x2="199" y2="761"/>
<line x1="199" y1="761" x2="243" y2="761"/>
<line x1="243" y1="761" x2="244" y2="761"/>
<line x1="244" y1="761" x2="283" y2="761"/>
<line x1="283" y1="761" x2="284" y2="761"/>
<line x1="284" y1="761" x2="319" y2="761"/>
<line x1="319" y1="761" x2="320" y2="761"/>
<line x1="320" y1="761" x2="352" y2="761"/>
<line x1="352" y1="761" x2="353" y2="761"/>
<line x1="353" y1="761" x2="382" y2="761"/>
<line x1="382" y1="761" x2="383" y2="761"/>
<line x1="383" y1="761" x2="410" y2="761"/>
<line x1="410" y1="761" x2="411" y2="761"/>
<line x1="411" y1="761" x2="436" y2="761"/>
<line x1="436" y1="761" x2="437" y2="761"/>
<line x1="437" y1="761" x2="461" y2="761"/>
<line x1="461" y1="761" x2="461" y2="761"/>
<line x1="461" y1="761" x2="1113" y2="761"/>
<line x1="1282" y1="761" x2="1113" y2="761"/>
<line x1="1286" y1="761" x2="1282" y2="761"/>
<line x1="1291" y1="761" x2="1286" y2="761"/>
<line x1="1296" y1="761" x2="1291" y2="761"/>
<line x1="1302" y1="761" x2="1296" y2="761"/>
<line x1="1308" y1="761" x2="1302" y2="761"/>
<line x1="1314" y1="761" x2="1308" y2="761"/>
<line x1="1321" y1="761" x2="1314" y2="761"/>
<line x1="1328" y1="761" x2="1321" y2="761"/>
<line x1="1358" y1="761" x2="1328" y2="761"/>
<line x1="56" y1="139" x2="40" y2="139"/>
<line x1="56" y1="139" x2="62" y2="139"/>
<line x1="62" y1="139" x2="65" y2="139"/>
<line x1="65" y1="139" x2="67" y2="139"/>
<line x1="67" y1="139" x2="69" y2="139"/>
<line x1="69" y1="139" x2="70" y2="139"/>
<line x1="94" y1="139" x2="84" y2="139"/>
<line x1="94" y1="139" x2="100" y2="139"/>
<line x1="94" y1="139" x2="94" y2="139"/>
<line x1="1336" y1="139" x2="1318" y2="139"/>
<line x1="1336" y1="139" x2="1355" y2="139"/>
<line x1="40" y1="674" x2="40" y2="139"/>
<line x1="40" y1="674" x2="40" y2="761"/>
<line x1="1360" y1="422" x2="1360" y2="415"/>
<line x1="1360" y1="549" x2="1360" y2="422"/>
<line x1="1360" y1="669" x2="1360" y2="549"/>
<line x1="1360" y1="750" x2="1360" y2="669"/>
<line x1="1360" y1="177" x2="1360" y2="415"/>
<line x1="65" y1="688" x2="65" y2="688"/>
<line x1="70" y1="688" x2="65" y2="688"/>
<line x1="70" y1="688" x2="73" y2="688"/>
<line x1="95" y1="692" x2="94" y2="692"/>
<line x1="95" y1="692" x2="100" y2="694"/>
<line x1="120" y1="723" x2="120" y2="722"/>
<line x1="120" y1="723" x2="120" y2="723"/>
<line x1="73" y1="688" x2="73" y2="688"/>
<line x1="77" y1="688" x2="73" y2="688"/>
<line x1="77" y1="688" x2="80" y2="688"/>
<line x1="51" y1="692" x2="50" y2="692"/>
<line x1="89" y1="690" x2="87" y2="690"/>
<line x1="94" y1="692" x2="89" y2="690"/>
<line x1="94" y1="692" x2="94" y2="692"/>
<line x1="82" y1="689" x2="80" y2="688"/>
<line x1="82" y1="689" x2="84" y2="689"/>
<line x1="85" y1="689" x2="84" y2="689"/>
<line x1="85" y1="689" x2="86" y2="689"/>
<line x1="86" y1="689" x2="87" y2="690"/>
<line x1="80" y1="688" x2="80" y2="688"/>
<line x1="80" y1="688" x2="80" y2="688"/>
<line x1="80" y1="688" x2="80" y2="688"/>
<line x1="54" y1="691" x2="51" y2="692"/>
<line x1="55" y1="691" x2="54" y2="691"/>
<line x1="51" y1="692" x2="51" y2="692"/>
<line x1="55" y1="691" x2="58" y2="690"/>
<line x1="64" y1="688" x2="59" y2="689"/>
<line x1="59" y1="689" x2="58" y2="690"/>
<line x1="64" y1="688" x2="65" y2="688"/>
<line x1="50" y1="710" x2="50" y2="692"/>
<line x1="50" y1="710" x2="50" y2="723"/>
<line x1="50" y1="710" x2="50" y2="710"/>
<line x1="1319" y1="717" x2="1318" y2="712"/>
<line x1="1319" y1="718" x2="1319" y2="717"/>
<line x1="1319" y1="718" x2="1319" y2="720"/>
<line x1="1319" y1="723" x2="1319" y2="722"/>
<line x1="1319" y1="723" x2="1319" y2="723"/>
<line x1="1319" y1="723" x2="1319" y2="723"/>
<line x1="1319" y1="720" x2="1319" y2="720"/>
<line x1="1319" y1="720" x2="1319" y2="722"/>
<line x1="1360" y1="750" x2="1360" y2="751"/>
<line x1="1358" y1="757" x2="1358" y2="759"/>
<line x1="1358" y1="757" x2="1359" y2="756"/>
<line x1="1359" y1="753" x2="1359" y2="756"/>
<line x1="1359" y1="753" x2="1359" y2="753"/>
<line x1="1360" y1="751" x2="1360" y2="751"/>
<line x1="1360" y1="751" x2="1359" y2="753"/>
<line x1="1358" y1="759" x2="1358" y2="761"/>
<line x1="1358" y1="759" x2="1358" y2="759"/>
<line x1="49" y1="162" x2="50" y2="164"/>
<line x1="49" y1="161" x2="49" y2="162"/>
<line x1="49" y1="161" x2="49" y2="161"/>
<line x1="51" y1="165" x2="53" y2="167"/>
<line x1="51" y1="164" x2="50" y2="164"/>
<line x1="51" y1="164" x2="51" y2="165"/>
<line x1="54" y1="168" x2="57" y2="170"/>
<line x1="53" y1="168" x2="53" y2="167"/>
<line x1="53" y1="168" x2="54" y2="168"/>
<line x1="58" y1="171" x2="61" y2="173"/>
<line x1="57" y1="171" x2="57" y2="170"/>
<line x1="57" y1="171" x2="58" y2="171"/>
<line x1="62" y1="173" x2="66" y2="174"/>
<line x1="62" y1="173" x2="61" y2="173"/>
<line x1="62" y1="173" x2="62" y2="173"/>
<line x1="67" y1="175" x2="71" y2="176"/>
<line x1="67" y1="175" x2="66" y2="174"/>
<line x1="67" y1="175" x2="67" y2="175"/>
<line x1="73" y1="176" x2="77" y2="176"/>
<line x1="72" y1="176" x2="71" y2="176"/>
<line x1="72" y1="176" x2="73" y2="176"/>
<line x1="78" y1="176" x2="82" y2="176"/>
<line x1="78" y1="176" x2="77" y2="176"/>
<line x1="78" y1="176" x2="78" y2="176"/>
<line x1="84" y1="175" x2="88" y2="174"/>
<line x1="83" y1="175" x2="82" y2="176"/>
<line x1="83" y1="175" x2="84" y2="175"/>
<line x1="89" y1="174" x2="93" y2="173"/>
<line x1="89" y1="174" x2="88" y2="174"/>
<line x1="89" y1="174" x2="89" y2="174"/>
<line x1="96" y1="171" x2="97" y2="170"/>
<line x1="96" y1="171" x2="94" y2="172"/>
<line x1="93" y1="173" x2="93" y2="173"/>
<line x1="93" y1="173" x2="94" y2="172"/>
<line x1="99" y1="169" x2="100" y2="168"/>
<line x1="99" y1="169" x2="99" y2="169"/>
<line x1="99" y1="169" x2="98" y2="169"/>
<line x1="98" y1="170" x2="98" y2="169"/>
<line x1="98" y1="170" x2="98" y2="170"/>
<line x1="98" y1="170" x2="97" y2="170"/>
<line x1="99" y1="145" x2="98" y2="145"/>
<line x1="98" y1="145" x2="98" y2="145"/>
<line x1="99" y1="145" x2="99" y2="145"/>
<line x1="98" y1="144" x2="98" y2="145"/>
<line x1="98" y1="144" x2="97" y2="143"/>
<line x1="100" y1="146" x2="99" y2="145"/>
<line x1="96" y1="143" x2="93" y2="141"/>
<line x1="96" y1="143" x2="96" y2="143"/>
<line x1="96" y1="143" x2="97" y2="143"/>
<line x1="91" y1="141" x2="88" y2="139"/>
<line x1="92" y1="141" x2="93" y2="141"/>
<line x1="92" y1="141" x2="91" y2="141"/>
<line x1="86" y1="139" x2="84" y2="139"/>
<line x1="87" y1="139" x2="86" y2="139"/>
<line x1="87" y1="139" x2="88" y2="139"/>
<line x1="69" y1="139" x2="70" y2="139"/>
<line x1="69" y1="139" x2="66" y2="139"/>
<line x1="64" y1="140" x2="61" y2="141"/>
<line x1="65" y1="140" x2="66" y2="139"/>
<line x1="65" y1="140" x2="64" y2="140"/>
<line x1="60" y1="142" x2="57" y2="143"/>
<line x1="60" y1="141" x2="61" y2="141"/>
<line x1="60" y1="141" x2="60" y2="142"/>
<line x1="56" y1="144" x2="53" y2="146"/>
<line x1="56" y1="144" x2="56" y2="144"/>
<line x1="56" y1="144" x2="57" y2="143"/>
<line x1="52" y1="147" x2="50" y2="150"/>
<line x1="53" y1="147" x2="52" y2="147"/>
<line x1="53" y1="147" x2="53" y2="146"/>
<line x1="50" y1="151" x2="49" y2="153"/>
<line x1="50" y1="151" x2="50" y2="151"/>
<line x1="50" y1="150" x2="50" y2="151"/>
<line x1="50" y1="150" x2="50" y2="150"/>
<line x1="49" y1="154" x2="48" y2="157"/>
<line x1="49" y1="154" x2="49" y2="154"/>
<line x1="49" y1="153" x2="49" y2="154"/>
<line x1="49" y1="153" x2="49" y2="153"/>
<line x1="49" y1="161" x2="49" y2="161"/>
<line x1="49" y1="161" x2="48" y2="158"/>
<line x1="48" y1="158" x2="48" y2="158"/>
<line x1="48" y1="158" x2="48" y2="157"/>
<line x1="1341" y1="165" x2="1340" y2="163"/>
<line x1="1341" y1="165" x2="1341" y2="165"/>
<line x1="1341" y1="165" x2="1341" y2="165"/>
<line x1="1358" y1="177" x2="1360" y2="177"/>
<line x1="1358" y1="177" x2="1356" y2="176"/>
<line x1="1340" y1="158" x2="1340" y2="158"/>
<line x1="1340" y1="158" x2="1340" y2="158"/>
<line x1="1340" y1="157" x2="1340" y2="157"/>
<line x1="1340" y1="157" x2="1340" y2="158"/>
<line x1="1340" y1="155" x2="1340" y2="155"/>
<line x1="1340" y1="155" x2="1340" y2="155"/>
<line x1="1340" y1="157" x2="1340" y2="157"/>
<line x1="1340" y1="157" x2="1340" y2="155"/>
<line x1="1352" y1="175" x2="1351" y2="175"/>
<line x1="1350" y1="174" x2="1351" y2="175"/>
<line x1="1349" y1="174" x2="1350" y2="174"/>
<line x1="1340" y1="153" x2="1340" y2="153"/>
<line x1="1340" y1="154" x2="1340" y2="153"/>
<line x1="1340" y1="154" x2="1340" y2="155"/>
<line x1="1341" y1="165" x2="1341" y2="165"/>
<line x1="1342" y1="167" x2="1341" y2="165"/>
<line x1="1342" y1="167" x2="1342" y2="167"/>
<line x1="1340" y1="152" x2="1340" y2="152"/>
<line x1="1340" y1="152" x2="1340" y2="153"/>
<line x1="1340" y1="152" x2="1340" y2="152"/>
<line x1="1340" y1="163" x2="1340" y2="161"/>
<line x1="1340" y1="163" x2="1340" y2="163"/>
<line x1="1340" y1="163" x2="1340" y2="163"/>
<line x1="1340" y1="163" x2="1340" y2="163"/>
<line x1="1340" y1="161" x2="1340" y2="160"/>
<line x1="1340" y1="161" x2="1340" y2="161"/>
<line x1="1340" y1="161" x2="1340" y2="161"/>
<line x1="1340" y1="161" x2="1340" y2="161"/>
<line x1="1344" y1="170" x2="1344" y2="169"/>
<line x1="1344" y1="170" x2="1345" y2="171"/>
<line x1="1345" y1="171" x2="1346" y2="171"/>
<line x1="1343" y1="168" x2="1342" y2="167"/>
<line x1="1343" y1="168" x2="1343" y2="168"/>
<line x1="1343" y1="168" x2="1343" y2="168"/>
<line x1="1343" y1="168" x2="1343" y2="168"/>
<line x1="1347" y1="172" x2="1346" y2="171"/>
<line x1="1347" y1="172" x2="1349" y2="174"/>
<line x1="1354" y1="176" x2="1352" y2="175"/>
<line x1="1354" y1="176" x2="1356" y2="176"/>
<line x1="1340" y1="159" x2="1340" y2="159"/>
<line x1="1340" y1="159" x2="1340" y2="158"/>
<line x1="1340" y1="159" x2="1340" y2="160"/>
<line x1="1344" y1="169" x2="1343" y2="168"/>
<line x1="1344" y1="169" x2="1344" y2="169"/>
<line x1="1344" y1="169" x2="1344" y2="169"/>
<line x1="1344" y1="169" x2="1344" y2="169"/>
<line x1="1353" y1="139" x2="1352" y2="139"/>
<line x1="1353" y1="139" x2="1355" y2="139"/>
<line x1="1351" y1="140" x2="1352" y2="139"/>
<line x1="1351" y1="140" x2="1349" y2="141"/>
<line x1="1343" y1="146" x2="1343" y2="146"/>
<line x1="1343" y1="147" x2="1343" y2="146"/>
<line x1="1343" y1="147" x2="1342" y2="148"/>
<line x1="1344" y1="145" x2="1344" y2="145"/>
<line x1="1344" y1="145" x2="1343" y2="146"/>
<line x1="1344" y1="145" x2="1344" y2="145"/>
<line x1="1347" y1="142" x2="1346" y2="143"/>
<line x1="1347" y1="142" x2="1349" y2="141"/>
<line x1="1340" y1="152" x2="1340" y2="152"/>
<line x1="1341" y1="150" x2="1341" y2="150"/>
<line x1="1341" y1="150" x2="1341" y2="150"/>
<line x1="1340" y1="152" x2="1341" y2="150"/>
<line x1="1344" y1="145" x2="1344" y2="145"/>
<line x1="1345" y1="144" x2="1346" y2="143"/>
<line x1="1345" y1="144" x2="1345" y2="144"/>
<line x1="1344" y1="145" x2="1345" y2="144"/>
<line x1="1342" y1="148" x2="1342" y2="148"/>
<line x1="1342" y1="148" x2="1342" y2="148"/>
<line x1="1341" y1="150" x2="1341" y2="150"/>
<line x1="1341" y1="150" x2="1342" y2="148"/>
</g></svg>