<svg xmlns="http://www.w3.org/2000/svg" width="1400" height="900" viewBox="0 0 1400 900">
<rect x="0" y="0" width="100%" height="100%" fill="white"/>
<g stroke="#111" stroke-width="1.2" fill="none" stroke-linecap="round">
<line x1="1314" y1="749" x2="1278" y2="749"/>
<line x1="1275" y1="749" x2="1278" y2="749"/>
<line x1="100" y1="749" x2="102" y2="749"/>
<line x1="100" y1="749" x2="99" y2="749"/>
<line x1="98" y1="749" x2="99" y2="749"/>
<line x1="97" y1="749" x2="98" y2="749"/>
<line x1="94" y1="749" x2="97" y2="749"/>
<line x1="91" y1="749" x2="94" y2="749"/>
<line x1="88" y1="749" x2="91" y2="749"/>
<line x1="1314" y1="733" x2="1314" y2="749"/>
<line x1="1314" y1="733" x2="1314" y2="141"/>
<line x1="1314" y1="109" x2="1314" y2="116"/>
<line x1="1314" y1="109" x2="1314" y2="108"/>
<line x1="88" y1="744" x2="88" y2="736"/>
<line x1="88" y1="744" x2="88" y2="749"/>
<line x1="88" y1="416" x2="88" y2="108"/>
<line x1="88" y1="416" x2="88" y2="711"/>
<line x1="102" y1="749" x2="102" y2="749"/>
<line x1="102" y1="749" x2="103" y2="750"/>
<line x1="85" y1="734" x2="88" y2="736"/>
<line x1="80" y1="730" x2="85" y2="734"/>
<line x1="75" y1="726" x2="80" y2="730"/>
<line x1="60" y1="712" x2="75" y2="726"/>
<line x1="60" y1="712" x2="59" y2="711"/>
<line x1="59" y1="711" x2="59" y2="711"/>
<line x1="59" y1="711" x2="59" y2="711"/>
<line x1="59" y1="711" x2="59" y2="711"/>
<line x1="59" y1="711" x2="59" y2="711"/>
<line x1="59" y1="711" x2="59" y2="711"/>
<line x1="1275" y1="749" x2="1275" y2="749"/>
<line x1="1275" y1="749" x2="1275" y2="750"/>
<line x1="103" y1="750" x2="649" y2="750"/>
<line x1="1275" y1="750" x2="1189" y2="750"/>
<line x1="1189" y1="750" x2="1188" y2="750"/>
<line x1="1188" y1="750" x2="1106" y2="750"/>
<line x1="1106" y1="750" x2="1105" y2="750"/>
<line x1="1105" y1="750" x2="1035" y2="750"/>
<line x1="1035" y1="750" x2="1034" y2="750"/>
<line x1="1034" y1="750" x2="972" y2="750"/>
<line x1="972" y1="750" x2="972" y2="750"/>
<line x1="972" y1="750" x2="917" y2="750"/>
<line x1="917" y1="750" x2="917" y2="750"/>
<line x1="917" y1="750" x2="868" y2="750"/>
<line x1="868" y1="750" x2="868" y2="750"/>
<line x1="868" y1="750" x2="824" y2="750"/>
<line x1="824" y1="750" x2="824" y2="750"/>
<line x1="824" y1="750" x2="784" y2="750"/>
<line x1="784" y1="750" x2="784" y2="750"/>
<line x1="784" y1="750" x2="748" y2="750"/>
<line x1="748" y1="750" x2="747" y2="750"/>
<line x1="747" y1="750" x2="715" y2="750"/>
<line x1="715" y1="750" x2="714" y2="750"/>
<line x1="714" y1="750" x2="684" y2="750"/>
<line x1="684" y1="750" x2="684" y2="750"/>
<line x1="684" y1="750" x2="656" y2="750"/>
<line x1="656" y1="750" x2="656" y2="750"/>
<line x1="656" y1="750" x2="649" y2="750"/>
<line x1="59" y1="711" x2="59" y2="711"/>
<line x1="85" y1="711" x2="88" y2="711"/>
<line x1="80" y1="711" x2="85" y2="711"/>
<line x1="75" y1="711" x2="80" y2="711"/>
<line x1="70" y1="711" x2="75" y2="711"/>
<line x1="65" y1="711" x2="70" y2="711"/>
<line x1="60" y1="711" x2="65" y2="711"/>
<line x1="59" y1="711" x2="60" y2="711"/>
<line x1="59" y1="711" x2="59" y2="711"/>
<line x1="1358" y1="792" x2="1360" y2="792"/>
<line x1="1358" y1="792" x2="1356" y2="792"/>
<line x1="1356" y1="792" x2="1299" y2="792"/>
<line x1="1299" y1="792" x2="1298" y2="792"/>
<line x1="1298" y1="792" x2="642" y2="792"/>
<line x1="222" y1="792" x2="642" y2="792"/>
<line x1="198" y1="792" x2="222" y2="792"/>
<line x1="171" y1="792" x2="198" y2="792"/>
<line x1="139" y1="792" x2="171" y2="792"/>
<line x1="103" y1="792" x2="139" y2="792"/>
<line x1="61" y1="792" x2="103" y2="792"/>
<line x1="61" y1="792" x2="40" y2="792"/>
<line x1="1360" y1="108" x2="1359" y2="108"/>
<line x1="1359" y1="108" x2="1358" y2="108"/>
<line x1="1358" y1="108" x2="1346" y2="108"/>
<line x1="1346" y1="108" x2="1346" y2="108"/>
<line x1="1342" y1="108" x2="1346" y2="108"/>
<line x1="1342" y1="108" x2="1342" y2="108"/>
<line x1="1340" y1="108" x2="1342" y2="108"/>
<line x1="1336" y1="108" x2="1340" y2="108"/>
<line x1="1314" y1="108" x2="1325" y2="108"/>
<line x1="1314" y1="108" x2="1314" y2="108"/>
<line x1="88" y1="108" x2="64" y2="108"/>
<line x1="40" y1="108" x2="64" y2="108"/>
<line x1="1360" y1="767" x2="1360" y2="108"/>
<line x1="1360" y1="767" x2="1360" y2="792"/>
<line x1="40" y1="494" x2="40" y2="792"/>
<line x1="40" y1="494" x2="40" y2="380"/>
<line x1="40" y1="380" x2="40" y2="360"/>
<line x1="40" y1="360" x2="40" y2="223"/>
<line x1="40" y1="119" x2="40" y2="125"/>
<line x1="40" y1="125" x2="40" y2="126"/>
<line x1="40" y1="119" x2="40" y2="108"/>
<line x1="40" y1="126" x2="40" y2="223"/>
<line x1="83" y1="137" x2="83" y2="137"/>
<line x1="83" y1="137" x2="84" y2="134"/>
<line x1="84" y1="133" x2="84" y2="134"/>
<line x1="84" y1="133" x2="84" y2="133"/>
<line x1="81" y1="141" x2="81" y2="141"/>
<line x1="81" y1="141" x2="83" y2="138"/>
<line x1="83" y1="138" x2="83" y2="137"/>
<line x1="78" y1="144" x2="78" y2="144"/>
<line x1="78" y1="144" x2="81" y2="141"/>
<line x1="81" y1="141" x2="81" y2="141"/>
<line x1="81" y1="141" x2="81" y2="141"/>
<line x1="78" y1="144" x2="78" y2="144"/>
<line x1="78" y1="144" x2="75" y2="147"/>
<line x1="78" y1="144" x2="78" y2="144"/>
<line x1="74" y1="147" x2="74" y2="147"/>
<line x1="74" y1="147" x2="71" y2="149"/>
<line x1="74" y1="147" x2="75" y2="147"/>
<line x1="70" y1="149" x2="70" y2="149"/>
<line x1="70" y1="149" x2="67" y2="150"/>
<line x1="70" y1="149" x2="71" y2="149"/>
<line x1="66" y1="150" x2="66" y2="150"/>
<line x1="66" y1="150" x2="62" y2="150"/>
<line x1="66" y1="150" x2="67" y2="150"/>
<line x1="62" y1="150" x2="62" y2="150"/>
<line x1="62" y1="150" x2="58" y2="150"/>
<line x1="62" y1="150" x2="62" y2="150"/>
<line x1="57" y1="150" x2="58" y2="150"/>
<line x1="57" y1="150" x2="54" y2="149"/>
<line x1="58" y1="150" x2="58" y2="150"/>
<line x1="53" y1="148" x2="53" y2="148"/>
<line x1="53" y1="148" x2="50" y2="147"/>
<line x1="53" y1="148" x2="54" y2="149"/>
<line x1="49" y1="146" x2="47" y2="144"/>
<line x1="49" y1="146" x2="50" y2="146"/>
<line x1="50" y1="146" x2="50" y2="147"/>
<line x1="46" y1="143" x2="46" y2="144"/>
<line x1="46" y1="143" x2="44" y2="141"/>
<line x1="47" y1="144" x2="46" y2="144"/>
<line x1="43" y1="140" x2="44" y2="140"/>
<line x1="43" y1="139" x2="43" y2="140"/>
<line x1="43" y1="139" x2="42" y2="137"/>
<line x1="44" y1="141" x2="44" y2="141"/>
<line x1="44" y1="141" x2="44" y2="140"/>
<line x1="41" y1="136" x2="42" y2="137"/>
<line x1="41" y1="134" x2="41" y2="136"/>
<line x1="41" y1="134" x2="41" y2="133"/>
<line x1="42" y1="137" x2="42" y2="137"/>
<line x1="40" y1="130" x2="41" y2="133"/>
<line x1="40" y1="130" x2="40" y2="129"/>
<line x1="41" y1="133" x2="41" y2="133"/>
<line x1="40" y1="128" x2="41" y2="125"/>
<line x1="40" y1="128" x2="40" y2="129"/>
<line x1="40" y1="129" x2="40" y2="129"/>
<line x1="41" y1="123" x2="42" y2="121"/>
<line x1="41" y1="124" x2="41" y2="123"/>
<line x1="41" y1="124" x2="41" y2="125"/>
<line x1="41" y1="125" x2="41" y2="125"/>
<line x1="44" y1="118" x2="44" y2="118"/>
<line x1="43" y1="119" x2="44" y2="118"/>
<line x1="43" y1="119" x2="43" y2="119"/>
<line x1="43" y1="119" x2="42" y2="121"/>
<line x1="42" y1="121" x2="42" y2="121"/>
<line x1="47" y1="115" x2="47" y2="115"/>
<line x1="47" y1="115" x2="44" y2="117"/>
<line x1="44" y1="117" x2="44" y2="118"/>
<line x1="50" y1="112" x2="47" y2="114"/>
<line x1="50" y1="112" x2="50" y2="112"/>
<line x1="47" y1="114" x2="47" y2="115"/>
<line x1="54" y1="110" x2="51" y2="112"/>
<line x1="54" y1="110" x2="54" y2="110"/>
<line x1="51" y1="112" x2="50" y2="112"/>
<line x1="58" y1="109" x2="54" y2="110"/>
<line x1="58" y1="109" x2="58" y2="109"/>
<line x1="54" y1="110" x2="54" y2="110"/>
<line x1="62" y1="108" x2="59" y2="109"/>
<line x1="62" y1="108" x2="62" y2="108"/>
<line x1="58" y1="109" x2="59" y2="109"/>
<line x1="67" y1="109" x2="63" y2="108"/>
<line x1="67" y1="109" x2="67" y2="109"/>
<line x1="63" y1="108" x2="62" y2="108"/>
<line x1="71" y1="110" x2="67" y2="109"/>
<line x1="71" y1="110" x2="71" y2="110"/>
<line x1="67" y1="109" x2="67" y2="109"/>
<line x1="75" y1="112" x2="71" y2="110"/>
<line x1="75" y1="112" x2="75" y2="112"/>
<line x1="71" y1="110" x2="71" y2="110"/>
<line x1="75" y1="112" x2="78" y2="115"/>
<line x1="75" y1="112" x2="75" y2="112"/>
<line x1="75" y1="112" x2="75" y2="112"/>
<line x1="75" y1="112" x2="75" y2="112"/>
<line x1="81" y1="118" x2="81" y2="118"/>
<line x1="81" y1="118" x2="78" y2="115"/>
<line x1="78" y1="115" x2="78" y2="115"/>
<line x1="78" y1="115" x2="78" y2="115"/>
<line x1="78" y1="115" x2="78" y2="115"/>
<line x1="83" y1="121" x2="83" y2="121"/>
<line x1="83" y1="121" x2="81" y2="118"/>
<line x1="81" y1="118" x2="81" y2="118"/>
<line x1="81" y1="118" x2="81" y2="118"/>
<line x1="84" y1="125" x2="84" y2="125"/>
<line x1="84" y1="125" x2="83" y2="122"/>
<line x1="83" y1="122" x2="83" y2="122"/>
<line x1="83" y1="122" x2="83" y2="122"/>
<line x1="83" y1="122" x2="83" y2="121"/>
<line x1="85" y1="129" x2="85" y2="129"/>
<line x1="85" y1="129" x2="84" y2="126"/>
<line x1="84" y1="126" x2="84" y2="126"/>
<line x1="84" y1="126" x2="84" y2="125"/>
<line x1="84" y1="133" x2="84" y2="133"/>
<line x1="84" y1="133" x2="84" y2="133"/>
<line x1="84" y1="133" x2="85" y2="130"/>
<line x1="85" y1="129" x2="85" y2="130"/>
<line x1="85" y1="129" x2="85" y2="129"/>
<line x1="1351" y1="134" x2="1350" y2="136"/>
<line x1="1351" y1="134" x2="1351" y2="132"/>
<line x1="1351" y1="134" x2="1351" y2="134"/>
<line x1="1349" y1="138" x2="1348" y2="140"/>
<line x1="1349" y1="138" x2="1350" y2="136"/>
<line x1="1347" y1="141" x2="1345" y2="143"/>
<line x1="1347" y1="141" x2="1348" y2="140"/>
<line x1="1344" y1="144" x2="1342" y2="146"/>
<line x1="1344" y1="144" x2="1345" y2="143"/>
<line x1="1341" y1="146" x2="1338" y2="148"/>
<line x1="1341" y1="146" x2="1342" y2="146"/>
<line x1="1337" y1="148" x2="1334" y2="149"/>
<line x1="1337" y1="148" x2="1338" y2="148"/>
<line x1="1333" y1="149" x2="1330" y2="149"/>
<line x1="1333" y1="149" x2="1334" y2="149"/>
<line x1="1329" y1="149" x2="1326" y2="149"/>
<line x1="1329" y1="149" x2="1330" y2="149"/>
<line x1="1325" y1="148" x2="1322" y2="148"/>
<line x1="1325" y1="148" x2="1326" y2="149"/>
<line x1="1321" y1="147" x2="1318" y2="146"/>
<line x1="1321" y1="147" x2="1322" y2="148"/>
<line x1="1317" y1="145" x2="1315" y2="143"/>
<line x1="1317" y1="145" x2="1318" y2="146"/>
<line x1="1314" y1="142" x2="1314" y2="141"/>
<line x1="1314" y1="142" x2="1315" y2="143"/>
<line x1="1314" y1="142" x2="1314" y2="142"/>
<line x1="1314" y1="115" x2="1315" y2="114"/>
<line x1="1314" y1="115" x2="1314" y2="115"/>
<line x1="1314" y1="115" x2="1314" y2="116"/>
<line x1="1314" y1="116" x2="1314" y2="116"/>
<line x1="1316" y1="113" x2="1318" y2="111"/>
<line x1="1315" y1="114" x2="1316" y2="113"/>
<line x1="1320" y1="110" x2="1322" y2="109"/>
<line x1="1318" y1="111" x2="1320" y2="110"/>
<line x1="1324" y1="109" x2="1325" y2="108"/>
<line x1="1324" y1="109" x2="1322" y2="109"/>
<line x1="1336" y1="108" x2="1338" y2="109"/>
<line x1="1336" y1="108" x2="1336" y2="108"/>
<line x1="1340" y1="110" x2="1342" y2="111"/>
<line x1="1338" y1="109" x2="1340" y2="110"/>
<line x1="1343" y1="112" x2="1345" y2="114"/>
<line x1="1342" y1="111" x2="1343" y2="112"/>
<line x1="1346" y1="115" x2="1348" y2="117"/>
<line x1="1345" y1="114" x2="1346" y2="115"/>
<line x1="1349" y1="118" x2="1350" y2="120"/>
<line x1="1348" y1="117" x2="1349" y2="118"/>
<line x1="1350" y1="122" x2="1351" y2="124"/>
<line x1="1350" y1="122" x2="1350" y2="122"/>
<line x1="1350" y1="122" x2="1350" y2="120"/>
<line x1="1352" y1="128" x2="1352" y2="128"/>
<line x1="1352" y1="128" x2="1351" y2="126"/>
<line x1="1351" y1="124" x2="1351" y2="126"/>
<line x1="1351" y1="124" x2="1351" y2="124"/>
<line x1="1351" y1="130" x2="1351" y2="130"/>
<line x1="1351" y1="130" x2="1351" y2="132"/>
<line x1="1351" y1="130" x2="1352" y2="128"/>
<line x1="1351" y1="130" x2="1351" y2="130"/>
</g></svg>