<svg xmlns="http://www.w3.org/2000/svg" width="1400" height="900" viewBox="0 0 1400 900">
<rect x="0" y="0" width="100%" height="100%" fill="white"/>
<g stroke="#111" stroke-width="1.2" fill="none" stroke-linecap="round">
<line x1="1083" y1="828" x2="1081" y2="828"/>
<line x1="1085" y1="827" x2="1083" y2="828"/>
<line x1="1087" y1="827" x2="1085" y2="827"/>
<line x1="1090" y1="825" x2="1087" y2="827"/>
<line x1="1091" y1="824" x2="1090" y2="825"/>
<line x1="1091" y1="824" x2="1092" y2="823"/>
<line x1="1097" y1="763" x2="1097" y2="779"/>
<line x1="1097" y1="763" x2="1097" y2="762"/>
<line x1="1097" y1="762" x2="1095" y2="730"/>
<line x1="1095" y1="730" x2="1095" y2="730"/>
<line x1="1095" y1="730" x2="1092" y2="697"/>
<line x1="1092" y1="697" x2="1092" y2="697"/>
<line x1="1092" y1="697" x2="1089" y2="665"/>
<line x1="1089" y1="665" x2="1089" y2="665"/>
<line x1="1086" y1="632" x2="1089" y2="665"/>
<line x1="1086" y1="632" x2="1086" y2="632"/>
<line x1="1082" y1="600" x2="1086" y2="632"/>
<line x1="1082" y1="600" x2="1082" y2="600"/>
<line x1="1082" y1="600" x2="1078" y2="568"/>
<line x1="1078" y1="568" x2="1078" y2="567"/>
<line x1="1078" y1="567" x2="1073" y2="535"/>
<line x1="1073" y1="535" x2="1073" y2="535"/>
<line x1="1073" y1="535" x2="1067" y2="503"/>
<line x1="1067" y1="503" x2="1067" y2="503"/>
<line x1="1067" y1="503" x2="1061" y2="471"/>
<line x1="1061" y1="471" x2="1061" y2="471"/>
<line x1="1061" y1="471" x2="1055" y2="439"/>
<line x1="1055" y1="439" x2="1055" y2="439"/>
<line x1="1055" y1="439" x2="1048" y2="407"/>
<line x1="1048" y1="407" x2="1048" y2="407"/>
<line x1="1048" y1="407" x2="1040" y2="375"/>
<line x1="1040" y1="375" x2="1040" y2="375"/>
<line x1="1032" y1="344" x2="1040" y2="375"/>
<line x1="1032" y1="344" x2="1032" y2="344"/>
<line x1="1023" y1="312" x2="1032" y2="344"/>
<line x1="1023" y1="312" x2="1023" y2="312"/>
<line x1="1023" y1="312" x2="1014" y2="281"/>
<line x1="1014" y1="281" x2="1014" y2="281"/>
<line x1="1014" y1="281" x2="1005" y2="250"/>
<line x1="1005" y1="250" x2="1005" y2="249"/>
<line x1="1005" y1="249" x2="995" y2="219"/>
<line x1="995" y1="219" x2="995" y2="218"/>
<line x1="995" y1="218" x2="984" y2="188"/>
<line x1="984" y1="188" x2="984" y2="188"/>
<line x1="984" y1="188" x2="973" y2="157"/>
<line x1="973" y1="157" x2="973" y2="157"/>
<line x1="973" y1="157" x2="961" y2="127"/>
<line x1="961" y1="126" x2="961" y2="127"/>
<line x1="961" y1="126" x2="955" y2="112"/>
<line x1="932" y1="72" x2="933" y2="73"/>
<line x1="929" y1="72" x2="932" y2="72"/>
<line x1="927" y1="72" x2="929" y2="72"/>
<line x1="925" y1="72" x2="927" y2="72"/>
<line x1="923" y1="72" x2="925" y2="72"/>
<line x1="920" y1="73" x2="923" y2="72"/>
<line x1="616" y1="203" x2="920" y2="73"/>
<line x1="310" y1="379" x2="308" y2="373"/>
<line x1="310" y1="379" x2="318" y2="399"/>
<line x1="318" y1="399" x2="325" y2="420"/>
<line x1="325" y1="420" x2="332" y2="440"/>
<line x1="332" y1="440" x2="339" y2="460"/>
<line x1="339" y1="460" x2="345" y2="481"/>
<line x1="351" y1="501" x2="345" y2="481"/>
<line x1="351" y1="501" x2="357" y2="522"/>
<line x1="357" y1="522" x2="362" y2="543"/>
<line x1="362" y1="543" x2="367" y2="563"/>
<line x1="367" y1="563" x2="371" y2="584"/>
<line x1="371" y1="584" x2="376" y2="605"/>
<line x1="380" y1="626" x2="376" y2="605"/>
<line x1="383" y1="647" x2="380" y2="626"/>
<line x1="387" y1="668" x2="383" y2="647"/>
<line x1="389" y1="690" x2="387" y2="668"/>
<line x1="392" y1="711" x2="389" y2="690"/>
<line x1="394" y1="732" x2="392" y2="711"/>
<line x1="396" y1="753" x2="394" y2="732"/>
<line x1="398" y1="775" x2="396" y2="753"/>
<line x1="399" y1="796" x2="398" y2="775"/>
<line x1="399" y1="796" x2="399" y2="803"/>
<line x1="750" y1="833" x2="1081" y2="828"/>
<line x1="1073" y1="742" x2="1075" y2="771"/>
<line x1="1073" y1="741" x2="1073" y2="742"/>
<line x1="328" y1="368" x2="421" y2="802"/>
<line x1="1069" y1="682" x2="1071" y2="711"/>
<line x1="1020" y1="385" x2="1027" y2="414"/>
<line x1="1063" y1="622" x2="1063" y2="622"/>
<line x1="1059" y1="591" x2="1059" y2="592"/>
<line x1="1059" y1="592" x2="1059" y2="592"/>
<line x1="1027" y1="415" x2="1033" y2="443"/>
<line x1="969" y1="211" x2="969" y2="212"/>
<line x1="1039" y1="473" x2="1039" y2="473"/>
<line x1="1059" y1="592" x2="1059" y2="592"/>
<line x1="1045" y1="502" x2="1045" y2="503"/>
<line x1="1075" y1="771" x2="1075" y2="771"/>
<line x1="938" y1="127" x2="935" y2="120"/>
<line x1="328" y1="368" x2="328" y2="365"/>
<line x1="1027" y1="414" x2="1027" y2="415"/>
<line x1="949" y1="155" x2="949" y2="155"/>
<line x1="969" y1="212" x2="969" y2="212"/>
<line x1="1020" y1="385" x2="1020" y2="385"/>
<line x1="996" y1="298" x2="996" y2="298"/>
<line x1="1066" y1="651" x2="1066" y2="652"/>
<line x1="996" y1="298" x2="1005" y2="326"/>
<line x1="1069" y1="681" x2="1066" y2="652"/>
<line x1="1069" y1="681" x2="1069" y2="681"/>
<line x1="1045" y1="503" x2="1045" y2="503"/>
<line x1="1050" y1="532" x2="1050" y2="532"/>
<line x1="1075" y1="772" x2="1075" y2="779"/>
<line x1="1075" y1="771" x2="1075" y2="771"/>
<line x1="1055" y1="562" x2="1055" y2="562"/>
<line x1="1063" y1="621" x2="1059" y2="592"/>
<line x1="988" y1="269" x2="996" y2="298"/>
<line x1="978" y1="240" x2="969" y2="212"/>
<line x1="1055" y1="562" x2="1055" y2="562"/>
<line x1="1063" y1="622" x2="1063" y2="622"/>
<line x1="949" y1="155" x2="949" y2="155"/>
<line x1="1073" y1="741" x2="1073" y2="741"/>
<line x1="1027" y1="414" x2="1027" y2="414"/>
<line x1="1075" y1="771" x2="1075" y2="772"/>
<line x1="1050" y1="532" x2="1050" y2="532"/>
<line x1="988" y1="269" x2="988" y2="269"/>
<line x1="1071" y1="711" x2="1071" y2="712"/>
<line x1="938" y1="127" x2="938" y2="127"/>
<line x1="1069" y1="681" x2="1069" y2="681"/>
<line x1="959" y1="183" x2="949" y2="155"/>
<line x1="996" y1="298" x2="996" y2="298"/>
<line x1="1020" y1="385" x2="1020" y2="385"/>
<line x1="959" y1="183" x2="959" y2="184"/>
<line x1="1012" y1="356" x2="1012" y2="356"/>
<line x1="1071" y1="712" x2="1073" y2="741"/>
<line x1="938" y1="127" x2="938" y2="127"/>
<line x1="1069" y1="681" x2="1069" y2="682"/>
<line x1="1073" y1="741" x2="1073" y2="741"/>
<line x1="1027" y1="414" x2="1027" y2="414"/>
<line x1="1005" y1="327" x2="1012" y2="356"/>
<line x1="959" y1="183" x2="959" y2="183"/>
<line x1="1066" y1="651" x2="1063" y2="622"/>
<line x1="1063" y1="621" x2="1063" y2="622"/>
<line x1="1033" y1="444" x2="1033" y2="444"/>
<line x1="1033" y1="444" x2="1033" y2="443"/>
<line x1="979" y1="240" x2="978" y2="240"/>
<line x1="1039" y1="473" x2="1033" y2="444"/>
<line x1="969" y1="211" x2="959" y2="184"/>
<line x1="1071" y1="711" x2="1071" y2="711"/>
<line x1="1050" y1="532" x2="1050" y2="532"/>
<line x1="949" y1="155" x2="938" y2="127"/>
<line x1="1055" y1="562" x2="1055" y2="562"/>
<line x1="969" y1="212" x2="969" y2="212"/>
<line x1="988" y1="269" x2="988" y2="269"/>
<line x1="938" y1="127" x2="938" y2="127"/>
<line x1="1066" y1="651" x2="1066" y2="651"/>
<line x1="1039" y1="473" x2="1039" y2="473"/>
<line x1="1005" y1="327" x2="1005" y2="326"/>
<line x1="1055" y1="562" x2="1050" y2="532"/>
<line x1="1045" y1="503" x2="1045" y2="503"/>
<line x1="959" y1="184" x2="959" y2="184"/>
<line x1="1050" y1="532" x2="1045" y2="503"/>
<line x1="1012" y1="356" x2="1020" y2="385"/>
<line x1="1012" y1="356" x2="1012" y2="356"/>
<line x1="1071" y1="711" x2="1071" y2="711"/>
<line x1="988" y1="269" x2="988" y2="269"/>
<line x1="1039" y1="473" x2="1039" y2="473"/>
<line x1="1020" y1="385" x2="1020" y2="385"/>
<line x1="1059" y1="591" x2="1055" y2="562"/>
<line x1="1005" y1="327" x2="1005" y2="327"/>
<line x1="979" y1="240" x2="979" y2="241"/>
<line x1="1045" y1="502" x2="1039" y2="473"/>
<line x1="979" y1="241" x2="988" y2="269"/>
<line x1="1012" y1="356" x2="1012" y2="356"/>
<line x1="1005" y1="326" x2="1005" y2="326"/>
<line x1="1092" y1="859" x2="1086" y2="860"/>
<line x1="1092" y1="859" x2="1092" y2="858"/>
<line x1="1097" y1="857" x2="1092" y2="858"/>
<line x1="1097" y1="857" x2="1097" y2="857"/>
<line x1="1097" y1="857" x2="1098" y2="857"/>
<line x1="1102" y1="854" x2="1098" y2="857"/>
<line x1="1102" y1="854" x2="1103" y2="854"/>
<line x1="1103" y1="854" x2="1103" y2="854"/>
<line x1="1103" y1="854" x2="1103" y2="854"/>
<line x1="1103" y1="854" x2="1108" y2="851"/>
<line x1="1108" y1="851" x2="1108" y2="851"/>
<line x1="1108" y1="851" x2="1108" y2="851"/>
<line x1="1112" y1="847" x2="1108" y2="851"/>
<line x1="1112" y1="847" x2="1112" y2="847"/>
<line x1="1116" y1="843" x2="1116" y2="843"/>
<line x1="1116" y1="843" x2="1116" y2="843"/>
<line x1="1116" y1="843" x2="1116" y2="843"/>
<line x1="1116" y1="843" x2="1116" y2="843"/>
<line x1="1116" y1="843" x2="1116" y2="843"/>
<line x1="1116" y1="843" x2="1112" y2="847"/>
<line x1="1119" y1="838" x2="1119" y2="838"/>
<line x1="1119" y1="838" x2="1119" y2="838"/>
<line x1="1119" y1="838" x2="1119" y2="838"/>
<line x1="1119" y1="838" x2="1119" y2="838"/>
<line x1="1119" y1="838" x2="1116" y2="843"/>
<line x1="1122" y1="833" x2="1122" y2="832"/>
<line x1="1122" y1="833" x2="1122" y2="833"/>
<line x1="1122" y1="833" x2="1122" y2="833"/>
<line x1="1122" y1="833" x2="1122" y2="833"/>
<line x1="1121" y1="833" x2="1122" y2="833"/>
<line x1="1121" y1="833" x2="1121" y2="833"/>
<line x1="1121" y1="833" x2="1119" y2="838"/>
<line x1="1123" y1="827" x2="1124" y2="827"/>
<line x1="1123" y1="827" x2="1123" y2="827"/>
<line x1="1123" y1="827" x2="1123" y2="827"/>
<line x1="1123" y1="827" x2="1122" y2="832"/>
<line x1="1125" y1="822" x2="1125" y2="821"/>
<line x1="1125" y1="822" x2="1124" y2="827"/>
<line x1="1125" y1="815" x2="1125" y2="814"/>
<line x1="1125" y1="815" x2="1125" y2="821"/>
<line x1="1124" y1="790" x2="1124" y2="789"/>
<line x1="1124" y1="790" x2="1125" y2="814"/>
<line x1="1124" y1="788" x2="1124" y2="788"/>
<line x1="1124" y1="788" x2="1124" y2="789"/>
<line x1="1123" y1="755" x2="1123" y2="753"/>
<line x1="1123" y1="755" x2="1124" y2="788"/>
<line x1="1123" y1="752" x2="1123" y2="752"/>
<line x1="1123" y1="752" x2="1123" y2="753"/>
<line x1="1121" y1="719" x2="1121" y2="717"/>
<line x1="1121" y1="719" x2="1123" y2="752"/>
<line x1="1121" y1="717" x2="1121" y2="716"/>
<line x1="1121" y1="717" x2="1121" y2="717"/>
<line x1="1118" y1="684" x2="1118" y2="682"/>
<line x1="1118" y1="684" x2="1121" y2="716"/>
<line x1="1118" y1="681" x2="1118" y2="681"/>
<line x1="1118" y1="681" x2="1118" y2="682"/>
<line x1="1115" y1="648" x2="1114" y2="646"/>
<line x1="1115" y1="648" x2="1118" y2="681"/>
<line x1="1114" y1="645" x2="1114" y2="645"/>
<line x1="1114" y1="645" x2="1114" y2="646"/>
<line x1="1111" y1="613" x2="1110" y2="610"/>
<line x1="1111" y1="613" x2="1114" y2="645"/>
<line x1="1110" y1="610" x2="1110" y2="610"/>
<line x1="1110" y1="610" x2="1110" y2="610"/>
<line x1="1106" y1="575" x2="1106" y2="575"/>
<line x1="1106" y1="575" x2="1106" y2="575"/>
<line x1="1106" y1="575" x2="1106" y2="575"/>
<line x1="1106" y1="575" x2="1106" y2="575"/>
<line x1="1106" y1="575" x2="1106" y2="575"/>
<line x1="1110" y1="608" x2="1110" y2="608"/>
<line x1="1110" y1="608" x2="1110" y2="608"/>
<line x1="1110" y1="610" x2="1110" y2="608"/>
<line x1="1110" y1="608" x2="1106" y2="575"/>
<line x1="1106" y1="574" x2="1106" y2="574"/>
<line x1="1106" y1="574" x2="1106" y2="575"/>
<line x1="1101" y1="542" x2="1100" y2="539"/>
<line x1="1101" y1="542" x2="1106" y2="574"/>
<line x1="1100" y1="539" x2="1100" y2="539"/>
<line x1="1100" y1="539" x2="1100" y2="539"/>
<line x1="1095" y1="506" x2="1094" y2="504"/>
<line x1="1095" y1="506" x2="1100" y2="539"/>
<line x1="1094" y1="503" x2="1094" y2="503"/>
<line x1="1094" y1="503" x2="1094" y2="504"/>
<line x1="1088" y1="471" x2="1088" y2="469"/>
<line x1="1088" y1="471" x2="1094" y2="503"/>
<line x1="1088" y1="468" x2="1088" y2="468"/>
<line x1="1088" y1="468" x2="1088" y2="469"/>
<line x1="1081" y1="436" x2="1081" y2="434"/>
<line x1="1081" y1="436" x2="1088" y2="468"/>
<line x1="1081" y1="433" x2="1081" y2="433"/>
<line x1="1081" y1="433" x2="1081" y2="434"/>
<line x1="1074" y1="401" x2="1073" y2="399"/>
<line x1="1074" y1="401" x2="1081" y2="433"/>
<line x1="1073" y1="398" x2="1073" y2="398"/>
<line x1="1073" y1="398" x2="1073" y2="399"/>
<line x1="1065" y1="366" x2="1065" y2="364"/>
<line x1="1065" y1="366" x2="1073" y2="398"/>
<line x1="1065" y1="363" x2="1065" y2="363"/>
<line x1="1065" y1="363" x2="1065" y2="364"/>
<line x1="1056" y1="331" x2="1056" y2="329"/>
<line x1="1056" y1="331" x2="1065" y2="363"/>
<line x1="1056" y1="329" x2="1056" y2="329"/>
<line x1="1056" y1="329" x2="1056" y2="329"/>
<line x1="1047" y1="297" x2="1046" y2="295"/>
<line x1="1047" y1="297" x2="1056" y2="329"/>
<line x1="1046" y1="294" x2="1046" y2="294"/>
<line x1="1046" y1="294" x2="1046" y2="295"/>
<line x1="1036" y1="262" x2="1036" y2="261"/>
<line x1="1036" y1="262" x2="1036" y2="262"/>
<line x1="1037" y1="262" x2="1036" y2="262"/>
<line x1="1046" y1="294" x2="1046" y2="294"/>
<line x1="1046" y1="294" x2="1046" y2="294"/>
<line x1="1046" y1="294" x2="1046" y2="294"/>
<line x1="1046" y1="294" x2="1046" y2="294"/>
<line x1="1046" y1="294" x2="1037" y2="262"/>
<line x1="1036" y1="260" x2="1036" y2="260"/>
<line x1="1036" y1="260" x2="1036" y2="261"/>
<line x1="1026" y1="228" x2="1025" y2="226"/>
<line x1="1026" y1="228" x2="1036" y2="260"/>
<line x1="1025" y1="226" x2="1025" y2="226"/>
<line x1="1025" y1="226" x2="1025" y2="226"/>
<line x1="1015" y1="194" x2="1014" y2="192"/>
<line x1="1015" y1="194" x2="1025" y2="226"/>
<line x1="1014" y1="192" x2="1014" y2="192"/>
<line x1="1014" y1="192" x2="1014" y2="192"/>
<line x1="1003" y1="161" x2="1002" y2="159"/>
<line x1="1003" y1="161" x2="1014" y2="192"/>
<line x1="1002" y1="158" x2="1002" y2="158"/>
<line x1="1002" y1="158" x2="1002" y2="159"/>
<line x1="990" y1="127" x2="989" y2="125"/>
<line x1="990" y1="127" x2="1002" y2="158"/>
<line x1="989" y1="124" x2="989" y2="124"/>
<line x1="989" y1="124" x2="989" y2="125"/>
<line x1="977" y1="94" x2="976" y2="92"/>
<line x1="977" y1="94" x2="989" y2="124"/>
<line x1="976" y1="91" x2="976" y2="91"/>
<line x1="976" y1="91" x2="976" y2="92"/>
<line x1="967" y1="69" x2="966" y2="68"/>
<line x1="967" y1="69" x2="976" y2="91"/>
<line x1="964" y1="63" x2="964" y2="62"/>
<line x1="964" y1="63" x2="966" y2="68"/>
<line x1="961" y1="58" x2="960" y2="57"/>
<line x1="961" y1="58" x2="964" y2="62"/>
<line x1="960" y1="57" x2="960" y2="57"/>
<line x1="960" y1="57" x2="960" y2="57"/>
<line x1="960" y1="57" x2="957" y2="53"/>
<line x1="957" y1="53" x2="957" y2="53"/>
<line x1="957" y1="53" x2="957" y2="53"/>
<line x1="956" y1="53" x2="957" y2="53"/>
<line x1="956" y1="53" x2="956" y2="53"/>
<line x1="956" y1="53" x2="952" y2="49"/>
<line x1="952" y1="49" x2="952" y2="49"/>
<line x1="952" y1="49" x2="952" y2="49"/>
<line x1="952" y1="49" x2="952" y2="49"/>
<line x1="952" y1="49" x2="947" y2="46"/>
<line x1="947" y1="46" x2="947" y2="46"/>
<line x1="947" y1="46" x2="947" y2="46"/>
<line x1="947" y1="46" x2="947" y2="46"/>
<line x1="947" y1="46" x2="942" y2="43"/>
<line x1="942" y1="43" x2="942" y2="43"/>
<line x1="937" y1="42" x2="942" y2="43"/>
<line x1="937" y1="42" x2="937" y2="42"/>
<line x1="937" y1="42" x2="937" y2="42"/>
<line x1="937" y1="42" x2="937" y2="42"/>
<line x1="931" y1="40" x2="937" y2="42"/>
<line x1="931" y1="40" x2="931" y2="40"/>
<line x1="931" y1="40" x2="931" y2="40"/>
<line x1="931" y1="40" x2="931" y2="40"/>
<line x1="931" y1="40" x2="925" y2="40"/>
<line x1="925" y1="40" x2="925" y2="40"/>
<line x1="925" y1="40" x2="925" y2="40"/>
<line x1="925" y1="40" x2="919" y2="40"/>
<line x1="919" y1="40" x2="919" y2="40"/>
<line x1="919" y1="40" x2="914" y2="42"/>
<line x1="914" y1="42" x2="913" y2="42"/>
<line x1="907" y1="44" x2="913" y2="42"/>
<line x1="907" y1="44" x2="907" y2="44"/>
<line x1="892" y1="50" x2="907" y2="44"/>
<line x1="325" y1="303" x2="314" y2="308"/>
<line x1="448" y1="248" x2="325" y2="303"/>
<line x1="506" y1="222" x2="448" y2="248"/>
<line x1="538" y1="208" x2="506" y2="222"/>
<line x1="561" y1="198" x2="538" y2="208"/>
<line x1="592" y1="184" x2="561" y2="198"/>
<line x1="601" y1="180" x2="592" y2="184"/>
<line x1="892" y1="50" x2="610" y2="176"/>
<line x1="610" y1="176" x2="601" y2="180"/>
<line x1="314" y1="308" x2="301" y2="313"/>
<line x1="301" y1="314" x2="301" y2="313"/>
<line x1="301" y1="314" x2="301" y2="314"/>
<line x1="299" y1="315" x2="301" y2="314"/>
<line x1="299" y1="315" x2="296" y2="316"/>
<line x1="296" y1="316" x2="296" y2="316"/>
<line x1="296" y1="316" x2="291" y2="320"/>
<line x1="291" y1="320" x2="291" y2="320"/>
<line x1="291" y1="320" x2="291" y2="320"/>
<line x1="290" y1="321" x2="291" y2="320"/>
<line x1="290" y1="321" x2="287" y2="324"/>
<line x1="287" y1="324" x2="287" y2="324"/>
<line x1="287" y1="324" x2="287" y2="324"/>
<line x1="283" y1="328" x2="287" y2="324"/>
<line x1="287" y1="324" x2="287" y2="324"/>
<line x1="287" y1="324" x2="287" y2="324"/>
<line x1="287" y1="324" x2="287" y2="324"/>
<line x1="283" y1="328" x2="283" y2="328"/>
<line x1="283" y1="328" x2="280" y2="333"/>
<line x1="280" y1="333" x2="280" y2="333"/>
<line x1="280" y1="333" x2="280" y2="333"/>
<line x1="280" y1="333" x2="280" y2="333"/>
<line x1="280" y1="333" x2="278" y2="338"/>
<line x1="280" y1="333" x2="280" y2="333"/>
<line x1="278" y1="338" x2="277" y2="342"/>
<line x1="277" y1="342" x2="277" y2="342"/>
<line x1="277" y1="342" x2="277" y2="342"/>
<line x1="275" y1="353" x2="275" y2="352"/>
<line x1="275" y1="353" x2="275" y2="353"/>
<line x1="275" y1="353" x2="275" y2="353"/>
<line x1="275" y1="353" x2="275" y2="353"/>
<line x1="275" y1="353" x2="275" y2="355"/>
<line x1="275" y1="361" x2="275" y2="355"/>
<line x1="275" y1="361" x2="275" y2="361"/>
<line x1="275" y1="361" x2="275" y2="361"/>
<line x1="275" y1="361" x2="276" y2="361"/>
<line x1="277" y1="366" x2="276" y2="361"/>
<line x1="277" y1="366" x2="277" y2="367"/>
<line x1="277" y1="367" x2="277" y2="367"/>
<line x1="278" y1="371" x2="277" y2="367"/>
<line x1="278" y1="371" x2="278" y2="371"/>
<line x1="278" y1="371" x2="278" y2="371"/>
<line x1="278" y1="371" x2="278" y2="371"/>
<line x1="278" y1="371" x2="279" y2="373"/>
<line x1="278" y1="371" x2="278" y2="371"/>
<line x1="280" y1="374" x2="287" y2="394"/>
<line x1="280" y1="374" x2="279" y2="373"/>
<line x1="295" y1="414" x2="287" y2="394"/>
<line x1="295" y1="414" x2="295" y2="415"/>
<line x1="296" y1="416" x2="295" y2="415"/>
<line x1="303" y1="436" x2="296" y2="416"/>
<line x1="303" y1="436" x2="303" y2="437"/>
<line x1="310" y1="457" x2="303" y2="437"/>
<line x1="310" y1="457" x2="310" y2="458"/>
<line x1="310" y1="458" x2="310" y2="458"/>
<line x1="310" y1="458" x2="310" y2="458"/>
<line x1="317" y1="479" x2="310" y2="458"/>
<line x1="317" y1="479" x2="317" y2="479"/>
<line x1="317" y1="479" x2="317" y2="479"/>
<line x1="317" y1="479" x2="317" y2="479"/>
<line x1="317" y1="479" x2="317" y2="480"/>
<line x1="323" y1="500" x2="317" y2="480"/>
<line x1="323" y1="500" x2="323" y2="502"/>
<line x1="324" y1="503" x2="323" y2="502"/>
<line x1="324" y1="503" x2="329" y2="524"/>
<line x1="324" y1="503" x2="324" y2="503"/>
<line x1="329" y1="524" x2="329" y2="524"/>
<line x1="330" y1="524" x2="329" y2="524"/>
<line x1="330" y1="524" x2="330" y2="524"/>
<line x1="330" y1="525" x2="330" y2="524"/>
<line x1="330" y1="525" x2="335" y2="546"/>
<line x1="330" y1="525" x2="330" y2="525"/>
<line x1="335" y1="546" x2="335" y2="546"/>
<line x1="335" y1="547" x2="340" y2="568"/>
<line x1="335" y1="547" x2="335" y2="546"/>
<line x1="341" y1="569" x2="345" y2="590"/>
<line x1="341" y1="569" x2="340" y2="568"/>
<line x1="350" y1="611" x2="345" y2="590"/>
<line x1="350" y1="611" x2="350" y2="612"/>
<line x1="350" y1="612" x2="350" y2="612"/>
<line x1="354" y1="633" x2="350" y2="612"/>
<line x1="354" y1="633" x2="354" y2="634"/>
<line x1="358" y1="655" x2="354" y2="634"/>
<line x1="358" y1="655" x2="358" y2="655"/>
<line x1="358" y1="655" x2="358" y2="656"/>
<line x1="358" y1="656" x2="358" y2="656"/>
<line x1="358" y1="656" x2="358" y2="656"/>
<line x1="358" y1="656" x2="358" y2="657"/>
<line x1="361" y1="678" x2="358" y2="657"/>
<line x1="361" y1="678" x2="361" y2="678"/>
<line x1="361" y1="678" x2="361" y2="679"/>
<line x1="364" y1="700" x2="361" y2="679"/>
<line x1="364" y1="700" x2="364" y2="702"/>
<line x1="364" y1="702" x2="364" y2="702"/>
<line x1="364" y1="702" x2="364" y2="702"/>
<line x1="364" y1="703" x2="364" y2="702"/>
<line x1="364" y1="703" x2="364" y2="703"/>
<line x1="364" y1="703" x2="367" y2="724"/>
<line x1="364" y1="703" x2="364" y2="703"/>
<line x1="367" y1="725" x2="367" y2="724"/>
<line x1="367" y1="725" x2="367" y2="725"/>
<line x1="367" y1="726" x2="369" y2="747"/>
<line x1="367" y1="726" x2="367" y2="725"/>
<line x1="369" y1="748" x2="371" y2="769"/>
<line x1="369" y1="748" x2="369" y2="747"/>
<line x1="372" y1="790" x2="371" y2="769"/>
<line x1="372" y1="790" x2="372" y2="792"/>
<line x1="372" y1="792" x2="372" y2="792"/>
<line x1="373" y1="814" x2="372" y2="792"/>
<line x1="373" y1="814" x2="373" y2="815"/>
<line x1="373" y1="816" x2="373" y2="815"/>
<line x1="373" y1="816" x2="373" y2="817"/>
<line x1="373" y1="817" x2="374" y2="822"/>
<line x1="373" y1="817" x2="373" y2="817"/>
<line x1="374" y1="823" x2="374" y2="822"/>
<line x1="374" y1="823" x2="374" y2="823"/>
<line x1="374" y1="823" x2="375" y2="828"/>
<line x1="374" y1="823" x2="374" y2="823"/>
<line x1="375" y1="828" x2="375" y2="828"/>
<line x1="375" y1="828" x2="375" y2="828"/>
<line x1="375" y1="828" x2="377" y2="834"/>
<line x1="375" y1="828" x2="375" y2="828"/>
<line x1="377" y1="834" x2="378" y2="835"/>
<line x1="378" y1="835" x2="378" y2="836"/>
<line x1="378" y1="835" x2="378" y2="835"/>
<line x1="378" y1="835" x2="378" y2="835"/>
<line x1="378" y1="835" x2="378" y2="835"/>
<line x1="378" y1="835" x2="378" y2="835"/>
<line x1="384" y1="844" x2="387" y2="848"/>
<line x1="384" y1="844" x2="383" y2="844"/>
<line x1="391" y1="851" x2="387" y2="848"/>
<line x1="391" y1="851" x2="391" y2="851"/>
<line x1="391" y1="851" x2="391" y2="851"/>
<line x1="391" y1="851" x2="391" y2="851"/>
<line x1="396" y1="854" x2="391" y2="851"/>
<line x1="396" y1="854" x2="396" y2="855"/>
<line x1="401" y1="857" x2="402" y2="857"/>
<line x1="401" y1="857" x2="401" y2="857"/>
<line x1="400" y1="856" x2="401" y2="857"/>
<line x1="400" y1="856" x2="396" y2="855"/>
<line x1="407" y1="859" x2="407" y2="859"/>
<line x1="407" y1="859" x2="407" y2="859"/>
<line x1="404" y1="858" x2="407" y2="859"/>
<line x1="404" y1="858" x2="404" y2="858"/>
<line x1="404" y1="858" x2="404" y2="858"/>
<line x1="404" y1="858" x2="402" y2="857"/>
<line x1="413" y1="860" x2="413" y2="860"/>
<line x1="413" y1="860" x2="407" y2="859"/>
<line x1="417" y1="860" x2="418" y2="860"/>
<line x1="413" y1="860" x2="417" y2="860"/>
<line x1="413" y1="860" x2="413" y2="860"/>
<line x1="429" y1="860" x2="418" y2="860"/>
<line x1="531" y1="860" x2="429" y2="860"/>
<line x1="561" y1="860" x2="531" y2="860"/>
<line x1="590" y1="860" x2="561" y2="860"/>
<line x1="655" y1="860" x2="590" y2="860"/>
<line x1="687" y1="860" x2="655" y2="860"/>
<line x1="711" y1="860" x2="687" y2="860"/>
<line x1="711" y1="860" x2="749" y2="860"/>
<line x1="760" y1="860" x2="749" y2="860"/>
<line x1="772" y1="860" x2="760" y2="860"/>
<line x1="772" y1="860" x2="1080" y2="860"/>
<line x1="1081" y1="860" x2="1080" y2="860"/>
<line x1="1081" y1="860" x2="1086" y2="860"/>
<line x1="377" y1="806" x2="377" y2="806"/>
<line x1="377" y1="806" x2="377" y2="804"/>
<line x1="1092" y1="823" x2="1121" y2="822"/>
<line x1="1092" y1="823" x2="750" y2="833"/>
<line x1="750" y1="833" x2="383" y2="844"/>
<line x1="1097" y1="779" x2="1075" y2="779"/>
<line x1="1097" y1="779" x2="1120" y2="778"/>
<line x1="378" y1="822" x2="378" y2="822"/>
<line x1="378" y1="822" x2="377" y2="806"/>
<line x1="378" y1="822" x2="378" y2="822"/>
<line x1="378" y1="822" x2="378" y2="836"/>
<line x1="1097" y1="779" x2="1120" y2="778"/>
<line x1="1121" y1="822" x2="1092" y2="823"/>
<line x1="383" y1="844" x2="750" y2="833"/>
<line x1="1121" y1="818" x2="1121" y2="818"/>
<line x1="1121" y1="818" x2="1121" y2="818"/>
<line x1="1121" y1="818" x2="1121" y2="818"/>
<line x1="1121" y1="818" x2="1121" y2="818"/>
<line x1="1121" y1="818" x2="1121" y2="818"/>
<line x1="1121" y1="822" x2="1121" y2="822"/>
<line x1="1121" y1="822" x2="1121" y2="822"/>
<line x1="1121" y1="822" x2="1121" y2="818"/>
<line x1="1121" y1="822" x2="1121" y2="822"/>
<line x1="1121" y1="813" x2="1121" y2="813"/>
<line x1="1121" y1="813" x2="1121" y2="818"/>
<line x1="1121" y1="813" x2="1121" y2="813"/>
<line x1="1121" y1="809" x2="1121" y2="809"/>
<line x1="1121" y1="809" x2="1121" y2="809"/>
<line x1="1121" y1="809" x2="1121" y2="813"/>
<line x1="1121" y1="809" x2="1121" y2="809"/>
<line x1="1120" y1="804" x2="1120" y2="804"/>
<line x1="1120" y1="804" x2="1121" y2="809"/>
<line x1="1120" y1="804" x2="1120" y2="804"/>
<line x1="1120" y1="799" x2="1120" y2="799"/>
<line x1="1120" y1="800" x2="1120" y2="799"/>
<line x1="1120" y1="800" x2="1120" y2="800"/>
<line x1="1120" y1="800" x2="1120" y2="804"/>
<line x1="1120" y1="799" x2="1120" y2="795"/>
<line x1="1120" y1="799" x2="1120" y2="799"/>
<line x1="1120" y1="799" x2="1120" y2="799"/>
<line x1="1120" y1="795" x2="1120" y2="790"/>
<line x1="1120" y1="795" x2="1120" y2="795"/>
<line x1="1120" y1="795" x2="1120" y2="795"/>
<line x1="1120" y1="790" x2="1120" y2="786"/>
<line x1="1120" y1="790" x2="1120" y2="790"/>
<line x1="1120" y1="790" x2="1120" y2="790"/>
<line x1="1120" y1="790" x2="1120" y2="790"/>
<line x1="1120" y1="785" x2="1120" y2="781"/>
<line x1="1120" y1="785" x2="1120" y2="785"/>
<line x1="1120" y1="785" x2="1120" y2="785"/>
<line x1="1120" y1="785" x2="1120" y2="785"/>
<line x1="1120" y1="785" x2="1120" y2="786"/>
<line x1="1120" y1="778" x2="1120" y2="781"/>
<line x1="1120" y1="781" x2="1120" y2="781"/>
<line x1="1120" y1="781" x2="1120" y2="781"/>
<line x1="1120" y1="781" x2="1120" y2="781"/>
<line x1="399" y1="803" x2="377" y2="804"/>
<line x1="399" y1="803" x2="421" y2="802"/>
<line x1="955" y1="112" x2="976" y2="103"/>
<line x1="955" y1="112" x2="935" y2="120"/>
<line x1="286" y1="379" x2="286" y2="379"/>
<line x1="286" y1="379" x2="287" y2="381"/>
<line x1="616" y1="203" x2="277" y2="342"/>
<line x1="616" y1="203" x2="933" y2="73"/>
<line x1="933" y1="73" x2="959" y2="62"/>
<line x1="959" y1="62" x2="933" y2="73"/>
<line x1="277" y1="342" x2="616" y2="203"/>
<line x1="278" y1="359" x2="278" y2="358"/>
<line x1="278" y1="359" x2="286" y2="379"/>
<line x1="955" y1="112" x2="976" y2="103"/>
<line x1="278" y1="358" x2="278" y2="358"/>
<line x1="278" y1="358" x2="275" y2="352"/>
<line x1="975" y1="100" x2="975" y2="100"/>
<line x1="975" y1="100" x2="975" y2="100"/>
<line x1="975" y1="100" x2="975" y2="100"/>
<line x1="975" y1="100" x2="975" y2="100"/>
<line x1="976" y1="103" x2="975" y2="100"/>
<line x1="975" y1="100" x2="975" y2="100"/>
<line x1="973" y1="96" x2="973" y2="96"/>
<line x1="973" y1="96" x2="973" y2="96"/>
<line x1="973" y1="96" x2="975" y2="100"/>
<line x1="973" y1="96" x2="973" y2="96"/>
<line x1="971" y1="92" x2="971" y2="92"/>
<line x1="971" y1="92" x2="971" y2="92"/>
<line x1="972" y1="92" x2="973" y2="96"/>
<line x1="972" y1="92" x2="971" y2="92"/>
<line x1="970" y1="87" x2="970" y2="87"/>
<line x1="970" y1="87" x2="971" y2="92"/>
<line x1="970" y1="87" x2="970" y2="87"/>
<line x1="968" y1="83" x2="968" y2="83"/>
<line x1="968" y1="83" x2="970" y2="87"/>
<line x1="968" y1="83" x2="968" y2="83"/>
<line x1="968" y1="83" x2="966" y2="79"/>
<line x1="968" y1="83" x2="968" y2="83"/>
<line x1="968" y1="83" x2="968" y2="83"/>
<line x1="968" y1="83" x2="968" y2="83"/>
<line x1="966" y1="79" x2="964" y2="74"/>
<line x1="966" y1="79" x2="966" y2="79"/>
<line x1="966" y1="79" x2="966" y2="79"/>
<line x1="964" y1="74" x2="963" y2="70"/>
<line x1="964" y1="74" x2="964" y2="74"/>
<line x1="964" y1="74" x2="964" y2="74"/>
<line x1="964" y1="74" x2="964" y2="74"/>
<line x1="963" y1="70" x2="961" y2="66"/>
<line x1="963" y1="70" x2="963" y2="70"/>
<line x1="963" y1="70" x2="963" y2="70"/>
<line x1="959" y1="62" x2="961" y2="66"/>
<line x1="961" y1="66" x2="961" y2="66"/>
<line x1="961" y1="66" x2="961" y2="66"/>
<line x1="961" y1="66" x2="961" y2="66"/>
<line x1="961" y1="66" x2="961" y2="66"/>
<line x1="961" y1="66" x2="961" y2="66"/>
<line x1="961" y1="66" x2="961" y2="66"/>
<line x1="328" y1="365" x2="308" y2="373"/>
<line x1="308" y1="373" x2="287" y2="381"/>
</g></svg>