<svg xmlns="http://www.w3.org/2000/svg" width="1400" height="900" viewBox="0 0 1400 900">
<rect x="0" y="0" width="100%" height="100%" fill="white"/>
<g stroke="#111" stroke-width="1.2" fill="none" stroke-linecap="round">
<line x1="551" y1="625" x2="551" y2="625"/>
<line x1="551" y1="625" x2="550" y2="625"/>
<line x1="553" y1="619" x2="553" y2="619"/>
<line x1="553" y1="619" x2="551" y2="625"/>
<line x1="554" y1="613" x2="554" y2="613"/>
<line x1="554" y1="613" x2="553" y2="619"/>
<line x1="556" y1="608" x2="556" y2="608"/>
<line x1="556" y1="608" x2="554" y2="613"/>
<line x1="557" y1="602" x2="557" y2="602"/>
<line x1="557" y1="602" x2="556" y2="608"/>
<line x1="557" y1="596" x2="557" y2="596"/>
<line x1="557" y1="596" x2="557" y2="602"/>
<line x1="558" y1="591" x2="558" y2="591"/>
<line x1="558" y1="591" x2="557" y2="596"/>
<line x1="557" y1="585" x2="557" y2="585"/>
<line x1="557" y1="585" x2="558" y2="591"/>
<line x1="557" y1="579" x2="557" y2="579"/>
<line x1="557" y1="579" x2="557" y2="585"/>
<line x1="556" y1="574" x2="556" y2="574"/>
<line x1="556" y1="574" x2="557" y2="579"/>
<line x1="554" y1="568" x2="554" y2="568"/>
<line x1="554" y1="568" x2="556" y2="574"/>
<line x1="553" y1="562" x2="553" y2="562"/>
<line x1="553" y1="562" x2="554" y2="568"/>
<line x1="550" y1="557" x2="550" y2="557"/>
<line x1="550" y1="557" x2="553" y2="562"/>
<line x1="550" y1="557" x2="550" y2="557"/>
<line x1="550" y1="551" x2="550" y2="557"/>
<line x1="550" y1="544" x2="550" y2="551"/>
<line x1="550" y1="74" x2="550" y2="40"/>
<line x1="550" y1="74" x2="550" y2="543"/>
<line x1="550" y1="544" x2="550" y2="543"/>
<line x1="550" y1="630" x2="550" y2="625"/>
<line x1="550" y1="636" x2="550" y2="630"/>
<line x1="550" y1="641" x2="550" y2="636"/>
<line x1="550" y1="646" x2="550" y2="641"/>
<line x1="550" y1="750" x2="550" y2="646"/>
<line x1="550" y1="850" x2="550" y2="796"/>
<line x1="550" y1="850" x2="550" y2="860"/>
<line x1="584" y1="850" x2="550" y2="860"/>
<line x1="597" y1="846" x2="584" y2="850"/>
<line x1="615" y1="841" x2="597" y2="846"/>
<line x1="615" y1="840" x2="615" y2="841"/>
<line x1="615" y1="840" x2="615" y2="840"/>
<line x1="630" y1="835" x2="633" y2="834"/>
<line x1="624" y1="837" x2="630" y2="835"/>
<line x1="621" y1="838" x2="624" y2="837"/>
<line x1="617" y1="840" x2="621" y2="838"/>
<line x1="617" y1="840" x2="615" y2="840"/>
<line x1="638" y1="832" x2="640" y2="831"/>
<line x1="638" y1="832" x2="633" y2="834"/>
<line x1="744" y1="772" x2="742" y2="774"/>
<line x1="744" y1="772" x2="744" y2="772"/>
<line x1="757" y1="762" x2="757" y2="762"/>
<line x1="757" y1="762" x2="750" y2="767"/>
<line x1="750" y1="767" x2="744" y2="772"/>
<line x1="744" y1="772" x2="744" y2="772"/>
<line x1="757" y1="762" x2="757" y2="762"/>
<line x1="769" y1="750" x2="769" y2="751"/>
<line x1="769" y1="751" x2="763" y2="757"/>
<line x1="763" y1="757" x2="757" y2="762"/>
<line x1="769" y1="750" x2="770" y2="750"/>
<line x1="781" y1="739" x2="780" y2="740"/>
<line x1="780" y1="740" x2="774" y2="746"/>
<line x1="774" y1="746" x2="770" y2="750"/>
<line x1="781" y1="739" x2="781" y2="739"/>
<line x1="792" y1="727" x2="790" y2="729"/>
<line x1="790" y1="729" x2="784" y2="735"/>
<line x1="784" y1="735" x2="781" y2="739"/>
<line x1="792" y1="727" x2="792" y2="726"/>
<line x1="802" y1="714" x2="799" y2="718"/>
<line x1="799" y1="718" x2="794" y2="724"/>
<line x1="794" y1="724" x2="792" y2="726"/>
<line x1="802" y1="714" x2="802" y2="714"/>
<line x1="811" y1="701" x2="810" y2="702"/>
<line x1="810" y1="702" x2="807" y2="707"/>
<line x1="807" y1="707" x2="803" y2="713"/>
<line x1="803" y1="713" x2="802" y2="714"/>
<line x1="811" y1="701" x2="811" y2="701"/>
<line x1="817" y1="692" x2="819" y2="688"/>
<line x1="817" y1="692" x2="814" y2="696"/>
<line x1="814" y1="696" x2="811" y2="701"/>
<line x1="817" y1="692" x2="817" y2="692"/>
<line x1="826" y1="675" x2="826" y2="675"/>
<line x1="823" y1="681" x2="826" y2="675"/>
<line x1="821" y1="685" x2="823" y2="681"/>
<line x1="819" y1="688" x2="821" y2="685"/>
<line x1="819" y1="688" x2="819" y2="688"/>
<line x1="832" y1="662" x2="832" y2="661"/>
<line x1="831" y1="665" x2="832" y2="662"/>
<line x1="828" y1="671" x2="831" y2="665"/>
<line x1="826" y1="675" x2="828" y2="671"/>
<line x1="826" y1="675" x2="826" y2="675"/>
<line x1="836" y1="652" x2="838" y2="647"/>
<line x1="835" y1="656" x2="836" y2="652"/>
<line x1="832" y1="661" x2="835" y2="656"/>
<line x1="832" y1="661" x2="832" y2="661"/>
<line x1="841" y1="636" x2="842" y2="633"/>
<line x1="841" y1="638" x2="841" y2="636"/>
<line x1="839" y1="643" x2="841" y2="638"/>
<line x1="838" y1="646" x2="839" y2="643"/>
<line x1="838" y1="647" x2="838" y2="646"/>
<line x1="838" y1="647" x2="838" y2="647"/>
<line x1="845" y1="621" x2="846" y2="619"/>
<line x1="845" y1="623" x2="845" y2="621"/>
<line x1="843" y1="628" x2="845" y2="623"/>
<line x1="843" y1="630" x2="843" y2="628"/>
<line x1="842" y1="633" x2="843" y2="630"/>
<line x1="842" y1="633" x2="842" y2="633"/>
<line x1="848" y1="607" x2="848" y2="605"/>
<line x1="847" y1="610" x2="848" y2="607"/>
<line x1="847" y1="611" x2="847" y2="610"/>
<line x1="846" y1="615" x2="847" y2="611"/>
<line x1="846" y1="617" x2="846" y2="615"/>
<line x1="846" y1="619" x2="846" y2="617"/>
<line x1="846" y1="619" x2="846" y2="619"/>
<line x1="849" y1="594" x2="849" y2="591"/>
<line x1="849" y1="594" x2="849" y2="594"/>
<line x1="849" y1="595" x2="849" y2="594"/>
<line x1="849" y1="595" x2="849" y2="595"/>
<line x1="849" y1="596" x2="849" y2="595"/>
<line x1="849" y1="597" x2="849" y2="596"/>
<line x1="849" y1="598" x2="849" y2="597"/>
<line x1="849" y1="599" x2="849" y2="598"/>
<line x1="848" y1="601" x2="849" y2="599"/>
<line x1="848" y1="602" x2="848" y2="601"/>
<line x1="848" y1="605" x2="848" y2="602"/>
<line x1="848" y1="605" x2="848" y2="605"/>
<line x1="848" y1="605" x2="848" y2="605"/>
<line x1="849" y1="590" x2="850" y2="577"/>
<line x1="849" y1="590" x2="849" y2="591"/>
<line x1="850" y1="575" x2="849" y2="562"/>
<line x1="850" y1="575" x2="850" y2="577"/>
<line x1="849" y1="561" x2="848" y2="548"/>
<line x1="849" y1="561" x2="849" y2="562"/>
<line x1="847" y1="547" x2="845" y2="534"/>
<line x1="847" y1="547" x2="848" y2="548"/>
<line x1="845" y1="533" x2="842" y2="520"/>
<line x1="845" y1="533" x2="845" y2="534"/>
<line x1="841" y1="519" x2="837" y2="506"/>
<line x1="841" y1="519" x2="842" y2="520"/>
<line x1="837" y1="505" x2="832" y2="492"/>
<line x1="837" y1="505" x2="837" y2="506"/>
<line x1="831" y1="491" x2="825" y2="479"/>
<line x1="831" y1="491" x2="832" y2="492"/>
<line x1="824" y1="477" x2="814" y2="459"/>
<line x1="824" y1="477" x2="825" y2="479"/>
<line x1="743" y1="345" x2="550" y2="40"/>
<line x1="743" y1="345" x2="744" y2="348"/>
<line x1="744" y1="348" x2="746" y2="351"/>
<line x1="746" y1="351" x2="748" y2="354"/>
<line x1="748" y1="354" x2="814" y2="459"/>
<line x1="743" y1="773" x2="747" y2="768"/>
<line x1="743" y1="773" x2="743" y2="773"/>
<line x1="742" y1="774" x2="742" y2="774"/>
<line x1="742" y1="774" x2="743" y2="773"/>
<line x1="750" y1="764" x2="754" y2="759"/>
<line x1="750" y1="764" x2="750" y2="764"/>
<line x1="750" y1="764" x2="747" y2="768"/>
<line x1="757" y1="755" x2="759" y2="750"/>
<line x1="757" y1="755" x2="756" y2="755"/>
<line x1="756" y1="755" x2="754" y2="759"/>
<line x1="762" y1="745" x2="764" y2="741"/>
<line x1="762" y1="745" x2="762" y2="746"/>
<line x1="762" y1="746" x2="759" y2="750"/>
<line x1="766" y1="736" x2="768" y2="732"/>
<line x1="766" y1="736" x2="766" y2="736"/>
<line x1="766" y1="736" x2="764" y2="741"/>
<line x1="769" y1="726" x2="770" y2="723"/>
<line x1="769" y1="726" x2="769" y2="727"/>
<line x1="769" y1="727" x2="768" y2="732"/>
<line x1="771" y1="717" x2="772" y2="714"/>
<line x1="771" y1="717" x2="771" y2="718"/>
<line x1="771" y1="718" x2="770" y2="723"/>
<line x1="772" y1="708" x2="773" y2="705"/>
<line x1="772" y1="708" x2="772" y2="709"/>
<line x1="772" y1="709" x2="772" y2="714"/>
<line x1="772" y1="700" x2="772" y2="697"/>
<line x1="772" y1="700" x2="772" y2="700"/>
<line x1="772" y1="700" x2="773" y2="705"/>
<line x1="771" y1="691" x2="770" y2="689"/>
<line x1="771" y1="691" x2="771" y2="692"/>
<line x1="771" y1="692" x2="772" y2="697"/>
<line x1="769" y1="684" x2="768" y2="681"/>
<line x1="769" y1="684" x2="769" y2="685"/>
<line x1="769" y1="685" x2="770" y2="689"/>
<line x1="765" y1="676" x2="764" y2="674"/>
<line x1="765" y1="676" x2="766" y2="677"/>
<line x1="766" y1="677" x2="768" y2="681"/>
<line x1="761" y1="670" x2="759" y2="668"/>
<line x1="761" y1="670" x2="761" y2="671"/>
<line x1="761" y1="671" x2="764" y2="674"/>
<line x1="755" y1="664" x2="754" y2="662"/>
<line x1="755" y1="664" x2="756" y2="665"/>
<line x1="756" y1="665" x2="759" y2="668"/>
<line x1="749" y1="659" x2="747" y2="658"/>
<line x1="749" y1="659" x2="750" y2="660"/>
<line x1="750" y1="660" x2="754" y2="662"/>
<line x1="742" y1="655" x2="739" y2="653"/>
<line x1="742" y1="655" x2="743" y2="655"/>
<line x1="743" y1="655" x2="747" y2="658"/>
<line x1="733" y1="651" x2="731" y2="650"/>
<line x1="733" y1="651" x2="735" y2="652"/>
<line x1="735" y1="652" x2="739" y2="653"/>
<line x1="724" y1="648" x2="722" y2="648"/>
<line x1="724" y1="648" x2="726" y2="649"/>
<line x1="726" y1="649" x2="731" y2="650"/>
<line x1="715" y1="647" x2="713" y2="646"/>
<line x1="715" y1="647" x2="717" y2="647"/>
<line x1="717" y1="647" x2="722" y2="648"/>
<line x1="705" y1="646" x2="703" y2="646"/>
<line x1="705" y1="646" x2="708" y2="646"/>
<line x1="708" y1="646" x2="713" y2="646"/>
<line x1="695" y1="646" x2="692" y2="646"/>
<line x1="695" y1="646" x2="697" y2="646"/>
<line x1="697" y1="646" x2="703" y2="646"/>
<line x1="685" y1="647" x2="681" y2="647"/>
<line x1="685" y1="647" x2="687" y2="647"/>
<line x1="687" y1="647" x2="692" y2="646"/>
<line x1="674" y1="649" x2="670" y2="649"/>
<line x1="674" y1="649" x2="676" y2="648"/>
<line x1="676" y1="648" x2="681" y2="647"/>
<line x1="662" y1="652" x2="659" y2="652"/>
<line x1="662" y1="652" x2="665" y2="651"/>
<line x1="665" y1="651" x2="670" y2="649"/>
<line x1="651" y1="655" x2="648" y2="656"/>
<line x1="651" y1="655" x2="654" y2="654"/>
<line x1="659" y1="652" x2="654" y2="654"/>
<line x1="640" y1="660" x2="637" y2="661"/>
<line x1="640" y1="660" x2="643" y2="658"/>
<line x1="648" y1="656" x2="643" y2="658"/>
<line x1="629" y1="665" x2="627" y2="666"/>
<line x1="629" y1="665" x2="633" y2="663"/>
<line x1="637" y1="661" x2="633" y2="663"/>
<line x1="618" y1="671" x2="616" y2="672"/>
<line x1="618" y1="671" x2="622" y2="669"/>
<line x1="627" y1="666" x2="622" y2="669"/>
<line x1="608" y1="678" x2="606" y2="679"/>
<line x1="608" y1="678" x2="612" y2="675"/>
<line x1="616" y1="672" x2="612" y2="675"/>
<line x1="598" y1="685" x2="596" y2="686"/>
<line x1="598" y1="685" x2="602" y2="682"/>
<line x1="602" y1="682" x2="606" y2="679"/>
<line x1="589" y1="693" x2="588" y2="694"/>
<line x1="589" y1="693" x2="593" y2="689"/>
<line x1="596" y1="686" x2="593" y2="689"/>
<line x1="579" y1="702" x2="581" y2="701"/>
<line x1="581" y1="701" x2="585" y2="697"/>
<line x1="588" y1="694" x2="585" y2="697"/>
<line x1="575" y1="707" x2="572" y2="711"/>
<line x1="575" y1="707" x2="577" y2="705"/>
<line x1="579" y1="702" x2="577" y2="705"/>
<line x1="568" y1="716" x2="565" y2="720"/>
<line x1="568" y1="716" x2="570" y2="714"/>
<line x1="572" y1="711" x2="570" y2="714"/>
<line x1="562" y1="724" x2="560" y2="729"/>
<line x1="562" y1="724" x2="563" y2="723"/>
<line x1="565" y1="720" x2="563" y2="723"/>
<line x1="557" y1="733" x2="555" y2="738"/>
<line x1="557" y1="733" x2="558" y2="732"/>
<line x1="558" y1="732" x2="560" y2="729"/>
<line x1="553" y1="743" x2="551" y2="747"/>
<line x1="553" y1="743" x2="554" y2="741"/>
<line x1="555" y1="738" x2="554" y2="741"/>
<line x1="550" y1="750" x2="550" y2="750"/>
<line x1="550" y1="750" x2="551" y2="747"/>
<line x1="551" y1="797" x2="551" y2="798"/>
<line x1="551" y1="797" x2="550" y2="796"/>
<line x1="553" y1="801" x2="555" y2="805"/>
<line x1="553" y1="801" x2="552" y2="800"/>
<line x1="552" y1="800" x2="551" y2="798"/>
<line x1="557" y1="808" x2="560" y2="811"/>
<line x1="557" y1="808" x2="556" y2="807"/>
<line x1="556" y1="807" x2="555" y2="805"/>
<line x1="563" y1="814" x2="565" y2="817"/>
<line x1="563" y1="814" x2="561" y2="813"/>
<line x1="561" y1="813" x2="560" y2="811"/>
<line x1="569" y1="819" x2="572" y2="822"/>
<line x1="569" y1="819" x2="567" y2="818"/>
<line x1="567" y1="818" x2="565" y2="817"/>
<line x1="576" y1="824" x2="579" y2="826"/>
<line x1="576" y1="824" x2="574" y2="823"/>
<line x1="572" y1="822" x2="574" y2="823"/>
<line x1="585" y1="828" x2="582" y2="827"/>
<line x1="585" y1="828" x2="588" y2="829"/>
<line x1="579" y1="826" x2="582" y2="827"/>
<line x1="594" y1="831" x2="590" y2="830"/>
<line x1="594" y1="831" x2="596" y2="831"/>
<line x1="588" y1="829" x2="590" y2="830"/>
<line x1="604" y1="832" x2="599" y2="832"/>
<line x1="604" y1="832" x2="606" y2="833"/>
<line x1="596" y1="831" x2="599" y2="832"/>
<line x1="614" y1="833" x2="609" y2="833"/>
<line x1="614" y1="833" x2="616" y2="833"/>
<line x1="606" y1="833" x2="609" y2="833"/>
<line x1="625" y1="833" x2="619" y2="833"/>
<line x1="625" y1="833" x2="627" y2="833"/>
<line x1="616" y1="833" x2="619" y2="833"/>
<line x1="630" y1="833" x2="631" y2="833"/>
<line x1="637" y1="832" x2="631" y2="833"/>
<line x1="627" y1="833" x2="630" y2="833"/>
<line x1="637" y1="832" x2="637" y2="832"/>
<line x1="637" y1="832" x2="640" y2="831"/>
</g></svg>