<svg xmlns="http://www.w3.org/2000/svg" width="1400" height="900" viewBox="0 0 1400 900">
<rect x="0" y="0" width="100%" height="100%" fill="white"/>
<g stroke="#111" stroke-width="1.2" fill="none" stroke-linecap="round">
<line x1="509" y1="818" x2="509" y2="831"/>
<line x1="509" y1="818" x2="509" y2="807"/>
<line x1="509" y1="81" x2="509" y2="81"/>
<line x1="509" y1="81" x2="509" y2="81"/>
<line x1="509" y1="80" x2="509" y2="81"/>
<line x1="509" y1="80" x2="509" y2="80"/>
<line x1="509" y1="80" x2="509" y2="80"/>
<line x1="509" y1="80" x2="509" y2="80"/>
<line x1="509" y1="80" x2="509" y2="80"/>
<line x1="509" y1="80" x2="509" y2="80"/>
<line x1="509" y1="79" x2="509" y2="80"/>
<line x1="509" y1="79" x2="509" y2="79"/>
<line x1="509" y1="79" x2="509" y2="79"/>
<line x1="509" y1="78" x2="509" y2="79"/>
<line x1="509" y1="78" x2="509" y2="78"/>
<line x1="509" y1="77" x2="509" y2="78"/>
<line x1="509" y1="76" x2="509" y2="77"/>
<line x1="509" y1="75" x2="509" y2="76"/>
<line x1="509" y1="73" x2="509" y2="75"/>
<line x1="509" y1="71" x2="509" y2="73"/>
<line x1="509" y1="71" x2="509" y2="69"/>
<line x1="729" y1="831" x2="918" y2="831"/>
<line x1="729" y1="831" x2="509" y2="831"/>
<line x1="512" y1="69" x2="521" y2="69"/>
<line x1="512" y1="69" x2="509" y2="69"/>
<line x1="635" y1="69" x2="918" y2="69"/>
<line x1="635" y1="69" x2="534" y2="69"/>
<line x1="509" y1="81" x2="509" y2="81"/>
<line x1="509" y1="81" x2="509" y2="81"/>
<line x1="509" y1="81" x2="509" y2="81"/>
<line x1="533" y1="57" x2="534" y2="57"/>
<line x1="533" y1="57" x2="533" y2="57"/>
<line x1="533" y1="57" x2="533" y2="57"/>
<line x1="533" y1="57" x2="533" y2="57"/>
<line x1="533" y1="57" x2="533" y2="57"/>
<line x1="533" y1="57" x2="533" y2="57"/>
<line x1="533" y1="57" x2="533" y2="57"/>
<line x1="533" y1="57" x2="533" y2="57"/>
<line x1="533" y1="57" x2="533" y2="57"/>
<line x1="524" y1="66" x2="533" y2="57"/>
<line x1="522" y1="67" x2="524" y2="66"/>
<line x1="521" y1="69" x2="522" y2="67"/>
<line x1="521" y1="69" x2="521" y2="69"/>
<line x1="509" y1="807" x2="509" y2="807"/>
<line x1="509" y1="807" x2="509" y2="807"/>
<line x1="509" y1="186" x2="509" y2="81"/>
<line x1="509" y1="186" x2="509" y2="190"/>
<line x1="509" y1="190" x2="509" y2="190"/>
<line x1="509" y1="190" x2="509" y2="194"/>
<line x1="509" y1="194" x2="509" y2="194"/>
<line x1="509" y1="194" x2="509" y2="198"/>
<line x1="509" y1="198" x2="509" y2="198"/>
<line x1="509" y1="198" x2="509" y2="203"/>
<line x1="509" y1="203" x2="509" y2="203"/>
<line x1="509" y1="203" x2="509" y2="208"/>
<line x1="509" y1="208" x2="509" y2="208"/>
<line x1="509" y1="208" x2="509" y2="213"/>
<line x1="509" y1="213" x2="509" y2="213"/>
<line x1="509" y1="213" x2="509" y2="218"/>
<line x1="509" y1="218" x2="509" y2="218"/>
<line x1="509" y1="218" x2="509" y2="225"/>
<line x1="509" y1="225" x2="509" y2="225"/>
<line x1="509" y1="225" x2="509" y2="231"/>
<line x1="509" y1="231" x2="509" y2="232"/>
<line x1="509" y1="232" x2="509" y2="239"/>
<line x1="509" y1="239" x2="509" y2="239"/>
<line x1="509" y1="239" x2="509" y2="247"/>
<line x1="509" y1="247" x2="509" y2="247"/>
<line x1="509" y1="247" x2="509" y2="256"/>
<line x1="509" y1="256" x2="509" y2="257"/>
<line x1="509" y1="257" x2="509" y2="267"/>
<line x1="509" y1="267" x2="509" y2="267"/>
<line x1="509" y1="267" x2="509" y2="278"/>
<line x1="509" y1="278" x2="509" y2="278"/>
<line x1="509" y1="278" x2="509" y2="291"/>
<line x1="509" y1="291" x2="509" y2="292"/>
<line x1="509" y1="779" x2="509" y2="292"/>
<line x1="509" y1="779" x2="509" y2="779"/>
<line x1="509" y1="779" x2="509" y2="779"/>
<line x1="509" y1="779" x2="509" y2="780"/>
<line x1="509" y1="780" x2="509" y2="780"/>
<line x1="509" y1="780" x2="509" y2="781"/>
<line x1="509" y1="781" x2="509" y2="781"/>
<line x1="509" y1="781" x2="509" y2="782"/>
<line x1="509" y1="782" x2="509" y2="782"/>
<line x1="509" y1="782" x2="509" y2="783"/>
<line x1="509" y1="783" x2="509" y2="783"/>
<line x1="509" y1="783" x2="509" y2="785"/>
<line x1="509" y1="785" x2="509" y2="785"/>
<line x1="509" y1="785" x2="509" y2="787"/>
<line x1="509" y1="787" x2="509" y2="787"/>
<line x1="509" y1="787" x2="509" y2="790"/>
<line x1="509" y1="790" x2="509" y2="790"/>
<line x1="509" y1="790" x2="509" y2="795"/>
<line x1="509" y1="795" x2="509" y2="802"/>
<line x1="509" y1="802" x2="509" y2="802"/>
<line x1="509" y1="802" x2="509" y2="807"/>
<line x1="509" y1="795" x2="509" y2="795"/>
<line x1="534" y1="69" x2="534" y2="69"/>
<line x1="534" y1="67" x2="534" y2="69"/>
<line x1="534" y1="66" x2="534" y2="67"/>
<line x1="534" y1="65" x2="534" y2="66"/>
<line x1="534" y1="63" x2="534" y2="65"/>
<line x1="534" y1="62" x2="534" y2="63"/>
<line x1="534" y1="61" x2="534" y2="62"/>
<line x1="534" y1="59" x2="534" y2="61"/>
<line x1="534" y1="58" x2="534" y2="59"/>
<line x1="534" y1="57" x2="534" y2="58"/>
<line x1="534" y1="57" x2="534" y2="57"/>
<line x1="534" y1="57" x2="534" y2="57"/>
<line x1="534" y1="57" x2="534" y2="57"/>
<line x1="534" y1="57" x2="534" y2="57"/>
<line x1="534" y1="57" x2="534" y2="57"/>
<line x1="534" y1="57" x2="534" y2="57"/>
<line x1="534" y1="57" x2="534" y2="57"/>
<line x1="534" y1="57" x2="534" y2="57"/>
<line x1="482" y1="548" x2="482" y2="429"/>
<line x1="482" y1="548" x2="482" y2="548"/>
<line x1="482" y1="548" x2="482" y2="552"/>
<line x1="482" y1="552" x2="482" y2="552"/>
<line x1="482" y1="552" x2="482" y2="556"/>
<line x1="482" y1="556" x2="482" y2="556"/>
<line x1="482" y1="556" x2="482" y2="560"/>
<line x1="482" y1="560" x2="482" y2="561"/>
<line x1="482" y1="561" x2="482" y2="565"/>
<line x1="482" y1="565" x2="482" y2="565"/>
<line x1="482" y1="565" x2="482" y2="570"/>
<line x1="482" y1="570" x2="482" y2="570"/>
<line x1="482" y1="570" x2="482" y2="575"/>
<line x1="482" y1="575" x2="482" y2="575"/>
<line x1="482" y1="575" x2="482" y2="581"/>
<line x1="482" y1="581" x2="482" y2="581"/>
<line x1="482" y1="581" x2="482" y2="587"/>
<line x1="482" y1="587" x2="482" y2="587"/>
<line x1="482" y1="587" x2="482" y2="593"/>
<line x1="482" y1="593" x2="482" y2="593"/>
<line x1="482" y1="593" x2="482" y2="600"/>
<line x1="482" y1="600" x2="482" y2="600"/>
<line x1="482" y1="429" x2="482" y2="273"/>
<line x1="482" y1="600" x2="482" y2="608"/>
<line x1="482" y1="608" x2="482" y2="608"/>
<line x1="482" y1="608" x2="482" y2="616"/>
<line x1="482" y1="616" x2="482" y2="617"/>
<line x1="482" y1="617" x2="482" y2="626"/>
<line x1="482" y1="626" x2="482" y2="626"/>
<line x1="482" y1="273" x2="482" y2="268"/>
<line x1="482" y1="268" x2="482" y2="263"/>
<line x1="482" y1="626" x2="482" y2="636"/>
<line x1="482" y1="636" x2="482" y2="636"/>
<line x1="482" y1="263" x2="482" y2="257"/>
<line x1="482" y1="257" x2="482" y2="251"/>
<line x1="482" y1="636" x2="482" y2="647"/>
<line x1="482" y1="647" x2="482" y2="648"/>
<line x1="482" y1="251" x2="482" y2="244"/>
<line x1="482" y1="648" x2="482" y2="660"/>
<line x1="482" y1="660" x2="482" y2="661"/>
<line x1="482" y1="244" x2="482" y2="237"/>
<line x1="482" y1="237" x2="482" y2="229"/>
<line x1="482" y1="661" x2="482" y2="675"/>
<line x1="482" y1="675" x2="482" y2="675"/>
<line x1="482" y1="229" x2="482" y2="221"/>
<line x1="482" y1="675" x2="482" y2="691"/>
<line x1="482" y1="691" x2="482" y2="692"/>
<line x1="482" y1="221" x2="482" y2="211"/>
<line x1="482" y1="211" x2="482" y2="201"/>
<line x1="482" y1="692" x2="482" y2="710"/>
<line x1="482" y1="710" x2="482" y2="711"/>
<line x1="482" y1="201" x2="482" y2="190"/>
<line x1="482" y1="190" x2="482" y2="178"/>
<line x1="482" y1="711" x2="482" y2="732"/>
<line x1="482" y1="732" x2="482" y2="733"/>
<line x1="482" y1="178" x2="482" y2="164"/>
<line x1="482" y1="733" x2="482" y2="758"/>
<line x1="482" y1="758" x2="482" y2="759"/>
<line x1="482" y1="164" x2="482" y2="149"/>
<line x1="482" y1="149" x2="482" y2="132"/>
<line x1="482" y1="759" x2="482" y2="789"/>
<line x1="482" y1="851" x2="482" y2="851"/>
<line x1="482" y1="132" x2="482" y2="113"/>
<line x1="482" y1="851" x2="482" y2="856"/>
<line x1="482" y1="856" x2="482" y2="856"/>
<line x1="482" y1="113" x2="482" y2="91"/>
<line x1="482" y1="91" x2="482" y2="66"/>
<line x1="482" y1="856" x2="482" y2="860"/>
<line x1="482" y1="66" x2="482" y2="40"/>
<line x1="482" y1="851" x2="482" y2="789"/>
<line x1="918" y1="44" x2="918" y2="40"/>
<line x1="918" y1="69" x2="918" y2="44"/>
<line x1="918" y1="840" x2="918" y2="839"/>
<line x1="918" y1="839" x2="918" y2="839"/>
<line x1="918" y1="839" x2="918" y2="836"/>
<line x1="918" y1="836" x2="918" y2="836"/>
<line x1="918" y1="836" x2="918" y2="831"/>
<line x1="918" y1="840" x2="918" y2="843"/>
<line x1="918" y1="859" x2="918" y2="860"/>
<line x1="918" y1="859" x2="918" y2="850"/>
<line x1="610" y1="860" x2="918" y2="860"/>
<line x1="610" y1="860" x2="482" y2="860"/>
<line x1="870" y1="40" x2="918" y2="40"/>
<line x1="870" y1="40" x2="482" y2="40"/>
<line x1="902" y1="68" x2="902" y2="68"/>
<line x1="902" y1="68" x2="903" y2="69"/>
<line x1="901" y1="68" x2="901" y2="68"/>
<line x1="901" y1="68" x2="902" y2="68"/>
<line x1="900" y1="68" x2="900" y2="68"/>
<line x1="900" y1="68" x2="901" y2="68"/>
<line x1="898" y1="67" x2="898" y2="67"/>
<line x1="898" y1="67" x2="900" y2="68"/>
<line x1="897" y1="66" x2="897" y2="66"/>
<line x1="897" y1="66" x2="898" y2="67"/>
<line x1="896" y1="66" x2="896" y2="66"/>
<line x1="896" y1="66" x2="897" y2="66"/>
<line x1="895" y1="65" x2="895" y2="65"/>
<line x1="895" y1="65" x2="896" y2="66"/>
<line x1="894" y1="64" x2="894" y2="64"/>
<line x1="894" y1="64" x2="895" y2="65"/>
<line x1="894" y1="63" x2="894" y2="63"/>
<line x1="894" y1="63" x2="894" y2="64"/>
<line x1="893" y1="62" x2="893" y2="62"/>
<line x1="893" y1="62" x2="894" y2="63"/>
<line x1="892" y1="60" x2="892" y2="60"/>
<line x1="892" y1="60" x2="893" y2="62"/>
<line x1="892" y1="59" x2="892" y2="59"/>
<line x1="892" y1="59" x2="892" y2="60"/>
<line x1="892" y1="58" x2="892" y2="58"/>
<line x1="892" y1="58" x2="892" y2="59"/>
<line x1="891" y1="57" x2="891" y2="57"/>
<line x1="891" y1="57" x2="892" y2="58"/>
<line x1="891" y1="55" x2="891" y2="55"/>
<line x1="891" y1="55" x2="891" y2="57"/>
<line x1="891" y1="54" x2="891" y2="54"/>
<line x1="891" y1="54" x2="891" y2="55"/>
<line x1="892" y1="53" x2="892" y2="53"/>
<line x1="892" y1="53" x2="891" y2="54"/>
<line x1="892" y1="51" x2="892" y2="51"/>
<line x1="892" y1="51" x2="892" y2="53"/>
<line x1="892" y1="50" x2="892" y2="50"/>
<line x1="892" y1="50" x2="892" y2="51"/>
<line x1="893" y1="49" x2="893" y2="49"/>
<line x1="893" y1="49" x2="892" y2="50"/>
<line x1="894" y1="48" x2="894" y2="48"/>
<line x1="894" y1="48" x2="893" y2="49"/>
<line x1="894" y1="47" x2="894" y2="47"/>
<line x1="894" y1="47" x2="894" y2="48"/>
<line x1="895" y1="46" x2="895" y2="46"/>
<line x1="895" y1="46" x2="894" y2="47"/>
<line x1="896" y1="45" x2="896" y2="45"/>
<line x1="896" y1="45" x2="895" y2="46"/>
<line x1="897" y1="44" x2="897" y2="44"/>
<line x1="897" y1="44" x2="896" y2="45"/>
<line x1="898" y1="44" x2="898" y2="44"/>
<line x1="898" y1="44" x2="897" y2="44"/>
<line x1="900" y1="43" x2="900" y2="43"/>
<line x1="900" y1="43" x2="898" y2="44"/>
<line x1="901" y1="43" x2="901" y2="43"/>
<line x1="901" y1="43" x2="900" y2="43"/>
<line x1="902" y1="42" x2="902" y2="42"/>
<line x1="902" y1="42" x2="901" y2="43"/>
<line x1="903" y1="42" x2="903" y2="42"/>
<line x1="903" y1="42" x2="902" y2="42"/>
<line x1="905" y1="42" x2="905" y2="42"/>
<line x1="905" y1="42" x2="903" y2="42"/>
<line x1="906" y1="42" x2="906" y2="42"/>
<line x1="905" y1="42" x2="906" y2="42"/>
<line x1="907" y1="42" x2="907" y2="42"/>
<line x1="906" y1="42" x2="907" y2="42"/>
<line x1="909" y1="43" x2="909" y2="43"/>
<line x1="907" y1="42" x2="909" y2="43"/>
<line x1="910" y1="43" x2="910" y2="43"/>
<line x1="909" y1="43" x2="910" y2="43"/>
<line x1="911" y1="44" x2="911" y2="44"/>
<line x1="910" y1="43" x2="911" y2="44"/>
<line x1="912" y1="44" x2="912" y2="44"/>
<line x1="911" y1="44" x2="912" y2="44"/>
<line x1="913" y1="45" x2="913" y2="45"/>
<line x1="912" y1="44" x2="913" y2="45"/>
<line x1="914" y1="46" x2="914" y2="46"/>
<line x1="913" y1="45" x2="914" y2="46"/>
<line x1="915" y1="47" x2="915" y2="47"/>
<line x1="914" y1="46" x2="915" y2="47"/>
<line x1="916" y1="48" x2="916" y2="48"/>
<line x1="915" y1="47" x2="916" y2="48"/>
<line x1="916" y1="49" x2="916" y2="49"/>
<line x1="916" y1="48" x2="916" y2="49"/>
<line x1="917" y1="50" x2="917" y2="50"/>
<line x1="916" y1="49" x2="917" y2="50"/>
<line x1="917" y1="51" x2="917" y2="51"/>
<line x1="917" y1="50" x2="917" y2="51"/>
<line x1="918" y1="53" x2="918" y2="53"/>
<line x1="917" y1="51" x2="918" y2="53"/>
<line x1="918" y1="54" x2="918" y2="54"/>
<line x1="918" y1="53" x2="918" y2="54"/>
<line x1="918" y1="55" x2="918" y2="55"/>
<line x1="918" y1="54" x2="918" y2="55"/>
<line x1="918" y1="57" x2="918" y2="57"/>
<line x1="918" y1="55" x2="918" y2="57"/>
<line x1="918" y1="58" x2="918" y2="58"/>
<line x1="918" y1="57" x2="918" y2="58"/>
<line x1="917" y1="59" x2="917" y2="59"/>
<line x1="918" y1="58" x2="917" y2="59"/>
<line x1="917" y1="60" x2="917" y2="60"/>
<line x1="917" y1="59" x2="917" y2="60"/>
<line x1="916" y1="62" x2="916" y2="62"/>
<line x1="917" y1="60" x2="916" y2="62"/>
<line x1="916" y1="63" x2="916" y2="63"/>
<line x1="916" y1="62" x2="916" y2="63"/>
<line x1="915" y1="64" x2="915" y2="64"/>
<line x1="916" y1="63" x2="915" y2="64"/>
<line x1="914" y1="65" x2="914" y2="65"/>
<line x1="915" y1="64" x2="914" y2="65"/>
<line x1="913" y1="66" x2="913" y2="66"/>
<line x1="914" y1="65" x2="913" y2="66"/>
<line x1="912" y1="66" x2="912" y2="66"/>
<line x1="913" y1="66" x2="912" y2="66"/>
<line x1="911" y1="67" x2="911" y2="67"/>
<line x1="912" y1="66" x2="911" y2="67"/>
<line x1="910" y1="68" x2="910" y2="68"/>
<line x1="911" y1="67" x2="910" y2="68"/>
<line x1="909" y1="68" x2="909" y2="68"/>
<line x1="910" y1="68" x2="909" y2="68"/>
<line x1="907" y1="68" x2="907" y2="68"/>
<line x1="909" y1="68" x2="907" y2="68"/>
<line x1="906" y1="69" x2="906" y2="69"/>
<line x1="907" y1="68" x2="906" y2="69"/>
<line x1="905" y1="69" x2="905" y2="69"/>
<line x1="906" y1="69" x2="905" y2="69"/>
<line x1="903" y1="69" x2="903" y2="69"/>
<line x1="903" y1="69" x2="905" y2="69"/>
<line x1="904" y1="860" x2="904" y2="860"/>
<line x1="904" y1="860" x2="903" y2="860"/>
<line x1="904" y1="860" x2="904" y2="860"/>
<line x1="904" y1="860" x2="904" y2="860"/>
<line x1="902" y1="859" x2="901" y2="859"/>
<line x1="902" y1="860" x2="903" y2="860"/>
<line x1="902" y1="860" x2="902" y2="859"/>
<line x1="901" y1="859" x2="900" y2="859"/>
<line x1="901" y1="859" x2="901" y2="859"/>
<line x1="900" y1="859" x2="899" y2="858"/>
<line x1="900" y1="859" x2="900" y2="859"/>
<line x1="899" y1="858" x2="898" y2="858"/>
<line x1="899" y1="858" x2="899" y2="858"/>
<line x1="898" y1="857" x2="897" y2="857"/>
<line x1="898" y1="857" x2="898" y2="858"/>
<line x1="897" y1="857" x2="896" y2="856"/>
<line x1="897" y1="857" x2="897" y2="857"/>
<line x1="896" y1="856" x2="895" y2="855"/>
<line x1="896" y1="856" x2="896" y2="856"/>
<line x1="895" y1="855" x2="894" y2="854"/>
<line x1="895" y1="855" x2="895" y2="855"/>
<line x1="894" y1="854" x2="894" y2="853"/>
<line x1="894" y1="854" x2="894" y2="854"/>
<line x1="893" y1="852" x2="893" y2="852"/>
<line x1="893" y1="852" x2="894" y2="853"/>
<line x1="893" y1="851" x2="893" y2="850"/>
<line x1="893" y1="851" x2="893" y2="852"/>
<line x1="892" y1="850" x2="892" y2="849"/>
<line x1="892" y1="850" x2="893" y2="850"/>
<line x1="892" y1="849" x2="892" y2="848"/>
<line x1="892" y1="849" x2="892" y2="849"/>
<line x1="892" y1="847" x2="892" y2="847"/>
<line x1="892" y1="847" x2="892" y2="848"/>
<line x1="892" y1="846" x2="892" y2="845"/>
<line x1="892" y1="846" x2="892" y2="847"/>
<line x1="892" y1="845" x2="892" y2="844"/>
<line x1="892" y1="845" x2="892" y2="845"/>
<line x1="892" y1="843" x2="893" y2="843"/>
<line x1="892" y1="843" x2="892" y2="844"/>
<line x1="893" y1="842" x2="893" y2="841"/>
<line x1="893" y1="842" x2="893" y2="843"/>
<line x1="893" y1="841" x2="894" y2="840"/>
<line x1="893" y1="841" x2="893" y2="841"/>
<line x1="894" y1="840" x2="894" y2="839"/>
<line x1="894" y1="840" x2="894" y2="840"/>
<line x1="895" y1="839" x2="895" y2="838"/>
<line x1="895" y1="839" x2="894" y2="839"/>
<line x1="895" y1="838" x2="896" y2="837"/>
<line x1="895" y1="838" x2="895" y2="838"/>
<line x1="896" y1="837" x2="897" y2="836"/>
<line x1="896" y1="837" x2="896" y2="837"/>
<line x1="897" y1="836" x2="898" y2="835"/>
<line x1="897" y1="836" x2="897" y2="836"/>
<line x1="898" y1="835" x2="899" y2="835"/>
<line x1="898" y1="835" x2="898" y2="835"/>
<line x1="899" y1="835" x2="900" y2="834"/>
<line x1="899" y1="835" x2="899" y2="835"/>
<line x1="901" y1="834" x2="901" y2="834"/>
<line x1="901" y1="834" x2="900" y2="834"/>
<line x1="902" y1="834" x2="903" y2="833"/>
<line x1="902" y1="834" x2="901" y2="834"/>
<line x1="903" y1="833" x2="904" y2="833"/>
<line x1="903" y1="833" x2="903" y2="833"/>
<line x1="904" y1="833" x2="905" y2="833"/>
<line x1="904" y1="833" x2="904" y2="833"/>
<line x1="906" y1="833" x2="907" y2="833"/>
<line x1="905" y1="833" x2="906" y2="833"/>
<line x1="907" y1="833" x2="908" y2="833"/>
<line x1="907" y1="833" x2="907" y2="833"/>
<line x1="908" y1="834" x2="909" y2="834"/>
<line x1="908" y1="833" x2="908" y2="834"/>
<line x1="910" y1="834" x2="910" y2="834"/>
<line x1="909" y1="834" x2="910" y2="834"/>
<line x1="911" y1="834" x2="912" y2="835"/>
<line x1="910" y1="834" x2="911" y2="834"/>
<line x1="912" y1="835" x2="913" y2="835"/>
<line x1="912" y1="835" x2="912" y2="835"/>
<line x1="913" y1="836" x2="914" y2="836"/>
<line x1="913" y1="835" x2="913" y2="836"/>
<line x1="914" y1="837" x2="915" y2="837"/>
<line x1="914" y1="836" x2="914" y2="837"/>
<line x1="915" y1="837" x2="916" y2="838"/>
<line x1="915" y1="837" x2="915" y2="837"/>
<line x1="916" y1="838" x2="916" y2="839"/>
<line x1="916" y1="838" x2="916" y2="838"/>
<line x1="917" y1="840" x2="917" y2="840"/>
<line x1="916" y1="839" x2="917" y2="840"/>
<line x1="917" y1="841" x2="918" y2="841"/>
<line x1="917" y1="840" x2="917" y2="841"/>
<line x1="918" y1="842" x2="918" y2="843"/>
<line x1="918" y1="841" x2="918" y2="842"/>
<line x1="918" y1="843" x2="918" y2="843"/>
<line x1="918" y1="843" x2="918" y2="843"/>
<line x1="918" y1="850" x2="918" y2="850"/>
<line x1="918" y1="850" x2="918" y2="850"/>
<line x1="918" y1="851" x2="918" y2="852"/>
<line x1="918" y1="850" x2="918" y2="851"/>
<line x1="917" y1="852" x2="917" y2="853"/>
<line x1="918" y1="852" x2="917" y2="852"/>
<line x1="917" y1="853" x2="916" y2="854"/>
<line x1="917" y1="853" x2="917" y2="853"/>
<line x1="916" y1="854" x2="916" y2="855"/>
<line x1="916" y1="854" x2="916" y2="854"/>
<line x1="915" y1="855" x2="915" y2="856"/>
<line x1="916" y1="855" x2="915" y2="855"/>
<line x1="914" y1="856" x2="914" y2="857"/>
<line x1="915" y1="856" x2="914" y2="856"/>
<line x1="913" y1="857" x2="913" y2="858"/>
<line x1="914" y1="857" x2="913" y2="857"/>
<line x1="912" y1="858" x2="912" y2="858"/>
<line x1="913" y1="858" x2="912" y2="858"/>
<line x1="911" y1="858" x2="910" y2="859"/>
<line x1="912" y1="858" x2="911" y2="858"/>
<line x1="910" y1="859" x2="909" y2="859"/>
<line x1="910" y1="859" x2="910" y2="859"/>
<line x1="909" y1="859" x2="909" y2="859"/>
<line x1="909" y1="859" x2="908" y2="860"/>
<line x1="909" y1="859" x2="909" y2="859"/>
<line x1="907" y1="860" x2="907" y2="860"/>
<line x1="907" y1="860" x2="907" y2="860"/>
<line x1="907" y1="860" x2="907" y2="860"/>
<line x1="908" y1="860" x2="908" y2="860"/>
<line x1="907" y1="860" x2="908" y2="860"/>
<line x1="905" y1="860" x2="905" y2="860"/>
<line x1="905" y1="860" x2="906" y2="860"/>
<line x1="907" y1="860" x2="906" y2="860"/>
<line x1="906" y1="860" x2="906" y2="860"/>
<line x1="905" y1="860" x2="905" y2="860"/>
<line x1="905" y1="860" x2="904" y2="860"/>
<line x1="905" y1="860" x2="905" y2="860"/>
<line x1="905" y1="860" x2="905" y2="860"/>
</g></svg>