<svg xmlns="http://www.w3.org/2000/svg" width="1400" height="900" viewBox="0 0 1400 900">
<rect x="0" y="0" width="100%" height="100%" fill="white"/>
<g stroke="#111" stroke-width="1.2" fill="none" stroke-linecap="round">
<line x1="512" y1="815" x2="512" y2="831"/>
<line x1="512" y1="815" x2="512" y2="807"/>
<line x1="512" y1="70" x2="512" y2="69"/>
<line x1="512" y1="70" x2="512" y2="70"/>
<line x1="723" y1="831" x2="915" y2="831"/>
<line x1="723" y1="831" x2="512" y2="831"/>
<line x1="512" y1="69" x2="512" y2="69"/>
<line x1="512" y1="69" x2="512" y2="69"/>
<line x1="876" y1="69" x2="915" y2="69"/>
<line x1="876" y1="69" x2="536" y2="69"/>
<line x1="512" y1="70" x2="512" y2="70"/>
<line x1="512" y1="70" x2="512" y2="70"/>
<line x1="526" y1="56" x2="526" y2="56"/>
<line x1="526" y1="56" x2="518" y2="63"/>
<line x1="518" y1="63" x2="518" y2="63"/>
<line x1="518" y1="64" x2="518" y2="63"/>
<line x1="518" y1="64" x2="518" y2="64"/>
<line x1="517" y1="65" x2="518" y2="64"/>
<line x1="517" y1="65" x2="517" y2="65"/>
<line x1="516" y1="65" x2="517" y2="65"/>
<line x1="516" y1="66" x2="516" y2="65"/>
<line x1="516" y1="66" x2="516" y2="66"/>
<line x1="516" y1="66" x2="516" y2="66"/>
<line x1="515" y1="67" x2="516" y2="66"/>
<line x1="515" y1="67" x2="515" y2="67"/>
<line x1="515" y1="67" x2="515" y2="67"/>
<line x1="514" y1="67" x2="515" y2="67"/>
<line x1="514" y1="68" x2="514" y2="67"/>
<line x1="514" y1="68" x2="514" y2="68"/>
<line x1="514" y1="68" x2="514" y2="68"/>
<line x1="513" y1="68" x2="514" y2="68"/>
<line x1="513" y1="69" x2="513" y2="68"/>
<line x1="513" y1="69" x2="513" y2="69"/>
<line x1="513" y1="69" x2="513" y2="69"/>
<line x1="513" y1="69" x2="513" y2="69"/>
<line x1="513" y1="69" x2="513" y2="69"/>
<line x1="513" y1="69" x2="513" y2="69"/>
<line x1="512" y1="69" x2="513" y2="69"/>
<line x1="512" y1="69" x2="512" y2="69"/>
<line x1="512" y1="69" x2="512" y2="69"/>
<line x1="536" y1="46" x2="536" y2="46"/>
<line x1="536" y1="46" x2="536" y2="46"/>
<line x1="536" y1="46" x2="536" y2="46"/>
<line x1="536" y1="46" x2="536" y2="46"/>
<line x1="536" y1="46" x2="536" y2="46"/>
<line x1="536" y1="46" x2="536" y2="46"/>
<line x1="536" y1="46" x2="536" y2="46"/>
<line x1="536" y1="46" x2="536" y2="46"/>
<line x1="536" y1="46" x2="536" y2="46"/>
<line x1="531" y1="51" x2="536" y2="46"/>
<line x1="530" y1="52" x2="531" y2="51"/>
<line x1="530" y1="52" x2="530" y2="52"/>
<line x1="529" y1="53" x2="530" y2="52"/>
<line x1="528" y1="54" x2="529" y2="53"/>
<line x1="528" y1="54" x2="528" y2="54"/>
<line x1="527" y1="55" x2="528" y2="54"/>
<line x1="526" y1="56" x2="527" y2="55"/>
<line x1="526" y1="56" x2="526" y2="56"/>
<line x1="512" y1="807" x2="512" y2="807"/>
<line x1="512" y1="807" x2="512" y2="807"/>
<line x1="512" y1="581" x2="512" y2="70"/>
<line x1="512" y1="581" x2="512" y2="598"/>
<line x1="512" y1="598" x2="512" y2="598"/>
<line x1="512" y1="598" x2="512" y2="617"/>
<line x1="512" y1="617" x2="512" y2="617"/>
<line x1="512" y1="617" x2="512" y2="637"/>
<line x1="512" y1="637" x2="512" y2="637"/>
<line x1="512" y1="637" x2="512" y2="659"/>
<line x1="512" y1="659" x2="512" y2="659"/>
<line x1="512" y1="659" x2="512" y2="682"/>
<line x1="512" y1="682" x2="512" y2="683"/>
<line x1="512" y1="683" x2="512" y2="708"/>
<line x1="512" y1="708" x2="512" y2="708"/>
<line x1="512" y1="708" x2="512" y2="735"/>
<line x1="512" y1="735" x2="512" y2="736"/>
<line x1="512" y1="736" x2="512" y2="765"/>
<line x1="512" y1="765" x2="512" y2="766"/>
<line x1="512" y1="766" x2="512" y2="798"/>
<line x1="512" y1="798" x2="512" y2="799"/>
<line x1="512" y1="799" x2="512" y2="807"/>
<line x1="536" y1="69" x2="536" y2="69"/>
<line x1="536" y1="68" x2="536" y2="69"/>
<line x1="536" y1="67" x2="536" y2="68"/>
<line x1="536" y1="67" x2="536" y2="67"/>
<line x1="536" y1="66" x2="536" y2="67"/>
<line x1="536" y1="65" x2="536" y2="66"/>
<line x1="536" y1="65" x2="536" y2="65"/>
<line x1="536" y1="64" x2="536" y2="65"/>
<line x1="536" y1="63" x2="536" y2="64"/>
<line x1="536" y1="63" x2="536" y2="63"/>
<line x1="536" y1="62" x2="536" y2="63"/>
<line x1="536" y1="61" x2="536" y2="62"/>
<line x1="536" y1="60" x2="536" y2="61"/>
<line x1="536" y1="60" x2="536" y2="60"/>
<line x1="536" y1="59" x2="536" y2="60"/>
<line x1="536" y1="58" x2="536" y2="59"/>
<line x1="536" y1="58" x2="536" y2="58"/>
<line x1="536" y1="57" x2="536" y2="58"/>
<line x1="536" y1="56" x2="536" y2="57"/>
<line x1="536" y1="56" x2="536" y2="56"/>
<line x1="536" y1="55" x2="536" y2="56"/>
<line x1="536" y1="54" x2="536" y2="55"/>
<line x1="536" y1="54" x2="536" y2="54"/>
<line x1="536" y1="53" x2="536" y2="54"/>
<line x1="536" y1="52" x2="536" y2="53"/>
<line x1="536" y1="52" x2="536" y2="52"/>
<line x1="536" y1="51" x2="536" y2="52"/>
<line x1="536" y1="50" x2="536" y2="51"/>
<line x1="536" y1="50" x2="536" y2="50"/>
<line x1="536" y1="49" x2="536" y2="50"/>
<line x1="536" y1="48" x2="536" y2="49"/>
<line x1="536" y1="48" x2="536" y2="48"/>
<line x1="536" y1="47" x2="536" y2="48"/>
<line x1="536" y1="46" x2="536" y2="47"/>
<line x1="536" y1="46" x2="536" y2="46"/>
<line x1="536" y1="46" x2="536" y2="46"/>
<line x1="536" y1="46" x2="536" y2="46"/>
<line x1="536" y1="46" x2="536" y2="46"/>
<line x1="536" y1="46" x2="536" y2="46"/>
<line x1="536" y1="46" x2="536" y2="46"/>
<line x1="536" y1="46" x2="536" y2="46"/>
<line x1="536" y1="46" x2="536" y2="46"/>
<line x1="485" y1="737" x2="485" y2="412"/>
<line x1="485" y1="737" x2="485" y2="737"/>
<line x1="485" y1="737" x2="485" y2="747"/>
<line x1="485" y1="747" x2="485" y2="747"/>
<line x1="485" y1="747" x2="485" y2="758"/>
<line x1="485" y1="758" x2="485" y2="758"/>
<line x1="485" y1="758" x2="485" y2="769"/>
<line x1="485" y1="769" x2="485" y2="770"/>
<line x1="485" y1="770" x2="485" y2="782"/>
<line x1="485" y1="782" x2="485" y2="782"/>
<line x1="485" y1="782" x2="485" y2="795"/>
<line x1="485" y1="795" x2="485" y2="795"/>
<line x1="485" y1="795" x2="485" y2="809"/>
<line x1="485" y1="809" x2="485" y2="809"/>
<line x1="485" y1="809" x2="485" y2="824"/>
<line x1="485" y1="824" x2="485" y2="824"/>
<line x1="485" y1="824" x2="485" y2="840"/>
<line x1="485" y1="840" x2="485" y2="841"/>
<line x1="485" y1="841" x2="485" y2="858"/>
<line x1="485" y1="858" x2="485" y2="858"/>
<line x1="485" y1="43" x2="485" y2="40"/>
<line x1="485" y1="51" x2="485" y2="43"/>
<line x1="485" y1="858" x2="485" y2="860"/>
<line x1="485" y1="73" x2="485" y2="412"/>
<line x1="485" y1="59" x2="485" y2="51"/>
<line x1="485" y1="66" x2="485" y2="59"/>
<line x1="485" y1="73" x2="485" y2="66"/>
<line x1="915" y1="47" x2="915" y2="40"/>
<line x1="915" y1="47" x2="915" y2="63"/>
<line x1="915" y1="67" x2="915" y2="63"/>
<line x1="915" y1="67" x2="915" y2="69"/>
<line x1="915" y1="842" x2="915" y2="841"/>
<line x1="915" y1="841" x2="915" y2="841"/>
<line x1="915" y1="841" x2="915" y2="839"/>
<line x1="915" y1="839" x2="915" y2="839"/>
<line x1="915" y1="842" x2="915" y2="843"/>
<line x1="915" y1="839" x2="915" y2="831"/>
<line x1="915" y1="860" x2="915" y2="850"/>
<line x1="915" y1="860" x2="915" y2="860"/>
<line x1="915" y1="860" x2="915" y2="860"/>
<line x1="913" y1="860" x2="915" y2="860"/>
<line x1="550" y1="860" x2="530" y2="860"/>
<line x1="524" y1="860" x2="485" y2="860"/>
<line x1="524" y1="860" x2="530" y2="860"/>
<line x1="550" y1="860" x2="560" y2="860"/>
<line x1="560" y1="860" x2="913" y2="860"/>
<line x1="766" y1="40" x2="915" y2="40"/>
<line x1="766" y1="40" x2="485" y2="40"/>
<line x1="899" y1="69" x2="899" y2="69"/>
<line x1="899" y1="69" x2="900" y2="69"/>
<line x1="898" y1="68" x2="898" y2="68"/>
<line x1="898" y1="68" x2="899" y2="69"/>
<line x1="897" y1="68" x2="897" y2="68"/>
<line x1="897" y1="68" x2="898" y2="68"/>
<line x1="895" y1="67" x2="895" y2="67"/>
<line x1="895" y1="67" x2="897" y2="68"/>
<line x1="894" y1="67" x2="894" y2="67"/>
<line x1="894" y1="67" x2="895" y2="67"/>
<line x1="893" y1="66" x2="893" y2="66"/>
<line x1="893" y1="66" x2="894" y2="67"/>
<line x1="892" y1="65" x2="892" y2="65"/>
<line x1="892" y1="65" x2="893" y2="66"/>
<line x1="891" y1="64" x2="891" y2="64"/>
<line x1="891" y1="64" x2="892" y2="65"/>
<line x1="891" y1="63" x2="891" y2="63"/>
<line x1="891" y1="63" x2="891" y2="64"/>
<line x1="890" y1="62" x2="891" y2="63"/>
<line x1="912" y1="63" x2="912" y2="63"/>
<line x1="913" y1="62" x2="912" y2="63"/>
<line x1="912" y1="64" x2="912" y2="64"/>
<line x1="912" y1="63" x2="912" y2="64"/>
<line x1="911" y1="65" x2="911" y2="65"/>
<line x1="912" y1="64" x2="911" y2="65"/>
<line x1="910" y1="66" x2="910" y2="66"/>
<line x1="911" y1="65" x2="910" y2="66"/>
<line x1="909" y1="67" x2="909" y2="67"/>
<line x1="910" y1="66" x2="909" y2="67"/>
<line x1="908" y1="67" x2="908" y2="67"/>
<line x1="909" y1="67" x2="908" y2="67"/>
<line x1="907" y1="68" x2="907" y2="68"/>
<line x1="908" y1="67" x2="907" y2="68"/>
<line x1="905" y1="68" x2="905" y2="68"/>
<line x1="907" y1="68" x2="905" y2="68"/>
<line x1="904" y1="69" x2="904" y2="69"/>
<line x1="905" y1="68" x2="904" y2="69"/>
<line x1="903" y1="69" x2="903" y2="69"/>
<line x1="904" y1="69" x2="903" y2="69"/>
<line x1="902" y1="69" x2="902" y2="69"/>
<line x1="903" y1="69" x2="902" y2="69"/>
<line x1="900" y1="69" x2="900" y2="69"/>
<line x1="900" y1="69" x2="902" y2="69"/>
<line x1="890" y1="62" x2="890" y2="62"/>
<line x1="890" y1="62" x2="889" y2="61"/>
<line x1="890" y1="62" x2="890" y2="62"/>
<line x1="889" y1="61" x2="889" y2="59"/>
<line x1="889" y1="61" x2="889" y2="61"/>
<line x1="889" y1="59" x2="889" y2="58"/>
<line x1="889" y1="59" x2="889" y2="59"/>
<line x1="889" y1="58" x2="888" y2="57"/>
<line x1="889" y1="58" x2="889" y2="58"/>
<line x1="888" y1="57" x2="888" y2="55"/>
<line x1="888" y1="57" x2="888" y2="57"/>
<line x1="888" y1="55" x2="888" y2="54"/>
<line x1="888" y1="55" x2="888" y2="55"/>
<line x1="888" y1="54" x2="889" y2="53"/>
<line x1="888" y1="54" x2="888" y2="54"/>
<line x1="889" y1="53" x2="889" y2="51"/>
<line x1="889" y1="53" x2="889" y2="53"/>
<line x1="889" y1="51" x2="889" y2="50"/>
<line x1="889" y1="51" x2="889" y2="51"/>
<line x1="889" y1="50" x2="890" y2="49"/>
<line x1="889" y1="50" x2="889" y2="50"/>
<line x1="890" y1="49" x2="891" y2="48"/>
<line x1="890" y1="49" x2="890" y2="49"/>
<line x1="891" y1="48" x2="891" y2="47"/>
<line x1="891" y1="48" x2="891" y2="48"/>
<line x1="891" y1="47" x2="892" y2="46"/>
<line x1="891" y1="47" x2="891" y2="47"/>
<line x1="892" y1="46" x2="893" y2="45"/>
<line x1="892" y1="46" x2="892" y2="46"/>
<line x1="893" y1="45" x2="894" y2="44"/>
<line x1="893" y1="45" x2="893" y2="45"/>
<line x1="894" y1="44" x2="895" y2="43"/>
<line x1="894" y1="44" x2="894" y2="44"/>
<line x1="895" y1="43" x2="897" y2="43"/>
<line x1="895" y1="43" x2="895" y2="43"/>
<line x1="897" y1="43" x2="898" y2="42"/>
<line x1="897" y1="43" x2="897" y2="43"/>
<line x1="898" y1="42" x2="899" y2="42"/>
<line x1="898" y1="42" x2="898" y2="42"/>
<line x1="899" y1="42" x2="900" y2="42"/>
<line x1="899" y1="42" x2="899" y2="42"/>
<line x1="900" y1="42" x2="902" y2="42"/>
<line x1="900" y1="42" x2="900" y2="42"/>
<line x1="902" y1="42" x2="903" y2="42"/>
<line x1="902" y1="42" x2="902" y2="42"/>
<line x1="903" y1="42" x2="904" y2="42"/>
<line x1="903" y1="42" x2="903" y2="42"/>
<line x1="904" y1="42" x2="905" y2="42"/>
<line x1="904" y1="42" x2="904" y2="42"/>
<line x1="905" y1="42" x2="907" y2="43"/>
<line x1="905" y1="42" x2="905" y2="42"/>
<line x1="907" y1="43" x2="908" y2="43"/>
<line x1="907" y1="43" x2="907" y2="43"/>
<line x1="908" y1="44" x2="909" y2="44"/>
<line x1="908" y1="43" x2="908" y2="44"/>
<line x1="909" y1="44" x2="910" y2="45"/>
<line x1="909" y1="44" x2="909" y2="44"/>
<line x1="910" y1="45" x2="911" y2="46"/>
<line x1="910" y1="45" x2="910" y2="45"/>
<line x1="911" y1="46" x2="912" y2="47"/>
<line x1="911" y1="46" x2="911" y2="46"/>
<line x1="912" y1="47" x2="912" y2="48"/>
<line x1="912" y1="47" x2="912" y2="47"/>
<line x1="912" y1="48" x2="913" y2="49"/>
<line x1="912" y1="48" x2="912" y2="48"/>
<line x1="913" y1="49" x2="914" y2="50"/>
<line x1="913" y1="49" x2="913" y2="49"/>
<line x1="914" y1="50" x2="914" y2="51"/>
<line x1="914" y1="50" x2="914" y2="50"/>
<line x1="914" y1="52" x2="914" y2="53"/>
<line x1="914" y1="51" x2="914" y2="52"/>
<line x1="914" y1="53" x2="915" y2="54"/>
<line x1="914" y1="53" x2="914" y2="53"/>
<line x1="915" y1="54" x2="915" y2="55"/>
<line x1="915" y1="54" x2="915" y2="54"/>
<line x1="915" y1="55" x2="915" y2="57"/>
<line x1="915" y1="55" x2="915" y2="55"/>
<line x1="915" y1="57" x2="914" y2="58"/>
<line x1="915" y1="57" x2="915" y2="57"/>
<line x1="914" y1="58" x2="914" y2="59"/>
<line x1="914" y1="58" x2="914" y2="58"/>
<line x1="914" y1="59" x2="914" y2="61"/>
<line x1="914" y1="59" x2="914" y2="59"/>
<line x1="914" y1="61" x2="913" y2="62"/>
<line x1="914" y1="61" x2="914" y2="61"/>
<line x1="913" y1="62" x2="913" y2="62"/>
<line x1="913" y1="62" x2="913" y2="62"/>
<line x1="900" y1="860" x2="900" y2="860"/>
<line x1="900" y1="860" x2="900" y2="860"/>
<line x1="901" y1="860" x2="901" y2="860"/>
<line x1="901" y1="860" x2="900" y2="860"/>
<line x1="899" y1="860" x2="898" y2="859"/>
<line x1="899" y1="860" x2="900" y2="860"/>
<line x1="899" y1="860" x2="899" y2="860"/>
<line x1="898" y1="859" x2="897" y2="859"/>
<line x1="898" y1="859" x2="898" y2="859"/>
<line x1="897" y1="859" x2="896" y2="858"/>
<line x1="897" y1="859" x2="897" y2="859"/>
<line x1="896" y1="858" x2="895" y2="858"/>
<line x1="896" y1="858" x2="896" y2="858"/>
<line x1="895" y1="857" x2="894" y2="857"/>
<line x1="895" y1="857" x2="895" y2="858"/>
<line x1="894" y1="857" x2="893" y2="856"/>
<line x1="894" y1="857" x2="894" y2="857"/>
<line x1="893" y1="856" x2="892" y2="855"/>
<line x1="893" y1="856" x2="893" y2="856"/>
<line x1="892" y1="855" x2="891" y2="854"/>
<line x1="892" y1="855" x2="892" y2="855"/>
<line x1="891" y1="854" x2="891" y2="853"/>
<line x1="891" y1="854" x2="891" y2="854"/>
<line x1="890" y1="853" x2="890" y2="852"/>
<line x1="890" y1="853" x2="891" y2="853"/>
<line x1="890" y1="851" x2="890" y2="850"/>
<line x1="890" y1="851" x2="890" y2="852"/>
<line x1="889" y1="850" x2="889" y2="849"/>
<line x1="889" y1="850" x2="890" y2="850"/>
<line x1="889" y1="849" x2="889" y2="848"/>
<line x1="889" y1="849" x2="889" y2="849"/>
<line x1="889" y1="848" x2="889" y2="847"/>
<line x1="889" y1="848" x2="889" y2="848"/>
<line x1="889" y1="846" x2="889" y2="845"/>
<line x1="889" y1="846" x2="889" y2="847"/>
<line x1="889" y1="845" x2="889" y2="844"/>
<line x1="889" y1="845" x2="889" y2="845"/>
<line x1="889" y1="844" x2="890" y2="843"/>
<line x1="889" y1="844" x2="889" y2="844"/>
<line x1="890" y1="842" x2="890" y2="842"/>
<line x1="890" y1="842" x2="890" y2="843"/>
<line x1="890" y1="841" x2="891" y2="840"/>
<line x1="890" y1="841" x2="890" y2="842"/>
<line x1="891" y1="840" x2="891" y2="839"/>
<line x1="891" y1="840" x2="891" y2="840"/>
<line x1="891" y1="839" x2="892" y2="838"/>
<line x1="891" y1="839" x2="891" y2="839"/>
<line x1="892" y1="838" x2="893" y2="837"/>
<line x1="892" y1="838" x2="892" y2="838"/>
<line x1="893" y1="837" x2="894" y2="836"/>
<line x1="893" y1="837" x2="893" y2="837"/>
<line x1="894" y1="836" x2="895" y2="836"/>
<line x1="894" y1="836" x2="894" y2="836"/>
<line x1="895" y1="835" x2="896" y2="835"/>
<line x1="895" y1="835" x2="895" y2="836"/>
<line x1="896" y1="835" x2="897" y2="834"/>
<line x1="896" y1="835" x2="896" y2="835"/>
<line x1="898" y1="834" x2="898" y2="834"/>
<line x1="898" y1="834" x2="897" y2="834"/>
<line x1="899" y1="834" x2="900" y2="834"/>
<line x1="899" y1="834" x2="898" y2="834"/>
<line x1="900" y1="834" x2="901" y2="833"/>
<line x1="900" y1="834" x2="900" y2="834"/>
<line x1="901" y1="833" x2="902" y2="833"/>
<line x1="901" y1="833" x2="901" y2="833"/>
<line x1="903" y1="833" x2="903" y2="833"/>
<line x1="902" y1="833" x2="903" y2="833"/>
<line x1="904" y1="833" x2="905" y2="834"/>
<line x1="903" y1="833" x2="904" y2="833"/>
<line x1="905" y1="834" x2="906" y2="834"/>
<line x1="905" y1="834" x2="905" y2="834"/>
<line x1="906" y1="834" x2="907" y2="834"/>
<line x1="906" y1="834" x2="906" y2="834"/>
<line x1="908" y1="835" x2="908" y2="835"/>
<line x1="907" y1="834" x2="908" y2="835"/>
<line x1="909" y1="835" x2="909" y2="836"/>
<line x1="908" y1="835" x2="909" y2="835"/>
<line x1="910" y1="836" x2="910" y2="836"/>
<line x1="909" y1="836" x2="910" y2="836"/>
<line x1="911" y1="837" x2="911" y2="837"/>
<line x1="910" y1="836" x2="911" y2="837"/>
<line x1="912" y1="838" x2="912" y2="838"/>
<line x1="911" y1="837" x2="912" y2="838"/>
<line x1="913" y1="839" x2="913" y2="839"/>
<line x1="912" y1="838" x2="913" y2="839"/>
<line x1="913" y1="840" x2="914" y2="840"/>
<line x1="913" y1="839" x2="913" y2="840"/>
<line x1="914" y1="841" x2="914" y2="842"/>
<line x1="914" y1="840" x2="914" y2="841"/>
<line x1="914" y1="842" x2="915" y2="843"/>
<line x1="914" y1="842" x2="914" y2="842"/>
<line x1="915" y1="843" x2="915" y2="843"/>
<line x1="915" y1="843" x2="915" y2="843"/>
<line x1="915" y1="850" x2="915" y2="850"/>
<line x1="915" y1="850" x2="915" y2="850"/>
<line x1="915" y1="851" x2="914" y2="852"/>
<line x1="915" y1="850" x2="915" y2="851"/>
<line x1="914" y1="852" x2="914" y2="853"/>
<line x1="914" y1="852" x2="914" y2="852"/>
<line x1="914" y1="853" x2="913" y2="854"/>
<line x1="914" y1="853" x2="914" y2="853"/>
<line x1="913" y1="854" x2="912" y2="855"/>
<line x1="913" y1="854" x2="913" y2="854"/>
<line x1="912" y1="855" x2="911" y2="856"/>
<line x1="912" y1="855" x2="912" y2="855"/>
<line x1="911" y1="856" x2="910" y2="857"/>
<line x1="911" y1="856" x2="911" y2="856"/>
<line x1="910" y1="857" x2="909" y2="858"/>
<line x1="910" y1="857" x2="910" y2="857"/>
<line x1="909" y1="858" x2="908" y2="858"/>
<line x1="909" y1="858" x2="909" y2="858"/>
<line x1="908" y1="859" x2="907" y2="859"/>
<line x1="908" y1="858" x2="908" y2="859"/>
<line x1="907" y1="859" x2="906" y2="859"/>
<line x1="907" y1="859" x2="907" y2="859"/>
<line x1="906" y1="859" x2="906" y2="859"/>
<line x1="906" y1="859" x2="905" y2="860"/>
<line x1="906" y1="859" x2="906" y2="859"/>
<line x1="904" y1="860" x2="904" y2="860"/>
<line x1="904" y1="860" x2="903" y2="860"/>
<line x1="905" y1="860" x2="905" y2="860"/>
<line x1="904" y1="860" x2="905" y2="860"/>
<line x1="902" y1="860" x2="902" y2="860"/>
<line x1="902" y1="860" x2="903" y2="860"/>
<line x1="903" y1="860" x2="903" y2="860"/>
<line x1="903" y1="860" x2="903" y2="860"/>
<line x1="902" y1="860" x2="902" y2="860"/>
<line x1="902" y1="860" x2="901" y2="860"/>
<line x1="902" y1="860" x2="902" y2="860"/>
<line x1="902" y1="860" x2="902" y2="860"/>
</g></svg>