<svg xmlns="http://www.w3.org/2000/svg" width="1400" height="900" viewBox="0 0 1400 900">
<rect x="0" y="0" width="100%" height="100%" fill="white"/>
<g stroke="#111" stroke-width="1.2" fill="none" stroke-linecap="round">
<line x1="510" y1="831" x2="510" y2="831"/>
<line x1="624" y1="75" x2="535" y2="75"/>
<line x1="624" y1="75" x2="917" y2="75"/>
<line x1="742" y1="831" x2="917" y2="831"/>
<line x1="742" y1="831" x2="535" y2="831"/>
<line x1="515" y1="831" x2="519" y2="831"/>
<line x1="512" y1="831" x2="510" y2="831"/>
<line x1="514" y1="831" x2="512" y2="831"/>
<line x1="515" y1="831" x2="514" y2="831"/>
<line x1="510" y1="75" x2="510" y2="75"/>
<line x1="512" y1="75" x2="512" y2="75"/>
<line x1="512" y1="75" x2="512" y2="75"/>
<line x1="512" y1="75" x2="515" y2="75"/>
<line x1="512" y1="75" x2="510" y2="75"/>
<line x1="521" y1="831" x2="535" y2="831"/>
<line x1="521" y1="831" x2="521" y2="831"/>
<line x1="521" y1="831" x2="521" y2="831"/>
<line x1="521" y1="831" x2="519" y2="831"/>
<line x1="510" y1="831" x2="510" y2="831"/>
<line x1="510" y1="831" x2="510" y2="831"/>
<line x1="515" y1="75" x2="515" y2="75"/>
<line x1="515" y1="75" x2="515" y2="75"/>
<line x1="535" y1="75" x2="515" y2="75"/>
<line x1="510" y1="75" x2="510" y2="78"/>
<line x1="510" y1="830" x2="510" y2="831"/>
<line x1="510" y1="140" x2="510" y2="130"/>
<line x1="510" y1="140" x2="510" y2="140"/>
<line x1="510" y1="140" x2="510" y2="150"/>
<line x1="510" y1="150" x2="510" y2="150"/>
<line x1="510" y1="150" x2="510" y2="160"/>
<line x1="510" y1="160" x2="510" y2="160"/>
<line x1="510" y1="160" x2="510" y2="170"/>
<line x1="510" y1="170" x2="510" y2="170"/>
<line x1="510" y1="170" x2="510" y2="180"/>
<line x1="510" y1="180" x2="510" y2="180"/>
<line x1="510" y1="180" x2="510" y2="190"/>
<line x1="510" y1="190" x2="510" y2="190"/>
<line x1="510" y1="190" x2="510" y2="199"/>
<line x1="510" y1="199" x2="510" y2="199"/>
<line x1="510" y1="199" x2="510" y2="209"/>
<line x1="510" y1="209" x2="510" y2="209"/>
<line x1="510" y1="209" x2="510" y2="218"/>
<line x1="510" y1="218" x2="510" y2="218"/>
<line x1="510" y1="218" x2="510" y2="228"/>
<line x1="510" y1="228" x2="510" y2="228"/>
<line x1="510" y1="228" x2="510" y2="237"/>
<line x1="510" y1="237" x2="510" y2="237"/>
<line x1="510" y1="237" x2="510" y2="246"/>
<line x1="510" y1="246" x2="510" y2="246"/>
<line x1="510" y1="246" x2="510" y2="255"/>
<line x1="510" y1="255" x2="510" y2="255"/>
<line x1="510" y1="255" x2="510" y2="264"/>
<line x1="510" y1="264" x2="510" y2="264"/>
<line x1="510" y1="264" x2="510" y2="273"/>
<line x1="510" y1="273" x2="510" y2="273"/>
<line x1="510" y1="273" x2="510" y2="281"/>
<line x1="510" y1="281" x2="510" y2="281"/>
<line x1="510" y1="281" x2="510" y2="290"/>
<line x1="510" y1="290" x2="510" y2="290"/>
<line x1="510" y1="290" x2="510" y2="299"/>
<line x1="510" y1="299" x2="510" y2="299"/>
<line x1="510" y1="299" x2="510" y2="307"/>
<line x1="510" y1="307" x2="510" y2="307"/>
<line x1="510" y1="307" x2="510" y2="315"/>
<line x1="510" y1="315" x2="510" y2="316"/>
<line x1="510" y1="316" x2="510" y2="324"/>
<line x1="510" y1="324" x2="510" y2="324"/>
<line x1="510" y1="332" x2="510" y2="324"/>
<line x1="510" y1="332" x2="510" y2="332"/>
<line x1="510" y1="340" x2="510" y2="332"/>
<line x1="510" y1="341" x2="510" y2="340"/>
<line x1="510" y1="349" x2="510" y2="341"/>
<line x1="510" y1="349" x2="510" y2="349"/>
<line x1="510" y1="357" x2="510" y2="349"/>
<line x1="510" y1="357" x2="510" y2="357"/>
<line x1="510" y1="365" x2="510" y2="357"/>
<line x1="510" y1="365" x2="510" y2="365"/>
<line x1="510" y1="373" x2="510" y2="365"/>
<line x1="510" y1="373" x2="510" y2="373"/>
<line x1="510" y1="381" x2="510" y2="373"/>
<line x1="510" y1="381" x2="510" y2="381"/>
<line x1="510" y1="569" x2="510" y2="381"/>
<line x1="510" y1="569" x2="510" y2="577"/>
<line x1="510" y1="577" x2="510" y2="577"/>
<line x1="510" y1="577" x2="510" y2="586"/>
<line x1="510" y1="586" x2="510" y2="586"/>
<line x1="510" y1="586" x2="510" y2="594"/>
<line x1="510" y1="594" x2="510" y2="594"/>
<line x1="510" y1="594" x2="510" y2="602"/>
<line x1="510" y1="602" x2="510" y2="602"/>
<line x1="510" y1="602" x2="510" y2="610"/>
<line x1="510" y1="610" x2="510" y2="610"/>
<line x1="510" y1="610" x2="510" y2="618"/>
<line x1="510" y1="618" x2="510" y2="618"/>
<line x1="510" y1="618" x2="510" y2="626"/>
<line x1="510" y1="626" x2="510" y2="626"/>
<line x1="510" y1="626" x2="510" y2="634"/>
<line x1="510" y1="634" x2="510" y2="634"/>
<line x1="510" y1="634" x2="510" y2="642"/>
<line x1="510" y1="642" x2="510" y2="642"/>
<line x1="510" y1="642" x2="510" y2="649"/>
<line x1="510" y1="649" x2="510" y2="649"/>
<line x1="510" y1="649" x2="510" y2="657"/>
<line x1="510" y1="657" x2="510" y2="657"/>
<line x1="510" y1="657" x2="510" y2="665"/>
<line x1="510" y1="665" x2="510" y2="665"/>
<line x1="510" y1="665" x2="510" y2="672"/>
<line x1="510" y1="672" x2="510" y2="672"/>
<line x1="510" y1="672" x2="510" y2="680"/>
<line x1="510" y1="680" x2="510" y2="680"/>
<line x1="510" y1="680" x2="510" y2="687"/>
<line x1="510" y1="687" x2="510" y2="687"/>
<line x1="510" y1="687" x2="510" y2="782"/>
<line x1="483" y1="110" x2="483" y2="116"/>
<line x1="483" y1="116" x2="483" y2="116"/>
<line x1="483" y1="116" x2="483" y2="122"/>
<line x1="483" y1="122" x2="483" y2="122"/>
<line x1="483" y1="110" x2="483" y2="40"/>
<line x1="483" y1="127" x2="483" y2="122"/>
<line x1="483" y1="127" x2="483" y2="127"/>
<line x1="483" y1="133" x2="483" y2="127"/>
<line x1="483" y1="133" x2="483" y2="133"/>
<line x1="483" y1="139" x2="483" y2="133"/>
<line x1="483" y1="139" x2="483" y2="139"/>
<line x1="483" y1="144" x2="483" y2="139"/>
<line x1="483" y1="144" x2="483" y2="144"/>
<line x1="483" y1="150" x2="483" y2="144"/>
<line x1="483" y1="150" x2="483" y2="150"/>
<line x1="483" y1="155" x2="483" y2="150"/>
<line x1="483" y1="155" x2="483" y2="155"/>
<line x1="483" y1="160" x2="483" y2="155"/>
<line x1="483" y1="160" x2="483" y2="160"/>
<line x1="483" y1="165" x2="483" y2="160"/>
<line x1="483" y1="165" x2="483" y2="165"/>
<line x1="483" y1="170" x2="483" y2="165"/>
<line x1="483" y1="171" x2="483" y2="170"/>
<line x1="483" y1="176" x2="483" y2="171"/>
<line x1="483" y1="176" x2="483" y2="176"/>
<line x1="483" y1="181" x2="483" y2="176"/>
<line x1="483" y1="181" x2="483" y2="181"/>
<line x1="483" y1="185" x2="483" y2="181"/>
<line x1="483" y1="186" x2="483" y2="185"/>
<line x1="483" y1="190" x2="483" y2="186"/>
<line x1="483" y1="190" x2="483" y2="190"/>
<line x1="483" y1="195" x2="483" y2="190"/>
<line x1="483" y1="195" x2="483" y2="195"/>
<line x1="483" y1="200" x2="483" y2="195"/>
<line x1="483" y1="200" x2="483" y2="200"/>
<line x1="483" y1="205" x2="483" y2="200"/>
<line x1="483" y1="205" x2="483" y2="205"/>
<line x1="483" y1="209" x2="483" y2="205"/>
<line x1="483" y1="209" x2="483" y2="209"/>
<line x1="483" y1="214" x2="483" y2="209"/>
<line x1="483" y1="214" x2="483" y2="214"/>
<line x1="483" y1="219" x2="483" y2="214"/>
<line x1="483" y1="219" x2="483" y2="219"/>
<line x1="483" y1="223" x2="483" y2="219"/>
<line x1="483" y1="223" x2="483" y2="821"/>
<line x1="483" y1="821" x2="483" y2="821"/>
<line x1="483" y1="821" x2="483" y2="823"/>
<line x1="483" y1="823" x2="483" y2="823"/>
<line x1="483" y1="823" x2="483" y2="824"/>
<line x1="483" y1="824" x2="483" y2="824"/>
<line x1="483" y1="824" x2="483" y2="826"/>
<line x1="483" y1="826" x2="483" y2="826"/>
<line x1="483" y1="826" x2="483" y2="827"/>
<line x1="483" y1="827" x2="483" y2="827"/>
<line x1="483" y1="827" x2="483" y2="828"/>
<line x1="483" y1="828" x2="483" y2="829"/>
<line x1="483" y1="829" x2="483" y2="830"/>
<line x1="483" y1="830" x2="483" y2="830"/>
<line x1="483" y1="830" x2="483" y2="831"/>
<line x1="483" y1="831" x2="483" y2="831"/>
<line x1="483" y1="831" x2="483" y2="832"/>
<line x1="483" y1="832" x2="483" y2="833"/>
<line x1="483" y1="833" x2="483" y2="834"/>
<line x1="483" y1="834" x2="483" y2="834"/>
<line x1="483" y1="834" x2="483" y2="835"/>
<line x1="483" y1="835" x2="483" y2="835"/>
<line x1="483" y1="835" x2="483" y2="836"/>
<line x1="483" y1="836" x2="483" y2="836"/>
<line x1="483" y1="836" x2="483" y2="838"/>
<line x1="483" y1="838" x2="483" y2="838"/>
<line x1="483" y1="838" x2="483" y2="839"/>
<line x1="483" y1="839" x2="483" y2="839"/>
<line x1="483" y1="839" x2="483" y2="840"/>
<line x1="483" y1="840" x2="483" y2="840"/>
<line x1="483" y1="840" x2="483" y2="841"/>
<line x1="483" y1="841" x2="483" y2="841"/>
<line x1="483" y1="841" x2="483" y2="842"/>
<line x1="483" y1="842" x2="483" y2="842"/>
<line x1="483" y1="842" x2="483" y2="843"/>
<line x1="483" y1="843" x2="483" y2="844"/>
<line x1="483" y1="844" x2="483" y2="845"/>
<line x1="483" y1="845" x2="483" y2="845"/>
<line x1="483" y1="845" x2="483" y2="846"/>
<line x1="483" y1="846" x2="483" y2="846"/>
<line x1="483" y1="846" x2="483" y2="847"/>
<line x1="483" y1="847" x2="483" y2="847"/>
<line x1="483" y1="847" x2="483" y2="848"/>
<line x1="483" y1="848" x2="483" y2="848"/>
<line x1="483" y1="848" x2="483" y2="849"/>
<line x1="483" y1="860" x2="483" y2="849"/>
<line x1="917" y1="46" x2="917" y2="40"/>
<line x1="917" y1="46" x2="917" y2="75"/>
<line x1="917" y1="849" x2="917" y2="860"/>
<line x1="917" y1="849" x2="917" y2="831"/>
<line x1="749" y1="40" x2="917" y2="40"/>
<line x1="749" y1="40" x2="744" y2="40"/>
<line x1="744" y1="40" x2="736" y2="40"/>
<line x1="736" y1="40" x2="731" y2="40"/>
<line x1="731" y1="40" x2="483" y2="40"/>
<line x1="559" y1="860" x2="531" y2="860"/>
<line x1="531" y1="860" x2="520" y2="860"/>
<line x1="520" y1="860" x2="483" y2="860"/>
<line x1="559" y1="860" x2="917" y2="860"/>
<line x1="486" y1="804" x2="486" y2="804"/>
<line x1="486" y1="804" x2="486" y2="805"/>
<line x1="486" y1="805" x2="486" y2="806"/>
<line x1="509" y1="782" x2="508" y2="782"/>
<line x1="487" y1="801" x2="487" y2="803"/>
<line x1="495" y1="787" x2="494" y2="788"/>
<line x1="496" y1="787" x2="495" y2="787"/>
<line x1="505" y1="783" x2="503" y2="783"/>
<line x1="502" y1="783" x2="503" y2="783"/>
<line x1="502" y1="783" x2="502" y2="783"/>
<line x1="489" y1="795" x2="489" y2="795"/>
<line x1="489" y1="795" x2="489" y2="796"/>
<line x1="493" y1="789" x2="494" y2="788"/>
<line x1="493" y1="789" x2="493" y2="789"/>
<line x1="486" y1="807" x2="486" y2="807"/>
<line x1="486" y1="807" x2="486" y2="808"/>
<line x1="487" y1="803" x2="487" y2="803"/>
<line x1="487" y1="803" x2="486" y2="804"/>
<line x1="505" y1="783" x2="506" y2="782"/>
<line x1="505" y1="783" x2="505" y2="783"/>
<line x1="490" y1="794" x2="490" y2="793"/>
<line x1="490" y1="794" x2="489" y2="795"/>
<line x1="501" y1="784" x2="502" y2="783"/>
<line x1="501" y1="784" x2="501" y2="784"/>
<line x1="506" y1="782" x2="507" y2="782"/>
<line x1="506" y1="782" x2="506" y2="782"/>
<line x1="487" y1="810" x2="487" y2="811"/>
<line x1="500" y1="784" x2="501" y2="784"/>
<line x1="500" y1="784" x2="500" y2="784"/>
<line x1="500" y1="784" x2="499" y2="785"/>
<line x1="508" y1="782" x2="507" y2="782"/>
<line x1="490" y1="818" x2="490" y2="820"/>
<line x1="487" y1="812" x2="487" y2="811"/>
<line x1="487" y1="812" x2="487" y2="813"/>
<line x1="492" y1="790" x2="492" y2="790"/>
<line x1="492" y1="790" x2="492" y2="791"/>
<line x1="487" y1="800" x2="487" y2="801"/>
<line x1="496" y1="787" x2="497" y2="786"/>
<line x1="496" y1="787" x2="496" y2="787"/>
<line x1="498" y1="785" x2="499" y2="785"/>
<line x1="498" y1="785" x2="497" y2="786"/>
<line x1="510" y1="830" x2="510" y2="830"/>
<line x1="510" y1="830" x2="508" y2="830"/>
<line x1="486" y1="806" x2="486" y2="807"/>
<line x1="491" y1="792" x2="490" y2="793"/>
<line x1="493" y1="789" x2="492" y2="790"/>
<line x1="492" y1="791" x2="492" y2="791"/>
<line x1="492" y1="791" x2="491" y2="792"/>
<line x1="488" y1="797" x2="488" y2="798"/>
<line x1="489" y1="796" x2="488" y2="797"/>
<line x1="488" y1="798" x2="488" y2="798"/>
<line x1="488" y1="798" x2="487" y2="799"/>
<line x1="487" y1="799" x2="487" y2="799"/>
<line x1="487" y1="799" x2="487" y2="800"/>
<line x1="509" y1="782" x2="510" y2="782"/>
<line x1="491" y1="821" x2="490" y2="820"/>
<line x1="491" y1="821" x2="492" y2="821"/>
<line x1="504" y1="829" x2="506" y2="830"/>
<line x1="504" y1="829" x2="503" y2="829"/>
<line x1="494" y1="824" x2="495" y2="825"/>
<line x1="494" y1="824" x2="493" y2="823"/>
<line x1="502" y1="829" x2="503" y2="829"/>
<line x1="502" y1="829" x2="501" y2="828"/>
<line x1="486" y1="809" x2="486" y2="808"/>
<line x1="486" y1="809" x2="487" y2="810"/>
<line x1="488" y1="814" x2="487" y2="813"/>
<line x1="488" y1="814" x2="488" y2="815"/>
<line x1="489" y1="816" x2="489" y2="816"/>
<line x1="489" y1="816" x2="489" y2="817"/>
<line x1="488" y1="815" x2="489" y2="816"/>
<line x1="507" y1="830" x2="508" y2="830"/>
<line x1="507" y1="830" x2="507" y2="830"/>
<line x1="507" y1="830" x2="506" y2="830"/>
<line x1="498" y1="827" x2="499" y2="827"/>
<line x1="498" y1="827" x2="497" y2="826"/>
<line x1="499" y1="827" x2="500" y2="828"/>
<line x1="499" y1="827" x2="499" y2="827"/>
<line x1="492" y1="822" x2="492" y2="821"/>
<line x1="492" y1="822" x2="492" y2="822"/>
<line x1="489" y1="818" x2="489" y2="817"/>
<line x1="489" y1="818" x2="490" y2="818"/>
<line x1="501" y1="828" x2="501" y2="828"/>
<line x1="501" y1="828" x2="500" y2="828"/>
<line x1="492" y1="822" x2="492" y2="822"/>
<line x1="492" y1="822" x2="493" y2="823"/>
<line x1="496" y1="825" x2="497" y2="826"/>
<line x1="496" y1="825" x2="495" y2="825"/>
<line x1="486" y1="101" x2="486" y2="103"/>
<line x1="486" y1="103" x2="486" y2="103"/>
<line x1="486" y1="103" x2="486" y2="104"/>
<line x1="501" y1="80" x2="501" y2="80"/>
<line x1="501" y1="80" x2="499" y2="81"/>
<line x1="508" y1="78" x2="509" y2="78"/>
<line x1="508" y1="78" x2="508" y2="78"/>
<line x1="493" y1="122" x2="492" y2="120"/>
<line x1="493" y1="122" x2="493" y2="122"/>
<line x1="503" y1="79" x2="503" y2="79"/>
<line x1="503" y1="79" x2="503" y2="79"/>
<line x1="487" y1="99" x2="486" y2="101"/>
<line x1="509" y1="78" x2="510" y2="78"/>
<line x1="509" y1="78" x2="509" y2="78"/>
<line x1="507" y1="78" x2="507" y2="78"/>
<line x1="507" y1="78" x2="506" y2="78"/>
<line x1="499" y1="81" x2="499" y2="81"/>
<line x1="499" y1="81" x2="498" y2="82"/>
<line x1="507" y1="78" x2="508" y2="78"/>
<line x1="507" y1="78" x2="507" y2="78"/>
<line x1="486" y1="106" x2="486" y2="106"/>
<line x1="486" y1="106" x2="486" y2="107"/>
<line x1="487" y1="98" x2="487" y2="96"/>
<line x1="487" y1="98" x2="487" y2="99"/>
<line x1="488" y1="113" x2="487" y2="111"/>
<line x1="488" y1="113" x2="488" y2="114"/>
<line x1="510" y1="130" x2="510" y2="130"/>
<line x1="508" y1="130" x2="510" y2="130"/>
<line x1="486" y1="107" x2="487" y2="109"/>
<line x1="487" y1="111" x2="487" y2="111"/>
<line x1="487" y1="111" x2="487" y2="111"/>
<line x1="486" y1="106" x2="486" y2="106"/>
<line x1="486" y1="106" x2="486" y2="106"/>
<line x1="486" y1="104" x2="486" y2="106"/>
<line x1="487" y1="99" x2="487" y2="99"/>
<line x1="487" y1="99" x2="487" y2="99"/>
<line x1="489" y1="116" x2="489" y2="116"/>
<line x1="489" y1="116" x2="489" y2="117"/>
<line x1="494" y1="123" x2="493" y2="122"/>
<line x1="494" y1="123" x2="495" y2="124"/>
<line x1="498" y1="126" x2="497" y2="125"/>
<line x1="498" y1="126" x2="499" y2="127"/>
<line x1="489" y1="115" x2="489" y2="115"/>
<line x1="489" y1="115" x2="489" y2="116"/>
<line x1="503" y1="79" x2="504" y2="79"/>
<line x1="503" y1="79" x2="503" y2="79"/>
<line x1="506" y1="78" x2="506" y2="78"/>
<line x1="506" y1="78" x2="504" y2="79"/>
<line x1="495" y1="84" x2="495" y2="84"/>
<line x1="495" y1="84" x2="493" y2="85"/>
<line x1="488" y1="93" x2="489" y2="91"/>
<line x1="488" y1="93" x2="488" y2="94"/>
<line x1="506" y1="129" x2="506" y2="129"/>
<line x1="506" y1="129" x2="508" y2="130"/>
<line x1="502" y1="128" x2="501" y2="128"/>
<line x1="502" y1="128" x2="502" y2="128"/>
<line x1="502" y1="128" x2="503" y2="129"/>
<line x1="487" y1="109" x2="487" y2="111"/>
<line x1="488" y1="94" x2="488" y2="95"/>
<line x1="490" y1="90" x2="489" y2="91"/>
<line x1="497" y1="82" x2="498" y2="82"/>
<line x1="497" y1="82" x2="497" y2="82"/>
<line x1="488" y1="96" x2="488" y2="95"/>
<line x1="488" y1="96" x2="487" y2="96"/>
<line x1="489" y1="117" x2="490" y2="118"/>
<line x1="491" y1="120" x2="490" y2="118"/>
<line x1="491" y1="120" x2="492" y2="120"/>
<line x1="496" y1="124" x2="495" y2="124"/>
<line x1="496" y1="124" x2="497" y2="125"/>
<line x1="504" y1="129" x2="503" y2="129"/>
<line x1="504" y1="129" x2="506" y2="129"/>
<line x1="503" y1="79" x2="503" y2="79"/>
<line x1="503" y1="79" x2="501" y2="80"/>
<line x1="488" y1="114" x2="489" y2="115"/>
<line x1="496" y1="82" x2="497" y2="82"/>
<line x1="496" y1="82" x2="495" y2="84"/>
<line x1="500" y1="127" x2="499" y2="127"/>
<line x1="501" y1="128" x2="500" y2="127"/>
<line x1="501" y1="128" x2="501" y2="128"/>
<line x1="490" y1="89" x2="490" y2="89"/>
<line x1="490" y1="89" x2="490" y2="90"/>
<line x1="492" y1="87" x2="493" y2="85"/>
<line x1="492" y1="87" x2="492" y2="87"/>
<line x1="491" y1="89" x2="492" y2="87"/>
<line x1="491" y1="89" x2="490" y2="89"/>
</g></svg>