<svg xmlns="http://www.w3.org/2000/svg" width="1400" height="900" viewBox="0 0 1400 900">
<rect x="0" y="0" width="100%" height="100%" fill="white"/>
<g stroke="#111" stroke-width="1.2" fill="none" stroke-linecap="round">
<line x1="508" y1="831" x2="508" y2="831"/>
<line x1="636" y1="75" x2="533" y2="75"/>
<line x1="636" y1="75" x2="919" y2="75"/>
<line x1="731" y1="831" x2="919" y2="831"/>
<line x1="731" y1="831" x2="533" y2="831"/>
<line x1="513" y1="831" x2="517" y2="831"/>
<line x1="510" y1="831" x2="508" y2="831"/>
<line x1="512" y1="831" x2="510" y2="831"/>
<line x1="513" y1="831" x2="512" y2="831"/>
<line x1="508" y1="75" x2="508" y2="75"/>
<line x1="511" y1="75" x2="510" y2="75"/>
<line x1="510" y1="75" x2="510" y2="75"/>
<line x1="511" y1="75" x2="514" y2="75"/>
<line x1="510" y1="75" x2="508" y2="75"/>
<line x1="520" y1="831" x2="533" y2="831"/>
<line x1="520" y1="831" x2="520" y2="831"/>
<line x1="520" y1="831" x2="519" y2="831"/>
<line x1="519" y1="831" x2="517" y2="831"/>
<line x1="508" y1="831" x2="508" y2="831"/>
<line x1="508" y1="831" x2="508" y2="831"/>
<line x1="514" y1="75" x2="514" y2="75"/>
<line x1="514" y1="75" x2="514" y2="75"/>
<line x1="533" y1="75" x2="514" y2="75"/>
<line x1="508" y1="75" x2="508" y2="77"/>
<line x1="508" y1="830" x2="508" y2="831"/>
<line x1="508" y1="140" x2="508" y2="130"/>
<line x1="508" y1="140" x2="508" y2="140"/>
<line x1="508" y1="140" x2="508" y2="150"/>
<line x1="508" y1="150" x2="508" y2="150"/>
<line x1="508" y1="150" x2="508" y2="159"/>
<line x1="508" y1="159" x2="508" y2="160"/>
<line x1="508" y1="160" x2="508" y2="169"/>
<line x1="508" y1="169" x2="508" y2="169"/>
<line x1="508" y1="169" x2="508" y2="179"/>
<line x1="508" y1="179" x2="508" y2="179"/>
<line x1="508" y1="179" x2="508" y2="188"/>
<line x1="508" y1="188" x2="508" y2="188"/>
<line x1="508" y1="188" x2="508" y2="197"/>
<line x1="508" y1="197" x2="508" y2="198"/>
<line x1="508" y1="198" x2="508" y2="207"/>
<line x1="508" y1="207" x2="508" y2="207"/>
<line x1="508" y1="207" x2="508" y2="216"/>
<line x1="508" y1="216" x2="508" y2="216"/>
<line x1="508" y1="216" x2="508" y2="225"/>
<line x1="508" y1="225" x2="508" y2="225"/>
<line x1="508" y1="225" x2="508" y2="234"/>
<line x1="508" y1="234" x2="508" y2="234"/>
<line x1="508" y1="234" x2="508" y2="242"/>
<line x1="508" y1="242" x2="508" y2="242"/>
<line x1="508" y1="242" x2="508" y2="251"/>
<line x1="508" y1="251" x2="508" y2="251"/>
<line x1="508" y1="251" x2="508" y2="260"/>
<line x1="508" y1="260" x2="508" y2="260"/>
<line x1="508" y1="260" x2="508" y2="268"/>
<line x1="508" y1="268" x2="508" y2="268"/>
<line x1="508" y1="268" x2="508" y2="277"/>
<line x1="508" y1="277" x2="508" y2="277"/>
<line x1="508" y1="277" x2="508" y2="285"/>
<line x1="508" y1="285" x2="508" y2="285"/>
<line x1="508" y1="285" x2="508" y2="293"/>
<line x1="508" y1="293" x2="508" y2="293"/>
<line x1="508" y1="293" x2="508" y2="302"/>
<line x1="508" y1="302" x2="508" y2="302"/>
<line x1="508" y1="302" x2="508" y2="310"/>
<line x1="508" y1="310" x2="508" y2="310"/>
<line x1="508" y1="310" x2="508" y2="318"/>
<line x1="508" y1="318" x2="508" y2="318"/>
<line x1="508" y1="326" x2="508" y2="318"/>
<line x1="508" y1="326" x2="508" y2="326"/>
<line x1="508" y1="334" x2="508" y2="326"/>
<line x1="508" y1="334" x2="508" y2="334"/>
<line x1="508" y1="342" x2="508" y2="334"/>
<line x1="508" y1="342" x2="508" y2="342"/>
<line x1="508" y1="350" x2="508" y2="342"/>
<line x1="508" y1="350" x2="508" y2="350"/>
<line x1="508" y1="358" x2="508" y2="350"/>
<line x1="508" y1="358" x2="508" y2="358"/>
<line x1="508" y1="366" x2="508" y2="358"/>
<line x1="508" y1="366" x2="508" y2="366"/>
<line x1="508" y1="373" x2="508" y2="366"/>
<line x1="508" y1="373" x2="508" y2="373"/>
<line x1="508" y1="578" x2="508" y2="373"/>
<line x1="508" y1="578" x2="508" y2="586"/>
<line x1="508" y1="586" x2="508" y2="586"/>
<line x1="508" y1="586" x2="508" y2="594"/>
<line x1="508" y1="594" x2="508" y2="594"/>
<line x1="508" y1="594" x2="508" y2="602"/>
<line x1="508" y1="602" x2="508" y2="602"/>
<line x1="508" y1="602" x2="508" y2="609"/>
<line x1="508" y1="609" x2="508" y2="609"/>
<line x1="508" y1="609" x2="508" y2="617"/>
<line x1="508" y1="617" x2="508" y2="617"/>
<line x1="508" y1="617" x2="508" y2="625"/>
<line x1="508" y1="625" x2="508" y2="625"/>
<line x1="508" y1="625" x2="508" y2="632"/>
<line x1="508" y1="632" x2="508" y2="632"/>
<line x1="508" y1="632" x2="508" y2="640"/>
<line x1="508" y1="640" x2="508" y2="640"/>
<line x1="508" y1="640" x2="508" y2="647"/>
<line x1="508" y1="647" x2="508" y2="647"/>
<line x1="508" y1="647" x2="508" y2="655"/>
<line x1="508" y1="655" x2="508" y2="655"/>
<line x1="508" y1="655" x2="508" y2="662"/>
<line x1="508" y1="662" x2="508" y2="662"/>
<line x1="508" y1="662" x2="508" y2="669"/>
<line x1="508" y1="669" x2="508" y2="670"/>
<line x1="508" y1="670" x2="508" y2="677"/>
<line x1="508" y1="677" x2="508" y2="677"/>
<line x1="508" y1="677" x2="508" y2="684"/>
<line x1="508" y1="684" x2="508" y2="684"/>
<line x1="508" y1="684" x2="508" y2="691"/>
<line x1="508" y1="691" x2="508" y2="691"/>
<line x1="508" y1="691" x2="508" y2="782"/>
<line x1="481" y1="103" x2="481" y2="108"/>
<line x1="481" y1="108" x2="481" y2="108"/>
<line x1="481" y1="108" x2="481" y2="113"/>
<line x1="481" y1="113" x2="481" y2="113"/>
<line x1="481" y1="103" x2="481" y2="40"/>
<line x1="481" y1="118" x2="481" y2="113"/>
<line x1="481" y1="119" x2="481" y2="118"/>
<line x1="481" y1="124" x2="481" y2="119"/>
<line x1="481" y1="124" x2="481" y2="124"/>
<line x1="481" y1="129" x2="481" y2="124"/>
<line x1="481" y1="129" x2="481" y2="129"/>
<line x1="481" y1="134" x2="481" y2="129"/>
<line x1="481" y1="134" x2="481" y2="134"/>
<line x1="481" y1="138" x2="481" y2="134"/>
<line x1="481" y1="138" x2="481" y2="138"/>
<line x1="481" y1="143" x2="481" y2="138"/>
<line x1="481" y1="143" x2="481" y2="143"/>
<line x1="481" y1="148" x2="481" y2="143"/>
<line x1="481" y1="148" x2="481" y2="148"/>
<line x1="481" y1="153" x2="481" y2="148"/>
<line x1="481" y1="153" x2="481" y2="153"/>
<line x1="481" y1="157" x2="481" y2="153"/>
<line x1="481" y1="157" x2="481" y2="157"/>
<line x1="481" y1="162" x2="481" y2="157"/>
<line x1="481" y1="162" x2="481" y2="162"/>
<line x1="481" y1="166" x2="481" y2="162"/>
<line x1="481" y1="166" x2="481" y2="166"/>
<line x1="481" y1="170" x2="481" y2="166"/>
<line x1="481" y1="171" x2="481" y2="170"/>
<line x1="481" y1="175" x2="481" y2="171"/>
<line x1="481" y1="175" x2="481" y2="175"/>
<line x1="481" y1="179" x2="481" y2="175"/>
<line x1="481" y1="179" x2="481" y2="179"/>
<line x1="481" y1="183" x2="481" y2="179"/>
<line x1="481" y1="184" x2="481" y2="183"/>
<line x1="481" y1="188" x2="481" y2="184"/>
<line x1="481" y1="188" x2="481" y2="188"/>
<line x1="481" y1="192" x2="481" y2="188"/>
<line x1="481" y1="192" x2="481" y2="192"/>
<line x1="481" y1="196" x2="481" y2="192"/>
<line x1="481" y1="196" x2="481" y2="196"/>
<line x1="481" y1="200" x2="481" y2="196"/>
<line x1="481" y1="200" x2="481" y2="200"/>
<line x1="481" y1="204" x2="481" y2="200"/>
<line x1="481" y1="204" x2="481" y2="848"/>
<line x1="481" y1="848" x2="481" y2="848"/>
<line x1="481" y1="848" x2="481" y2="849"/>
<line x1="481" y1="849" x2="481" y2="849"/>
<line x1="481" y1="849" x2="481" y2="849"/>
<line x1="481" y1="849" x2="481" y2="849"/>
<line x1="481" y1="849" x2="481" y2="850"/>
<line x1="481" y1="850" x2="481" y2="850"/>
<line x1="481" y1="850" x2="481" y2="850"/>
<line x1="481" y1="850" x2="481" y2="850"/>
<line x1="481" y1="850" x2="481" y2="850"/>
<line x1="481" y1="850" x2="481" y2="850"/>
<line x1="481" y1="850" x2="481" y2="851"/>
<line x1="481" y1="851" x2="481" y2="851"/>
<line x1="481" y1="851" x2="481" y2="851"/>
<line x1="481" y1="851" x2="481" y2="851"/>
<line x1="481" y1="851" x2="481" y2="852"/>
<line x1="481" y1="852" x2="481" y2="852"/>
<line x1="481" y1="852" x2="481" y2="852"/>
<line x1="481" y1="852" x2="481" y2="852"/>
<line x1="481" y1="852" x2="481" y2="852"/>
<line x1="481" y1="852" x2="481" y2="852"/>
<line x1="481" y1="852" x2="481" y2="853"/>
<line x1="481" y1="853" x2="481" y2="853"/>
<line x1="481" y1="853" x2="481" y2="853"/>
<line x1="481" y1="853" x2="481" y2="853"/>
<line x1="481" y1="853" x2="481" y2="854"/>
<line x1="481" y1="854" x2="481" y2="854"/>
<line x1="481" y1="854" x2="481" y2="854"/>
<line x1="481" y1="854" x2="481" y2="854"/>
<line x1="481" y1="854" x2="481" y2="854"/>
<line x1="481" y1="854" x2="481" y2="854"/>
<line x1="481" y1="854" x2="481" y2="855"/>
<line x1="481" y1="855" x2="481" y2="855"/>
<line x1="481" y1="855" x2="481" y2="855"/>
<line x1="481" y1="855" x2="481" y2="855"/>
<line x1="481" y1="855" x2="481" y2="855"/>
<line x1="481" y1="855" x2="481" y2="855"/>
<line x1="481" y1="855" x2="481" y2="856"/>
<line x1="481" y1="856" x2="481" y2="856"/>
<line x1="481" y1="856" x2="481" y2="856"/>
<line x1="481" y1="856" x2="481" y2="856"/>
<line x1="481" y1="856" x2="481" y2="856"/>
<line x1="481" y1="856" x2="481" y2="856"/>
<line x1="481" y1="856" x2="481" y2="857"/>
<line x1="481" y1="860" x2="481" y2="857"/>
<line x1="919" y1="46" x2="919" y2="40"/>
<line x1="919" y1="46" x2="919" y2="75"/>
<line x1="919" y1="849" x2="919" y2="860"/>
<line x1="919" y1="849" x2="919" y2="831"/>
<line x1="724" y1="40" x2="919" y2="40"/>
<line x1="724" y1="40" x2="718" y2="40"/>
<line x1="718" y1="40" x2="709" y2="40"/>
<line x1="709" y1="40" x2="703" y2="40"/>
<line x1="703" y1="40" x2="481" y2="40"/>
<line x1="534" y1="860" x2="504" y2="860"/>
<line x1="504" y1="860" x2="492" y2="860"/>
<line x1="492" y1="860" x2="481" y2="860"/>
<line x1="534" y1="860" x2="919" y2="860"/>
<line x1="484" y1="804" x2="484" y2="804"/>
<line x1="484" y1="804" x2="484" y2="805"/>
<line x1="484" y1="805" x2="484" y2="806"/>
<line x1="507" y1="782" x2="506" y2="782"/>
<line x1="484" y1="801" x2="484" y2="803"/>
<line x1="493" y1="787" x2="492" y2="788"/>
<line x1="494" y1="787" x2="493" y2="787"/>
<line x1="502" y1="783" x2="501" y2="783"/>
<line x1="500" y1="783" x2="501" y2="783"/>
<line x1="500" y1="783" x2="500" y2="783"/>
<line x1="487" y1="795" x2="487" y2="795"/>
<line x1="487" y1="795" x2="486" y2="796"/>
<line x1="491" y1="789" x2="492" y2="788"/>
<line x1="491" y1="789" x2="491" y2="789"/>
<line x1="484" y1="807" x2="484" y2="807"/>
<line x1="484" y1="807" x2="484" y2="809"/>
<line x1="484" y1="803" x2="484" y2="803"/>
<line x1="484" y1="803" x2="484" y2="804"/>
<line x1="502" y1="783" x2="503" y2="782"/>
<line x1="502" y1="783" x2="502" y2="783"/>
<line x1="487" y1="794" x2="488" y2="793"/>
<line x1="487" y1="794" x2="487" y2="795"/>
<line x1="499" y1="784" x2="500" y2="783"/>
<line x1="499" y1="784" x2="499" y2="784"/>
<line x1="503" y1="782" x2="505" y2="782"/>
<line x1="503" y1="782" x2="503" y2="782"/>
<line x1="484" y1="810" x2="484" y2="811"/>
<line x1="498" y1="784" x2="499" y2="784"/>
<line x1="498" y1="784" x2="498" y2="784"/>
<line x1="498" y1="784" x2="497" y2="785"/>
<line x1="506" y1="782" x2="505" y2="782"/>
<line x1="487" y1="819" x2="488" y2="820"/>
<line x1="485" y1="812" x2="484" y2="811"/>
<line x1="485" y1="812" x2="485" y2="813"/>
<line x1="490" y1="790" x2="490" y2="790"/>
<line x1="490" y1="790" x2="489" y2="791"/>
<line x1="485" y1="800" x2="484" y2="801"/>
<line x1="494" y1="787" x2="495" y2="786"/>
<line x1="494" y1="787" x2="494" y2="787"/>
<line x1="496" y1="785" x2="497" y2="785"/>
<line x1="496" y1="785" x2="495" y2="786"/>
<line x1="508" y1="830" x2="508" y2="830"/>
<line x1="508" y1="830" x2="506" y2="830"/>
<line x1="484" y1="806" x2="484" y2="807"/>
<line x1="489" y1="792" x2="488" y2="793"/>
<line x1="491" y1="789" x2="490" y2="790"/>
<line x1="489" y1="791" x2="489" y2="791"/>
<line x1="489" y1="791" x2="489" y2="792"/>
<line x1="486" y1="797" x2="485" y2="798"/>
<line x1="486" y1="796" x2="486" y2="797"/>
<line x1="485" y1="798" x2="485" y2="798"/>
<line x1="485" y1="798" x2="485" y2="799"/>
<line x1="485" y1="799" x2="485" y2="799"/>
<line x1="485" y1="799" x2="485" y2="800"/>
<line x1="507" y1="782" x2="508" y2="782"/>
<line x1="489" y1="821" x2="488" y2="820"/>
<line x1="489" y1="821" x2="489" y2="822"/>
<line x1="502" y1="830" x2="503" y2="830"/>
<line x1="502" y1="830" x2="501" y2="829"/>
<line x1="492" y1="824" x2="493" y2="825"/>
<line x1="492" y1="824" x2="491" y2="823"/>
<line x1="500" y1="829" x2="501" y2="829"/>
<line x1="500" y1="829" x2="499" y2="829"/>
<line x1="484" y1="809" x2="484" y2="809"/>
<line x1="484" y1="809" x2="484" y2="810"/>
<line x1="485" y1="814" x2="485" y2="813"/>
<line x1="485" y1="814" x2="486" y2="815"/>
<line x1="486" y1="817" x2="486" y2="817"/>
<line x1="486" y1="817" x2="487" y2="818"/>
<line x1="486" y1="815" x2="486" y2="817"/>
<line x1="505" y1="830" x2="506" y2="830"/>
<line x1="505" y1="830" x2="505" y2="830"/>
<line x1="505" y1="830" x2="503" y2="830"/>
<line x1="496" y1="827" x2="497" y2="828"/>
<line x1="496" y1="827" x2="495" y2="826"/>
<line x1="497" y1="828" x2="498" y2="828"/>
<line x1="497" y1="828" x2="497" y2="828"/>
<line x1="490" y1="822" x2="489" y2="822"/>
<line x1="490" y1="822" x2="490" y2="822"/>
<line x1="487" y1="818" x2="487" y2="818"/>
<line x1="487" y1="818" x2="487" y2="819"/>
<line x1="499" y1="829" x2="499" y2="829"/>
<line x1="499" y1="829" x2="498" y2="828"/>
<line x1="490" y1="822" x2="490" y2="822"/>
<line x1="490" y1="822" x2="491" y2="823"/>
<line x1="494" y1="826" x2="495" y2="826"/>
<line x1="494" y1="826" x2="493" y2="825"/>
<line x1="484" y1="101" x2="484" y2="103"/>
<line x1="484" y1="103" x2="484" y2="103"/>
<line x1="484" y1="103" x2="484" y2="104"/>
<line x1="498" y1="80" x2="499" y2="79"/>
<line x1="498" y1="80" x2="497" y2="81"/>
<line x1="506" y1="78" x2="507" y2="77"/>
<line x1="506" y1="78" x2="506" y2="78"/>
<line x1="490" y1="122" x2="489" y2="120"/>
<line x1="490" y1="122" x2="491" y2="122"/>
<line x1="500" y1="79" x2="501" y2="79"/>
<line x1="500" y1="79" x2="500" y2="79"/>
<line x1="484" y1="99" x2="484" y2="101"/>
<line x1="507" y1="77" x2="508" y2="77"/>
<line x1="507" y1="77" x2="507" y2="77"/>
<line x1="505" y1="78" x2="505" y2="78"/>
<line x1="505" y1="78" x2="503" y2="78"/>
<line x1="497" y1="81" x2="497" y2="81"/>
<line x1="497" y1="81" x2="495" y2="81"/>
<line x1="505" y1="78" x2="506" y2="78"/>
<line x1="505" y1="78" x2="505" y2="78"/>
<line x1="484" y1="106" x2="484" y2="106"/>
<line x1="484" y1="106" x2="484" y2="107"/>
<line x1="484" y1="98" x2="485" y2="96"/>
<line x1="484" y1="98" x2="484" y2="99"/>
<line x1="485" y1="113" x2="485" y2="111"/>
<line x1="485" y1="113" x2="486" y2="114"/>
<line x1="507" y1="130" x2="508" y2="130"/>
<line x1="506" y1="130" x2="507" y2="130"/>
<line x1="484" y1="107" x2="484" y2="109"/>
<line x1="485" y1="111" x2="485" y2="111"/>
<line x1="485" y1="111" x2="485" y2="111"/>
<line x1="484" y1="106" x2="484" y2="105"/>
<line x1="484" y1="106" x2="484" y2="106"/>
<line x1="484" y1="104" x2="484" y2="105"/>
<line x1="484" y1="99" x2="484" y2="99"/>
<line x1="484" y1="99" x2="484" y2="99"/>
<line x1="487" y1="116" x2="487" y2="116"/>
<line x1="487" y1="116" x2="487" y2="117"/>
<line x1="491" y1="123" x2="491" y2="122"/>
<line x1="491" y1="123" x2="493" y2="124"/>
<line x1="495" y1="126" x2="495" y2="126"/>
<line x1="495" y1="126" x2="497" y2="127"/>
<line x1="486" y1="115" x2="486" y2="115"/>
<line x1="486" y1="115" x2="487" y2="116"/>
<line x1="501" y1="79" x2="502" y2="78"/>
<line x1="501" y1="79" x2="501" y2="79"/>
<line x1="503" y1="78" x2="503" y2="78"/>
<line x1="503" y1="78" x2="502" y2="78"/>
<line x1="492" y1="84" x2="493" y2="83"/>
<line x1="492" y1="84" x2="491" y2="85"/>
<line x1="486" y1="93" x2="487" y2="91"/>
<line x1="486" y1="93" x2="486" y2="94"/>
<line x1="504" y1="130" x2="503" y2="130"/>
<line x1="504" y1="130" x2="506" y2="130"/>
<line x1="500" y1="128" x2="499" y2="128"/>
<line x1="500" y1="128" x2="500" y2="128"/>
<line x1="500" y1="128" x2="501" y2="129"/>
<line x1="484" y1="109" x2="485" y2="111"/>
<line x1="486" y1="94" x2="485" y2="95"/>
<line x1="487" y1="90" x2="487" y2="91"/>
<line x1="495" y1="82" x2="495" y2="81"/>
<line x1="495" y1="82" x2="495" y2="82"/>
<line x1="485" y1="95" x2="485" y2="95"/>
<line x1="485" y1="95" x2="485" y2="96"/>
<line x1="487" y1="117" x2="488" y2="118"/>
<line x1="489" y1="120" x2="488" y2="118"/>
<line x1="489" y1="120" x2="489" y2="120"/>
<line x1="493" y1="125" x2="493" y2="124"/>
<line x1="493" y1="125" x2="495" y2="126"/>
<line x1="502" y1="129" x2="501" y2="129"/>
<line x1="502" y1="129" x2="503" y2="130"/>
<line x1="500" y1="79" x2="500" y2="79"/>
<line x1="500" y1="79" x2="499" y2="79"/>
<line x1="486" y1="114" x2="486" y2="115"/>
<line x1="494" y1="82" x2="495" y2="82"/>
<line x1="494" y1="82" x2="493" y2="83"/>
<line x1="497" y1="127" x2="497" y2="127"/>
<line x1="499" y1="128" x2="497" y2="127"/>
<line x1="499" y1="128" x2="499" y2="128"/>
<line x1="488" y1="89" x2="488" y2="89"/>
<line x1="488" y1="89" x2="487" y2="90"/>
<line x1="490" y1="86" x2="491" y2="85"/>
<line x1="489" y1="87" x2="490" y2="86"/>
<line x1="488" y1="88" x2="489" y2="87"/>
<line x1="488" y1="88" x2="488" y2="89"/>
</g></svg>