<?xml version="1.0" standalone="no"?>
<!DOCTYPE svg PUBLIC "-//W3C//DTD SVG 1.1//EN" "http://www.w3.org/Graphics/SVG/1.1/DTD/svg11.dtd">
<svg width="144mm" height="72mm" viewBox="2 -72 144 72" xmlns="http://www.w3.org/2000/svg" version="1.1">
<title>OpenSCAD Model</title>
<path d="
M 2.49855,-0.24825 L 2.49855,-0.024419 L 2.49855,-0 L 7.70785,-0 L 7.70785,-0.277482 L 7.70785,-0.302414
 L 7.70785,-0.342588 L 7.70785,-0.476034 L 7.70785,-0.569083 L 7.70785,-7.30253 L 7.70785,-65.1203 L 7.65644,-65.1489
 L 7.49383,-65.2748 L 6.96523,-65.684 L 6.96331,-65.6862 L 6.93977,-65.7132 L 6.51069,-66.2047 L 6.45897,-66.2639
 L 6.18306,-66.8092 L 6.16409,-66.8467 L 6.16215,-66.8506 L 6.15014,-66.8743 L 6.14948,-66.8782 L 6.14546,-66.9025
 L 6.0505,-67.475 L 6.04635,-67.5 L 6.05402,-67.5462 L 6.05464,-67.55 L 136.442,-67.55 L 136.454,-67.5382
 L 136.494,-67.5 L 140.675,-67.5 L 140.675,-0 L 145.733,-0 L 145.733,-72 L 2.49855,-72
 L 2.49855,-71.8497 L 2.49855,-71.8409 L 2.49855,-71.8339 L 2.49855,-71.7471 L 2.49855,-71.7201 L 2.49855,-71.7186
 L 2.49855,-14.1689 L 2.49855,-13.9426 L 2.49855,-13.5898 L 2.49855,-4.02705 L 2.50601,-4.02399 L 3.11126,-3.77564
 L 3.11243,-3.77493 L 3.11258,-3.77484 L 3.11276,-3.77473 L 3.11568,-3.77295 L 3.65846,-3.44226 L 3.65964,-3.44116
 L 3.66295,-3.43806 L 4.04497,-3.0807 L 4.06506,-3.0619 L 4.06569,-3.06085 L 4.06582,-3.06064 L 4.06596,-3.06042
 L 4.06821,-3.0567 L 4.08063,-3.03625 L 4.31546,-2.6492 L 4.31573,-2.64785 L 4.3166,-2.64339 L 4.39568,-2.24188
 L 4.4,-2.22 L 4.4,-2.21888 L 4.4,-2.21861 L 4.4,-2.19672 L 4.4,-2.12 L 4.33605,-1.79531
 L 4.336,-1.79505 L 4.33489,-1.78943 L 4.31546,-1.6908 L 4.14068,-1.40274 L 4.12822,-1.38219 L 4.12509,-1.37703
 L 4.12495,-1.3768 L 4.11348,-1.35788 L 4.06506,-1.2781 L 3.76892,-1.00107 L 3.76871,-1.00088 L 3.7641,-0.996564
 L 3.65846,-0.897745 L 3.11568,-0.567059 L 3.11144,-0.564472 L 3.11126,-0.564364 L 2.50601,-0.316009 L 2.49855,-0.312945
 z
" stroke="black" fill="lightgray" stroke-width="0.5"/>
</svg>
