<?xml version="1.0" standalone="no"?>
<!DOCTYPE svg PUBLIC "-//W3C//DTD SVG 1.1//EN" "http://www.w3.org/Graphics/SVG/1.1/DTD/svg11.dtd">
<svg width="161mm" height="72mm" viewBox="2 -72 161 72" xmlns="http://www.w3.org/2000/svg" version="1.1">
<title>OpenSCAD Model</title>
<path d="
M 2.2832,-0.598008 L 2.2832,-0.545056 L 2.2832,-0.119621 L 2.2832,-0.112627 L 2.2832,-0.0344573 L 2.2832,-0
 L 6.35484,-0 L 6.35484,-7.13043 L 6.35484,-21.5341 L 6.35484,-64.3983 L 6.22735,-64.4731 L 5.88861,-64.6716
 L 5.78105,-64.758 L 5.4934,-64.989 L 5.31848,-65.1296 L 5.29448,-65.1489 L 5.01831,-65.4581 L 4.81651,-65.684
 L 4.81505,-65.6864 L 4.80576,-65.7018 L 4.48631,-66.231 L 4.46642,-66.2639 L 4.26591,-66.837 L 4.25878,-66.8574
 L 4.25738,-66.8614 L 4.25286,-66.8743 L 4.25239,-66.8784 L 4.25087,-66.8916 L 4.18264,-67.4865 L 4.18109,-67.5
 L 4.18659,-67.548 L 4.18683,-67.55 L 152.83,-67.55 L 152.851,-67.5308 L 152.886,-67.5 L 157.333,-67.5
 L 157.333,-0 L 162.721,-0 L 162.721,-72 L 2.2832,-72 L 2.2832,-71.3743 L 2.2832,-71.3656
 L 2.2832,-71.3006 L 2.2832,-71.3001 L 2.2832,-71.3 L 2.2832,-71.2838 L 2.2832,-11.6842 L 2.2832,-11.3867
 L 2.2832,-3.96282 L 2.2832,-3.94554 L 2.2832,-3.944 L 2.2832,-3.82241 L 2.2832,-3.78061 L 2.2832,-3.77564
 L 2.2832,-3.76793 L 2.2832,-3.70395 L 2.47265,-3.54072 L 2.58692,-3.44226 L 2.58695,-3.44222 L 2.58704,-3.44211
 L 2.86006,-3.08093 L 2.87443,-3.0619 L 2.87446,-3.06184 L 2.87446,-3.06182 L 2.87447,-3.06181 L 2.87456,-3.06159
 L 2.88344,-3.04091 L 3.05149,-2.6492 L 3.0515,-2.6491 L 3.05155,-2.64878 L 3.10817,-2.24217 L 3.11127,-2.22
 L 3.11127,-2.21992 L 3.11127,-2.2199 L 3.11127,-2.12 L 3.06547,-1.79115 L 3.06547,-1.79113 L 3.06541,-1.79069
 L 3.05149,-1.6908 L 2.92639,-1.39922 L 2.91748,-1.37843 L 2.9173,-1.37801 L 2.91729,-1.378 L 2.90908,-1.35884
 L 2.87443,-1.2781 L 2.66271,-0.998002 L 2.66269,-0.997987 L 2.66244,-0.997654 L 2.58692,-0.897745 L 2.38457,-0.723395
 L 2.2832,-0.636055 L 2.2832,-0.621646 L 2.2832,-0.608343 z
" stroke="black" fill="lightgray" stroke-width="0.5"/>
</svg>
