<?xml version="1.0" standalone="no"?>
<!DOCTYPE svg PUBLIC "-//W3C//DTD SVG 1.1//EN" "http://www.w3.org/Graphics/SVG/1.1/DTD/svg11.dtd">
<svg width="161mm" height="72mm" viewBox="2 -72 161 72" xmlns="http://www.w3.org/2000/svg" version="1.1">
<title>OpenSCAD Model</title>
<path d="
M 2.34728,-0.42662 L 2.34728,-0.407762 L 2.34728,-0.360899 L 2.34728,-0.339798 L 2.34728,-0.103958 L 2.34728,-0
 L 6.82828,-0 L 6.82828,-58.0678 L 6.82828,-63.4942 L 6.82828,-63.5233 L 6.82828,-63.5279 L 6.82828,-63.6529
 L 6.64062,-63.6913 L 6.61865,-63.6958 L 6.58389,-63.7081 L 5.93724,-63.936 L 5.811,-64.0018 L 5.74741,-64.035
 L 5.30839,-64.2639 L 5.10019,-64.4152 L 4.91152,-64.5524 L 4.74756,-64.6716 L 4.49448,-64.9238 L 4.36291,-65.0549
 L 4.28009,-65.1374 L 4.26856,-65.1489 L 3.97587,-65.5553 L 3.8832,-65.684 L 3.88197,-65.6865 L 3.87762,-65.6955
 L 3.60989,-66.2455 L 3.60095,-66.2639 L 3.43494,-66.8524 L 3.43188,-66.8633 L 3.43072,-66.8674 L 3.42877,-66.8743
 L 3.42838,-66.8785 L 3.42773,-66.8855 L 3.37157,-67.4929 L 3.37091,-67.5 L 3.37544,-67.5489 L 3.37554,-67.55
 L 9.79332,-67.55 L 9.79332,-67.5194 L 9.79332,-67.5 L 13.4296,-67.5 L 13.51,-67.5485 L 13.5125,-67.55
 L 152.522,-67.55 L 152.526,-67.5104 L 152.528,-67.5 L 153.349,-67.5 L 153.349,-24.6053 L 153.35,-23.7739
 L 153.349,-22.9477 L 153.349,-0 L 161.599,-0 L 161.182,-0.0744124 L 161.109,-0.0874653 L 160.561,-0.259649
 L 160.462,-0.290768 L 160.443,-0.299619 L 159.981,-0.522457 L 159.894,-0.564364 L 159.872,-0.580173 L 159.804,-0.629152
 L 159.801,-0.631341 L 159.445,-0.885943 L 159.429,-0.897745 L 159.427,-0.900245 L 159.415,-0.913769 L 159.151,-1.20275
 L 159.14,-1.21561 L 159.137,-1.21846 L 159.1,-1.25885 L 159.083,-1.2781 L 159.075,-1.29357 L 159.051,-1.33918
 L 159.041,-1.36011 L 159.04,-1.36299 L 158.878,-1.67546 L 158.87,-1.6908 L 158.869,-1.69379 L 158.867,-1.70977
 L 158.812,-2.03414 L 158.81,-2.04666 L 158.809,-2.05008 L 158.801,-2.09775 L 158.798,-2.12 L 158.798,-2.13604
 L 158.798,-2.13604 L 158.798,-2.22 L 158.806,-2.26465 L 158.809,-2.28674 L 158.812,-2.30586 L 158.853,-2.54572
 L 158.855,-2.56172 L 158.855,-2.56472 L 158.858,-2.58009 L 158.869,-2.6492 L 159.007,-2.91336 L 159.008,-2.91625
 L 159.041,-2.97989 L 159.041,-2.98029 L 159.072,-3.04109 L 159.083,-3.0619 L 159.101,-3.08101 L 159.152,-3.13696
 L 159.152,-3.13724 L 159.337,-3.34152 L 159.349,-3.35514 L 159.351,-3.35768 L 159.363,-3.36958 L 159.429,-3.44226
 L 159.704,-3.63964 L 159.707,-3.64187 L 159.804,-3.71085 L 159.873,-3.76007 L 159.895,-3.77564 L 159.982,-3.81777
 L 160.286,-3.9646 L 160.462,-4.04923 L 160.514,-4.06561 L 161.06,-4.23723 L 161.109,-4.25254 L 161.711,-4.35987
 L 161.811,-4.37773 L 162.084,-4.39352 L 162.541,-4.42 L 162.541,-4.42 L 162.541,-49.7786 L 162.541,-72
 L 2.34728,-72 L 2.34728,-70.1122 L 2.34728,-70.086 L 2.34728,-69.8898 L 2.34728,-69.8885 L 2.34728,-69.8881
 L 2.34728,-69.8393 L 2.34728,-27.3899 L 2.34728,-26.4923 L 2.34728,-4.09442 L 2.34728,-4.0423 L 2.34728,-4.03764
 L 2.34728,-4.01338 L 2.72756,-3.79927 L 2.74351,-3.79029 L 2.76529,-3.77803 L 2.76954,-3.77564 L 2.78738,-3.76073
 L 2.78978,-3.75872 L 2.79102,-3.75769 L 3.15355,-3.45463 L 3.16835,-3.44226 L 3.43664,-3.09791 L 3.44708,-3.08451
 L 3.46123,-3.06633 L 3.46468,-3.0619 L 3.47344,-3.04212 L 3.47556,-3.03731 L 3.64118,-2.66275 L 3.64142,-2.66222
 L 3.64718,-2.6492 L 3.70305,-2.25998 L 3.705,-2.24641 L 3.70804,-2.22518 L 3.70879,-2.22 L 3.70804,-2.21482
 L 3.70499,-2.19359 L 3.70305,-2.18005 L 3.69239,-2.10577 L 3.64717,-1.7908 L 3.64146,-1.7779 L 3.64123,-1.77737
 L 3.59909,-1.68206 L 3.47556,-1.40269 L 3.4735,-1.39802 L 3.46468,-1.3781 L 3.46133,-1.3738 L 3.44708,-1.35549
 L 3.437,-1.34255 L 3.37718,-1.26578 L 3.16835,-0.997746 L 3.15438,-0.986061 L 3.04068,-0.891011 L 2.79102,-0.682312
 L 2.78978,-0.681275 L 2.78738,-0.679273 L 2.76954,-0.664366 L 2.76529,-0.661973 L 2.74351,-0.64971 L 2.72756,-0.64073
 z
" stroke="black" fill="lightgray" stroke-width="0.5"/>
</svg>
