<?xml version="1.0" standalone="no"?>
<!DOCTYPE svg PUBLIC "-//W3C//DTD SVG 1.1//EN" "http://www.w3.org/Graphics/SVG/1.1/DTD/svg11.dtd">
<svg width="105mm" height="72mm" viewBox="12 -72 105 72" xmlns="http://www.w3.org/2000/svg" version="1.1">
<title>OpenSCAD Model</title>
<path d="
M 12.1714,-67.0411 L 12.172,-45.7242 L 12.1719,-44.5176 L 12.1719,-4.42 L 12.8105,-4.39442 L 13.2271,-4.37773
 L 13.9826,-4.28451 L 14.2419,-4.25254 L 14.5831,-4.17835 L 14.825,-4.12576 L 15.177,-4.04923 L 15.2627,-4.02069
 L 15.4122,-3.97071 L 15.9966,-3.77564 L 16.0074,-3.77021 L 16.4598,-3.54604 L 16.509,-3.52191 L 16.5293,-3.51183
 L 16.6696,-3.44226 L 16.7031,-3.41647 L 16.7092,-3.41224 L 16.7242,-3.40071 L 16.7305,-3.39586 L 16.826,-3.32294
 L 16.8278,-3.32163 L 17.1601,-3.06875 L 17.169,-3.0619 L 17.1747,-3.05443 L 17.3779,-2.78193 L 17.3794,-2.78015
 L 17.3963,-2.75729 L 17.406,-2.74438 L 17.4774,-2.6492 L 17.4833,-2.62422 L 17.4847,-2.61867 L 17.4879,-2.60523
 L 17.4889,-2.59944 L 17.5104,-2.51265 L 17.5311,-2.42709 L 17.5325,-2.41965 L 17.5808,-2.22 L 17.5808,-2.19171
 L 17.5808,-2.1917 L 17.5808,-2.12 L 17.5793,-2.11194 L 17.5277,-1.89871 L 17.5239,-1.88339 L 17.5104,-1.82735
 L 17.4814,-1.70996 L 17.4804,-1.70418 L 17.4772,-1.6908 L 17.4729,-1.68526 L 17.3887,-1.57271 L 17.379,-1.55986
 L 17.3738,-1.55234 L 17.2213,-1.34774 L 17.1693,-1.2781 L 17.1603,-1.27119 L 16.9202,-1.08852 L 16.9032,-1.07558
 L 16.8264,-1.01706 L 16.6906,-0.913917 L 16.6843,-0.909117 L 16.6693,-0.897745 L 16.661,-0.893558 L 16.48,-0.803895
 L 16.46,-0.793961 L 16.0078,-0.569873 L 15.997,-0.564364 L 15.4128,-0.369369 L 15.1861,-0.293743 L 15.1771,-0.290768
 L 14.4996,-0.143478 L 14.2419,-0.0874653 L 13.7221,-0.0233296 L 13.5332,-0 L 23.1743,-0 L 23.175,-46.9141
 L 23.1752,-57.9212 L 23.1752,-66.0828 L 22.9778,-66.2639 L 22.9334,-66.3341 L 22.5918,-66.8743 L 22.556,-67.047
 L 22.5051,-67.2857 L 22.5048,-67.2871 L 22.4615,-67.5 L 22.4654,-67.5188 L 22.4687,-67.5351 L 22.4715,-67.55
 L 107.454,-67.55 L 107.494,-67.5119 L 107.506,-67.5 L 111.658,-67.5 L 111.658,-0 L 116.68,-0
 L 116.68,-72 L 13.139,-72 L 13.1075,-71.8336 L 13.1044,-71.8167 L 13.0689,-71.6317 L 13.0205,-71.3743
 L 12.8966,-71.1566 L 12.7732,-70.9414 L 12.6784,-70.776 L 12.6716,-70.7639 L 12.514,-70.6041 L 12.5062,-70.5963
 L 12.1717,-70.2591 z
" stroke="black" fill="lightgray" stroke-width="0.5"/>
</svg>
