<?xml version="1.0" standalone="no"?>
<!DOCTYPE svg PUBLIC "-//W3C//DTD SVG 1.1//EN" "http://www.w3.org/Graphics/SVG/1.1/DTD/svg11.dtd">
<svg width="27mm" height="72mm" viewBox="79 -72 27 72" xmlns="http://www.w3.org/2000/svg" version="1.1">
<title>OpenSCAD Model</title>
<path d="
M 79.5529,-4.42 L 79.553,-4.42 L 80.1924,-4.39438 L 80.6081,-4.37773 L 80.7538,-4.35975 L 81.6229,-4.25254
 L 81.6886,-4.23826 L 82.4921,-4.06355 L 82.558,-4.04923 L 82.819,-3.96229 L 83.2746,-3.80999 L 83.3775,-3.77564
 L 83.4097,-3.75952 L 83.4891,-3.72016 L 83.634,-3.64903 L 83.6375,-3.64728 L 84.0508,-3.44226 L 84.1496,-3.36626
 L 84.1676,-3.35379 L 84.1701,-3.35189 L 84.1887,-3.33762 L 84.4699,-3.12276 L 84.4702,-3.12255 L 84.5235,-3.08199
 L 84.5499,-3.0619 L 84.5666,-3.04001 L 84.5991,-2.9965 L 84.5993,-2.99621 L 84.6487,-2.92941 L 84.6503,-2.92736
 L 84.859,-2.6492 L 84.8764,-2.57621 L 84.8803,-2.55997 L 84.8809,-2.55789 L 84.8837,-2.54098 L 84.9465,-2.28735
 L 84.9497,-2.27416 L 84.9541,-2.25075 L 84.9616,-2.22 L 84.9615,-2.13104 L 84.9615,-2.13103 L 84.9615,-2.12
 L 84.9571,-2.09647 L 84.9492,-2.06364 L 84.9486,-2.06128 L 84.9465,-2.05265 L 84.8618,-1.70975 L 84.8589,-1.69288
 L 84.8584,-1.6908 L 84.8458,-1.67461 L 84.6,-1.34584 L 84.5984,-1.34379 L 84.5831,-1.32183 L 84.5588,-1.28921
 L 84.5505,-1.2781 L 84.5242,-1.25787 L 84.4858,-1.22866 L 84.483,-1.22659 L 84.4708,-1.21724 L 84.0712,-0.913759
 L 84.0527,-0.899635 L 84.0502,-0.897745 L 84.0256,-0.885423 L 83.4931,-0.621566 L 83.4896,-0.619833 L 83.4107,-0.580732
 L 83.3787,-0.564364 L 83.2765,-0.530248 L 82.5856,-0.299832 L 82.5582,-0.290768 L 82.4326,-0.26345 L 81.6229,-0.0874653
 L 81.5229,-0.0751243 L 80.9148,-0 L 93.5559,-0 L 93.5559,-3.52055 L 93.5558,-3.64747 L 93.5559,-3.77493
 L 93.5559,-67.5 L 95.5203,-67.5 L 95.5206,-67.5015 L 95.5298,-67.55 L 104.996,-67.55 L 104.996,-63.5315
 L 104.814,-63.5369 L 104.741,-63.5391 L 104.403,-63.5492 L 103.903,-63.595 L 103.41,-63.64 L 102.822,-63.6936
 L 102.797,-63.6958 L 102.753,-63.7028 L 102.119,-63.8026 L 101.783,-63.8554 L 101.689,-63.8702 L 101.309,-63.9298
 L 101.309,-63.9298 L 101.271,-63.936 L 101.234,-63.9445 L 101.156,-63.9626 L 101.082,-63.9798 L 100.572,-64.0985
 L 100.572,-44.4871 L 100.572,-43.6446 L 100.572,-42.7822 L 100.572,-35.2976 L 100.572,-4.32 L 100.608,-4.31643
 L 100.613,-4.31591 L 100.752,-4.30226 L 100.999,-4.27773 L 101.078,-4.25374 L 101.277,-4.19333 L 101.284,-4.19117
 L 101.376,-4.16335 L 101.382,-4.16147 L 101.411,-4.15254 L 101.417,-4.14934 L 101.444,-4.13497 L 101.581,-4.06131
 L 101.79,-3.94923 L 101.941,-3.82533 L 102.093,-3.69974 L 102.102,-3.69279 L 102.122,-3.67564 L 102.13,-3.66703
 L 102.147,-3.64626 L 102.291,-3.47057 L 102.328,-3.4252 L 102.332,-3.42046 L 102.396,-3.34225 L 102.51,-3.12682
 L 102.581,-2.99586 L 102.587,-2.98401 L 102.598,-2.9619 L 102.602,-2.94895 L 102.61,-2.92507 L 102.685,-2.67794
 L 102.723,-2.5492 L 102.724,-2.53516 L 102.727,-2.51076 L 102.753,-2.24777 L 102.765,-2.12 L 102.753,-1.99223
 L 102.727,-1.72925 L 102.724,-1.70484 L 102.723,-1.6908 L 102.685,-1.56205 L 102.61,-1.31493 L 102.602,-1.29104
 L 102.598,-1.2781 L 102.587,-1.25599 L 102.581,-1.24415 L 102.51,-1.11317 L 102.396,-0.897745 L 102.332,-0.819539
 L 102.328,-0.814798 L 102.291,-0.769427 L 102.147,-0.593743 L 102.13,-0.572975 L 102.122,-0.564364 L 102.102,-0.547207
 L 102.093,-0.540254 L 101.941,-0.414667 L 101.79,-0.290768 L 101.581,-0.178684 L 101.444,-0.105031 L 101.417,-0.0906677
 L 101.411,-0.0874653 L 101.382,-0.0785333 L 101.376,-0.0766469 L 101.284,-0.0488338 L 101.277,-0.0466669 L 101.192,-0.0208111
 L 101.123,-0 L 105.847,-0 L 105.847,-72 L 79.5533,-72 L 79.5529,-46.8382 z
" stroke="black" fill="lightgray" stroke-width="0.5"/>
</svg>
