<?xml version="1.0" standalone="no"?>
<!DOCTYPE svg PUBLIC "-//W3C//DTD SVG 1.1//EN" "http://www.w3.org/Graphics/SVG/1.1/DTD/svg11.dtd">
<svg width="136mm" height="72mm" viewBox="-3 -72 136 72" xmlns="http://www.w3.org/2000/svg" version="1.1">
<title>OpenSCAD Model</title>
<path d="
M -2.36126,-0 L 2.45345,-0 L 2.45345,-63.45 L 0.394935,-63.45 L 0.394937,-63.4923 L 0.394937,-63.5
 L 0.395201,-63.5002 L 0.403728,-63.5077 L 0.405118,-63.509 L 0.450836,-63.5492 L 0.780457,-63.8396 L 0.884703,-63.9314
 L 0.988749,-64.0231 L 1.09265,-64.1147 L 1.13666,-64.1534 L 1.16164,-64.1754 L 1.22061,-64.2274 L 1.32285,-64.3174
 L 1.4251,-64.4075 L 1.52731,-64.4976 L 1.62961,-64.5877 L 1.73206,-64.678 L 1.83486,-64.7685 L 1.93815,-64.8595
 L 2.04225,-64.9512 L 2.14769,-65.0441 L 2.25536,-65.139 L 2.367,-65.2373 L 2.45345,-65.3135 L 2.45345,-67.5
 L 4.93542,-67.5 L 4.98453,-67.5433 L 4.99217,-67.55 L 124.136,-67.55 L 124.174,-67.5116 L 124.186,-67.5
 L 128.138,-67.5 L 128.138,-30.6047 L 128.138,-25.5003 L 128.138,-23.2722 L 128.138,-21.4121 L 128.138,-6.77533
 L 128.138,-2.85339 L 128.211,-2.61362 L 128.211,-2.61306 L 128.23,-2.5492 L 128.232,-2.53536 L 128.265,-2.18698
 L 128.266,-2.18597 L 128.272,-2.12 L 128.266,-2.05403 L 128.265,-2.05302 L 128.232,-1.70464 L 128.23,-1.6908
 L 128.211,-1.62694 L 128.211,-1.62638 L 128.138,-1.38661 L 128.138,-1.20258 L 128.138,-0 L 132.951,-0
 L 132.951,-72 L -2.36126,-72 L -2.36126,-66.2878 L -2.36126,-65.0635 L -2.36126,-63.6736 L -2.36126,-44.7328
 L -2.36126,-3.77952 L -2.35655,-3.77564 L -2.35652,-3.77561 L -2.31602,-3.7261 L -2.29512,-3.70058 L -2.28777,-3.6916
 L -2.08373,-3.44226 L -2.06159,-3.40072 L -1.92665,-3.14755 L -1.92495,-3.14435 L -1.88102,-3.0619 L -1.87986,-3.05807
 L -1.85293,-2.96909 L -1.82965,-2.89212 L -1.82676,-2.88256 L -1.75618,-2.6492 L -1.74703,-2.55599 L -1.72351,-2.31652
 L -1.72299,-2.31121 L -1.71404,-2.22 L -1.72299,-2.12878 L -1.72351,-2.12347 L -1.74703,-1.88401 L -1.74878,-1.86619
 L -1.75618,-1.7908 L -1.82676,-1.55747 L -1.82965,-1.5479 L -1.8356,-1.52822 L -1.85293,-1.47091 L -1.87985,-1.38196
 L -1.88102,-1.3781 L -1.92493,-1.29567 L -1.92665,-1.29245 L -2.06156,-1.03934 L -2.06654,-1.02999 L -2.08373,-0.997746
 L -2.28776,-0.748423 L -2.29009,-0.745572 L -2.29512,-0.739422 L -2.31602,-0.713896 L -2.35652,-0.664396 L -2.35655,-0.664366
 L -2.36126,-0.660487 L -2.36126,-0.241609 L -2.36126,-0.0478829 z
" stroke="black" fill="lightgray" stroke-width="0.5"/>
</svg>
