<?xml version="1.0" standalone="no"?>
<!DOCTYPE svg PUBLIC "-//W3C//DTD SVG 1.1//EN" "http://www.w3.org/Graphics/SVG/1.1/DTD/svg11.dtd">
<svg width="137mm" height="72mm" viewBox="-5 -72 137 72" xmlns="http://www.w3.org/2000/svg" version="1.1">
<title>OpenSCAD Model</title>
<path d="
M -4.95737,-0 L -0.0904897,-0 L -0.0904897,-63.45 L -3.85697,-63.45 L -3.85697,-63.4804 L -3.85697,-63.5
 L -3.8563,-63.5006 L -3.83469,-63.5196 L -3.8337,-63.5205 L -3.80107,-63.5492 L -2.94031,-64.3076 L -2.66809,-64.5474
 L -2.39639,-64.7867 L -2.12507,-65.0258 L -2.01014,-65.127 L -1.9959,-65.1396 L -1.84078,-65.2762 L -1.57183,-65.5132
 L -1.30285,-65.7501 L -1.034,-65.987 L -0.764906,-66.2241 L -0.495405,-66.4615 L -0.225002,-66.6997 L -0.0904897,-66.8182
 L -0.0904897,-67.5 L 0.683461,-67.5 L 0.718332,-67.5307 L 0.740215,-67.55 L 122.458,-67.55 L 122.484,-67.5236
 L 122.508,-67.5 L 126.487,-67.5 L 126.487,-0 L 131.312,-0 L 131.312,-72 L -4.95737,-72
 z
" stroke="black" fill="lightgray" stroke-width="0.5"/>
</svg>
