<?xml version="1.0" standalone="no"?>
<!DOCTYPE svg PUBLIC "-//W3C//DTD SVG 1.1//EN" "http://www.w3.org/Graphics/SVG/1.1/DTD/svg11.dtd">
<svg width="139mm" height="72mm" viewBox="-9 -72 139 72" xmlns="http://www.w3.org/2000/svg" version="1.1">
<title>OpenSCAD Model</title>
<path d="
M -8.08158,-0 L -3.14479,-0 L -3.14479,-63.45 L -7.0459,-63.45 L -7.0459,-63.4716 L -7.0459,-63.5
 L -7.04493,-63.5009 L -7.01351,-63.5285 L -7.01281,-63.5291 L -6.99,-63.5492 L -5.73089,-64.6585 L -5.33268,-65.0093
 L -4.93524,-65.3595 L -4.53836,-65.7092 L -4.37023,-65.8572 L -4.36405,-65.8627 L -4.13682,-66.0629 L -3.74285,-66.4099
 L -3.34882,-66.7571 L -3.14479,-66.9368 L -3.14479,-67.5 L -2.50551,-67.5 L -2.48132,-67.5213 L -2.44875,-67.55
 L 120.461,-67.55 L 120.498,-67.5134 L 120.511,-67.5 L 124.504,-67.5 L 124.504,-0 L 129.357,-0
 L 129.357,-72 L -8.08158,-72 z
" stroke="black" fill="lightgray" stroke-width="0.5"/>
</svg>
