<?xml version="1.0" standalone="no"?>
<!DOCTYPE svg PUBLIC "-//W3C//DTD SVG 1.1//EN" "http://www.w3.org/Graphics/SVG/1.1/DTD/svg11.dtd">
<svg width="140mm" height="72mm" viewBox="-13 -72 140 72" xmlns="http://www.w3.org/2000/svg" version="1.1">
<title>OpenSCAD Model</title>
<path d="
M -12.2539,-35.6853 L -12.2539,-31.6415 L -12.2539,-1.54169 L -12.2539,-1.52988 L -12.2539,-1.49436 L -12.2539,-1.15484
 L -12.2539,-1.04215 L -12.2539,-0 L -7.22613,-0 L -7.22613,-63.45 L -10.2348,-63.45 L -10.2348,-63.4627
 L -10.2348,-63.5 L -10.2336,-63.5011 L -10.1923,-63.5374 L -10.1919,-63.5378 L -10.1789,-63.5492 L -8.52147,-65.0095
 L -7.99727,-65.4713 L -7.47409,-65.9322 L -7.22613,-66.1507 L -7.22613,-67.5 L -5.69447,-67.5 L -5.68097,-67.5119
 L -5.63772,-67.55 L 117.817,-67.55 L 117.863,-67.5041 L 117.867,-67.5 L 121.897,-67.5 L 121.897,-0
 L 126.785,-0 L 126.785,-72 L -12.2539,-72 L -12.2539,-40.6646 z
" stroke="black" fill="lightgray" stroke-width="0.5"/>
</svg>
