<?xml version="1.0" standalone="no"?>
<!DOCTYPE svg PUBLIC "-//W3C//DTD SVG 1.1//EN" "http://www.w3.org/Graphics/SVG/1.1/DTD/svg11.dtd">
<svg width="143mm" height="72mm" viewBox="-20 -72 143 72" xmlns="http://www.w3.org/2000/svg" version="1.1">
<title>OpenSCAD Model</title>
<path d="
M -19.1947,-5.27243 L -19.1947,-4.3797 L -18.93,-4.40585 L -18.8972,-4.40908 L -18.8235,-4.41636 L -18.8021,-4.41847
 L -18.7867,-4.42 L -18.5487,-4.3965 L -18.3962,-4.38143 L -18.3785,-4.37969 L -18.3587,-4.37773 L -18.1067,-4.30107
 L -18.1046,-4.30041 L -17.9839,-4.2637 L -17.9678,-4.25881 L -17.9472,-4.25254 L -17.9323,-4.24453 L -17.9134,-4.2344
 L -17.6632,-4.10028 L -17.6169,-4.07545 L -17.5679,-4.04923 L -17.5556,-4.03915 L -17.5378,-4.02444 L -17.3099,-3.83692
 L -17.2355,-3.77564 L -17.041,-3.53793 L -17.0298,-3.52431 L -16.988,-3.47322 L -16.9779,-3.46086 L -16.9627,-3.44226
 L -16.9551,-3.42802 L -16.9438,-3.40693 L -16.7925,-3.12304 L -16.7599,-3.0619 L -16.6653,-2.74876 L -16.6576,-2.72359
 L -16.6469,-2.68803 L -16.6462,-2.68595 L -16.6417,-2.67094 L -16.6351,-2.6492 L -16.6333,-2.63136 L -16.6311,-2.60882
 L -16.6256,-2.55203 L -16.6121,-2.41389 L -16.5987,-2.27838 L -16.593,-2.22 L -16.5987,-2.16162 L -16.6067,-2.08047
 L -16.6311,-1.83118 L -16.6333,-1.80868 L -16.6351,-1.7908 L -16.6417,-1.7691 L -16.6469,-1.75197 L -16.6576,-1.7165
 L -16.6652,-1.6914 L -16.6843,-1.62837 L -16.6887,-1.61353 L -16.76,-1.3781 L -16.7924,-1.31729 L -16.8343,-1.2386
 L -16.9439,-1.03306 L -16.955,-1.01216 L -16.9627,-0.997746 L -16.9778,-0.979308 L -16.988,-0.966783 L -17.0294,-0.916181
 L -17.0405,-0.902682 L -17.0821,-0.851798 L -17.0921,-0.839562 L -17.2355,-0.664366 L -17.3099,-0.603087 L -17.5378,-0.415561
 L -17.5556,-0.400846 L -17.5679,-0.390766 L -17.6169,-0.364543 L -17.6632,-0.339719 L -17.9134,-0.205602 L -17.9323,-0.195468
 L -17.9472,-0.187466 L -17.9678,-0.181198 L -17.9839,-0.176296 L -18.1046,-0.139593 L -18.1067,-0.138934 L -18.3587,-0.0622721
 L -18.3785,-0.0603095 L -18.3962,-0.0585657 L -18.5487,-0.0435009 L -18.7867,-0.0200005 L -18.8021,-0.0215239 L -18.8235,-0.0236384
 L -18.8972,-0.0309152 L -18.93,-0.0341523 L -19.1947,-0.0603046 L -19.1947,-0.00026883 L -19.1947,-0.000215831 L -19.1947,-0
 L -14.3589,-0 L -14.3589,-63.45 L -14.4867,-63.45 L -14.4867,-63.4508 L -14.4867,-63.5 L -14.4851,-63.5015
 L -14.4436,-63.538 L -15.6799,-63.5011 L -15.7143,-63.5 L -16.5378,-63.5246 L -16.9886,-63.5381 L -17.3463,-63.5487
 L -17.3615,-63.5492 L -17.3761,-63.5505 L -18.6811,-63.6696 L -18.6811,-63.6872 L -18.6811,-63.7044 L -18.6811,-67.55
 L -11.8461,-67.55 L -11.8461,-67.5258 L -11.8462,-67.5 L -9.94644,-67.5 L -9.88974,-67.5499 L -9.88967,-67.55
 L 113.251,-67.55 L 113.298,-67.5045 L 113.302,-67.5 L 117.373,-67.5 L 117.373,-0 L 122.33,-0
 L 122.33,-72 L -19.1947,-72 L -19.1947,-71.9336 z
" stroke="black" fill="lightgray" stroke-width="0.5"/>
</svg>
