<?xml version="1.0" standalone="no"?>
<!DOCTYPE svg PUBLIC "-//W3C//DTD SVG 1.1//EN" "http://www.w3.org/Graphics/SVG/1.1/DTD/svg11.dtd">
<svg width="154mm" height="148mm" viewBox="-20 -148 154 148" xmlns="http://www.w3.org/2000/svg" version="1.1">
<title>OpenSCAD Model</title>
<path d="
M -19.1956,-89.9832 L -18.6305,-87.758 L -18.4948,-87.4304 L -18.4656,-87.3562 L -18.458,-87.337 L -17.0645,-83.7994
 L -17.0117,-83.6652 L -17.0026,-83.6423 L -17.0019,-83.6404 L -15.6701,-80.0784 L -15.6183,-79.9398 L -15.6074,-79.9106
 L -15.5969,-79.8824 L -15.5752,-79.8245 L -14.3057,-76.2395 L -14.2774,-76.1596 L -14.2659,-76.1274 L -14.2223,-76.004
 L -14.2155,-75.9849 L -13.0082,-72.3766 L -12.9781,-72.2867 L -12.9661,-72.2509 L -12.9569,-72.2233 L -12.9296,-72.1417
 L -12.923,-72.122 L -11.778,-68.4905 L -11.7671,-68.4558 L -11.7602,-68.4339 L -11.6982,-68.2374 L -10.5412,-64.3316
 L -9.45259,-60.4062 L -8.43266,-56.4624 L -7.48183,-52.5018 L -6.60028,-48.5254 L -5.78804,-44.5332 L -5.04576,-40.5282
 L -4.37332,-36.5099 L -3.77135,-32.4819 L -3.23972,-28.4438 L -3.21639,-28.239 L -3.20966,-28.18 L -2.77847,-24.3956
 L -2.77828,-24.3937 L -2.77648,-24.3749 L -2.77362,-24.3452 L -2.76545,-24.2604 L -2.75394,-24.1409 L -2.75274,-24.1284
 L -2.38817,-20.3419 L -2.38658,-20.3217 L -2.38373,-20.2855 L -2.37363,-20.1571 L -2.37071,-20.1201 L -2.36697,-20.0726
 L -2.0685,-16.2802 L -2.06289,-16.1885 L -2.05352,-16.0353 L -1.82143,-12.2406 L -1.81987,-12.2151 L -1.81978,-12.2131
 L -1.81336,-12.066 L -1.81241,-12.0443 L -1.64656,-8.2458 L -1.64218,-8.14558 L -1.63289,-7.79071 L -1.17679,-5.32967
 L -0.731743,-4.50995 L -0.800151,-6.84829 L -0.841985,-8.27829 L 3.14612,-8.41935 L 7.58982,-8.57652 L 7.23029,-9.22231
 L 7.22442,-9.23318 L -9.7262,-88.9641 L -9.95042,-90.0187 L -9.94957,-90.031 L -9.88748,-90.7904 L -14.0089,-89.1273
 L -17.7096,-87.6341 L -18.7225,-90.1009 L -19.1366,-91.1093 z
M -18.8524,-93.0355 L 41.9123,-117.987 L 98.8591,-141.371 L 103.609,-143.321 L 103.749,-142.99 L 103.749,-142.99
 L 103.756,-142.974 L 103.759,-142.967 L 103.906,-142.617 L 103.906,-142.615 L 103.91,-142.607 L 103.91,-142.607
 L 104.062,-142.247 L 104.213,-141.886 L 104.364,-141.526 L 104.514,-141.165 L 104.664,-140.804 L 104.962,-140.082
 L 105.111,-139.721 L 105.259,-139.359 L 105.407,-138.998 L 105.555,-138.636 L 105.702,-138.274 L 105.849,-137.912
 L 105.995,-137.55 L 102.279,-136.05 L 98.4706,-134.513 L 98.9735,-133.673 L 98.9859,-133.643 L 98.9861,-133.643
 L 99.7781,-131.672 L 99.8047,-131.605 L 99.822,-131.561 L 99.8223,-131.56 L 101.72,-126.626 L 101.745,-126.559
 L 101.762,-126.514 L 103.585,-121.553 L 103.609,-121.486 L 103.625,-121.441 L 103.625,-121.44 L 105.374,-116.452
 L 105.397,-116.384 L 105.412,-116.339 L 105.412,-116.338 L 107.085,-111.325 L 107.1,-111.28 L 107.122,-111.211
 L 108.72,-106.173 L 108.72,-106.172 L 108.734,-106.127 L 108.755,-106.059 L 110.277,-100.997 L 110.29,-100.951
 L 110.31,-100.882 L 111.755,-95.7983 L 111.756,-95.7977 L 111.768,-95.752 L 111.787,-95.6827 L 113.156,-90.5774
 L 113.156,-90.5768 L 113.168,-90.5308 L 113.186,-90.4613 L 114.478,-85.3353 L 114.479,-85.3347 L 114.49,-85.2886
 L 114.506,-85.2188 L 115.721,-80.0757 L 115.721,-80.0751 L 115.732,-80.0289 L 115.747,-79.9588 L 116.885,-74.7974
 L 116.895,-74.751 L 116.895,-74.7504 L 117.955,-69.5715 L 117.97,-69.5013 L 117.979,-69.4547 L 117.979,-69.4541
 L 118.961,-64.2612 L 118.974,-64.1907 L 118.983,-64.144 L 118.983,-64.1434 L 119.887,-58.9362 L 119.899,-58.8655
 L 119.907,-58.8187 L 119.907,-58.8181 L 120.733,-53.5962 L 120.744,-53.5254 L 120.751,-53.4784 L 120.751,-53.4778
 L 121.498,-48.2462 L 121.508,-48.1751 L 121.514,-48.128 L 121.514,-48.1274 L 122.183,-42.8844 L 122.192,-42.8132
 L 122.197,-42.7661 L 122.197,-42.7655 L 122.787,-37.5128 L 122.795,-37.4414 L 122.8,-37.3942 L 123.311,-32.1337
 L 123.311,-32.1331 L 123.315,-32.0858 L 123.321,-32.0144 L 123.753,-26.7466 L 123.753,-26.746 L 123.757,-26.6987
 L 123.762,-26.6271 L 124.115,-21.3525 L 124.115,-21.3519 L 124.118,-21.3045 L 124.122,-21.2329 L 124.395,-15.9558
 L 124.395,-15.9551 L 124.397,-15.9077 L 124.4,-15.8361 L 124.478,-13.7119 L 124.478,-13.7113 L 124.479,-13.679
 L 124.358,-12.7066 L 128.465,-12.8519 L 132.47,-12.9935 L 132.484,-12.603 L 132.497,-12.2125 L 132.51,-11.822
 L 132.522,-11.4314 L 132.534,-11.0409 L 132.546,-10.6503 L 132.557,-10.2597 L 132.567,-9.86914 L 132.578,-9.47853
 L 132.588,-9.08792 L 132.597,-8.6973 L 132.606,-8.30667 L 132.615,-7.91603 L 132.623,-7.52538 L 132.623,-7.52514
 L 132.623,-7.51629 L 132.623,-7.51416 L 132.631,-7.13472 L 132.631,-7.12739 L 132.631,-7.12738 L 132.631,-7.10992
 L 132.638,-6.75104 L 132.638,-6.75028 L 132.638,-6.75027 L 127.503,-6.60005 L 65.9701,-4.79992 L 0.282748,-2.87826
 L 0.426901,-2.74145 L 0.427776,-2.74062 L 0.428024,-2.74039 L 0.459756,-2.71028 L 1.83302,-1.40706 L 3.88134,-0.430028
 L 3.92749,-0.408012 L 4.00373,-0.371646 L 4.01873,-0.364495 L 4.04987,-0.34964 L 4.08389,-0.333412 L 4.09213,-0.329482
 L 6.077,-0.0416705 L 6.2907,-0.0106835 L 6.36438,-0 L 125.4,-0 L 127.872,-0.391541 L 129.954,-1.45224
 L 130.096,-1.52488 L 130.102,-1.52786 L 131.754,-3.18005 L 131.772,-3.19724 L 131.773,-3.19822 L 131.773,-3.19916
 L 131.795,-3.22091 L 131.815,-3.24087 L 131.816,-3.24182 L 131.817,-3.24266 L 131.834,-3.2601 L 131.849,-3.27431
 L 131.849,-3.27503 L 131.85,-3.27557 L 131.86,-3.28605 L 131.867,-3.29245 L 131.867,-3.29279 L 131.869,-3.29495
 L 131.869,-3.29506 L 131.872,-3.29771 L 133.008,-5.52786 L 133.397,-8.20941 L 133.277,-12.7866 L 133.273,-12.9261
 L 132.998,-19.2105 L 132.991,-19.3499 L 132.607,-25.6276 L 132.597,-25.767 L 132.104,-32.0384 L 132.091,-32.1775
 L 131.489,-38.4375 L 131.474,-38.5763 L 130.762,-44.8261 L 130.745,-44.9647 L 129.924,-51.2016 L 129.904,-51.3399
 L 128.975,-57.5596 L 128.953,-57.6975 L 127.915,-63.902 L 127.891,-64.0395 L 126.744,-70.2236 L 126.718,-70.3607
 L 125.464,-76.5244 L 125.435,-76.661 L 124.073,-82.8023 L 124.042,-82.9384 L 122.573,-89.0546 L 122.54,-89.19
 L 120.965,-95.2789 L 120.929,-95.4138 L 119.248,-101.475 L 119.209,-101.609 L 117.423,-107.641 L 117.382,-107.774
 L 115.491,-113.772 L 115.448,-113.905 L 113.451,-119.871 L 113.406,-120.003 L 111.307,-125.931 L 111.259,-126.063
 L 109.056,-131.954 L 109.006,-132.085 L 106.701,-137.937 L 106.648,-138.066 L 104.896,-142.297 L 103.588,-144.431
 L 101.685,-146.057 L 101.67,-146.063 L 101.667,-146.064 L 101.667,-146.064 L 101.658,-146.068 L 101.658,-146.068
 L 101.644,-146.074 L 101.624,-146.082 L 101.599,-146.093 L 101.573,-146.103 L 101.571,-146.104 L 101.57,-146.105
 L 101.541,-146.117 L 101.531,-146.121 L 99.3726,-147.015 L 99.354,-147.016 L 99.3529,-147.017 L 99.2066,-147.028
 L 96.8774,-147.211 L 96.8661,-147.208 L 96.7025,-147.167 L 94.2511,-146.544 L 94.2511,-146.544 L 91.6224,-145.374
 L 40.9786,-122.825 L 39.3699,-122.109 L 37.6612,-121.349 L 32.1364,-118.888 L 27.9294,-117.015 L 22.2989,-114.508
 L 11.8592,-109.861 L -10.2884,-99.9999 L -12.2462,-99.1283 L -14.4933,-98.1278 L -14.5006,-98.1231 L -14.5614,-98.0836
 L -14.7262,-97.9765 L -16.5826,-96.771 L -16.5925,-96.7646 L -16.5946,-96.762 L -16.6179,-96.7332 L -16.6248,-96.7247
 L -16.6322,-96.7156 L -16.6393,-96.7068 L -16.6563,-96.6858 L -18.1676,-94.8194 L -18.7805,-93.2228 L -18.7901,-93.1978
 L -18.8519,-93.0369 z
" stroke="black" fill="lightgray" stroke-width="0.5"/>
</svg>
