<?xml version="1.0" standalone="no"?>
<!DOCTYPE svg PUBLIC "-//W3C//DTD SVG 1.1//EN" "http://www.w3.org/Graphics/SVG/1.1/DTD/svg11.dtd">
<svg width="154mm" height="148mm" viewBox="-20 -148 154 148" xmlns="http://www.w3.org/2000/svg" version="1.1">
<title>OpenSCAD Model</title>
<path d="
M -19.1956,-89.9832 L -18.6305,-87.758 L -18.4948,-87.4304 L -18.4494,-87.3151 L -18.4376,-87.2852 L -17.0993,-83.8877
 L -17.0171,-83.679 L -17.003,-83.6433 L -17.0019,-83.6404 L -15.7229,-80.2195 L -15.6422,-80.0038 L -15.6253,-79.9584
 L -15.6089,-79.9146 L -15.5752,-79.8245 L -14.3558,-76.381 L -14.3117,-76.2567 L -14.294,-76.2065 L -14.226,-76.0146
 L -14.2155,-75.9849 L -13.0555,-72.5181 L -13.0087,-72.3782 L -12.9901,-72.3225 L -12.9757,-72.2795 L -12.9333,-72.1527
 L -12.923,-72.122 L -11.8223,-68.6311 L -11.8053,-68.5772 L -11.7946,-68.5431 L -11.6982,-68.2374 L -10.5412,-64.3316
 L -9.45259,-60.4062 L -8.43266,-56.4624 L -7.48183,-52.5018 L -6.60028,-48.5254 L -5.78804,-44.5332 L -5.04576,-40.5282
 L -4.37332,-36.5099 L -3.77135,-32.4819 L -3.23972,-28.4438 L -3.20342,-28.1252 L -3.19297,-28.0335 L -2.77847,-24.3956
 L -2.77818,-24.3926 L -2.77537,-24.3634 L -2.77092,-24.3172 L -2.75821,-24.1852 L -2.74032,-23.9993 L -2.73845,-23.98
 L -2.38817,-20.3419 L -2.38569,-20.3104 L -2.38126,-20.2541 L -2.36555,-20.0545 L -2.36101,-19.9969 L -2.35519,-19.9229
 L -2.0685,-16.2802 L -2.05977,-16.1375 L -2.0452,-15.8992 L -1.8223,-12.2548 L -1.81987,-12.2151 L -1.81973,-12.2119
 L -1.80974,-11.9831 L -1.80827,-11.9495 L -1.64899,-8.30148 L -1.64218,-8.14558 L -1.63289,-7.79071 L -1.17679,-5.32967
 L -0.731743,-4.50995 L -0.800151,-6.84829 L -0.841985,-8.27829 L 3.14612,-8.41935 L 3.02333,-11.4767 L 2.8074,-15.3106
 L 2.65876,-17.3607 L 2.60602,-17.6087 L 2.47196,-18.2392 L 2.3307,-18.9036 L 2.17642,-19.6293 L 2.00456,-20.4377
 L 1.81036,-21.3512 L 1.58796,-22.3972 L 1.32987,-23.6112 L 1.02628,-25.0392 L 0.663279,-26.7468 L 0.221278,-28.8259
 L -0.329543,-31.4167 L -1.03452,-34.7327 L -1.53886,-37.1051 L -1.59961,-37.3908 L -2.03396,-39.4337 L -3.34172,-45.5852
 L -5.27878,-54.6966 L -8.44578,-69.5932 L -10.7671,-80.5119 L -10.8237,-80.7784 L -11.5152,-82.6935 L -12.8777,-86.2849
 L -14.0089,-89.1273 L -17.7096,-87.6341 L -18.7225,-90.1009 L -19.1366,-91.1093 z
M -19.0913,-91.9741 L -17.5076,-92.6244 L -15.6289,-93.3958 L -13.3529,-94.3304 L -12.8549,-94.6426 L -12.5378,-94.7778
 L -10.9559,-95.452 L 11.4868,-105.018 L 16.2448,-107.046 L 27.5786,-111.877 L 37.0649,-115.92 L 40.1331,-117.228
 L 42.0965,-118.066 L 43.9383,-118.851 L 96.6151,-141.304 L 97.6118,-141.55 L 97.6305,-141.549 L 97.6356,-141.548
 L 97.6437,-141.548 L 97.6508,-141.547 L 98.6101,-141.473 L 99.1063,-141.269 L 99.1179,-141.264 L 99.4232,-141.139
 L 99.5276,-141.095 L 99.5285,-141.095 L 99.5316,-141.094 L 99.5318,-141.094 L 99.5321,-141.094 L 99.5355,-141.092
 L 99.5359,-141.092 L 99.749,-140.911 L 99.8586,-140.818 L 102.675,-141.974 L 102.754,-142.007 L 103.955,-142.5
 L 104.062,-142.247 L 104.213,-141.886 L 104.364,-141.526 L 104.514,-141.165 L 104.664,-140.804 L 104.962,-140.082
 L 105.111,-139.721 L 105.259,-139.359 L 105.407,-138.998 L 105.555,-138.636 L 105.702,-138.274 L 105.849,-137.912
 L 105.995,-137.55 L 102.279,-136.05 L 103.996,-131.735 L 104.014,-131.687 L 105.995,-126.465 L 106.009,-126.43
 L 106.024,-126.389 L 106.027,-126.382 L 106.029,-126.377 L 106.038,-126.352 L 106.076,-126.253 L 106.094,-126.205
 L 108.067,-120.739 L 108.085,-120.69 L 109.969,-115.195 L 109.985,-115.146 L 111.782,-109.619 L 111.797,-109.57
 L 113.504,-104.015 L 113.519,-103.966 L 115.136,-98.3844 L 115.15,-98.3348 L 116.677,-92.7278 L 116.69,-92.6779
 L 118.126,-87.0475 L 118.138,-86.9974 L 119.484,-81.3439 L 119.495,-81.2937 L 120.749,-75.6203 L 120.76,-75.5698
 L 121.922,-69.8766 L 121.932,-69.8259 L 123.002,-64.1143 L 123.011,-64.0635 L 123.99,-58.3353 L 123.998,-58.2844
 L 124.883,-52.5421 L 124.891,-52.4911 L 125.684,-46.7336 L 125.69,-46.6824 L 126.39,-40.914 L 126.396,-40.8628
 L 127.003,-35.084 L 127.008,-35.0326 L 127.522,-29.2447 L 127.526,-29.1933 L 127.946,-23.3971 L 127.95,-23.3456
 L 127.956,-23.2395 L 127.956,-23.2345 L 127.958,-23.2079 L 127.96,-23.1641 L 127.961,-23.1565 L 127.961,-23.1465
 L 127.963,-23.1189 L 128.276,-17.5443 L 128.279,-17.4928 L 128.465,-12.8519 L 132.47,-12.9935 L 132.484,-12.603
 L 132.497,-12.2125 L 132.51,-11.822 L 132.522,-11.4314 L 132.534,-11.0409 L 132.546,-10.6503 L 132.557,-10.2597
 L 132.567,-9.86914 L 132.578,-9.47853 L 132.588,-9.08792 L 132.597,-8.6973 L 132.606,-8.30667 L 132.615,-7.91603
 L 132.621,-7.64125 L 131.368,-7.60462 L 131.284,-7.60216 L 128.193,-7.51172 L 128.13,-7.38198 L 127.996,-7.10875
 L 127.996,-7.10861 L 127.996,-7.10838 L 127.993,-7.10555 L 127.99,-7.10307 L 127.99,-7.10288 L 127.99,-7.10273
 L 127.989,-7.10192 L 127.931,-7.04167 L 127.699,-6.80245 L 127.69,-6.79332 L 127.299,-6.3896 L 126.449,-5.93922
 L 126.443,-5.93635 L 126.436,-5.93252 L 126.436,-5.93235 L 126.431,-5.93016 L 126.414,-5.9209 L 125.428,-5.74852
 L 68.1722,-4.83505 L 66.0542,-4.80126 L 64.0362,-4.76907 L 60.7014,-4.71587 L 56.2282,-4.6445 L 50.3902,-4.55136
 L 38.0707,-4.35482 L 32.8994,-4.27231 L 8.50527,-3.88312 L 6.44357,-3.85023 L 5.84741,-3.93248 L 3.60091,-3.86677
 L 1.40097,-3.80245 L -0.320281,-3.75209 L -0.251627,-3.62564 L -0.0758851,-3.30196 L -0.0752907,-3.30086 L 0.0174704,-3.13
 L 0.0194667,-3.1281 L 0.0287156,-3.11933 L 0.0498721,-3.09925 L 0.118011,-3.03459 L 1.83302,-1.40706 L 3.80083,-0.468432
 L 3.84517,-0.447281 L 3.91841,-0.412345 L 3.94787,-0.398291 L 4.00908,-0.369098 L 4.07594,-0.337206 L 4.09213,-0.329482
 L 5.99837,-0.0530712 L 6.20361,-0.0233117 L 6.36438,-0 L 125.4,-0 L 127.872,-0.391541 L 129.871,-1.41023
 L 130.093,-1.52322 L 130.102,-1.52786 L 131.689,-3.11468 L 131.716,-3.14142 L 131.717,-3.14294 L 131.719,-3.14442
 L 131.753,-3.17824 L 131.784,-3.20929 L 131.785,-3.21077 L 131.786,-3.21208 L 131.813,-3.23921 L 131.836,-3.2613
 L 131.837,-3.26243 L 131.838,-3.26328 L 131.854,-3.27958 L 131.864,-3.28953 L 131.864,-3.29006 L 131.868,-3.29341
 L 131.868,-3.29359 L 131.872,-3.29771 L 133.008,-5.52786 L 133.397,-8.20941 L 133.277,-12.7866 L 133.273,-12.9261
 L 132.998,-19.2105 L 132.991,-19.3499 L 132.607,-25.6276 L 132.597,-25.767 L 132.104,-32.0384 L 132.091,-32.1775
 L 131.489,-38.4375 L 131.474,-38.5763 L 130.762,-44.8261 L 130.745,-44.9647 L 129.924,-51.2016 L 129.904,-51.3399
 L 128.975,-57.5596 L 128.953,-57.6975 L 127.915,-63.902 L 127.891,-64.0395 L 126.744,-70.2236 L 126.718,-70.3607
 L 125.464,-76.5244 L 125.435,-76.661 L 124.073,-82.8023 L 124.042,-82.9384 L 122.573,-89.0546 L 122.54,-89.19
 L 120.965,-95.2789 L 120.929,-95.4138 L 119.248,-101.475 L 119.209,-101.609 L 117.423,-107.641 L 117.382,-107.774
 L 115.491,-113.772 L 115.448,-113.905 L 113.451,-119.871 L 113.406,-120.003 L 111.307,-125.931 L 111.259,-126.063
 L 109.056,-131.954 L 109.006,-132.085 L 106.701,-137.937 L 106.648,-138.066 L 104.896,-142.297 L 103.588,-144.431
 L 101.685,-146.057 L 101.662,-146.066 L 101.658,-146.068 L 101.657,-146.068 L 101.643,-146.074 L 101.642,-146.075
 L 101.621,-146.084 L 101.59,-146.097 L 101.552,-146.112 L 101.51,-146.129 L 101.508,-146.13 L 101.506,-146.131
 L 101.461,-146.15 L 101.446,-146.156 L 99.3726,-147.015 L 99.3437,-147.017 L 99.3419,-147.017 L 99.1143,-147.035
 L 96.8774,-147.211 L 96.8598,-147.207 L 96.6054,-147.142 L 94.2511,-146.544 L 94.2511,-146.544 L 90.1621,-144.723
 L 41.5253,-123.069 L 39.9804,-122.381 L 38.3394,-121.651 L 33.0336,-119.288 L 28.9934,-117.489 L 23.586,-115.081
 L 13.56,-110.618 L -7.70977,-101.148 L -9.59,-100.311 L -14.4933,-98.1278 L -14.5092,-98.1175 L -14.6418,-98.0314
 L -14.8002,-97.9285 L -16.583,-96.7708 L -16.5925,-96.7646 L -16.5966,-96.7595 L -16.6416,-96.7039 L -16.6548,-96.6876
 L -16.6691,-96.67 L -16.6828,-96.6531 L -16.7156,-96.6126 L -18.1676,-94.8194 L -18.9331,-92.8254 L -19.0545,-92.509
 L -19.0576,-92.5011 L -19.0601,-92.4943 L -19.0603,-92.4939 L -19.0605,-92.4935 L -19.0633,-92.4861 L -19.0635,-92.4856
 L -19.0646,-92.4827 L -19.0648,-92.4782 L -19.0649,-92.477 L -19.0839,-92.1155 L -19.084,-92.114 z
" stroke="black" fill="lightgray" stroke-width="0.5"/>
</svg>
