<?xml version="1.0" standalone="no"?>
<!DOCTYPE svg PUBLIC "-//W3C//DTD SVG 1.1//EN" "http://www.w3.org/Graphics/SVG/1.1/DTD/svg11.dtd">
<svg width="154mm" height="148mm" viewBox="-20 -148 154 148" xmlns="http://www.w3.org/2000/svg" version="1.1">
<title>OpenSCAD Model</title>
<path d="
M -19.1956,-89.9832 L -18.6305,-87.758 L -18.4948,-87.4304 L -18.4591,-87.3398 L -18.4498,-87.3163 L -17.0784,-83.8347
 L -17.0139,-83.6708 L -17.0028,-83.6427 L -17.0019,-83.6404 L -15.6912,-80.1349 L -15.6279,-79.9654 L -15.6145,-79.9297
 L -15.6017,-79.8953 L -15.5752,-79.8245 L -14.3257,-76.2961 L -14.2911,-76.1984 L -14.2772,-76.159 L -14.2238,-76.0083
 L -14.2155,-75.9849 L -13.0271,-72.4332 L -12.9903,-72.3233 L -12.9757,-72.2795 L -12.9644,-72.2458 L -12.9311,-72.1461
 L -12.923,-72.122 L -11.7957,-68.5468 L -11.7824,-68.5044 L -11.7739,-68.4776 L -11.6982,-68.2374 L -10.5412,-64.3316
 L -9.45259,-60.4062 L -8.43266,-56.4624 L -7.48183,-52.5018 L -6.60028,-48.5254 L -5.78804,-44.5332 L -5.04576,-40.5282
 L -4.37332,-36.5099 L -3.77135,-32.4819 L -3.23972,-28.4438 L -3.2112,-28.1935 L -3.20298,-28.1214 L -2.77847,-24.3956
 L -2.77824,-24.3932 L -2.77603,-24.3703 L -2.77254,-24.334 L -2.76255,-24.2303 L -2.74849,-24.0843 L -2.74703,-24.069
 L -2.38817,-20.3419 L -2.38622,-20.3172 L -2.38274,-20.2729 L -2.37039,-20.1161 L -2.36683,-20.0708 L -2.36226,-20.0127
 L -2.0685,-16.2802 L -2.06164,-16.1681 L -2.05019,-15.9808 L -1.82178,-12.2463 L -1.81987,-12.2151 L -1.81976,-12.2126
 L -1.81191,-12.0328 L -1.81076,-12.0064 L -1.64753,-8.26807 L -1.64218,-8.14558 L -1.63289,-7.79071 L -1.17679,-5.32967
 L -0.731743,-4.50995 L -0.800151,-6.84829 L -0.841985,-8.27829 L 3.14612,-8.41935 L 3.02333,-11.4767 L 2.8074,-15.3106
 L 2.52962,-19.1417 L 2.19014,-22.967 L 1.78908,-26.7861 L 1.32639,-30.5989 L 0.920497,-33.5457 L 0.845977,-33.8963
 L 0.446034,-35.7775 L -0.0119679,-37.9316 L -0.543481,-40.4317 L -1.16869,-43.3726 L -1.91626,-46.8891 L -2.82652,-51.1707
 L -3.96087,-56.5064 L -5.41271,-63.3354 L -5.82713,-65.2847 L -6.13435,-66.3452 L -6.21609,-66.6273 L -6.64999,-68.125
 L -7.77818,-71.7966 L -8.96516,-75.4486 L -10.2109,-79.0811 L -11.5152,-82.6935 L -12.8777,-86.2849 L -14.0089,-89.1273
 L -17.7096,-87.6341 L -18.7225,-90.1009 L -19.1366,-91.1093 z
M -18.921,-92.857 L 10.092,-104.77 L 32.2867,-113.884 L 38.2169,-116.411 L 38.8296,-116.673 L 40.8384,-117.53
 L 42.7227,-118.332 L 96.6151,-141.304 L 97.6118,-141.55 L 97.6193,-141.549 L 97.6213,-141.549 L 97.6246,-141.549
 L 97.6274,-141.549 L 98.6101,-141.473 L 99.0198,-141.305 L 99.042,-141.296 L 100.862,-142.043 L 103.663,-143.193
 L 103.699,-143.109 L 103.759,-142.967 L 103.819,-142.824 L 103.836,-142.783 L 103.908,-142.611 L 103.91,-142.607
 L 104.062,-142.247 L 104.213,-141.886 L 104.364,-141.526 L 104.514,-141.165 L 104.664,-140.804 L 104.962,-140.082
 L 105.111,-139.721 L 105.259,-139.359 L 105.407,-138.998 L 105.555,-138.636 L 105.702,-138.274 L 105.849,-137.912
 L 105.995,-137.55 L 102.279,-136.05 L 103.996,-131.735 L 104.014,-131.687 L 106.044,-126.338 L 106.049,-126.324
 L 106.055,-126.308 L 106.056,-126.305 L 106.057,-126.303 L 106.061,-126.293 L 106.076,-126.253 L 106.094,-126.205
 L 108.067,-120.739 L 108.085,-120.69 L 109.969,-115.195 L 109.985,-115.146 L 111.782,-109.619 L 111.797,-109.57
 L 113.504,-104.015 L 113.519,-103.966 L 115.136,-98.3844 L 115.15,-98.3348 L 116.677,-92.7278 L 116.69,-92.6779
 L 118.126,-87.0475 L 118.138,-86.9974 L 119.484,-81.3439 L 119.495,-81.2937 L 120.749,-75.6203 L 120.76,-75.5698
 L 121.922,-69.8766 L 121.932,-69.8259 L 123.002,-64.1143 L 123.011,-64.0635 L 123.99,-58.3353 L 123.998,-58.2844
 L 124.883,-52.5421 L 124.891,-52.4911 L 125.684,-46.7336 L 125.69,-46.6824 L 126.39,-40.914 L 126.396,-40.8628
 L 127.003,-35.084 L 127.008,-35.0326 L 127.522,-29.2447 L 127.526,-29.1933 L 127.946,-23.3971 L 127.95,-23.3456
 L 127.952,-23.3032 L 127.952,-23.3012 L 127.953,-23.2905 L 127.954,-23.273 L 127.954,-23.27 L 127.954,-23.2659
 L 127.955,-23.2549 L 128.276,-17.5443 L 128.279,-17.4928 L 128.465,-12.8519 L 132.47,-12.9935 L 132.484,-12.603
 L 132.497,-12.2125 L 132.51,-11.822 L 132.522,-11.4314 L 132.534,-11.0409 L 132.546,-10.6503 L 132.557,-10.2597
 L 132.567,-9.86914 L 132.578,-9.47853 L 132.588,-9.08792 L 132.597,-8.6973 L 132.606,-8.30667 L 132.615,-7.91603
 L 132.623,-7.52538 L 132.623,-7.52045 L 132.627,-7.33452 L 132.628,-7.28987 L 132.631,-7.13472 L 132.633,-6.98071
 L 132.633,-6.98063 L 132.635,-6.88935 L 129.488,-6.79728 L 127.642,-6.74327 L 127.624,-6.72453 L 127.622,-6.72292
 L 127.299,-6.3896 L 126.428,-5.92823 L 126.426,-5.92708 L 126.423,-5.92555 L 126.423,-5.92548 L 126.421,-5.9246
 L 126.414,-5.9209 L 125.428,-5.74852 L 66.851,-4.81397 L 64.684,-4.7794 L 62.6194,-4.74647 L 61.9535,-4.73584
 L 57.3771,-4.66283 L 55.5079,-4.63301 L 31.3763,-3.92704 L 0.140497,-3.01325 L 0.154586,-2.99988 L 1.83302,-1.40706
 L 3.84914,-0.44539 L 3.89456,-0.42372 L 3.96961,-0.387925 L 3.99039,-0.378013 L 4.03355,-0.357423 L 4.08071,-0.33493
 L 4.09213,-0.329482 L 6.04555,-0.0462308 L 6.25587,-0.0157347 L 6.36438,-0 L 125.4,-0 L 127.872,-0.391541
 L 129.921,-1.43543 L 130.095,-1.52422 L 130.102,-1.52786 L 131.728,-3.1539 L 131.749,-3.17491 L 131.75,-3.17611
 L 131.752,-3.17727 L 131.778,-3.20384 L 131.803,-3.22824 L 131.804,-3.2294 L 131.805,-3.23043 L 131.826,-3.25174
 L 131.843,-3.2691 L 131.844,-3.26999 L 131.845,-3.27065 L 131.858,-3.28346 L 131.866,-3.29129 L 131.866,-3.2917
 L 131.869,-3.29433 L 131.869,-3.29447 L 131.872,-3.29771 L 133.008,-5.52786 L 133.397,-8.20941 L 133.277,-12.7866
 L 133.273,-12.9261 L 132.998,-19.2105 L 132.991,-19.3499 L 132.607,-25.6276 L 132.597,-25.767 L 132.104,-32.0384
 L 132.091,-32.1775 L 131.489,-38.4375 L 131.474,-38.5763 L 130.762,-44.8261 L 130.745,-44.9647 L 129.924,-51.2016
 L 129.904,-51.3399 L 128.975,-57.5596 L 128.953,-57.6975 L 127.915,-63.902 L 127.891,-64.0395 L 126.744,-70.2236
 L 126.718,-70.3607 L 125.464,-76.5244 L 125.435,-76.661 L 124.073,-82.8023 L 124.042,-82.9384 L 122.573,-89.0546
 L 122.54,-89.19 L 120.965,-95.2789 L 120.929,-95.4138 L 119.248,-101.475 L 119.209,-101.609 L 117.423,-107.641
 L 117.382,-107.774 L 115.491,-113.772 L 115.448,-113.905 L 113.451,-119.871 L 113.406,-120.003 L 111.307,-125.931
 L 111.259,-126.063 L 109.056,-131.954 L 109.006,-132.085 L 106.701,-137.937 L 106.648,-138.066 L 104.896,-142.297
 L 103.588,-144.431 L 101.685,-146.057 L 101.667,-146.064 L 101.664,-146.066 L 101.663,-146.066 L 101.652,-146.071
 L 101.651,-146.071 L 101.634,-146.078 L 101.61,-146.088 L 101.58,-146.1 L 101.548,-146.114 L 101.546,-146.114
 L 101.545,-146.115 L 101.509,-146.13 L 101.497,-146.135 L 99.3726,-147.015 L 99.3499,-147.017 L 99.3485,-147.017
 L 99.1697,-147.031 L 96.8774,-147.211 L 96.8636,-147.208 L 96.6637,-147.157 L 94.2511,-146.544 L 94.2511,-146.544
 L 91.0383,-145.114 L 41.1973,-122.923 L 39.6141,-122.218 L 37.9325,-121.47 L 32.4952,-119.048 L 28.355,-117.205
 L 22.8137,-114.738 L 12.5395,-110.164 L -9.25692,-100.459 L -11.1837,-99.6013 L -14.4933,-98.1278 L -14.504,-98.1208
 L -14.5935,-98.0627 L -14.7558,-97.9573 L -16.5828,-96.7709 L -16.5925,-96.7646 L -16.5954,-96.761 L -16.6274,-96.7215
 L -16.6368,-96.7099 L -16.647,-96.6973 L -16.6567,-96.6853 L -16.68,-96.6565 L -18.1676,-94.8194 L -18.9167,-92.868
 z
" stroke="black" fill="lightgray" stroke-width="0.5"/>
</svg>
