<?xml version="1.0" standalone="no"?>
<!DOCTYPE svg PUBLIC "-//W3C//DTD SVG 1.1//EN" "http://www.w3.org/Graphics/SVG/1.1/DTD/svg11.dtd">
<svg width="154mm" height="148mm" viewBox="-20 -148 154 148" xmlns="http://www.w3.org/2000/svg" version="1.1">
<title>OpenSCAD Model</title>
<path d="
M -19.1956,-89.9832 L -18.6305,-87.758 L -18.4948,-87.4304 L -18.4429,-87.2986 L -18.4294,-87.2644 L -17.1132,-83.9231
 L -17.0193,-83.6846 L -17.0032,-83.6437 L -17.0019,-83.6404 L -15.744,-80.2759 L -15.6518,-80.0294 L -15.6324,-79.9776
 L -15.6137,-79.9275 L -15.5752,-79.8245 L -14.3758,-76.4376 L -14.3255,-76.2955 L -14.3052,-76.2382 L -14.2275,-76.0189
 L -14.2155,-75.9849 L -13.0744,-72.5746 L -13.021,-72.4148 L -12.9997,-72.3511 L -12.9832,-72.302 L -12.9347,-72.1571
 L -12.923,-72.122 L -11.8401,-68.6874 L -11.8206,-68.6257 L -11.8084,-68.5868 L -11.6982,-68.2374 L -10.5412,-64.3316
 L -9.45259,-60.4062 L -8.43266,-56.4624 L -7.48183,-52.5018 L -6.60028,-48.5254 L -5.78804,-44.5332 L -5.04576,-40.5282
 L -4.37332,-36.5099 L -3.77135,-32.4819 L -3.23972,-28.4438 L -3.19824,-28.0797 L -3.18629,-27.9749 L -2.77847,-24.3956
 L -2.77814,-24.3921 L -2.77493,-24.3588 L -2.76984,-24.306 L -2.75532,-24.1552 L -2.73487,-23.9427 L -2.73274,-23.9206
 L -2.38817,-20.3419 L -2.38534,-20.3059 L -2.38027,-20.2416 L -2.36232,-20.0134 L -2.35713,-19.9476 L -2.35048,-19.8631
 L -2.0685,-16.2802 L -2.05853,-16.1171 L -2.04187,-15.8448 L -1.82264,-12.2604 L -1.81987,-12.2151 L -1.81971,-12.2115
 L -1.80829,-11.95 L -1.80662,-11.9115 L -1.64996,-8.32375 L -1.64218,-8.14558 L -1.63289,-7.79071 L -1.17679,-5.32967
 L -0.733651,-4.51346 L -0.730921,-4.50844 L -0.73071,-4.50805 L -0.728531,-4.50403 L -0.722157,-4.4923 L -0.464807,-4.01829
 L -0.247187,-3.61746 L -0.074345,-3.29912 L -0.0737604,-3.29804 L 0.0174704,-3.13 L 0.0212648,-3.1264 L 0.0388438,-3.10972
 L 0.079055,-3.07156 L 0.146078,-3.00796 L 1.83302,-1.40706 L 3.76862,-0.483794 L 3.81224,-0.462989 L 3.88428,-0.428624
 L 3.91953,-0.411809 L 3.99276,-0.376881 L 4.07276,-0.338723 L 4.09213,-0.329482 L 5.96692,-0.0576315 L 6.16878,-0.0283629
 L 6.36438,-0 L 125.4,-0 L 127.872,-0.391541 L 129.838,-1.39342 L 130.092,-1.52256 L 130.102,-1.52786
 L 131.663,-3.08854 L 131.693,-3.11909 L 131.695,-3.12083 L 131.697,-3.12252 L 131.735,-3.16118 L 131.771,-3.19666
 L 131.773,-3.19835 L 131.774,-3.19985 L 131.805,-3.23085 L 131.83,-3.2561 L 131.832,-3.25739 L 131.833,-3.25836
 L 131.851,-3.27699 L 131.863,-3.28837 L 131.863,-3.28897 L 131.867,-3.2928 L 131.867,-3.293 L 131.872,-3.29771
 L 133.008,-5.52786 L 133.397,-8.20941 L 133.277,-12.7866 L 133.273,-12.9261 L 132.998,-19.2105 L 132.991,-19.3499
 L 132.607,-25.6276 L 132.597,-25.767 L 132.104,-32.0384 L 132.091,-32.1775 L 131.489,-38.4375 L 131.474,-38.5763
 L 130.762,-44.8261 L 130.745,-44.9647 L 129.924,-51.2016 L 129.904,-51.3399 L 128.975,-57.5596 L 128.953,-57.6975
 L 127.915,-63.902 L 127.891,-64.0395 L 126.744,-70.2236 L 126.718,-70.3607 L 125.464,-76.5244 L 125.435,-76.661
 L 124.073,-82.8023 L 124.042,-82.9384 L 122.573,-89.0546 L 122.54,-89.19 L 120.965,-95.2789 L 120.929,-95.4138
 L 119.248,-101.475 L 119.209,-101.609 L 117.423,-107.641 L 117.382,-107.774 L 115.491,-113.772 L 115.448,-113.905
 L 113.451,-119.871 L 113.406,-120.003 L 111.307,-125.931 L 111.259,-126.063 L 109.056,-131.954 L 109.006,-132.085
 L 106.701,-137.937 L 106.648,-138.066 L 104.896,-142.297 L 103.588,-144.431 L 101.685,-146.057 L 101.659,-146.068
 L 101.654,-146.07 L 101.654,-146.07 L 101.637,-146.077 L 101.636,-146.077 L 101.611,-146.088 L 101.576,-146.102
 L 101.533,-146.12 L 101.485,-146.14 L 101.483,-146.141 L 101.481,-146.142 L 101.429,-146.163 L 101.412,-146.17
 L 99.3726,-147.015 L 99.3396,-147.018 L 99.3375,-147.018 L 99.0774,-147.038 L 96.8774,-147.211 L 96.8573,-147.206
 L 96.5665,-147.132 L 94.2511,-146.544 L 94.2511,-146.544 L 89.5779,-144.463 L 41.744,-123.166 L 40.2246,-122.49
 L 38.6107,-121.772 L 33.3924,-119.448 L 29.4189,-117.679 L 24.1008,-115.311 L 14.2404,-110.921 L -6.67833,-101.607
 L -8.52752,-100.784 L -14.4933,-98.1278 L -14.5126,-98.1152 L -14.674,-98.0105 L -14.8297,-97.9093 L -16.5832,-96.7707
 L -16.5925,-96.7646 L -16.5974,-96.7585 L -16.6511,-96.6922 L -16.6669,-96.6728 L -16.6839,-96.6517 L -16.7002,-96.6316
 L -16.7393,-96.5833 L -18.1676,-94.8194 L -18.9206,-92.858 L -19.04,-92.5468 L -19.0474,-92.5274 L -19.0538,-92.511
 L -19.0541,-92.51 L -19.0545,-92.5089 L -19.0614,-92.491 L -19.0619,-92.4898 L -19.0646,-92.4827 L -19.0648,-92.4782
 L -19.0649,-92.4771 L -19.0835,-92.1216 L -19.0836,-92.1201 L -19.107,-91.6733 L -19.1348,-91.1428 L -19.1363,-91.115
 L -19.1365,-91.1111 L -19.1365,-91.1106 L -19.1368,-91.1046 z
M -18.9825,-90.734 L -18.9803,-90.7349 L -15.5835,-92.1296 L -15.3004,-92.2459 L -14.6852,-92.4985 L -14.4709,-93.0313
 L -14.4604,-93.0575 L -14.3456,-93.3429 L -14.3411,-93.3483 L -13.99,-93.768 L -13.7032,-94.1108 L -12.8549,-94.6426
 L -12.5427,-94.7758 L -10.9852,-95.4396 L 11.1124,-104.858 L 15.7971,-106.855 L 26.9565,-111.612 L 36.2969,-115.593
 L 41.002,-117.599 L 42.9353,-118.423 L 44.7487,-119.196 L 96.6151,-141.304 L 97.6118,-141.55 L 97.638,-141.548
 L 97.6451,-141.547 L 97.6565,-141.547 L 97.6664,-141.546 L 98.6101,-141.473 L 99.0982,-141.273 L 99.1097,-141.268
 L 99.41,-141.144 L 99.5127,-141.102 L 99.5153,-141.1 L 99.5237,-141.097 L 99.5244,-141.097 L 99.5252,-141.096
 L 99.5349,-141.092 L 99.5359,-141.092 L 99.7455,-140.914 L 100.082,-140.628 L 100.093,-140.618 L 100.293,-140.449
 L 100.296,-140.446 L 100.297,-140.446 L 100.299,-140.444 L 100.427,-140.234 L 100.657,-139.861 L 101.307,-140.128
 L 102.17,-140.482 L 104.414,-141.404 L 104.422,-141.386 L 104.514,-141.165 L 104.664,-140.804 L 104.962,-140.082
 L 105.111,-139.721 L 105.259,-139.359 L 105.407,-138.998 L 105.555,-138.636 L 105.702,-138.274 L 105.849,-137.912
 L 105.874,-137.851 L 103.069,-136.699 L 102.168,-136.329 L 102.279,-136.05 L 102.281,-136.044 L 102.283,-136.039
 L 102.283,-136.039 L 102.284,-136.038 L 102.284,-136.037 L 103.996,-131.735 L 104.014,-131.687 L 105.963,-126.55
 L 105.982,-126.501 L 106.004,-126.444 L 106.007,-126.434 L 106.01,-126.427 L 106.023,-126.392 L 106.076,-126.253
 L 106.094,-126.205 L 108.067,-120.739 L 108.085,-120.69 L 109.969,-115.195 L 109.985,-115.146 L 111.782,-109.619
 L 111.797,-109.57 L 113.504,-104.015 L 113.519,-103.966 L 115.136,-98.3844 L 115.15,-98.3348 L 116.677,-92.7278
 L 116.69,-92.6779 L 118.126,-87.0475 L 118.138,-86.9974 L 119.484,-81.3439 L 119.495,-81.2937 L 120.749,-75.6203
 L 120.76,-75.5698 L 121.922,-69.8766 L 121.932,-69.8259 L 123.002,-64.1143 L 123.011,-64.0635 L 123.99,-58.3353
 L 123.998,-58.2844 L 124.883,-52.5421 L 124.891,-52.4911 L 125.684,-46.7336 L 125.69,-46.6824 L 126.39,-40.914
 L 126.396,-40.8628 L 127.003,-35.084 L 127.008,-35.0326 L 127.522,-29.2447 L 127.526,-29.1933 L 127.946,-23.3971
 L 127.95,-23.3456 L 127.958,-23.197 L 127.959,-23.19 L 127.961,-23.1528 L 127.964,-23.0915 L 127.965,-23.0808
 L 127.966,-23.0668 L 127.968,-23.0282 L 128.276,-17.5443 L 128.279,-17.4928 L 128.464,-12.866 L 128.477,-12.5515
 L 129.451,-12.58 L 132.482,-12.6687 L 132.484,-12.603 L 132.497,-12.2125 L 132.51,-11.822 L 132.522,-11.4314
 L 132.534,-11.0409 L 132.546,-10.6503 L 132.557,-10.2597 L 132.567,-9.86914 L 132.578,-9.47853 L 132.588,-9.08792
 L 132.594,-8.84883 L 132.594,-8.82946 L 130.335,-8.76337 L 129.339,-8.73424 L 128.533,-8.71065 L 128.473,-8.27681
 L 128.436,-8.00793 L 128.435,-8.00517 L 128.432,-8.00074 L 128.432,-8.00057 L 128.328,-7.78876 L 128.127,-7.37749
 L 127.996,-7.10875 L 127.996,-7.10838 L 127.995,-7.10776 L 127.988,-7.10011 L 127.981,-7.09343 L 127.981,-7.09292
 L 127.98,-7.0925 L 127.978,-7.09033 L 127.921,-7.03107 L 127.692,-6.79573 L 127.684,-6.78675 L 127.299,-6.3896
 L 126.462,-5.94654 L 126.455,-5.94253 L 126.445,-5.93716 L 126.444,-5.93693 L 126.438,-5.93386 L 126.414,-5.9209
 L 125.428,-5.74852 L 69.0531,-4.84911 L 66.9676,-4.81583 L 64.9806,-4.78414 L 59.8666,-4.70255 L 55.4623,-4.63228
 L 49.7141,-4.54057 L 37.5841,-4.34705 L 32.4924,-4.26581 L 8.47355,-3.88262 L 6.44357,-3.85023 L 5.47704,-3.98358
 L 5.05173,-4.18758 L 4.58086,-4.41343 L 4.57433,-4.41656 L 4.33425,-4.64538 L 3.89463,-5.06437 L 3.42354,-5.05059
 L 2.93084,-5.0362 L -0.742828,-4.92872 L -0.743992,-4.9287 L -0.744014,-4.92944 L -0.750028,-5.13496 L -0.762084,-5.54708
 L -0.771454,-5.86736 L -0.800151,-6.84829 L -0.835448,-8.05484 L -0.840657,-8.23291 L -0.841985,-8.27829 L 3.14612,-8.41935
 L 3.08553,-9.92789 L 3.08129,-10.0335 L 3.06626,-10.1043 L 3.06545,-10.1082 L 3.04917,-10.1849 L 2.99419,-10.4436
 L 2.95362,-10.6344 L 2.91424,-10.8196 L 2.87275,-11.0147 L 2.82743,-11.2279 L 2.77695,-11.4654 L 2.71991,-11.7337
 L 2.65458,-12.0409 L 2.57877,-12.3975 L 2.4896,-12.817 L 2.38297,-13.3186 L 2.25314,-13.9293 L 2.09134,-14.6903
 L 1.88427,-15.6643 L 1.73613,-16.3612 L 1.63251,-16.8485 L 1.49755,-17.4833 L 1.09119,-19.3947 L 0.489298,-22.2259
 L -0.494767,-26.8546 L -13.2723,-86.957 L -13.3175,-87.17 L -13.3801,-87.4643 L -13.4004,-87.5599 L -13.4012,-87.5638
 L -13.4037,-87.5753 L -13.418,-87.6425 L -13.454,-87.7329 L -14.0089,-89.1273 L -17.7096,-87.6341 L -18.7225,-90.1009
 L -18.9493,-90.6532 L -18.9821,-90.7332 z
" stroke="black" fill="lightgray" stroke-width="0.5"/>
</svg>
