<?xml version="1.0" standalone="no"?>
<!DOCTYPE svg PUBLIC "-//W3C//DTD SVG 1.1//EN" "http://www.w3.org/Graphics/SVG/1.1/DTD/svg11.dtd">
<svg width="154mm" height="148mm" viewBox="-20 -148 154 148" xmlns="http://www.w3.org/2000/svg" version="1.1">
<title>OpenSCAD Model</title>
<path d="
M -19.1956,-89.9832 L -18.6305,-87.758 L -18.4948,-87.4304 L -18.4786,-87.3892 L -18.4744,-87.3785 L -17.0367,-83.7287
 L -17.0073,-83.6542 L -17.0023,-83.6414 L -17.0019,-83.6404 L -15.6279,-79.9656 L -15.5991,-79.8885 L -15.5931,-79.8723
 L -15.5872,-79.8567 L -15.5752,-79.8245 L -14.2656,-76.1264 L -14.2499,-76.082 L -14.2435,-76.064 L -14.2193,-75.9955
 L -14.2155,-75.9849 L -12.9703,-72.2634 L -12.9536,-72.2135 L -12.947,-72.1936 L -12.9418,-72.1783 L -12.9267,-72.133
 L -12.923,-72.122 L -11.7425,-68.378 L -11.7365,-68.3587 L -11.7326,-68.3466 L -11.6982,-68.2374 L -10.5412,-64.3316
 L -9.45259,-60.4062 L -8.43266,-56.4624 L -7.48183,-52.5018 L -6.60028,-48.5254 L -5.78804,-44.5332 L -5.04576,-40.5282
 L -4.37332,-36.5099 L -3.77135,-32.4819 L -3.23972,-28.4438 L -3.22676,-28.33 L -3.22302,-28.2973 L -2.77847,-24.3956
 L -2.77836,-24.3945 L -2.77736,-24.3841 L -2.77577,-24.3676 L -2.77124,-24.3205 L -2.76484,-24.2541 L -2.76418,-24.2472
 L -2.38817,-20.3419 L -2.38728,-20.3307 L -2.3857,-20.3106 L -2.38009,-20.2392 L -2.37847,-20.2187 L -2.37639,-20.1923
 L -2.0685,-16.2802 L -2.06538,-16.2292 L -2.06018,-16.1441 L -1.82074,-12.2293 L -1.81987,-12.2151 L -1.81982,-12.214
 L -1.81625,-12.1322 L -1.81573,-12.1202 L -1.64461,-8.20126 L -1.64218,-8.14558 L -1.63289,-7.79071 L -1.17679,-5.32967
 L -0.926763,-4.86915 L -0.403436,-3.90525 L 0.0174704,-3.13 L 0.164242,-2.99072 L 0.959819,-2.23572 L 0.971758,-2.22439
 L 1.05184,-2.14839 L 1.05233,-2.14793 L 1.05247,-2.1478 L 1.0701,-2.13107 L 1.83302,-1.40706 L 3.94575,-0.399305
 L 3.99335,-0.376597 L 4.07199,-0.339087 L 4.07541,-0.337458 L 4.0825,-0.334074 L 4.09025,-0.330377 L 4.09213,-0.329482
 L 6.1399,-0.0325499 L 6.36037,-0.000580896 L 6.36438,-0 L 125.4,-0 L 127.872,-0.391541 L 130.02,-1.48585
 L 130.099,-1.5262 L 130.102,-1.52786 L 131.807,-3.23234 L 131.816,-3.24189 L 131.817,-3.24244 L 131.817,-3.24296
 L 131.829,-3.25504 L 131.84,-3.26613 L 131.841,-3.26666 L 131.841,-3.26713 L 131.851,-3.27682 L 131.859,-3.28471
 L 131.859,-3.28511 L 131.86,-3.28541 L 131.866,-3.29123 L 131.869,-3.29479 L 131.869,-3.29498 L 131.87,-3.29617
 L 131.871,-3.29624 L 131.872,-3.29771 L 133.008,-5.52786 L 133.397,-8.20941 L 133.277,-12.7866 L 133.273,-12.9261
 L 132.998,-19.2105 L 132.991,-19.3499 L 132.607,-25.6276 L 132.597,-25.767 L 132.104,-32.0384 L 132.091,-32.1775
 L 131.489,-38.4375 L 131.474,-38.5763 L 130.762,-44.8261 L 130.745,-44.9647 L 129.924,-51.2016 L 129.904,-51.3399
 L 128.975,-57.5596 L 128.953,-57.6975 L 127.915,-63.902 L 127.891,-64.0395 L 126.744,-70.2236 L 126.718,-70.3607
 L 125.464,-76.5244 L 125.435,-76.661 L 124.073,-82.8023 L 124.042,-82.9384 L 122.573,-89.0546 L 122.54,-89.19
 L 120.965,-95.2789 L 120.929,-95.4138 L 119.248,-101.475 L 119.209,-101.609 L 117.423,-107.641 L 117.382,-107.774
 L 115.491,-113.772 L 115.448,-113.905 L 113.451,-119.871 L 113.406,-120.003 L 111.307,-125.931 L 111.259,-126.063
 L 109.056,-131.954 L 109.006,-132.085 L 106.701,-137.937 L 106.648,-138.066 L 104.896,-142.297 L 103.588,-144.431
 L 101.685,-146.057 L 101.677,-146.06 L 101.675,-146.061 L 101.675,-146.061 L 101.67,-146.063 L 101.67,-146.063
 L 101.662,-146.067 L 101.651,-146.071 L 101.637,-146.077 L 101.623,-146.083 L 101.622,-146.083 L 101.621,-146.083
 L 101.605,-146.09 L 101.6,-146.092 L 99.3726,-147.015 L 99.3623,-147.016 L 99.3616,-147.016 L 99.2804,-147.022
 L 96.8774,-147.211 L 96.8711,-147.209 L 96.7802,-147.186 L 94.2511,-146.544 L 94.2511,-146.544 L 92.7907,-145.894
 L 40.5412,-122.63 L 38.8815,-121.892 L 37.1186,-121.107 L 31.4186,-118.569 L 27.0783,-116.636 L 21.2692,-114.05
 L 10.4985,-109.255 L -12.3512,-99.0815 L -14.3711,-98.1822 L -14.4933,-98.1278 L -14.4937,-98.1275 L -14.497,-98.1254
 L -14.6671,-98.0149 L -16.5823,-96.7712 L -16.5925,-96.7646 L -16.593,-96.7639 L -16.599,-96.7566 L -16.6008,-96.7544
 L -16.6027,-96.752 L -16.6045,-96.7498 L -16.6088,-96.7444 L -18.1676,-94.8194 L -18.5081,-93.9324 L -18.5135,-93.9185
 L -18.5478,-93.8291 L -18.548,-93.8283 L -18.5486,-93.827 L -18.5534,-93.8143 L -18.9465,-92.7904 L -19.0646,-92.4827
 L -19.105,-91.7111 L -19.1625,-90.6158 z
" stroke="black" fill="lightgray" stroke-width="0.5"/>
</svg>
