<?xml version="1.0" standalone="no"?>
<!DOCTYPE svg PUBLIC "-//W3C//DTD SVG 1.1//EN" "http://www.w3.org/Graphics/SVG/1.1/DTD/svg11.dtd">
<svg width="154mm" height="148mm" viewBox="-20 -148 154 148" xmlns="http://www.w3.org/2000/svg" version="1.1">
<title>OpenSCAD Model</title>
<path d="
M -19.1956,-89.9832 L -18.6305,-87.758 L -18.4948,-87.4304 L -18.4721,-87.3727 L -18.4662,-87.3578 L -17.0506,-83.7641
 L -17.0095,-83.6597 L -17.0025,-83.6418 L -17.0019,-83.6404 L -15.649,-80.022 L -15.6087,-79.9141 L -15.6002,-79.8915
 L -15.592,-79.8696 L -15.5752,-79.8245 L -14.2856,-76.1829 L -14.2636,-76.1208 L -14.2547,-76.0957 L -14.2208,-75.9998
 L -14.2155,-75.9849 L -12.9893,-72.32 L -12.9659,-72.2501 L -12.9565,-72.2222 L -12.9494,-72.2008 L -12.9281,-72.1374
 L -12.923,-72.122 L -11.7603,-68.4343 L -11.7518,-68.4073 L -11.7464,-68.3903 L -11.6982,-68.2374 L -10.5412,-64.3316
 L -9.45259,-60.4062 L -8.43266,-56.4624 L -7.48183,-52.5018 L -6.60028,-48.5254 L -5.78804,-44.5332 L -5.04576,-40.5282
 L -4.37332,-36.5099 L -3.77135,-32.4819 L -3.23972,-28.4438 L -3.22157,-28.2845 L -3.21634,-28.2386 L -2.77847,-24.3956
 L -2.77832,-24.3941 L -2.77692,-24.3795 L -2.77469,-24.3564 L -2.76834,-24.2904 L -2.75939,-24.1975 L -2.75846,-24.1878
 L -2.38817,-20.3419 L -2.38693,-20.3262 L -2.38471,-20.298 L -2.37686,-20.1982 L -2.37459,-20.1694 L -2.37168,-20.1324
 L -2.0685,-16.2802 L -2.06414,-16.2089 L -2.05685,-16.0897 L -1.82108,-12.2349 L -1.81987,-12.2151 L -1.8198,-12.2135
 L -1.8148,-12.0991 L -1.81407,-12.0823 L -1.64558,-8.22353 L -1.64218,-8.14558 L -1.63289,-7.79071 L -1.17679,-5.32967
 L -0.826753,-4.68495 L -0.571798,-4.21535 L 0.0174704,-3.13 L 0.222951,-2.93501 L 0.61054,-2.56719 L 0.627253,-2.55133
 L 0.739372,-2.44492 L 0.740052,-2.44428 L 0.740245,-2.4441 L 0.764925,-2.42068 L 1.83302,-1.40706 L 3.91355,-0.414667
 L 3.96042,-0.392304 L 4.03786,-0.355366 L 4.04707,-0.350976 L 4.06619,-0.341857 L 4.08707,-0.331895 L 4.09213,-0.329482
 L 6.10845,-0.0371102 L 6.32554,-0.00563218 L 6.36438,-0 L 125.4,-0 L 127.872,-0.391541 L 129.987,-1.46904
 L 130.097,-1.52554 L 130.102,-1.52786 L 131.78,-3.2062 L 131.794,-3.21956 L 131.795,-3.22033 L 131.795,-3.22106
 L 131.812,-3.23798 L 131.828,-3.2535 L 131.829,-3.25424 L 131.829,-3.2549 L 131.843,-3.26846 L 131.854,-3.27951
 L 131.854,-3.28007 L 131.855,-3.28049 L 131.863,-3.28864 L 131.868,-3.29362 L 131.868,-3.29389 L 131.87,-3.29556
 L 131.87,-3.29565 L 131.872,-3.29771 L 133.008,-5.52786 L 133.397,-8.20941 L 133.277,-12.7866 L 133.273,-12.9261
 L 132.998,-19.2105 L 132.991,-19.3499 L 132.607,-25.6276 L 132.597,-25.767 L 132.104,-32.0384 L 132.091,-32.1775
 L 131.489,-38.4375 L 131.474,-38.5763 L 130.762,-44.8261 L 130.745,-44.9647 L 129.924,-51.2016 L 129.904,-51.3399
 L 128.975,-57.5596 L 128.953,-57.6975 L 127.915,-63.902 L 127.891,-64.0395 L 126.744,-70.2236 L 126.718,-70.3607
 L 125.464,-76.5244 L 125.435,-76.661 L 124.073,-82.8023 L 124.042,-82.9384 L 122.573,-89.0546 L 122.54,-89.19
 L 120.965,-95.2789 L 120.929,-95.4138 L 119.248,-101.475 L 119.209,-101.609 L 117.423,-107.641 L 117.382,-107.774
 L 115.491,-113.772 L 115.448,-113.905 L 113.451,-119.871 L 113.406,-120.003 L 111.307,-125.931 L 111.259,-126.063
 L 109.056,-131.954 L 109.006,-132.085 L 106.701,-137.937 L 106.648,-138.066 L 104.896,-142.297 L 103.588,-144.431
 L 101.685,-146.057 L 101.674,-146.062 L 101.671,-146.063 L 101.671,-146.063 L 101.664,-146.066 L 101.664,-146.066
 L 101.653,-146.07 L 101.637,-146.077 L 101.618,-146.085 L 101.598,-146.093 L 101.597,-146.094 L 101.596,-146.094
 L 101.573,-146.103 L 101.565,-146.107 L 99.3726,-147.015 L 99.3581,-147.016 L 99.3572,-147.016 L 99.2435,-147.025
 L 96.8774,-147.211 L 96.8686,-147.209 L 96.7414,-147.176 L 94.2511,-146.544 L 94.2511,-146.544 L 92.2066,-145.634
 L 40.7599,-122.728 L 39.1257,-122 L 37.3899,-121.228 L 31.7775,-118.729 L 27.5039,-116.826 L 21.784,-114.279
 L 11.1789,-109.558 L -11.3198,-99.5407 L -13.3086,-98.6552 L -14.4933,-98.1278 L -14.4971,-98.1253 L -14.5292,-98.1045
 L -14.6967,-97.9957 L -16.5825,-96.7711 L -16.5925,-96.7646 L -16.5938,-96.7629 L -16.6085,-96.7449 L -16.6128,-96.7395
 L -16.6174,-96.7338 L -16.6219,-96.7283 L -16.6326,-96.7151 L -18.1676,-94.8194 L -18.6443,-93.5776 L -18.6518,-93.5581
 L -18.6998,-93.433 L -18.7002,-93.4319 L -18.7009,-93.4301 L -18.7078,-93.4123 L -18.8993,-92.9135 L -19.0646,-92.4827
 L -19.1212,-91.4025 L -19.1492,-90.8689 z
" stroke="black" fill="lightgray" stroke-width="0.5"/>
</svg>
