<?xml version="1.0" standalone="no"?>
<!DOCTYPE svg PUBLIC "-//W3C//DTD SVG 1.1//EN" "http://www.w3.org/Graphics/SVG/1.1/DTD/svg11.dtd">
<svg width="154mm" height="148mm" viewBox="-20 -148 154 148" xmlns="http://www.w3.org/2000/svg" version="1.1">
<title>OpenSCAD Model</title>
<path d="
M -19.1956,-89.9832 L -18.6305,-87.758 L -18.4948,-87.4304 L -18.4916,-87.4222 L -18.4907,-87.42 L -17.0089,-83.6581
 L -17.003,-83.6432 L -17.002,-83.6406 L -17.0019,-83.6404 L -15.5857,-79.8527 L -15.58,-79.8373 L -15.5788,-79.8341
 L -15.5776,-79.8309 L -15.5752,-79.8245 L -14.2255,-76.0132 L -14.2224,-76.0043 L -14.2211,-76.0007 L -14.2163,-75.987
 L -14.2155,-75.9849 L -12.9325,-72.1503 L -12.9291,-72.1403 L -12.9278,-72.1363 L -12.9268,-72.1333 L -12.9237,-72.1242
 L -12.923,-72.122 L -11.7071,-68.2655 L -11.7059,-68.2617 L -11.7051,-68.2592 L -11.6982,-68.2374 L -10.5412,-64.3316
 L -9.45259,-60.4062 L -8.43266,-56.4624 L -7.48183,-52.5018 L -6.60028,-48.5254 L -5.78804,-44.5332 L -5.04576,-40.5282
 L -4.37332,-36.5099 L -3.77135,-32.4819 L -3.23972,-28.4438 L -3.23713,-28.421 L -3.23638,-28.4145 L -2.77847,-24.3956
 L -2.77845,-24.3954 L -2.77825,-24.3933 L -2.77793,-24.39 L -2.77702,-24.3806 L -2.77574,-24.3673 L -2.77561,-24.3659
 L -2.38817,-20.3419 L -2.38799,-20.3397 L -2.38768,-20.3356 L -2.38655,-20.3214 L -2.38623,-20.3173 L -2.38581,-20.312
 L -2.0685,-16.2802 L -2.06788,-16.27 L -2.06683,-16.253 L -1.82004,-12.2179 L -1.81987,-12.2151 L -1.81986,-12.2149
 L -1.81915,-12.1985 L -1.81904,-12.1961 L -1.64267,-8.15671 L -1.64218,-8.14558 L -1.63289,-7.79071 L -1.17679,-5.32967
 L -1.12678,-5.23757 L -0.0667109,-3.28505 L 0.0174704,-3.13 L 0.0468247,-3.10214 L 1.65838,-1.57279 L 1.66077,-1.57053
 L 1.67678,-1.55533 L 1.67688,-1.55523 L 1.67691,-1.55521 L 1.68043,-1.55186 L 1.83302,-1.40706 L 2.42078,-1.1267
 L 2.42383,-1.12525 L 2.48697,-1.09513 L 2.82904,-0.931965 L 2.8724,-0.911285 L 2.93342,-0.882178 L 3.11235,-0.796827
 L 23.2633,-0.52893 L 63.0487,-0 L 125.4,-0 L 127.872,-0.391541 L 130.086,-1.51946 L 130.101,-1.52753
 L 130.102,-1.52786 L 131.859,-3.28464 L 131.861,-3.28655 L 131.861,-3.28665 L 131.861,-3.28676 L 131.863,-3.28918
 L 131.866,-3.29139 L 131.866,-3.2915 L 131.866,-3.29159 L 131.868,-3.29353 L 131.869,-3.29511 L 131.869,-3.29519
 L 131.87,-3.29525 L 131.871,-3.29641 L 131.871,-3.29713 L 131.871,-3.29716 L 131.872,-3.2974 L 131.872,-3.29742
 L 131.872,-3.29771 L 133.008,-5.52786 L 133.397,-8.20941 L 133.277,-12.7866 L 133.273,-12.9261 L 132.998,-19.2105
 L 132.991,-19.3499 L 132.607,-25.6276 L 132.597,-25.767 L 132.104,-32.0384 L 132.091,-32.1775 L 131.489,-38.4375
 L 131.474,-38.5763 L 130.762,-44.8261 L 130.745,-44.9647 L 129.924,-51.2016 L 129.904,-51.3399 L 128.975,-57.5596
 L 128.953,-57.6975 L 127.915,-63.902 L 127.891,-64.0395 L 126.744,-70.2236 L 126.718,-70.3607 L 125.464,-76.5244
 L 125.435,-76.661 L 124.073,-82.8023 L 124.042,-82.9384 L 122.573,-89.0546 L 122.54,-89.19 L 120.965,-95.2789
 L 120.929,-95.4138 L 119.248,-101.475 L 119.209,-101.609 L 117.423,-107.641 L 117.382,-107.774 L 115.491,-113.772
 L 115.448,-113.905 L 113.451,-119.871 L 113.406,-120.003 L 111.307,-125.931 L 111.259,-126.063 L 109.056,-131.954
 L 109.006,-132.085 L 106.701,-137.937 L 106.648,-138.066 L 104.896,-142.297 L 103.588,-144.431 L 101.685,-146.057
 L 101.683,-146.058 L 101.683,-146.058 L 101.683,-146.058 L 101.682,-146.058 L 101.682,-146.058 L 101.68,-146.059
 L 101.678,-146.06 L 101.675,-146.061 L 101.673,-146.062 L 101.672,-146.062 L 101.672,-146.062 L 101.669,-146.064
 L 101.668,-146.064 L 99.3726,-147.015 L 99.3705,-147.015 L 99.3704,-147.015 L 99.3542,-147.016 L 96.8774,-147.211
 L 96.8761,-147.211 L 96.858,-147.206 L 94.2511,-146.544 L 94.2511,-146.544 L 93.959,-146.414 L 40.1038,-122.436
 L 38.393,-121.674 L 37.29,-121.183 L 25.1152,-115.568 L -17.1546,-96.0705 L -17.3468,-95.8331 L -17.6573,-95.4496
 L -17.6678,-95.4367 L -17.6736,-95.4295 L -17.7329,-95.3562 L -18.1676,-94.8194 L -18.2357,-94.642 L -18.2368,-94.6392
 L -18.2436,-94.6213 L -18.2437,-94.6212 L -18.2438,-94.6209 L -18.2448,-94.6184 L -19.041,-92.5442 L -19.0646,-92.4827
 L -19.0727,-92.3284 L -19.189,-90.1097 z
" stroke="black" fill="lightgray" stroke-width="0.5"/>
</svg>
