<?xml version="1.0" standalone="no"?>
<!DOCTYPE svg PUBLIC "-//W3C//DTD SVG 1.1//EN" "http://www.w3.org/Graphics/SVG/1.1/DTD/svg11.dtd">
<svg width="154mm" height="148mm" viewBox="-20 -148 154 148" xmlns="http://www.w3.org/2000/svg" version="1.1">
<title>OpenSCAD Model</title>
<path d="
M -19.1956,-89.9832 L -18.6305,-87.758 L -18.4948,-87.4304 L -18.4851,-87.4057 L -18.4825,-87.3993 L -17.0228,-83.6934
 L -17.0052,-83.6487 L -17.0021,-83.641 L -17.0019,-83.6404 L -15.6068,-79.9091 L -15.5896,-79.8629 L -15.5859,-79.8532
 L -15.5824,-79.8438 L -15.5752,-79.8245 L -14.2456,-76.0698 L -14.2361,-76.0431 L -14.2323,-76.0324 L -14.2178,-75.9913
 L -14.2155,-75.9849 L -12.9514,-72.2069 L -12.9414,-72.1769 L -12.9374,-72.165 L -12.9343,-72.1558 L -12.9252,-72.1286
 L -12.923,-72.122 L -11.7248,-68.3218 L -11.7212,-68.3102 L -11.7189,-68.3029 L -11.6982,-68.2374 L -10.5412,-64.3316
 L -9.45259,-60.4062 L -8.43266,-56.4624 L -7.48183,-52.5018 L -6.60028,-48.5254 L -5.78804,-44.5332 L -5.04576,-40.5282
 L -4.37332,-36.5099 L -3.77135,-32.4819 L -3.23972,-28.4438 L -3.23194,-28.3755 L -3.2297,-28.3559 L -2.77847,-24.3956
 L -2.77841,-24.3949 L -2.77781,-24.3887 L -2.77685,-24.3788 L -2.77413,-24.3505 L -2.77029,-24.3107 L -2.76989,-24.3065
 L -2.38817,-20.3419 L -2.38764,-20.3352 L -2.38669,-20.3231 L -2.38332,-20.2803 L -2.38235,-20.268 L -2.3811,-20.2521
 L -2.0685,-16.2802 L -2.06663,-16.2496 L -2.06351,-16.1986 L -1.82039,-12.2236 L -1.81987,-12.2151 L -1.81984,-12.2144
 L -1.8177,-12.1654 L -1.81738,-12.1582 L -1.64364,-8.17899 L -1.64218,-8.14558 L -1.63289,-7.79071 L -1.17679,-5.32967
 L -1.02677,-5.05336 L -0.235073,-3.59515 L 0.0174704,-3.13 L 0.105533,-3.04643 L 1.3091,-1.90426 L 1.31626,-1.89746
 L 1.36431,-1.85186 L 1.3646,-1.85158 L 1.36469,-1.8515 L 1.37526,-1.84147 L 1.83302,-1.40706 L 3.59631,-0.565984
 L 3.60545,-0.561627 L 3.6855,-0.523441 L 26.76,-0.216681 L 43.0585,-0 L 125.4,-0 L 127.872,-0.391541
 L 130.053,-1.50265 L 130.1,-1.52687 L 130.102,-1.52786 L 131.833,-3.25849 L 131.839,-3.26422 L 131.839,-3.26455
 L 131.839,-3.26486 L 131.846,-3.27211 L 131.853,-3.27876 L 131.853,-3.27908 L 131.854,-3.27936 L 131.859,-3.28517
 L 131.864,-3.28991 L 131.864,-3.29015 L 131.865,-3.29033 L 131.868,-3.29382 L 131.87,-3.29596 L 131.87,-3.29607
 L 131.871,-3.29679 L 131.871,-3.29683 L 131.872,-3.29771 L 133.008,-5.52786 L 133.397,-8.20941 L 133.277,-12.7866
 L 133.273,-12.9261 L 132.998,-19.2105 L 132.991,-19.3499 L 132.607,-25.6276 L 132.597,-25.767 L 132.104,-32.0384
 L 132.091,-32.1775 L 131.489,-38.4375 L 131.474,-38.5763 L 130.762,-44.8261 L 130.745,-44.9647 L 129.924,-51.2016
 L 129.904,-51.3399 L 128.975,-57.5596 L 128.953,-57.6975 L 127.915,-63.902 L 127.891,-64.0395 L 126.744,-70.2236
 L 126.718,-70.3607 L 125.464,-76.5244 L 125.435,-76.661 L 124.073,-82.8023 L 124.042,-82.9384 L 122.573,-89.0546
 L 122.54,-89.19 L 120.965,-95.2789 L 120.929,-95.4138 L 119.248,-101.475 L 119.209,-101.609 L 117.423,-107.641
 L 117.382,-107.774 L 115.491,-113.772 L 115.448,-113.905 L 113.451,-119.871 L 113.406,-120.003 L 111.307,-125.931
 L 111.259,-126.063 L 109.056,-131.954 L 109.006,-132.085 L 106.701,-137.937 L 106.648,-138.066 L 104.896,-142.297
 L 103.588,-144.431 L 101.685,-146.057 L 101.68,-146.059 L 101.679,-146.059 L 101.679,-146.059 L 101.676,-146.061
 L 101.676,-146.061 L 101.671,-146.063 L 101.665,-146.065 L 101.656,-146.069 L 101.648,-146.072 L 101.647,-146.073
 L 101.647,-146.073 L 101.637,-146.077 L 101.634,-146.078 L 99.3726,-147.015 L 99.3664,-147.015 L 99.366,-147.016
 L 99.3173,-147.019 L 96.8774,-147.211 L 96.8736,-147.21 L 96.8191,-147.196 L 94.2511,-146.544 L 94.2511,-146.544
 L 93.3749,-146.154 L 40.3225,-122.533 L 38.6373,-121.783 L 36.8473,-120.987 L 31.0597,-118.409 L 26.6527,-116.447
 L 20.7544,-113.821 L 19.0273,-113.052 L -5.62375,-101.682 L -16.773,-96.5392 L -16.7763,-96.5377 L -16.8635,-96.4299
 L -18.1676,-94.8194 L -18.3719,-94.2872 L -18.3751,-94.2789 L -18.3957,-94.2252 L -18.3959,-94.2248 L -18.3962,-94.224
 L -18.3991,-94.2164 L -18.9937,-92.6673 L -19.0646,-92.4827 L -19.0889,-92.0198 L -19.1757,-90.3628 z
" stroke="black" fill="lightgray" stroke-width="0.5"/>
</svg>
