<svg xmlns="http://www.w3.org/2000/svg" width="1400" height="900" viewBox="0 0 1400 900">
<rect x="0" y="0" width="100%" height="100%" fill="white"/>
<g stroke="#111" stroke-width="1.2" fill="none" stroke-linecap="round">
<line x1="1313" y1="755" x2="1303" y2="755"/>
<line x1="1275" y1="755" x2="1303" y2="755"/>
<line x1="88" y1="755" x2="87" y2="755"/>
<line x1="90" y1="755" x2="88" y2="755"/>
<line x1="90" y1="755" x2="90" y2="755"/>
<line x1="90" y1="755" x2="94" y2="755"/>
<line x1="1313" y1="199" x2="1313" y2="755"/>
<line x1="1313" y1="199" x2="1313" y2="101"/>
<line x1="87" y1="752" x2="87" y2="749"/>
<line x1="87" y1="752" x2="87" y2="755"/>
<line x1="87" y1="394" x2="87" y2="101"/>
<line x1="87" y1="394" x2="87" y2="716"/>
<line x1="86" y1="748" x2="87" y2="749"/>
<line x1="83" y1="745" x2="86" y2="748"/>
<line x1="81" y1="743" x2="83" y2="745"/>
<line x1="78" y1="741" x2="81" y2="743"/>
<line x1="75" y1="738" x2="78" y2="741"/>
<line x1="73" y1="736" x2="75" y2="738"/>
<line x1="70" y1="734" x2="73" y2="736"/>
<line x1="70" y1="734" x2="68" y2="732"/>
<line x1="95" y1="755" x2="95" y2="756"/>
<line x1="95" y1="755" x2="95" y2="755"/>
<line x1="95" y1="755" x2="94" y2="755"/>
<line x1="68" y1="732" x2="68" y2="732"/>
<line x1="67" y1="731" x2="68" y2="732"/>
<line x1="65" y1="729" x2="67" y2="731"/>
<line x1="62" y1="727" x2="65" y2="729"/>
<line x1="59" y1="724" x2="62" y2="727"/>
<line x1="51" y1="717" x2="59" y2="724"/>
<line x1="51" y1="717" x2="51" y2="717"/>
<line x1="51" y1="717" x2="51" y2="717"/>
<line x1="51" y1="716" x2="51" y2="717"/>
<line x1="51" y1="716" x2="50" y2="716"/>
<line x1="50" y1="716" x2="50" y2="716"/>
<line x1="50" y1="716" x2="50" y2="716"/>
<line x1="1274" y1="756" x2="1173" y2="756"/>
<line x1="1173" y1="756" x2="1171" y2="756"/>
<line x1="1171" y1="756" x2="1021" y2="756"/>
<line x1="1021" y1="756" x2="1020" y2="756"/>
<line x1="1020" y1="756" x2="907" y2="756"/>
<line x1="907" y1="756" x2="906" y2="756"/>
<line x1="906" y1="756" x2="818" y2="756"/>
<line x1="818" y1="756" x2="817" y2="756"/>
<line x1="817" y1="756" x2="746" y2="756"/>
<line x1="746" y1="756" x2="746" y2="756"/>
<line x1="746" y1="756" x2="688" y2="756"/>
<line x1="688" y1="756" x2="687" y2="756"/>
<line x1="687" y1="756" x2="639" y2="756"/>
<line x1="105" y1="756" x2="639" y2="756"/>
<line x1="105" y1="756" x2="95" y2="756"/>
<line x1="86" y1="716" x2="87" y2="716"/>
<line x1="83" y1="716" x2="86" y2="716"/>
<line x1="81" y1="716" x2="83" y2="716"/>
<line x1="78" y1="716" x2="81" y2="716"/>
<line x1="75" y1="716" x2="78" y2="716"/>
<line x1="73" y1="716" x2="75" y2="716"/>
<line x1="70" y1="716" x2="73" y2="716"/>
<line x1="67" y1="716" x2="70" y2="716"/>
<line x1="51" y1="716" x2="51" y2="716"/>
<line x1="65" y1="716" x2="67" y2="716"/>
<line x1="62" y1="716" x2="65" y2="716"/>
<line x1="59" y1="716" x2="62" y2="716"/>
<line x1="57" y1="716" x2="59" y2="716"/>
<line x1="54" y1="716" x2="57" y2="716"/>
<line x1="51" y1="716" x2="54" y2="716"/>
<line x1="51" y1="716" x2="51" y2="716"/>
<line x1="51" y1="716" x2="50" y2="716"/>
<line x1="1274" y1="755" x2="1275" y2="755"/>
<line x1="1274" y1="755" x2="1274" y2="756"/>
<line x1="1287" y1="799" x2="1360" y2="799"/>
<line x1="1287" y1="799" x2="1285" y2="799"/>
<line x1="1285" y1="799" x2="1211" y2="799"/>
<line x1="1211" y1="799" x2="1210" y2="799"/>
<line x1="1210" y1="799" x2="1151" y2="799"/>
<line x1="1151" y1="799" x2="1150" y2="799"/>
<line x1="1150" y1="799" x2="1103" y2="799"/>
<line x1="1103" y1="799" x2="1102" y2="799"/>
<line x1="1102" y1="799" x2="1063" y2="799"/>
<line x1="1063" y1="799" x2="1062" y2="799"/>
<line x1="1062" y1="799" x2="1028" y2="799"/>
<line x1="1028" y1="799" x2="1028" y2="799"/>
<line x1="1028" y1="799" x2="645" y2="799"/>
<line x1="48" y1="799" x2="40" y2="799"/>
<line x1="103" y1="799" x2="48" y2="799"/>
<line x1="148" y1="799" x2="103" y2="799"/>
<line x1="148" y1="799" x2="645" y2="799"/>
<line x1="51" y1="101" x2="87" y2="101"/>
<line x1="51" y1="101" x2="40" y2="101"/>
<line x1="1332" y1="101" x2="1360" y2="101"/>
<line x1="1331" y1="101" x2="1313" y2="101"/>
<line x1="1332" y1="101" x2="1331" y2="101"/>
<line x1="1360" y1="260" x2="1360" y2="101"/>
<line x1="1360" y1="260" x2="1360" y2="799"/>
<line x1="40" y1="193" x2="40" y2="799"/>
<line x1="40" y1="193" x2="40" y2="101"/>
</g></svg>