<svg xmlns="http://www.w3.org/2000/svg" width="1400" height="900" viewBox="0 0 1400 900">
<rect x="0" y="0" width="100%" height="100%" fill="white"/>
<g stroke="#111" stroke-width="1.2" fill="none" stroke-linecap="round">
<line x1="1092" y1="858" x2="1092" y2="858"/>
<line x1="1092" y1="858" x2="1092" y2="858"/>
<line x1="1092" y1="858" x2="1092" y2="858"/>
<line x1="1092" y1="858" x2="1092" y2="858"/>
<line x1="1092" y1="858" x2="1092" y2="858"/>
<line x1="1093" y1="858" x2="1092" y2="858"/>
<line x1="1093" y1="858" x2="1093" y2="858"/>
<line x1="1093" y1="858" x2="1093" y2="858"/>
<line x1="1093" y1="858" x2="1093" y2="858"/>
<line x1="1093" y1="858" x2="1103" y2="854"/>
<line x1="1103" y1="854" x2="1103" y2="854"/>
<line x1="1103" y1="854" x2="1103" y2="854"/>
<line x1="1112" y1="847" x2="1103" y2="854"/>
<line x1="1112" y1="847" x2="1112" y2="847"/>
<line x1="1112" y1="847" x2="1112" y2="847"/>
<line x1="1112" y1="847" x2="1112" y2="847"/>
<line x1="1112" y1="847" x2="1112" y2="847"/>
<line x1="1112" y1="847" x2="1112" y2="847"/>
<line x1="1119" y1="838" x2="1119" y2="838"/>
<line x1="1119" y1="838" x2="1119" y2="838"/>
<line x1="1119" y1="838" x2="1119" y2="838"/>
<line x1="1119" y1="838" x2="1119" y2="838"/>
<line x1="1119" y1="838" x2="1119" y2="838"/>
<line x1="1119" y1="838" x2="1119" y2="838"/>
<line x1="1119" y1="838" x2="1119" y2="838"/>
<line x1="1119" y1="838" x2="1119" y2="838"/>
<line x1="1119" y1="838" x2="1119" y2="838"/>
<line x1="1119" y1="838" x2="1112" y2="847"/>
<line x1="1123" y1="828" x2="1124" y2="827"/>
<line x1="1123" y1="828" x2="1119" y2="838"/>
<line x1="1125" y1="815" x2="1125" y2="814"/>
<line x1="1125" y1="815" x2="1124" y2="827"/>
<line x1="1124" y1="790" x2="1124" y2="789"/>
<line x1="1124" y1="790" x2="1125" y2="814"/>
<line x1="1124" y1="788" x2="1124" y2="788"/>
<line x1="1124" y1="788" x2="1124" y2="789"/>
<line x1="1123" y1="755" x2="1123" y2="753"/>
<line x1="1123" y1="755" x2="1124" y2="788"/>
<line x1="1123" y1="752" x2="1123" y2="752"/>
<line x1="1123" y1="752" x2="1123" y2="753"/>
<line x1="1121" y1="719" x2="1121" y2="717"/>
<line x1="1121" y1="719" x2="1123" y2="752"/>
<line x1="1121" y1="716" x2="1121" y2="716"/>
<line x1="1121" y1="716" x2="1121" y2="717"/>
<line x1="1118" y1="683" x2="1118" y2="681"/>
<line x1="1118" y1="683" x2="1121" y2="716"/>
<line x1="1118" y1="681" x2="1118" y2="681"/>
<line x1="1118" y1="681" x2="1118" y2="681"/>
<line x1="1115" y1="648" x2="1114" y2="646"/>
<line x1="1115" y1="648" x2="1118" y2="681"/>
<line x1="1114" y1="645" x2="1114" y2="645"/>
<line x1="1114" y1="645" x2="1114" y2="646"/>
<line x1="1111" y1="612" x2="1110" y2="610"/>
<line x1="1111" y1="612" x2="1114" y2="645"/>
<line x1="1110" y1="610" x2="1110" y2="609"/>
<line x1="1110" y1="610" x2="1110" y2="610"/>
<line x1="1106" y1="577" x2="1106" y2="575"/>
<line x1="1106" y1="577" x2="1110" y2="609"/>
<line x1="1106" y1="574" x2="1106" y2="574"/>
<line x1="1106" y1="574" x2="1106" y2="575"/>
<line x1="1101" y1="541" x2="1100" y2="539"/>
<line x1="1101" y1="541" x2="1106" y2="574"/>
<line x1="1100" y1="539" x2="1100" y2="539"/>
<line x1="1100" y1="539" x2="1100" y2="539"/>
<line x1="1095" y1="506" x2="1095" y2="504"/>
<line x1="1095" y1="506" x2="1100" y2="539"/>
<line x1="1094" y1="503" x2="1094" y2="503"/>
<line x1="1094" y1="503" x2="1095" y2="504"/>
<line x1="1088" y1="471" x2="1088" y2="469"/>
<line x1="1088" y1="471" x2="1094" y2="503"/>
<line x1="1088" y1="468" x2="1088" y2="468"/>
<line x1="1088" y1="468" x2="1088" y2="469"/>
<line x1="1081" y1="436" x2="1081" y2="434"/>
<line x1="1081" y1="436" x2="1088" y2="468"/>
<line x1="1081" y1="433" x2="1081" y2="433"/>
<line x1="1081" y1="433" x2="1081" y2="434"/>
<line x1="1074" y1="401" x2="1073" y2="399"/>
<line x1="1074" y1="401" x2="1081" y2="433"/>
<line x1="1073" y1="398" x2="1073" y2="398"/>
<line x1="1073" y1="398" x2="1073" y2="399"/>
<line x1="1065" y1="366" x2="1065" y2="364"/>
<line x1="1065" y1="366" x2="1073" y2="398"/>
<line x1="1065" y1="363" x2="1065" y2="363"/>
<line x1="1065" y1="363" x2="1065" y2="364"/>
<line x1="1056" y1="331" x2="1056" y2="329"/>
<line x1="1056" y1="331" x2="1065" y2="363"/>
<line x1="1056" y1="328" x2="1056" y2="328"/>
<line x1="1056" y1="328" x2="1056" y2="329"/>
<line x1="1047" y1="296" x2="1046" y2="295"/>
<line x1="1047" y1="296" x2="1056" y2="328"/>
<line x1="1046" y1="294" x2="1046" y2="294"/>
<line x1="1046" y1="294" x2="1046" y2="295"/>
<line x1="1037" y1="262" x2="1036" y2="260"/>
<line x1="1037" y1="262" x2="1046" y2="294"/>
<line x1="1036" y1="260" x2="1036" y2="259"/>
<line x1="1036" y1="260" x2="1036" y2="260"/>
<line x1="1026" y1="228" x2="1025" y2="226"/>
<line x1="1026" y1="228" x2="1036" y2="259"/>
<line x1="1025" y1="225" x2="1025" y2="225"/>
<line x1="1025" y1="225" x2="1025" y2="226"/>
<line x1="1015" y1="194" x2="1014" y2="192"/>
<line x1="1015" y1="194" x2="1025" y2="225"/>
<line x1="1014" y1="191" x2="1014" y2="191"/>
<line x1="1014" y1="191" x2="1014" y2="192"/>
<line x1="1003" y1="160" x2="1002" y2="158"/>
<line x1="1003" y1="160" x2="1014" y2="191"/>
<line x1="1002" y1="158" x2="1002" y2="158"/>
<line x1="1002" y1="158" x2="1002" y2="158"/>
<line x1="990" y1="127" x2="989" y2="125"/>
<line x1="990" y1="127" x2="1002" y2="158"/>
<line x1="989" y1="124" x2="989" y2="124"/>
<line x1="989" y1="124" x2="989" y2="125"/>
<line x1="977" y1="93" x2="976" y2="91"/>
<line x1="977" y1="93" x2="989" y2="124"/>
<line x1="976" y1="91" x2="976" y2="91"/>
<line x1="976" y1="91" x2="976" y2="91"/>
<line x1="967" y1="68" x2="966" y2="67"/>
<line x1="967" y1="68" x2="976" y2="91"/>
<line x1="961" y1="58" x2="960" y2="57"/>
<line x1="961" y1="58" x2="966" y2="67"/>
<line x1="953" y1="49" x2="952" y2="49"/>
<line x1="953" y1="49" x2="960" y2="57"/>
<line x1="952" y1="49" x2="952" y2="49"/>
<line x1="952" y1="49" x2="952" y2="49"/>
<line x1="952" y1="49" x2="952" y2="49"/>
<line x1="952" y1="49" x2="952" y2="49"/>
<line x1="952" y1="49" x2="952" y2="49"/>
<line x1="952" y1="48" x2="952" y2="49"/>
<line x1="952" y1="48" x2="942" y2="43"/>
<line x1="942" y1="43" x2="942" y2="43"/>
<line x1="942" y1="43" x2="942" y2="43"/>
<line x1="942" y1="43" x2="942" y2="43"/>
<line x1="942" y1="43" x2="942" y2="43"/>
<line x1="942" y1="43" x2="942" y2="43"/>
<line x1="931" y1="40" x2="942" y2="43"/>
<line x1="931" y1="40" x2="931" y2="40"/>
<line x1="931" y1="40" x2="931" y2="40"/>
<line x1="931" y1="40" x2="931" y2="40"/>
<line x1="931" y1="40" x2="931" y2="40"/>
<line x1="920" y1="40" x2="931" y2="40"/>
<line x1="920" y1="40" x2="920" y2="40"/>
<line x1="920" y1="40" x2="920" y2="40"/>
<line x1="920" y1="40" x2="920" y2="40"/>
<line x1="920" y1="40" x2="920" y2="40"/>
<line x1="920" y1="40" x2="920" y2="40"/>
<line x1="920" y1="40" x2="919" y2="40"/>
<line x1="919" y1="40" x2="919" y2="40"/>
<line x1="919" y1="40" x2="919" y2="40"/>
<line x1="919" y1="40" x2="919" y2="40"/>
<line x1="919" y1="40" x2="919" y2="40"/>
<line x1="919" y1="40" x2="907" y2="43"/>
<line x1="572" y1="192" x2="601" y2="180"/>
<line x1="312" y1="308" x2="301" y2="313"/>
<line x1="433" y1="254" x2="312" y2="308"/>
<line x1="490" y1="229" x2="433" y2="254"/>
<line x1="521" y1="215" x2="490" y2="229"/>
<line x1="543" y1="205" x2="521" y2="215"/>
<line x1="572" y1="192" x2="543" y2="205"/>
<line x1="612" y1="175" x2="601" y2="180"/>
<line x1="621" y1="171" x2="907" y2="43"/>
<line x1="621" y1="171" x2="612" y2="175"/>
<line x1="301" y1="313" x2="301" y2="313"/>
<line x1="300" y1="314" x2="301" y2="313"/>
<line x1="300" y1="314" x2="291" y2="319"/>
<line x1="291" y1="320" x2="290" y2="321"/>
<line x1="290" y1="321" x2="287" y2="323"/>
<line x1="287" y1="323" x2="287" y2="323"/>
<line x1="283" y1="328" x2="287" y2="323"/>
<line x1="291" y1="320" x2="291" y2="319"/>
<line x1="283" y1="328" x2="283" y2="328"/>
<line x1="283" y1="328" x2="283" y2="328"/>
<line x1="283" y1="328" x2="283" y2="328"/>
<line x1="283" y1="328" x2="283" y2="328"/>
<line x1="283" y1="328" x2="283" y2="328"/>
<line x1="283" y1="328" x2="283" y2="328"/>
<line x1="283" y1="328" x2="283" y2="328"/>
<line x1="283" y1="328" x2="283" y2="328"/>
<line x1="283" y1="328" x2="283" y2="328"/>
<line x1="283" y1="328" x2="283" y2="328"/>
<line x1="283" y1="328" x2="283" y2="328"/>
<line x1="283" y1="328" x2="278" y2="338"/>
<line x1="283" y1="328" x2="283" y2="328"/>
<line x1="278" y1="338" x2="277" y2="341"/>
<line x1="277" y1="341" x2="277" y2="341"/>
<line x1="277" y1="341" x2="277" y2="341"/>
<line x1="277" y1="342" x2="277" y2="341"/>
<line x1="277" y1="341" x2="277" y2="341"/>
<line x1="275" y1="356" x2="275" y2="352"/>
<line x1="275" y1="356" x2="275" y2="356"/>
<line x1="275" y1="356" x2="275" y2="356"/>
<line x1="275" y1="356" x2="275" y2="356"/>
<line x1="275" y1="356" x2="275" y2="361"/>
<line x1="275" y1="361" x2="275" y2="361"/>
<line x1="278" y1="371" x2="275" y2="361"/>
<line x1="278" y1="371" x2="278" y2="371"/>
<line x1="278" y1="371" x2="279" y2="373"/>
<line x1="278" y1="371" x2="278" y2="371"/>
<line x1="279" y1="373" x2="279" y2="373"/>
<line x1="279" y1="373" x2="279" y2="373"/>
<line x1="287" y1="393" x2="279" y2="373"/>
<line x1="287" y1="393" x2="287" y2="394"/>
<line x1="287" y1="394" x2="287" y2="394"/>
<line x1="287" y1="394" x2="287" y2="394"/>
<line x1="295" y1="414" x2="287" y2="394"/>
<line x1="295" y1="414" x2="295" y2="415"/>
<line x1="295" y1="415" x2="295" y2="415"/>
<line x1="295" y1="415" x2="295" y2="415"/>
<line x1="295" y1="415" x2="295" y2="415"/>
<line x1="302" y1="435" x2="295" y2="415"/>
<line x1="302" y1="435" x2="302" y2="436"/>
<line x1="302" y1="436" x2="302" y2="436"/>
<line x1="302" y1="436" x2="303" y2="437"/>
<line x1="303" y1="437" x2="303" y2="437"/>
<line x1="309" y1="457" x2="303" y2="437"/>
<line x1="309" y1="457" x2="310" y2="457"/>
<line x1="310" y1="457" x2="310" y2="458"/>
<line x1="310" y1="458" x2="310" y2="458"/>
<line x1="310" y1="458" x2="310" y2="458"/>
<line x1="310" y1="458" x2="310" y2="458"/>
<line x1="316" y1="479" x2="310" y2="458"/>
<line x1="316" y1="479" x2="316" y2="479"/>
<line x1="316" y1="479" x2="316" y2="479"/>
<line x1="316" y1="479" x2="317" y2="480"/>
<line x1="323" y1="500" x2="317" y2="480"/>
<line x1="323" y1="500" x2="323" y2="502"/>
<line x1="329" y1="522" x2="323" y2="502"/>
<line x1="329" y1="522" x2="329" y2="523"/>
<line x1="335" y1="544" x2="329" y2="523"/>
<line x1="335" y1="544" x2="335" y2="545"/>
<line x1="340" y1="566" x2="335" y2="545"/>
<line x1="340" y1="566" x2="340" y2="567"/>
<line x1="345" y1="588" x2="340" y2="567"/>
<line x1="345" y1="588" x2="345" y2="590"/>
<line x1="349" y1="611" x2="345" y2="590"/>
<line x1="349" y1="611" x2="350" y2="612"/>
<line x1="353" y1="633" x2="350" y2="612"/>
<line x1="353" y1="633" x2="354" y2="634"/>
<line x1="357" y1="655" x2="354" y2="634"/>
<line x1="357" y1="655" x2="357" y2="657"/>
<line x1="361" y1="678" x2="357" y2="657"/>
<line x1="361" y1="678" x2="361" y2="679"/>
<line x1="364" y1="700" x2="361" y2="679"/>
<line x1="364" y1="700" x2="364" y2="702"/>
<line x1="364" y1="702" x2="364" y2="703"/>
<line x1="364" y1="703" x2="366" y2="724"/>
<line x1="364" y1="703" x2="364" y2="703"/>
<line x1="366" y1="724" x2="366" y2="724"/>
<line x1="366" y1="724" x2="366" y2="724"/>
<line x1="366" y1="724" x2="366" y2="724"/>
<line x1="366" y1="725" x2="366" y2="724"/>
<line x1="366" y1="725" x2="366" y2="725"/>
<line x1="366" y1="725" x2="369" y2="747"/>
<line x1="366" y1="725" x2="366" y2="725"/>
<line x1="369" y1="747" x2="369" y2="747"/>
<line x1="369" y1="747" x2="369" y2="747"/>
<line x1="369" y1="748" x2="369" y2="747"/>
<line x1="369" y1="748" x2="369" y2="748"/>
<line x1="369" y1="748" x2="370" y2="769"/>
<line x1="369" y1="748" x2="369" y2="748"/>
<line x1="370" y1="770" x2="370" y2="769"/>
<line x1="370" y1="771" x2="370" y2="770"/>
<line x1="372" y1="792" x2="370" y2="771"/>
<line x1="372" y1="792" x2="372" y2="792"/>
<line x1="372" y1="792" x2="372" y2="792"/>
<line x1="372" y1="793" x2="372" y2="792"/>
<line x1="372" y1="793" x2="372" y2="793"/>
<line x1="373" y1="814" x2="372" y2="793"/>
<line x1="373" y1="814" x2="373" y2="815"/>
<line x1="373" y1="816" x2="373" y2="815"/>
<line x1="373" y1="816" x2="373" y2="817"/>
<line x1="373" y1="817" x2="373" y2="817"/>
<line x1="374" y1="828" x2="373" y2="817"/>
<line x1="374" y1="828" x2="375" y2="828"/>
<line x1="375" y1="828" x2="375" y2="828"/>
<line x1="375" y1="828" x2="376" y2="832"/>
<line x1="376" y1="832" x2="378" y2="835"/>
<line x1="376" y1="832" x2="376" y2="832"/>
<line x1="376" y1="832" x2="376" y2="832"/>
<line x1="376" y1="832" x2="376" y2="832"/>
<line x1="376" y1="832" x2="376" y2="832"/>
<line x1="384" y1="844" x2="383" y2="844"/>
<line x1="384" y1="845" x2="387" y2="848"/>
<line x1="384" y1="845" x2="384" y2="845"/>
<line x1="384" y1="845" x2="384" y2="844"/>
<line x1="395" y1="854" x2="387" y2="848"/>
<line x1="395" y1="854" x2="396" y2="854"/>
<line x1="396" y1="854" x2="396" y2="854"/>
<line x1="396" y1="854" x2="396" y2="854"/>
<line x1="396" y1="854" x2="396" y2="854"/>
<line x1="396" y1="854" x2="396" y2="854"/>
<line x1="396" y1="854" x2="396" y2="854"/>
<line x1="396" y1="854" x2="396" y2="854"/>
<line x1="396" y1="854" x2="396" y2="855"/>
<line x1="396" y1="855" x2="396" y2="855"/>
<line x1="396" y1="855" x2="396" y2="855"/>
<line x1="407" y1="859" x2="407" y2="859"/>
<line x1="405" y1="858" x2="407" y2="859"/>
<line x1="404" y1="858" x2="405" y2="858"/>
<line x1="404" y1="858" x2="404" y2="858"/>
<line x1="401" y1="856" x2="404" y2="858"/>
<line x1="401" y1="856" x2="396" y2="855"/>
<line x1="417" y1="860" x2="417" y2="860"/>
<line x1="416" y1="860" x2="417" y2="860"/>
<line x1="416" y1="860" x2="407" y2="859"/>
<line x1="429" y1="860" x2="417" y2="860"/>
<line x1="532" y1="860" x2="429" y2="860"/>
<line x1="562" y1="860" x2="532" y2="860"/>
<line x1="592" y1="860" x2="562" y2="860"/>
<line x1="658" y1="860" x2="592" y2="860"/>
<line x1="690" y1="860" x2="658" y2="860"/>
<line x1="714" y1="860" x2="690" y2="860"/>
<line x1="714" y1="860" x2="746" y2="860"/>
<line x1="757" y1="860" x2="746" y2="860"/>
<line x1="768" y1="860" x2="757" y2="860"/>
<line x1="768" y1="860" x2="1081" y2="860"/>
<line x1="1081" y1="860" x2="1081" y2="860"/>
<line x1="1081" y1="860" x2="1092" y2="858"/>
<line x1="1120" y1="779" x2="1120" y2="778"/>
<line x1="377" y1="811" x2="377" y2="806"/>
<line x1="377" y1="811" x2="377" y2="822"/>
<line x1="381" y1="800" x2="377" y2="800"/>
<line x1="381" y1="800" x2="386" y2="800"/>
<line x1="386" y1="800" x2="529" y2="795"/>
<line x1="1110" y1="778" x2="1115" y2="778"/>
<line x1="1115" y1="778" x2="1120" y2="778"/>
<line x1="1110" y1="778" x2="529" y2="795"/>
<line x1="1120" y1="786" x2="1120" y2="784"/>
<line x1="1120" y1="786" x2="1120" y2="787"/>
<line x1="455" y1="842" x2="527" y2="840"/>
<line x1="455" y1="842" x2="383" y2="844"/>
<line x1="1120" y1="784" x2="1120" y2="779"/>
<line x1="1120" y1="787" x2="1121" y2="817"/>
<line x1="377" y1="800" x2="377" y2="800"/>
<line x1="377" y1="800" x2="377" y2="800"/>
<line x1="377" y1="800" x2="377" y2="806"/>
<line x1="527" y1="840" x2="1121" y2="822"/>
<line x1="1121" y1="822" x2="1121" y2="820"/>
<line x1="1121" y1="822" x2="1121" y2="822"/>
<line x1="1120" y1="778" x2="1120" y2="778"/>
<line x1="378" y1="829" x2="377" y2="822"/>
<line x1="378" y1="829" x2="378" y2="835"/>
<line x1="1121" y1="820" x2="1121" y2="817"/>
<line x1="960" y1="64" x2="960" y2="62"/>
<line x1="960" y1="64" x2="961" y2="65"/>
<line x1="972" y1="104" x2="976" y2="102"/>
<line x1="972" y1="104" x2="967" y2="106"/>
<line x1="967" y1="106" x2="838" y2="159"/>
<line x1="821" y1="118" x2="277" y2="342"/>
<line x1="975" y1="101" x2="961" y2="65"/>
<line x1="975" y1="101" x2="976" y2="102"/>
<line x1="959" y1="62" x2="959" y2="62"/>
<line x1="288" y1="384" x2="286" y2="379"/>
<line x1="890" y1="90" x2="821" y2="118"/>
<line x1="890" y1="90" x2="954" y2="64"/>
<line x1="954" y1="64" x2="959" y2="62"/>
<line x1="282" y1="368" x2="277" y2="358"/>
<line x1="282" y1="368" x2="286" y2="379"/>
<line x1="960" y1="62" x2="959" y2="62"/>
<line x1="960" y1="62" x2="960" y2="62"/>
<line x1="976" y1="102" x2="976" y2="102"/>
<line x1="276" y1="354" x2="275" y2="352"/>
<line x1="276" y1="354" x2="277" y2="358"/>
<line x1="288" y1="385" x2="288" y2="385"/>
<line x1="288" y1="385" x2="288" y2="384"/>
<line x1="300" y1="380" x2="838" y2="159"/>
<line x1="297" y1="381" x2="297" y2="381"/>
<line x1="297" y1="381" x2="288" y2="385"/>
<line x1="300" y1="380" x2="297" y2="381"/>
</g></svg>