<svg xmlns="http://www.w3.org/2000/svg" width="1400" height="900" viewBox="0 0 1400 900">
<rect x="0" y="0" width="100%" height="100%" fill="white"/>
<g stroke="#111" stroke-width="1.2" fill="none" stroke-linecap="round">
<line x1="1092" y1="858" x2="1092" y2="858"/>
<line x1="1092" y1="858" x2="1092" y2="858"/>
<line x1="1092" y1="858" x2="1092" y2="858"/>
<line x1="1092" y1="858" x2="1092" y2="858"/>
<line x1="1092" y1="858" x2="1092" y2="858"/>
<line x1="1092" y1="858" x2="1092" y2="858"/>
<line x1="1093" y1="858" x2="1092" y2="858"/>
<line x1="1093" y1="858" x2="1093" y2="858"/>
<line x1="1093" y1="858" x2="1093" y2="858"/>
<line x1="1093" y1="858" x2="1103" y2="854"/>
<line x1="1103" y1="854" x2="1103" y2="854"/>
<line x1="1103" y1="854" x2="1103" y2="854"/>
<line x1="1112" y1="847" x2="1103" y2="854"/>
<line x1="1112" y1="847" x2="1112" y2="847"/>
<line x1="1112" y1="847" x2="1112" y2="847"/>
<line x1="1112" y1="847" x2="1112" y2="847"/>
<line x1="1112" y1="847" x2="1112" y2="847"/>
<line x1="1112" y1="847" x2="1112" y2="847"/>
<line x1="1119" y1="838" x2="1119" y2="838"/>
<line x1="1119" y1="838" x2="1119" y2="838"/>
<line x1="1119" y1="838" x2="1119" y2="838"/>
<line x1="1119" y1="838" x2="1119" y2="838"/>
<line x1="1119" y1="838" x2="1119" y2="838"/>
<line x1="1119" y1="838" x2="1119" y2="838"/>
<line x1="1119" y1="838" x2="1119" y2="838"/>
<line x1="1119" y1="838" x2="1119" y2="838"/>
<line x1="1119" y1="838" x2="1119" y2="838"/>
<line x1="1119" y1="838" x2="1112" y2="847"/>
<line x1="1123" y1="827" x2="1124" y2="827"/>
<line x1="1123" y1="827" x2="1119" y2="838"/>
<line x1="1125" y1="815" x2="1125" y2="814"/>
<line x1="1125" y1="815" x2="1124" y2="827"/>
<line x1="1124" y1="790" x2="1124" y2="789"/>
<line x1="1124" y1="790" x2="1125" y2="814"/>
<line x1="1124" y1="788" x2="1124" y2="788"/>
<line x1="1124" y1="788" x2="1124" y2="789"/>
<line x1="1123" y1="754" x2="1123" y2="753"/>
<line x1="1123" y1="754" x2="1124" y2="788"/>
<line x1="1123" y1="752" x2="1123" y2="752"/>
<line x1="1123" y1="752" x2="1123" y2="753"/>
<line x1="1121" y1="719" x2="1121" y2="717"/>
<line x1="1121" y1="719" x2="1123" y2="752"/>
<line x1="1121" y1="716" x2="1121" y2="716"/>
<line x1="1121" y1="716" x2="1121" y2="717"/>
<line x1="1118" y1="683" x2="1118" y2="681"/>
<line x1="1118" y1="683" x2="1121" y2="716"/>
<line x1="1118" y1="681" x2="1118" y2="681"/>
<line x1="1118" y1="681" x2="1118" y2="681"/>
<line x1="1115" y1="647" x2="1114" y2="646"/>
<line x1="1115" y1="647" x2="1118" y2="681"/>
<line x1="1114" y1="645" x2="1114" y2="645"/>
<line x1="1114" y1="645" x2="1114" y2="646"/>
<line x1="1111" y1="612" x2="1110" y2="610"/>
<line x1="1111" y1="612" x2="1114" y2="645"/>
<line x1="1110" y1="609" x2="1110" y2="609"/>
<line x1="1110" y1="609" x2="1110" y2="610"/>
<line x1="1106" y1="576" x2="1106" y2="575"/>
<line x1="1106" y1="576" x2="1110" y2="609"/>
<line x1="1106" y1="574" x2="1106" y2="574"/>
<line x1="1106" y1="574" x2="1106" y2="575"/>
<line x1="1101" y1="541" x2="1100" y2="539"/>
<line x1="1101" y1="541" x2="1106" y2="574"/>
<line x1="1100" y1="539" x2="1100" y2="539"/>
<line x1="1100" y1="539" x2="1100" y2="539"/>
<line x1="1095" y1="505" x2="1095" y2="504"/>
<line x1="1095" y1="505" x2="1100" y2="539"/>
<line x1="1094" y1="503" x2="1094" y2="503"/>
<line x1="1094" y1="503" x2="1095" y2="504"/>
<line x1="1088" y1="470" x2="1088" y2="469"/>
<line x1="1088" y1="470" x2="1094" y2="503"/>
<line x1="1088" y1="468" x2="1088" y2="468"/>
<line x1="1088" y1="468" x2="1088" y2="469"/>
<line x1="1081" y1="435" x2="1081" y2="434"/>
<line x1="1081" y1="435" x2="1088" y2="468"/>
<line x1="1081" y1="433" x2="1081" y2="433"/>
<line x1="1081" y1="433" x2="1081" y2="434"/>
<line x1="1073" y1="400" x2="1073" y2="399"/>
<line x1="1073" y1="400" x2="1081" y2="433"/>
<line x1="1073" y1="398" x2="1073" y2="398"/>
<line x1="1073" y1="398" x2="1073" y2="399"/>
<line x1="1065" y1="365" x2="1065" y2="364"/>
<line x1="1065" y1="365" x2="1073" y2="398"/>
<line x1="1065" y1="363" x2="1065" y2="363"/>
<line x1="1065" y1="363" x2="1065" y2="364"/>
<line x1="1056" y1="331" x2="1056" y2="329"/>
<line x1="1056" y1="331" x2="1065" y2="363"/>
<line x1="1056" y1="328" x2="1056" y2="328"/>
<line x1="1056" y1="328" x2="1056" y2="329"/>
<line x1="1047" y1="296" x2="1046" y2="295"/>
<line x1="1047" y1="296" x2="1056" y2="328"/>
<line x1="1046" y1="294" x2="1046" y2="294"/>
<line x1="1046" y1="294" x2="1046" y2="295"/>
<line x1="1036" y1="262" x2="1036" y2="260"/>
<line x1="1036" y1="262" x2="1046" y2="294"/>
<line x1="1036" y1="260" x2="1036" y2="259"/>
<line x1="1036" y1="260" x2="1036" y2="260"/>
<line x1="1026" y1="227" x2="1025" y2="226"/>
<line x1="1026" y1="227" x2="1036" y2="259"/>
<line x1="1025" y1="225" x2="1025" y2="225"/>
<line x1="1025" y1="225" x2="1025" y2="226"/>
<line x1="1014" y1="193" x2="1014" y2="192"/>
<line x1="1014" y1="193" x2="1025" y2="225"/>
<line x1="1014" y1="191" x2="1014" y2="191"/>
<line x1="1014" y1="191" x2="1014" y2="192"/>
<line x1="1002" y1="160" x2="1002" y2="158"/>
<line x1="1002" y1="160" x2="1014" y2="191"/>
<line x1="1002" y1="158" x2="1002" y2="158"/>
<line x1="1002" y1="158" x2="1002" y2="158"/>
<line x1="990" y1="126" x2="989" y2="125"/>
<line x1="990" y1="126" x2="1002" y2="158"/>
<line x1="989" y1="124" x2="989" y2="124"/>
<line x1="989" y1="124" x2="989" y2="125"/>
<line x1="977" y1="93" x2="976" y2="91"/>
<line x1="977" y1="93" x2="989" y2="124"/>
<line x1="976" y1="91" x2="976" y2="91"/>
<line x1="976" y1="91" x2="976" y2="91"/>
<line x1="967" y1="68" x2="966" y2="67"/>
<line x1="967" y1="68" x2="976" y2="91"/>
<line x1="961" y1="57" x2="960" y2="57"/>
<line x1="961" y1="57" x2="966" y2="67"/>
<line x1="953" y1="49" x2="952" y2="49"/>
<line x1="953" y1="49" x2="960" y2="57"/>
<line x1="952" y1="49" x2="952" y2="49"/>
<line x1="952" y1="49" x2="952" y2="49"/>
<line x1="952" y1="49" x2="952" y2="49"/>
<line x1="952" y1="49" x2="952" y2="49"/>
<line x1="952" y1="49" x2="952" y2="49"/>
<line x1="952" y1="49" x2="952" y2="49"/>
<line x1="952" y1="49" x2="942" y2="43"/>
<line x1="942" y1="43" x2="942" y2="43"/>
<line x1="942" y1="43" x2="942" y2="43"/>
<line x1="942" y1="43" x2="942" y2="43"/>
<line x1="942" y1="43" x2="942" y2="43"/>
<line x1="942" y1="43" x2="942" y2="43"/>
<line x1="931" y1="40" x2="942" y2="43"/>
<line x1="931" y1="40" x2="931" y2="40"/>
<line x1="931" y1="40" x2="931" y2="40"/>
<line x1="931" y1="40" x2="931" y2="40"/>
<line x1="931" y1="40" x2="931" y2="40"/>
<line x1="920" y1="40" x2="931" y2="40"/>
<line x1="920" y1="40" x2="920" y2="40"/>
<line x1="920" y1="40" x2="920" y2="40"/>
<line x1="920" y1="40" x2="920" y2="40"/>
<line x1="920" y1="40" x2="920" y2="40"/>
<line x1="920" y1="40" x2="919" y2="40"/>
<line x1="919" y1="40" x2="919" y2="40"/>
<line x1="919" y1="40" x2="919" y2="40"/>
<line x1="919" y1="40" x2="919" y2="40"/>
<line x1="919" y1="40" x2="919" y2="40"/>
<line x1="919" y1="40" x2="919" y2="40"/>
<line x1="919" y1="40" x2="907" y2="43"/>
<line x1="576" y1="191" x2="596" y2="182"/>
<line x1="312" y1="308" x2="301" y2="313"/>
<line x1="435" y1="253" x2="312" y2="308"/>
<line x1="493" y1="228" x2="435" y2="253"/>
<line x1="524" y1="214" x2="493" y2="228"/>
<line x1="547" y1="204" x2="524" y2="214"/>
<line x1="576" y1="191" x2="547" y2="204"/>
<line x1="607" y1="177" x2="596" y2="182"/>
<line x1="617" y1="172" x2="907" y2="43"/>
<line x1="617" y1="172" x2="607" y2="177"/>
<line x1="301" y1="313" x2="301" y2="313"/>
<line x1="300" y1="314" x2="301" y2="313"/>
<line x1="300" y1="314" x2="291" y2="319"/>
<line x1="291" y1="319" x2="290" y2="321"/>
<line x1="290" y1="321" x2="288" y2="323"/>
<line x1="288" y1="323" x2="287" y2="323"/>
<line x1="283" y1="328" x2="287" y2="323"/>
<line x1="291" y1="319" x2="291" y2="319"/>
<line x1="283" y1="328" x2="283" y2="328"/>
<line x1="283" y1="328" x2="283" y2="328"/>
<line x1="283" y1="328" x2="283" y2="328"/>
<line x1="283" y1="328" x2="283" y2="328"/>
<line x1="283" y1="328" x2="283" y2="328"/>
<line x1="283" y1="328" x2="283" y2="328"/>
<line x1="283" y1="328" x2="283" y2="328"/>
<line x1="283" y1="328" x2="283" y2="328"/>
<line x1="283" y1="328" x2="283" y2="328"/>
<line x1="283" y1="328" x2="283" y2="328"/>
<line x1="283" y1="328" x2="283" y2="328"/>
<line x1="283" y1="328" x2="278" y2="338"/>
<line x1="283" y1="328" x2="283" y2="328"/>
<line x1="278" y1="338" x2="277" y2="340"/>
<line x1="277" y1="340" x2="277" y2="340"/>
<line x1="277" y1="340" x2="277" y2="340"/>
<line x1="277" y1="341" x2="277" y2="340"/>
<line x1="276" y1="343" x2="277" y2="341"/>
<line x1="276" y1="344" x2="276" y2="343"/>
<line x1="277" y1="340" x2="277" y2="340"/>
<line x1="275" y1="357" x2="275" y2="352"/>
<line x1="275" y1="357" x2="275" y2="357"/>
<line x1="275" y1="357" x2="275" y2="357"/>
<line x1="275" y1="357" x2="275" y2="357"/>
<line x1="275" y1="357" x2="275" y2="361"/>
<line x1="275" y1="361" x2="275" y2="361"/>
<line x1="278" y1="371" x2="275" y2="361"/>
<line x1="278" y1="371" x2="278" y2="371"/>
<line x1="278" y1="371" x2="279" y2="373"/>
<line x1="278" y1="371" x2="278" y2="371"/>
<line x1="279" y1="373" x2="279" y2="373"/>
<line x1="279" y1="373" x2="279" y2="373"/>
<line x1="287" y1="393" x2="279" y2="373"/>
<line x1="287" y1="393" x2="287" y2="394"/>
<line x1="287" y1="394" x2="287" y2="394"/>
<line x1="287" y1="394" x2="287" y2="394"/>
<line x1="295" y1="414" x2="287" y2="394"/>
<line x1="295" y1="414" x2="295" y2="415"/>
<line x1="295" y1="415" x2="295" y2="415"/>
<line x1="295" y1="415" x2="295" y2="415"/>
<line x1="295" y1="415" x2="295" y2="415"/>
<line x1="302" y1="436" x2="295" y2="415"/>
<line x1="302" y1="436" x2="302" y2="436"/>
<line x1="302" y1="436" x2="302" y2="436"/>
<line x1="302" y1="436" x2="303" y2="437"/>
<line x1="303" y1="437" x2="303" y2="437"/>
<line x1="309" y1="457" x2="303" y2="437"/>
<line x1="309" y1="457" x2="310" y2="458"/>
<line x1="310" y1="458" x2="310" y2="458"/>
<line x1="310" y1="458" x2="310" y2="458"/>
<line x1="310" y1="458" x2="310" y2="458"/>
<line x1="310" y1="458" x2="310" y2="458"/>
<line x1="316" y1="479" x2="310" y2="458"/>
<line x1="316" y1="479" x2="316" y2="479"/>
<line x1="316" y1="479" x2="316" y2="479"/>
<line x1="316" y1="479" x2="317" y2="480"/>
<line x1="323" y1="501" x2="317" y2="480"/>
<line x1="323" y1="501" x2="323" y2="502"/>
<line x1="329" y1="523" x2="323" y2="502"/>
<line x1="329" y1="523" x2="329" y2="523"/>
<line x1="335" y1="544" x2="329" y2="523"/>
<line x1="335" y1="544" x2="335" y2="545"/>
<line x1="340" y1="567" x2="335" y2="545"/>
<line x1="340" y1="567" x2="340" y2="567"/>
<line x1="345" y1="589" x2="340" y2="567"/>
<line x1="345" y1="589" x2="345" y2="590"/>
<line x1="349" y1="611" x2="345" y2="590"/>
<line x1="349" y1="611" x2="350" y2="612"/>
<line x1="354" y1="633" x2="350" y2="612"/>
<line x1="354" y1="633" x2="354" y2="634"/>
<line x1="357" y1="656" x2="354" y2="634"/>
<line x1="357" y1="656" x2="357" y2="657"/>
<line x1="361" y1="678" x2="357" y2="657"/>
<line x1="361" y1="678" x2="361" y2="679"/>
<line x1="364" y1="701" x2="361" y2="679"/>
<line x1="364" y1="701" x2="364" y2="702"/>
<line x1="364" y1="702" x2="364" y2="702"/>
<line x1="364" y1="702" x2="366" y2="724"/>
<line x1="364" y1="702" x2="364" y2="702"/>
<line x1="366" y1="724" x2="366" y2="724"/>
<line x1="366" y1="724" x2="366" y2="724"/>
<line x1="366" y1="724" x2="366" y2="724"/>
<line x1="366" y1="725" x2="366" y2="724"/>
<line x1="366" y1="725" x2="366" y2="725"/>
<line x1="366" y1="725" x2="369" y2="747"/>
<line x1="366" y1="725" x2="366" y2="725"/>
<line x1="369" y1="747" x2="369" y2="747"/>
<line x1="369" y1="747" x2="369" y2="747"/>
<line x1="369" y1="747" x2="369" y2="747"/>
<line x1="369" y1="747" x2="369" y2="747"/>
<line x1="369" y1="748" x2="370" y2="769"/>
<line x1="369" y1="748" x2="369" y2="747"/>
<line x1="370" y1="770" x2="370" y2="769"/>
<line x1="370" y1="770" x2="370" y2="770"/>
<line x1="372" y1="792" x2="370" y2="770"/>
<line x1="372" y1="792" x2="372" y2="792"/>
<line x1="372" y1="792" x2="372" y2="792"/>
<line x1="372" y1="792" x2="372" y2="792"/>
<line x1="372" y1="793" x2="372" y2="792"/>
<line x1="373" y1="814" x2="372" y2="793"/>
<line x1="373" y1="814" x2="373" y2="815"/>
<line x1="373" y1="817" x2="373" y2="815"/>
<line x1="373" y1="817" x2="373" y2="817"/>
<line x1="373" y1="817" x2="373" y2="817"/>
<line x1="374" y1="828" x2="373" y2="817"/>
<line x1="374" y1="828" x2="375" y2="828"/>
<line x1="375" y1="828" x2="375" y2="828"/>
<line x1="375" y1="828" x2="376" y2="831"/>
<line x1="376" y1="831" x2="378" y2="835"/>
<line x1="376" y1="831" x2="376" y2="831"/>
<line x1="376" y1="831" x2="376" y2="831"/>
<line x1="376" y1="831" x2="376" y2="831"/>
<line x1="376" y1="831" x2="376" y2="831"/>
<line x1="383" y1="843" x2="382" y2="842"/>
<line x1="383" y1="843" x2="384" y2="845"/>
<line x1="384" y1="845" x2="384" y2="845"/>
<line x1="384" y1="845" x2="384" y2="845"/>
<line x1="385" y1="845" x2="384" y2="845"/>
<line x1="385" y1="845" x2="387" y2="848"/>
<line x1="385" y1="845" x2="385" y2="845"/>
<line x1="385" y1="845" x2="385" y2="845"/>
<line x1="396" y1="854" x2="387" y2="848"/>
<line x1="396" y1="854" x2="396" y2="854"/>
<line x1="396" y1="854" x2="396" y2="854"/>
<line x1="396" y1="854" x2="396" y2="854"/>
<line x1="396" y1="854" x2="396" y2="854"/>
<line x1="396" y1="854" x2="396" y2="855"/>
<line x1="396" y1="855" x2="396" y2="855"/>
<line x1="396" y1="855" x2="396" y2="855"/>
<line x1="396" y1="855" x2="396" y2="855"/>
<line x1="396" y1="855" x2="396" y2="855"/>
<line x1="396" y1="855" x2="396" y2="855"/>
<line x1="407" y1="859" x2="407" y2="859"/>
<line x1="405" y1="858" x2="407" y2="859"/>
<line x1="404" y1="858" x2="405" y2="858"/>
<line x1="404" y1="858" x2="404" y2="858"/>
<line x1="401" y1="856" x2="404" y2="858"/>
<line x1="401" y1="856" x2="396" y2="855"/>
<line x1="417" y1="860" x2="417" y2="860"/>
<line x1="416" y1="860" x2="417" y2="860"/>
<line x1="416" y1="860" x2="407" y2="859"/>
<line x1="429" y1="860" x2="417" y2="860"/>
<line x1="533" y1="860" x2="429" y2="860"/>
<line x1="564" y1="860" x2="533" y2="860"/>
<line x1="595" y1="860" x2="564" y2="860"/>
<line x1="661" y1="860" x2="595" y2="860"/>
<line x1="694" y1="860" x2="661" y2="860"/>
<line x1="719" y1="860" x2="694" y2="860"/>
<line x1="719" y1="860" x2="741" y2="860"/>
<line x1="752" y1="860" x2="741" y2="860"/>
<line x1="763" y1="860" x2="752" y2="860"/>
<line x1="763" y1="860" x2="1081" y2="860"/>
<line x1="1081" y1="860" x2="1081" y2="860"/>
<line x1="1081" y1="860" x2="1092" y2="858"/>
<line x1="1120" y1="780" x2="1120" y2="781"/>
<line x1="377" y1="809" x2="377" y2="806"/>
<line x1="377" y1="809" x2="377" y2="822"/>
<line x1="1120" y1="786" x2="1120" y2="784"/>
<line x1="1120" y1="786" x2="1120" y2="787"/>
<line x1="1120" y1="784" x2="1120" y2="781"/>
<line x1="1120" y1="787" x2="1120" y2="806"/>
<line x1="1120" y1="780" x2="1120" y2="780"/>
<line x1="377" y1="806" x2="377" y2="802"/>
<line x1="1121" y1="815" x2="1121" y2="820"/>
<line x1="782" y1="789" x2="377" y2="801"/>
<line x1="782" y1="789" x2="1120" y2="780"/>
<line x1="378" y1="827" x2="377" y2="822"/>
<line x1="378" y1="827" x2="378" y2="835"/>
<line x1="1121" y1="815" x2="1120" y2="806"/>
<line x1="377" y1="801" x2="377" y2="802"/>
<line x1="377" y1="801" x2="377" y2="801"/>
<line x1="1121" y1="820" x2="1121" y2="820"/>
<line x1="783" y1="831" x2="382" y2="842"/>
<line x1="783" y1="831" x2="1121" y2="821"/>
<line x1="1121" y1="821" x2="1121" y2="820"/>
<line x1="1121" y1="821" x2="1121" y2="821"/>
<line x1="276" y1="344" x2="647" y2="191"/>
<line x1="961" y1="65" x2="960" y2="63"/>
<line x1="961" y1="65" x2="961" y2="65"/>
<line x1="973" y1="95" x2="968" y2="84"/>
<line x1="961" y1="65" x2="968" y2="84"/>
<line x1="649" y1="191" x2="647" y2="191"/>
<line x1="649" y1="191" x2="960" y2="63"/>
<line x1="287" y1="382" x2="286" y2="379"/>
<line x1="975" y1="101" x2="975" y2="101"/>
<line x1="960" y1="63" x2="960" y2="63"/>
<line x1="288" y1="383" x2="288" y2="383"/>
<line x1="975" y1="100" x2="973" y2="95"/>
<line x1="280" y1="365" x2="277" y2="358"/>
<line x1="280" y1="365" x2="286" y2="379"/>
<line x1="275" y1="353" x2="275" y2="352"/>
<line x1="275" y1="353" x2="277" y2="358"/>
<line x1="663" y1="230" x2="288" y2="383"/>
<line x1="288" y1="383" x2="288" y2="383"/>
<line x1="288" y1="383" x2="287" y2="382"/>
<line x1="975" y1="100" x2="975" y2="101"/>
<line x1="976" y1="101" x2="975" y2="101"/>
<line x1="976" y1="101" x2="663" y2="230"/>
</g></svg>