<svg xmlns="http://www.w3.org/2000/svg" width="1400" height="900" viewBox="0 0 1400 900">
<rect x="0" y="0" width="100%" height="100%" fill="white"/>
<g stroke="#111" stroke-width="1.2" fill="none" stroke-linecap="round">
<line x1="517" y1="825" x2="517" y2="808"/>
<line x1="517" y1="825" x2="517" y2="825"/>
<line x1="517" y1="825" x2="517" y2="825"/>
<line x1="517" y1="825" x2="517" y2="825"/>
<line x1="517" y1="831" x2="517" y2="825"/>
<line x1="622" y1="831" x2="909" y2="831"/>
<line x1="622" y1="831" x2="517" y2="831"/>
<line x1="742" y1="68" x2="909" y2="68"/>
<line x1="742" y1="68" x2="541" y2="68"/>
<line x1="541" y1="67" x2="541" y2="67"/>
<line x1="541" y1="67" x2="541" y2="67"/>
<line x1="517" y1="807" x2="517" y2="808"/>
<line x1="517" y1="807" x2="517" y2="807"/>
<line x1="540" y1="67" x2="541" y2="67"/>
<line x1="541" y1="67" x2="541" y2="67"/>
<line x1="541" y1="67" x2="541" y2="67"/>
<line x1="541" y1="67" x2="541" y2="67"/>
<line x1="541" y1="67" x2="541" y2="67"/>
<line x1="541" y1="67" x2="541" y2="67"/>
<line x1="541" y1="67" x2="541" y2="67"/>
<line x1="541" y1="67" x2="541" y2="67"/>
<line x1="517" y1="509" x2="517" y2="807"/>
<line x1="517" y1="507" x2="517" y2="509"/>
<line x1="517" y1="146" x2="517" y2="121"/>
<line x1="517" y1="370" x2="517" y2="507"/>
<line x1="517" y1="369" x2="517" y2="370"/>
<line x1="517" y1="308" x2="517" y2="369"/>
<line x1="517" y1="308" x2="517" y2="308"/>
<line x1="517" y1="273" x2="517" y2="308"/>
<line x1="517" y1="273" x2="517" y2="273"/>
<line x1="517" y1="251" x2="517" y2="273"/>
<line x1="517" y1="251" x2="517" y2="251"/>
<line x1="517" y1="235" x2="517" y2="251"/>
<line x1="517" y1="235" x2="517" y2="235"/>
<line x1="517" y1="224" x2="517" y2="235"/>
<line x1="517" y1="224" x2="517" y2="224"/>
<line x1="517" y1="215" x2="517" y2="224"/>
<line x1="517" y1="215" x2="517" y2="215"/>
<line x1="517" y1="197" x2="517" y2="146"/>
<line x1="517" y1="208" x2="517" y2="215"/>
<line x1="517" y1="208" x2="517" y2="208"/>
<line x1="517" y1="202" x2="517" y2="208"/>
<line x1="517" y1="202" x2="517" y2="202"/>
<line x1="517" y1="197" x2="517" y2="202"/>
<line x1="541" y1="68" x2="541" y2="68"/>
<line x1="541" y1="68" x2="541" y2="68"/>
<line x1="541" y1="68" x2="541" y2="68"/>
<line x1="541" y1="68" x2="541" y2="68"/>
<line x1="541" y1="68" x2="541" y2="68"/>
<line x1="541" y1="68" x2="541" y2="68"/>
<line x1="541" y1="68" x2="541" y2="68"/>
<line x1="541" y1="68" x2="541" y2="68"/>
<line x1="541" y1="68" x2="541" y2="68"/>
<line x1="541" y1="68" x2="541" y2="68"/>
<line x1="541" y1="68" x2="541" y2="68"/>
<line x1="541" y1="68" x2="541" y2="68"/>
<line x1="541" y1="68" x2="541" y2="68"/>
<line x1="541" y1="68" x2="541" y2="68"/>
<line x1="541" y1="68" x2="541" y2="68"/>
<line x1="541" y1="68" x2="541" y2="68"/>
<line x1="541" y1="68" x2="541" y2="68"/>
<line x1="541" y1="68" x2="541" y2="68"/>
<line x1="541" y1="68" x2="541" y2="68"/>
<line x1="541" y1="68" x2="541" y2="68"/>
<line x1="541" y1="68" x2="541" y2="68"/>
<line x1="541" y1="68" x2="541" y2="68"/>
<line x1="541" y1="68" x2="541" y2="68"/>
<line x1="541" y1="68" x2="541" y2="68"/>
<line x1="541" y1="68" x2="541" y2="68"/>
<line x1="541" y1="68" x2="541" y2="68"/>
<line x1="541" y1="68" x2="541" y2="68"/>
<line x1="541" y1="68" x2="541" y2="68"/>
<line x1="541" y1="68" x2="541" y2="68"/>
<line x1="541" y1="68" x2="541" y2="68"/>
<line x1="541" y1="68" x2="541" y2="68"/>
<line x1="541" y1="68" x2="541" y2="68"/>
<line x1="541" y1="68" x2="541" y2="68"/>
<line x1="541" y1="68" x2="541" y2="68"/>
<line x1="541" y1="68" x2="541" y2="68"/>
<line x1="541" y1="68" x2="541" y2="68"/>
<line x1="541" y1="68" x2="541" y2="68"/>
<line x1="541" y1="68" x2="541" y2="68"/>
<line x1="541" y1="68" x2="541" y2="68"/>
<line x1="541" y1="68" x2="541" y2="68"/>
<line x1="541" y1="68" x2="541" y2="68"/>
<line x1="541" y1="68" x2="541" y2="68"/>
<line x1="541" y1="68" x2="541" y2="68"/>
<line x1="541" y1="68" x2="541" y2="68"/>
<line x1="541" y1="68" x2="541" y2="68"/>
<line x1="541" y1="68" x2="541" y2="68"/>
<line x1="541" y1="68" x2="541" y2="68"/>
<line x1="541" y1="68" x2="541" y2="68"/>
<line x1="541" y1="68" x2="541" y2="68"/>
<line x1="541" y1="68" x2="541" y2="68"/>
<line x1="541" y1="68" x2="541" y2="68"/>
<line x1="541" y1="68" x2="541" y2="68"/>
<line x1="541" y1="68" x2="541" y2="68"/>
<line x1="541" y1="67" x2="541" y2="68"/>
<line x1="541" y1="67" x2="541" y2="67"/>
<line x1="541" y1="67" x2="541" y2="67"/>
<line x1="541" y1="67" x2="541" y2="67"/>
<line x1="541" y1="67" x2="541" y2="67"/>
<line x1="541" y1="67" x2="541" y2="67"/>
<line x1="541" y1="67" x2="541" y2="67"/>
<line x1="541" y1="67" x2="541" y2="67"/>
<line x1="541" y1="67" x2="541" y2="67"/>
<line x1="541" y1="67" x2="541" y2="67"/>
<line x1="541" y1="67" x2="541" y2="67"/>
<line x1="541" y1="67" x2="541" y2="67"/>
<line x1="541" y1="67" x2="541" y2="67"/>
<line x1="541" y1="67" x2="541" y2="67"/>
<line x1="491" y1="161" x2="491" y2="169"/>
<line x1="491" y1="151" x2="491" y2="161"/>
<line x1="491" y1="141" x2="491" y2="54"/>
<line x1="491" y1="54" x2="491" y2="54"/>
<line x1="491" y1="51" x2="491" y2="53"/>
<line x1="491" y1="50" x2="491" y2="51"/>
<line x1="491" y1="48" x2="491" y2="50"/>
<line x1="491" y1="45" x2="491" y2="45"/>
<line x1="491" y1="45" x2="491" y2="45"/>
<line x1="491" y1="44" x2="491" y2="44"/>
<line x1="491" y1="44" x2="491" y2="44"/>
<line x1="491" y1="44" x2="491" y2="43"/>
<line x1="491" y1="43" x2="491" y2="43"/>
<line x1="491" y1="43" x2="491" y2="42"/>
<line x1="491" y1="839" x2="491" y2="860"/>
<line x1="491" y1="42" x2="491" y2="42"/>
<line x1="491" y1="42" x2="491" y2="41"/>
<line x1="491" y1="41" x2="491" y2="41"/>
<line x1="491" y1="41" x2="491" y2="40"/>
<line x1="491" y1="40" x2="491" y2="40"/>
<line x1="491" y1="839" x2="491" y2="839"/>
<line x1="491" y1="813" x2="491" y2="839"/>
<line x1="491" y1="812" x2="491" y2="813"/>
<line x1="491" y1="790" x2="491" y2="812"/>
<line x1="491" y1="40" x2="491" y2="40"/>
<line x1="491" y1="789" x2="491" y2="790"/>
<line x1="491" y1="41" x2="491" y2="41"/>
<line x1="491" y1="769" x2="491" y2="789"/>
<line x1="491" y1="42" x2="491" y2="42"/>
<line x1="491" y1="768" x2="491" y2="769"/>
<line x1="491" y1="750" x2="491" y2="768"/>
<line x1="491" y1="43" x2="491" y2="43"/>
<line x1="491" y1="45" x2="491" y2="44"/>
<line x1="491" y1="750" x2="491" y2="750"/>
<line x1="491" y1="733" x2="491" y2="750"/>
<line x1="491" y1="45" x2="491" y2="48"/>
<line x1="491" y1="733" x2="491" y2="423"/>
<line x1="491" y1="53" x2="491" y2="54"/>
<line x1="491" y1="141" x2="491" y2="151"/>
<line x1="491" y1="178" x2="491" y2="169"/>
<line x1="491" y1="185" x2="491" y2="178"/>
<line x1="491" y1="193" x2="491" y2="185"/>
<line x1="491" y1="199" x2="491" y2="193"/>
<line x1="491" y1="206" x2="491" y2="199"/>
<line x1="491" y1="212" x2="491" y2="206"/>
<line x1="491" y1="218" x2="491" y2="212"/>
<line x1="491" y1="223" x2="491" y2="218"/>
<line x1="491" y1="228" x2="491" y2="223"/>
<line x1="491" y1="233" x2="491" y2="228"/>
<line x1="491" y1="238" x2="491" y2="233"/>
<line x1="491" y1="242" x2="491" y2="238"/>
<line x1="491" y1="246" x2="491" y2="242"/>
<line x1="491" y1="250" x2="491" y2="246"/>
<line x1="491" y1="254" x2="491" y2="250"/>
<line x1="491" y1="265" x2="491" y2="423"/>
<line x1="491" y1="258" x2="491" y2="254"/>
<line x1="491" y1="261" x2="491" y2="258"/>
<line x1="491" y1="265" x2="491" y2="261"/>
<line x1="909" y1="44" x2="909" y2="40"/>
<line x1="909" y1="44" x2="909" y2="45"/>
<line x1="909" y1="52" x2="909" y2="45"/>
<line x1="909" y1="52" x2="909" y2="53"/>
<line x1="909" y1="53" x2="909" y2="55"/>
<line x1="909" y1="58" x2="909" y2="55"/>
<line x1="909" y1="60" x2="909" y2="58"/>
<line x1="909" y1="61" x2="909" y2="60"/>
<line x1="909" y1="61" x2="909" y2="68"/>
<line x1="909" y1="843" x2="909" y2="843"/>
<line x1="909" y1="843" x2="909" y2="842"/>
<line x1="909" y1="842" x2="909" y2="842"/>
<line x1="909" y1="842" x2="909" y2="840"/>
<line x1="909" y1="840" x2="909" y2="840"/>
<line x1="909" y1="843" x2="909" y2="843"/>
<line x1="909" y1="840" x2="909" y2="831"/>
<line x1="909" y1="859" x2="909" y2="850"/>
<line x1="909" y1="859" x2="909" y2="859"/>
<line x1="909" y1="859" x2="909" y2="860"/>
<line x1="904" y1="860" x2="909" y2="860"/>
<line x1="900" y1="860" x2="904" y2="860"/>
<line x1="607" y1="860" x2="491" y2="860"/>
<line x1="607" y1="860" x2="646" y2="860"/>
<line x1="646" y1="860" x2="727" y2="860"/>
<line x1="727" y1="860" x2="771" y2="860"/>
<line x1="771" y1="860" x2="900" y2="860"/>
<line x1="667" y1="40" x2="491" y2="40"/>
<line x1="667" y1="40" x2="748" y2="40"/>
<line x1="748" y1="40" x2="801" y2="40"/>
<line x1="801" y1="40" x2="893" y2="40"/>
<line x1="905" y1="40" x2="909" y2="40"/>
<line x1="904" y1="40" x2="905" y2="40"/>
<line x1="903" y1="40" x2="904" y2="40"/>
<line x1="903" y1="40" x2="899" y2="40"/>
<line x1="894" y1="67" x2="894" y2="67"/>
<line x1="894" y1="67" x2="893" y2="67"/>
<line x1="894" y1="67" x2="894" y2="67"/>
<line x1="893" y1="67" x2="893" y2="67"/>
<line x1="893" y1="67" x2="892" y2="67"/>
<line x1="893" y1="67" x2="893" y2="67"/>
<line x1="892" y1="67" x2="892" y2="67"/>
<line x1="892" y1="67" x2="891" y2="66"/>
<line x1="892" y1="67" x2="892" y2="67"/>
<line x1="891" y1="66" x2="891" y2="66"/>
<line x1="891" y1="66" x2="890" y2="66"/>
<line x1="891" y1="66" x2="891" y2="66"/>
<line x1="891" y1="66" x2="891" y2="66"/>
<line x1="890" y1="66" x2="890" y2="66"/>
<line x1="890" y1="66" x2="889" y2="65"/>
<line x1="890" y1="66" x2="890" y2="66"/>
<line x1="888" y1="65" x2="889" y2="65"/>
<line x1="888" y1="65" x2="888" y2="64"/>
<line x1="889" y1="65" x2="889" y2="65"/>
<line x1="887" y1="64" x2="888" y2="64"/>
<line x1="887" y1="64" x2="887" y2="63"/>
<line x1="888" y1="64" x2="888" y2="64"/>
<line x1="887" y1="63" x2="887" y2="63"/>
<line x1="887" y1="63" x2="886" y2="62"/>
<line x1="887" y1="63" x2="887" y2="63"/>
<line x1="886" y1="62" x2="886" y2="62"/>
<line x1="886" y1="62" x2="885" y2="61"/>
<line x1="886" y1="62" x2="886" y2="62"/>
<line x1="885" y1="61" x2="885" y2="61"/>
<line x1="885" y1="61" x2="884" y2="60"/>
<line x1="885" y1="61" x2="885" y2="61"/>
<line x1="884" y1="60" x2="884" y2="60"/>
<line x1="884" y1="60" x2="884" y2="59"/>
<line x1="884" y1="60" x2="884" y2="60"/>
<line x1="884" y1="58" x2="884" y2="59"/>
<line x1="884" y1="58" x2="884" y2="57"/>
<line x1="884" y1="59" x2="884" y2="59"/>
<line x1="883" y1="57" x2="883" y2="57"/>
<line x1="883" y1="57" x2="883" y2="56"/>
<line x1="883" y1="57" x2="884" y2="57"/>
<line x1="883" y1="56" x2="883" y2="56"/>
<line x1="883" y1="56" x2="883" y2="55"/>
<line x1="883" y1="56" x2="883" y2="56"/>
<line x1="883" y1="54" x2="883" y2="55"/>
<line x1="883" y1="54" x2="883" y2="53"/>
<line x1="883" y1="55" x2="883" y2="55"/>
<line x1="883" y1="53" x2="883" y2="53"/>
<line x1="883" y1="53" x2="883" y2="52"/>
<line x1="883" y1="53" x2="883" y2="53"/>
<line x1="883" y1="52" x2="883" y2="52"/>
<line x1="883" y1="52" x2="883" y2="51"/>
<line x1="883" y1="52" x2="883" y2="52"/>
<line x1="883" y1="50" x2="883" y2="50"/>
<line x1="883" y1="50" x2="884" y2="49"/>
<line x1="883" y1="50" x2="883" y2="51"/>
<line x1="884" y1="49" x2="884" y2="49"/>
<line x1="884" y1="49" x2="884" y2="48"/>
<line x1="884" y1="49" x2="884" y2="49"/>
<line x1="884" y1="48" x2="884" y2="48"/>
<line x1="884" y1="48" x2="884" y2="47"/>
<line x1="884" y1="48" x2="884" y2="48"/>
<line x1="885" y1="46" x2="885" y2="47"/>
<line x1="885" y1="46" x2="885" y2="46"/>
<line x1="885" y1="47" x2="884" y2="47"/>
<line x1="886" y1="45" x2="885" y2="46"/>
<line x1="886" y1="45" x2="886" y2="45"/>
<line x1="885" y1="46" x2="885" y2="46"/>
<line x1="886" y1="44" x2="886" y2="44"/>
<line x1="886" y1="44" x2="887" y2="44"/>
<line x1="886" y1="44" x2="886" y2="45"/>
<line x1="887" y1="43" x2="888" y2="43"/>
<line x1="887" y1="43" x2="887" y2="43"/>
<line x1="887" y1="43" x2="887" y2="44"/>
<line x1="888" y1="42" x2="889" y2="42"/>
<line x1="888" y1="42" x2="888" y2="43"/>
<line x1="888" y1="43" x2="888" y2="43"/>
<line x1="890" y1="41" x2="890" y2="41"/>
<line x1="890" y1="41" x2="889" y2="42"/>
<line x1="889" y1="42" x2="889" y2="42"/>
<line x1="891" y1="41" x2="891" y2="41"/>
<line x1="891" y1="41" x2="890" y2="41"/>
<line x1="890" y1="41" x2="890" y2="41"/>
<line x1="892" y1="40" x2="892" y2="40"/>
<line x1="892" y1="40" x2="891" y2="41"/>
<line x1="891" y1="41" x2="891" y2="41"/>
<line x1="892" y1="40" x2="893" y2="40"/>
<line x1="892" y1="40" x2="892" y2="40"/>
<line x1="899" y1="40" x2="899" y2="40"/>
<line x1="901" y1="41" x2="900" y2="40"/>
<line x1="900" y1="40" x2="900" y2="40"/>
<line x1="900" y1="40" x2="899" y2="40"/>
<line x1="901" y1="41" x2="902" y2="41"/>
<line x1="901" y1="41" x2="901" y2="41"/>
<line x1="901" y1="41" x2="901" y2="41"/>
<line x1="902" y1="42" x2="903" y2="42"/>
<line x1="902" y1="42" x2="902" y2="41"/>
<line x1="902" y1="41" x2="902" y2="41"/>
<line x1="904" y1="43" x2="903" y2="42"/>
<line x1="903" y1="42" x2="903" y2="42"/>
<line x1="903" y1="42" x2="903" y2="42"/>
<line x1="905" y1="44" x2="904" y2="43"/>
<line x1="904" y1="43" x2="904" y2="43"/>
<line x1="904" y1="43" x2="904" y2="43"/>
<line x1="905" y1="44" x2="906" y2="45"/>
<line x1="905" y1="44" x2="905" y2="44"/>
<line x1="905" y1="44" x2="905" y2="44"/>
<line x1="906" y1="45" x2="906" y2="46"/>
<line x1="906" y1="45" x2="906" y2="45"/>
<line x1="906" y1="45" x2="906" y2="45"/>
<line x1="907" y1="47" x2="907" y2="47"/>
<line x1="907" y1="47" x2="906" y2="46"/>
<line x1="906" y1="46" x2="906" y2="46"/>
<line x1="907" y1="48" x2="907" y2="48"/>
<line x1="907" y1="48" x2="907" y2="47"/>
<line x1="907" y1="47" x2="907" y2="47"/>
<line x1="908" y1="49" x2="908" y2="49"/>
<line x1="908" y1="49" x2="908" y2="48"/>
<line x1="908" y1="48" x2="907" y2="48"/>
<line x1="908" y1="51" x2="908" y2="51"/>
<line x1="908" y1="51" x2="908" y2="50"/>
<line x1="908" y1="49" x2="908" y2="50"/>
<line x1="908" y1="52" x2="908" y2="52"/>
<line x1="908" y1="52" x2="908" y2="51"/>
<line x1="908" y1="51" x2="908" y2="51"/>
<line x1="908" y1="53" x2="908" y2="53"/>
<line x1="908" y1="53" x2="908" y2="52"/>
<line x1="908" y1="52" x2="908" y2="52"/>
<line x1="908" y1="55" x2="908" y2="55"/>
<line x1="908" y1="55" x2="908" y2="54"/>
<line x1="908" y1="54" x2="908" y2="53"/>
<line x1="908" y1="56" x2="908" y2="56"/>
<line x1="908" y1="56" x2="908" y2="55"/>
<line x1="908" y1="55" x2="908" y2="55"/>
<line x1="908" y1="57" x2="908" y2="57"/>
<line x1="908" y1="57" x2="908" y2="56"/>
<line x1="908" y1="56" x2="908" y2="56"/>
<line x1="908" y1="59" x2="907" y2="59"/>
<line x1="908" y1="59" x2="908" y2="58"/>
<line x1="908" y1="58" x2="908" y2="57"/>
<line x1="907" y1="60" x2="907" y2="60"/>
<line x1="907" y1="60" x2="907" y2="59"/>
<line x1="907" y1="59" x2="907" y2="59"/>
<line x1="906" y1="61" x2="906" y2="61"/>
<line x1="906" y1="61" x2="907" y2="60"/>
<line x1="907" y1="60" x2="907" y2="60"/>
<line x1="906" y1="62" x2="906" y2="62"/>
<line x1="906" y1="62" x2="906" y2="61"/>
<line x1="906" y1="61" x2="906" y2="61"/>
<line x1="905" y1="63" x2="905" y2="63"/>
<line x1="905" y1="63" x2="905" y2="62"/>
<line x1="906" y1="62" x2="905" y2="62"/>
<line x1="904" y1="64" x2="904" y2="64"/>
<line x1="904" y1="64" x2="905" y2="63"/>
<line x1="905" y1="63" x2="905" y2="63"/>
<line x1="903" y1="65" x2="903" y2="65"/>
<line x1="903" y1="65" x2="904" y2="64"/>
<line x1="904" y1="64" x2="904" y2="64"/>
<line x1="902" y1="66" x2="902" y2="66"/>
<line x1="902" y1="66" x2="903" y2="65"/>
<line x1="903" y1="65" x2="903" y2="65"/>
<line x1="901" y1="66" x2="901" y2="66"/>
<line x1="901" y1="66" x2="902" y2="66"/>
<line x1="902" y1="66" x2="902" y2="66"/>
<line x1="902" y1="66" x2="902" y2="66"/>
<line x1="899" y1="67" x2="899" y2="67"/>
<line x1="899" y1="67" x2="900" y2="66"/>
<line x1="901" y1="66" x2="900" y2="66"/>
<line x1="898" y1="67" x2="898" y2="67"/>
<line x1="898" y1="67" x2="899" y2="67"/>
<line x1="899" y1="67" x2="899" y2="67"/>
<line x1="897" y1="67" x2="897" y2="67"/>
<line x1="897" y1="67" x2="898" y2="67"/>
<line x1="898" y1="67" x2="898" y2="67"/>
<line x1="896" y1="67" x2="896" y2="67"/>
<line x1="896" y1="67" x2="897" y2="67"/>
<line x1="897" y1="67" x2="897" y2="67"/>
<line x1="896" y1="67" x2="896" y2="67"/>
<line x1="896" y1="67" x2="894" y2="67"/>
<line x1="896" y1="67" x2="896" y2="67"/>
<line x1="895" y1="860" x2="894" y2="860"/>
<line x1="894" y1="860" x2="894" y2="860"/>
<line x1="895" y1="860" x2="895" y2="860"/>
<line x1="895" y1="860" x2="895" y2="860"/>
<line x1="893" y1="860" x2="893" y2="859"/>
<line x1="894" y1="860" x2="894" y2="860"/>
<line x1="894" y1="860" x2="893" y2="860"/>
<line x1="892" y1="859" x2="891" y2="859"/>
<line x1="892" y1="859" x2="893" y2="859"/>
<line x1="891" y1="859" x2="890" y2="858"/>
<line x1="891" y1="859" x2="891" y2="859"/>
<line x1="890" y1="858" x2="889" y2="858"/>
<line x1="890" y1="858" x2="890" y2="858"/>
<line x1="889" y1="858" x2="888" y2="857"/>
<line x1="889" y1="858" x2="889" y2="858"/>
<line x1="888" y1="857" x2="887" y2="856"/>
<line x1="888" y1="857" x2="888" y2="857"/>
<line x1="887" y1="856" x2="886" y2="855"/>
<line x1="887" y1="856" x2="887" y2="856"/>
<line x1="886" y1="855" x2="886" y2="854"/>
<line x1="886" y1="855" x2="886" y2="855"/>
<line x1="886" y1="854" x2="885" y2="853"/>
<line x1="886" y1="854" x2="886" y2="854"/>
<line x1="885" y1="853" x2="885" y2="852"/>
<line x1="885" y1="853" x2="885" y2="853"/>
<line x1="884" y1="851" x2="884" y2="851"/>
<line x1="884" y1="851" x2="885" y2="852"/>
<line x1="884" y1="850" x2="884" y2="849"/>
<line x1="884" y1="850" x2="884" y2="851"/>
<line x1="884" y1="849" x2="884" y2="848"/>
<line x1="884" y1="849" x2="884" y2="849"/>
<line x1="884" y1="848" x2="884" y2="847"/>
<line x1="884" y1="848" x2="884" y2="848"/>
<line x1="884" y1="846" x2="884" y2="845"/>
<line x1="884" y1="846" x2="884" y2="847"/>
<line x1="884" y1="845" x2="884" y2="844"/>
<line x1="884" y1="845" x2="884" y2="845"/>
<line x1="884" y1="844" x2="884" y2="843"/>
<line x1="884" y1="844" x2="884" y2="844"/>
<line x1="884" y1="843" x2="885" y2="842"/>
<line x1="884" y1="843" x2="884" y2="843"/>
<line x1="885" y1="841" x2="885" y2="841"/>
<line x1="885" y1="841" x2="885" y2="842"/>
<line x1="885" y1="840" x2="886" y2="839"/>
<line x1="885" y1="840" x2="885" y2="841"/>
<line x1="886" y1="839" x2="886" y2="838"/>
<line x1="886" y1="839" x2="886" y2="839"/>
<line x1="887" y1="838" x2="887" y2="837"/>
<line x1="887" y1="838" x2="886" y2="838"/>
<line x1="888" y1="837" x2="888" y2="837"/>
<line x1="888" y1="837" x2="887" y2="837"/>
<line x1="889" y1="836" x2="889" y2="836"/>
<line x1="889" y1="836" x2="888" y2="837"/>
<line x1="890" y1="836" x2="890" y2="835"/>
<line x1="890" y1="836" x2="889" y2="836"/>
<line x1="891" y1="835" x2="891" y2="835"/>
<line x1="891" y1="835" x2="890" y2="835"/>
<line x1="892" y1="834" x2="893" y2="834"/>
<line x1="892" y1="834" x2="891" y2="835"/>
<line x1="893" y1="834" x2="894" y2="834"/>
<line x1="893" y1="834" x2="893" y2="834"/>
<line x1="894" y1="834" x2="895" y2="834"/>
<line x1="894" y1="834" x2="894" y2="834"/>
<line x1="895" y1="834" x2="896" y2="834"/>
<line x1="895" y1="834" x2="895" y2="834"/>
<line x1="897" y1="834" x2="898" y2="834"/>
<line x1="896" y1="834" x2="897" y2="834"/>
<line x1="898" y1="834" x2="899" y2="834"/>
<line x1="898" y1="834" x2="898" y2="834"/>
<line x1="899" y1="834" x2="900" y2="834"/>
<line x1="899" y1="834" x2="899" y2="834"/>
<line x1="900" y1="834" x2="901" y2="835"/>
<line x1="900" y1="834" x2="900" y2="834"/>
<line x1="902" y1="835" x2="902" y2="835"/>
<line x1="901" y1="835" x2="902" y2="835"/>
<line x1="903" y1="835" x2="903" y2="836"/>
<line x1="902" y1="835" x2="903" y2="835"/>
<line x1="904" y1="836" x2="904" y2="837"/>
<line x1="903" y1="836" x2="904" y2="836"/>
<line x1="905" y1="837" x2="905" y2="837"/>
<line x1="904" y1="837" x2="905" y2="837"/>
<line x1="906" y1="838" x2="906" y2="838"/>
<line x1="905" y1="837" x2="906" y2="838"/>
<line x1="906" y1="839" x2="907" y2="839"/>
<line x1="906" y1="838" x2="906" y2="839"/>
<line x1="907" y1="840" x2="908" y2="841"/>
<line x1="907" y1="839" x2="907" y2="840"/>
<line x1="908" y1="841" x2="908" y2="842"/>
<line x1="908" y1="841" x2="908" y2="841"/>
<line x1="908" y1="842" x2="908" y2="843"/>
<line x1="908" y1="842" x2="908" y2="842"/>
<line x1="909" y1="843" x2="909" y2="843"/>
<line x1="909" y1="843" x2="908" y2="843"/>
<line x1="909" y1="850" x2="908" y2="851"/>
<line x1="909" y1="850" x2="909" y2="850"/>
<line x1="908" y1="851" x2="908" y2="852"/>
<line x1="908" y1="851" x2="908" y2="851"/>
<line x1="908" y1="852" x2="908" y2="853"/>
<line x1="908" y1="852" x2="908" y2="852"/>
<line x1="907" y1="853" x2="907" y2="854"/>
<line x1="908" y1="853" x2="907" y2="853"/>
<line x1="907" y1="854" x2="906" y2="855"/>
<line x1="907" y1="854" x2="907" y2="854"/>
<line x1="906" y1="855" x2="905" y2="856"/>
<line x1="906" y1="855" x2="906" y2="855"/>
<line x1="905" y1="856" x2="904" y2="857"/>
<line x1="905" y1="856" x2="905" y2="856"/>
<line x1="904" y1="857" x2="903" y2="858"/>
<line x1="904" y1="857" x2="904" y2="857"/>
<line x1="903" y1="858" x2="902" y2="858"/>
<line x1="903" y1="858" x2="903" y2="858"/>
<line x1="902" y1="859" x2="901" y2="859"/>
<line x1="902" y1="858" x2="902" y2="859"/>
<line x1="901" y1="859" x2="900" y2="859"/>
<line x1="901" y1="859" x2="901" y2="859"/>
<line x1="900" y1="859" x2="900" y2="859"/>
<line x1="900" y1="859" x2="899" y2="860"/>
<line x1="900" y1="859" x2="900" y2="859"/>
<line x1="898" y1="860" x2="898" y2="860"/>
<line x1="898" y1="860" x2="898" y2="860"/>
<line x1="899" y1="860" x2="899" y2="860"/>
<line x1="899" y1="860" x2="898" y2="860"/>
<line x1="897" y1="860" x2="897" y2="860"/>
<line x1="897" y1="860" x2="896" y2="860"/>
<line x1="897" y1="860" x2="898" y2="860"/>
<line x1="897" y1="860" x2="897" y2="860"/>
<line x1="895" y1="860" x2="895" y2="860"/>
<line x1="895" y1="860" x2="896" y2="860"/>
<line x1="896" y1="860" x2="896" y2="860"/>
<line x1="896" y1="860" x2="896" y2="860"/>
<line x1="494" y1="54" x2="494" y2="54"/>
<line x1="495" y1="43" x2="496" y2="43"/>
<line x1="494" y1="60" x2="494" y2="54"/>
<line x1="541" y1="60" x2="541" y2="60"/>
<line x1="517" y1="121" x2="517" y2="121"/>
<line x1="517" y1="121" x2="515" y2="121"/>
<line x1="496" y1="83" x2="495" y2="78"/>
<line x1="494" y1="54" x2="495" y2="48"/>
<line x1="500" y1="99" x2="500" y2="99"/>
<line x1="541" y1="58" x2="541" y2="54"/>
<line x1="541" y1="58" x2="541" y2="60"/>
<line x1="541" y1="54" x2="541" y2="54"/>
<line x1="497" y1="89" x2="497" y2="89"/>
<line x1="500" y1="43" x2="496" y2="43"/>
<line x1="494" y1="66" x2="494" y2="66"/>
<line x1="495" y1="78" x2="495" y2="72"/>
<line x1="539" y1="43" x2="535" y2="43"/>
<line x1="495" y1="43" x2="495" y2="43"/>
<line x1="506" y1="114" x2="507" y2="114"/>
<line x1="499" y1="99" x2="500" y2="99"/>
<line x1="541" y1="66" x2="540" y2="67"/>
<line x1="540" y1="48" x2="540" y2="48"/>
<line x1="540" y1="49" x2="540" y2="48"/>
<line x1="540" y1="50" x2="540" y2="49"/>
<line x1="540" y1="50" x2="540" y2="50"/>
<line x1="540" y1="50" x2="541" y2="54"/>
<line x1="541" y1="54" x2="541" y2="54"/>
<line x1="522" y1="43" x2="535" y2="43"/>
<line x1="522" y1="43" x2="500" y2="43"/>
<line x1="495" y1="72" x2="494" y2="66"/>
<line x1="495" y1="72" x2="495" y2="72"/>
<line x1="541" y1="66" x2="541" y2="66"/>
<line x1="541" y1="66" x2="541" y2="60"/>
<line x1="541" y1="66" x2="541" y2="66"/>
<line x1="495" y1="43" x2="495" y2="48"/>
<line x1="497" y1="89" x2="496" y2="84"/>
<line x1="494" y1="66" x2="494" y2="60"/>
<line x1="494" y1="60" x2="494" y2="60"/>
<line x1="501" y1="103" x2="500" y2="99"/>
<line x1="504" y1="111" x2="503" y2="107"/>
<line x1="504" y1="111" x2="505" y2="111"/>
<line x1="503" y1="107" x2="501" y2="103"/>
<line x1="503" y1="107" x2="503" y2="107"/>
<line x1="496" y1="84" x2="496" y2="84"/>
<line x1="496" y1="83" x2="496" y2="84"/>
<line x1="498" y1="94" x2="497" y2="89"/>
<line x1="499" y1="99" x2="498" y2="94"/>
<line x1="513" y1="120" x2="511" y2="119"/>
<line x1="513" y1="120" x2="513" y2="120"/>
<line x1="540" y1="43" x2="539" y2="43"/>
<line x1="540" y1="43" x2="540" y2="43"/>
<line x1="494" y1="54" x2="494" y2="54"/>
<line x1="506" y1="114" x2="505" y2="111"/>
<line x1="511" y1="119" x2="509" y2="117"/>
<line x1="515" y1="121" x2="513" y2="120"/>
<line x1="515" y1="121" x2="515" y2="121"/>
<line x1="509" y1="117" x2="509" y2="117"/>
<line x1="540" y1="48" x2="540" y2="43"/>
<line x1="508" y1="116" x2="507" y2="114"/>
<line x1="508" y1="116" x2="509" y2="117"/>
</g></svg>