<svg xmlns="http://www.w3.org/2000/svg" width="1400" height="900" viewBox="0 0 1400 900">
<rect x="0" y="0" width="100%" height="100%" fill="white"/>
<g stroke="#111" stroke-width="1.2" fill="none" stroke-linecap="round">
<line x1="510" y1="821" x2="510" y2="807"/>
<line x1="510" y1="831" x2="510" y2="821"/>
<line x1="510" y1="71" x2="510" y2="71"/>
<line x1="510" y1="71" x2="510" y2="74"/>
<line x1="510" y1="71" x2="510" y2="71"/>
<line x1="510" y1="71" x2="510" y2="71"/>
<line x1="510" y1="70" x2="510" y2="71"/>
<line x1="510" y1="70" x2="510" y2="70"/>
<line x1="510" y1="70" x2="510" y2="69"/>
<line x1="675" y1="831" x2="917" y2="831"/>
<line x1="675" y1="831" x2="510" y2="831"/>
<line x1="511" y1="69" x2="514" y2="69"/>
<line x1="511" y1="69" x2="510" y2="69"/>
<line x1="637" y1="69" x2="917" y2="69"/>
<line x1="637" y1="69" x2="535" y2="69"/>
<line x1="535" y1="46" x2="535" y2="46"/>
<line x1="535" y1="46" x2="535" y2="46"/>
<line x1="534" y1="47" x2="534" y2="47"/>
<line x1="534" y1="47" x2="534" y2="47"/>
<line x1="534" y1="47" x2="534" y2="47"/>
<line x1="534" y1="47" x2="534" y2="47"/>
<line x1="520" y1="63" x2="519" y2="64"/>
<line x1="521" y1="62" x2="520" y2="63"/>
<line x1="522" y1="61" x2="521" y2="62"/>
<line x1="522" y1="60" x2="522" y2="61"/>
<line x1="523" y1="59" x2="522" y2="60"/>
<line x1="524" y1="58" x2="523" y2="59"/>
<line x1="525" y1="57" x2="524" y2="58"/>
<line x1="526" y1="56" x2="525" y2="57"/>
<line x1="527" y1="55" x2="526" y2="56"/>
<line x1="528" y1="54" x2="527" y2="55"/>
<line x1="534" y1="47" x2="528" y2="54"/>
<line x1="534" y1="47" x2="534" y2="47"/>
<line x1="534" y1="47" x2="534" y2="47"/>
<line x1="535" y1="46" x2="534" y2="47"/>
<line x1="535" y1="46" x2="535" y2="46"/>
<line x1="519" y1="64" x2="519" y2="64"/>
<line x1="515" y1="69" x2="514" y2="69"/>
<line x1="515" y1="68" x2="515" y2="69"/>
<line x1="516" y1="67" x2="515" y2="68"/>
<line x1="517" y1="66" x2="516" y2="67"/>
<line x1="518" y1="65" x2="517" y2="66"/>
<line x1="519" y1="64" x2="518" y2="65"/>
<line x1="519" y1="64" x2="519" y2="64"/>
<line x1="510" y1="74" x2="510" y2="74"/>
<line x1="510" y1="74" x2="510" y2="74"/>
<line x1="510" y1="74" x2="510" y2="74"/>
<line x1="510" y1="807" x2="510" y2="807"/>
<line x1="510" y1="807" x2="510" y2="807"/>
<line x1="510" y1="94" x2="510" y2="74"/>
<line x1="510" y1="94" x2="510" y2="446"/>
<line x1="510" y1="446" x2="510" y2="446"/>
<line x1="510" y1="446" x2="510" y2="459"/>
<line x1="510" y1="459" x2="510" y2="460"/>
<line x1="510" y1="460" x2="510" y2="474"/>
<line x1="510" y1="474" x2="510" y2="474"/>
<line x1="510" y1="474" x2="510" y2="489"/>
<line x1="510" y1="489" x2="510" y2="489"/>
<line x1="510" y1="489" x2="510" y2="505"/>
<line x1="510" y1="505" x2="510" y2="505"/>
<line x1="510" y1="505" x2="510" y2="523"/>
<line x1="510" y1="523" x2="510" y2="523"/>
<line x1="510" y1="523" x2="510" y2="542"/>
<line x1="510" y1="542" x2="510" y2="542"/>
<line x1="510" y1="542" x2="510" y2="563"/>
<line x1="510" y1="563" x2="510" y2="563"/>
<line x1="510" y1="563" x2="510" y2="586"/>
<line x1="510" y1="586" x2="510" y2="586"/>
<line x1="510" y1="586" x2="510" y2="611"/>
<line x1="510" y1="611" x2="510" y2="611"/>
<line x1="510" y1="611" x2="510" y2="639"/>
<line x1="510" y1="791" x2="510" y2="639"/>
<line x1="510" y1="791" x2="510" y2="791"/>
<line x1="510" y1="791" x2="510" y2="794"/>
<line x1="510" y1="794" x2="510" y2="794"/>
<line x1="510" y1="794" x2="510" y2="797"/>
<line x1="510" y1="797" x2="510" y2="797"/>
<line x1="510" y1="797" x2="510" y2="801"/>
<line x1="510" y1="801" x2="510" y2="801"/>
<line x1="510" y1="801" x2="510" y2="805"/>
<line x1="510" y1="805" x2="510" y2="805"/>
<line x1="510" y1="805" x2="510" y2="807"/>
<line x1="535" y1="69" x2="535" y2="69"/>
<line x1="535" y1="68" x2="535" y2="69"/>
<line x1="535" y1="67" x2="535" y2="68"/>
<line x1="535" y1="66" x2="535" y2="67"/>
<line x1="535" y1="65" x2="535" y2="66"/>
<line x1="535" y1="64" x2="535" y2="65"/>
<line x1="535" y1="63" x2="535" y2="64"/>
<line x1="535" y1="62" x2="535" y2="63"/>
<line x1="535" y1="61" x2="535" y2="62"/>
<line x1="535" y1="60" x2="535" y2="61"/>
<line x1="535" y1="59" x2="535" y2="60"/>
<line x1="535" y1="58" x2="535" y2="59"/>
<line x1="535" y1="57" x2="535" y2="58"/>
<line x1="535" y1="56" x2="535" y2="57"/>
<line x1="535" y1="55" x2="535" y2="56"/>
<line x1="535" y1="54" x2="535" y2="55"/>
<line x1="535" y1="53" x2="535" y2="54"/>
<line x1="535" y1="52" x2="535" y2="53"/>
<line x1="535" y1="51" x2="535" y2="52"/>
<line x1="535" y1="50" x2="535" y2="51"/>
<line x1="535" y1="49" x2="535" y2="50"/>
<line x1="535" y1="49" x2="535" y2="49"/>
<line x1="535" y1="48" x2="535" y2="49"/>
<line x1="535" y1="47" x2="535" y2="48"/>
<line x1="535" y1="47" x2="535" y2="47"/>
<line x1="535" y1="47" x2="535" y2="47"/>
<line x1="535" y1="47" x2="535" y2="47"/>
<line x1="535" y1="47" x2="535" y2="47"/>
<line x1="535" y1="47" x2="535" y2="47"/>
<line x1="535" y1="46" x2="535" y2="47"/>
<line x1="535" y1="46" x2="535" y2="46"/>
<line x1="535" y1="46" x2="535" y2="46"/>
<line x1="483" y1="654" x2="483" y2="416"/>
<line x1="483" y1="654" x2="483" y2="654"/>
<line x1="483" y1="654" x2="483" y2="661"/>
<line x1="483" y1="661" x2="483" y2="661"/>
<line x1="483" y1="661" x2="483" y2="669"/>
<line x1="483" y1="669" x2="483" y2="669"/>
<line x1="483" y1="669" x2="483" y2="678"/>
<line x1="483" y1="678" x2="483" y2="678"/>
<line x1="483" y1="678" x2="483" y2="687"/>
<line x1="483" y1="687" x2="483" y2="687"/>
<line x1="483" y1="687" x2="483" y2="696"/>
<line x1="483" y1="696" x2="483" y2="697"/>
<line x1="483" y1="697" x2="483" y2="707"/>
<line x1="483" y1="707" x2="483" y2="707"/>
<line x1="483" y1="707" x2="483" y2="718"/>
<line x1="483" y1="718" x2="483" y2="718"/>
<line x1="483" y1="718" x2="483" y2="730"/>
<line x1="483" y1="730" x2="483" y2="730"/>
<line x1="483" y1="730" x2="483" y2="743"/>
<line x1="483" y1="743" x2="483" y2="743"/>
<line x1="483" y1="743" x2="483" y2="757"/>
<line x1="483" y1="757" x2="483" y2="757"/>
<line x1="483" y1="416" x2="483" y2="107"/>
<line x1="483" y1="757" x2="483" y2="772"/>
<line x1="483" y1="772" x2="483" y2="772"/>
<line x1="483" y1="772" x2="483" y2="789"/>
<line x1="483" y1="789" x2="483" y2="789"/>
<line x1="483" y1="789" x2="483" y2="807"/>
<line x1="483" y1="807" x2="483" y2="808"/>
<line x1="483" y1="107" x2="483" y2="97"/>
<line x1="483" y1="97" x2="483" y2="86"/>
<line x1="483" y1="808" x2="483" y2="828"/>
<line x1="483" y1="828" x2="483" y2="828"/>
<line x1="483" y1="86" x2="483" y2="75"/>
<line x1="483" y1="75" x2="483" y2="63"/>
<line x1="483" y1="828" x2="483" y2="850"/>
<line x1="483" y1="850" x2="483" y2="851"/>
<line x1="483" y1="63" x2="483" y2="50"/>
<line x1="483" y1="851" x2="483" y2="860"/>
<line x1="483" y1="50" x2="483" y2="40"/>
<line x1="917" y1="49" x2="917" y2="40"/>
<line x1="917" y1="49" x2="917" y2="69"/>
<line x1="917" y1="836" x2="917" y2="833"/>
<line x1="917" y1="833" x2="917" y2="833"/>
<line x1="917" y1="833" x2="917" y2="831"/>
<line x1="917" y1="836" x2="917" y2="843"/>
<line x1="917" y1="857" x2="917" y2="860"/>
<line x1="917" y1="857" x2="917" y2="857"/>
<line x1="917" y1="857" x2="917" y2="850"/>
<line x1="754" y1="860" x2="917" y2="860"/>
<line x1="754" y1="860" x2="483" y2="860"/>
<line x1="780" y1="40" x2="917" y2="40"/>
<line x1="780" y1="40" x2="483" y2="40"/>
<line x1="901" y1="68" x2="901" y2="68"/>
<line x1="901" y1="68" x2="902" y2="68"/>
<line x1="900" y1="68" x2="899" y2="68"/>
<line x1="900" y1="68" x2="901" y2="68"/>
<line x1="899" y1="68" x2="898" y2="67"/>
<line x1="899" y1="68" x2="899" y2="68"/>
<line x1="897" y1="67" x2="897" y2="67"/>
<line x1="897" y1="67" x2="898" y2="67"/>
<line x1="896" y1="66" x2="896" y2="66"/>
<line x1="896" y1="66" x2="897" y2="67"/>
<line x1="895" y1="66" x2="895" y2="65"/>
<line x1="895" y1="66" x2="896" y2="66"/>
<line x1="894" y1="65" x2="894" y2="65"/>
<line x1="894" y1="65" x2="895" y2="65"/>
<line x1="893" y1="64" x2="893" y2="64"/>
<line x1="893" y1="64" x2="894" y2="65"/>
<line x1="892" y1="63" x2="892" y2="62"/>
<line x1="892" y1="63" x2="893" y2="64"/>
<line x1="892" y1="62" x2="892" y2="61"/>
<line x1="892" y1="62" x2="892" y2="62"/>
<line x1="891" y1="61" x2="891" y2="60"/>
<line x1="891" y1="61" x2="892" y2="61"/>
<line x1="891" y1="59" x2="891" y2="59"/>
<line x1="891" y1="59" x2="891" y2="60"/>
<line x1="890" y1="58" x2="890" y2="58"/>
<line x1="890" y1="58" x2="891" y2="59"/>
<line x1="890" y1="57" x2="890" y2="56"/>
<line x1="890" y1="57" x2="890" y2="58"/>
<line x1="890" y1="55" x2="890" y2="55"/>
<line x1="890" y1="55" x2="890" y2="56"/>
<line x1="890" y1="54" x2="890" y2="54"/>
<line x1="890" y1="54" x2="890" y2="55"/>
<line x1="890" y1="53" x2="890" y2="52"/>
<line x1="890" y1="53" x2="890" y2="54"/>
<line x1="891" y1="51" x2="891" y2="51"/>
<line x1="891" y1="51" x2="890" y2="52"/>
<line x1="891" y1="50" x2="891" y2="50"/>
<line x1="891" y1="50" x2="891" y2="51"/>
<line x1="891" y1="49" x2="892" y2="49"/>
<line x1="891" y1="49" x2="891" y2="50"/>
<line x1="892" y1="48" x2="892" y2="48"/>
<line x1="892" y1="48" x2="892" y2="49"/>
<line x1="893" y1="47" x2="893" y2="47"/>
<line x1="893" y1="47" x2="892" y2="48"/>
<line x1="894" y1="46" x2="894" y2="46"/>
<line x1="894" y1="46" x2="893" y2="47"/>
<line x1="895" y1="45" x2="895" y2="45"/>
<line x1="895" y1="45" x2="894" y2="46"/>
<line x1="896" y1="44" x2="896" y2="44"/>
<line x1="896" y1="44" x2="895" y2="45"/>
<line x1="897" y1="43" x2="897" y2="43"/>
<line x1="897" y1="43" x2="896" y2="44"/>
<line x1="898" y1="43" x2="898" y2="43"/>
<line x1="898" y1="43" x2="897" y2="43"/>
<line x1="899" y1="42" x2="899" y2="42"/>
<line x1="899" y1="42" x2="898" y2="43"/>
<line x1="900" y1="42" x2="901" y2="42"/>
<line x1="900" y1="42" x2="899" y2="42"/>
<line x1="902" y1="42" x2="902" y2="42"/>
<line x1="902" y1="42" x2="901" y2="42"/>
<line x1="903" y1="42" x2="903" y2="42"/>
<line x1="903" y1="42" x2="902" y2="42"/>
<line x1="904" y1="42" x2="905" y2="42"/>
<line x1="903" y1="42" x2="904" y2="42"/>
<line x1="906" y1="42" x2="906" y2="42"/>
<line x1="905" y1="42" x2="906" y2="42"/>
<line x1="907" y1="42" x2="907" y2="42"/>
<line x1="906" y1="42" x2="907" y2="42"/>
<line x1="908" y1="43" x2="908" y2="43"/>
<line x1="907" y1="42" x2="908" y2="43"/>
<line x1="909" y1="43" x2="910" y2="43"/>
<line x1="908" y1="43" x2="909" y2="43"/>
<line x1="910" y1="44" x2="911" y2="44"/>
<line x1="910" y1="43" x2="910" y2="44"/>
<line x1="911" y1="44" x2="912" y2="45"/>
<line x1="911" y1="44" x2="911" y2="44"/>
<line x1="912" y1="45" x2="913" y2="46"/>
<line x1="912" y1="45" x2="912" y2="45"/>
<line x1="913" y1="46" x2="913" y2="47"/>
<line x1="913" y1="46" x2="913" y2="46"/>
<line x1="914" y1="47" x2="914" y2="48"/>
<line x1="913" y1="47" x2="914" y2="47"/>
<line x1="915" y1="48" x2="915" y2="49"/>
<line x1="914" y1="48" x2="915" y2="48"/>
<line x1="915" y1="50" x2="915" y2="50"/>
<line x1="915" y1="49" x2="915" y2="50"/>
<line x1="916" y1="51" x2="916" y2="51"/>
<line x1="915" y1="50" x2="916" y2="51"/>
<line x1="916" y1="52" x2="916" y2="52"/>
<line x1="916" y1="51" x2="916" y2="52"/>
<line x1="916" y1="53" x2="916" y2="54"/>
<line x1="916" y1="52" x2="916" y2="53"/>
<line x1="916" y1="55" x2="917" y2="55"/>
<line x1="916" y1="54" x2="916" y2="55"/>
<line x1="916" y1="56" x2="916" y2="56"/>
<line x1="917" y1="55" x2="916" y2="56"/>
<line x1="916" y1="57" x2="916" y2="58"/>
<line x1="916" y1="56" x2="916" y2="57"/>
<line x1="916" y1="59" x2="916" y2="59"/>
<line x1="916" y1="58" x2="916" y2="59"/>
<line x1="916" y1="60" x2="915" y2="60"/>
<line x1="916" y1="59" x2="916" y2="60"/>
<line x1="915" y1="61" x2="915" y2="61"/>
<line x1="915" y1="60" x2="915" y2="61"/>
<line x1="914" y1="62" x2="914" y2="62"/>
<line x1="915" y1="61" x2="914" y2="62"/>
<line x1="914" y1="63" x2="913" y2="64"/>
<line x1="914" y1="62" x2="914" y2="63"/>
<line x1="913" y1="64" x2="913" y2="65"/>
<line x1="913" y1="64" x2="913" y2="64"/>
<line x1="912" y1="65" x2="912" y2="65"/>
<line x1="913" y1="65" x2="912" y2="65"/>
<line x1="911" y1="66" x2="911" y2="66"/>
<line x1="912" y1="65" x2="911" y2="66"/>
<line x1="910" y1="67" x2="910" y2="67"/>
<line x1="911" y1="66" x2="910" y2="67"/>
<line x1="909" y1="67" x2="908" y2="67"/>
<line x1="910" y1="67" x2="909" y2="67"/>
<line x1="907" y1="68" x2="907" y2="68"/>
<line x1="908" y1="67" x2="907" y2="68"/>
<line x1="906" y1="68" x2="906" y2="68"/>
<line x1="907" y1="68" x2="906" y2="68"/>
<line x1="905" y1="68" x2="905" y2="68"/>
<line x1="906" y1="68" x2="905" y2="68"/>
<line x1="904" y1="68" x2="903" y2="68"/>
<line x1="905" y1="68" x2="904" y2="68"/>
<line x1="902" y1="68" x2="902" y2="68"/>
<line x1="902" y1="68" x2="903" y2="68"/>
<line x1="902" y1="860" x2="901" y2="860"/>
<line x1="901" y1="860" x2="901" y2="860"/>
<line x1="902" y1="860" x2="903" y2="860"/>
<line x1="902" y1="860" x2="902" y2="860"/>
<line x1="901" y1="859" x2="900" y2="859"/>
<line x1="901" y1="859" x2="901" y2="860"/>
<line x1="901" y1="859" x2="901" y2="859"/>
<line x1="899" y1="859" x2="899" y2="859"/>
<line x1="899" y1="859" x2="900" y2="859"/>
<line x1="898" y1="859" x2="898" y2="858"/>
<line x1="898" y1="859" x2="899" y2="859"/>
<line x1="897" y1="858" x2="897" y2="858"/>
<line x1="897" y1="858" x2="898" y2="858"/>
<line x1="896" y1="857" x2="895" y2="857"/>
<line x1="896" y1="857" x2="897" y2="858"/>
<line x1="895" y1="856" x2="895" y2="856"/>
<line x1="895" y1="856" x2="895" y2="857"/>
<line x1="894" y1="855" x2="894" y2="855"/>
<line x1="894" y1="855" x2="895" y2="856"/>
<line x1="893" y1="854" x2="893" y2="854"/>
<line x1="893" y1="854" x2="894" y2="855"/>
<line x1="893" y1="853" x2="892" y2="853"/>
<line x1="893" y1="853" x2="893" y2="854"/>
<line x1="892" y1="852" x2="892" y2="852"/>
<line x1="892" y1="852" x2="892" y2="853"/>
<line x1="891" y1="851" x2="891" y2="850"/>
<line x1="891" y1="851" x2="892" y2="852"/>
<line x1="891" y1="850" x2="891" y2="849"/>
<line x1="891" y1="850" x2="891" y2="850"/>
<line x1="891" y1="848" x2="891" y2="848"/>
<line x1="891" y1="848" x2="891" y2="849"/>
<line x1="891" y1="847" x2="891" y2="846"/>
<line x1="891" y1="847" x2="891" y2="848"/>
<line x1="891" y1="846" x2="891" y2="845"/>
<line x1="891" y1="846" x2="891" y2="846"/>
<line x1="891" y1="845" x2="891" y2="844"/>
<line x1="891" y1="845" x2="891" y2="845"/>
<line x1="891" y1="843" x2="891" y2="843"/>
<line x1="891" y1="843" x2="891" y2="844"/>
<line x1="891" y1="842" x2="892" y2="841"/>
<line x1="891" y1="842" x2="891" y2="843"/>
<line x1="892" y1="841" x2="892" y2="840"/>
<line x1="892" y1="841" x2="892" y2="841"/>
<line x1="893" y1="840" x2="893" y2="839"/>
<line x1="893" y1="840" x2="892" y2="840"/>
<line x1="893" y1="839" x2="894" y2="838"/>
<line x1="893" y1="839" x2="893" y2="839"/>
<line x1="894" y1="838" x2="895" y2="837"/>
<line x1="894" y1="838" x2="894" y2="838"/>
<line x1="895" y1="837" x2="895" y2="836"/>
<line x1="895" y1="837" x2="895" y2="837"/>
<line x1="896" y1="836" x2="897" y2="835"/>
<line x1="896" y1="836" x2="895" y2="836"/>
<line x1="897" y1="835" x2="898" y2="835"/>
<line x1="897" y1="835" x2="897" y2="835"/>
<line x1="898" y1="834" x2="899" y2="834"/>
<line x1="898" y1="834" x2="898" y2="835"/>
<line x1="899" y1="834" x2="900" y2="834"/>
<line x1="899" y1="834" x2="899" y2="834"/>
<line x1="901" y1="834" x2="901" y2="833"/>
<line x1="901" y1="834" x2="900" y2="834"/>
<line x1="902" y1="833" x2="903" y2="833"/>
<line x1="902" y1="833" x2="901" y2="833"/>
<line x1="903" y1="833" x2="904" y2="833"/>
<line x1="903" y1="833" x2="903" y2="833"/>
<line x1="905" y1="833" x2="905" y2="833"/>
<line x1="904" y1="833" x2="905" y2="833"/>
<line x1="906" y1="833" x2="906" y2="833"/>
<line x1="905" y1="833" x2="906" y2="833"/>
<line x1="907" y1="834" x2="908" y2="834"/>
<line x1="906" y1="833" x2="907" y2="834"/>
<line x1="908" y1="834" x2="909" y2="834"/>
<line x1="908" y1="834" x2="908" y2="834"/>
<line x1="910" y1="834" x2="910" y2="835"/>
<line x1="909" y1="834" x2="910" y2="834"/>
<line x1="911" y1="835" x2="911" y2="835"/>
<line x1="910" y1="835" x2="911" y2="835"/>
<line x1="912" y1="836" x2="912" y2="836"/>
<line x1="911" y1="835" x2="912" y2="836"/>
<line x1="913" y1="837" x2="913" y2="837"/>
<line x1="912" y1="836" x2="913" y2="837"/>
<line x1="914" y1="838" x2="914" y2="838"/>
<line x1="913" y1="837" x2="914" y2="838"/>
<line x1="914" y1="839" x2="915" y2="839"/>
<line x1="914" y1="838" x2="914" y2="839"/>
<line x1="915" y1="840" x2="916" y2="840"/>
<line x1="915" y1="839" x2="915" y2="840"/>
<line x1="916" y1="841" x2="916" y2="841"/>
<line x1="916" y1="840" x2="916" y2="841"/>
<line x1="916" y1="842" x2="917" y2="843"/>
<line x1="916" y1="841" x2="916" y2="842"/>
<line x1="917" y1="843" x2="917" y2="843"/>
<line x1="917" y1="843" x2="917" y2="843"/>
<line x1="917" y1="850" x2="917" y2="850"/>
<line x1="917" y1="850" x2="917" y2="850"/>
<line x1="916" y1="851" x2="916" y2="852"/>
<line x1="917" y1="850" x2="916" y2="851"/>
<line x1="916" y1="852" x2="916" y2="853"/>
<line x1="916" y1="852" x2="916" y2="852"/>
<line x1="915" y1="853" x2="915" y2="854"/>
<line x1="916" y1="853" x2="915" y2="853"/>
<line x1="915" y1="854" x2="914" y2="855"/>
<line x1="915" y1="854" x2="915" y2="854"/>
<line x1="914" y1="855" x2="913" y2="856"/>
<line x1="914" y1="855" x2="914" y2="855"/>
<line x1="913" y1="856" x2="912" y2="857"/>
<line x1="913" y1="856" x2="913" y2="856"/>
<line x1="912" y1="857" x2="911" y2="858"/>
<line x1="912" y1="857" x2="912" y2="857"/>
<line x1="911" y1="858" x2="910" y2="858"/>
<line x1="911" y1="858" x2="911" y2="858"/>
<line x1="910" y1="859" x2="909" y2="859"/>
<line x1="910" y1="858" x2="910" y2="859"/>
<line x1="908" y1="859" x2="908" y2="859"/>
<line x1="909" y1="859" x2="908" y2="859"/>
<line x1="907" y1="859" x2="907" y2="859"/>
<line x1="907" y1="859" x2="906" y2="860"/>
<line x1="907" y1="859" x2="908" y2="859"/>
<line x1="906" y1="860" x2="905" y2="860"/>
<line x1="905" y1="860" x2="905" y2="860"/>
<line x1="906" y1="860" x2="906" y2="860"/>
<line x1="906" y1="860" x2="906" y2="860"/>
<line x1="904" y1="860" x2="905" y2="860"/>
<line x1="904" y1="860" x2="904" y2="860"/>
<line x1="905" y1="860" x2="905" y2="860"/>
<line x1="905" y1="860" x2="905" y2="860"/>
<line x1="903" y1="860" x2="903" y2="860"/>
<line x1="903" y1="860" x2="903" y2="860"/>
<line x1="904" y1="860" x2="904" y2="860"/>
<line x1="903" y1="860" x2="904" y2="860"/>
</g></svg>