<svg xmlns="http://www.w3.org/2000/svg" width="1400" height="900" viewBox="0 0 1400 900">
<rect x="0" y="0" width="100%" height="100%" fill="white"/>
<g stroke="#111" stroke-width="1.2" fill="none" stroke-linecap="round">
<line x1="510" y1="830" x2="510" y2="831"/>
<line x1="510" y1="75" x2="510" y2="78"/>
<line x1="745" y1="75" x2="732" y2="75"/>
<line x1="732" y1="75" x2="726" y2="75"/>
<line x1="726" y1="75" x2="510" y2="75"/>
<line x1="745" y1="75" x2="917" y2="75"/>
<line x1="582" y1="831" x2="917" y2="831"/>
<line x1="582" y1="831" x2="556" y2="831"/>
<line x1="556" y1="831" x2="545" y2="831"/>
<line x1="545" y1="831" x2="510" y2="831"/>
<line x1="510" y1="130" x2="510" y2="130"/>
<line x1="510" y1="130" x2="510" y2="139"/>
<line x1="510" y1="139" x2="510" y2="139"/>
<line x1="510" y1="139" x2="510" y2="149"/>
<line x1="510" y1="149" x2="510" y2="149"/>
<line x1="510" y1="149" x2="510" y2="158"/>
<line x1="510" y1="158" x2="510" y2="158"/>
<line x1="510" y1="158" x2="510" y2="167"/>
<line x1="510" y1="167" x2="510" y2="167"/>
<line x1="510" y1="167" x2="510" y2="176"/>
<line x1="510" y1="176" x2="510" y2="176"/>
<line x1="510" y1="176" x2="510" y2="184"/>
<line x1="510" y1="184" x2="510" y2="184"/>
<line x1="510" y1="184" x2="510" y2="193"/>
<line x1="510" y1="193" x2="510" y2="193"/>
<line x1="510" y1="193" x2="510" y2="202"/>
<line x1="510" y1="202" x2="510" y2="202"/>
<line x1="510" y1="202" x2="510" y2="210"/>
<line x1="510" y1="210" x2="510" y2="210"/>
<line x1="510" y1="210" x2="510" y2="218"/>
<line x1="510" y1="218" x2="510" y2="218"/>
<line x1="510" y1="218" x2="510" y2="227"/>
<line x1="510" y1="227" x2="510" y2="227"/>
<line x1="510" y1="227" x2="510" y2="235"/>
<line x1="510" y1="235" x2="510" y2="235"/>
<line x1="510" y1="235" x2="510" y2="243"/>
<line x1="510" y1="243" x2="510" y2="243"/>
<line x1="510" y1="243" x2="510" y2="251"/>
<line x1="510" y1="251" x2="510" y2="251"/>
<line x1="510" y1="251" x2="510" y2="259"/>
<line x1="510" y1="259" x2="510" y2="259"/>
<line x1="510" y1="259" x2="510" y2="267"/>
<line x1="510" y1="267" x2="510" y2="267"/>
<line x1="510" y1="267" x2="510" y2="274"/>
<line x1="510" y1="274" x2="510" y2="274"/>
<line x1="510" y1="274" x2="510" y2="282"/>
<line x1="510" y1="282" x2="510" y2="282"/>
<line x1="510" y1="282" x2="510" y2="290"/>
<line x1="510" y1="290" x2="510" y2="290"/>
<line x1="510" y1="290" x2="510" y2="297"/>
<line x1="510" y1="297" x2="510" y2="297"/>
<line x1="510" y1="297" x2="510" y2="305"/>
<line x1="510" y1="305" x2="510" y2="305"/>
<line x1="510" y1="312" x2="510" y2="305"/>
<line x1="510" y1="312" x2="510" y2="312"/>
<line x1="510" y1="320" x2="510" y2="312"/>
<line x1="510" y1="320" x2="510" y2="320"/>
<line x1="510" y1="327" x2="510" y2="320"/>
<line x1="510" y1="327" x2="510" y2="327"/>
<line x1="510" y1="334" x2="510" y2="327"/>
<line x1="510" y1="334" x2="510" y2="334"/>
<line x1="510" y1="342" x2="510" y2="334"/>
<line x1="510" y1="342" x2="510" y2="342"/>
<line x1="510" y1="349" x2="510" y2="342"/>
<line x1="510" y1="349" x2="510" y2="349"/>
<line x1="510" y1="356" x2="510" y2="349"/>
<line x1="510" y1="356" x2="510" y2="356"/>
<line x1="510" y1="363" x2="510" y2="356"/>
<line x1="510" y1="363" x2="510" y2="363"/>
<line x1="510" y1="370" x2="510" y2="363"/>
<line x1="510" y1="370" x2="510" y2="370"/>
<line x1="510" y1="391" x2="510" y2="593"/>
<line x1="510" y1="377" x2="510" y2="370"/>
<line x1="510" y1="377" x2="510" y2="377"/>
<line x1="510" y1="384" x2="510" y2="377"/>
<line x1="510" y1="384" x2="510" y2="384"/>
<line x1="510" y1="391" x2="510" y2="384"/>
<line x1="510" y1="593" x2="510" y2="593"/>
<line x1="510" y1="593" x2="510" y2="600"/>
<line x1="510" y1="600" x2="510" y2="600"/>
<line x1="510" y1="600" x2="510" y2="608"/>
<line x1="510" y1="608" x2="510" y2="608"/>
<line x1="510" y1="608" x2="510" y2="615"/>
<line x1="510" y1="615" x2="510" y2="615"/>
<line x1="510" y1="615" x2="510" y2="623"/>
<line x1="510" y1="623" x2="510" y2="623"/>
<line x1="510" y1="623" x2="510" y2="630"/>
<line x1="510" y1="630" x2="510" y2="630"/>
<line x1="510" y1="630" x2="510" y2="637"/>
<line x1="510" y1="637" x2="510" y2="637"/>
<line x1="510" y1="637" x2="510" y2="645"/>
<line x1="510" y1="645" x2="510" y2="645"/>
<line x1="510" y1="645" x2="510" y2="652"/>
<line x1="510" y1="652" x2="510" y2="652"/>
<line x1="510" y1="652" x2="510" y2="659"/>
<line x1="510" y1="659" x2="510" y2="659"/>
<line x1="510" y1="659" x2="510" y2="666"/>
<line x1="510" y1="666" x2="510" y2="782"/>
<line x1="483" y1="110" x2="483" y2="116"/>
<line x1="483" y1="116" x2="483" y2="116"/>
<line x1="483" y1="116" x2="483" y2="122"/>
<line x1="483" y1="122" x2="483" y2="122"/>
<line x1="483" y1="110" x2="483" y2="40"/>
<line x1="483" y1="127" x2="483" y2="122"/>
<line x1="483" y1="127" x2="483" y2="127"/>
<line x1="483" y1="133" x2="483" y2="127"/>
<line x1="483" y1="133" x2="483" y2="133"/>
<line x1="483" y1="139" x2="483" y2="133"/>
<line x1="483" y1="139" x2="483" y2="139"/>
<line x1="483" y1="144" x2="483" y2="139"/>
<line x1="483" y1="144" x2="483" y2="144"/>
<line x1="483" y1="150" x2="483" y2="144"/>
<line x1="483" y1="150" x2="483" y2="150"/>
<line x1="483" y1="155" x2="483" y2="150"/>
<line x1="483" y1="155" x2="483" y2="155"/>
<line x1="483" y1="160" x2="483" y2="155"/>
<line x1="483" y1="160" x2="483" y2="160"/>
<line x1="483" y1="165" x2="483" y2="160"/>
<line x1="483" y1="165" x2="483" y2="165"/>
<line x1="483" y1="170" x2="483" y2="165"/>
<line x1="483" y1="171" x2="483" y2="170"/>
<line x1="483" y1="176" x2="483" y2="171"/>
<line x1="483" y1="176" x2="483" y2="176"/>
<line x1="483" y1="181" x2="483" y2="176"/>
<line x1="483" y1="181" x2="483" y2="181"/>
<line x1="483" y1="185" x2="483" y2="181"/>
<line x1="483" y1="186" x2="483" y2="185"/>
<line x1="483" y1="190" x2="483" y2="186"/>
<line x1="483" y1="190" x2="483" y2="190"/>
<line x1="483" y1="195" x2="483" y2="190"/>
<line x1="483" y1="195" x2="483" y2="195"/>
<line x1="483" y1="200" x2="483" y2="195"/>
<line x1="483" y1="200" x2="483" y2="200"/>
<line x1="483" y1="205" x2="483" y2="200"/>
<line x1="483" y1="205" x2="483" y2="205"/>
<line x1="483" y1="209" x2="483" y2="205"/>
<line x1="483" y1="209" x2="483" y2="209"/>
<line x1="483" y1="214" x2="483" y2="209"/>
<line x1="483" y1="214" x2="483" y2="214"/>
<line x1="483" y1="219" x2="483" y2="214"/>
<line x1="483" y1="219" x2="483" y2="219"/>
<line x1="483" y1="223" x2="483" y2="219"/>
<line x1="483" y1="223" x2="483" y2="821"/>
<line x1="483" y1="821" x2="483" y2="821"/>
<line x1="483" y1="821" x2="483" y2="823"/>
<line x1="483" y1="823" x2="483" y2="823"/>
<line x1="483" y1="823" x2="483" y2="824"/>
<line x1="483" y1="824" x2="483" y2="824"/>
<line x1="483" y1="824" x2="483" y2="826"/>
<line x1="483" y1="826" x2="483" y2="826"/>
<line x1="483" y1="826" x2="483" y2="827"/>
<line x1="483" y1="827" x2="483" y2="827"/>
<line x1="483" y1="827" x2="483" y2="828"/>
<line x1="483" y1="828" x2="483" y2="829"/>
<line x1="483" y1="829" x2="483" y2="830"/>
<line x1="483" y1="830" x2="483" y2="830"/>
<line x1="483" y1="830" x2="483" y2="831"/>
<line x1="483" y1="831" x2="483" y2="831"/>
<line x1="483" y1="831" x2="483" y2="832"/>
<line x1="483" y1="832" x2="483" y2="833"/>
<line x1="483" y1="833" x2="483" y2="834"/>
<line x1="483" y1="834" x2="483" y2="834"/>
<line x1="483" y1="834" x2="483" y2="835"/>
<line x1="483" y1="835" x2="483" y2="835"/>
<line x1="483" y1="835" x2="483" y2="836"/>
<line x1="483" y1="836" x2="483" y2="836"/>
<line x1="483" y1="836" x2="483" y2="838"/>
<line x1="483" y1="838" x2="483" y2="838"/>
<line x1="483" y1="838" x2="483" y2="839"/>
<line x1="483" y1="839" x2="483" y2="839"/>
<line x1="483" y1="839" x2="483" y2="840"/>
<line x1="483" y1="840" x2="483" y2="840"/>
<line x1="483" y1="840" x2="483" y2="841"/>
<line x1="483" y1="841" x2="483" y2="841"/>
<line x1="483" y1="841" x2="483" y2="842"/>
<line x1="483" y1="842" x2="483" y2="842"/>
<line x1="483" y1="842" x2="483" y2="843"/>
<line x1="483" y1="843" x2="483" y2="844"/>
<line x1="483" y1="844" x2="483" y2="845"/>
<line x1="483" y1="845" x2="483" y2="845"/>
<line x1="483" y1="845" x2="483" y2="846"/>
<line x1="483" y1="846" x2="483" y2="846"/>
<line x1="483" y1="846" x2="483" y2="847"/>
<line x1="483" y1="847" x2="483" y2="847"/>
<line x1="483" y1="847" x2="483" y2="848"/>
<line x1="483" y1="848" x2="483" y2="848"/>
<line x1="483" y1="848" x2="483" y2="849"/>
<line x1="483" y1="860" x2="483" y2="849"/>
<line x1="917" y1="46" x2="917" y2="40"/>
<line x1="917" y1="46" x2="917" y2="75"/>
<line x1="917" y1="849" x2="917" y2="860"/>
<line x1="917" y1="849" x2="917" y2="831"/>
<line x1="749" y1="40" x2="917" y2="40"/>
<line x1="749" y1="40" x2="743" y2="40"/>
<line x1="743" y1="40" x2="736" y2="40"/>
<line x1="736" y1="40" x2="731" y2="40"/>
<line x1="731" y1="40" x2="483" y2="40"/>
<line x1="559" y1="860" x2="546" y2="860"/>
<line x1="546" y1="860" x2="531" y2="860"/>
<line x1="531" y1="860" x2="526" y2="860"/>
<line x1="526" y1="860" x2="520" y2="860"/>
<line x1="520" y1="860" x2="483" y2="860"/>
<line x1="559" y1="860" x2="917" y2="860"/>
<line x1="486" y1="805" x2="486" y2="804"/>
<line x1="486" y1="805" x2="486" y2="806"/>
<line x1="487" y1="801" x2="487" y2="803"/>
<line x1="489" y1="795" x2="489" y2="796"/>
<line x1="494" y1="788" x2="495" y2="787"/>
<line x1="494" y1="788" x2="493" y2="789"/>
<line x1="496" y1="787" x2="495" y2="787"/>
<line x1="486" y1="804" x2="487" y2="803"/>
<line x1="503" y1="783" x2="504" y2="783"/>
<line x1="494" y1="824" x2="493" y2="823"/>
<line x1="494" y1="824" x2="495" y2="825"/>
<line x1="507" y1="782" x2="508" y2="782"/>
<line x1="507" y1="782" x2="506" y2="782"/>
<line x1="487" y1="800" x2="487" y2="801"/>
<line x1="497" y1="786" x2="498" y2="786"/>
<line x1="502" y1="783" x2="503" y2="783"/>
<line x1="502" y1="783" x2="501" y2="784"/>
<line x1="509" y1="782" x2="510" y2="782"/>
<line x1="510" y1="830" x2="510" y2="830"/>
<line x1="510" y1="830" x2="508" y2="830"/>
<line x1="491" y1="792" x2="490" y2="793"/>
<line x1="492" y1="791" x2="492" y2="790"/>
<line x1="499" y1="785" x2="498" y2="786"/>
<line x1="500" y1="784" x2="499" y2="785"/>
<line x1="509" y1="782" x2="508" y2="782"/>
<line x1="496" y1="825" x2="495" y2="825"/>
<line x1="496" y1="825" x2="497" y2="826"/>
<line x1="490" y1="794" x2="490" y2="793"/>
<line x1="490" y1="794" x2="489" y2="795"/>
<line x1="493" y1="789" x2="492" y2="790"/>
<line x1="491" y1="792" x2="492" y2="791"/>
<line x1="487" y1="800" x2="487" y2="799"/>
<line x1="488" y1="797" x2="489" y2="796"/>
<line x1="488" y1="798" x2="488" y2="797"/>
<line x1="488" y1="798" x2="487" y2="799"/>
<line x1="496" y1="787" x2="497" y2="786"/>
<line x1="500" y1="784" x2="501" y2="784"/>
<line x1="506" y1="782" x2="504" y2="783"/>
<line x1="487" y1="812" x2="487" y2="811"/>
<line x1="489" y1="816" x2="488" y2="815"/>
<line x1="489" y1="816" x2="489" y2="817"/>
<line x1="490" y1="820" x2="490" y2="819"/>
<line x1="492" y1="822" x2="492" y2="822"/>
<line x1="492" y1="822" x2="493" y2="823"/>
<line x1="486" y1="807" x2="486" y2="806"/>
<line x1="486" y1="807" x2="486" y2="808"/>
<line x1="487" y1="810" x2="486" y2="808"/>
<line x1="487" y1="810" x2="487" y2="811"/>
<line x1="488" y1="814" x2="487" y2="813"/>
<line x1="488" y1="814" x2="488" y2="815"/>
<line x1="507" y1="830" x2="506" y2="830"/>
<line x1="507" y1="830" x2="508" y2="830"/>
<line x1="503" y1="829" x2="503" y2="829"/>
<line x1="503" y1="829" x2="505" y2="829"/>
<line x1="502" y1="829" x2="501" y2="828"/>
<line x1="502" y1="829" x2="503" y2="829"/>
<line x1="498" y1="827" x2="497" y2="826"/>
<line x1="498" y1="827" x2="499" y2="827"/>
<line x1="489" y1="817" x2="490" y2="819"/>
<line x1="487" y1="812" x2="487" y2="813"/>
<line x1="506" y1="830" x2="505" y2="829"/>
<line x1="492" y1="822" x2="492" y2="821"/>
<line x1="491" y1="821" x2="490" y2="820"/>
<line x1="491" y1="821" x2="492" y2="821"/>
<line x1="500" y1="828" x2="499" y2="827"/>
<line x1="500" y1="828" x2="501" y2="828"/>
<line x1="486" y1="101" x2="486" y2="103"/>
<line x1="486" y1="104" x2="486" y2="103"/>
<line x1="491" y1="88" x2="492" y2="87"/>
<line x1="495" y1="84" x2="495" y2="84"/>
<line x1="495" y1="84" x2="493" y2="85"/>
<line x1="509" y1="130" x2="508" y2="130"/>
<line x1="488" y1="93" x2="489" y2="91"/>
<line x1="488" y1="93" x2="488" y2="94"/>
<line x1="490" y1="89" x2="489" y2="91"/>
<line x1="488" y1="112" x2="487" y2="111"/>
<line x1="491" y1="88" x2="490" y2="89"/>
<line x1="487" y1="99" x2="487" y2="99"/>
<line x1="492" y1="120" x2="493" y2="122"/>
<line x1="498" y1="81" x2="499" y2="81"/>
<line x1="498" y1="81" x2="497" y2="82"/>
<line x1="489" y1="116" x2="490" y2="118"/>
<line x1="489" y1="91" x2="489" y2="91"/>
<line x1="509" y1="130" x2="510" y2="130"/>
<line x1="492" y1="87" x2="492" y2="87"/>
<line x1="486" y1="106" x2="487" y2="108"/>
<line x1="487" y1="111" x2="487" y2="111"/>
<line x1="496" y1="82" x2="497" y2="82"/>
<line x1="496" y1="82" x2="495" y2="84"/>
<line x1="498" y1="126" x2="499" y2="127"/>
<line x1="491" y1="119" x2="492" y2="120"/>
<line x1="487" y1="109" x2="487" y2="108"/>
<line x1="487" y1="109" x2="487" y2="111"/>
<line x1="488" y1="96" x2="488" y2="94"/>
<line x1="488" y1="96" x2="487" y2="96"/>
<line x1="487" y1="98" x2="487" y2="96"/>
<line x1="487" y1="98" x2="487" y2="99"/>
<line x1="489" y1="116" x2="489" y2="115"/>
<line x1="492" y1="87" x2="493" y2="85"/>
<line x1="492" y1="87" x2="492" y2="87"/>
<line x1="486" y1="106" x2="486" y2="106"/>
<line x1="486" y1="104" x2="486" y2="106"/>
<line x1="493" y1="122" x2="493" y2="122"/>
<line x1="496" y1="124" x2="495" y2="124"/>
<line x1="496" y1="124" x2="497" y2="125"/>
<line x1="494" y1="123" x2="493" y2="122"/>
<line x1="494" y1="123" x2="495" y2="124"/>
<line x1="509" y1="78" x2="508" y2="78"/>
<line x1="509" y1="78" x2="510" y2="78"/>
<line x1="501" y1="80" x2="501" y2="80"/>
<line x1="488" y1="114" x2="489" y2="115"/>
<line x1="488" y1="112" x2="488" y2="114"/>
<line x1="490" y1="118" x2="490" y2="118"/>
<line x1="491" y1="119" x2="490" y2="118"/>
<line x1="504" y1="129" x2="503" y2="129"/>
<line x1="504" y1="129" x2="506" y2="129"/>
<line x1="507" y1="78" x2="508" y2="78"/>
<line x1="507" y1="78" x2="506" y2="78"/>
<line x1="487" y1="99" x2="486" y2="101"/>
<line x1="501" y1="80" x2="501" y2="80"/>
<line x1="501" y1="80" x2="499" y2="81"/>
<line x1="505" y1="78" x2="506" y2="78"/>
<line x1="505" y1="78" x2="503" y2="79"/>
<line x1="498" y1="126" x2="497" y2="125"/>
<line x1="503" y1="129" x2="503" y2="128"/>
<line x1="506" y1="129" x2="506" y2="129"/>
<line x1="506" y1="129" x2="508" y2="130"/>
<line x1="502" y1="79" x2="501" y2="80"/>
<line x1="503" y1="79" x2="503" y2="79"/>
<line x1="503" y1="79" x2="502" y2="79"/>
<line x1="501" y1="128" x2="503" y2="128"/>
<line x1="500" y1="127" x2="499" y2="127"/>
<line x1="500" y1="127" x2="501" y2="128"/>
</g></svg>