<svg xmlns="http://www.w3.org/2000/svg" width="1400" height="900" viewBox="0 0 1400 900">
<rect x="0" y="0" width="100%" height="100%" fill="white"/>
<g stroke="#111" stroke-width="1.2" fill="none" stroke-linecap="round">
<line x1="514" y1="819" x2="514" y2="807"/>
<line x1="514" y1="819" x2="514" y2="831"/>
<line x1="514" y1="71" x2="514" y2="70"/>
<line x1="514" y1="72" x2="514" y2="71"/>
<line x1="514" y1="73" x2="514" y2="72"/>
<line x1="514" y1="74" x2="514" y2="73"/>
<line x1="514" y1="74" x2="514" y2="74"/>
<line x1="514" y1="75" x2="514" y2="74"/>
<line x1="514" y1="75" x2="514" y2="75"/>
<line x1="514" y1="76" x2="514" y2="75"/>
<line x1="514" y1="76" x2="514" y2="76"/>
<line x1="514" y1="76" x2="514" y2="76"/>
<line x1="514" y1="77" x2="514" y2="76"/>
<line x1="514" y1="77" x2="514" y2="77"/>
<line x1="514" y1="77" x2="514" y2="77"/>
<line x1="514" y1="77" x2="514" y2="77"/>
<line x1="514" y1="77" x2="514" y2="77"/>
<line x1="514" y1="77" x2="514" y2="77"/>
<line x1="514" y1="78" x2="514" y2="77"/>
<line x1="752" y1="831" x2="912" y2="831"/>
<line x1="752" y1="831" x2="514" y2="831"/>
<line x1="516" y1="70" x2="514" y2="70"/>
<line x1="516" y1="70" x2="522" y2="70"/>
<line x1="798" y1="70" x2="912" y2="70"/>
<line x1="798" y1="70" x2="538" y2="70"/>
<line x1="538" y1="52" x2="538" y2="52"/>
<line x1="538" y1="52" x2="538" y2="52"/>
<line x1="537" y1="52" x2="538" y2="52"/>
<line x1="538" y1="52" x2="538" y2="52"/>
<line x1="538" y1="52" x2="538" y2="52"/>
<line x1="538" y1="52" x2="538" y2="52"/>
<line x1="532" y1="58" x2="532" y2="59"/>
<line x1="532" y1="58" x2="532" y2="58"/>
<line x1="533" y1="58" x2="532" y2="58"/>
<line x1="533" y1="57" x2="533" y2="58"/>
<line x1="533" y1="57" x2="533" y2="57"/>
<line x1="534" y1="57" x2="533" y2="57"/>
<line x1="534" y1="56" x2="534" y2="57"/>
<line x1="534" y1="56" x2="534" y2="56"/>
<line x1="535" y1="55" x2="534" y2="56"/>
<line x1="535" y1="55" x2="535" y2="55"/>
<line x1="537" y1="52" x2="535" y2="55"/>
<line x1="538" y1="52" x2="538" y2="52"/>
<line x1="538" y1="52" x2="538" y2="52"/>
<line x1="538" y1="52" x2="538" y2="52"/>
<line x1="538" y1="52" x2="538" y2="52"/>
<line x1="532" y1="59" x2="532" y2="59"/>
<line x1="522" y1="69" x2="522" y2="70"/>
<line x1="523" y1="69" x2="522" y2="69"/>
<line x1="523" y1="68" x2="523" y2="69"/>
<line x1="523" y1="68" x2="523" y2="68"/>
<line x1="524" y1="68" x2="523" y2="68"/>
<line x1="524" y1="67" x2="524" y2="68"/>
<line x1="525" y1="67" x2="524" y2="67"/>
<line x1="525" y1="66" x2="525" y2="67"/>
<line x1="525" y1="66" x2="525" y2="66"/>
<line x1="526" y1="66" x2="525" y2="66"/>
<line x1="526" y1="65" x2="526" y2="66"/>
<line x1="526" y1="65" x2="526" y2="65"/>
<line x1="527" y1="64" x2="526" y2="65"/>
<line x1="527" y1="64" x2="527" y2="64"/>
<line x1="527" y1="64" x2="527" y2="64"/>
<line x1="528" y1="63" x2="527" y2="64"/>
<line x1="528" y1="63" x2="528" y2="63"/>
<line x1="528" y1="62" x2="528" y2="63"/>
<line x1="529" y1="62" x2="528" y2="62"/>
<line x1="529" y1="62" x2="529" y2="62"/>
<line x1="529" y1="61" x2="529" y2="62"/>
<line x1="530" y1="61" x2="529" y2="61"/>
<line x1="530" y1="60" x2="530" y2="61"/>
<line x1="530" y1="60" x2="530" y2="60"/>
<line x1="531" y1="60" x2="530" y2="60"/>
<line x1="531" y1="59" x2="531" y2="60"/>
<line x1="531" y1="59" x2="531" y2="59"/>
<line x1="532" y1="59" x2="531" y2="59"/>
<line x1="514" y1="79" x2="514" y2="78"/>
<line x1="514" y1="79" x2="514" y2="79"/>
<line x1="514" y1="79" x2="514" y2="79"/>
<line x1="514" y1="119" x2="514" y2="79"/>
<line x1="514" y1="772" x2="514" y2="119"/>
<line x1="514" y1="772" x2="514" y2="807"/>
<line x1="514" y1="807" x2="514" y2="807"/>
<line x1="514" y1="807" x2="514" y2="807"/>
<line x1="538" y1="69" x2="538" y2="70"/>
<line x1="538" y1="69" x2="538" y2="69"/>
<line x1="538" y1="69" x2="538" y2="69"/>
<line x1="538" y1="68" x2="538" y2="69"/>
<line x1="538" y1="68" x2="538" y2="68"/>
<line x1="538" y1="67" x2="538" y2="68"/>
<line x1="538" y1="67" x2="538" y2="67"/>
<line x1="538" y1="67" x2="538" y2="67"/>
<line x1="538" y1="66" x2="538" y2="67"/>
<line x1="538" y1="66" x2="538" y2="66"/>
<line x1="538" y1="65" x2="538" y2="66"/>
<line x1="538" y1="65" x2="538" y2="65"/>
<line x1="538" y1="64" x2="538" y2="65"/>
<line x1="538" y1="64" x2="538" y2="64"/>
<line x1="538" y1="64" x2="538" y2="64"/>
<line x1="538" y1="63" x2="538" y2="64"/>
<line x1="538" y1="63" x2="538" y2="63"/>
<line x1="538" y1="62" x2="538" y2="63"/>
<line x1="538" y1="62" x2="538" y2="62"/>
<line x1="538" y1="62" x2="538" y2="62"/>
<line x1="538" y1="61" x2="538" y2="62"/>
<line x1="538" y1="61" x2="538" y2="61"/>
<line x1="538" y1="61" x2="538" y2="61"/>
<line x1="538" y1="60" x2="538" y2="61"/>
<line x1="538" y1="60" x2="538" y2="60"/>
<line x1="538" y1="59" x2="538" y2="60"/>
<line x1="538" y1="59" x2="538" y2="59"/>
<line x1="538" y1="59" x2="538" y2="59"/>
<line x1="538" y1="58" x2="538" y2="59"/>
<line x1="538" y1="58" x2="538" y2="58"/>
<line x1="538" y1="57" x2="538" y2="58"/>
<line x1="538" y1="57" x2="538" y2="57"/>
<line x1="538" y1="57" x2="538" y2="57"/>
<line x1="538" y1="56" x2="538" y2="57"/>
<line x1="538" y1="56" x2="538" y2="56"/>
<line x1="538" y1="55" x2="538" y2="56"/>
<line x1="538" y1="55" x2="538" y2="55"/>
<line x1="538" y1="55" x2="538" y2="55"/>
<line x1="538" y1="54" x2="538" y2="55"/>
<line x1="538" y1="54" x2="538" y2="54"/>
<line x1="538" y1="54" x2="538" y2="54"/>
<line x1="538" y1="53" x2="538" y2="54"/>
<line x1="538" y1="53" x2="538" y2="53"/>
<line x1="538" y1="52" x2="538" y2="53"/>
<line x1="538" y1="52" x2="538" y2="52"/>
<line x1="538" y1="52" x2="538" y2="52"/>
<line x1="538" y1="52" x2="538" y2="52"/>
<line x1="538" y1="52" x2="538" y2="52"/>
<line x1="538" y1="52" x2="538" y2="52"/>
<line x1="538" y1="52" x2="538" y2="52"/>
<line x1="538" y1="52" x2="538" y2="52"/>
<line x1="538" y1="52" x2="538" y2="52"/>
<line x1="538" y1="52" x2="538" y2="52"/>
<line x1="488" y1="822" x2="488" y2="414"/>
<line x1="488" y1="822" x2="488" y2="822"/>
<line x1="488" y1="822" x2="488" y2="835"/>
<line x1="488" y1="835" x2="488" y2="835"/>
<line x1="488" y1="835" x2="488" y2="848"/>
<line x1="488" y1="848" x2="488" y2="849"/>
<line x1="488" y1="849" x2="488" y2="860"/>
<line x1="488" y1="46" x2="488" y2="40"/>
<line x1="488" y1="57" x2="488" y2="46"/>
<line x1="488" y1="67" x2="488" y2="57"/>
<line x1="488" y1="76" x2="488" y2="67"/>
<line x1="488" y1="85" x2="488" y2="76"/>
<line x1="488" y1="94" x2="488" y2="85"/>
<line x1="488" y1="102" x2="488" y2="94"/>
<line x1="488" y1="109" x2="488" y2="102"/>
<line x1="488" y1="117" x2="488" y2="109"/>
<line x1="488" y1="123" x2="488" y2="117"/>
<line x1="488" y1="130" x2="488" y2="123"/>
<line x1="488" y1="136" x2="488" y2="130"/>
<line x1="488" y1="153" x2="488" y2="414"/>
<line x1="488" y1="142" x2="488" y2="136"/>
<line x1="488" y1="148" x2="488" y2="142"/>
<line x1="488" y1="153" x2="488" y2="148"/>
<line x1="912" y1="49" x2="912" y2="40"/>
<line x1="912" y1="49" x2="912" y2="59"/>
<line x1="912" y1="65" x2="912" y2="59"/>
<line x1="912" y1="65" x2="912" y2="70"/>
<line x1="912" y1="835" x2="912" y2="831"/>
<line x1="912" y1="843" x2="912" y2="835"/>
<line x1="912" y1="854" x2="912" y2="850"/>
<line x1="912" y1="854" x2="912" y2="856"/>
<line x1="912" y1="856" x2="912" y2="856"/>
<line x1="912" y1="856" x2="912" y2="860"/>
<line x1="909" y1="860" x2="902" y2="860"/>
<line x1="909" y1="860" x2="912" y2="860"/>
<line x1="814" y1="860" x2="488" y2="860"/>
<line x1="814" y1="860" x2="898" y2="860"/>
<line x1="682" y1="40" x2="912" y2="40"/>
<line x1="682" y1="40" x2="488" y2="40"/>
<line x1="898" y1="69" x2="897" y2="69"/>
<line x1="898" y1="69" x2="898" y2="69"/>
<line x1="896" y1="68" x2="895" y2="68"/>
<line x1="896" y1="68" x2="897" y2="69"/>
<line x1="895" y1="68" x2="894" y2="68"/>
<line x1="895" y1="68" x2="895" y2="68"/>
<line x1="894" y1="68" x2="893" y2="67"/>
<line x1="894" y1="68" x2="894" y2="68"/>
<line x1="893" y1="67" x2="892" y2="66"/>
<line x1="893" y1="67" x2="893" y2="67"/>
<line x1="892" y1="66" x2="891" y2="66"/>
<line x1="892" y1="66" x2="892" y2="66"/>
<line x1="891" y1="65" x2="890" y2="65"/>
<line x1="891" y1="65" x2="891" y2="66"/>
<line x1="890" y1="64" x2="889" y2="64"/>
<line x1="890" y1="64" x2="890" y2="65"/>
<line x1="889" y1="63" x2="888" y2="63"/>
<line x1="889" y1="63" x2="889" y2="64"/>
<line x1="888" y1="62" x2="888" y2="62"/>
<line x1="888" y1="62" x2="888" y2="63"/>
<line x1="888" y1="61" x2="887" y2="60"/>
<line x1="888" y1="61" x2="888" y2="62"/>
<line x1="887" y1="60" x2="887" y2="59"/>
<line x1="887" y1="60" x2="887" y2="60"/>
<line x1="887" y1="59" x2="887" y2="58"/>
<line x1="887" y1="59" x2="887" y2="59"/>
<line x1="886" y1="57" x2="886" y2="57"/>
<line x1="886" y1="57" x2="887" y2="58"/>
<line x1="886" y1="56" x2="886" y2="55"/>
<line x1="886" y1="56" x2="886" y2="57"/>
<line x1="886" y1="55" x2="886" y2="54"/>
<line x1="886" y1="55" x2="886" y2="55"/>
<line x1="886" y1="53" x2="887" y2="53"/>
<line x1="886" y1="53" x2="886" y2="54"/>
<line x1="887" y1="52" x2="887" y2="51"/>
<line x1="887" y1="52" x2="887" y2="53"/>
<line x1="887" y1="51" x2="887" y2="50"/>
<line x1="887" y1="51" x2="887" y2="51"/>
<line x1="887" y1="49" x2="888" y2="49"/>
<line x1="887" y1="49" x2="887" y2="50"/>
<line x1="888" y1="48" x2="888" y2="48"/>
<line x1="888" y1="48" x2="888" y2="49"/>
<line x1="889" y1="47" x2="889" y2="47"/>
<line x1="889" y1="47" x2="888" y2="48"/>
<line x1="890" y1="46" x2="890" y2="46"/>
<line x1="890" y1="46" x2="889" y2="47"/>
<line x1="890" y1="45" x2="891" y2="45"/>
<line x1="890" y1="45" x2="890" y2="46"/>
<line x1="891" y1="44" x2="892" y2="44"/>
<line x1="891" y1="44" x2="891" y2="45"/>
<line x1="892" y1="44" x2="893" y2="43"/>
<line x1="892" y1="44" x2="892" y2="44"/>
<line x1="894" y1="43" x2="894" y2="43"/>
<line x1="894" y1="43" x2="893" y2="43"/>
<line x1="895" y1="42" x2="895" y2="42"/>
<line x1="895" y1="42" x2="894" y2="43"/>
<line x1="896" y1="42" x2="897" y2="42"/>
<line x1="896" y1="42" x2="895" y2="42"/>
<line x1="897" y1="42" x2="898" y2="42"/>
<line x1="897" y1="42" x2="897" y2="42"/>
<line x1="898" y1="42" x2="899" y2="42"/>
<line x1="898" y1="42" x2="898" y2="42"/>
<line x1="900" y1="42" x2="901" y2="42"/>
<line x1="899" y1="42" x2="900" y2="42"/>
<line x1="901" y1="42" x2="902" y2="42"/>
<line x1="901" y1="42" x2="901" y2="42"/>
<line x1="902" y1="42" x2="903" y2="42"/>
<line x1="902" y1="42" x2="902" y2="42"/>
<line x1="903" y1="42" x2="904" y2="43"/>
<line x1="903" y1="42" x2="903" y2="42"/>
<line x1="905" y1="43" x2="905" y2="43"/>
<line x1="904" y1="43" x2="905" y2="43"/>
<line x1="906" y1="43" x2="906" y2="44"/>
<line x1="905" y1="43" x2="906" y2="43"/>
<line x1="907" y1="44" x2="907" y2="45"/>
<line x1="906" y1="44" x2="907" y2="44"/>
<line x1="908" y1="45" x2="908" y2="46"/>
<line x1="907" y1="45" x2="908" y2="45"/>
<line x1="909" y1="46" x2="909" y2="47"/>
<line x1="908" y1="46" x2="909" y2="46"/>
<line x1="910" y1="47" x2="910" y2="48"/>
<line x1="909" y1="47" x2="910" y2="47"/>
<line x1="910" y1="48" x2="911" y2="49"/>
<line x1="910" y1="48" x2="910" y2="48"/>
<line x1="911" y1="49" x2="911" y2="50"/>
<line x1="911" y1="49" x2="911" y2="49"/>
<line x1="911" y1="50" x2="912" y2="51"/>
<line x1="911" y1="50" x2="911" y2="50"/>
<line x1="912" y1="52" x2="912" y2="53"/>
<line x1="912" y1="51" x2="912" y2="52"/>
<line x1="912" y1="53" x2="912" y2="54"/>
<line x1="912" y1="53" x2="912" y2="53"/>
<line x1="912" y1="54" x2="912" y2="55"/>
<line x1="912" y1="54" x2="912" y2="54"/>
<line x1="912" y1="56" x2="912" y2="57"/>
<line x1="912" y1="55" x2="912" y2="56"/>
<line x1="912" y1="57" x2="912" y2="58"/>
<line x1="912" y1="57" x2="912" y2="57"/>
<line x1="912" y1="58" x2="912" y2="59"/>
<line x1="912" y1="58" x2="912" y2="58"/>
<line x1="912" y1="60" x2="911" y2="60"/>
<line x1="912" y1="59" x2="912" y2="60"/>
<line x1="911" y1="61" x2="911" y2="62"/>
<line x1="911" y1="60" x2="911" y2="61"/>
<line x1="910" y1="62" x2="910" y2="63"/>
<line x1="911" y1="62" x2="910" y2="62"/>
<line x1="910" y1="63" x2="909" y2="64"/>
<line x1="910" y1="63" x2="910" y2="63"/>
<line x1="909" y1="64" x2="908" y2="65"/>
<line x1="909" y1="64" x2="909" y2="64"/>
<line x1="908" y1="65" x2="907" y2="66"/>
<line x1="908" y1="65" x2="908" y2="65"/>
<line x1="907" y1="66" x2="906" y2="66"/>
<line x1="907" y1="66" x2="907" y2="66"/>
<line x1="906" y1="67" x2="905" y2="67"/>
<line x1="906" y1="66" x2="906" y2="67"/>
<line x1="905" y1="67" x2="904" y2="68"/>
<line x1="905" y1="67" x2="905" y2="67"/>
<line x1="904" y1="68" x2="903" y2="68"/>
<line x1="904" y1="68" x2="904" y2="68"/>
<line x1="903" y1="68" x2="902" y2="69"/>
<line x1="903" y1="68" x2="903" y2="68"/>
<line x1="901" y1="69" x2="901" y2="69"/>
<line x1="902" y1="69" x2="901" y2="69"/>
<line x1="900" y1="69" x2="899" y2="69"/>
<line x1="901" y1="69" x2="900" y2="69"/>
<line x1="899" y1="69" x2="898" y2="69"/>
<line x1="899" y1="69" x2="899" y2="69"/>
<line x1="898" y1="860" x2="898" y2="860"/>
<line x1="898" y1="860" x2="897" y2="860"/>
<line x1="897" y1="860" x2="896" y2="860"/>
<line x1="897" y1="860" x2="897" y2="860"/>
<line x1="897" y1="860" x2="897" y2="860"/>
<line x1="896" y1="860" x2="895" y2="859"/>
<line x1="896" y1="860" x2="896" y2="860"/>
<line x1="895" y1="859" x2="894" y2="859"/>
<line x1="895" y1="859" x2="895" y2="859"/>
<line x1="894" y1="859" x2="893" y2="858"/>
<line x1="894" y1="859" x2="894" y2="859"/>
<line x1="892" y1="858" x2="892" y2="857"/>
<line x1="892" y1="858" x2="893" y2="858"/>
<line x1="891" y1="857" x2="891" y2="856"/>
<line x1="891" y1="857" x2="892" y2="857"/>
<line x1="891" y1="856" x2="890" y2="855"/>
<line x1="891" y1="856" x2="891" y2="856"/>
<line x1="890" y1="855" x2="889" y2="854"/>
<line x1="890" y1="855" x2="890" y2="855"/>
<line x1="889" y1="854" x2="888" y2="853"/>
<line x1="889" y1="854" x2="889" y2="854"/>
<line x1="888" y1="853" x2="888" y2="852"/>
<line x1="888" y1="853" x2="888" y2="853"/>
<line x1="888" y1="852" x2="887" y2="851"/>
<line x1="888" y1="852" x2="888" y2="852"/>
<line x1="887" y1="851" x2="887" y2="850"/>
<line x1="887" y1="851" x2="887" y2="851"/>
<line x1="887" y1="849" x2="887" y2="848"/>
<line x1="887" y1="849" x2="887" y2="850"/>
<line x1="887" y1="848" x2="887" y2="847"/>
<line x1="887" y1="848" x2="887" y2="848"/>
<line x1="887" y1="847" x2="887" y2="846"/>
<line x1="887" y1="847" x2="887" y2="847"/>
<line x1="887" y1="845" x2="887" y2="844"/>
<line x1="887" y1="845" x2="887" y2="846"/>
<line x1="887" y1="844" x2="887" y2="843"/>
<line x1="887" y1="844" x2="887" y2="844"/>
<line x1="887" y1="843" x2="888" y2="842"/>
<line x1="887" y1="843" x2="887" y2="843"/>
<line x1="888" y1="842" x2="888" y2="841"/>
<line x1="888" y1="842" x2="888" y2="842"/>
<line x1="888" y1="840" x2="889" y2="840"/>
<line x1="888" y1="840" x2="888" y2="841"/>
<line x1="889" y1="839" x2="890" y2="839"/>
<line x1="889" y1="839" x2="889" y2="840"/>
<line x1="890" y1="838" x2="891" y2="838"/>
<line x1="890" y1="838" x2="890" y2="839"/>
<line x1="891" y1="837" x2="892" y2="837"/>
<line x1="891" y1="837" x2="891" y2="838"/>
<line x1="892" y1="837" x2="893" y2="836"/>
<line x1="892" y1="837" x2="892" y2="837"/>
<line x1="893" y1="836" x2="894" y2="835"/>
<line x1="893" y1="836" x2="893" y2="836"/>
<line x1="894" y1="835" x2="895" y2="835"/>
<line x1="894" y1="835" x2="894" y2="835"/>
<line x1="895" y1="835" x2="896" y2="834"/>
<line x1="895" y1="835" x2="895" y2="835"/>
<line x1="896" y1="834" x2="897" y2="834"/>
<line x1="896" y1="834" x2="896" y2="834"/>
<line x1="898" y1="834" x2="899" y2="834"/>
<line x1="898" y1="834" x2="897" y2="834"/>
<line x1="899" y1="834" x2="900" y2="834"/>
<line x1="899" y1="834" x2="899" y2="834"/>
<line x1="900" y1="834" x2="901" y2="834"/>
<line x1="900" y1="834" x2="900" y2="834"/>
<line x1="901" y1="834" x2="902" y2="834"/>
<line x1="901" y1="834" x2="901" y2="834"/>
<line x1="903" y1="834" x2="904" y2="834"/>
<line x1="902" y1="834" x2="903" y2="834"/>
<line x1="904" y1="834" x2="905" y2="835"/>
<line x1="904" y1="834" x2="904" y2="834"/>
<line x1="905" y1="835" x2="906" y2="835"/>
<line x1="905" y1="835" x2="905" y2="835"/>
<line x1="906" y1="835" x2="907" y2="836"/>
<line x1="906" y1="835" x2="906" y2="835"/>
<line x1="907" y1="836" x2="908" y2="837"/>
<line x1="907" y1="836" x2="907" y2="836"/>
<line x1="908" y1="837" x2="909" y2="838"/>
<line x1="908" y1="837" x2="908" y2="837"/>
<line x1="909" y1="838" x2="910" y2="839"/>
<line x1="909" y1="838" x2="909" y2="838"/>
<line x1="910" y1="839" x2="911" y2="840"/>
<line x1="910" y1="839" x2="910" y2="839"/>
<line x1="911" y1="840" x2="911" y2="841"/>
<line x1="911" y1="840" x2="911" y2="840"/>
<line x1="911" y1="841" x2="912" y2="842"/>
<line x1="911" y1="841" x2="911" y2="841"/>
<line x1="912" y1="842" x2="912" y2="843"/>
<line x1="912" y1="842" x2="912" y2="842"/>
<line x1="912" y1="843" x2="912" y2="843"/>
<line x1="912" y1="843" x2="912" y2="843"/>
<line x1="912" y1="851" x2="912" y2="851"/>
<line x1="912" y1="851" x2="912" y2="850"/>
<line x1="912" y1="851" x2="912" y2="852"/>
<line x1="912" y1="851" x2="912" y2="851"/>
<line x1="912" y1="852" x2="911" y2="853"/>
<line x1="912" y1="852" x2="912" y2="852"/>
<line x1="911" y1="853" x2="911" y2="854"/>
<line x1="911" y1="853" x2="911" y2="853"/>
<line x1="911" y1="854" x2="910" y2="855"/>
<line x1="911" y1="854" x2="911" y2="854"/>
<line x1="910" y1="855" x2="909" y2="856"/>
<line x1="910" y1="855" x2="910" y2="855"/>
<line x1="909" y1="856" x2="908" y2="857"/>
<line x1="909" y1="856" x2="909" y2="856"/>
<line x1="908" y1="857" x2="907" y2="858"/>
<line x1="908" y1="857" x2="908" y2="857"/>
<line x1="907" y1="858" x2="906" y2="859"/>
<line x1="907" y1="858" x2="907" y2="858"/>
<line x1="906" y1="859" x2="905" y2="859"/>
<line x1="906" y1="859" x2="906" y2="859"/>
<line x1="905" y1="859" x2="904" y2="860"/>
<line x1="905" y1="859" x2="905" y2="859"/>
<line x1="903" y1="860" x2="903" y2="860"/>
<line x1="903" y1="860" x2="902" y2="860"/>
<line x1="903" y1="860" x2="904" y2="860"/>
<line x1="902" y1="860" x2="902" y2="860"/>
<line x1="902" y1="860" x2="902" y2="860"/>
<line x1="902" y1="860" x2="902" y2="860"/>
<line x1="902" y1="860" x2="902" y2="860"/>
</g></svg>