<svg xmlns="http://www.w3.org/2000/svg" width="1400" height="900" viewBox="0 0 1400 900">
<rect x="0" y="0" width="100%" height="100%" fill="white"/>
<g stroke="#111" stroke-width="1.2" fill="none" stroke-linecap="round">
<line x1="141" y1="723" x2="141" y2="723"/>
<line x1="129" y1="723" x2="120" y2="723"/>
<line x1="130" y1="723" x2="129" y2="723"/>
<line x1="140" y1="723" x2="130" y2="723"/>
<line x1="140" y1="723" x2="141" y2="723"/>
<line x1="141" y1="723" x2="141" y2="723"/>
<line x1="141" y1="723" x2="151" y2="723"/>
<line x1="100" y1="639" x2="100" y2="694"/>
<line x1="100" y1="590" x2="100" y2="639"/>
<line x1="100" y1="576" x2="100" y2="590"/>
<line x1="100" y1="576" x2="100" y2="549"/>
<line x1="100" y1="549" x2="100" y2="173"/>
<line x1="100" y1="141" x2="100" y2="141"/>
<line x1="100" y1="141" x2="100" y2="139"/>
<line x1="1318" y1="610" x2="1318" y2="712"/>
<line x1="1318" y1="610" x2="1318" y2="139"/>
<line x1="151" y1="723" x2="151" y2="723"/>
<line x1="151" y1="723" x2="151" y2="723"/>
<line x1="151" y1="723" x2="198" y2="723"/>
<line x1="198" y1="723" x2="199" y2="723"/>
<line x1="199" y1="723" x2="255" y2="723"/>
<line x1="255" y1="723" x2="256" y2="723"/>
<line x1="256" y1="723" x2="308" y2="723"/>
<line x1="308" y1="723" x2="308" y2="723"/>
<line x1="308" y1="723" x2="357" y2="723"/>
<line x1="357" y1="723" x2="357" y2="723"/>
<line x1="357" y1="723" x2="403" y2="723"/>
<line x1="403" y1="723" x2="403" y2="723"/>
<line x1="403" y1="723" x2="446" y2="723"/>
<line x1="446" y1="723" x2="447" y2="723"/>
<line x1="447" y1="723" x2="487" y2="723"/>
<line x1="487" y1="723" x2="488" y2="723"/>
<line x1="488" y1="723" x2="526" y2="723"/>
<line x1="526" y1="723" x2="526" y2="723"/>
<line x1="526" y1="723" x2="563" y2="723"/>
<line x1="563" y1="723" x2="563" y2="723"/>
<line x1="563" y1="723" x2="598" y2="723"/>
<line x1="598" y1="723" x2="598" y2="723"/>
<line x1="598" y1="723" x2="631" y2="723"/>
<line x1="938" y1="723" x2="938" y2="723"/>
<line x1="938" y1="723" x2="975" y2="723"/>
<line x1="975" y1="723" x2="975" y2="723"/>
<line x1="975" y1="723" x2="1009" y2="723"/>
<line x1="1009" y1="723" x2="1010" y2="723"/>
<line x1="1010" y1="723" x2="1041" y2="723"/>
<line x1="1041" y1="723" x2="1042" y2="723"/>
<line x1="1042" y1="723" x2="1071" y2="723"/>
<line x1="1071" y1="723" x2="1072" y2="723"/>
<line x1="1072" y1="723" x2="1099" y2="723"/>
<line x1="1099" y1="723" x2="1100" y2="723"/>
<line x1="1100" y1="723" x2="1126" y2="723"/>
<line x1="1126" y1="723" x2="1126" y2="723"/>
<line x1="1126" y1="723" x2="1151" y2="723"/>
<line x1="1151" y1="723" x2="1151" y2="723"/>
<line x1="1151" y1="723" x2="1174" y2="723"/>
<line x1="1174" y1="723" x2="1175" y2="723"/>
<line x1="1175" y1="723" x2="1197" y2="723"/>
<line x1="1197" y1="723" x2="1197" y2="723"/>
<line x1="1197" y1="723" x2="1218" y2="723"/>
<line x1="1218" y1="723" x2="1219" y2="723"/>
<line x1="1219" y1="723" x2="1239" y2="723"/>
<line x1="1239" y1="723" x2="1239" y2="723"/>
<line x1="1239" y1="723" x2="1244" y2="723"/>
<line x1="938" y1="723" x2="631" y2="723"/>
<line x1="41" y1="761" x2="40" y2="761"/>
<line x1="41" y1="761" x2="63" y2="761"/>
<line x1="63" y1="761" x2="63" y2="761"/>
<line x1="63" y1="761" x2="82" y2="761"/>
<line x1="82" y1="761" x2="82" y2="761"/>
<line x1="82" y1="761" x2="95" y2="761"/>
<line x1="198" y1="761" x2="95" y2="761"/>
<line x1="198" y1="761" x2="199" y2="761"/>
<line x1="199" y1="761" x2="243" y2="761"/>
<line x1="243" y1="761" x2="244" y2="761"/>
<line x1="244" y1="761" x2="283" y2="761"/>
<line x1="283" y1="761" x2="284" y2="761"/>
<line x1="284" y1="761" x2="319" y2="761"/>
<line x1="319" y1="761" x2="320" y2="761"/>
<line x1="320" y1="761" x2="352" y2="761"/>
<line x1="352" y1="761" x2="353" y2="761"/>
<line x1="353" y1="761" x2="382" y2="761"/>
<line x1="382" y1="761" x2="383" y2="761"/>
<line x1="383" y1="761" x2="410" y2="761"/>
<line x1="410" y1="761" x2="411" y2="761"/>
<line x1="411" y1="761" x2="436" y2="761"/>
<line x1="436" y1="761" x2="437" y2="761"/>
<line x1="437" y1="761" x2="461" y2="761"/>
<line x1="461" y1="761" x2="461" y2="761"/>
<line x1="461" y1="761" x2="1113" y2="761"/>
<line x1="1282" y1="761" x2="1113" y2="761"/>
<line x1="1286" y1="761" x2="1282" y2="761"/>
<line x1="1291" y1="761" x2="1286" y2="761"/>
<line x1="1296" y1="761" x2="1291" y2="761"/>
<line x1="1302" y1="761" x2="1296" y2="761"/>
<line x1="1308" y1="761" x2="1302" y2="761"/>
<line x1="1314" y1="761" x2="1308" y2="761"/>
<line x1="1321" y1="761" x2="1314" y2="761"/>
<line x1="1328" y1="761" x2="1321" y2="761"/>
<line x1="1358" y1="761" x2="1328" y2="761"/>
<line x1="1338" y1="139" x2="1318" y2="139"/>
<line x1="1338" y1="139" x2="1360" y2="139"/>
<line x1="95" y1="139" x2="100" y2="139"/>
<line x1="95" y1="139" x2="95" y2="139"/>
<line x1="93" y1="139" x2="95" y2="139"/>
<line x1="93" y1="139" x2="93" y2="139"/>
<line x1="93" y1="139" x2="92" y2="139"/>
<line x1="40" y1="139" x2="51" y2="139"/>
<line x1="77" y1="139" x2="51" y2="139"/>
<line x1="40" y1="139" x2="40" y2="139"/>
<line x1="40" y1="694" x2="40" y2="139"/>
<line x1="40" y1="694" x2="40" y2="761"/>
<line x1="1360" y1="622" x2="1360" y2="139"/>
<line x1="1360" y1="735" x2="1360" y2="750"/>
<line x1="1360" y1="680" x2="1360" y2="735"/>
<line x1="1360" y1="622" x2="1360" y2="680"/>
<line x1="56" y1="161" x2="57" y2="164"/>
<line x1="56" y1="161" x2="56" y2="161"/>
<line x1="56" y1="161" x2="56" y2="161"/>
<line x1="58" y1="165" x2="60" y2="167"/>
<line x1="57" y1="164" x2="57" y2="164"/>
<line x1="57" y1="164" x2="58" y2="165"/>
<line x1="61" y1="168" x2="64" y2="170"/>
<line x1="60" y1="168" x2="60" y2="167"/>
<line x1="60" y1="168" x2="61" y2="168"/>
<line x1="65" y1="171" x2="68" y2="173"/>
<line x1="64" y1="171" x2="64" y2="170"/>
<line x1="64" y1="171" x2="65" y2="171"/>
<line x1="69" y1="173" x2="73" y2="174"/>
<line x1="69" y1="173" x2="68" y2="173"/>
<line x1="69" y1="173" x2="69" y2="173"/>
<line x1="74" y1="175" x2="79" y2="176"/>
<line x1="74" y1="175" x2="73" y2="174"/>
<line x1="74" y1="175" x2="74" y2="175"/>
<line x1="80" y1="176" x2="85" y2="176"/>
<line x1="80" y1="176" x2="79" y2="176"/>
<line x1="80" y1="176" x2="80" y2="176"/>
<line x1="87" y1="176" x2="91" y2="176"/>
<line x1="87" y1="176" x2="87" y2="176"/>
<line x1="87" y1="176" x2="87" y2="176"/>
<line x1="87" y1="176" x2="87" y2="176"/>
<line x1="87" y1="176" x2="86" y2="176"/>
<line x1="86" y1="176" x2="85" y2="176"/>
<line x1="86" y1="176" x2="86" y2="176"/>
<line x1="94" y1="175" x2="96" y2="174"/>
<line x1="92" y1="175" x2="94" y2="175"/>
<line x1="92" y1="175" x2="92" y2="175"/>
<line x1="92" y1="175" x2="92" y2="175"/>
<line x1="92" y1="175" x2="92" y2="175"/>
<line x1="91" y1="176" x2="92" y2="175"/>
<line x1="91" y1="176" x2="91" y2="176"/>
<line x1="91" y1="176" x2="91" y2="176"/>
<line x1="97" y1="174" x2="100" y2="173"/>
<line x1="97" y1="174" x2="97" y2="174"/>
<line x1="97" y1="174" x2="97" y2="174"/>
<line x1="96" y1="174" x2="97" y2="174"/>
<line x1="96" y1="174" x2="96" y2="174"/>
<line x1="100" y1="141" x2="100" y2="141"/>
<line x1="97" y1="139" x2="100" y2="141"/>
<line x1="96" y1="139" x2="97" y2="139"/>
<line x1="96" y1="139" x2="96" y2="139"/>
<line x1="100" y1="141" x2="100" y2="141"/>
<line x1="93" y1="139" x2="95" y2="139"/>
<line x1="93" y1="139" x2="93" y2="139"/>
<line x1="93" y1="139" x2="93" y2="139"/>
<line x1="93" y1="139" x2="92" y2="139"/>
<line x1="96" y1="139" x2="96" y2="139"/>
<line x1="96" y1="139" x2="95" y2="139"/>
<line x1="75" y1="139" x2="77" y2="139"/>
<line x1="75" y1="139" x2="73" y2="139"/>
<line x1="72" y1="140" x2="68" y2="141"/>
<line x1="73" y1="139" x2="73" y2="139"/>
<line x1="73" y1="139" x2="72" y2="140"/>
<line x1="67" y1="142" x2="64" y2="143"/>
<line x1="68" y1="141" x2="68" y2="141"/>
<line x1="68" y1="141" x2="67" y2="142"/>
<line x1="63" y1="144" x2="60" y2="146"/>
<line x1="63" y1="144" x2="63" y2="144"/>
<line x1="63" y1="144" x2="64" y2="143"/>
<line x1="59" y1="147" x2="57" y2="150"/>
<line x1="60" y1="147" x2="59" y2="147"/>
<line x1="60" y1="146" x2="60" y2="147"/>
<line x1="57" y1="150" x2="56" y2="153"/>
<line x1="57" y1="150" x2="57" y2="150"/>
<line x1="57" y1="150" x2="57" y2="150"/>
<line x1="57" y1="150" x2="57" y2="150"/>
<line x1="55" y1="154" x2="55" y2="157"/>
<line x1="55" y1="154" x2="55" y2="154"/>
<line x1="55" y1="153" x2="55" y2="154"/>
<line x1="55" y1="153" x2="56" y2="153"/>
<line x1="56" y1="161" x2="56" y2="161"/>
<line x1="56" y1="161" x2="55" y2="158"/>
<line x1="55" y1="157" x2="55" y2="158"/>
<line x1="55" y1="157" x2="55" y2="157"/>
<line x1="80" y1="757" x2="80" y2="757"/>
<line x1="50" y1="713" x2="50" y2="732"/>
<line x1="80" y1="757" x2="73" y2="757"/>
<line x1="87" y1="755" x2="80" y2="757"/>
<line x1="50" y1="702" x2="50" y2="713"/>
<line x1="80" y1="757" x2="80" y2="757"/>
<line x1="118" y1="733" x2="118" y2="733"/>
<line x1="118" y1="733" x2="115" y2="738"/>
<line x1="111" y1="743" x2="106" y2="747"/>
<line x1="50" y1="743" x2="50" y2="732"/>
<line x1="65" y1="688" x2="65" y2="688"/>
<line x1="115" y1="738" x2="111" y2="743"/>
<line x1="89" y1="690" x2="87" y2="690"/>
<line x1="89" y1="690" x2="94" y2="692"/>
<line x1="100" y1="751" x2="94" y2="753"/>
<line x1="100" y1="751" x2="100" y2="751"/>
<line x1="106" y1="747" x2="100" y2="751"/>
<line x1="106" y1="747" x2="106" y2="747"/>
<line x1="111" y1="743" x2="111" y2="743"/>
<line x1="70" y1="688" x2="65" y2="688"/>
<line x1="70" y1="688" x2="73" y2="688"/>
<line x1="63" y1="689" x2="58" y2="690"/>
<line x1="63" y1="689" x2="65" y2="688"/>
<line x1="94" y1="753" x2="87" y2="755"/>
<line x1="94" y1="753" x2="94" y2="753"/>
<line x1="119" y1="728" x2="120" y2="728"/>
<line x1="119" y1="728" x2="118" y2="733"/>
<line x1="120" y1="723" x2="120" y2="723"/>
<line x1="120" y1="723" x2="120" y2="724"/>
<line x1="120" y1="724" x2="120" y2="728"/>
<line x1="111" y1="743" x2="111" y2="743"/>
<line x1="51" y1="692" x2="50" y2="692"/>
<line x1="50" y1="747" x2="50" y2="751"/>
<line x1="50" y1="743" x2="50" y2="747"/>
<line x1="83" y1="689" x2="80" y2="688"/>
<line x1="83" y1="689" x2="85" y2="689"/>
<line x1="86" y1="689" x2="85" y2="689"/>
<line x1="86" y1="689" x2="87" y2="690"/>
<line x1="50" y1="694" x2="50" y2="698"/>
<line x1="65" y1="757" x2="65" y2="757"/>
<line x1="80" y1="688" x2="80" y2="688"/>
<line x1="76" y1="688" x2="73" y2="688"/>
<line x1="76" y1="688" x2="80" y2="688"/>
<line x1="95" y1="692" x2="94" y2="692"/>
<line x1="95" y1="692" x2="100" y2="694"/>
<line x1="51" y1="692" x2="57" y2="690"/>
<line x1="51" y1="692" x2="51" y2="692"/>
<line x1="57" y1="690" x2="58" y2="690"/>
<line x1="50" y1="698" x2="50" y2="702"/>
<line x1="72" y1="757" x2="65" y2="757"/>
<line x1="72" y1="757" x2="73" y2="757"/>
<line x1="50" y1="753" x2="50" y2="751"/>
<line x1="80" y1="688" x2="80" y2="688"/>
<line x1="50" y1="692" x2="50" y2="692"/>
<line x1="50" y1="692" x2="50" y2="694"/>
<line x1="50" y1="753" x2="50" y2="753"/>
<line x1="51" y1="753" x2="50" y2="753"/>
<line x1="51" y1="753" x2="51" y2="753"/>
<line x1="58" y1="755" x2="51" y2="753"/>
<line x1="58" y1="755" x2="58" y2="755"/>
<line x1="65" y1="757" x2="58" y2="755"/>
<line x1="1288" y1="757" x2="1285" y2="757"/>
<line x1="1282" y1="757" x2="1285" y2="757"/>
<line x1="1319" y1="717" x2="1318" y2="712"/>
<line x1="1319" y1="718" x2="1319" y2="717"/>
<line x1="1319" y1="718" x2="1319" y2="720"/>
<line x1="1307" y1="748" x2="1308" y2="747"/>
<line x1="1307" y1="748" x2="1304" y2="751"/>
<line x1="1318" y1="733" x2="1316" y2="736"/>
<line x1="1296" y1="755" x2="1299" y2="753"/>
<line x1="1245" y1="725" x2="1244" y2="723"/>
<line x1="1319" y1="725" x2="1319" y2="728"/>
<line x1="1308" y1="747" x2="1311" y2="744"/>
<line x1="1316" y1="736" x2="1316" y2="736"/>
<line x1="1316" y1="736" x2="1315" y2="738"/>
<line x1="1318" y1="731" x2="1319" y2="728"/>
<line x1="1318" y1="731" x2="1318" y2="733"/>
<line x1="1299" y1="753" x2="1302" y2="752"/>
<line x1="1290" y1="756" x2="1288" y2="757"/>
<line x1="1265" y1="753" x2="1268" y2="755"/>
<line x1="1296" y1="755" x2="1293" y2="755"/>
<line x1="1290" y1="756" x2="1293" y2="755"/>
<line x1="1319" y1="723" x2="1319" y2="723"/>
<line x1="1319" y1="723" x2="1319" y2="725"/>
<line x1="1319" y1="720" x2="1319" y2="720"/>
<line x1="1319" y1="720" x2="1319" y2="723"/>
<line x1="1304" y1="751" x2="1302" y2="752"/>
<line x1="1273" y1="756" x2="1276" y2="757"/>
<line x1="1262" y1="752" x2="1260" y2="751"/>
<line x1="1262" y1="752" x2="1265" y2="753"/>
<line x1="1276" y1="757" x2="1279" y2="757"/>
<line x1="1282" y1="757" x2="1279" y2="757"/>
<line x1="1312" y1="743" x2="1312" y2="743"/>
<line x1="1312" y1="743" x2="1311" y2="744"/>
<line x1="1270" y1="755" x2="1268" y2="755"/>
<line x1="1273" y1="756" x2="1270" y2="755"/>
<line x1="1313" y1="741" x2="1315" y2="738"/>
<line x1="1313" y1="741" x2="1312" y2="743"/>
<line x1="1246" y1="733" x2="1247" y2="736"/>
<line x1="1245" y1="730" x2="1245" y2="728"/>
<line x1="1245" y1="730" x2="1246" y2="733"/>
<line x1="1250" y1="740" x2="1248" y2="738"/>
<line x1="1250" y1="740" x2="1252" y2="743"/>
<line x1="1245" y1="725" x2="1245" y2="728"/>
<line x1="1253" y1="745" x2="1255" y2="747"/>
<line x1="1257" y1="748" x2="1255" y2="747"/>
<line x1="1257" y1="748" x2="1260" y2="751"/>
<line x1="1253" y1="745" x2="1252" y2="743"/>
<line x1="1248" y1="738" x2="1247" y2="736"/>
<line x1="1358" y1="759" x2="1358" y2="761"/>
<line x1="1358" y1="759" x2="1358" y2="759"/>
<line x1="1360" y1="751" x2="1360" y2="751"/>
<line x1="1360" y1="751" x2="1359" y2="753"/>
<line x1="1360" y1="750" x2="1360" y2="751"/>
<line x1="1359" y1="753" x2="1359" y2="756"/>
<line x1="1359" y1="753" x2="1359" y2="753"/>
<line x1="1358" y1="757" x2="1358" y2="759"/>
<line x1="1358" y1="757" x2="1359" y2="756"/>
</g></svg>