<svg xmlns="http://www.w3.org/2000/svg" width="1400" height="900" viewBox="0 0 1400 900">
<rect x="0" y="0" width="100%" height="100%" fill="white"/>
<g stroke="#111" stroke-width="1.2" fill="none" stroke-linecap="round">
<line x1="1281" y1="744" x2="1314" y2="744"/>
<line x1="1281" y1="744" x2="1276" y2="744"/>
<line x1="1314" y1="359" x2="1314" y2="744"/>
<line x1="1314" y1="359" x2="1314" y2="268"/>
<line x1="1314" y1="268" x2="1314" y2="150"/>
<line x1="1314" y1="116" x2="1314" y2="118"/>
<line x1="1314" y1="116" x2="1314" y2="114"/>
<line x1="85" y1="256" x2="85" y2="114"/>
<line x1="85" y1="256" x2="85" y2="706"/>
<line x1="84" y1="707" x2="84" y2="707"/>
<line x1="84" y1="707" x2="84" y2="707"/>
<line x1="84" y1="706" x2="84" y2="706"/>
<line x1="84" y1="706" x2="85" y2="706"/>
<line x1="84" y1="706" x2="84" y2="706"/>
<line x1="84" y1="706" x2="84" y2="707"/>
<line x1="84" y1="706" x2="84" y2="706"/>
<line x1="1276" y1="744" x2="1276" y2="744"/>
<line x1="1276" y1="744" x2="1275" y2="744"/>
<line x1="1275" y1="744" x2="802" y2="744"/>
<line x1="802" y1="744" x2="777" y2="744"/>
<line x1="777" y1="744" x2="274" y2="744"/>
<line x1="274" y1="744" x2="273" y2="744"/>
<line x1="273" y1="744" x2="220" y2="744"/>
<line x1="220" y1="744" x2="219" y2="744"/>
<line x1="219" y1="744" x2="199" y2="744"/>
<line x1="199" y1="744" x2="199" y2="744"/>
<line x1="199" y1="744" x2="188" y2="744"/>
<line x1="188" y1="744" x2="188" y2="744"/>
<line x1="188" y1="744" x2="181" y2="744"/>
<line x1="181" y1="744" x2="181" y2="744"/>
<line x1="181" y1="744" x2="177" y2="744"/>
<line x1="177" y1="744" x2="177" y2="744"/>
<line x1="177" y1="744" x2="174" y2="744"/>
<line x1="174" y1="744" x2="174" y2="744"/>
<line x1="174" y1="744" x2="171" y2="744"/>
<line x1="171" y1="744" x2="171" y2="744"/>
<line x1="171" y1="744" x2="170" y2="744"/>
<line x1="1156" y1="786" x2="656" y2="786"/>
<line x1="1156" y1="786" x2="1234" y2="786"/>
<line x1="1234" y1="786" x2="1236" y2="786"/>
<line x1="1236" y1="786" x2="1340" y2="786"/>
<line x1="1340" y1="786" x2="1343" y2="786"/>
<line x1="1343" y1="786" x2="1360" y2="786"/>
<line x1="401" y1="786" x2="656" y2="786"/>
<line x1="387" y1="786" x2="401" y2="786"/>
<line x1="370" y1="786" x2="387" y2="786"/>
<line x1="351" y1="786" x2="370" y2="786"/>
<line x1="329" y1="786" x2="351" y2="786"/>
<line x1="304" y1="786" x2="329" y2="786"/>
<line x1="274" y1="786" x2="304" y2="786"/>
<line x1="239" y1="786" x2="274" y2="786"/>
<line x1="198" y1="786" x2="239" y2="786"/>
<line x1="63" y1="786" x2="59" y2="786"/>
<line x1="63" y1="786" x2="198" y2="786"/>
<line x1="50" y1="786" x2="59" y2="786"/>
<line x1="48" y1="786" x2="50" y2="786"/>
<line x1="48" y1="786" x2="44" y2="786"/>
<line x1="42" y1="786" x2="44" y2="786"/>
<line x1="41" y1="786" x2="42" y2="786"/>
<line x1="41" y1="786" x2="40" y2="786"/>
<line x1="77" y1="114" x2="80" y2="114"/>
<line x1="68" y1="114" x2="77" y2="114"/>
<line x1="66" y1="114" x2="68" y2="114"/>
<line x1="58" y1="114" x2="66" y2="114"/>
<line x1="40" y1="114" x2="58" y2="114"/>
<line x1="85" y1="114" x2="83" y2="114"/>
<line x1="83" y1="114" x2="81" y2="114"/>
<line x1="81" y1="114" x2="80" y2="114"/>
<line x1="1357" y1="114" x2="1357" y2="114"/>
<line x1="1357" y1="114" x2="1360" y2="114"/>
<line x1="1357" y1="114" x2="1332" y2="114"/>
<line x1="1317" y1="114" x2="1314" y2="114"/>
<line x1="1317" y1="114" x2="1317" y2="114"/>
<line x1="1320" y1="114" x2="1317" y2="114"/>
<line x1="1320" y1="114" x2="1320" y2="114"/>
<line x1="1321" y1="114" x2="1320" y2="114"/>
<line x1="1321" y1="114" x2="1321" y2="114"/>
<line x1="1321" y1="114" x2="1321" y2="114"/>
<line x1="1360" y1="204" x2="1360" y2="114"/>
<line x1="1360" y1="204" x2="1360" y2="786"/>
<line x1="40" y1="272" x2="40" y2="786"/>
<line x1="40" y1="272" x2="40" y2="151"/>
<line x1="40" y1="118" x2="40" y2="119"/>
<line x1="40" y1="118" x2="40" y2="114"/>
<line x1="73" y1="142" x2="74" y2="142"/>
<line x1="73" y1="142" x2="73" y2="143"/>
<line x1="74" y1="142" x2="75" y2="139"/>
<line x1="72" y1="146" x2="72" y2="146"/>
<line x1="72" y1="146" x2="71" y2="146"/>
<line x1="72" y1="146" x2="73" y2="143"/>
<line x1="69" y1="149" x2="69" y2="149"/>
<line x1="69" y1="149" x2="69" y2="149"/>
<line x1="69" y1="149" x2="71" y2="146"/>
<line x1="66" y1="152" x2="66" y2="151"/>
<line x1="66" y1="152" x2="65" y2="152"/>
<line x1="66" y1="151" x2="69" y2="149"/>
<line x1="62" y1="154" x2="62" y2="154"/>
<line x1="62" y1="154" x2="62" y2="154"/>
<line x1="62" y1="154" x2="65" y2="152"/>
<line x1="58" y1="155" x2="58" y2="155"/>
<line x1="58" y1="155" x2="58" y2="155"/>
<line x1="58" y1="155" x2="62" y2="154"/>
<line x1="54" y1="155" x2="54" y2="155"/>
<line x1="54" y1="155" x2="53" y2="155"/>
<line x1="54" y1="155" x2="58" y2="155"/>
<line x1="49" y1="155" x2="50" y2="155"/>
<line x1="49" y1="155" x2="49" y2="155"/>
<line x1="50" y1="155" x2="53" y2="155"/>
<line x1="45" y1="154" x2="46" y2="154"/>
<line x1="45" y1="154" x2="45" y2="154"/>
<line x1="46" y1="154" x2="49" y2="155"/>
<line x1="42" y1="152" x2="42" y2="152"/>
<line x1="42" y1="152" x2="42" y2="152"/>
<line x1="42" y1="152" x2="42" y2="152"/>
<line x1="42" y1="152" x2="41" y2="152"/>
<line x1="42" y1="152" x2="45" y2="154"/>
<line x1="41" y1="152" x2="41" y2="152"/>
<line x1="41" y1="152" x2="41" y2="152"/>
<line x1="41" y1="152" x2="40" y2="151"/>
<line x1="40" y1="151" x2="40" y2="151"/>
<line x1="41" y1="118" x2="41" y2="118"/>
<line x1="41" y1="118" x2="41" y2="118"/>
<line x1="41" y1="118" x2="41" y2="118"/>
<line x1="41" y1="119" x2="40" y2="119"/>
<line x1="41" y1="119" x2="41" y2="119"/>
<line x1="41" y1="119" x2="41" y2="118"/>
<line x1="40" y1="119" x2="40" y2="119"/>
<line x1="45" y1="116" x2="45" y2="116"/>
<line x1="45" y1="116" x2="45" y2="116"/>
<line x1="45" y1="116" x2="45" y2="116"/>
<line x1="45" y1="116" x2="45" y2="116"/>
<line x1="44" y1="116" x2="45" y2="116"/>
<line x1="44" y1="116" x2="44" y2="116"/>
<line x1="44" y1="116" x2="41" y2="118"/>
<line x1="49" y1="115" x2="49" y2="115"/>
<line x1="49" y1="115" x2="49" y2="115"/>
<line x1="45" y1="116" x2="49" y2="115"/>
<line x1="53" y1="114" x2="53" y2="114"/>
<line x1="53" y1="114" x2="53" y2="114"/>
<line x1="53" y1="114" x2="49" y2="115"/>
<line x1="57" y1="115" x2="57" y2="115"/>
<line x1="57" y1="115" x2="58" y2="115"/>
<line x1="53" y1="114" x2="57" y2="115"/>
<line x1="61" y1="116" x2="61" y2="116"/>
<line x1="61" y1="116" x2="62" y2="116"/>
<line x1="61" y1="116" x2="58" y2="115"/>
<line x1="65" y1="118" x2="65" y2="117"/>
<line x1="65" y1="118" x2="65" y2="118"/>
<line x1="62" y1="116" x2="65" y2="117"/>
<line x1="68" y1="120" x2="68" y2="120"/>
<line x1="68" y1="120" x2="69" y2="120"/>
<line x1="65" y1="118" x2="68" y2="120"/>
<line x1="71" y1="123" x2="71" y2="123"/>
<line x1="71" y1="123" x2="71" y2="123"/>
<line x1="71" y1="123" x2="69" y2="120"/>
<line x1="73" y1="127" x2="73" y2="127"/>
<line x1="73" y1="127" x2="73" y2="126"/>
<line x1="71" y1="123" x2="73" y2="126"/>
<line x1="74" y1="131" x2="75" y2="131"/>
<line x1="74" y1="131" x2="74" y2="130"/>
<line x1="73" y1="127" x2="74" y2="130"/>
<line x1="75" y1="135" x2="75" y2="135"/>
<line x1="75" y1="135" x2="75" y2="134"/>
<line x1="75" y1="131" x2="75" y2="134"/>
<line x1="75" y1="138" x2="75" y2="138"/>
<line x1="75" y1="138" x2="75" y2="139"/>
<line x1="75" y1="138" x2="75" y2="135"/>
<line x1="1348" y1="139" x2="1348" y2="139"/>
<line x1="1348" y1="139" x2="1347" y2="142"/>
<line x1="1348" y1="139" x2="1348" y2="138"/>
<line x1="1348" y1="139" x2="1348" y2="139"/>
<line x1="1345" y1="145" x2="1345" y2="145"/>
<line x1="1345" y1="145" x2="1346" y2="142"/>
<line x1="1346" y1="142" x2="1347" y2="142"/>
<line x1="1342" y1="148" x2="1342" y2="148"/>
<line x1="1342" y1="148" x2="1344" y2="146"/>
<line x1="1344" y1="146" x2="1345" y2="145"/>
<line x1="1339" y1="151" x2="1341" y2="149"/>
<line x1="1339" y1="151" x2="1339" y2="151"/>
<line x1="1341" y1="149" x2="1342" y2="148"/>
<line x1="1335" y1="153" x2="1338" y2="151"/>
<line x1="1335" y1="153" x2="1335" y2="153"/>
<line x1="1338" y1="151" x2="1339" y2="151"/>
<line x1="1331" y1="154" x2="1334" y2="153"/>
<line x1="1331" y1="154" x2="1331" y2="154"/>
<line x1="1334" y1="153" x2="1335" y2="153"/>
<line x1="1327" y1="154" x2="1330" y2="154"/>
<line x1="1327" y1="154" x2="1327" y2="154"/>
<line x1="1330" y1="154" x2="1331" y2="154"/>
<line x1="1325" y1="154" x2="1323" y2="154"/>
<line x1="1325" y1="154" x2="1325" y2="154"/>
<line x1="1325" y1="154" x2="1325" y2="154"/>
<line x1="1325" y1="154" x2="1325" y2="154"/>
<line x1="1325" y1="154" x2="1326" y2="154"/>
<line x1="1326" y1="154" x2="1327" y2="154"/>
<line x1="1320" y1="153" x2="1319" y2="153"/>
<line x1="1320" y1="153" x2="1320" y2="153"/>
<line x1="1320" y1="153" x2="1320" y2="153"/>
<line x1="1322" y1="154" x2="1320" y2="153"/>
<line x1="1322" y1="154" x2="1322" y2="154"/>
<line x1="1322" y1="154" x2="1322" y2="154"/>
<line x1="1323" y1="154" x2="1322" y2="154"/>
<line x1="1323" y1="154" x2="1323" y2="154"/>
<line x1="1323" y1="154" x2="1323" y2="154"/>
<line x1="1315" y1="151" x2="1315" y2="151"/>
<line x1="1316" y1="152" x2="1315" y2="151"/>
<line x1="1316" y1="152" x2="1316" y2="152"/>
<line x1="1316" y1="152" x2="1318" y2="153"/>
<line x1="1319" y1="153" x2="1318" y2="153"/>
<line x1="1314" y1="151" x2="1314" y2="150"/>
<line x1="1315" y1="151" x2="1314" y2="151"/>
<line x1="1314" y1="118" x2="1315" y2="117"/>
<line x1="1316" y1="116" x2="1316" y2="117"/>
<line x1="1316" y1="116" x2="1319" y2="115"/>
<line x1="1316" y1="117" x2="1315" y2="117"/>
<line x1="1316" y1="117" x2="1316" y2="117"/>
<line x1="1316" y1="117" x2="1316" y2="117"/>
<line x1="1321" y1="114" x2="1319" y2="115"/>
<line x1="1321" y1="114" x2="1321" y2="114"/>
<line x1="1321" y1="114" x2="1321" y2="114"/>
<line x1="1321" y1="114" x2="1321" y2="114"/>
<line x1="1319" y1="115" x2="1319" y2="115"/>
<line x1="1319" y1="115" x2="1319" y2="115"/>
<line x1="1319" y1="115" x2="1319" y2="115"/>
<line x1="1333" y1="115" x2="1332" y2="114"/>
<line x1="1335" y1="115" x2="1333" y2="115"/>
<line x1="1336" y1="115" x2="1339" y2="117"/>
<line x1="1336" y1="115" x2="1336" y2="115"/>
<line x1="1336" y1="115" x2="1335" y2="115"/>
<line x1="1339" y1="117" x2="1342" y2="119"/>
<line x1="1339" y1="117" x2="1339" y2="117"/>
<line x1="1339" y1="117" x2="1339" y2="117"/>
<line x1="1343" y1="120" x2="1345" y2="123"/>
<line x1="1343" y1="120" x2="1343" y2="120"/>
<line x1="1342" y1="119" x2="1343" y2="120"/>
<line x1="1345" y1="123" x2="1347" y2="126"/>
<line x1="1345" y1="123" x2="1345" y2="123"/>
<line x1="1345" y1="123" x2="1345" y2="123"/>
<line x1="1348" y1="130" x2="1348" y2="130"/>
<line x1="1347" y1="127" x2="1348" y2="130"/>
<line x1="1347" y1="126" x2="1347" y2="127"/>
<line x1="1348" y1="134" x2="1348" y2="134"/>
<line x1="1348" y1="134" x2="1348" y2="131"/>
<line x1="1348" y1="130" x2="1348" y2="131"/>
<line x1="1348" y1="130" x2="1348" y2="130"/>
<line x1="1348" y1="135" x2="1348" y2="135"/>
<line x1="1348" y1="135" x2="1348" y2="138"/>
<line x1="1348" y1="135" x2="1348" y2="134"/>
<line x1="1348" y1="135" x2="1348" y2="135"/>
<line x1="57" y1="781" x2="57" y2="781"/>
<line x1="72" y1="781" x2="57" y2="781"/>
<line x1="73" y1="707" x2="84" y2="707"/>
<line x1="45" y1="780" x2="45" y2="779"/>
<line x1="45" y1="779" x2="45" y2="779"/>
<line x1="45" y1="779" x2="45" y2="779"/>
<line x1="170" y1="744" x2="170" y2="744"/>
<line x1="45" y1="709" x2="45" y2="708"/>
<line x1="57" y1="781" x2="57" y2="781"/>
<line x1="117" y1="777" x2="103" y2="779"/>
<line x1="57" y1="781" x2="45" y2="780"/>
<line x1="57" y1="707" x2="45" y2="708"/>
<line x1="45" y1="708" x2="45" y2="708"/>
<line x1="102" y1="779" x2="88" y2="781"/>
<line x1="129" y1="774" x2="130" y2="774"/>
<line x1="129" y1="774" x2="117" y2="777"/>
<line x1="45" y1="778" x2="45" y2="709"/>
<line x1="45" y1="778" x2="45" y2="779"/>
<line x1="88" y1="781" x2="73" y2="781"/>
<line x1="72" y1="781" x2="73" y2="781"/>
<line x1="45" y1="708" x2="45" y2="708"/>
<line x1="57" y1="707" x2="57" y2="707"/>
<line x1="103" y1="779" x2="103" y2="779"/>
<line x1="102" y1="779" x2="103" y2="779"/>
<line x1="166" y1="755" x2="160" y2="760"/>
<line x1="169" y1="750" x2="169" y2="750"/>
<line x1="169" y1="750" x2="166" y2="755"/>
<line x1="159" y1="761" x2="160" y2="761"/>
<line x1="159" y1="761" x2="152" y2="766"/>
<line x1="170" y1="744" x2="169" y2="750"/>
<line x1="57" y1="707" x2="57" y2="707"/>
<line x1="65" y1="707" x2="72" y2="707"/>
<line x1="65" y1="707" x2="58" y2="707"/>
<line x1="58" y1="707" x2="57" y2="707"/>
<line x1="151" y1="766" x2="142" y2="770"/>
<line x1="141" y1="770" x2="142" y2="770"/>
<line x1="141" y1="770" x2="130" y2="774"/>
<line x1="151" y1="766" x2="152" y2="766"/>
<line x1="160" y1="761" x2="160" y2="760"/>
<line x1="73" y1="707" x2="72" y2="707"/>
</g></svg>