<svg xmlns="http://www.w3.org/2000/svg" width="1400" height="900" viewBox="0 0 1400 900">
<rect x="0" y="0" width="100%" height="100%" fill="white"/>
<g stroke="#111" stroke-width="1.2" fill="none" stroke-linecap="round">
<line x1="1084" y1="828" x2="1081" y2="828"/>
<line x1="1087" y1="827" x2="1084" y2="828"/>
<line x1="1089" y1="825" x2="1087" y2="827"/>
<line x1="1092" y1="824" x2="1089" y2="825"/>
<line x1="1092" y1="824" x2="1092" y2="823"/>
<line x1="1097" y1="763" x2="1097" y2="779"/>
<line x1="1097" y1="763" x2="1096" y2="762"/>
<line x1="1096" y1="762" x2="1095" y2="730"/>
<line x1="1095" y1="730" x2="1095" y2="730"/>
<line x1="1095" y1="730" x2="1092" y2="697"/>
<line x1="1092" y1="697" x2="1092" y2="697"/>
<line x1="1092" y1="697" x2="1089" y2="665"/>
<line x1="1089" y1="665" x2="1089" y2="665"/>
<line x1="1089" y1="665" x2="1086" y2="632"/>
<line x1="1086" y1="632" x2="1086" y2="632"/>
<line x1="1086" y1="632" x2="1082" y2="600"/>
<line x1="1082" y1="600" x2="1082" y2="600"/>
<line x1="1082" y1="600" x2="1078" y2="568"/>
<line x1="1078" y1="567" x2="1078" y2="568"/>
<line x1="1078" y1="567" x2="1073" y2="535"/>
<line x1="1073" y1="535" x2="1073" y2="535"/>
<line x1="1073" y1="535" x2="1067" y2="503"/>
<line x1="1067" y1="503" x2="1067" y2="503"/>
<line x1="1061" y1="471" x2="1067" y2="503"/>
<line x1="1061" y1="471" x2="1061" y2="471"/>
<line x1="1055" y1="439" x2="1061" y2="471"/>
<line x1="1055" y1="439" x2="1055" y2="439"/>
<line x1="1055" y1="439" x2="1048" y2="407"/>
<line x1="1048" y1="407" x2="1048" y2="407"/>
<line x1="1048" y1="407" x2="1040" y2="375"/>
<line x1="1040" y1="375" x2="1040" y2="375"/>
<line x1="1040" y1="375" x2="1032" y2="344"/>
<line x1="1032" y1="344" x2="1032" y2="344"/>
<line x1="1032" y1="344" x2="1023" y2="312"/>
<line x1="1023" y1="312" x2="1023" y2="312"/>
<line x1="1023" y1="312" x2="1014" y2="281"/>
<line x1="1014" y1="281" x2="1014" y2="281"/>
<line x1="1014" y1="281" x2="1005" y2="250"/>
<line x1="1005" y1="250" x2="1005" y2="249"/>
<line x1="1005" y1="249" x2="995" y2="219"/>
<line x1="995" y1="219" x2="995" y2="218"/>
<line x1="995" y1="218" x2="984" y2="188"/>
<line x1="984" y1="188" x2="984" y2="188"/>
<line x1="984" y1="188" x2="973" y2="157"/>
<line x1="973" y1="157" x2="973" y2="157"/>
<line x1="973" y1="157" x2="961" y2="127"/>
<line x1="961" y1="126" x2="961" y2="127"/>
<line x1="961" y1="126" x2="955" y2="111"/>
<line x1="932" y1="72" x2="933" y2="73"/>
<line x1="929" y1="72" x2="932" y2="72"/>
<line x1="926" y1="72" x2="929" y2="72"/>
<line x1="923" y1="72" x2="926" y2="72"/>
<line x1="920" y1="73" x2="923" y2="72"/>
<line x1="615" y1="203" x2="920" y2="73"/>
<line x1="310" y1="379" x2="309" y2="377"/>
<line x1="310" y1="379" x2="318" y2="399"/>
<line x1="318" y1="399" x2="325" y2="420"/>
<line x1="325" y1="420" x2="332" y2="440"/>
<line x1="332" y1="440" x2="339" y2="460"/>
<line x1="339" y1="460" x2="345" y2="481"/>
<line x1="351" y1="501" x2="345" y2="481"/>
<line x1="351" y1="501" x2="357" y2="522"/>
<line x1="357" y1="522" x2="362" y2="542"/>
<line x1="362" y1="542" x2="367" y2="563"/>
<line x1="367" y1="563" x2="371" y2="584"/>
<line x1="371" y1="584" x2="376" y2="605"/>
<line x1="380" y1="626" x2="376" y2="605"/>
<line x1="383" y1="647" x2="380" y2="626"/>
<line x1="387" y1="668" x2="383" y2="647"/>
<line x1="389" y1="690" x2="387" y2="668"/>
<line x1="392" y1="711" x2="389" y2="690"/>
<line x1="394" y1="732" x2="392" y2="711"/>
<line x1="396" y1="753" x2="394" y2="732"/>
<line x1="398" y1="775" x2="396" y2="753"/>
<line x1="399" y1="796" x2="398" y2="775"/>
<line x1="399" y1="796" x2="399" y2="799"/>
<line x1="749" y1="833" x2="1081" y2="828"/>
<line x1="979" y1="240" x2="978" y2="240"/>
<line x1="1050" y1="532" x2="1050" y2="532"/>
<line x1="1066" y1="651" x2="1066" y2="651"/>
<line x1="1050" y1="532" x2="1050" y2="532"/>
<line x1="949" y1="155" x2="949" y2="155"/>
<line x1="1045" y1="502" x2="1039" y2="473"/>
<line x1="1071" y1="711" x2="1071" y2="712"/>
<line x1="969" y1="211" x2="959" y2="184"/>
<line x1="1059" y1="592" x2="1059" y2="592"/>
<line x1="1045" y1="503" x2="1045" y2="503"/>
<line x1="1012" y1="356" x2="1012" y2="356"/>
<line x1="420" y1="798" x2="329" y2="369"/>
<line x1="1005" y1="327" x2="1004" y2="326"/>
<line x1="1073" y1="741" x2="1073" y2="741"/>
<line x1="1005" y1="327" x2="1005" y2="327"/>
<line x1="1075" y1="771" x2="1075" y2="772"/>
<line x1="1075" y1="771" x2="1075" y2="771"/>
<line x1="1066" y1="651" x2="1066" y2="652"/>
<line x1="979" y1="241" x2="988" y2="269"/>
<line x1="1054" y1="561" x2="1050" y2="532"/>
<line x1="938" y1="127" x2="935" y2="120"/>
<line x1="969" y1="211" x2="969" y2="212"/>
<line x1="1033" y1="444" x2="1033" y2="444"/>
<line x1="938" y1="127" x2="938" y2="127"/>
<line x1="1069" y1="681" x2="1069" y2="681"/>
<line x1="1039" y1="473" x2="1033" y2="444"/>
<line x1="1055" y1="562" x2="1055" y2="562"/>
<line x1="1020" y1="385" x2="1020" y2="385"/>
<line x1="1059" y1="591" x2="1059" y2="592"/>
<line x1="988" y1="269" x2="988" y2="269"/>
<line x1="1073" y1="741" x2="1073" y2="741"/>
<line x1="1039" y1="473" x2="1039" y2="473"/>
<line x1="996" y1="298" x2="996" y2="298"/>
<line x1="1075" y1="771" x2="1075" y2="771"/>
<line x1="1069" y1="681" x2="1069" y2="681"/>
<line x1="1069" y1="682" x2="1071" y2="711"/>
<line x1="1045" y1="502" x2="1045" y2="502"/>
<line x1="949" y1="155" x2="938" y2="127"/>
<line x1="1055" y1="562" x2="1055" y2="562"/>
<line x1="1033" y1="444" x2="1033" y2="443"/>
<line x1="1027" y1="414" x2="1027" y2="414"/>
<line x1="988" y1="269" x2="988" y2="269"/>
<line x1="1059" y1="592" x2="1059" y2="592"/>
<line x1="1020" y1="385" x2="1020" y2="385"/>
<line x1="1020" y1="385" x2="1020" y2="385"/>
<line x1="1069" y1="681" x2="1069" y2="682"/>
<line x1="1054" y1="561" x2="1055" y2="562"/>
<line x1="1059" y1="591" x2="1055" y2="562"/>
<line x1="1039" y1="473" x2="1039" y2="473"/>
<line x1="1071" y1="711" x2="1071" y2="711"/>
<line x1="978" y1="240" x2="969" y2="212"/>
<line x1="969" y1="212" x2="969" y2="212"/>
<line x1="959" y1="184" x2="959" y2="184"/>
<line x1="969" y1="212" x2="969" y2="212"/>
<line x1="1005" y1="327" x2="1012" y2="356"/>
<line x1="1069" y1="681" x2="1066" y2="652"/>
<line x1="959" y1="183" x2="959" y2="184"/>
<line x1="1020" y1="385" x2="1027" y2="414"/>
<line x1="1075" y1="772" x2="1075" y2="779"/>
<line x1="1045" y1="502" x2="1045" y2="503"/>
<line x1="988" y1="269" x2="996" y2="297"/>
<line x1="1027" y1="415" x2="1033" y2="443"/>
<line x1="1012" y1="356" x2="1020" y2="385"/>
<line x1="1039" y1="473" x2="1039" y2="473"/>
<line x1="988" y1="269" x2="988" y2="269"/>
<line x1="1050" y1="532" x2="1045" y2="503"/>
<line x1="949" y1="155" x2="949" y2="155"/>
<line x1="938" y1="127" x2="938" y2="127"/>
<line x1="1012" y1="356" x2="1012" y2="356"/>
<line x1="938" y1="127" x2="938" y2="127"/>
<line x1="1050" y1="532" x2="1050" y2="532"/>
<line x1="1066" y1="651" x2="1063" y2="622"/>
<line x1="1063" y1="622" x2="1063" y2="622"/>
<line x1="1073" y1="742" x2="1075" y2="771"/>
<line x1="1073" y1="741" x2="1073" y2="742"/>
<line x1="1004" y1="326" x2="1004" y2="326"/>
<line x1="996" y1="298" x2="1004" y2="326"/>
<line x1="979" y1="240" x2="979" y2="241"/>
<line x1="996" y1="298" x2="996" y2="297"/>
<line x1="959" y1="183" x2="949" y2="155"/>
<line x1="959" y1="183" x2="959" y2="183"/>
<line x1="1063" y1="622" x2="1063" y2="622"/>
<line x1="1063" y1="621" x2="1059" y2="592"/>
<line x1="1071" y1="712" x2="1073" y2="741"/>
<line x1="1071" y1="711" x2="1071" y2="711"/>
<line x1="1027" y1="414" x2="1027" y2="415"/>
<line x1="1027" y1="414" x2="1027" y2="414"/>
<line x1="1012" y1="356" x2="1012" y2="356"/>
<line x1="1063" y1="621" x2="1063" y2="622"/>
<line x1="1089" y1="859" x2="1088" y2="859"/>
<line x1="1089" y1="859" x2="1096" y2="857"/>
<line x1="1096" y1="857" x2="1096" y2="857"/>
<line x1="1096" y1="857" x2="1096" y2="857"/>
<line x1="1096" y1="857" x2="1096" y2="857"/>
<line x1="1096" y1="857" x2="1096" y2="857"/>
<line x1="1096" y1="857" x2="1096" y2="857"/>
<line x1="1096" y1="857" x2="1096" y2="857"/>
<line x1="1096" y1="857" x2="1103" y2="854"/>
<line x1="1103" y1="854" x2="1103" y2="854"/>
<line x1="1103" y1="854" x2="1103" y2="854"/>
<line x1="1103" y1="854" x2="1103" y2="854"/>
<line x1="1103" y1="854" x2="1103" y2="854"/>
<line x1="1103" y1="854" x2="1103" y2="854"/>
<line x1="1103" y1="854" x2="1109" y2="850"/>
<line x1="1115" y1="844" x2="1115" y2="844"/>
<line x1="1115" y1="844" x2="1115" y2="844"/>
<line x1="1114" y1="844" x2="1115" y2="844"/>
<line x1="1114" y1="844" x2="1114" y2="844"/>
<line x1="1114" y1="844" x2="1114" y2="844"/>
<line x1="1109" y1="850" x2="1109" y2="850"/>
<line x1="1109" y1="850" x2="1109" y2="850"/>
<line x1="1109" y1="850" x2="1114" y2="844"/>
<line x1="1119" y1="838" x2="1119" y2="838"/>
<line x1="1119" y1="838" x2="1119" y2="838"/>
<line x1="1119" y1="838" x2="1119" y2="838"/>
<line x1="1119" y1="838" x2="1119" y2="838"/>
<line x1="1119" y1="838" x2="1119" y2="838"/>
<line x1="1119" y1="838" x2="1119" y2="838"/>
<line x1="1119" y1="838" x2="1119" y2="838"/>
<line x1="1119" y1="838" x2="1115" y2="844"/>
<line x1="1122" y1="831" x2="1122" y2="831"/>
<line x1="1122" y1="831" x2="1122" y2="831"/>
<line x1="1122" y1="831" x2="1122" y2="831"/>
<line x1="1122" y1="831" x2="1122" y2="831"/>
<line x1="1122" y1="831" x2="1122" y2="831"/>
<line x1="1122" y1="831" x2="1119" y2="838"/>
<line x1="1124" y1="824" x2="1124" y2="823"/>
<line x1="1124" y1="824" x2="1122" y2="831"/>
<line x1="1125" y1="815" x2="1125" y2="814"/>
<line x1="1125" y1="815" x2="1124" y2="823"/>
<line x1="1124" y1="790" x2="1124" y2="789"/>
<line x1="1124" y1="790" x2="1125" y2="814"/>
<line x1="1124" y1="788" x2="1124" y2="788"/>
<line x1="1124" y1="788" x2="1124" y2="789"/>
<line x1="1123" y1="755" x2="1123" y2="753"/>
<line x1="1123" y1="755" x2="1124" y2="788"/>
<line x1="1123" y1="752" x2="1123" y2="752"/>
<line x1="1123" y1="752" x2="1123" y2="753"/>
<line x1="1121" y1="719" x2="1121" y2="717"/>
<line x1="1121" y1="719" x2="1123" y2="752"/>
<line x1="1121" y1="717" x2="1121" y2="716"/>
<line x1="1121" y1="717" x2="1121" y2="717"/>
<line x1="1118" y1="684" x2="1118" y2="682"/>
<line x1="1118" y1="684" x2="1121" y2="716"/>
<line x1="1118" y1="681" x2="1118" y2="681"/>
<line x1="1118" y1="681" x2="1118" y2="682"/>
<line x1="1115" y1="648" x2="1114" y2="646"/>
<line x1="1115" y1="648" x2="1118" y2="681"/>
<line x1="1114" y1="645" x2="1114" y2="645"/>
<line x1="1114" y1="645" x2="1114" y2="646"/>
<line x1="1111" y1="613" x2="1110" y2="610"/>
<line x1="1111" y1="613" x2="1114" y2="645"/>
<line x1="1110" y1="610" x2="1110" y2="610"/>
<line x1="1110" y1="610" x2="1110" y2="610"/>
<line x1="1106" y1="577" x2="1106" y2="575"/>
<line x1="1106" y1="577" x2="1110" y2="610"/>
<line x1="1106" y1="574" x2="1106" y2="574"/>
<line x1="1106" y1="574" x2="1106" y2="575"/>
<line x1="1101" y1="542" x2="1100" y2="539"/>
<line x1="1101" y1="542" x2="1106" y2="574"/>
<line x1="1100" y1="539" x2="1100" y2="539"/>
<line x1="1100" y1="539" x2="1100" y2="539"/>
<line x1="1095" y1="506" x2="1094" y2="504"/>
<line x1="1095" y1="506" x2="1100" y2="539"/>
<line x1="1094" y1="503" x2="1094" y2="503"/>
<line x1="1094" y1="503" x2="1094" y2="504"/>
<line x1="1088" y1="471" x2="1088" y2="469"/>
<line x1="1088" y1="471" x2="1094" y2="503"/>
<line x1="1088" y1="468" x2="1088" y2="468"/>
<line x1="1088" y1="468" x2="1088" y2="469"/>
<line x1="1087" y1="466" x2="1087" y2="466"/>
<line x1="1088" y1="468" x2="1087" y2="466"/>
<line x1="1087" y1="466" x2="1081" y2="434"/>
<line x1="1081" y1="433" x2="1081" y2="433"/>
<line x1="1081" y1="434" x2="1081" y2="434"/>
<line x1="1081" y1="434" x2="1081" y2="433"/>
<line x1="1074" y1="401" x2="1073" y2="399"/>
<line x1="1074" y1="401" x2="1074" y2="401"/>
<line x1="1074" y1="401" x2="1074" y2="401"/>
<line x1="1074" y1="401" x2="1081" y2="433"/>
<line x1="1073" y1="398" x2="1073" y2="398"/>
<line x1="1073" y1="398" x2="1073" y2="399"/>
<line x1="1065" y1="366" x2="1065" y2="364"/>
<line x1="1065" y1="366" x2="1073" y2="398"/>
<line x1="1065" y1="363" x2="1065" y2="363"/>
<line x1="1065" y1="363" x2="1065" y2="364"/>
<line x1="1056" y1="331" x2="1056" y2="329"/>
<line x1="1056" y1="331" x2="1065" y2="363"/>
<line x1="1056" y1="329" x2="1056" y2="329"/>
<line x1="1056" y1="329" x2="1056" y2="329"/>
<line x1="1047" y1="297" x2="1046" y2="295"/>
<line x1="1047" y1="297" x2="1056" y2="329"/>
<line x1="1046" y1="294" x2="1046" y2="294"/>
<line x1="1046" y1="294" x2="1046" y2="295"/>
<line x1="1037" y1="263" x2="1036" y2="260"/>
<line x1="1037" y1="263" x2="1046" y2="294"/>
<line x1="1036" y1="260" x2="1036" y2="260"/>
<line x1="1036" y1="260" x2="1036" y2="260"/>
<line x1="1026" y1="228" x2="1025" y2="226"/>
<line x1="1026" y1="228" x2="1036" y2="260"/>
<line x1="1025" y1="226" x2="1025" y2="226"/>
<line x1="1025" y1="226" x2="1025" y2="226"/>
<line x1="1015" y1="194" x2="1014" y2="192"/>
<line x1="1015" y1="194" x2="1025" y2="226"/>
<line x1="1014" y1="192" x2="1014" y2="192"/>
<line x1="1014" y1="192" x2="1014" y2="192"/>
<line x1="1003" y1="161" x2="1002" y2="159"/>
<line x1="1003" y1="161" x2="1014" y2="192"/>
<line x1="1002" y1="158" x2="1002" y2="158"/>
<line x1="1002" y1="158" x2="1002" y2="159"/>
<line x1="990" y1="127" x2="989" y2="125"/>
<line x1="990" y1="127" x2="1002" y2="158"/>
<line x1="989" y1="124" x2="989" y2="124"/>
<line x1="989" y1="124" x2="989" y2="125"/>
<line x1="977" y1="94" x2="976" y2="92"/>
<line x1="977" y1="94" x2="989" y2="124"/>
<line x1="976" y1="91" x2="976" y2="91"/>
<line x1="976" y1="91" x2="976" y2="92"/>
<line x1="967" y1="69" x2="966" y2="67"/>
<line x1="967" y1="69" x2="976" y2="91"/>
<line x1="963" y1="61" x2="963" y2="61"/>
<line x1="963" y1="61" x2="966" y2="67"/>
<line x1="958" y1="55" x2="958" y2="54"/>
<line x1="958" y1="55" x2="963" y2="61"/>
<line x1="958" y1="54" x2="958" y2="54"/>
<line x1="958" y1="54" x2="958" y2="54"/>
<line x1="958" y1="54" x2="958" y2="54"/>
<line x1="958" y1="54" x2="958" y2="54"/>
<line x1="958" y1="54" x2="952" y2="49"/>
<line x1="952" y1="49" x2="952" y2="49"/>
<line x1="952" y1="49" x2="952" y2="49"/>
<line x1="952" y1="49" x2="952" y2="49"/>
<line x1="952" y1="49" x2="952" y2="49"/>
<line x1="952" y1="49" x2="952" y2="49"/>
<line x1="952" y1="49" x2="952" y2="49"/>
<line x1="952" y1="49" x2="946" y2="45"/>
<line x1="946" y1="45" x2="946" y2="45"/>
<line x1="946" y1="45" x2="946" y2="45"/>
<line x1="945" y1="45" x2="946" y2="45"/>
<line x1="945" y1="45" x2="945" y2="45"/>
<line x1="945" y1="45" x2="945" y2="45"/>
<line x1="945" y1="45" x2="939" y2="42"/>
<line x1="939" y1="42" x2="938" y2="42"/>
<line x1="931" y1="40" x2="938" y2="42"/>
<line x1="931" y1="40" x2="931" y2="40"/>
<line x1="931" y1="40" x2="931" y2="40"/>
<line x1="931" y1="40" x2="931" y2="40"/>
<line x1="931" y1="40" x2="931" y2="40"/>
<line x1="924" y1="40" x2="931" y2="40"/>
<line x1="924" y1="40" x2="924" y2="40"/>
<line x1="924" y1="40" x2="924" y2="40"/>
<line x1="924" y1="40" x2="923" y2="40"/>
<line x1="923" y1="40" x2="923" y2="40"/>
<line x1="923" y1="40" x2="923" y2="40"/>
<line x1="923" y1="40" x2="923" y2="40"/>
<line x1="923" y1="40" x2="923" y2="40"/>
<line x1="923" y1="40" x2="923" y2="40"/>
<line x1="923" y1="40" x2="915" y2="41"/>
<line x1="915" y1="41" x2="915" y2="41"/>
<line x1="915" y1="41" x2="907" y2="44"/>
<line x1="570" y1="194" x2="603" y2="179"/>
<line x1="312" y1="309" x2="301" y2="313"/>
<line x1="433" y1="255" x2="312" y2="309"/>
<line x1="489" y1="230" x2="433" y2="255"/>
<line x1="519" y1="216" x2="489" y2="230"/>
<line x1="541" y1="207" x2="519" y2="216"/>
<line x1="570" y1="194" x2="541" y2="207"/>
<line x1="614" y1="174" x2="603" y2="179"/>
<line x1="624" y1="170" x2="907" y2="44"/>
<line x1="624" y1="170" x2="614" y2="174"/>
<line x1="301" y1="314" x2="301" y2="313"/>
<line x1="299" y1="315" x2="301" y2="314"/>
<line x1="299" y1="315" x2="295" y2="317"/>
<line x1="294" y1="317" x2="295" y2="317"/>
<line x1="290" y1="321" x2="294" y2="317"/>
<line x1="290" y1="321" x2="288" y2="322"/>
<line x1="285" y1="326" x2="285" y2="326"/>
<line x1="285" y1="326" x2="285" y2="326"/>
<line x1="285" y1="326" x2="285" y2="326"/>
<line x1="285" y1="326" x2="285" y2="326"/>
<line x1="285" y1="326" x2="285" y2="326"/>
<line x1="283" y1="328" x2="285" y2="326"/>
<line x1="285" y1="326" x2="285" y2="326"/>
<line x1="288" y1="322" x2="287" y2="324"/>
<line x1="287" y1="324" x2="287" y2="324"/>
<line x1="287" y1="324" x2="287" y2="324"/>
<line x1="287" y1="324" x2="286" y2="325"/>
<line x1="286" y1="325" x2="285" y2="326"/>
<line x1="288" y1="322" x2="288" y2="322"/>
<line x1="283" y1="328" x2="283" y2="328"/>
<line x1="283" y1="328" x2="283" y2="328"/>
<line x1="283" y1="328" x2="283" y2="328"/>
<line x1="283" y1="328" x2="283" y2="328"/>
<line x1="283" y1="328" x2="283" y2="328"/>
<line x1="283" y1="328" x2="283" y2="328"/>
<line x1="283" y1="328" x2="279" y2="335"/>
<line x1="283" y1="328" x2="283" y2="328"/>
<line x1="279" y1="335" x2="279" y2="335"/>
<line x1="279" y1="335" x2="279" y2="335"/>
<line x1="279" y1="335" x2="279" y2="335"/>
<line x1="279" y1="335" x2="279" y2="335"/>
<line x1="277" y1="342" x2="279" y2="335"/>
<line x1="277" y1="342" x2="277" y2="342"/>
<line x1="277" y1="342" x2="277" y2="342"/>
<line x1="275" y1="354" x2="275" y2="352"/>
<line x1="275" y1="354" x2="275" y2="354"/>
<line x1="275" y1="354" x2="275" y2="354"/>
<line x1="275" y1="354" x2="275" y2="354"/>
<line x1="275" y1="354" x2="275" y2="357"/>
<line x1="276" y1="364" x2="275" y2="357"/>
<line x1="276" y1="364" x2="276" y2="365"/>
<line x1="276" y1="365" x2="276" y2="365"/>
<line x1="276" y1="365" x2="276" y2="365"/>
<line x1="278" y1="371" x2="276" y2="365"/>
<line x1="278" y1="371" x2="278" y2="371"/>
<line x1="278" y1="371" x2="278" y2="371"/>
<line x1="278" y1="371" x2="279" y2="373"/>
<line x1="278" y1="371" x2="278" y2="371"/>
<line x1="279" y1="373" x2="279" y2="373"/>
<line x1="280" y1="374" x2="287" y2="394"/>
<line x1="280" y1="374" x2="279" y2="373"/>
<line x1="288" y1="395" x2="287" y2="394"/>
<line x1="295" y1="415" x2="288" y2="395"/>
<line x1="295" y1="415" x2="295" y2="415"/>
<line x1="296" y1="417" x2="303" y2="437"/>
<line x1="296" y1="417" x2="295" y2="415"/>
<line x1="310" y1="457" x2="303" y2="437"/>
<line x1="310" y1="457" x2="310" y2="458"/>
<line x1="316" y1="479" x2="310" y2="458"/>
<line x1="316" y1="479" x2="317" y2="480"/>
<line x1="317" y1="481" x2="317" y2="480"/>
<line x1="323" y1="501" x2="317" y2="481"/>
<line x1="323" y1="501" x2="323" y2="502"/>
<line x1="323" y1="502" x2="323" y2="502"/>
<line x1="329" y1="522" x2="323" y2="502"/>
<line x1="329" y1="522" x2="329" y2="524"/>
<line x1="335" y1="544" x2="329" y2="524"/>
<line x1="335" y1="544" x2="335" y2="544"/>
<line x1="335" y1="544" x2="335" y2="545"/>
<line x1="335" y1="545" x2="335" y2="546"/>
<line x1="340" y1="566" x2="335" y2="546"/>
<line x1="340" y1="566" x2="340" y2="566"/>
<line x1="340" y1="566" x2="340" y2="567"/>
<line x1="340" y1="567" x2="340" y2="567"/>
<line x1="340" y1="567" x2="340" y2="567"/>
<line x1="340" y1="567" x2="340" y2="568"/>
<line x1="345" y1="588" x2="340" y2="568"/>
<line x1="345" y1="588" x2="345" y2="588"/>
<line x1="345" y1="588" x2="345" y2="590"/>
<line x1="345" y1="590" x2="346" y2="591"/>
<line x1="346" y1="591" x2="346" y2="591"/>
<line x1="346" y1="591" x2="350" y2="612"/>
<line x1="346" y1="591" x2="346" y2="591"/>
<line x1="350" y1="612" x2="350" y2="612"/>
<line x1="350" y1="612" x2="350" y2="612"/>
<line x1="350" y1="613" x2="350" y2="612"/>
<line x1="350" y1="613" x2="350" y2="613"/>
<line x1="350" y1="613" x2="354" y2="634"/>
<line x1="350" y1="613" x2="350" y2="613"/>
<line x1="354" y1="635" x2="354" y2="634"/>
<line x1="354" y1="636" x2="354" y2="635"/>
<line x1="358" y1="657" x2="354" y2="636"/>
<line x1="358" y1="657" x2="358" y2="657"/>
<line x1="358" y1="658" x2="361" y2="679"/>
<line x1="358" y1="658" x2="358" y2="657"/>
<line x1="361" y1="680" x2="361" y2="679"/>
<line x1="364" y1="701" x2="361" y2="680"/>
<line x1="364" y1="701" x2="364" y2="702"/>
<line x1="366" y1="723" x2="364" y2="702"/>
<line x1="366" y1="723" x2="367" y2="724"/>
<line x1="369" y1="745" x2="367" y2="724"/>
<line x1="369" y1="745" x2="369" y2="747"/>
<line x1="370" y1="768" x2="369" y2="747"/>
<line x1="370" y1="768" x2="371" y2="769"/>
<line x1="371" y1="770" x2="371" y2="769"/>
<line x1="372" y1="791" x2="371" y2="770"/>
<line x1="372" y1="791" x2="372" y2="792"/>
<line x1="372" y1="792" x2="372" y2="792"/>
<line x1="373" y1="813" x2="372" y2="792"/>
<line x1="373" y1="813" x2="373" y2="815"/>
<line x1="373" y1="816" x2="373" y2="815"/>
<line x1="373" y1="816" x2="373" y2="817"/>
<line x1="373" y1="817" x2="373" y2="817"/>
<line x1="373" y1="817" x2="373" y2="817"/>
<line x1="374" y1="824" x2="373" y2="817"/>
<line x1="374" y1="824" x2="374" y2="824"/>
<line x1="374" y1="825" x2="376" y2="832"/>
<line x1="374" y1="825" x2="374" y2="824"/>
<line x1="376" y1="832" x2="377" y2="834"/>
<line x1="377" y1="834" x2="378" y2="836"/>
<line x1="377" y1="834" x2="377" y2="834"/>
<line x1="377" y1="834" x2="377" y2="834"/>
<line x1="377" y1="834" x2="377" y2="834"/>
<line x1="377" y1="834" x2="377" y2="834"/>
<line x1="383" y1="844" x2="384" y2="845"/>
<line x1="384" y1="845" x2="384" y2="845"/>
<line x1="389" y1="850" x2="384" y2="845"/>
<line x1="389" y1="850" x2="390" y2="850"/>
<line x1="390" y1="850" x2="390" y2="850"/>
<line x1="390" y1="850" x2="390" y2="850"/>
<line x1="390" y1="850" x2="390" y2="850"/>
<line x1="396" y1="854" x2="390" y2="850"/>
<line x1="396" y1="854" x2="396" y2="854"/>
<line x1="396" y1="854" x2="396" y2="854"/>
<line x1="396" y1="854" x2="396" y2="854"/>
<line x1="396" y1="854" x2="396" y2="855"/>
<line x1="396" y1="855" x2="396" y2="855"/>
<line x1="403" y1="858" x2="403" y2="858"/>
<line x1="403" y1="858" x2="403" y2="858"/>
<line x1="400" y1="856" x2="403" y2="858"/>
<line x1="400" y1="856" x2="396" y2="855"/>
<line x1="411" y1="859" x2="411" y2="860"/>
<line x1="404" y1="858" x2="411" y2="859"/>
<line x1="404" y1="858" x2="404" y2="858"/>
<line x1="404" y1="858" x2="404" y2="858"/>
<line x1="404" y1="858" x2="403" y2="858"/>
<line x1="417" y1="860" x2="417" y2="860"/>
<line x1="415" y1="860" x2="417" y2="860"/>
<line x1="415" y1="860" x2="411" y2="860"/>
<line x1="429" y1="860" x2="417" y2="860"/>
<line x1="531" y1="860" x2="429" y2="860"/>
<line x1="561" y1="860" x2="531" y2="860"/>
<line x1="591" y1="860" x2="561" y2="860"/>
<line x1="656" y1="860" x2="591" y2="860"/>
<line x1="688" y1="860" x2="656" y2="860"/>
<line x1="712" y1="860" x2="688" y2="860"/>
<line x1="712" y1="860" x2="748" y2="860"/>
<line x1="759" y1="860" x2="748" y2="860"/>
<line x1="770" y1="860" x2="759" y2="860"/>
<line x1="770" y1="860" x2="1080" y2="860"/>
<line x1="1081" y1="860" x2="1080" y2="860"/>
<line x1="1081" y1="860" x2="1088" y2="859"/>
<line x1="1121" y1="822" x2="1120" y2="787"/>
<line x1="1121" y1="822" x2="1092" y2="823"/>
<line x1="383" y1="844" x2="749" y2="833"/>
<line x1="1120" y1="784" x2="1120" y2="778"/>
<line x1="1120" y1="786" x2="1120" y2="784"/>
<line x1="1120" y1="786" x2="1120" y2="787"/>
<line x1="377" y1="801" x2="377" y2="800"/>
<line x1="377" y1="801" x2="377" y2="806"/>
<line x1="377" y1="800" x2="377" y2="800"/>
<line x1="749" y1="833" x2="1121" y2="822"/>
<line x1="749" y1="833" x2="383" y2="844"/>
<line x1="399" y1="799" x2="377" y2="800"/>
<line x1="399" y1="799" x2="420" y2="798"/>
<line x1="1097" y1="779" x2="1075" y2="779"/>
<line x1="1097" y1="779" x2="1120" y2="778"/>
<line x1="377" y1="813" x2="377" y2="806"/>
<line x1="377" y1="813" x2="378" y2="822"/>
<line x1="378" y1="831" x2="378" y2="822"/>
<line x1="378" y1="831" x2="378" y2="836"/>
<line x1="377" y1="800" x2="399" y2="799"/>
<line x1="1097" y1="779" x2="1120" y2="778"/>
<line x1="960" y1="64" x2="960" y2="63"/>
<line x1="960" y1="64" x2="961" y2="66"/>
<line x1="955" y1="111" x2="976" y2="103"/>
<line x1="955" y1="111" x2="935" y2="120"/>
<line x1="309" y1="377" x2="329" y2="369"/>
<line x1="309" y1="377" x2="289" y2="385"/>
<line x1="973" y1="95" x2="961" y2="66"/>
<line x1="973" y1="95" x2="976" y2="103"/>
<line x1="959" y1="62" x2="959" y2="62"/>
<line x1="289" y1="385" x2="286" y2="379"/>
<line x1="615" y1="203" x2="277" y2="342"/>
<line x1="615" y1="203" x2="933" y2="73"/>
<line x1="933" y1="73" x2="959" y2="62"/>
<line x1="959" y1="62" x2="933" y2="73"/>
<line x1="277" y1="342" x2="615" y2="203"/>
<line x1="283" y1="370" x2="278" y2="358"/>
<line x1="283" y1="370" x2="286" y2="379"/>
<line x1="959" y1="62" x2="959" y2="62"/>
<line x1="959" y1="62" x2="960" y2="63"/>
<line x1="976" y1="103" x2="976" y2="103"/>
<line x1="955" y1="111" x2="976" y2="103"/>
<line x1="309" y1="377" x2="289" y2="385"/>
<line x1="276" y1="354" x2="275" y2="352"/>
<line x1="276" y1="354" x2="278" y2="358"/>
</g></svg>