<svg xmlns="http://www.w3.org/2000/svg" width="1400" height="900" viewBox="0 0 1400 900">
<rect x="0" y="0" width="100%" height="100%" fill="white"/>
<g stroke="#111" stroke-width="1.2" fill="none" stroke-linecap="round">
<line x1="1313" y1="753" x2="1287" y2="753"/>
<line x1="1275" y1="753" x2="1287" y2="753"/>
<line x1="89" y1="753" x2="93" y2="753"/>
<line x1="89" y1="753" x2="88" y2="753"/>
<line x1="87" y1="753" x2="88" y2="753"/>
<line x1="1313" y1="378" x2="1313" y2="144"/>
<line x1="1313" y1="378" x2="1313" y2="753"/>
<line x1="1313" y1="106" x2="1313" y2="106"/>
<line x1="1313" y1="104" x2="1313" y2="106"/>
<line x1="87" y1="750" x2="87" y2="747"/>
<line x1="87" y1="750" x2="87" y2="753"/>
<line x1="87" y1="386" x2="87" y2="104"/>
<line x1="87" y1="386" x2="87" y2="714"/>
<line x1="75" y1="737" x2="75" y2="737"/>
<line x1="74" y1="736" x2="75" y2="737"/>
<line x1="70" y1="732" x2="74" y2="736"/>
<line x1="66" y1="729" x2="70" y2="732"/>
<line x1="62" y1="725" x2="66" y2="729"/>
<line x1="50" y1="715" x2="62" y2="725"/>
<line x1="50" y1="715" x2="50" y2="714"/>
<line x1="50" y1="714" x2="50" y2="714"/>
<line x1="50" y1="714" x2="50" y2="714"/>
<line x1="50" y1="714" x2="50" y2="714"/>
<line x1="50" y1="714" x2="50" y2="714"/>
<line x1="85" y1="714" x2="87" y2="714"/>
<line x1="82" y1="714" x2="85" y2="714"/>
<line x1="78" y1="714" x2="82" y2="714"/>
<line x1="74" y1="714" x2="78" y2="714"/>
<line x1="70" y1="714" x2="74" y2="714"/>
<line x1="66" y1="714" x2="70" y2="714"/>
<line x1="63" y1="714" x2="66" y2="714"/>
<line x1="59" y1="714" x2="63" y2="714"/>
<line x1="55" y1="714" x2="59" y2="714"/>
<line x1="51" y1="714" x2="55" y2="714"/>
<line x1="50" y1="714" x2="51" y2="714"/>
<line x1="50" y1="714" x2="50" y2="714"/>
<line x1="85" y1="746" x2="87" y2="747"/>
<line x1="82" y1="742" x2="85" y2="746"/>
<line x1="78" y1="739" x2="82" y2="742"/>
<line x1="78" y1="739" x2="75" y2="737"/>
<line x1="94" y1="753" x2="94" y2="753"/>
<line x1="93" y1="753" x2="94" y2="753"/>
<line x1="93" y1="753" x2="93" y2="753"/>
<line x1="50" y1="714" x2="50" y2="714"/>
<line x1="50" y1="714" x2="50" y2="714"/>
<line x1="1275" y1="753" x2="1275" y2="753"/>
<line x1="1275" y1="753" x2="1275" y2="753"/>
<line x1="1275" y1="753" x2="1182" y2="753"/>
<line x1="1182" y1="753" x2="1181" y2="753"/>
<line x1="1181" y1="753" x2="1074" y2="753"/>
<line x1="1074" y1="753" x2="1074" y2="753"/>
<line x1="1074" y1="753" x2="986" y2="753"/>
<line x1="986" y1="753" x2="985" y2="753"/>
<line x1="985" y1="753" x2="912" y2="753"/>
<line x1="109" y1="753" x2="912" y2="753"/>
<line x1="109" y1="753" x2="94" y2="753"/>
<line x1="1329" y1="796" x2="1360" y2="796"/>
<line x1="1329" y1="796" x2="1328" y2="796"/>
<line x1="1328" y1="796" x2="1263" y2="796"/>
<line x1="1263" y1="796" x2="1262" y2="796"/>
<line x1="1262" y1="796" x2="1208" y2="796"/>
<line x1="1208" y1="796" x2="1207" y2="796"/>
<line x1="1207" y1="796" x2="1162" y2="796"/>
<line x1="1162" y1="796" x2="1161" y2="796"/>
<line x1="1161" y1="796" x2="639" y2="796"/>
<line x1="93" y1="796" x2="639" y2="796"/>
<line x1="62" y1="796" x2="93" y2="796"/>
<line x1="62" y1="796" x2="40" y2="796"/>
<line x1="87" y1="104" x2="66" y2="104"/>
<line x1="40" y1="104" x2="66" y2="104"/>
<line x1="1357" y1="104" x2="1360" y2="104"/>
<line x1="1328" y1="104" x2="1357" y2="104"/>
<line x1="1314" y1="104" x2="1313" y2="104"/>
<line x1="1314" y1="104" x2="1314" y2="104"/>
<line x1="1314" y1="104" x2="1317" y2="104"/>
<line x1="1360" y1="511" x2="1360" y2="104"/>
<line x1="1360" y1="511" x2="1360" y2="796"/>
<line x1="40" y1="381" x2="40" y2="796"/>
<line x1="40" y1="381" x2="40" y2="262"/>
<line x1="40" y1="262" x2="40" y2="202"/>
<line x1="40" y1="202" x2="40" y2="136"/>
<line x1="40" y1="112" x2="40" y2="115"/>
<line x1="40" y1="112" x2="40" y2="104"/>
<line x1="80" y1="130" x2="80" y2="130"/>
<line x1="80" y1="130" x2="79" y2="134"/>
<line x1="80" y1="130" x2="81" y2="130"/>
<line x1="79" y1="134" x2="79" y2="134"/>
<line x1="79" y1="134" x2="77" y2="137"/>
<line x1="79" y1="134" x2="79" y2="134"/>
<line x1="77" y1="138" x2="77" y2="138"/>
<line x1="77" y1="138" x2="75" y2="141"/>
<line x1="77" y1="138" x2="77" y2="137"/>
<line x1="74" y1="141" x2="74" y2="141"/>
<line x1="74" y1="141" x2="71" y2="143"/>
<line x1="74" y1="141" x2="75" y2="141"/>
<line x1="71" y1="143" x2="71" y2="143"/>
<line x1="71" y1="143" x2="67" y2="145"/>
<line x1="71" y1="143" x2="71" y2="143"/>
<line x1="67" y1="145" x2="67" y2="145"/>
<line x1="67" y1="145" x2="63" y2="146"/>
<line x1="67" y1="145" x2="67" y2="145"/>
<line x1="63" y1="146" x2="63" y2="146"/>
<line x1="63" y1="146" x2="59" y2="147"/>
<line x1="63" y1="146" x2="63" y2="146"/>
<line x1="58" y1="147" x2="58" y2="147"/>
<line x1="58" y1="147" x2="55" y2="146"/>
<line x1="58" y1="147" x2="59" y2="147"/>
<line x1="54" y1="146" x2="54" y2="146"/>
<line x1="54" y1="146" x2="50" y2="145"/>
<line x1="54" y1="146" x2="55" y2="146"/>
<line x1="49" y1="144" x2="47" y2="143"/>
<line x1="50" y1="145" x2="49" y2="144"/>
<line x1="50" y1="145" x2="50" y2="145"/>
<line x1="50" y1="145" x2="50" y2="145"/>
<line x1="50" y1="145" x2="50" y2="145"/>
<line x1="50" y1="145" x2="50" y2="145"/>
<line x1="45" y1="142" x2="43" y2="141"/>
<line x1="45" y1="142" x2="45" y2="142"/>
<line x1="45" y1="142" x2="46" y2="143"/>
<line x1="46" y1="143" x2="46" y2="143"/>
<line x1="46" y1="143" x2="47" y2="143"/>
<line x1="42" y1="139" x2="43" y2="140"/>
<line x1="41" y1="138" x2="42" y2="139"/>
<line x1="41" y1="138" x2="41" y2="137"/>
<line x1="43" y1="141" x2="43" y2="140"/>
<line x1="40" y1="137" x2="40" y2="136"/>
<line x1="41" y1="137" x2="40" y2="137"/>
<line x1="40" y1="115" x2="41" y2="114"/>
<line x1="42" y1="112" x2="43" y2="111"/>
<line x1="41" y1="113" x2="42" y2="112"/>
<line x1="41" y1="113" x2="41" y2="113"/>
<line x1="41" y1="113" x2="41" y2="114"/>
<line x1="45" y1="109" x2="44" y2="110"/>
<line x1="45" y1="109" x2="45" y2="109"/>
<line x1="46" y1="108" x2="45" y2="109"/>
<line x1="46" y1="108" x2="47" y2="108"/>
<line x1="44" y1="110" x2="43" y2="111"/>
<line x1="50" y1="106" x2="47" y2="108"/>
<line x1="50" y1="106" x2="50" y2="106"/>
<line x1="47" y1="108" x2="47" y2="108"/>
<line x1="47" y1="108" x2="47" y2="108"/>
<line x1="47" y1="108" x2="47" y2="108"/>
<line x1="55" y1="105" x2="51" y2="106"/>
<line x1="55" y1="105" x2="55" y2="105"/>
<line x1="50" y1="106" x2="51" y2="106"/>
<line x1="59" y1="104" x2="55" y2="105"/>
<line x1="59" y1="104" x2="59" y2="104"/>
<line x1="55" y1="105" x2="55" y2="105"/>
<line x1="63" y1="105" x2="59" y2="104"/>
<line x1="63" y1="105" x2="63" y2="105"/>
<line x1="59" y1="104" x2="59" y2="104"/>
<line x1="67" y1="106" x2="64" y2="105"/>
<line x1="67" y1="106" x2="67" y2="106"/>
<line x1="64" y1="105" x2="63" y2="105"/>
<line x1="71" y1="108" x2="68" y2="106"/>
<line x1="71" y1="108" x2="71" y2="108"/>
<line x1="67" y1="106" x2="68" y2="106"/>
<line x1="75" y1="111" x2="72" y2="108"/>
<line x1="75" y1="111" x2="75" y2="111"/>
<line x1="71" y1="108" x2="72" y2="108"/>
<line x1="77" y1="114" x2="77" y2="114"/>
<line x1="77" y1="114" x2="75" y2="111"/>
<line x1="75" y1="111" x2="75" y2="111"/>
<line x1="79" y1="117" x2="79" y2="117"/>
<line x1="79" y1="117" x2="78" y2="114"/>
<line x1="77" y1="114" x2="78" y2="114"/>
<line x1="81" y1="121" x2="81" y2="121"/>
<line x1="81" y1="121" x2="79" y2="118"/>
<line x1="79" y1="117" x2="79" y2="118"/>
<line x1="81" y1="126" x2="81" y2="126"/>
<line x1="81" y1="126" x2="81" y2="122"/>
<line x1="81" y1="121" x2="81" y2="122"/>
<line x1="81" y1="126" x2="81" y2="126"/>
<line x1="81" y1="126" x2="81" y2="130"/>
<line x1="81" y1="126" x2="81" y2="126"/>
<line x1="1342" y1="132" x2="1342" y2="133"/>
<line x1="1343" y1="129" x2="1342" y2="132"/>
<line x1="1343" y1="129" x2="1343" y2="129"/>
<line x1="1341" y1="135" x2="1340" y2="136"/>
<line x1="1341" y1="135" x2="1342" y2="133"/>
<line x1="1341" y1="135" x2="1341" y2="135"/>
<line x1="1338" y1="139" x2="1337" y2="140"/>
<line x1="1338" y1="139" x2="1340" y2="136"/>
<line x1="1338" y1="139" x2="1338" y2="139"/>
<line x1="1335" y1="141" x2="1334" y2="142"/>
<line x1="1335" y1="141" x2="1337" y2="140"/>
<line x1="1335" y1="141" x2="1335" y2="141"/>
<line x1="1332" y1="144" x2="1331" y2="144"/>
<line x1="1332" y1="144" x2="1334" y2="142"/>
<line x1="1332" y1="144" x2="1332" y2="144"/>
<line x1="1328" y1="145" x2="1327" y2="145"/>
<line x1="1328" y1="145" x2="1331" y2="144"/>
<line x1="1328" y1="145" x2="1328" y2="145"/>
<line x1="1324" y1="146" x2="1323" y2="146"/>
<line x1="1324" y1="146" x2="1327" y2="145"/>
<line x1="1324" y1="146" x2="1324" y2="146"/>
<line x1="1320" y1="145" x2="1318" y2="145"/>
<line x1="1320" y1="145" x2="1323" y2="146"/>
<line x1="1320" y1="145" x2="1320" y2="145"/>
<line x1="1315" y1="144" x2="1314" y2="144"/>
<line x1="1315" y1="144" x2="1315" y2="144"/>
<line x1="1315" y1="144" x2="1316" y2="144"/>
<line x1="1318" y1="145" x2="1318" y2="145"/>
<line x1="1318" y1="145" x2="1318" y2="145"/>
<line x1="1317" y1="145" x2="1318" y2="145"/>
<line x1="1317" y1="145" x2="1317" y2="145"/>
<line x1="1316" y1="145" x2="1317" y2="145"/>
<line x1="1316" y1="145" x2="1316" y2="144"/>
<line x1="1313" y1="144" x2="1314" y2="144"/>
<line x1="1314" y1="106" x2="1314" y2="105"/>
<line x1="1314" y1="106" x2="1313" y2="106"/>
<line x1="1315" y1="105" x2="1317" y2="104"/>
<line x1="1315" y1="105" x2="1314" y2="105"/>
<line x1="1330" y1="105" x2="1331" y2="105"/>
<line x1="1328" y1="104" x2="1330" y2="105"/>
<line x1="1333" y1="107" x2="1334" y2="107"/>
<line x1="1331" y1="105" x2="1331" y2="105"/>
<line x1="1331" y1="105" x2="1333" y2="107"/>
<line x1="1337" y1="109" x2="1337" y2="110"/>
<line x1="1334" y1="107" x2="1334" y2="107"/>
<line x1="1334" y1="107" x2="1337" y2="109"/>
<line x1="1339" y1="112" x2="1340" y2="113"/>
<line x1="1338" y1="110" x2="1339" y2="112"/>
<line x1="1338" y1="110" x2="1337" y2="110"/>
<line x1="1342" y1="116" x2="1342" y2="117"/>
<line x1="1340" y1="113" x2="1342" y2="116"/>
<line x1="1340" y1="113" x2="1340" y2="113"/>
<line x1="1343" y1="119" x2="1343" y2="120"/>
<line x1="1343" y1="119" x2="1343" y2="119"/>
<line x1="1343" y1="119" x2="1343" y2="119"/>
<line x1="1343" y1="119" x2="1342" y2="117"/>
<line x1="1344" y1="124" x2="1344" y2="125"/>
<line x1="1344" y1="124" x2="1344" y2="124"/>
<line x1="1344" y1="123" x2="1344" y2="124"/>
<line x1="1344" y1="123" x2="1343" y2="120"/>
<line x1="1343" y1="129" x2="1343" y2="129"/>
<line x1="1343" y1="129" x2="1343" y2="128"/>
<line x1="1344" y1="125" x2="1343" y2="128"/>
<line x1="1344" y1="125" x2="1344" y2="125"/>
</g></svg>