<svg xmlns="http://www.w3.org/2000/svg" width="1400" height="900" viewBox="0 0 1400 900">
<rect x="0" y="0" width="100%" height="100%" fill="white"/>
<g stroke="#111" stroke-width="1.2" fill="none" stroke-linecap="round">
<line x1="1313" y1="755" x2="1303" y2="755"/>
<line x1="1275" y1="755" x2="1303" y2="755"/>
<line x1="88" y1="755" x2="87" y2="755"/>
<line x1="90" y1="755" x2="88" y2="755"/>
<line x1="90" y1="755" x2="90" y2="755"/>
<line x1="90" y1="755" x2="94" y2="755"/>
<line x1="1313" y1="627" x2="1313" y2="143"/>
<line x1="1313" y1="627" x2="1313" y2="755"/>
<line x1="87" y1="752" x2="87" y2="749"/>
<line x1="87" y1="752" x2="87" y2="755"/>
<line x1="87" y1="394" x2="87" y2="101"/>
<line x1="87" y1="394" x2="87" y2="716"/>
<line x1="68" y1="732" x2="68" y2="732"/>
<line x1="67" y1="731" x2="68" y2="732"/>
<line x1="65" y1="729" x2="67" y2="731"/>
<line x1="62" y1="727" x2="65" y2="729"/>
<line x1="59" y1="724" x2="62" y2="727"/>
<line x1="51" y1="717" x2="59" y2="724"/>
<line x1="51" y1="717" x2="51" y2="717"/>
<line x1="51" y1="717" x2="51" y2="717"/>
<line x1="50" y1="716" x2="51" y2="717"/>
<line x1="50" y1="716" x2="50" y2="716"/>
<line x1="86" y1="716" x2="87" y2="716"/>
<line x1="83" y1="716" x2="86" y2="716"/>
<line x1="81" y1="716" x2="83" y2="716"/>
<line x1="51" y1="716" x2="51" y2="716"/>
<line x1="78" y1="716" x2="81" y2="716"/>
<line x1="75" y1="716" x2="78" y2="716"/>
<line x1="73" y1="716" x2="75" y2="716"/>
<line x1="70" y1="716" x2="73" y2="716"/>
<line x1="67" y1="716" x2="70" y2="716"/>
<line x1="65" y1="716" x2="67" y2="716"/>
<line x1="62" y1="716" x2="65" y2="716"/>
<line x1="59" y1="716" x2="62" y2="716"/>
<line x1="57" y1="716" x2="59" y2="716"/>
<line x1="54" y1="716" x2="57" y2="716"/>
<line x1="51" y1="716" x2="54" y2="716"/>
<line x1="51" y1="716" x2="51" y2="716"/>
<line x1="51" y1="716" x2="50" y2="716"/>
<line x1="86" y1="748" x2="87" y2="749"/>
<line x1="83" y1="745" x2="86" y2="748"/>
<line x1="81" y1="743" x2="83" y2="745"/>
<line x1="78" y1="741" x2="81" y2="743"/>
<line x1="75" y1="738" x2="78" y2="741"/>
<line x1="73" y1="736" x2="75" y2="738"/>
<line x1="70" y1="734" x2="73" y2="736"/>
<line x1="70" y1="734" x2="68" y2="732"/>
<line x1="95" y1="755" x2="95" y2="756"/>
<line x1="94" y1="755" x2="95" y2="755"/>
<line x1="94" y1="755" x2="94" y2="755"/>
<line x1="50" y1="716" x2="50" y2="716"/>
<line x1="50" y1="716" x2="50" y2="716"/>
<line x1="1274" y1="755" x2="1275" y2="755"/>
<line x1="1274" y1="755" x2="1274" y2="756"/>
<line x1="1274" y1="756" x2="1173" y2="756"/>
<line x1="1173" y1="756" x2="1171" y2="756"/>
<line x1="1171" y1="756" x2="1021" y2="756"/>
<line x1="1021" y1="756" x2="1020" y2="756"/>
<line x1="1020" y1="756" x2="907" y2="756"/>
<line x1="907" y1="756" x2="906" y2="756"/>
<line x1="906" y1="756" x2="818" y2="756"/>
<line x1="818" y1="756" x2="817" y2="756"/>
<line x1="817" y1="756" x2="746" y2="756"/>
<line x1="746" y1="756" x2="746" y2="756"/>
<line x1="746" y1="756" x2="688" y2="756"/>
<line x1="688" y1="756" x2="687" y2="756"/>
<line x1="687" y1="756" x2="639" y2="756"/>
<line x1="105" y1="756" x2="639" y2="756"/>
<line x1="105" y1="756" x2="95" y2="756"/>
<line x1="1287" y1="799" x2="1360" y2="799"/>
<line x1="1287" y1="799" x2="1285" y2="799"/>
<line x1="1285" y1="799" x2="1211" y2="799"/>
<line x1="1211" y1="799" x2="1210" y2="799"/>
<line x1="1210" y1="799" x2="1151" y2="799"/>
<line x1="1151" y1="799" x2="1150" y2="799"/>
<line x1="1150" y1="799" x2="1103" y2="799"/>
<line x1="1103" y1="799" x2="1102" y2="799"/>
<line x1="1102" y1="799" x2="1063" y2="799"/>
<line x1="1063" y1="799" x2="1062" y2="799"/>
<line x1="1062" y1="799" x2="1028" y2="799"/>
<line x1="1028" y1="799" x2="1028" y2="799"/>
<line x1="1028" y1="799" x2="645" y2="799"/>
<line x1="48" y1="799" x2="40" y2="799"/>
<line x1="103" y1="799" x2="48" y2="799"/>
<line x1="148" y1="799" x2="103" y2="799"/>
<line x1="148" y1="799" x2="645" y2="799"/>
<line x1="51" y1="101" x2="87" y2="101"/>
<line x1="51" y1="101" x2="40" y2="101"/>
<line x1="1360" y1="101" x2="1352" y2="101"/>
<line x1="1352" y1="101" x2="1352" y2="101"/>
<line x1="1352" y1="101" x2="1345" y2="101"/>
<line x1="1345" y1="101" x2="1345" y2="101"/>
<line x1="1340" y1="101" x2="1345" y2="101"/>
<line x1="1323" y1="101" x2="1340" y2="101"/>
<line x1="1360" y1="260" x2="1360" y2="101"/>
<line x1="1360" y1="260" x2="1360" y2="799"/>
<line x1="40" y1="676" x2="40" y2="136"/>
<line x1="40" y1="711" x2="40" y2="676"/>
<line x1="40" y1="711" x2="40" y2="799"/>
<line x1="40" y1="103" x2="40" y2="110"/>
<line x1="40" y1="101" x2="40" y2="103"/>
<line x1="76" y1="130" x2="76" y2="131"/>
<line x1="77" y1="127" x2="76" y2="130"/>
<line x1="77" y1="127" x2="77" y2="127"/>
<line x1="75" y1="134" x2="74" y2="135"/>
<line x1="76" y1="131" x2="75" y2="134"/>
<line x1="76" y1="131" x2="76" y2="131"/>
<line x1="72" y1="137" x2="72" y2="138"/>
<line x1="74" y1="135" x2="72" y2="137"/>
<line x1="74" y1="135" x2="74" y2="135"/>
<line x1="69" y1="140" x2="68" y2="141"/>
<line x1="72" y1="138" x2="72" y2="138"/>
<line x1="72" y1="138" x2="69" y2="140"/>
<line x1="65" y1="142" x2="65" y2="142"/>
<line x1="68" y1="141" x2="68" y2="141"/>
<line x1="68" y1="141" x2="65" y2="142"/>
<line x1="61" y1="143" x2="61" y2="144"/>
<line x1="65" y1="142" x2="65" y2="142"/>
<line x1="65" y1="142" x2="61" y2="143"/>
<line x1="57" y1="144" x2="57" y2="144"/>
<line x1="61" y1="144" x2="61" y2="144"/>
<line x1="61" y1="144" x2="57" y2="144"/>
<line x1="53" y1="144" x2="52" y2="144"/>
<line x1="57" y1="144" x2="57" y2="144"/>
<line x1="57" y1="144" x2="53" y2="144"/>
<line x1="49" y1="143" x2="48" y2="142"/>
<line x1="52" y1="144" x2="52" y2="144"/>
<line x1="52" y1="144" x2="49" y2="143"/>
<line x1="45" y1="141" x2="45" y2="141"/>
<line x1="45" y1="141" x2="45" y2="141"/>
<line x1="45" y1="141" x2="45" y2="141"/>
<line x1="48" y1="142" x2="48" y2="142"/>
<line x1="48" y1="142" x2="45" y2="141"/>
<line x1="42" y1="138" x2="42" y2="138"/>
<line x1="45" y1="140" x2="45" y2="141"/>
<line x1="43" y1="139" x2="45" y2="140"/>
<line x1="43" y1="139" x2="43" y2="139"/>
<line x1="43" y1="139" x2="42" y2="138"/>
<line x1="40" y1="136" x2="42" y2="138"/>
<line x1="41" y1="108" x2="42" y2="108"/>
<line x1="41" y1="108" x2="40" y2="110"/>
<line x1="45" y1="105" x2="45" y2="105"/>
<line x1="45" y1="105" x2="44" y2="106"/>
<line x1="43" y1="107" x2="44" y2="106"/>
<line x1="42" y1="107" x2="43" y2="107"/>
<line x1="42" y1="107" x2="42" y2="108"/>
<line x1="48" y1="103" x2="48" y2="103"/>
<line x1="48" y1="103" x2="48" y2="103"/>
<line x1="48" y1="104" x2="48" y2="103"/>
<line x1="47" y1="104" x2="48" y2="104"/>
<line x1="47" y1="104" x2="47" y2="104"/>
<line x1="47" y1="104" x2="45" y2="105"/>
<line x1="52" y1="102" x2="52" y2="102"/>
<line x1="52" y1="102" x2="52" y2="102"/>
<line x1="52" y1="102" x2="48" y2="103"/>
<line x1="56" y1="102" x2="57" y2="101"/>
<line x1="56" y1="102" x2="56" y2="102"/>
<line x1="56" y1="102" x2="52" y2="102"/>
<line x1="60" y1="102" x2="61" y2="102"/>
<line x1="60" y1="102" x2="60" y2="102"/>
<line x1="60" y1="102" x2="57" y2="101"/>
<line x1="64" y1="103" x2="65" y2="103"/>
<line x1="64" y1="103" x2="64" y2="103"/>
<line x1="64" y1="103" x2="61" y2="102"/>
<line x1="68" y1="105" x2="68" y2="105"/>
<line x1="68" y1="105" x2="68" y2="105"/>
<line x1="68" y1="105" x2="65" y2="103"/>
<line x1="71" y1="107" x2="72" y2="108"/>
<line x1="71" y1="107" x2="71" y2="107"/>
<line x1="71" y1="107" x2="68" y2="105"/>
<line x1="74" y1="110" x2="74" y2="111"/>
<line x1="74" y1="110" x2="72" y2="108"/>
<line x1="74" y1="110" x2="74" y2="110"/>
<line x1="76" y1="114" x2="76" y2="115"/>
<line x1="76" y1="114" x2="74" y2="111"/>
<line x1="76" y1="114" x2="76" y2="114"/>
<line x1="77" y1="118" x2="77" y2="119"/>
<line x1="77" y1="118" x2="76" y2="115"/>
<line x1="77" y1="118" x2="77" y2="118"/>
<line x1="78" y1="122" x2="78" y2="123"/>
<line x1="78" y1="122" x2="77" y2="119"/>
<line x1="78" y1="122" x2="78" y2="122"/>
<line x1="78" y1="126" x2="77" y2="127"/>
<line x1="78" y1="123" x2="78" y2="126"/>
<line x1="78" y1="123" x2="78" y2="123"/>
<line x1="1338" y1="128" x2="1337" y2="130"/>
<line x1="1338" y1="126" x2="1338" y2="128"/>
<line x1="1338" y1="126" x2="1338" y2="126"/>
<line x1="1336" y1="132" x2="1335" y2="134"/>
<line x1="1336" y1="132" x2="1337" y2="130"/>
<line x1="1336" y1="132" x2="1336" y2="132"/>
<line x1="1334" y1="135" x2="1333" y2="137"/>
<line x1="1334" y1="135" x2="1335" y2="134"/>
<line x1="1334" y1="135" x2="1334" y2="135"/>
<line x1="1331" y1="138" x2="1329" y2="140"/>
<line x1="1331" y1="138" x2="1333" y2="137"/>
<line x1="1331" y1="138" x2="1331" y2="138"/>
<line x1="1327" y1="141" x2="1326" y2="142"/>
<line x1="1328" y1="141" x2="1329" y2="140"/>
<line x1="1328" y1="141" x2="1327" y2="141"/>
<line x1="1324" y1="142" x2="1322" y2="143"/>
<line x1="1324" y1="142" x2="1326" y2="142"/>
<line x1="1324" y1="142" x2="1324" y2="142"/>
<line x1="1319" y1="143" x2="1318" y2="143"/>
<line x1="1320" y1="143" x2="1322" y2="143"/>
<line x1="1320" y1="143" x2="1319" y2="143"/>
<line x1="1315" y1="143" x2="1313" y2="143"/>
<line x1="1315" y1="143" x2="1318" y2="143"/>
<line x1="1315" y1="143" x2="1315" y2="143"/>
<line x1="1313" y1="143" x2="1313" y2="143"/>
<line x1="1324" y1="102" x2="1326" y2="102"/>
<line x1="1323" y1="101" x2="1324" y2="102"/>
<line x1="1328" y1="103" x2="1329" y2="104"/>
<line x1="1326" y1="102" x2="1326" y2="102"/>
<line x1="1326" y1="102" x2="1328" y2="103"/>
<line x1="1331" y1="106" x2="1333" y2="107"/>
<line x1="1330" y1="104" x2="1329" y2="104"/>
<line x1="1330" y1="104" x2="1331" y2="106"/>
<line x1="1334" y1="109" x2="1335" y2="110"/>
<line x1="1333" y1="107" x2="1334" y2="109"/>
<line x1="1333" y1="107" x2="1333" y2="107"/>
<line x1="1336" y1="112" x2="1337" y2="114"/>
<line x1="1335" y1="110" x2="1336" y2="112"/>
<line x1="1335" y1="110" x2="1335" y2="110"/>
<line x1="1338" y1="116" x2="1338" y2="118"/>
<line x1="1338" y1="116" x2="1338" y2="116"/>
<line x1="1338" y1="116" x2="1338" y2="116"/>
<line x1="1338" y1="116" x2="1337" y2="114"/>
<line x1="1339" y1="120" x2="1339" y2="122"/>
<line x1="1339" y1="120" x2="1339" y2="120"/>
<line x1="1339" y1="120" x2="1339" y2="120"/>
<line x1="1339" y1="120" x2="1338" y2="118"/>
<line x1="1338" y1="126" x2="1338" y2="126"/>
<line x1="1338" y1="126" x2="1339" y2="124"/>
<line x1="1339" y1="122" x2="1339" y2="124"/>
<line x1="1339" y1="122" x2="1339" y2="122"/>
</g></svg>