<svg xmlns="http://www.w3.org/2000/svg" width="1400" height="900" viewBox="0 0 1400 900">
<rect x="0" y="0" width="100%" height="100%" fill="white"/>
<g stroke="#111" stroke-width="1.2" fill="none" stroke-linecap="round">
<line x1="1227" y1="809" x2="1238" y2="809"/>
<line x1="1227" y1="809" x2="1191" y2="809"/>
<line x1="1238" y1="739" x2="1238" y2="809"/>
<line x1="1238" y1="739" x2="1238" y2="89"/>
<line x1="230" y1="700" x2="230" y2="793"/>
<line x1="230" y1="574" x2="230" y2="700"/>
<line x1="230" y1="574" x2="230" y2="40"/>
<line x1="1190" y1="809" x2="1191" y2="809"/>
<line x1="1190" y1="809" x2="1190" y2="809"/>
<line x1="1190" y1="809" x2="1113" y2="809"/>
<line x1="1113" y1="809" x2="1110" y2="809"/>
<line x1="1110" y1="809" x2="866" y2="809"/>
<line x1="866" y1="809" x2="864" y2="809"/>
<line x1="864" y1="809" x2="698" y2="809"/>
<line x1="698" y1="809" x2="696" y2="809"/>
<line x1="696" y1="809" x2="576" y2="809"/>
<line x1="576" y1="809" x2="575" y2="809"/>
<line x1="575" y1="809" x2="483" y2="809"/>
<line x1="483" y1="809" x2="482" y2="809"/>
<line x1="482" y1="809" x2="462" y2="809"/>
<line x1="685" y1="860" x2="452" y2="860"/>
<line x1="685" y1="860" x2="721" y2="860"/>
<line x1="721" y1="860" x2="722" y2="860"/>
<line x1="722" y1="860" x2="771" y2="860"/>
<line x1="771" y1="860" x2="773" y2="860"/>
<line x1="773" y1="860" x2="843" y2="860"/>
<line x1="843" y1="860" x2="845" y2="860"/>
<line x1="845" y1="860" x2="956" y2="860"/>
<line x1="956" y1="860" x2="960" y2="860"/>
<line x1="960" y1="860" x2="1163" y2="860"/>
<line x1="1163" y1="860" x2="1169" y2="860"/>
<line x1="1169" y1="860" x2="1295" y2="860"/>
<line x1="333" y1="860" x2="452" y2="860"/>
<line x1="326" y1="860" x2="333" y2="860"/>
<line x1="318" y1="860" x2="326" y2="860"/>
<line x1="309" y1="860" x2="318" y2="860"/>
<line x1="299" y1="860" x2="309" y2="860"/>
<line x1="287" y1="860" x2="299" y2="860"/>
<line x1="273" y1="860" x2="287" y2="860"/>
<line x1="257" y1="860" x2="273" y2="860"/>
<line x1="238" y1="860" x2="257" y2="860"/>
<line x1="116" y1="860" x2="238" y2="860"/>
<line x1="181" y1="40" x2="230" y2="40"/>
<line x1="181" y1="40" x2="105" y2="40"/>
<line x1="1284" y1="40" x2="1295" y2="40"/>
<line x1="1283" y1="40" x2="1284" y2="40"/>
<line x1="1273" y1="40" x2="1283" y2="40"/>
<line x1="1273" y1="40" x2="1273" y2="40"/>
<line x1="1267" y1="40" x2="1273" y2="40"/>
<line x1="1267" y1="40" x2="1267" y2="40"/>
<line x1="1250" y1="40" x2="1267" y2="40"/>
<line x1="1295" y1="344" x2="1295" y2="40"/>
<line x1="1295" y1="344" x2="1295" y2="860"/>
<line x1="105" y1="464" x2="105" y2="40"/>
<line x1="105" y1="648" x2="105" y2="840"/>
<line x1="105" y1="564" x2="105" y2="648"/>
<line x1="105" y1="515" x2="105" y2="564"/>
<line x1="105" y1="464" x2="105" y2="515"/>
<line x1="1268" y1="71" x2="1268" y2="71"/>
<line x1="1268" y1="71" x2="1268" y2="74"/>
<line x1="1268" y1="71" x2="1269" y2="69"/>
<line x1="1268" y1="71" x2="1268" y2="71"/>
<line x1="1265" y1="78" x2="1265" y2="78"/>
<line x1="1265" y1="78" x2="1267" y2="76"/>
<line x1="1267" y1="76" x2="1268" y2="74"/>
<line x1="1262" y1="82" x2="1262" y2="82"/>
<line x1="1262" y1="82" x2="1264" y2="80"/>
<line x1="1264" y1="80" x2="1265" y2="78"/>
<line x1="1258" y1="85" x2="1260" y2="83"/>
<line x1="1258" y1="85" x2="1258" y2="85"/>
<line x1="1260" y1="83" x2="1262" y2="82"/>
<line x1="1254" y1="87" x2="1256" y2="86"/>
<line x1="1254" y1="87" x2="1253" y2="87"/>
<line x1="1256" y1="86" x2="1258" y2="85"/>
<line x1="1249" y1="89" x2="1251" y2="88"/>
<line x1="1249" y1="89" x2="1248" y2="89"/>
<line x1="1251" y1="88" x2="1253" y2="87"/>
<line x1="1244" y1="89" x2="1246" y2="89"/>
<line x1="1243" y1="89" x2="1244" y2="89"/>
<line x1="1246" y1="89" x2="1248" y2="89"/>
<line x1="1239" y1="89" x2="1238" y2="89"/>
<line x1="1239" y1="89" x2="1239" y2="89"/>
<line x1="1239" y1="89" x2="1239" y2="89"/>
<line x1="1239" y1="89" x2="1239" y2="89"/>
<line x1="1239" y1="89" x2="1241" y2="89"/>
<line x1="1241" y1="89" x2="1243" y2="89"/>
<line x1="1238" y1="89" x2="1238" y2="89"/>
<line x1="1251" y1="40" x2="1253" y2="41"/>
<line x1="1251" y1="40" x2="1251" y2="40"/>
<line x1="1250" y1="40" x2="1251" y2="40"/>
<line x1="1256" y1="42" x2="1258" y2="43"/>
<line x1="1256" y1="42" x2="1255" y2="42"/>
<line x1="1255" y1="42" x2="1253" y2="41"/>
<line x1="1260" y1="45" x2="1262" y2="46"/>
<line x1="1260" y1="45" x2="1260" y2="45"/>
<line x1="1258" y1="43" x2="1260" y2="45"/>
<line x1="1263" y1="48" x2="1265" y2="50"/>
<line x1="1263" y1="48" x2="1263" y2="48"/>
<line x1="1262" y1="46" x2="1263" y2="48"/>
<line x1="1266" y1="52" x2="1268" y2="55"/>
<line x1="1266" y1="52" x2="1266" y2="52"/>
<line x1="1266" y1="52" x2="1265" y2="50"/>
<line x1="1269" y1="59" x2="1269" y2="59"/>
<line x1="1268" y1="57" x2="1269" y2="59"/>
<line x1="1268" y1="55" x2="1268" y2="57"/>
<line x1="1270" y1="64" x2="1270" y2="64"/>
<line x1="1270" y1="64" x2="1269" y2="61"/>
<line x1="1269" y1="59" x2="1269" y2="61"/>
<line x1="1269" y1="59" x2="1269" y2="59"/>
<line x1="1269" y1="67" x2="1269" y2="66"/>
<line x1="1269" y1="67" x2="1269" y2="69"/>
<line x1="1269" y1="66" x2="1270" y2="64"/>
<line x1="1269" y1="66" x2="1269" y2="66"/>
<line x1="323" y1="854" x2="331" y2="854"/>
<line x1="342" y1="854" x2="331" y2="854"/>
<line x1="227" y1="795" x2="228" y2="795"/>
<line x1="227" y1="795" x2="224" y2="802"/>
<line x1="223" y1="804" x2="224" y2="802"/>
<line x1="223" y1="804" x2="223" y2="806"/>
<line x1="262" y1="843" x2="257" y2="841"/>
<line x1="262" y1="843" x2="272" y2="846"/>
<line x1="228" y1="823" x2="233" y2="827"/>
<line x1="298" y1="851" x2="288" y2="849"/>
<line x1="461" y1="812" x2="462" y2="809"/>
<line x1="223" y1="811" x2="224" y2="816"/>
<line x1="257" y1="841" x2="249" y2="837"/>
<line x1="233" y1="827" x2="233" y2="827"/>
<line x1="233" y1="827" x2="235" y2="829"/>
<line x1="226" y1="820" x2="224" y2="816"/>
<line x1="226" y1="820" x2="228" y2="823"/>
<line x1="288" y1="849" x2="278" y2="847"/>
<line x1="316" y1="853" x2="323" y2="854"/>
<line x1="396" y1="849" x2="387" y2="851"/>
<line x1="298" y1="851" x2="305" y2="852"/>
<line x1="316" y1="853" x2="305" y2="852"/>
<line x1="228" y1="795" x2="230" y2="793"/>
<line x1="222" y1="809" x2="222" y2="809"/>
<line x1="222" y1="809" x2="223" y2="811"/>
<line x1="223" y1="806" x2="223" y2="806"/>
<line x1="223" y1="806" x2="222" y2="809"/>
<line x1="272" y1="846" x2="278" y2="847"/>
<line x1="371" y1="853" x2="361" y2="854"/>
<line x1="405" y1="847" x2="413" y2="846"/>
<line x1="405" y1="847" x2="396" y2="849"/>
<line x1="361" y1="854" x2="350" y2="854"/>
<line x1="342" y1="854" x2="350" y2="854"/>
<line x1="245" y1="836" x2="245" y2="836"/>
<line x1="245" y1="836" x2="249" y2="837"/>
<line x1="379" y1="852" x2="387" y2="851"/>
<line x1="371" y1="853" x2="379" y2="852"/>
<line x1="242" y1="833" x2="235" y2="829"/>
<line x1="242" y1="833" x2="245" y2="836"/>
<line x1="456" y1="823" x2="452" y2="826"/>
<line x1="458" y1="819" x2="460" y2="816"/>
<line x1="458" y1="819" x2="456" y2="823"/>
<line x1="444" y1="832" x2="449" y2="829"/>
<line x1="444" y1="832" x2="439" y2="836"/>
<line x1="461" y1="812" x2="460" y2="816"/>
<line x1="433" y1="838" x2="427" y2="841"/>
<line x1="420" y1="843" x2="427" y2="841"/>
<line x1="420" y1="843" x2="413" y2="846"/>
<line x1="433" y1="838" x2="439" y2="836"/>
<line x1="449" y1="829" x2="452" y2="826"/>
<line x1="105" y1="840" x2="109" y2="844"/>
<line x1="116" y1="858" x2="116" y2="860"/>
<line x1="116" y1="858" x2="116" y2="858"/>
<line x1="111" y1="846" x2="111" y2="846"/>
<line x1="111" y1="846" x2="112" y2="848"/>
<line x1="109" y1="844" x2="111" y2="846"/>
<line x1="109" y1="844" x2="109" y2="844"/>
<line x1="113" y1="850" x2="115" y2="853"/>
<line x1="113" y1="850" x2="112" y2="848"/>
<line x1="115" y1="856" x2="116" y2="858"/>
<line x1="115" y1="856" x2="115" y2="853"/>
</g></svg>